<?xml version="1.0" encoding="utf-8" standalone="no"?>
<!DOCTYPE svg PUBLIC "-//W3C//DTD SVG 1.1//EN"
  "http://www.w3.org/Graphics/SVG/1.1/DTD/svg11.dtd">
<!-- Created with matplotlib (https://matplotlib.org/) -->
<svg height="432pt" version="1.1" viewBox="0 0 720 432" width="720pt" xmlns="http://www.w3.org/2000/svg" xmlns:xlink="http://www.w3.org/1999/xlink">
 <defs>
  <style type="text/css">
*{stroke-linecap:butt;stroke-linejoin:round;}
  </style>
 </defs>
 <g id="figure_1">
  <g id="patch_1">
   <path d="M 0 432 
L 720 432 
L 720 0 
L 0 0 
z
" style="fill:#ffffff;"/>
  </g>
  <g id="axes_1">
   <g id="patch_2">
    <path d="M 59.328094 385.279095 
L 687.709406 385.279095 
L 687.709406 217.905172 
L 59.328094 217.905172 
z
" style="fill:#e5e5e5;"/>
   </g>
   <g id="matplotlib.axis_1">
    <g id="xtick_1">
     <g id="line2d_1">
      <path clip-path="url(#p99c00fc5bd)" d="M 64.813745 385.279095 
L 64.813745 217.905172 
" style="fill:none;stroke:#ffffff;stroke-linecap:square;stroke-width:0.8;"/>
     </g>
     <g id="line2d_2">
      <defs>
       <path d="M 0 0 
L 0 3.5 
" id="ma227e0a2b1" style="stroke:#555555;stroke-width:0.8;"/>
      </defs>
      <g>
       <use style="fill:#555555;stroke:#555555;stroke-width:0.8;" x="64.813745" xlink:href="#ma227e0a2b1" y="385.279095"/>
      </g>
     </g>
     <g id="text_1">
      <!-- 0 -->
      <defs>
       <path d="M 25.09375 62.703125 
C 15.203125 62.703125 5 50.5 5 30.59375 
C 5 10.40625 15.296875 -1.203125 25.203125 -1.203125 
C 34.203125 -1.203125 44.90625 8.59375 44.90625 30.09375 
C 44.90625 51.296875 34.703125 62.703125 25.09375 62.703125 
z
M 34.796875 48.40625 
L 12.90625 20 
C 12 23.5 11.5 27.40625 11.5 31.796875 
C 11.5 47.796875 18.796875 56.59375 25 56.59375 
C 28.40625 56.59375 32.09375 53.90625 34.796875 48.40625 
z
M 37.09375 41.796875 
C 38 38.296875 38.40625 34.09375 38.40625 29.203125 
C 38.40625 11.796875 30.90625 5.203125 25.40625 5.203125 
C 21.703125 5.203125 17.90625 8.203125 15.203125 13.703125 
z
" id="Inconsolata-48"/>
      </defs>
      <g style="fill:#555555;" transform="translate(62.313745 398.91972)scale(0.1 -0.1)">
       <use xlink:href="#Inconsolata-48"/>
      </g>
     </g>
    </g>
    <g id="xtick_2">
     <g id="line2d_3">
      <path clip-path="url(#p99c00fc5bd)" d="M 174.526763 385.279095 
L 174.526763 217.905172 
" style="fill:none;stroke:#ffffff;stroke-linecap:square;stroke-width:0.8;"/>
     </g>
     <g id="line2d_4">
      <g>
       <use style="fill:#555555;stroke:#555555;stroke-width:0.8;" x="174.526763" xlink:href="#ma227e0a2b1" y="385.279095"/>
      </g>
     </g>
     <g id="text_2">
      <!-- 20 -->
      <defs>
       <path d="M 7.703125 52.59375 
L 12.796875 48.5 
C 13.40625 49.40625 13.09375 50 13.703125 50.796875 
C 15.203125 53.09375 18.90625 56.5 24.296875 56.5 
C 31 56.5 36.296875 51.40625 36.296875 44.703125 
C 36.296875 37.09375 29.90625 31.59375 25.40625 27.5 
C 18.296875 21.09375 12.5 14.703125 7.296875 4.40625 
L 7.296875 0 
L 43.90625 0 
L 43.90625 6.90625 
C 43.203125 7.203125 42.703125 6.703125 42.5 6.5 
C 42.09375 6.09375 41.90625 6.09375 41.5 6.09375 
L 15.296875 6.09375 
C 20.5 15.09375 27.796875 21.296875 32.296875 25.5 
C 36.796875 29.796875 43.203125 36.203125 43.203125 45.203125 
C 43.203125 54.90625 35.296875 62.703125 25.203125 62.703125 
C 18.09375 62.703125 11.40625 58.90625 7.703125 52.59375 
z
" id="Inconsolata-50"/>
      </defs>
      <g style="fill:#555555;" transform="translate(169.526763 398.91972)scale(0.1 -0.1)">
       <use xlink:href="#Inconsolata-50"/>
       <use x="49.999985" xlink:href="#Inconsolata-48"/>
      </g>
     </g>
    </g>
    <g id="xtick_3">
     <g id="line2d_5">
      <path clip-path="url(#p99c00fc5bd)" d="M 284.239782 385.279095 
L 284.239782 217.905172 
" style="fill:none;stroke:#ffffff;stroke-linecap:square;stroke-width:0.8;"/>
     </g>
     <g id="line2d_6">
      <g>
       <use style="fill:#555555;stroke:#555555;stroke-width:0.8;" x="284.239782" xlink:href="#ma227e0a2b1" y="385.279095"/>
      </g>
     </g>
     <g id="text_3">
      <!-- 40 -->
      <defs>
       <path d="M 31.296875 62.296875 
L 4.796875 22.40625 
L 4.796875 17.203125 
L 29.90625 17.203125 
L 29.90625 0 
L 37.09375 0 
L 37.09375 17.09375 
L 45.203125 17.09375 
L 45.203125 23.296875 
L 37.09375 23.296875 
L 37.09375 62.296875 
z
M 30 51.203125 
L 30 23.296875 
L 11.703125 23.296875 
z
" id="Inconsolata-52"/>
      </defs>
      <g style="fill:#555555;" transform="translate(279.239782 398.91972)scale(0.1 -0.1)">
       <use xlink:href="#Inconsolata-52"/>
       <use x="49.999985" xlink:href="#Inconsolata-48"/>
      </g>
     </g>
    </g>
    <g id="xtick_4">
     <g id="line2d_7">
      <path clip-path="url(#p99c00fc5bd)" d="M 393.9528 385.279095 
L 393.9528 217.905172 
" style="fill:none;stroke:#ffffff;stroke-linecap:square;stroke-width:0.8;"/>
     </g>
     <g id="line2d_8">
      <g>
       <use style="fill:#555555;stroke:#555555;stroke-width:0.8;" x="393.9528" xlink:href="#ma227e0a2b1" y="385.279095"/>
      </g>
     </g>
     <g id="text_4">
      <!-- 60 -->
      <defs>
       <path d="M 28.703125 63 
C 21.203125 63 13.203125 58.40625 9.296875 47.5 
C 7.203125 41.59375 6.703125 34.296875 6.703125 28.296875 
C 6.703125 21 7.40625 13.203125 11.40625 7.203125 
C 15 1.703125 20.59375 -1.09375 26.09375 -1.09375 
C 35.59375 -1.09375 43.90625 6.90625 43.90625 19.796875 
C 43.90625 32.703125 35.59375 40.203125 26.796875 40.203125 
C 21.40625 40.203125 16.296875 37.296875 13.59375 32.703125 
C 14 54 24.203125 56.796875 28.703125 56.796875 
C 32.796875 56.796875 35.59375 54.59375 36 54.203125 
C 36.59375 53.5 36.59375 52.59375 37.5 51.90625 
L 42.296875 57.296875 
C 38.703125 60.90625 33.703125 63 28.703125 63 
z
M 26.09375 34 
C 31.09375 34 37.09375 30.09375 37.09375 19.40625 
C 37.09375 9.703125 31.703125 5.09375 26.40625 5.09375 
C 18.796875 5.09375 13.09375 14 13.90625 25.703125 
C 16.703125 30.796875 21.5 34 26.09375 34 
z
" id="Inconsolata-54"/>
      </defs>
      <g style="fill:#555555;" transform="translate(388.9528 398.91972)scale(0.1 -0.1)">
       <use xlink:href="#Inconsolata-54"/>
       <use x="49.999985" xlink:href="#Inconsolata-48"/>
      </g>
     </g>
    </g>
    <g id="xtick_5">
     <g id="line2d_9">
      <path clip-path="url(#p99c00fc5bd)" d="M 503.665818 385.279095 
L 503.665818 217.905172 
" style="fill:none;stroke:#ffffff;stroke-linecap:square;stroke-width:0.8;"/>
     </g>
     <g id="line2d_10">
      <g>
       <use style="fill:#555555;stroke:#555555;stroke-width:0.8;" x="503.665818" xlink:href="#ma227e0a2b1" y="385.279095"/>
      </g>
     </g>
     <g id="text_5">
      <!-- 80 -->
      <defs>
       <path d="M 25.796875 63 
C 16.203125 63 8.90625 56.09375 8.90625 47.703125 
C 8.90625 41.59375 12.796875 36 18.40625 33.09375 
C 11 29.59375 6 22.796875 6 15.59375 
C 6 6.296875 14.203125 -1.09375 24.90625 -1.09375 
C 35.796875 -1.09375 44.09375 6.5 44.09375 16 
C 44.09375 23.40625 39.09375 30 32.09375 33.296875 
C 38.09375 36.40625 42 42.296875 42 48.296875 
C 42 56.5 34.90625 63 25.796875 63 
z
M 23.703125 30.203125 
C 31.703125 27.703125 37 22.203125 37 16.09375 
C 37 10.09375 31.90625 5.203125 25.203125 5.203125 
C 18.40625 5.203125 13.203125 10.296875 13.203125 16.5 
C 13.203125 22.40625 17.796875 27.796875 23.703125 30.203125 
z
M 25.203125 57.203125 
C 30.796875 57.203125 35.203125 53 35.203125 47.796875 
C 35.203125 43 31.5 38.40625 26.59375 35.796875 
C 26.59375 35.796875 15.59375 40 15.59375 48.296875 
C 15.59375 53.203125 19.796875 57.203125 25.203125 57.203125 
z
" id="Inconsolata-56"/>
      </defs>
      <g style="fill:#555555;" transform="translate(498.665818 398.91972)scale(0.1 -0.1)">
       <use xlink:href="#Inconsolata-56"/>
       <use x="49.999985" xlink:href="#Inconsolata-48"/>
      </g>
     </g>
    </g>
    <g id="xtick_6">
     <g id="line2d_11">
      <path clip-path="url(#p99c00fc5bd)" d="M 613.378836 385.279095 
L 613.378836 217.905172 
" style="fill:none;stroke:#ffffff;stroke-linecap:square;stroke-width:0.8;"/>
     </g>
     <g id="line2d_12">
      <g>
       <use style="fill:#555555;stroke:#555555;stroke-width:0.8;" x="613.378836" xlink:href="#ma227e0a2b1" y="385.279095"/>
      </g>
     </g>
     <g id="text_6">
      <!-- 100 -->
      <defs>
       <path d="M 29.90625 62.296875 
L 25.09375 62.296875 
L 8.796875 53.796875 
L 10.40625 49.90625 
L 22.90625 53.59375 
L 22.90625 -0.09375 
L 29.90625 -0.09375 
z
" id="Inconsolata-49"/>
      </defs>
      <g style="fill:#555555;" transform="translate(605.878836 398.91972)scale(0.1 -0.1)">
       <use xlink:href="#Inconsolata-49"/>
       <use x="49.999985" xlink:href="#Inconsolata-48"/>
       <use x="99.999969" xlink:href="#Inconsolata-48"/>
      </g>
     </g>
    </g>
    <g id="text_7">
     <!-- days since 3 deaths -->
     <defs>
      <path d="M 37.09375 39 
C 34.90625 43.703125 30 46.796875 23.703125 46.796875 
C 15 46.796875 4.40625 40.59375 4.40625 23.203125 
C 4.40625 6.296875 13.796875 -1.09375 22.59375 -1.09375 
C 28.40625 -1.09375 33.796875 2.203125 36.703125 7.296875 
L 36.703125 3.296875 
C 36.703125 2.203125 36.796875 1.09375 37.09375 0 
L 44.296875 0 
C 43.90625 1.296875 43.90625 2.796875 43.90625 4.203125 
L 43.796875 63.59375 
C 43.796875 64.203125 43.796875 64.40625 44.203125 65 
C 44.40625 65.296875 44.796875 65.796875 44.703125 66.5 
L 37.09375 66.5 
z
M 24 40.90625 
C 28 40.90625 33.90625 38.796875 35.703125 32 
C 36.296875 29.90625 36.5 27.40625 36.5 22.296875 
C 36.5 18.796875 36.296875 16.296875 35.5 13.90625 
C 33.796875 8.5 29 5.296875 24.296875 5.296875 
C 19.09375 5.296875 11.40625 9.296875 11.40625 24.296875 
C 11.40625 37.40625 18.703125 40.90625 24 40.90625 
z
" id="Inconsolata-100"/>
      <path d="M 9 40.296875 
L 12.5 35.703125 
C 16.296875 39.59375 21.40625 40.796875 25.703125 40.796875 
C 31.09375 40.796875 33.796875 38.5 35.09375 36.40625 
C 36.59375 33.90625 36.5 30.90625 36.5 28.5 
L 36.5 26.90625 
L 35.09375 26.90625 
C 28.296875 26.90625 21.09375 26.90625 15.296875 24.796875 
C 8.09375 22.203125 4.90625 16.796875 4.90625 11.796875 
C 4.90625 5.09375 10.703125 -1.203125 20.203125 -1.203125 
C 25.796875 -1.203125 31.59375 0.90625 36.59375 5 
L 36.59375 0 
L 43.40625 0 
L 43.40625 28.296875 
C 43.40625 32 43.296875 35.5 41.203125 39.09375 
C 38.203125 44 32.40625 46.59375 25.296875 46.59375 
C 19.203125 46.59375 13.296875 44.703125 9 40.296875 
z
M 36.796875 21.40625 
L 36.796875 18.296875 
C 36.796875 16 36.796875 13 33.703125 9.703125 
C 32 8 27.703125 4.296875 21.703125 4.296875 
C 15.59375 4.296875 12.09375 8.203125 12.09375 12.203125 
C 12.09375 15.59375 14.40625 19.296875 20.09375 20.703125 
C 24.296875 21.703125 30.40625 21.40625 35.203125 21.40625 
z
" id="Inconsolata-97"/>
      <path d="M 4.5 45.59375 
L 23.09375 0.09375 
L 21.59375 -3.203125 
C 20.796875 -5.09375 19.90625 -7 18.5 -8.5 
C 16.59375 -10.59375 14.203125 -11.5 12.09375 -11.5 
C 8.703125 -11.5 7 -9.203125 6.703125 -8.796875 
C 6.40625 -8.296875 6.5 -7.59375 5.90625 -7.09375 
L 2.203125 -13.59375 
C 4.796875 -16.09375 8.296875 -17.40625 12.09375 -17.40625 
C 16.203125 -17.40625 20.5 -15.90625 23.5 -12.5 
C 25.5 -10.203125 26.5 -7.796875 27.5 -5.203125 
L 41.703125 32.5 
C 43.40625 36.796875 44.90625 41.203125 46.296875 45.703125 
L 38.796875 45.703125 
C 38 41.5 36.703125 37.5 35.296875 33.5 
L 26.59375 9 
L 13.203125 42.703125 
C 13.09375 43 13.09375 43.203125 13.09375 43.5 
C 13.09375 44.203125 13.59375 44.703125 13.5 45.59375 
z
" id="Inconsolata-121"/>
      <path d="M 43.203125 39.59375 
C 39 44.203125 32.90625 46.703125 26.09375 46.703125 
C 15.5 46.703125 8.59375 40.796875 8.59375 34 
C 8.59375 26 17.203125 23.09375 19.703125 22.203125 
C 23.59375 20.796875 28.59375 19.59375 32 18 
C 35.796875 16.203125 36.5 13.796875 36.5 12.203125 
C 36.5 7.90625 31.296875 5 24.796875 5 
C 17 5 12 9.703125 10.5 11.296875 
C 10.203125 11.703125 10.203125 12 10.203125 12.40625 
C 10.203125 12.5 10.296875 13.09375 9.796875 13.296875 
L 5.59375 6.203125 
C 11 1.203125 18 -1.09375 24.90625 -1.09375 
C 37.40625 -1.09375 43.90625 6.296875 43.90625 13.203125 
C 43.90625 16.296875 42.59375 20.5 37.203125 23.5 
C 32.09375 26.40625 24.703125 27.40625 20.40625 29.5 
C 16.703125 31.296875 15.90625 33.5 15.90625 35.09375 
C 15.90625 38.703125 20.40625 41.296875 25.5 41.296875 
C 32.09375 41.296875 36.5 37.296875 38.203125 35 
C 38.5 34.703125 38.40625 34.40625 38.40625 34.09375 
C 38.40625 33.5 38.796875 33.296875 39 33.296875 
z
" id="Inconsolata-115"/>
      <path id="Inconsolata-32"/>
      <path d="M 10.59375 45.703125 
L 10.59375 39.796875 
L 21.59375 39.796875 
L 21.59375 5.703125 
L 10 5.703125 
L 10 0 
L 39.59375 0 
L 39.59375 5.703125 
L 28.90625 5.703125 
L 28.90625 45.703125 
z
M 25.40625 65.5 
C 22.5 65.5 20.203125 63.203125 20.203125 60.40625 
C 20.203125 57.59375 22.5 55.296875 25.40625 55.296875 
C 28.296875 55.296875 30.59375 57.59375 30.59375 60.40625 
C 30.59375 63.203125 28.296875 65.5 25.40625 65.5 
z
" id="Inconsolata-105"/>
      <path d="M 6.796875 0 
L 14.09375 0 
L 14.09375 26.296875 
C 14.09375 29.296875 14.5 31.59375 16.40625 34.09375 
C 18.09375 36.40625 22.5 40.5 27.296875 40.5 
C 29.59375 40.5 31.90625 39.5 33.5 37.59375 
C 36 34.59375 36 30.703125 36 27.5 
L 36 0 
L 43.09375 0 
L 43.09375 27.703125 
C 43.09375 31.203125 43.09375 35 41.5 38.703125 
C 39.203125 43.796875 34.5 46.703125 29.296875 46.703125 
C 23.09375 46.703125 17.5 42.703125 14.09375 37.59375 
L 14.09375 45.59375 
L 6.796875 45.59375 
z
" id="Inconsolata-110"/>
      <path d="M 45.59375 38.09375 
C 42 43.40625 35.90625 46.59375 28.5 46.59375 
C 15.09375 46.59375 5.59375 36.5 5.59375 22.796875 
C 5.59375 9 15.09375 -1.203125 28.09375 -1.203125 
C 34.40625 -1.203125 40.59375 1.40625 44.90625 6.09375 
L 40.796875 10.90625 
C 37.703125 7.40625 33.203125 5.40625 28.703125 5.40625 
C 19.796875 5.40625 13 12.796875 13 23.5 
C 13 33.90625 19.703125 40.40625 28.09375 40.40625 
C 35.90625 40.40625 39.59375 35 39.90625 34.40625 
C 40.296875 33.703125 39.703125 32.703125 40.5 32.09375 
z
" id="Inconsolata-99"/>
      <path d="M 25.796875 46.703125 
C 14.90625 46.703125 4.796875 38.90625 4.796875 22.296875 
C 4.796875 7 14.296875 -1.09375 26.703125 -1.09375 
C 33.296875 -1.09375 39.203125 1.296875 43.09375 6 
L 39.09375 9.90625 
C 36.203125 6.5 31.796875 4.703125 27.296875 4.703125 
C 21.203125 4.703125 12.296875 8.09375 11.796875 21.796875 
L 44.203125 21.796875 
C 44.5 24.90625 44.40625 27.90625 43.90625 30.5 
C 41.796875 42.796875 33.296875 46.703125 25.796875 46.703125 
z
M 12 27.296875 
C 13.5 38.09375 20.40625 41.203125 25.296875 41.203125 
C 32.703125 41.203125 38 34.703125 37.09375 27.296875 
z
" id="Inconsolata-101"/>
      <path d="M 41 46.703125 
C 41 55.203125 33.796875 62.5 23.90625 62.5 
C 18.296875 62.5 12.796875 60.09375 8.90625 55.796875 
L 12.796875 51.5 
C 15.703125 54.59375 19.703125 56.296875 23.59375 56.296875 
C 30 56.296875 34.40625 51.796875 34.40625 46.5 
C 34.40625 42.796875 32.09375 38.59375 27.703125 36.703125 
C 26.59375 36.296875 23.796875 35.203125 17.90625 35.203125 
L 17.90625 29.59375 
C 18.90625 29.703125 20 29.796875 21.09375 29.796875 
C 29.5 29.796875 35.703125 25.40625 35.703125 17.90625 
C 35.703125 11.09375 30.5 5.203125 23.203125 5.203125 
C 17.40625 5.203125 13.90625 9 13.40625 9.5 
C 12.59375 10.40625 13 11.40625 12.09375 12.296875 
L 6.90625 6 
C 11 1.296875 17 -1.09375 23.203125 -1.09375 
C 35.203125 -1.09375 42.40625 7.40625 42.40625 17.09375 
C 42.40625 24.5 38.203125 30.796875 31.703125 33.203125 
C 37.296875 35.296875 41 40.59375 41 46.703125 
z
" id="Inconsolata-51"/>
      <path d="M 18.796875 57.90625 
L 17.90625 45.59375 
L 7 45.59375 
L 6.90625 39.703125 
L 17.59375 39.703125 
C 17 31.90625 16.703125 24.09375 16.703125 16.40625 
C 16.703125 12.296875 16.703125 7.703125 19.40625 3.90625 
C 21.59375 0.90625 25.09375 -0.90625 29.796875 -0.90625 
C 35.203125 -0.90625 40.5 1.40625 44.40625 4.203125 
L 42.203125 9.90625 
C 38.296875 7 34.703125 5.703125 31.90625 5.703125 
C 28.5 5.703125 25 7.59375 24.203125 13.09375 
C 24.203125 13.5 23.90625 15.203125 23.90625 21.90625 
C 23.90625 27.796875 24.203125 33.796875 24.796875 39.703125 
L 39.796875 39.703125 
L 39.796875 45.703125 
L 24.90625 45.703125 
C 24.90625 45.703125 25.59375 53.90625 26.09375 56.5 
C 26.203125 57.5 27 58.09375 26.59375 59.203125 
z
" id="Inconsolata-116"/>
      <path d="M 6.90625 0 
L 14.296875 0 
L 14.296875 26.296875 
C 14.296875 29.296875 14.59375 31.59375 16.5 34.09375 
C 18.296875 36.40625 22.703125 40.5 27.5 40.5 
C 29.796875 40.5 32.09375 39.5 33.703125 37.59375 
C 36.203125 34.59375 36.203125 30.703125 36.203125 27.5 
L 36.203125 0 
L 43.296875 0 
L 43.296875 27.703125 
C 43.296875 31.203125 43.203125 35 41.59375 38.703125 
C 39.296875 43.796875 34.703125 46.703125 29.5 46.703125 
C 23.296875 46.703125 17.59375 42.703125 14.296875 37.59375 
L 14.296875 64.09375 
C 14.296875 64.40625 14.296875 64.703125 14.59375 65 
C 14.90625 65.296875 15.296875 65.59375 15.296875 66.09375 
C 15.296875 66.203125 15.296875 66.296875 15.203125 66.40625 
L 6.90625 66.40625 
z
" id="Inconsolata-104"/>
     </defs>
     <g style="fill:#555555;" transform="translate(316.51875 412.570032)scale(0.12 -0.12)">
      <use xlink:href="#Inconsolata-100"/>
      <use x="49.999985" xlink:href="#Inconsolata-97"/>
      <use x="99.999969" xlink:href="#Inconsolata-121"/>
      <use x="149.999954" xlink:href="#Inconsolata-115"/>
      <use x="199.999939" xlink:href="#Inconsolata-32"/>
      <use x="249.999924" xlink:href="#Inconsolata-115"/>
      <use x="299.999908" xlink:href="#Inconsolata-105"/>
      <use x="349.999893" xlink:href="#Inconsolata-110"/>
      <use x="399.999878" xlink:href="#Inconsolata-99"/>
      <use x="449.999863" xlink:href="#Inconsolata-101"/>
      <use x="499.999847" xlink:href="#Inconsolata-32"/>
      <use x="549.999832" xlink:href="#Inconsolata-51"/>
      <use x="599.999817" xlink:href="#Inconsolata-32"/>
      <use x="649.999802" xlink:href="#Inconsolata-100"/>
      <use x="699.999786" xlink:href="#Inconsolata-101"/>
      <use x="749.999771" xlink:href="#Inconsolata-97"/>
      <use x="799.999756" xlink:href="#Inconsolata-116"/>
      <use x="849.999741" xlink:href="#Inconsolata-104"/>
      <use x="899.999725" xlink:href="#Inconsolata-115"/>
     </g>
    </g>
   </g>
   <g id="matplotlib.axis_2">
    <g id="ytick_1">
     <g id="line2d_13">
      <path clip-path="url(#p99c00fc5bd)" d="M 59.328094 356.818549 
L 687.709406 356.818549 
" style="fill:none;stroke:#ffffff;stroke-linecap:square;stroke-width:0.8;"/>
     </g>
     <g id="line2d_14">
      <defs>
       <path d="M 0 0 
L -3.5 0 
" id="m4d017d8b8a" style="stroke:#555555;stroke-width:0.8;"/>
      </defs>
      <g>
       <use style="fill:#555555;stroke:#555555;stroke-width:0.8;" x="59.328094" xlink:href="#m4d017d8b8a" y="356.818549"/>
      </g>
     </g>
     <g id="line2d_15">
      <defs>
       <path d="M 0 0 
L 3.5 0 
" id="ma581a82079" style="stroke:#555555;stroke-width:0.8;"/>
      </defs>
      <g>
       <use style="fill:#555555;stroke:#555555;stroke-width:0.8;" x="687.709406" xlink:href="#ma581a82079" y="356.818549"/>
      </g>
     </g>
     <g id="text_8">
      <!-- $\mathdefault{10^{1}}$ -->
      <g style="fill:#555555;" transform="translate(38.428094 360.138861)scale(0.1 -0.1)">
       <use transform="translate(0 0.4)" xlink:href="#Inconsolata-49"/>
       <use transform="translate(49.999985 0.4)" xlink:href="#Inconsolata-48"/>
       <use transform="translate(100.799774 32.392188)scale(0.7)" xlink:href="#Inconsolata-49"/>
      </g>
     </g>
     <g id="text_9">
      <!-- $\mathdefault{10^{1}}$ -->
      <g style="fill:#555555;" transform="translate(694.709406 360.138861)scale(0.1 -0.1)">
       <use transform="translate(0 0.4)" xlink:href="#Inconsolata-49"/>
       <use transform="translate(49.999985 0.4)" xlink:href="#Inconsolata-48"/>
       <use transform="translate(100.799774 32.392188)scale(0.7)" xlink:href="#Inconsolata-49"/>
      </g>
     </g>
    </g>
    <g id="ytick_2">
     <g id="line2d_16">
      <path clip-path="url(#p99c00fc5bd)" d="M 59.328094 302.388059 
L 687.709406 302.388059 
" style="fill:none;stroke:#ffffff;stroke-linecap:square;stroke-width:0.8;"/>
     </g>
     <g id="line2d_17">
      <g>
       <use style="fill:#555555;stroke:#555555;stroke-width:0.8;" x="59.328094" xlink:href="#m4d017d8b8a" y="302.388059"/>
      </g>
     </g>
     <g id="line2d_18">
      <g>
       <use style="fill:#555555;stroke:#555555;stroke-width:0.8;" x="687.709406" xlink:href="#ma581a82079" y="302.388059"/>
      </g>
     </g>
     <g id="text_10">
      <!-- $\mathdefault{10^{2}}$ -->
      <g style="fill:#555555;" transform="translate(38.428094 305.708372)scale(0.1 -0.1)">
       <use transform="translate(0 0.115625)" xlink:href="#Inconsolata-49"/>
       <use transform="translate(49.999985 0.115625)" xlink:href="#Inconsolata-48"/>
       <use transform="translate(100.799774 32.107813)scale(0.7)" xlink:href="#Inconsolata-50"/>
      </g>
     </g>
     <g id="text_11">
      <!-- $\mathdefault{10^{2}}$ -->
      <g style="fill:#555555;" transform="translate(694.709406 305.708372)scale(0.1 -0.1)">
       <use transform="translate(0 0.115625)" xlink:href="#Inconsolata-49"/>
       <use transform="translate(49.999985 0.115625)" xlink:href="#Inconsolata-48"/>
       <use transform="translate(100.799774 32.107813)scale(0.7)" xlink:href="#Inconsolata-50"/>
      </g>
     </g>
    </g>
    <g id="ytick_3">
     <g id="line2d_19">
      <path clip-path="url(#p99c00fc5bd)" d="M 59.328094 247.957569 
L 687.709406 247.957569 
" style="fill:none;stroke:#ffffff;stroke-linecap:square;stroke-width:0.8;"/>
     </g>
     <g id="line2d_20">
      <g>
       <use style="fill:#555555;stroke:#555555;stroke-width:0.8;" x="59.328094" xlink:href="#m4d017d8b8a" y="247.957569"/>
      </g>
     </g>
     <g id="line2d_21">
      <g>
       <use style="fill:#555555;stroke:#555555;stroke-width:0.8;" x="687.709406" xlink:href="#ma581a82079" y="247.957569"/>
      </g>
     </g>
     <g id="text_12">
      <!-- $\mathdefault{10^{3}}$ -->
      <g style="fill:#555555;" transform="translate(38.428094 251.277882)scale(0.1 -0.1)">
       <use transform="translate(0 0.257812)" xlink:href="#Inconsolata-49"/>
       <use transform="translate(49.999985 0.257812)" xlink:href="#Inconsolata-48"/>
       <use transform="translate(100.799774 32.25)scale(0.7)" xlink:href="#Inconsolata-51"/>
      </g>
     </g>
     <g id="text_13">
      <!-- $\mathdefault{10^{3}}$ -->
      <g style="fill:#555555;" transform="translate(694.709406 251.277882)scale(0.1 -0.1)">
       <use transform="translate(0 0.257812)" xlink:href="#Inconsolata-49"/>
       <use transform="translate(49.999985 0.257812)" xlink:href="#Inconsolata-48"/>
       <use transform="translate(100.799774 32.25)scale(0.7)" xlink:href="#Inconsolata-51"/>
      </g>
     </g>
    </g>
    <g id="ytick_4">
     <g id="line2d_22">
      <defs>
       <path d="M 0 0 
L -2 0 
" id="m899fca1d34" style="stroke:#555555;stroke-width:0.6;"/>
      </defs>
      <g>
       <use style="fill:#555555;stroke:#555555;stroke-width:0.6;" x="59.328094" xlink:href="#m899fca1d34" y="385.279095"/>
      </g>
     </g>
     <g id="line2d_23">
      <defs>
       <path d="M 0 0 
L 2 0 
" id="ma26edd490e" style="stroke:#555555;stroke-width:0.6;"/>
      </defs>
      <g>
       <use style="fill:#555555;stroke:#555555;stroke-width:0.6;" x="687.709406" xlink:href="#ma26edd490e" y="385.279095"/>
      </g>
     </g>
    </g>
    <g id="ytick_5">
     <g id="line2d_24">
      <g>
       <use style="fill:#555555;stroke:#555555;stroke-width:0.6;" x="59.328094" xlink:href="#m899fca1d34" y="378.478618"/>
      </g>
     </g>
     <g id="line2d_25">
      <g>
       <use style="fill:#555555;stroke:#555555;stroke-width:0.6;" x="687.709406" xlink:href="#ma26edd490e" y="378.478618"/>
      </g>
     </g>
    </g>
    <g id="ytick_6">
     <g id="line2d_26">
      <g>
       <use style="fill:#555555;stroke:#555555;stroke-width:0.6;" x="59.328094" xlink:href="#m899fca1d34" y="373.203759"/>
      </g>
     </g>
     <g id="line2d_27">
      <g>
       <use style="fill:#555555;stroke:#555555;stroke-width:0.6;" x="687.709406" xlink:href="#ma26edd490e" y="373.203759"/>
      </g>
     </g>
    </g>
    <g id="ytick_7">
     <g id="line2d_28">
      <g>
       <use style="fill:#555555;stroke:#555555;stroke-width:0.6;" x="59.328094" xlink:href="#m899fca1d34" y="368.893885"/>
      </g>
     </g>
     <g id="line2d_29">
      <g>
       <use style="fill:#555555;stroke:#555555;stroke-width:0.6;" x="687.709406" xlink:href="#ma26edd490e" y="368.893885"/>
      </g>
     </g>
    </g>
    <g id="ytick_8">
     <g id="line2d_30">
      <g>
       <use style="fill:#555555;stroke:#555555;stroke-width:0.6;" x="59.328094" xlink:href="#m899fca1d34" y="365.249938"/>
      </g>
     </g>
     <g id="line2d_31">
      <g>
       <use style="fill:#555555;stroke:#555555;stroke-width:0.6;" x="687.709406" xlink:href="#ma26edd490e" y="365.249938"/>
      </g>
     </g>
    </g>
    <g id="ytick_9">
     <g id="line2d_32">
      <g>
       <use style="fill:#555555;stroke:#555555;stroke-width:0.6;" x="59.328094" xlink:href="#m899fca1d34" y="362.093408"/>
      </g>
     </g>
     <g id="line2d_33">
      <g>
       <use style="fill:#555555;stroke:#555555;stroke-width:0.6;" x="687.709406" xlink:href="#ma26edd490e" y="362.093408"/>
      </g>
     </g>
    </g>
    <g id="ytick_10">
     <g id="line2d_34">
      <g>
       <use style="fill:#555555;stroke:#555555;stroke-width:0.6;" x="59.328094" xlink:href="#m899fca1d34" y="359.309151"/>
      </g>
     </g>
     <g id="line2d_35">
      <g>
       <use style="fill:#555555;stroke:#555555;stroke-width:0.6;" x="687.709406" xlink:href="#ma26edd490e" y="359.309151"/>
      </g>
     </g>
    </g>
    <g id="ytick_11">
     <g id="line2d_36">
      <g>
       <use style="fill:#555555;stroke:#555555;stroke-width:0.6;" x="59.328094" xlink:href="#m899fca1d34" y="340.433339"/>
      </g>
     </g>
     <g id="line2d_37">
      <g>
       <use style="fill:#555555;stroke:#555555;stroke-width:0.6;" x="687.709406" xlink:href="#ma26edd490e" y="340.433339"/>
      </g>
     </g>
    </g>
    <g id="ytick_12">
     <g id="line2d_38">
      <g>
       <use style="fill:#555555;stroke:#555555;stroke-width:0.6;" x="59.328094" xlink:href="#m899fca1d34" y="330.848605"/>
      </g>
     </g>
     <g id="line2d_39">
      <g>
       <use style="fill:#555555;stroke:#555555;stroke-width:0.6;" x="687.709406" xlink:href="#ma26edd490e" y="330.848605"/>
      </g>
     </g>
    </g>
    <g id="ytick_13">
     <g id="line2d_40">
      <g>
       <use style="fill:#555555;stroke:#555555;stroke-width:0.6;" x="59.328094" xlink:href="#m899fca1d34" y="324.048129"/>
      </g>
     </g>
     <g id="line2d_41">
      <g>
       <use style="fill:#555555;stroke:#555555;stroke-width:0.6;" x="687.709406" xlink:href="#ma26edd490e" y="324.048129"/>
      </g>
     </g>
    </g>
    <g id="ytick_14">
     <g id="line2d_42">
      <g>
       <use style="fill:#555555;stroke:#555555;stroke-width:0.6;" x="59.328094" xlink:href="#m899fca1d34" y="318.773269"/>
      </g>
     </g>
     <g id="line2d_43">
      <g>
       <use style="fill:#555555;stroke:#555555;stroke-width:0.6;" x="687.709406" xlink:href="#ma26edd490e" y="318.773269"/>
      </g>
     </g>
    </g>
    <g id="ytick_15">
     <g id="line2d_44">
      <g>
       <use style="fill:#555555;stroke:#555555;stroke-width:0.6;" x="59.328094" xlink:href="#m899fca1d34" y="314.463395"/>
      </g>
     </g>
     <g id="line2d_45">
      <g>
       <use style="fill:#555555;stroke:#555555;stroke-width:0.6;" x="687.709406" xlink:href="#ma26edd490e" y="314.463395"/>
      </g>
     </g>
    </g>
    <g id="ytick_16">
     <g id="line2d_46">
      <g>
       <use style="fill:#555555;stroke:#555555;stroke-width:0.6;" x="59.328094" xlink:href="#m899fca1d34" y="310.819449"/>
      </g>
     </g>
     <g id="line2d_47">
      <g>
       <use style="fill:#555555;stroke:#555555;stroke-width:0.6;" x="687.709406" xlink:href="#ma26edd490e" y="310.819449"/>
      </g>
     </g>
    </g>
    <g id="ytick_17">
     <g id="line2d_48">
      <g>
       <use style="fill:#555555;stroke:#555555;stroke-width:0.6;" x="59.328094" xlink:href="#m899fca1d34" y="307.662919"/>
      </g>
     </g>
     <g id="line2d_49">
      <g>
       <use style="fill:#555555;stroke:#555555;stroke-width:0.6;" x="687.709406" xlink:href="#ma26edd490e" y="307.662919"/>
      </g>
     </g>
    </g>
    <g id="ytick_18">
     <g id="line2d_50">
      <g>
       <use style="fill:#555555;stroke:#555555;stroke-width:0.6;" x="59.328094" xlink:href="#m899fca1d34" y="304.878662"/>
      </g>
     </g>
     <g id="line2d_51">
      <g>
       <use style="fill:#555555;stroke:#555555;stroke-width:0.6;" x="687.709406" xlink:href="#ma26edd490e" y="304.878662"/>
      </g>
     </g>
    </g>
    <g id="ytick_19">
     <g id="line2d_52">
      <g>
       <use style="fill:#555555;stroke:#555555;stroke-width:0.6;" x="59.328094" xlink:href="#m899fca1d34" y="286.002849"/>
      </g>
     </g>
     <g id="line2d_53">
      <g>
       <use style="fill:#555555;stroke:#555555;stroke-width:0.6;" x="687.709406" xlink:href="#ma26edd490e" y="286.002849"/>
      </g>
     </g>
    </g>
    <g id="ytick_20">
     <g id="line2d_54">
      <g>
       <use style="fill:#555555;stroke:#555555;stroke-width:0.6;" x="59.328094" xlink:href="#m899fca1d34" y="276.418116"/>
      </g>
     </g>
     <g id="line2d_55">
      <g>
       <use style="fill:#555555;stroke:#555555;stroke-width:0.6;" x="687.709406" xlink:href="#ma26edd490e" y="276.418116"/>
      </g>
     </g>
    </g>
    <g id="ytick_21">
     <g id="line2d_56">
      <g>
       <use style="fill:#555555;stroke:#555555;stroke-width:0.6;" x="59.328094" xlink:href="#m899fca1d34" y="269.617639"/>
      </g>
     </g>
     <g id="line2d_57">
      <g>
       <use style="fill:#555555;stroke:#555555;stroke-width:0.6;" x="687.709406" xlink:href="#ma26edd490e" y="269.617639"/>
      </g>
     </g>
    </g>
    <g id="ytick_22">
     <g id="line2d_58">
      <g>
       <use style="fill:#555555;stroke:#555555;stroke-width:0.6;" x="59.328094" xlink:href="#m899fca1d34" y="264.34278"/>
      </g>
     </g>
     <g id="line2d_59">
      <g>
       <use style="fill:#555555;stroke:#555555;stroke-width:0.6;" x="687.709406" xlink:href="#ma26edd490e" y="264.34278"/>
      </g>
     </g>
    </g>
    <g id="ytick_23">
     <g id="line2d_60">
      <g>
       <use style="fill:#555555;stroke:#555555;stroke-width:0.6;" x="59.328094" xlink:href="#m899fca1d34" y="260.032906"/>
      </g>
     </g>
     <g id="line2d_61">
      <g>
       <use style="fill:#555555;stroke:#555555;stroke-width:0.6;" x="687.709406" xlink:href="#ma26edd490e" y="260.032906"/>
      </g>
     </g>
    </g>
    <g id="ytick_24">
     <g id="line2d_62">
      <g>
       <use style="fill:#555555;stroke:#555555;stroke-width:0.6;" x="59.328094" xlink:href="#m899fca1d34" y="256.388959"/>
      </g>
     </g>
     <g id="line2d_63">
      <g>
       <use style="fill:#555555;stroke:#555555;stroke-width:0.6;" x="687.709406" xlink:href="#ma26edd490e" y="256.388959"/>
      </g>
     </g>
    </g>
    <g id="ytick_25">
     <g id="line2d_64">
      <g>
       <use style="fill:#555555;stroke:#555555;stroke-width:0.6;" x="59.328094" xlink:href="#m899fca1d34" y="253.232429"/>
      </g>
     </g>
     <g id="line2d_65">
      <g>
       <use style="fill:#555555;stroke:#555555;stroke-width:0.6;" x="687.709406" xlink:href="#ma26edd490e" y="253.232429"/>
      </g>
     </g>
    </g>
    <g id="ytick_26">
     <g id="line2d_66">
      <g>
       <use style="fill:#555555;stroke:#555555;stroke-width:0.6;" x="59.328094" xlink:href="#m899fca1d34" y="250.448172"/>
      </g>
     </g>
     <g id="line2d_67">
      <g>
       <use style="fill:#555555;stroke:#555555;stroke-width:0.6;" x="687.709406" xlink:href="#ma26edd490e" y="250.448172"/>
      </g>
     </g>
    </g>
    <g id="ytick_27">
     <g id="line2d_68">
      <g>
       <use style="fill:#555555;stroke:#555555;stroke-width:0.6;" x="59.328094" xlink:href="#m899fca1d34" y="231.572359"/>
      </g>
     </g>
     <g id="line2d_69">
      <g>
       <use style="fill:#555555;stroke:#555555;stroke-width:0.6;" x="687.709406" xlink:href="#ma26edd490e" y="231.572359"/>
      </g>
     </g>
    </g>
    <g id="ytick_28">
     <g id="line2d_70">
      <g>
       <use style="fill:#555555;stroke:#555555;stroke-width:0.6;" x="59.328094" xlink:href="#m899fca1d34" y="221.987626"/>
      </g>
     </g>
     <g id="line2d_71">
      <g>
       <use style="fill:#555555;stroke:#555555;stroke-width:0.6;" x="687.709406" xlink:href="#ma26edd490e" y="221.987626"/>
      </g>
     </g>
    </g>
    <g id="text_14">
     <!-- daily new deaths -->
     <defs>
      <path d="M 8.40625 66.40625 
L 8.40625 60.59375 
L 21.40625 60.59375 
L 21.40625 5.703125 
L 7.796875 5.703125 
L 7.796875 0 
L 42.09375 0 
L 42.09375 5.703125 
L 28.59375 5.703125 
L 28.59375 66.40625 
z
" id="Inconsolata-108"/>
      <path d="M 1.5 45.703125 
L 10.703125 -0.09375 
L 17.203125 -0.09375 
L 25.203125 29.5 
L 33.703125 -0.09375 
L 40.40625 -0.09375 
C 43.5 15 46.09375 30.296875 48 45.59375 
L 41.40625 45.59375 
C 41.59375 40.09375 41.09375 35 37.09375 9 
L 27.5 41.40625 
L 23.09375 41.40625 
L 15.203125 8.90625 
L 8.59375 41.90625 
C 8.40625 42.59375 8.40625 42.90625 8.703125 43.703125 
C 8.796875 44.203125 9.09375 44.90625 8.796875 45.703125 
z
" id="Inconsolata-119"/>
     </defs>
     <g style="fill:#555555;" transform="translate(20.649844 349.592134)rotate(-90)scale(0.12 -0.12)">
      <use xlink:href="#Inconsolata-100"/>
      <use x="49.999985" xlink:href="#Inconsolata-97"/>
      <use x="99.999969" xlink:href="#Inconsolata-105"/>
      <use x="149.999954" xlink:href="#Inconsolata-108"/>
      <use x="199.999939" xlink:href="#Inconsolata-121"/>
      <use x="249.999924" xlink:href="#Inconsolata-32"/>
      <use x="299.999908" xlink:href="#Inconsolata-110"/>
      <use x="349.999893" xlink:href="#Inconsolata-101"/>
      <use x="399.999878" xlink:href="#Inconsolata-119"/>
      <use x="449.999863" xlink:href="#Inconsolata-32"/>
      <use x="499.999847" xlink:href="#Inconsolata-100"/>
      <use x="549.999832" xlink:href="#Inconsolata-101"/>
      <use x="599.999817" xlink:href="#Inconsolata-97"/>
      <use x="649.999802" xlink:href="#Inconsolata-116"/>
      <use x="699.999786" xlink:href="#Inconsolata-104"/>
      <use x="749.999771" xlink:href="#Inconsolata-115"/>
     </g>
     <!-- (rolling 7-day mean) -->
     <defs>
      <path d="M 39.09375 66.59375 
C 23.703125 59.796875 13.796875 44.09375 13.796875 25.796875 
C 13.796875 7.59375 23.40625 -9 39.203125 -17.296875 
L 42.5 -12 
C 28.796875 -4.09375 20.796875 10.59375 20.796875 26.09375 
C 20.796875 40.40625 27.703125 53.203125 39.40625 60 
C 39.59375 60.203125 39.90625 60.40625 40.296875 60.40625 
C 40.59375 60.40625 40.90625 60.203125 41.296875 60.203125 
C 41.5 60.203125 41.796875 60.296875 42.203125 60.40625 
z
" id="Inconsolata-40"/>
      <path d="M 9.90625 45.59375 
L 9.90625 -0.09375 
L 17.09375 -0.09375 
L 17.09375 22.09375 
C 17.09375 24.90625 17.203125 27.90625 20.296875 32.796875 
C 24.5 39.40625 29.90625 40.5 33.203125 40.5 
C 37 40.5 39.40625 38.703125 40.703125 37.09375 
C 41.296875 36.296875 41.59375 35.5 42.40625 34.796875 
L 45.796875 41.703125 
C 42.90625 44.703125 38.703125 46.703125 33.59375 46.703125 
C 26.90625 46.703125 20.09375 43.296875 17.09375 36.796875 
L 17.40625 45.59375 
z
" id="Inconsolata-114"/>
      <path d="M 46 22.59375 
C 46 38.40625 36 46.59375 25.59375 46.59375 
C 14 46.59375 4 36.59375 4 22.40625 
C 4 8.5 13.90625 -1.296875 25.40625 -1.296875 
C 36.203125 -1.296875 46 7.40625 46 22.59375 
z
M 25.09375 40.5 
C 31.703125 40.5 38.703125 34.796875 38.703125 22.296875 
C 38.703125 10.796875 32.09375 5 25.5 5 
C 18.203125 5 11.59375 11.796875 11.59375 23.09375 
C 11.59375 34.296875 18.09375 40.5 25.09375 40.5 
z
" id="Inconsolata-111"/>
      <path d="M 12.5 31.40625 
C 12.5 36.90625 17.09375 41.40625 22.59375 41.40625 
C 28.203125 41.40625 32.703125 36.90625 32.703125 31.40625 
C 32.703125 25.90625 28.203125 21.40625 22.59375 21.40625 
C 17 21.40625 12.5 25.90625 12.5 31.40625 
z
M 23 47.09375 
C 13.90625 47.09375 6 39.90625 6 31 
C 6 26 8.5 21.296875 12.703125 18.59375 
C 9.40625 15.796875 7.5 12.703125 7.5 9.796875 
C 7.5 7.90625 8.296875 5.203125 11.203125 3.703125 
C 6.296875 0.59375 3.796875 -2.796875 3.796875 -6.40625 
C 3.796875 -11.40625 8.40625 -17.296875 24.40625 -17.296875 
C 39.90625 -17.296875 45.5 -9.40625 45.5 -3.296875 
C 45.5 0.703125 43.203125 4.703125 38.40625 6.59375 
C 33.59375 8.59375 28.09375 7.90625 22.90625 7.90625 
C 19.5 7.90625 17.296875 8.203125 16.40625 8.5 
C 14.59375 9 13.59375 10.09375 13.59375 11.5 
C 13.59375 13.90625 16.40625 16.203125 16.90625 16.59375 
C 18.703125 15.90625 20.703125 15.59375 22.703125 15.59375 
C 31.703125 15.59375 39.09375 22.796875 39.09375 31.203125 
C 39.09375 34 38.296875 36.703125 36.796875 39 
C 39.203125 40.40625 42 41.203125 44.796875 41.203125 
C 45.703125 41.203125 46.5 41.09375 47.40625 40.90625 
L 46.59375 46.796875 
C 42 47.203125 37.40625 45.703125 33.90625 42.796875 
C 31 45.59375 27.203125 47.09375 23 47.09375 
z
M 16.09375 2.40625 
C 17.796875 2.203125 20.203125 2 23.703125 1.796875 
C 27.09375 1.703125 30.796875 2 33.40625 1.59375 
C 37.59375 0.90625 38.90625 -1.703125 38.90625 -3.703125 
C 38.90625 -5.703125 37.703125 -8.09375 34.59375 -9.796875 
C 31.203125 -11.59375 27.40625 -11.796875 24.296875 -11.796875 
C 22.203125 -11.796875 18.296875 -11.703125 14.90625 -10.296875 
C 11.203125 -8.796875 10.40625 -6.296875 10.40625 -4.703125 
C 10.40625 -1.40625 13.5 1 16.09375 2.40625 
z
" id="Inconsolata-103"/>
      <path d="M 7.796875 62.296875 
L 7.796875 55.59375 
L 34.5 55.59375 
C 31.296875 48.203125 28.296875 40.796875 25.40625 33.296875 
C 21.203125 22.296875 17.203125 11.203125 13.5 0 
L 21.40625 0 
C 24.40625 9.796875 27.703125 19.5 31.296875 29.09375 
C 34.90625 39 38.90625 48.703125 43.09375 58.40625 
L 43.09375 62.296875 
z
" id="Inconsolata-55"/>
      <path d="M 7 34.703125 
L 7 28.09375 
L 43 28.09375 
L 43 34.703125 
z
" id="Inconsolata-45"/>
      <path d="M 3.703125 0 
L 10.296875 0 
L 10.296875 30.40625 
C 10.296875 32.59375 10.5 34.59375 11.796875 37 
C 13.40625 40 15.40625 41.203125 17.296875 41.203125 
C 18.90625 41.203125 20.703125 40.203125 21.5 37.703125 
C 22.09375 35.796875 22 33.59375 22 31.703125 
L 22 0 
L 28.703125 0 
L 28.703125 30.203125 
C 28.703125 32.59375 28.90625 34.5 30.59375 37.40625 
C 31.40625 38.59375 33.09375 41.5 35.90625 41.5 
C 37.40625 41.5 38.796875 40.59375 39.5 38.90625 
C 40.40625 37 40.203125 34.40625 40.203125 32.296875 
L 40.203125 -0.09375 
L 47 -0.09375 
L 47 32.40625 
C 47 36.203125 47.09375 40 45.09375 43.09375 
C 43.40625 45.703125 40.5 46.703125 38 46.703125 
C 33.59375 46.703125 29.5 44.09375 27.703125 40.09375 
C 27 43.90625 23.796875 46.703125 19.703125 46.703125 
C 15.90625 46.703125 12.40625 44.296875 10.296875 41.09375 
L 10.40625 45.59375 
L 3.703125 45.59375 
z
" id="Inconsolata-109"/>
      <path d="M 7.703125 60.296875 
C 20.90625 53.203125 29.296875 39.59375 29.296875 24.703125 
C 29.296875 9.703125 20.703125 -4.296875 7.203125 -11.40625 
L 9.09375 -17.5 
C 25.703125 -9.59375 36.40625 7 36.40625 25 
C 36.40625 42.796875 25.90625 59 9.59375 66.5 
z
" id="Inconsolata-41"/>
     </defs>
     <g style="fill:#555555;" transform="translate(32.328094 361.592134)rotate(-90)scale(0.12 -0.12)">
      <use xlink:href="#Inconsolata-40"/>
      <use x="49.999985" xlink:href="#Inconsolata-114"/>
      <use x="99.999969" xlink:href="#Inconsolata-111"/>
      <use x="149.999954" xlink:href="#Inconsolata-108"/>
      <use x="199.999939" xlink:href="#Inconsolata-108"/>
      <use x="249.999924" xlink:href="#Inconsolata-105"/>
      <use x="299.999908" xlink:href="#Inconsolata-110"/>
      <use x="349.999893" xlink:href="#Inconsolata-103"/>
      <use x="399.999878" xlink:href="#Inconsolata-32"/>
      <use x="449.999863" xlink:href="#Inconsolata-55"/>
      <use x="499.999847" xlink:href="#Inconsolata-45"/>
      <use x="549.999832" xlink:href="#Inconsolata-100"/>
      <use x="599.999817" xlink:href="#Inconsolata-97"/>
      <use x="649.999802" xlink:href="#Inconsolata-121"/>
      <use x="699.999786" xlink:href="#Inconsolata-32"/>
      <use x="749.999771" xlink:href="#Inconsolata-109"/>
      <use x="799.999756" xlink:href="#Inconsolata-101"/>
      <use x="849.999741" xlink:href="#Inconsolata-97"/>
      <use x="899.999725" xlink:href="#Inconsolata-110"/>
      <use x="949.99971" xlink:href="#Inconsolata-41"/>
     </g>
    </g>
   </g>
   <g id="line2d_72">
    <path clip-path="url(#p99c00fc5bd)" d="M 6.132478 433 
L 9.957236 414.892985 
L 15.442887 408.092508 
L 20.928538 402.817649 
L 26.414189 398.507775 
L 31.89984 398.507775 
L 37.385491 400.564625 
L 42.871142 394.863828 
L 48.356793 400.564625 
L 53.842444 386.432439 
L 59.328094 388.923041 
L 64.813745 383.128625 
L 70.299396 384.179415 
L 75.785047 377.649099 
L 81.270698 378.478618 
L 86.756349 374.594681 
L 92.242 381.157579 
L 97.727651 380.230446 
L 103.213302 381.157579 
L 108.698953 376.072591 
L 114.184604 382.122565 
L 119.670254 378.478618 
L 125.155905 381.157579 
L 130.641556 384.179415 
L 136.127207 379.338308 
L 141.612858 382.122565 
L 147.098509 381.157579 
L 152.58416 378.478618 
L 158.069811 376.847705 
L 163.555462 372.537831 
L 169.041113 372.537831 
L 174.526763 370.645713 
L 180.012414 368.893885 
L 185.498065 370.047229 
L 190.983716 367.262972 
L 196.469367 368.893885 
L 201.955018 369.463523 
L 207.440669 366.235033 
L 212.92632 368.893885 
L 218.411971 370.645713 
L 223.897622 371.259744 
L 229.383273 373.203759 
L 240.354574 376.072591 
L 245.840225 378.478618 
L 251.325876 376.847705 
L 256.811527 373.203759 
L 262.297178 373.203759 
L 267.782829 373.888991 
L 273.26848 373.888991 
L 278.754131 376.072591 
L 284.239782 376.072591 
L 289.725432 376.847705 
L 295.211083 381.157579 
L 300.696734 381.157579 
L 306.182385 384.179415 
L 317.153687 386.432439 
L 322.639338 387.644954 
L 328.124989 393.232915 
L 333.61064 396.615656 
L 339.096291 400.564625 
L 344.581941 402.817649 
L 350.067592 402.817649 
L 355.553243 405.308251 
L 361.038894 408.092508 
L 366.524545 405.308251 
L 372.010196 405.308251 
L 377.495847 408.092508 
L 382.981498 402.817649 
L 388.467149 408.092508 
L 393.9528 405.308251 
L 399.438451 402.817649 
L 404.924101 405.308251 
L 410.409752 405.308251 
L 415.895403 408.092508 
L 421.381054 414.892985 
L 426.866705 414.892985 
L 432.352356 424.477718 
L 454.29496 424.477718 
L 454.29496 424.477718 
" style="fill:none;stroke:#e24a33;stroke-linecap:square;stroke-width:4;"/>
   </g>
   <g id="line2d_73">
    <defs>
     <path d="M 0 3 
C 0.795609 3 1.55874 2.683901 2.12132 2.12132 
C 2.683901 1.55874 3 0.795609 3 0 
C 3 -0.795609 2.683901 -1.55874 2.12132 -2.12132 
C 1.55874 -2.683901 0.795609 -3 0 -3 
C -0.795609 -3 -1.55874 -2.683901 -2.12132 -2.12132 
C -2.683901 -1.55874 -3 -0.795609 -3 0 
C -3 0.795609 -2.683901 1.55874 -2.12132 2.12132 
C -1.55874 2.683901 -0.795609 3 0 3 
z
" id="m0760f9a62c" style="stroke:#e24a33;"/>
    </defs>
    <g clip-path="url(#p99c00fc5bd)">
     <use style="fill:#e24a33;stroke:#e24a33;" x="454.29496" xlink:href="#m0760f9a62c" y="424.477718"/>
    </g>
   </g>
   <g id="line2d_74">
    <path clip-path="url(#p99c00fc5bd)" d="M 64.813745 344.878679 
L 70.299396 338.334314 
L 75.785047 333.590687 
L 81.270698 330.073491 
L 86.756349 322.026482 
L 92.242 319.250838 
L 97.727651 318.107342 
L 103.213302 313.907161 
L 108.698953 312.210371 
L 114.184604 310.106665 
L 119.670254 308.261403 
L 125.155905 308.348151 
L 130.641556 306.549811 
L 136.127207 305.218795 
L 141.612858 307.917559 
L 147.098509 301.202575 
L 152.58416 299.143049 
L 158.069811 297.576989 
L 163.555462 297.49448 
L 169.041113 297.742876 
L 174.526763 296.684851 
L 180.012414 293.98032 
L 185.498065 297.275853 
L 190.983716 301.820833 
L 196.469367 299.830013 
L 201.955018 303.10808 
L 207.440669 301.363713 
L 218.411971 305.99264 
L 223.897622 309.966652 
L 229.383273 308.003052 
L 234.868923 315.974008 
L 240.354574 314.072661 
L 245.840225 320.965586 
L 251.325876 323.87988 
L 256.811527 325.260644 
L 262.297178 324.995532 
L 267.782829 326.351862 
L 273.26848 328.189754 
L 278.754131 328.90459 
L 289.725432 332.966935 
L 295.211083 334.756676 
L 300.696734 337.724245 
L 306.182385 341.118571 
L 311.668036 343.881111 
L 317.153687 347.688423 
L 322.639338 349.849823 
L 328.124989 350.616556 
L 333.61064 353.662019 
L 339.096291 354.565525 
L 344.581941 355.826563 
L 350.067592 358.209471 
L 355.553243 356.48324 
L 361.038894 361.67501 
L 366.524545 364.304258 
L 372.010196 367.794204 
L 377.495847 368.893885 
L 382.981498 368.337651 
L 388.467149 370.047229 
L 393.9528 376.847705 
L 399.438451 373.888991 
L 404.924101 378.478618 
L 410.409752 376.072591 
L 415.895403 376.072591 
L 421.381054 376.847705 
L 426.866705 376.072591 
L 437.838007 379.338308 
L 443.323658 380.230446 
L 454.29496 390.274201 
L 459.78061 394.863828 
L 465.266261 396.615656 
L 470.751912 402.817649 
L 481.723214 402.817649 
L 487.208865 405.308251 
L 492.694516 411.249038 
L 498.180167 287.827524 
L 514.63712 287.9189 
L 531.094072 287.937217 
L 531.108659 433 
L 531.108659 433 
" style="fill:none;stroke:#348abd;stroke-linecap:square;stroke-opacity:0.4;stroke-width:2;"/>
   </g>
   <g id="line2d_75">
    <defs>
     <path d="M 0 3 
C 0.795609 3 1.55874 2.683901 2.12132 2.12132 
C 2.683901 1.55874 3 0.795609 3 0 
C 3 -0.795609 2.683901 -1.55874 2.12132 -2.12132 
C 1.55874 -2.683901 0.795609 -3 0 -3 
C -0.795609 -3 -1.55874 -2.683901 -2.12132 -2.12132 
C -2.683901 -1.55874 -3 -0.795609 -3 0 
C -3 0.795609 -2.683901 1.55874 -2.12132 2.12132 
C -1.55874 2.683901 -0.795609 3 0 3 
z
" id="mf2efbe890d" style="stroke:#348abd;stroke-opacity:0.4;"/>
    </defs>
    <g clip-path="url(#p99c00fc5bd)">
     <use style="fill:#348abd;fill-opacity:0.4;stroke:#348abd;stroke-opacity:0.4;" x="0" xlink:href="#mf2efbe890d" y="0"/>
    </g>
   </g>
   <g id="line2d_76">
    <path clip-path="url(#p99c00fc5bd)" d="M 30.914396 433 
L 31.89984 431.278195 
L 37.385491 411.249038 
L 42.871142 402.817649 
L 48.356793 398.507775 
L 53.842444 390.274201 
L 59.328094 386.432439 
L 64.813745 379.338308 
L 70.299396 376.072591 
L 75.785047 367.262972 
L 81.270698 357.158682 
L 92.242 342.004025 
L 97.727651 335.023784 
L 103.213302 331.533838 
L 108.698953 320.021358 
L 114.184604 314.975448 
L 119.670254 308.003052 
L 125.155905 301.722132 
L 130.641556 303.10808 
L 136.127207 292.379399 
L 141.612858 289.489726 
L 147.098509 285.287725 
L 152.58416 281.48285 
L 158.069811 279.134929 
L 163.555462 275.850889 
L 169.041113 271.570339 
L 174.526763 269.906439 
L 180.012414 265.139516 
L 185.498065 263.24095 
L 190.983716 261.66985 
L 196.469367 259.3834 
L 201.955018 258.271029 
L 212.92632 255.43401 
L 223.897622 254.520603 
L 229.383273 253.598271 
L 234.868923 253.198683 
L 245.840225 252.814031 
L 251.325876 253.457219 
L 256.811527 254.36067 
L 262.297178 255.406227 
L 267.782829 256.235085 
L 273.26848 257.379084 
L 278.754131 258.328564 
L 284.239782 259.12743 
L 289.725432 260.213701 
L 295.211083 260.567976 
L 300.696734 261.115439 
L 306.182385 261.531522 
L 311.668036 261.543519 
L 317.153687 261.32851 
L 322.639338 261.839348 
L 328.124989 261.808991 
L 333.61064 262.655201 
L 339.096291 262.642627 
L 344.581941 263.357271 
L 350.067592 263.801943 
L 355.553243 264.751531 
L 361.038894 265.174469 
L 366.524545 266.284479 
L 372.010196 266.78091 
L 377.495847 268.113137 
L 382.981498 269.09166 
L 388.467149 270.381218 
L 393.9528 271.396758 
L 399.438451 273.084956 
L 404.924101 274.609269 
L 410.409752 274.001924 
L 415.895403 274.892498 
L 421.381054 276.395613 
L 426.866705 278.09732 
L 432.352356 277.547832 
L 437.838007 277.678074 
L 443.323658 277.988802 
L 448.809309 281.622726 
L 465.266261 281.976079 
L 476.237563 281.976079 
L 476.237563 281.976079 
" style="fill:none;stroke:#988ed5;stroke-linecap:square;stroke-opacity:0.4;stroke-width:2;"/>
   </g>
   <g id="line2d_77">
    <defs>
     <path d="M 0 3 
C 0.795609 3 1.55874 2.683901 2.12132 2.12132 
C 2.683901 1.55874 3 0.795609 3 0 
C 3 -0.795609 2.683901 -1.55874 2.12132 -2.12132 
C 1.55874 -2.683901 0.795609 -3 0 -3 
C -0.795609 -3 -1.55874 -2.683901 -2.12132 -2.12132 
C -2.683901 -1.55874 -3 -0.795609 -3 0 
C -3 0.795609 -2.683901 1.55874 -2.12132 2.12132 
C -1.55874 2.683901 -0.795609 3 0 3 
z
" id="m5a160312a0" style="stroke:#988ed5;stroke-opacity:0.4;"/>
    </defs>
    <g clip-path="url(#p99c00fc5bd)">
     <use style="fill:#988ed5;fill-opacity:0.4;stroke:#988ed5;stroke-opacity:0.4;" x="476.237563" xlink:href="#m5a160312a0" y="281.976079"/>
    </g>
   </g>
   <g id="line2d_78">
    <path clip-path="url(#p99c00fc5bd)" d="M 13.097747 433 
L 15.442887 414.892985 
L 20.928538 411.249038 
L 26.414189 400.564625 
L 31.89984 398.507775 
L 37.385491 394.863828 
L 42.871142 391.707298 
L 48.356793 386.432439 
L 53.842444 391.707298 
L 59.328094 385.279095 
L 64.813745 381.157579 
L 70.299396 377.649099 
L 75.785047 373.203759 
L 81.270698 369.463523 
L 86.756349 363.845236 
L 92.242 354.565525 
L 97.727651 347.233815 
L 103.213302 342.551668 
L 108.698953 330.073491 
L 114.184604 322.417216 
L 119.670254 316.581725 
L 130.641556 302.831194 
L 136.127207 297.1132 
L 141.612858 290.611781 
L 147.098509 284.881689 
L 152.58416 278.585744 
L 158.069811 274.380973 
L 163.555462 269.332324 
L 169.041113 264.986333 
L 174.526763 259.154529 
L 185.498065 250.845473 
L 190.983716 248.021819 
L 196.469367 244.437448 
L 201.955018 242.135273 
L 207.440669 240.241327 
L 212.92632 237.654436 
L 218.411971 235.675791 
L 223.897622 234.567348 
L 229.383273 233.166516 
L 234.868923 232.454823 
L 245.840225 231.612918 
L 251.325876 231.45278 
L 256.811527 230.801603 
L 262.297178 230.625752 
L 267.782829 229.818843 
L 273.26848 229.302456 
L 278.754131 230.164703 
L 284.239782 230.276327 
L 289.725432 230.220449 
L 295.211083 230.45442 
L 300.696734 230.104327 
L 306.182385 231.434307 
L 317.153687 231.680671 
L 322.639338 232.32722 
L 328.124989 232.840037 
L 333.61064 232.335938 
L 339.096291 232.834693 
L 344.581941 232.519763 
L 350.067592 234.036711 
L 355.553243 233.688842 
L 361.038894 233.870509 
L 366.524545 233.859347 
L 372.010196 234.274025 
L 377.495847 233.939463 
L 382.981498 234.753989 
L 388.467149 234.391678 
L 393.9528 235.525626 
L 399.438451 235.693875 
L 415.895403 235.693875 
L 415.895403 235.693875 
" style="fill:none;stroke:#777777;stroke-linecap:square;stroke-opacity:0.4;stroke-width:2;"/>
   </g>
   <g id="line2d_79">
    <defs>
     <path d="M 0 3 
C 0.795609 3 1.55874 2.683901 2.12132 2.12132 
C 2.683901 1.55874 3 0.795609 3 0 
C 3 -0.795609 2.683901 -1.55874 2.12132 -2.12132 
C 1.55874 -2.683901 0.795609 -3 0 -3 
C -0.795609 -3 -1.55874 -2.683901 -2.12132 -2.12132 
C -2.683901 -1.55874 -3 -0.795609 -3 0 
C -3 0.795609 -2.683901 1.55874 -2.12132 2.12132 
C -1.55874 2.683901 -0.795609 3 0 3 
z
" id="m5793ecd09f" style="stroke:#777777;stroke-opacity:0.4;"/>
    </defs>
    <g clip-path="url(#p99c00fc5bd)">
     <use style="fill:#777777;fill-opacity:0.4;stroke:#777777;stroke-opacity:0.4;" x="415.895403" xlink:href="#m5793ecd09f" y="235.693875"/>
    </g>
   </g>
   <g id="line2d_80">
    <path clip-path="url(#p99c00fc5bd)" d="M 41.885697 433 
L 42.871142 431.278195 
L 48.356793 419.202859 
L 53.842444 402.817649 
L 59.328094 390.274201 
L 64.813745 378.478618 
L 70.299396 373.888991 
L 75.785047 363.845236 
L 81.270698 363.845236 
L 86.756349 342.551668 
L 92.242 333.844871 
L 97.727651 324.733361 
L 103.213302 321.339035 
L 108.698953 310.436625 
L 114.184604 307.286029 
L 119.670254 299.982032 
L 125.155905 296.186067 
L 130.641556 290.044097 
L 136.127207 284.641373 
L 141.612858 277.940731 
L 147.098509 274.525997 
L 152.58416 267.798368 
L 158.069811 264.107565 
L 163.555462 260.63139 
L 169.041113 257.846491 
L 174.526763 255.765282 
L 180.012414 254.070241 
L 185.498065 252.997214 
L 190.983716 252.648724 
L 196.469367 251.668588 
L 201.955018 251.366302 
L 207.440669 251.739813 
L 212.92632 252.24854 
L 218.411971 253.127133 
L 223.897622 253.312769 
L 229.383273 254.070241 
L 234.868923 255.447914 
L 245.840225 257.58117 
L 251.325876 258.047455 
L 256.811527 258.852775 
L 262.297178 261.121332 
L 267.782829 261.687952 
L 273.26848 261.979494 
L 278.754131 261.657789 
L 284.239782 264.772155 
L 289.725432 266.138289 
L 295.211083 267.242133 
L 300.696734 266.269819 
L 306.182385 267.915916 
L 311.668036 269.265689 
L 317.153687 272.089488 
L 322.639338 269.12471 
L 328.124989 270.155588 
L 333.61064 270.750308 
L 339.096291 271.921372 
L 344.581941 271.754443 
L 350.067592 273.399883 
L 355.553243 277.34795 
L 361.038894 275.339935 
L 366.524545 276.712614 
L 372.010196 278.697044 
L 377.495847 280.180553 
L 382.981498 283.113763 
L 388.467149 283.950221 
L 393.9528 280.647081 
L 399.438451 286.377266 
L 404.924101 286.740284 
L 410.409752 287.465513 
L 426.866705 287.465513 
L 426.866705 287.465513 
" style="fill:none;stroke:#fbc15e;stroke-linecap:square;stroke-opacity:0.4;stroke-width:2;"/>
   </g>
   <g id="line2d_81">
    <defs>
     <path d="M 0 3 
C 0.795609 3 1.55874 2.683901 2.12132 2.12132 
C 2.683901 1.55874 3 0.795609 3 0 
C 3 -0.795609 2.683901 -1.55874 2.12132 -2.12132 
C 1.55874 -2.683901 0.795609 -3 0 -3 
C -0.795609 -3 -1.55874 -2.683901 -2.12132 -2.12132 
C -2.683901 -1.55874 -3 -0.795609 -3 0 
C -3 0.795609 -2.683901 1.55874 -2.12132 2.12132 
C -1.55874 2.683901 -0.795609 3 0 3 
z
" id="mbd26543a3a" style="stroke:#fbc15e;stroke-opacity:0.4;"/>
    </defs>
    <g clip-path="url(#p99c00fc5bd)">
     <use style="fill:#fbc15e;fill-opacity:0.4;stroke:#fbc15e;stroke-opacity:0.4;" x="426.866705" xlink:href="#mbd26543a3a" y="287.465513"/>
    </g>
   </g>
   <g id="line2d_82">
    <path clip-path="url(#p99c00fc5bd)" d="M 36.400046 433 
L 37.385491 431.278195 
L 42.871142 411.249038 
L 48.356793 411.249038 
L 53.842444 405.308251 
L 59.328094 405.308251 
L 64.813745 380.230446 
L 70.299396 369.463523 
L 75.785047 359.309151 
L 81.270698 355.187636 
L 86.756349 346.350017 
L 92.242 338.802426 
L 97.727651 333.844871 
L 103.213302 329.428755 
L 108.698953 327.398421 
L 114.184604 322.894785 
L 119.670254 314.072661 
L 125.155905 306.874192 
L 130.641556 301.722132 
L 136.127207 294.725481 
L 141.612858 289.528896 
L 147.098509 286.240428 
L 152.58416 281.608701 
L 158.069811 278.536445 
L 163.555462 273.212389 
L 169.041113 269.009237 
L 174.526763 265.705066 
L 180.012414 262.579858 
L 185.498065 260.021652 
L 190.983716 258.938598 
L 196.469367 255.657459 
L 201.955018 254.009091 
L 207.440669 252.115295 
L 212.92632 250.414426 
L 218.411971 250.120263 
L 223.897622 249.972704 
L 229.383273 249.34133 
L 234.868923 249.305551 
L 240.354574 249.99478 
L 245.840225 250.25758 
L 251.325876 251.07939 
L 256.811527 250.031618 
L 267.782829 251.424886 
L 273.26848 250.944893 
L 278.754131 250.941061 
L 284.239782 252.135435 
L 289.725432 251.827159 
L 295.211083 252.942944 
L 300.696734 253.274679 
L 306.182385 254.241426 
L 311.668036 255.420114 
L 322.639338 255.901936 
L 328.124989 257.223647 
L 333.61064 258.360005 
L 339.096291 258.917113 
L 344.581941 259.197953 
L 350.067592 260.418762 
L 361.038894 262.108182 
L 366.524545 262.819273 
L 372.010196 264.634999 
L 377.495847 264.958588 
L 382.981498 265.505581 
L 399.438451 265.505581 
L 399.438451 265.505581 
" style="fill:none;stroke:#8eba42;stroke-linecap:square;stroke-opacity:0.4;stroke-width:2;"/>
   </g>
   <g id="line2d_83">
    <defs>
     <path d="M 0 3 
C 0.795609 3 1.55874 2.683901 2.12132 2.12132 
C 2.683901 1.55874 3 0.795609 3 0 
C 3 -0.795609 2.683901 -1.55874 2.12132 -2.12132 
C 1.55874 -2.683901 0.795609 -3 0 -3 
C -0.795609 -3 -1.55874 -2.683901 -2.12132 -2.12132 
C -2.683901 -1.55874 -3 -0.795609 -3 0 
C -3 0.795609 -2.683901 1.55874 -2.12132 2.12132 
C -1.55874 2.683901 -0.795609 3 0 3 
z
" id="m3fc222c999" style="stroke:#8eba42;stroke-opacity:0.4;"/>
    </defs>
    <g clip-path="url(#p99c00fc5bd)">
     <use style="fill:#8eba42;fill-opacity:0.4;stroke:#8eba42;stroke-opacity:0.4;" x="399.438451" xlink:href="#m3fc222c999" y="265.505581"/>
    </g>
   </g>
   <g id="line2d_84">
    <path clip-path="url(#p99c00fc5bd)" d="M 29.046641 433 
L 31.89984 424.477718 
L 37.385491 419.202859 
L 42.871142 408.092508 
L 48.356793 398.507775 
L 53.842444 391.707298 
L 59.328094 390.274201 
L 64.813745 382.122565 
L 70.299396 376.847705 
L 75.785047 371.259744 
L 81.270698 366.743415 
L 86.756349 362.953098 
L 92.242 360.071761 
L 97.727651 355.826563 
L 108.698953 350.877762 
L 114.184604 347.919048 
L 119.670254 340.433339 
L 125.155905 335.705067 
L 130.641556 330.402576 
L 141.612858 320.744315 
L 147.098509 316.215223 
L 152.58416 312.006586 
L 158.069811 308.964469 
L 163.555462 305.409894 
L 169.041113 302.489586 
L 174.526763 299.799726 
L 180.012414 297.659787 
L 185.498065 295.953424 
L 190.983716 295.293928 
L 196.469367 294.897044 
L 201.955018 294.946292 
L 207.440669 295.268927 
L 212.92632 295.369092 
L 218.411971 295.169185 
L 223.897622 295.293928 
L 229.383273 294.897044 
L 240.354574 295.293928 
L 245.840225 294.823364 
L 251.325876 294.946292 
L 256.811527 295.77405 
L 262.297178 296.030718 
L 267.782829 295.545408 
L 273.26848 294.847899 
L 278.754131 294.386045 
L 284.239782 294.579411 
L 289.725432 294.995642 
L 295.211083 295.169185 
L 300.696734 295.469683 
L 333.61064 300.475168 
L 339.096291 301.525957 
L 344.581941 303.282795 
L 350.067592 304.359105 
L 355.553243 305.104873 
L 361.038894 305.486769 
L 377.495847 305.409894 
L 382.981498 305.29505 
L 388.467149 306.349311 
L 393.9528 306.150496 
L 410.409752 308.218148 
L 415.895403 309.55152 
L 426.866705 310.675162 
L 432.352356 311.754302 
L 437.838007 312.15926 
L 448.809309 312.415928 
L 454.29496 312.832482 
L 459.78061 313.742811 
L 465.266261 313.525441 
L 470.751912 315.148627 
L 487.208865 315.148627 
L 487.208865 315.148627 
" style="fill:none;stroke:#ffb5b8;stroke-linecap:square;stroke-opacity:0.4;stroke-width:2;"/>
   </g>
   <g id="line2d_85">
    <defs>
     <path d="M 0 3 
C 0.795609 3 1.55874 2.683901 2.12132 2.12132 
C 2.683901 1.55874 3 0.795609 3 0 
C 3 -0.795609 2.683901 -1.55874 2.12132 -2.12132 
C 1.55874 -2.683901 0.795609 -3 0 -3 
C -0.795609 -3 -1.55874 -2.683901 -2.12132 -2.12132 
C -2.683901 -1.55874 -3 -0.795609 -3 0 
C -3 0.795609 -2.683901 1.55874 -2.12132 2.12132 
C -1.55874 2.683901 -0.795609 3 0 3 
z
" id="m638ad5679c" style="stroke:#ffb5b8;stroke-opacity:0.4;"/>
    </defs>
    <g clip-path="url(#p99c00fc5bd)">
     <use style="fill:#ffb5b8;fill-opacity:0.4;stroke:#ffb5b8;stroke-opacity:0.4;" x="487.208865" xlink:href="#m638ad5679c" y="315.148627"/>
    </g>
   </g>
   <g id="patch_3">
    <path d="M 59.328094 385.279095 
L 59.328094 217.905172 
" style="fill:none;stroke:#ffffff;stroke-linecap:square;stroke-linejoin:miter;"/>
   </g>
   <g id="patch_4">
    <path d="M 687.709406 385.279095 
L 687.709406 217.905172 
" style="fill:none;stroke:#ffffff;stroke-linecap:square;stroke-linejoin:miter;"/>
   </g>
   <g id="patch_5">
    <path d="M 59.328094 385.279095 
L 687.709406 385.279095 
" style="fill:none;stroke:#ffffff;stroke-linecap:square;stroke-linejoin:miter;"/>
   </g>
   <g id="patch_6">
    <path d="M 59.328094 217.905172 
L 687.709406 217.905172 
" style="fill:none;stroke:#ffffff;stroke-linecap:square;stroke-linejoin:miter;"/>
   </g>
   <g id="text_15">
    <!-- Italy -->
    <defs>
     <path d="M 8.796875 62.296875 
L 8.796875 56.40625 
L 20.296875 56.40625 
L 20.296875 5.703125 
L 8.09375 5.703125 
L 8.09375 -0.09375 
L 40.296875 -0.09375 
L 40.296875 5.59375 
L 27.296875 5.59375 
L 27.296875 56.40625 
L 39.59375 56.40625 
L 39.59375 62.296875 
z
" id="Inconsolata-73"/>
    </defs>
    <g transform="translate(487.208865 281.976079)scale(0.1 -0.1)">
     <use xlink:href="#Inconsolata-73"/>
     <use x="49.999985" xlink:href="#Inconsolata-116"/>
     <use x="99.999969" xlink:href="#Inconsolata-97"/>
     <use x="149.999954" xlink:href="#Inconsolata-108"/>
     <use x="199.999939" xlink:href="#Inconsolata-121"/>
    </g>
   </g>
   <g id="text_16">
    <!-- US -->
    <defs>
     <path d="M 5 62.296875 
L 5 21.40625 
C 5 17 5.09375 12.796875 7.40625 8.5 
C 10.796875 2.09375 17.796875 -1.203125 25.09375 -1.203125 
C 32.296875 -1.203125 39.296875 2 42.796875 8.59375 
C 45.203125 12.90625 45.296875 17.203125 45.296875 21.796875 
L 45.296875 62.296875 
L 38.703125 62.296875 
L 38.703125 21.59375 
C 38.703125 18.40625 38.59375 15.296875 37.09375 12.09375 
C 34.796875 7.296875 30.09375 4.796875 25.203125 4.796875 
C 20.296875 4.796875 15.59375 7.40625 13.40625 12.203125 
C 11.90625 15.203125 11.90625 18.296875 11.90625 21.40625 
L 11.90625 59.09375 
C 11.90625 59.5 11.90625 59.90625 12.296875 60.40625 
C 12.5 60.703125 12.90625 61.203125 12.90625 61.796875 
C 12.90625 61.90625 12.90625 62.09375 12.796875 62.296875 
z
" id="Inconsolata-85"/>
     <path d="M 43.40625 54.796875 
C 39.203125 59.90625 33 62.59375 26.203125 62.59375 
C 14.90625 62.59375 7.203125 55.203125 7.203125 46.59375 
C 7.203125 43 8.59375 38.296875 13.796875 34.5 
C 19.59375 30.203125 28.59375 28.09375 33.296875 25.09375 
C 37.40625 22.59375 38.5 19.296875 38.5 16.5 
C 38.5 11.09375 33.90625 5.203125 24.90625 5.203125 
C 18.09375 5.203125 12.796875 8.59375 10 12.09375 
C 9.703125 12.5 9.703125 12.703125 9.703125 13.09375 
C 9.703125 13.296875 9.703125 13.90625 9.296875 14.09375 
L 5.09375 6.90625 
C 10 1.59375 17 -1.09375 24.703125 -1.09375 
C 39.90625 -1.09375 45.5 9.09375 45.5 16.90625 
C 45.5 20.203125 44.5 24.5 40.59375 28.203125 
C 35.203125 33.296875 26.40625 35.09375 20.703125 38.40625 
C 15.5 41.5 14.40625 45.203125 14.40625 47.703125 
C 14.40625 52.5 18.5 56.796875 25.59375 56.796875 
C 31.40625 56.796875 35.90625 54.203125 38.296875 50.703125 
C 38.59375 50.296875 38.5 50.09375 38.5 49.703125 
C 38.5 49.09375 38.796875 48.90625 39 48.90625 
z
" id="Inconsolata-83"/>
    </defs>
    <g transform="translate(426.866705 235.693875)scale(0.1 -0.1)">
     <use xlink:href="#Inconsolata-85"/>
     <use x="49.999985" xlink:href="#Inconsolata-83"/>
    </g>
   </g>
   <g id="text_17">
    <!-- Spain -->
    <defs>
     <path d="M 5.90625 45.59375 
L 6 -16.703125 
L 13.296875 -16.703125 
L 13.296875 6 
C 16.40625 1.5 21.5 -1.296875 27 -1.296875 
C 36.40625 -1.296875 46.203125 6.59375 46.203125 23.296875 
C 46.203125 39.40625 36.703125 46.59375 27.703125 46.59375 
C 21.796875 46.59375 16.296875 43.59375 13.203125 38.59375 
L 13.203125 45.59375 
z
M 25 40.5 
C 29 40.5 38.703125 38.40625 38.703125 21.796875 
C 38.703125 7.40625 29.296875 5.09375 25 5.09375 
C 20.703125 5.09375 16.296875 7.296875 14.5 11.40625 
C 13.203125 14.5 13.203125 18.296875 13.203125 24.90625 
C 13.203125 28.703125 13.40625 31.5 14.40625 33.90625 
C 16.203125 38 20.40625 40.5 25 40.5 
z
" id="Inconsolata-112"/>
    </defs>
    <g transform="translate(437.838007 287.465513)scale(0.1 -0.1)">
     <use xlink:href="#Inconsolata-83"/>
     <use x="49.999985" xlink:href="#Inconsolata-112"/>
     <use x="99.999969" xlink:href="#Inconsolata-97"/>
     <use x="149.999954" xlink:href="#Inconsolata-105"/>
     <use x="199.999939" xlink:href="#Inconsolata-110"/>
    </g>
   </g>
   <g id="text_18">
    <!-- United Kingdom -->
    <defs>
     <path d="M 4.203125 62.296875 
L 4.203125 0 
L 11.59375 0 
L 11.59375 25.796875 
L 16.5 31.09375 
L 38.203125 -0.5 
C 38.203125 -0.5 42.09375 -0.09375 47.09375 -0.09375 
L 21.90625 35.296875 
L 45.40625 62.296875 
L 42.796875 62.296875 
C 41.09375 62.296875 39.40625 62.296875 37.703125 62.796875 
L 11.59375 33.5 
L 11.59375 59.796875 
C 11.59375 60.203125 11.59375 60.5 12 60.90625 
C 12.203125 61.203125 12.703125 61.703125 12.5 62.296875 
z
" id="Inconsolata-75"/>
    </defs>
    <g transform="translate(410.409752 265.505581)scale(0.1 -0.1)">
     <use xlink:href="#Inconsolata-85"/>
     <use x="49.999985" xlink:href="#Inconsolata-110"/>
     <use x="99.999969" xlink:href="#Inconsolata-105"/>
     <use x="149.999954" xlink:href="#Inconsolata-116"/>
     <use x="199.999939" xlink:href="#Inconsolata-101"/>
     <use x="249.999924" xlink:href="#Inconsolata-100"/>
     <use x="299.999908" xlink:href="#Inconsolata-32"/>
     <use x="349.999893" xlink:href="#Inconsolata-75"/>
     <use x="399.999878" xlink:href="#Inconsolata-105"/>
     <use x="449.999863" xlink:href="#Inconsolata-110"/>
     <use x="499.999847" xlink:href="#Inconsolata-103"/>
     <use x="549.999832" xlink:href="#Inconsolata-100"/>
     <use x="599.999817" xlink:href="#Inconsolata-111"/>
     <use x="649.999802" xlink:href="#Inconsolata-109"/>
    </g>
   </g>
   <g id="text_19">
    <!-- Iran -->
    <g transform="translate(498.180167 315.148627)scale(0.1 -0.1)">
     <use xlink:href="#Inconsolata-73"/>
     <use x="49.999985" xlink:href="#Inconsolata-114"/>
     <use x="99.999969" xlink:href="#Inconsolata-97"/>
     <use x="149.999954" xlink:href="#Inconsolata-110"/>
    </g>
   </g>
  </g>
 </g>
 <defs>
  <clipPath id="p99c00fc5bd">
   <rect height="167.373922" width="628.381311" x="59.328094" y="217.905172"/>
  </clipPath>
 </defs>
</svg>
