<?xml version="1.0" encoding="utf-8" standalone="no"?>
<!DOCTYPE svg PUBLIC "-//W3C//DTD SVG 1.1//EN"
  "http://www.w3.org/Graphics/SVG/1.1/DTD/svg11.dtd">
<!-- Created with matplotlib (https://matplotlib.org/) -->
<svg height="180pt" version="1.1" viewBox="0 0 720 180" width="720pt" xmlns="http://www.w3.org/2000/svg" xmlns:xlink="http://www.w3.org/1999/xlink">
 <defs>
  <style type="text/css">
*{stroke-linecap:butt;stroke-linejoin:round;}
  </style>
 </defs>
 <g id="figure_1">
  <g id="patch_1">
   <path d="M 0 180 
L 720 180 
L 720 0 
L 0 0 
z
" style="fill:#ffffff;"/>
  </g>
  <g id="axes_1">
   <g id="patch_2">
    <path d="M 90 157.5 
L 648 157.5 
L 648 21.6 
L 90 21.6 
z
" style="fill:#e5e5e5;"/>
   </g>
   <g id="matplotlib.axis_1">
    <g id="xtick_1">
     <g id="line2d_1">
      <path clip-path="url(#p7701d56cce)" d="M 161.902419 157.5 
L 161.902419 21.6 
" style="fill:none;stroke:#ffffff;stroke-linecap:square;stroke-width:0.8;"/>
     </g>
     <g id="line2d_2">
      <defs>
       <path d="M 0 0 
L 0 3.5 
" id="m35336e311b" style="stroke:#555555;stroke-width:0.8;"/>
      </defs>
      <g>
       <use style="fill:#555555;stroke:#555555;stroke-width:0.8;" x="161.902419" xlink:href="#m35336e311b" y="157.5"/>
      </g>
     </g>
     <g id="text_1">
      <!-- 2020-02-01 -->
      <defs>
       <path d="M 7.703125 52.59375 
L 12.796875 48.5 
C 13.40625 49.40625 13.09375 50 13.703125 50.796875 
C 15.203125 53.09375 18.90625 56.5 24.296875 56.5 
C 31 56.5 36.296875 51.40625 36.296875 44.703125 
C 36.296875 37.09375 29.90625 31.59375 25.40625 27.5 
C 18.296875 21.09375 12.5 14.703125 7.296875 4.40625 
L 7.296875 0 
L 43.90625 0 
L 43.90625 6.90625 
C 43.203125 7.203125 42.703125 6.703125 42.5 6.5 
C 42.09375 6.09375 41.90625 6.09375 41.5 6.09375 
L 15.296875 6.09375 
C 20.5 15.09375 27.796875 21.296875 32.296875 25.5 
C 36.796875 29.796875 43.203125 36.203125 43.203125 45.203125 
C 43.203125 54.90625 35.296875 62.703125 25.203125 62.703125 
C 18.09375 62.703125 11.40625 58.90625 7.703125 52.59375 
z
" id="Inconsolata-50"/>
       <path d="M 25.09375 62.703125 
C 15.203125 62.703125 5 50.5 5 30.59375 
C 5 10.40625 15.296875 -1.203125 25.203125 -1.203125 
C 34.203125 -1.203125 44.90625 8.59375 44.90625 30.09375 
C 44.90625 51.296875 34.703125 62.703125 25.09375 62.703125 
z
M 34.796875 48.40625 
L 12.90625 20 
C 12 23.5 11.5 27.40625 11.5 31.796875 
C 11.5 47.796875 18.796875 56.59375 25 56.59375 
C 28.40625 56.59375 32.09375 53.90625 34.796875 48.40625 
z
M 37.09375 41.796875 
C 38 38.296875 38.40625 34.09375 38.40625 29.203125 
C 38.40625 11.796875 30.90625 5.203125 25.40625 5.203125 
C 21.703125 5.203125 17.90625 8.203125 15.203125 13.703125 
z
" id="Inconsolata-48"/>
       <path d="M 7 34.703125 
L 7 28.09375 
L 43 28.09375 
L 43 34.703125 
z
" id="Inconsolata-45"/>
       <path d="M 29.90625 62.296875 
L 25.09375 62.296875 
L 8.796875 53.796875 
L 10.40625 49.90625 
L 22.90625 53.59375 
L 22.90625 -0.09375 
L 29.90625 -0.09375 
z
" id="Inconsolata-49"/>
      </defs>
      <g style="fill:#555555;" transform="translate(136.902419 171.140625)scale(0.1 -0.1)">
       <use xlink:href="#Inconsolata-50"/>
       <use x="49.999985" xlink:href="#Inconsolata-48"/>
       <use x="99.999969" xlink:href="#Inconsolata-50"/>
       <use x="149.999954" xlink:href="#Inconsolata-48"/>
       <use x="199.999939" xlink:href="#Inconsolata-45"/>
       <use x="249.999924" xlink:href="#Inconsolata-48"/>
       <use x="299.999908" xlink:href="#Inconsolata-50"/>
       <use x="349.999893" xlink:href="#Inconsolata-45"/>
       <use x="399.999878" xlink:href="#Inconsolata-48"/>
       <use x="449.999863" xlink:href="#Inconsolata-49"/>
      </g>
     </g>
    </g>
    <g id="xtick_2">
     <g id="line2d_3">
      <path clip-path="url(#p7701d56cce)" d="M 227.056714 157.5 
L 227.056714 21.6 
" style="fill:none;stroke:#ffffff;stroke-linecap:square;stroke-width:0.8;"/>
     </g>
     <g id="line2d_4">
      <g>
       <use style="fill:#555555;stroke:#555555;stroke-width:0.8;" x="227.056714" xlink:href="#m35336e311b" y="157.5"/>
      </g>
     </g>
     <g id="text_2">
      <!-- 2020-02-15 -->
      <defs>
       <path d="M 10.59375 62.296875 
L 8.40625 30.59375 
L 12.90625 28.796875 
C 15.90625 32.59375 20.296875 34.703125 24.59375 34.703125 
C 31.09375 34.703125 37.296875 29.703125 37.296875 19.796875 
C 37.296875 10.203125 31.40625 5 24.703125 5 
C 18 5 13.59375 10.09375 13.296875 10.703125 
C 12.90625 11.5 13.40625 12.5 12.5 13.09375 
L 6.296875 8.40625 
C 10.5 2.296875 17.40625 -1.203125 24.796875 -1.203125 
C 35.59375 -1.203125 44.5 6.09375 44.5 19.59375 
C 44.5 33 36.09375 40.40625 25.59375 40.40625 
C 22.203125 40.40625 18.703125 39.59375 15.5 38 
L 16.40625 56 
L 42.203125 56 
L 42.203125 62.296875 
z
" id="Inconsolata-53"/>
      </defs>
      <g style="fill:#555555;" transform="translate(202.056714 171.140625)scale(0.1 -0.1)">
       <use xlink:href="#Inconsolata-50"/>
       <use x="49.999985" xlink:href="#Inconsolata-48"/>
       <use x="99.999969" xlink:href="#Inconsolata-50"/>
       <use x="149.999954" xlink:href="#Inconsolata-48"/>
       <use x="199.999939" xlink:href="#Inconsolata-45"/>
       <use x="249.999924" xlink:href="#Inconsolata-48"/>
       <use x="299.999908" xlink:href="#Inconsolata-50"/>
       <use x="349.999893" xlink:href="#Inconsolata-45"/>
       <use x="399.999878" xlink:href="#Inconsolata-49"/>
       <use x="449.999863" xlink:href="#Inconsolata-53"/>
      </g>
     </g>
    </g>
    <g id="xtick_3">
     <g id="line2d_5">
      <path clip-path="url(#p7701d56cce)" d="M 296.864887 157.5 
L 296.864887 21.6 
" style="fill:none;stroke:#ffffff;stroke-linecap:square;stroke-width:0.8;"/>
     </g>
     <g id="line2d_6">
      <g>
       <use style="fill:#555555;stroke:#555555;stroke-width:0.8;" x="296.864887" xlink:href="#m35336e311b" y="157.5"/>
      </g>
     </g>
     <g id="text_3">
      <!-- 2020-03-01 -->
      <defs>
       <path d="M 41 46.703125 
C 41 55.203125 33.796875 62.5 23.90625 62.5 
C 18.296875 62.5 12.796875 60.09375 8.90625 55.796875 
L 12.796875 51.5 
C 15.703125 54.59375 19.703125 56.296875 23.59375 56.296875 
C 30 56.296875 34.40625 51.796875 34.40625 46.5 
C 34.40625 42.796875 32.09375 38.59375 27.703125 36.703125 
C 26.59375 36.296875 23.796875 35.203125 17.90625 35.203125 
L 17.90625 29.59375 
C 18.90625 29.703125 20 29.796875 21.09375 29.796875 
C 29.5 29.796875 35.703125 25.40625 35.703125 17.90625 
C 35.703125 11.09375 30.5 5.203125 23.203125 5.203125 
C 17.40625 5.203125 13.90625 9 13.40625 9.5 
C 12.59375 10.40625 13 11.40625 12.09375 12.296875 
L 6.90625 6 
C 11 1.296875 17 -1.09375 23.203125 -1.09375 
C 35.203125 -1.09375 42.40625 7.40625 42.40625 17.09375 
C 42.40625 24.5 38.203125 30.796875 31.703125 33.203125 
C 37.296875 35.296875 41 40.59375 41 46.703125 
z
" id="Inconsolata-51"/>
      </defs>
      <g style="fill:#555555;" transform="translate(271.864887 171.140625)scale(0.1 -0.1)">
       <use xlink:href="#Inconsolata-50"/>
       <use x="49.999985" xlink:href="#Inconsolata-48"/>
       <use x="99.999969" xlink:href="#Inconsolata-50"/>
       <use x="149.999954" xlink:href="#Inconsolata-48"/>
       <use x="199.999939" xlink:href="#Inconsolata-45"/>
       <use x="249.999924" xlink:href="#Inconsolata-48"/>
       <use x="299.999908" xlink:href="#Inconsolata-51"/>
       <use x="349.999893" xlink:href="#Inconsolata-45"/>
       <use x="399.999878" xlink:href="#Inconsolata-48"/>
       <use x="449.999863" xlink:href="#Inconsolata-49"/>
      </g>
     </g>
    </g>
    <g id="xtick_4">
     <g id="line2d_7">
      <path clip-path="url(#p7701d56cce)" d="M 362.019183 157.5 
L 362.019183 21.6 
" style="fill:none;stroke:#ffffff;stroke-linecap:square;stroke-width:0.8;"/>
     </g>
     <g id="line2d_8">
      <g>
       <use style="fill:#555555;stroke:#555555;stroke-width:0.8;" x="362.019183" xlink:href="#m35336e311b" y="157.5"/>
      </g>
     </g>
     <g id="text_4">
      <!-- 2020-03-15 -->
      <g style="fill:#555555;" transform="translate(337.019183 171.140625)scale(0.1 -0.1)">
       <use xlink:href="#Inconsolata-50"/>
       <use x="49.999985" xlink:href="#Inconsolata-48"/>
       <use x="99.999969" xlink:href="#Inconsolata-50"/>
       <use x="149.999954" xlink:href="#Inconsolata-48"/>
       <use x="199.999939" xlink:href="#Inconsolata-45"/>
       <use x="249.999924" xlink:href="#Inconsolata-48"/>
       <use x="299.999908" xlink:href="#Inconsolata-51"/>
       <use x="349.999893" xlink:href="#Inconsolata-45"/>
       <use x="399.999878" xlink:href="#Inconsolata-49"/>
       <use x="449.999863" xlink:href="#Inconsolata-53"/>
      </g>
     </g>
    </g>
    <g id="xtick_5">
     <g id="line2d_9">
      <path clip-path="url(#p7701d56cce)" d="M 441.135113 157.5 
L 441.135113 21.6 
" style="fill:none;stroke:#ffffff;stroke-linecap:square;stroke-width:0.8;"/>
     </g>
     <g id="line2d_10">
      <g>
       <use style="fill:#555555;stroke:#555555;stroke-width:0.8;" x="441.135113" xlink:href="#m35336e311b" y="157.5"/>
      </g>
     </g>
     <g id="text_5">
      <!-- 2020-04-01 -->
      <defs>
       <path d="M 31.296875 62.296875 
L 4.796875 22.40625 
L 4.796875 17.203125 
L 29.90625 17.203125 
L 29.90625 0 
L 37.09375 0 
L 37.09375 17.09375 
L 45.203125 17.09375 
L 45.203125 23.296875 
L 37.09375 23.296875 
L 37.09375 62.296875 
z
M 30 51.203125 
L 30 23.296875 
L 11.703125 23.296875 
z
" id="Inconsolata-52"/>
      </defs>
      <g style="fill:#555555;" transform="translate(416.135113 171.140625)scale(0.1 -0.1)">
       <use xlink:href="#Inconsolata-50"/>
       <use x="49.999985" xlink:href="#Inconsolata-48"/>
       <use x="99.999969" xlink:href="#Inconsolata-50"/>
       <use x="149.999954" xlink:href="#Inconsolata-48"/>
       <use x="199.999939" xlink:href="#Inconsolata-45"/>
       <use x="249.999924" xlink:href="#Inconsolata-48"/>
       <use x="299.999908" xlink:href="#Inconsolata-52"/>
       <use x="349.999893" xlink:href="#Inconsolata-45"/>
       <use x="399.999878" xlink:href="#Inconsolata-48"/>
       <use x="449.999863" xlink:href="#Inconsolata-49"/>
      </g>
     </g>
    </g>
    <g id="xtick_6">
     <g id="line2d_11">
      <path clip-path="url(#p7701d56cce)" d="M 506.289408 157.5 
L 506.289408 21.6 
" style="fill:none;stroke:#ffffff;stroke-linecap:square;stroke-width:0.8;"/>
     </g>
     <g id="line2d_12">
      <g>
       <use style="fill:#555555;stroke:#555555;stroke-width:0.8;" x="506.289408" xlink:href="#m35336e311b" y="157.5"/>
      </g>
     </g>
     <g id="text_6">
      <!-- 2020-04-15 -->
      <g style="fill:#555555;" transform="translate(481.289408 171.140625)scale(0.1 -0.1)">
       <use xlink:href="#Inconsolata-50"/>
       <use x="49.999985" xlink:href="#Inconsolata-48"/>
       <use x="99.999969" xlink:href="#Inconsolata-50"/>
       <use x="149.999954" xlink:href="#Inconsolata-48"/>
       <use x="199.999939" xlink:href="#Inconsolata-45"/>
       <use x="249.999924" xlink:href="#Inconsolata-48"/>
       <use x="299.999908" xlink:href="#Inconsolata-52"/>
       <use x="349.999893" xlink:href="#Inconsolata-45"/>
       <use x="399.999878" xlink:href="#Inconsolata-49"/>
       <use x="449.999863" xlink:href="#Inconsolata-53"/>
      </g>
     </g>
    </g>
    <g id="xtick_7">
     <g id="line2d_13">
      <path clip-path="url(#p7701d56cce)" d="M 580.75146 157.5 
L 580.75146 21.6 
" style="fill:none;stroke:#ffffff;stroke-linecap:square;stroke-width:0.8;"/>
     </g>
     <g id="line2d_14">
      <g>
       <use style="fill:#555555;stroke:#555555;stroke-width:0.8;" x="580.75146" xlink:href="#m35336e311b" y="157.5"/>
      </g>
     </g>
     <g id="text_7">
      <!-- 2020-05-01 -->
      <g style="fill:#555555;" transform="translate(555.75146 171.140625)scale(0.1 -0.1)">
       <use xlink:href="#Inconsolata-50"/>
       <use x="49.999985" xlink:href="#Inconsolata-48"/>
       <use x="99.999969" xlink:href="#Inconsolata-50"/>
       <use x="149.999954" xlink:href="#Inconsolata-48"/>
       <use x="199.999939" xlink:href="#Inconsolata-45"/>
       <use x="249.999924" xlink:href="#Inconsolata-48"/>
       <use x="299.999908" xlink:href="#Inconsolata-53"/>
       <use x="349.999893" xlink:href="#Inconsolata-45"/>
       <use x="399.999878" xlink:href="#Inconsolata-48"/>
       <use x="449.999863" xlink:href="#Inconsolata-49"/>
      </g>
     </g>
    </g>
    <g id="xtick_8">
     <g id="line2d_15">
      <path clip-path="url(#p7701d56cce)" d="M 645.905755 157.5 
L 645.905755 21.6 
" style="fill:none;stroke:#ffffff;stroke-linecap:square;stroke-width:0.8;"/>
     </g>
     <g id="line2d_16">
      <g>
       <use style="fill:#555555;stroke:#555555;stroke-width:0.8;" x="645.905755" xlink:href="#m35336e311b" y="157.5"/>
      </g>
     </g>
     <g id="text_8">
      <!-- 2020-05-15 -->
      <g style="fill:#555555;" transform="translate(620.905755 171.140625)scale(0.1 -0.1)">
       <use xlink:href="#Inconsolata-50"/>
       <use x="49.999985" xlink:href="#Inconsolata-48"/>
       <use x="99.999969" xlink:href="#Inconsolata-50"/>
       <use x="149.999954" xlink:href="#Inconsolata-48"/>
       <use x="199.999939" xlink:href="#Inconsolata-45"/>
       <use x="249.999924" xlink:href="#Inconsolata-48"/>
       <use x="299.999908" xlink:href="#Inconsolata-53"/>
       <use x="349.999893" xlink:href="#Inconsolata-45"/>
       <use x="399.999878" xlink:href="#Inconsolata-49"/>
       <use x="449.999863" xlink:href="#Inconsolata-53"/>
      </g>
     </g>
    </g>
   </g>
   <g id="matplotlib.axis_2">
    <g id="ytick_1">
     <g id="line2d_17">
      <path clip-path="url(#p7701d56cce)" d="M 90 149.40552 
L 648 149.40552 
" style="fill:none;stroke:#ffffff;stroke-linecap:square;stroke-width:0.8;"/>
     </g>
     <g id="line2d_18">
      <defs>
       <path d="M 0 0 
L -3.5 0 
" id="m7508bf875e" style="stroke:#555555;stroke-width:0.8;"/>
      </defs>
      <g>
       <use style="fill:#555555;stroke:#555555;stroke-width:0.8;" x="90" xlink:href="#m7508bf875e" y="149.40552"/>
      </g>
     </g>
     <g id="line2d_19">
      <defs>
       <path d="M 0 0 
L 3.5 0 
" id="meccffc528f" style="stroke:#555555;stroke-width:0.8;"/>
      </defs>
      <g>
       <use style="fill:#555555;stroke:#555555;stroke-width:0.8;" x="648" xlink:href="#meccffc528f" y="149.40552"/>
      </g>
     </g>
     <g id="text_9">
      <!-- 0.6 -->
      <defs>
       <path d="M 29.703125 4.59375 
C 29.703125 7.703125 27.09375 10.296875 23.796875 10.296875 
C 20.5 10.296875 17.90625 7.703125 17.90625 4.59375 
C 17.90625 1.40625 20.5 -1.203125 23.796875 -1.203125 
C 27.09375 -1.203125 29.703125 1.40625 29.703125 4.59375 
z
" id="Inconsolata-46"/>
       <path d="M 28.703125 63 
C 21.203125 63 13.203125 58.40625 9.296875 47.5 
C 7.203125 41.59375 6.703125 34.296875 6.703125 28.296875 
C 6.703125 21 7.40625 13.203125 11.40625 7.203125 
C 15 1.703125 20.59375 -1.09375 26.09375 -1.09375 
C 35.59375 -1.09375 43.90625 6.90625 43.90625 19.796875 
C 43.90625 32.703125 35.59375 40.203125 26.796875 40.203125 
C 21.40625 40.203125 16.296875 37.296875 13.59375 32.703125 
C 14 54 24.203125 56.796875 28.703125 56.796875 
C 32.796875 56.796875 35.59375 54.59375 36 54.203125 
C 36.59375 53.5 36.59375 52.59375 37.5 51.90625 
L 42.296875 57.296875 
C 38.703125 60.90625 33.703125 63 28.703125 63 
z
M 26.09375 34 
C 31.09375 34 37.09375 30.09375 37.09375 19.40625 
C 37.09375 9.703125 31.703125 5.09375 26.40625 5.09375 
C 18.796875 5.09375 13.09375 14 13.90625 25.703125 
C 16.703125 30.796875 21.5 34 26.09375 34 
z
" id="Inconsolata-54"/>
      </defs>
      <g style="fill:#555555;" transform="translate(68 152.725833)scale(0.1 -0.1)">
       <use xlink:href="#Inconsolata-48"/>
       <use x="49.999985" xlink:href="#Inconsolata-46"/>
       <use x="99.999969" xlink:href="#Inconsolata-54"/>
      </g>
     </g>
     <g id="text_10">
      <!-- 0.6 -->
      <g style="fill:#555555;" transform="translate(655 152.725833)scale(0.1 -0.1)">
       <use xlink:href="#Inconsolata-48"/>
       <use x="49.999985" xlink:href="#Inconsolata-46"/>
       <use x="99.999969" xlink:href="#Inconsolata-54"/>
      </g>
     </g>
    </g>
    <g id="ytick_2">
     <g id="line2d_20">
      <path clip-path="url(#p7701d56cce)" d="M 90 118.800783 
L 648 118.800783 
" style="fill:none;stroke:#ffffff;stroke-linecap:square;stroke-width:0.8;"/>
     </g>
     <g id="line2d_21">
      <g>
       <use style="fill:#555555;stroke:#555555;stroke-width:0.8;" x="90" xlink:href="#m7508bf875e" y="118.800783"/>
      </g>
     </g>
     <g id="line2d_22">
      <g>
       <use style="fill:#555555;stroke:#555555;stroke-width:0.8;" x="648" xlink:href="#meccffc528f" y="118.800783"/>
      </g>
     </g>
     <g id="text_11">
      <!-- 0.8 -->
      <defs>
       <path d="M 25.796875 63 
C 16.203125 63 8.90625 56.09375 8.90625 47.703125 
C 8.90625 41.59375 12.796875 36 18.40625 33.09375 
C 11 29.59375 6 22.796875 6 15.59375 
C 6 6.296875 14.203125 -1.09375 24.90625 -1.09375 
C 35.796875 -1.09375 44.09375 6.5 44.09375 16 
C 44.09375 23.40625 39.09375 30 32.09375 33.296875 
C 38.09375 36.40625 42 42.296875 42 48.296875 
C 42 56.5 34.90625 63 25.796875 63 
z
M 23.703125 30.203125 
C 31.703125 27.703125 37 22.203125 37 16.09375 
C 37 10.09375 31.90625 5.203125 25.203125 5.203125 
C 18.40625 5.203125 13.203125 10.296875 13.203125 16.5 
C 13.203125 22.40625 17.796875 27.796875 23.703125 30.203125 
z
M 25.203125 57.203125 
C 30.796875 57.203125 35.203125 53 35.203125 47.796875 
C 35.203125 43 31.5 38.40625 26.59375 35.796875 
C 26.59375 35.796875 15.59375 40 15.59375 48.296875 
C 15.59375 53.203125 19.796875 57.203125 25.203125 57.203125 
z
" id="Inconsolata-56"/>
      </defs>
      <g style="fill:#555555;" transform="translate(68 122.121095)scale(0.1 -0.1)">
       <use xlink:href="#Inconsolata-48"/>
       <use x="49.999985" xlink:href="#Inconsolata-46"/>
       <use x="99.999969" xlink:href="#Inconsolata-56"/>
      </g>
     </g>
     <g id="text_12">
      <!-- 0.8 -->
      <g style="fill:#555555;" transform="translate(655 122.121095)scale(0.1 -0.1)">
       <use xlink:href="#Inconsolata-48"/>
       <use x="49.999985" xlink:href="#Inconsolata-46"/>
       <use x="99.999969" xlink:href="#Inconsolata-56"/>
      </g>
     </g>
    </g>
    <g id="ytick_3">
     <g id="line2d_23">
      <path clip-path="url(#p7701d56cce)" d="M 90 88.196045 
L 648 88.196045 
" style="fill:none;stroke:#ffffff;stroke-linecap:square;stroke-width:0.8;"/>
     </g>
     <g id="line2d_24">
      <g>
       <use style="fill:#555555;stroke:#555555;stroke-width:0.8;" x="90" xlink:href="#m7508bf875e" y="88.196045"/>
      </g>
     </g>
     <g id="line2d_25">
      <g>
       <use style="fill:#555555;stroke:#555555;stroke-width:0.8;" x="648" xlink:href="#meccffc528f" y="88.196045"/>
      </g>
     </g>
     <g id="text_13">
      <!-- 1.0 -->
      <g style="fill:#555555;" transform="translate(68 91.516358)scale(0.1 -0.1)">
       <use xlink:href="#Inconsolata-49"/>
       <use x="49.999985" xlink:href="#Inconsolata-46"/>
       <use x="99.999969" xlink:href="#Inconsolata-48"/>
      </g>
     </g>
     <g id="text_14">
      <!-- 1.0 -->
      <g style="fill:#555555;" transform="translate(655 91.516358)scale(0.1 -0.1)">
       <use xlink:href="#Inconsolata-49"/>
       <use x="49.999985" xlink:href="#Inconsolata-46"/>
       <use x="99.999969" xlink:href="#Inconsolata-48"/>
      </g>
     </g>
    </g>
    <g id="ytick_4">
     <g id="line2d_26">
      <path clip-path="url(#p7701d56cce)" d="M 90 57.591308 
L 648 57.591308 
" style="fill:none;stroke:#ffffff;stroke-linecap:square;stroke-width:0.8;"/>
     </g>
     <g id="line2d_27">
      <g>
       <use style="fill:#555555;stroke:#555555;stroke-width:0.8;" x="90" xlink:href="#m7508bf875e" y="57.591308"/>
      </g>
     </g>
     <g id="line2d_28">
      <g>
       <use style="fill:#555555;stroke:#555555;stroke-width:0.8;" x="648" xlink:href="#meccffc528f" y="57.591308"/>
      </g>
     </g>
     <g id="text_15">
      <!-- 1.2 -->
      <g style="fill:#555555;" transform="translate(68 60.91162)scale(0.1 -0.1)">
       <use xlink:href="#Inconsolata-49"/>
       <use x="49.999985" xlink:href="#Inconsolata-46"/>
       <use x="99.999969" xlink:href="#Inconsolata-50"/>
      </g>
     </g>
     <g id="text_16">
      <!-- 1.2 -->
      <g style="fill:#555555;" transform="translate(655 60.91162)scale(0.1 -0.1)">
       <use xlink:href="#Inconsolata-49"/>
       <use x="49.999985" xlink:href="#Inconsolata-46"/>
       <use x="99.999969" xlink:href="#Inconsolata-50"/>
      </g>
     </g>
    </g>
    <g id="ytick_5">
     <g id="line2d_29">
      <path clip-path="url(#p7701d56cce)" d="M 90 26.98657 
L 648 26.98657 
" style="fill:none;stroke:#ffffff;stroke-linecap:square;stroke-width:0.8;"/>
     </g>
     <g id="line2d_30">
      <g>
       <use style="fill:#555555;stroke:#555555;stroke-width:0.8;" x="90" xlink:href="#m7508bf875e" y="26.98657"/>
      </g>
     </g>
     <g id="line2d_31">
      <g>
       <use style="fill:#555555;stroke:#555555;stroke-width:0.8;" x="648" xlink:href="#meccffc528f" y="26.98657"/>
      </g>
     </g>
     <g id="text_17">
      <!-- 1.4 -->
      <g style="fill:#555555;" transform="translate(68 30.306883)scale(0.1 -0.1)">
       <use xlink:href="#Inconsolata-49"/>
       <use x="49.999985" xlink:href="#Inconsolata-46"/>
       <use x="99.999969" xlink:href="#Inconsolata-52"/>
      </g>
     </g>
     <g id="text_18">
      <!-- 1.4 -->
      <g style="fill:#555555;" transform="translate(655 30.306883)scale(0.1 -0.1)">
       <use xlink:href="#Inconsolata-49"/>
       <use x="49.999985" xlink:href="#Inconsolata-46"/>
       <use x="99.999969" xlink:href="#Inconsolata-52"/>
      </g>
     </g>
    </g>
    <g id="text_19">
     <!-- R &amp; growth factor -->
     <defs>
      <path d="M 5.59375 62.296875 
L 5.59375 0 
L 12.59375 0 
L 12.59375 27.5 
L 24.703125 27.5 
L 38.5 0 
L 46.40625 0 
L 32 27.703125 
C 39.5 29.796875 44.703125 36.90625 44.703125 45.203125 
C 44.703125 51.40625 41.59375 57.296875 35.796875 60.203125 
C 31.90625 62.203125 28 62.296875 23.90625 62.296875 
z
M 12.59375 55.703125 
L 23.90625 55.703125 
C 26.5 55.703125 29 55.59375 31.59375 54.40625 
C 35.5 52.40625 37.5 48.40625 37.5 44.40625 
C 37.5 40.40625 35.59375 36.703125 32 34.90625 
C 29.59375 33.703125 27.203125 33.59375 24.703125 33.59375 
L 12.59375 33.59375 
z
" id="Inconsolata-82"/>
      <path id="Inconsolata-32"/>
      <path d="M 22.796875 62.90625 
C 15.203125 62.90625 9.09375 57.203125 9.09375 49.796875 
C 9.09375 44.296875 12.5 38.703125 16.203125 34.203125 
C 8.5 30 3.59375 22.296875 3.59375 14.59375 
C 3.59375 5.703125 10.203125 -1.09375 19.203125 -1.09375 
C 25.90625 -1.09375 32.09375 2.59375 36 7.5 
L 41.5 -1.296875 
L 47.40625 3.09375 
L 40.40625 12.203125 
C 43.203125 15.90625 45.796875 19.796875 48 23.90625 
L 41.5 28.296875 
C 41.296875 28.09375 41.09375 27.796875 41.09375 27.296875 
C 41.09375 26.90625 41.296875 26.5 41.296875 26.09375 
C 41.296875 25.796875 41.203125 25.59375 41.09375 25.296875 
C 40.40625 23 39 20.09375 36.59375 17.296875 
L 25.40625 32.90625 
C 31.90625 36.5 36.203125 43 36.203125 49.59375 
C 36.203125 57.296875 30.296875 62.90625 22.796875 62.90625 
z
M 16 49.59375 
C 16 54 19.203125 56.90625 22.703125 56.90625 
C 26.40625 56.90625 29.703125 53.796875 29.703125 49.09375 
C 29.703125 44.5 26.703125 39.796875 22 37.203125 
C 17.09375 43.40625 16 47 16 49.59375 
z
M 19.59375 29.59375 
L 32.40625 12.296875 
C 32.40625 12.296875 26.90625 5.40625 20.203125 5.40625 
C 15.09375 5.40625 11.09375 9.5 11.09375 15.296875 
C 11.09375 20.40625 14.296875 26.09375 19.59375 29.59375 
z
" id="Inconsolata-38"/>
      <path d="M 12.5 31.40625 
C 12.5 36.90625 17.09375 41.40625 22.59375 41.40625 
C 28.203125 41.40625 32.703125 36.90625 32.703125 31.40625 
C 32.703125 25.90625 28.203125 21.40625 22.59375 21.40625 
C 17 21.40625 12.5 25.90625 12.5 31.40625 
z
M 23 47.09375 
C 13.90625 47.09375 6 39.90625 6 31 
C 6 26 8.5 21.296875 12.703125 18.59375 
C 9.40625 15.796875 7.5 12.703125 7.5 9.796875 
C 7.5 7.90625 8.296875 5.203125 11.203125 3.703125 
C 6.296875 0.59375 3.796875 -2.796875 3.796875 -6.40625 
C 3.796875 -11.40625 8.40625 -17.296875 24.40625 -17.296875 
C 39.90625 -17.296875 45.5 -9.40625 45.5 -3.296875 
C 45.5 0.703125 43.203125 4.703125 38.40625 6.59375 
C 33.59375 8.59375 28.09375 7.90625 22.90625 7.90625 
C 19.5 7.90625 17.296875 8.203125 16.40625 8.5 
C 14.59375 9 13.59375 10.09375 13.59375 11.5 
C 13.59375 13.90625 16.40625 16.203125 16.90625 16.59375 
C 18.703125 15.90625 20.703125 15.59375 22.703125 15.59375 
C 31.703125 15.59375 39.09375 22.796875 39.09375 31.203125 
C 39.09375 34 38.296875 36.703125 36.796875 39 
C 39.203125 40.40625 42 41.203125 44.796875 41.203125 
C 45.703125 41.203125 46.5 41.09375 47.40625 40.90625 
L 46.59375 46.796875 
C 42 47.203125 37.40625 45.703125 33.90625 42.796875 
C 31 45.59375 27.203125 47.09375 23 47.09375 
z
M 16.09375 2.40625 
C 17.796875 2.203125 20.203125 2 23.703125 1.796875 
C 27.09375 1.703125 30.796875 2 33.40625 1.59375 
C 37.59375 0.90625 38.90625 -1.703125 38.90625 -3.703125 
C 38.90625 -5.703125 37.703125 -8.09375 34.59375 -9.796875 
C 31.203125 -11.59375 27.40625 -11.796875 24.296875 -11.796875 
C 22.203125 -11.796875 18.296875 -11.703125 14.90625 -10.296875 
C 11.203125 -8.796875 10.40625 -6.296875 10.40625 -4.703125 
C 10.40625 -1.40625 13.5 1 16.09375 2.40625 
z
" id="Inconsolata-103"/>
      <path d="M 9.90625 45.59375 
L 9.90625 -0.09375 
L 17.09375 -0.09375 
L 17.09375 22.09375 
C 17.09375 24.90625 17.203125 27.90625 20.296875 32.796875 
C 24.5 39.40625 29.90625 40.5 33.203125 40.5 
C 37 40.5 39.40625 38.703125 40.703125 37.09375 
C 41.296875 36.296875 41.59375 35.5 42.40625 34.796875 
L 45.796875 41.703125 
C 42.90625 44.703125 38.703125 46.703125 33.59375 46.703125 
C 26.90625 46.703125 20.09375 43.296875 17.09375 36.796875 
L 17.40625 45.59375 
z
" id="Inconsolata-114"/>
      <path d="M 46 22.59375 
C 46 38.40625 36 46.59375 25.59375 46.59375 
C 14 46.59375 4 36.59375 4 22.40625 
C 4 8.5 13.90625 -1.296875 25.40625 -1.296875 
C 36.203125 -1.296875 46 7.40625 46 22.59375 
z
M 25.09375 40.5 
C 31.703125 40.5 38.703125 34.796875 38.703125 22.296875 
C 38.703125 10.796875 32.09375 5 25.5 5 
C 18.203125 5 11.59375 11.796875 11.59375 23.09375 
C 11.59375 34.296875 18.09375 40.5 25.09375 40.5 
z
" id="Inconsolata-111"/>
      <path d="M 1.5 45.703125 
L 10.703125 -0.09375 
L 17.203125 -0.09375 
L 25.203125 29.5 
L 33.703125 -0.09375 
L 40.40625 -0.09375 
C 43.5 15 46.09375 30.296875 48 45.59375 
L 41.40625 45.59375 
C 41.59375 40.09375 41.09375 35 37.09375 9 
L 27.5 41.40625 
L 23.09375 41.40625 
L 15.203125 8.90625 
L 8.59375 41.90625 
C 8.40625 42.59375 8.40625 42.90625 8.703125 43.703125 
C 8.796875 44.203125 9.09375 44.90625 8.796875 45.703125 
z
" id="Inconsolata-119"/>
      <path d="M 18.796875 57.90625 
L 17.90625 45.59375 
L 7 45.59375 
L 6.90625 39.703125 
L 17.59375 39.703125 
C 17 31.90625 16.703125 24.09375 16.703125 16.40625 
C 16.703125 12.296875 16.703125 7.703125 19.40625 3.90625 
C 21.59375 0.90625 25.09375 -0.90625 29.796875 -0.90625 
C 35.203125 -0.90625 40.5 1.40625 44.40625 4.203125 
L 42.203125 9.90625 
C 38.296875 7 34.703125 5.703125 31.90625 5.703125 
C 28.5 5.703125 25 7.59375 24.203125 13.09375 
C 24.203125 13.5 23.90625 15.203125 23.90625 21.90625 
C 23.90625 27.796875 24.203125 33.796875 24.796875 39.703125 
L 39.796875 39.703125 
L 39.796875 45.703125 
L 24.90625 45.703125 
C 24.90625 45.703125 25.59375 53.90625 26.09375 56.5 
C 26.203125 57.5 27 58.09375 26.59375 59.203125 
z
" id="Inconsolata-116"/>
      <path d="M 6.90625 0 
L 14.296875 0 
L 14.296875 26.296875 
C 14.296875 29.296875 14.59375 31.59375 16.5 34.09375 
C 18.296875 36.40625 22.703125 40.5 27.5 40.5 
C 29.796875 40.5 32.09375 39.5 33.703125 37.59375 
C 36.203125 34.59375 36.203125 30.703125 36.203125 27.5 
L 36.203125 0 
L 43.296875 0 
L 43.296875 27.703125 
C 43.296875 31.203125 43.203125 35 41.59375 38.703125 
C 39.296875 43.796875 34.703125 46.703125 29.5 46.703125 
C 23.296875 46.703125 17.59375 42.703125 14.296875 37.59375 
L 14.296875 64.09375 
C 14.296875 64.40625 14.296875 64.703125 14.59375 65 
C 14.90625 65.296875 15.296875 65.59375 15.296875 66.09375 
C 15.296875 66.203125 15.296875 66.296875 15.203125 66.40625 
L 6.90625 66.40625 
z
" id="Inconsolata-104"/>
      <path d="M 34.296875 67 
C 27.90625 67 21.90625 64.296875 18.703125 59.09375 
C 16.296875 55.296875 16.203125 51.5 16.203125 47.40625 
L 16.203125 42.90625 
L 6.203125 42.90625 
L 6.203125 37.203125 
L 16.203125 37.203125 
L 16.203125 0 
L 23.09375 0 
L 23.09375 37.203125 
L 38 37.203125 
L 38 42.90625 
L 23.09375 42.90625 
L 23.09375 46.5 
C 23.09375 49.796875 23 53.296875 24.703125 56.296875 
C 26.59375 59.703125 30.203125 61.40625 33.90625 61.40625 
C 38.296875 61.40625 42 59.09375 43.90625 56.203125 
C 44.203125 55.703125 44.203125 55.40625 44.203125 55 
C 44.203125 54.296875 44.703125 54.09375 45 54.09375 
L 48.296875 60.796875 
C 45 64.703125 40 67 34.296875 67 
z
" id="Inconsolata-102"/>
      <path d="M 9 40.296875 
L 12.5 35.703125 
C 16.296875 39.59375 21.40625 40.796875 25.703125 40.796875 
C 31.09375 40.796875 33.796875 38.5 35.09375 36.40625 
C 36.59375 33.90625 36.5 30.90625 36.5 28.5 
L 36.5 26.90625 
L 35.09375 26.90625 
C 28.296875 26.90625 21.09375 26.90625 15.296875 24.796875 
C 8.09375 22.203125 4.90625 16.796875 4.90625 11.796875 
C 4.90625 5.09375 10.703125 -1.203125 20.203125 -1.203125 
C 25.796875 -1.203125 31.59375 0.90625 36.59375 5 
L 36.59375 0 
L 43.40625 0 
L 43.40625 28.296875 
C 43.40625 32 43.296875 35.5 41.203125 39.09375 
C 38.203125 44 32.40625 46.59375 25.296875 46.59375 
C 19.203125 46.59375 13.296875 44.703125 9 40.296875 
z
M 36.796875 21.40625 
L 36.796875 18.296875 
C 36.796875 16 36.796875 13 33.703125 9.703125 
C 32 8 27.703125 4.296875 21.703125 4.296875 
C 15.59375 4.296875 12.09375 8.203125 12.09375 12.203125 
C 12.09375 15.59375 14.40625 19.296875 20.09375 20.703125 
C 24.296875 21.703125 30.40625 21.40625 35.203125 21.40625 
z
" id="Inconsolata-97"/>
      <path d="M 45.59375 38.09375 
C 42 43.40625 35.90625 46.59375 28.5 46.59375 
C 15.09375 46.59375 5.59375 36.5 5.59375 22.796875 
C 5.59375 9 15.09375 -1.203125 28.09375 -1.203125 
C 34.40625 -1.203125 40.59375 1.40625 44.90625 6.09375 
L 40.796875 10.90625 
C 37.703125 7.40625 33.203125 5.40625 28.703125 5.40625 
C 19.796875 5.40625 13 12.796875 13 23.5 
C 13 33.90625 19.703125 40.40625 28.09375 40.40625 
C 35.90625 40.40625 39.59375 35 39.90625 34.40625 
C 40.296875 33.703125 39.703125 32.703125 40.5 32.09375 
z
" id="Inconsolata-99"/>
     </defs>
     <g style="fill:#555555;" transform="translate(50.234875 140.55)rotate(-90)scale(0.12 -0.12)">
      <use xlink:href="#Inconsolata-82"/>
      <use x="49.999985" xlink:href="#Inconsolata-32"/>
      <use x="99.999969" xlink:href="#Inconsolata-38"/>
      <use x="149.999954" xlink:href="#Inconsolata-32"/>
      <use x="199.999939" xlink:href="#Inconsolata-103"/>
      <use x="249.999924" xlink:href="#Inconsolata-114"/>
      <use x="299.999908" xlink:href="#Inconsolata-111"/>
      <use x="349.999893" xlink:href="#Inconsolata-119"/>
      <use x="399.999878" xlink:href="#Inconsolata-116"/>
      <use x="449.999863" xlink:href="#Inconsolata-104"/>
      <use x="499.999847" xlink:href="#Inconsolata-32"/>
      <use x="549.999832" xlink:href="#Inconsolata-102"/>
      <use x="599.999817" xlink:href="#Inconsolata-97"/>
      <use x="649.999802" xlink:href="#Inconsolata-99"/>
      <use x="699.999786" xlink:href="#Inconsolata-116"/>
      <use x="749.999771" xlink:href="#Inconsolata-111"/>
      <use x="799.999756" xlink:href="#Inconsolata-114"/>
     </g>
     <!-- (based on cases) -->
     <defs>
      <path d="M 39.09375 66.59375 
C 23.703125 59.796875 13.796875 44.09375 13.796875 25.796875 
C 13.796875 7.59375 23.40625 -9 39.203125 -17.296875 
L 42.5 -12 
C 28.796875 -4.09375 20.796875 10.59375 20.796875 26.09375 
C 20.796875 40.40625 27.703125 53.203125 39.40625 60 
C 39.59375 60.203125 39.90625 60.40625 40.296875 60.40625 
C 40.59375 60.40625 40.90625 60.203125 41.296875 60.203125 
C 41.5 60.203125 41.796875 60.296875 42.203125 60.40625 
z
" id="Inconsolata-40"/>
      <path d="M 5.90625 66.5 
L 5.90625 0 
L 10.59375 0 
L 13.09375 6 
C 16.09375 1.5 21.09375 -1.203125 26.59375 -1.203125 
C 36 -1.203125 45.703125 6.796875 45.703125 23.40625 
C 45.703125 39.296875 36.296875 46.703125 27.296875 46.703125 
C 21.5 46.703125 16.09375 43.59375 13.203125 38.59375 
L 13.203125 64.203125 
C 13.203125 64.796875 13.296875 65 13.796875 65.40625 
C 14 65.5 14.5 65.90625 14.40625 66.5 
z
M 24.796875 40.5 
C 29.09375 40.5 38.203125 38 38.203125 21.796875 
C 38.203125 7.90625 29.203125 5.296875 24.703125 5.296875 
C 21.59375 5.296875 14.703125 6.5 13.5 15.296875 
C 13.203125 17.59375 13.203125 20.296875 13.203125 24.296875 
C 13.203125 28.40625 13.40625 31.40625 14.40625 33.90625 
C 16.09375 38 20.296875 40.5 24.796875 40.5 
z
" id="Inconsolata-98"/>
      <path d="M 43.203125 39.59375 
C 39 44.203125 32.90625 46.703125 26.09375 46.703125 
C 15.5 46.703125 8.59375 40.796875 8.59375 34 
C 8.59375 26 17.203125 23.09375 19.703125 22.203125 
C 23.59375 20.796875 28.59375 19.59375 32 18 
C 35.796875 16.203125 36.5 13.796875 36.5 12.203125 
C 36.5 7.90625 31.296875 5 24.796875 5 
C 17 5 12 9.703125 10.5 11.296875 
C 10.203125 11.703125 10.203125 12 10.203125 12.40625 
C 10.203125 12.5 10.296875 13.09375 9.796875 13.296875 
L 5.59375 6.203125 
C 11 1.203125 18 -1.09375 24.90625 -1.09375 
C 37.40625 -1.09375 43.90625 6.296875 43.90625 13.203125 
C 43.90625 16.296875 42.59375 20.5 37.203125 23.5 
C 32.09375 26.40625 24.703125 27.40625 20.40625 29.5 
C 16.703125 31.296875 15.90625 33.5 15.90625 35.09375 
C 15.90625 38.703125 20.40625 41.296875 25.5 41.296875 
C 32.09375 41.296875 36.5 37.296875 38.203125 35 
C 38.5 34.703125 38.40625 34.40625 38.40625 34.09375 
C 38.40625 33.5 38.796875 33.296875 39 33.296875 
z
" id="Inconsolata-115"/>
      <path d="M 25.796875 46.703125 
C 14.90625 46.703125 4.796875 38.90625 4.796875 22.296875 
C 4.796875 7 14.296875 -1.09375 26.703125 -1.09375 
C 33.296875 -1.09375 39.203125 1.296875 43.09375 6 
L 39.09375 9.90625 
C 36.203125 6.5 31.796875 4.703125 27.296875 4.703125 
C 21.203125 4.703125 12.296875 8.09375 11.796875 21.796875 
L 44.203125 21.796875 
C 44.5 24.90625 44.40625 27.90625 43.90625 30.5 
C 41.796875 42.796875 33.296875 46.703125 25.796875 46.703125 
z
M 12 27.296875 
C 13.5 38.09375 20.40625 41.203125 25.296875 41.203125 
C 32.703125 41.203125 38 34.703125 37.09375 27.296875 
z
" id="Inconsolata-101"/>
      <path d="M 37.09375 39 
C 34.90625 43.703125 30 46.796875 23.703125 46.796875 
C 15 46.796875 4.40625 40.59375 4.40625 23.203125 
C 4.40625 6.296875 13.796875 -1.09375 22.59375 -1.09375 
C 28.40625 -1.09375 33.796875 2.203125 36.703125 7.296875 
L 36.703125 3.296875 
C 36.703125 2.203125 36.796875 1.09375 37.09375 0 
L 44.296875 0 
C 43.90625 1.296875 43.90625 2.796875 43.90625 4.203125 
L 43.796875 63.59375 
C 43.796875 64.203125 43.796875 64.40625 44.203125 65 
C 44.40625 65.296875 44.796875 65.796875 44.703125 66.5 
L 37.09375 66.5 
z
M 24 40.90625 
C 28 40.90625 33.90625 38.796875 35.703125 32 
C 36.296875 29.90625 36.5 27.40625 36.5 22.296875 
C 36.5 18.796875 36.296875 16.296875 35.5 13.90625 
C 33.796875 8.5 29 5.296875 24.296875 5.296875 
C 19.09375 5.296875 11.40625 9.296875 11.40625 24.296875 
C 11.40625 37.40625 18.703125 40.90625 24 40.90625 
z
" id="Inconsolata-100"/>
      <path d="M 6.796875 0 
L 14.09375 0 
L 14.09375 26.296875 
C 14.09375 29.296875 14.5 31.59375 16.40625 34.09375 
C 18.09375 36.40625 22.5 40.5 27.296875 40.5 
C 29.59375 40.5 31.90625 39.5 33.5 37.59375 
C 36 34.59375 36 30.703125 36 27.5 
L 36 0 
L 43.09375 0 
L 43.09375 27.703125 
C 43.09375 31.203125 43.09375 35 41.5 38.703125 
C 39.203125 43.796875 34.5 46.703125 29.296875 46.703125 
C 23.09375 46.703125 17.5 42.703125 14.09375 37.59375 
L 14.09375 45.59375 
L 6.796875 45.59375 
z
" id="Inconsolata-110"/>
      <path d="M 7.703125 60.296875 
C 20.90625 53.203125 29.296875 39.59375 29.296875 24.703125 
C 29.296875 9.703125 20.703125 -4.296875 7.203125 -11.40625 
L 9.09375 -17.5 
C 25.703125 -9.59375 36.40625 7 36.40625 25 
C 36.40625 42.796875 25.90625 59 9.59375 66.5 
z
" id="Inconsolata-41"/>
     </defs>
     <g style="fill:#555555;" transform="translate(61.9 137.55)rotate(-90)scale(0.12 -0.12)">
      <use xlink:href="#Inconsolata-40"/>
      <use x="49.999985" xlink:href="#Inconsolata-98"/>
      <use x="99.999969" xlink:href="#Inconsolata-97"/>
      <use x="149.999954" xlink:href="#Inconsolata-115"/>
      <use x="199.999939" xlink:href="#Inconsolata-101"/>
      <use x="249.999924" xlink:href="#Inconsolata-100"/>
      <use x="299.999908" xlink:href="#Inconsolata-32"/>
      <use x="349.999893" xlink:href="#Inconsolata-111"/>
      <use x="399.999878" xlink:href="#Inconsolata-110"/>
      <use x="449.999863" xlink:href="#Inconsolata-32"/>
      <use x="499.999847" xlink:href="#Inconsolata-99"/>
      <use x="549.999832" xlink:href="#Inconsolata-97"/>
      <use x="599.999817" xlink:href="#Inconsolata-115"/>
      <use x="649.999802" xlink:href="#Inconsolata-101"/>
      <use x="699.999786" xlink:href="#Inconsolata-115"/>
      <use x="749.999771" xlink:href="#Inconsolata-41"/>
     </g>
    </g>
   </g>
   <g id="line2d_32">
    <defs>
     <path d="M 0 3 
C 0.795609 3 1.55874 2.683901 2.12132 2.12132 
C 2.683901 1.55874 3 0.795609 3 0 
C 3 -0.795609 2.683901 -1.55874 2.12132 -2.12132 
C 1.55874 -2.683901 0.795609 -3 0 -3 
C -0.795609 -3 -1.55874 -2.683901 -2.12132 -2.12132 
C -2.683901 -1.55874 -3 -0.795609 -3 0 
C -3 0.795609 -2.683901 1.55874 -2.12132 2.12132 
C -1.55874 2.683901 -0.795609 3 0 3 
z
" id="md99ca573bf" style="stroke:#348abd;stroke-opacity:0.3;"/>
    </defs>
    <g clip-path="url(#p7701d56cce)">
     <use style="fill:#348abd;fill-opacity:0.3;stroke:#348abd;stroke-opacity:0.3;" x="124.671393" xlink:href="#md99ca573bf" y="91.296176"/>
     <use style="fill:#348abd;fill-opacity:0.3;stroke:#348abd;stroke-opacity:0.3;" x="129.325271" xlink:href="#md99ca573bf" y="94.924445"/>
     <use style="fill:#348abd;fill-opacity:0.3;stroke:#348abd;stroke-opacity:0.3;" x="133.979149" xlink:href="#md99ca573bf" y="100.601055"/>
     <use style="fill:#348abd;fill-opacity:0.3;stroke:#348abd;stroke-opacity:0.3;" x="137.288913" xlink:href="#md99ca573bf" y="-1"/>
     <use style="fill:#348abd;fill-opacity:0.3;stroke:#348abd;stroke-opacity:0.3;" x="140.732877" xlink:href="#md99ca573bf" y="-1"/>
     <use style="fill:#348abd;fill-opacity:0.3;stroke:#348abd;stroke-opacity:0.3;" x="143.286906" xlink:href="#md99ca573bf" y="49.185164"/>
     <use style="fill:#348abd;fill-opacity:0.3;stroke:#348abd;stroke-opacity:0.3;" x="147.940784" xlink:href="#md99ca573bf" y="42.44005"/>
     <use style="fill:#348abd;fill-opacity:0.3;stroke:#348abd;stroke-opacity:0.3;" x="152.594662" xlink:href="#md99ca573bf" y="63.867424"/>
     <use style="fill:#348abd;fill-opacity:0.3;stroke:#348abd;stroke-opacity:0.3;" x="157.24854" xlink:href="#md99ca573bf" y="74.612802"/>
     <use style="fill:#348abd;fill-opacity:0.3;stroke:#348abd;stroke-opacity:0.3;" x="161.902419" xlink:href="#md99ca573bf" y="72.728927"/>
     <use style="fill:#348abd;fill-opacity:0.3;stroke:#348abd;stroke-opacity:0.3;" x="166.556297" xlink:href="#md99ca573bf" y="69.329295"/>
     <use style="fill:#348abd;fill-opacity:0.3;stroke:#348abd;stroke-opacity:0.3;" x="171.210175" xlink:href="#md99ca573bf" y="85.384567"/>
     <use style="fill:#348abd;fill-opacity:0.3;stroke:#348abd;stroke-opacity:0.3;" x="175.864053" xlink:href="#md99ca573bf" y="94.023991"/>
     <use style="fill:#348abd;fill-opacity:0.3;stroke:#348abd;stroke-opacity:0.3;" x="180.517932" xlink:href="#md99ca573bf" y="114.897241"/>
     <use style="fill:#348abd;fill-opacity:0.3;stroke:#348abd;stroke-opacity:0.3;" x="185.17181" xlink:href="#md99ca573bf" y="87.178164"/>
     <use style="fill:#348abd;fill-opacity:0.3;stroke:#348abd;stroke-opacity:0.3;" x="189.825688" xlink:href="#md99ca573bf" y="102.199149"/>
     <use style="fill:#348abd;fill-opacity:0.3;stroke:#348abd;stroke-opacity:0.3;" x="194.479566" xlink:href="#md99ca573bf" y="98.43877"/>
     <use style="fill:#348abd;fill-opacity:0.3;stroke:#348abd;stroke-opacity:0.3;" x="199.133445" xlink:href="#md99ca573bf" y="110.358095"/>
     <use style="fill:#348abd;fill-opacity:0.3;stroke:#348abd;stroke-opacity:0.3;" x="203.787323" xlink:href="#md99ca573bf" y="125.921568"/>
     <use style="fill:#348abd;fill-opacity:0.3;stroke:#348abd;stroke-opacity:0.3;" x="208.441201" xlink:href="#md99ca573bf" y="138.992131"/>
     <use style="fill:#348abd;fill-opacity:0.3;stroke:#348abd;stroke-opacity:0.3;" x="213.095079" xlink:href="#md99ca573bf" y="108.28308"/>
     <use style="fill:#348abd;fill-opacity:0.3;stroke:#348abd;stroke-opacity:0.3;" x="217.748957" xlink:href="#md99ca573bf" y="93.455107"/>
     <use style="fill:#348abd;fill-opacity:0.3;stroke:#348abd;stroke-opacity:0.3;" x="222.402836" xlink:href="#md99ca573bf" y="96.882514"/>
     <use style="fill:#348abd;fill-opacity:0.3;stroke:#348abd;stroke-opacity:0.3;" x="227.056714" xlink:href="#md99ca573bf" y="110.948156"/>
     <use style="fill:#348abd;fill-opacity:0.3;stroke:#348abd;stroke-opacity:0.3;" x="227.36626" xlink:href="#md99ca573bf" y="-1"/>
     <use style="fill:#348abd;fill-opacity:0.3;stroke:#348abd;stroke-opacity:0.3;" x="248.497586" xlink:href="#md99ca573bf" y="-1"/>
     <use style="fill:#348abd;fill-opacity:0.3;stroke:#348abd;stroke-opacity:0.3;" x="250.326105" xlink:href="#md99ca573bf" y="7.231741"/>
     <use style="fill:#348abd;fill-opacity:0.3;stroke:#348abd;stroke-opacity:0.3;" x="254.979983" xlink:href="#md99ca573bf" y="40.620132"/>
     <use style="fill:#348abd;fill-opacity:0.3;stroke:#348abd;stroke-opacity:0.3;" x="259.633862" xlink:href="#md99ca573bf" y="43.63292"/>
     <use style="fill:#348abd;fill-opacity:0.3;stroke:#348abd;stroke-opacity:0.3;" x="264.28774" xlink:href="#md99ca573bf" y="40.177525"/>
     <use style="fill:#348abd;fill-opacity:0.3;stroke:#348abd;stroke-opacity:0.3;" x="268.941618" xlink:href="#md99ca573bf" y="44.939176"/>
     <use style="fill:#348abd;fill-opacity:0.3;stroke:#348abd;stroke-opacity:0.3;" x="273.595496" xlink:href="#md99ca573bf" y="43.166976"/>
     <use style="fill:#348abd;fill-opacity:0.3;stroke:#348abd;stroke-opacity:0.3;" x="278.249374" xlink:href="#md99ca573bf" y="55.100571"/>
     <use style="fill:#348abd;fill-opacity:0.3;stroke:#348abd;stroke-opacity:0.3;" x="282.903253" xlink:href="#md99ca573bf" y="62.148077"/>
     <use style="fill:#348abd;fill-opacity:0.3;stroke:#348abd;stroke-opacity:0.3;" x="287.557131" xlink:href="#md99ca573bf" y="60.753697"/>
     <use style="fill:#348abd;fill-opacity:0.3;stroke:#348abd;stroke-opacity:0.3;" x="292.211009" xlink:href="#md99ca573bf" y="74.372155"/>
     <use style="fill:#348abd;fill-opacity:0.3;stroke:#348abd;stroke-opacity:0.3;" x="296.864887" xlink:href="#md99ca573bf" y="79.088056"/>
     <use style="fill:#348abd;fill-opacity:0.3;stroke:#348abd;stroke-opacity:0.3;" x="301.518766" xlink:href="#md99ca573bf" y="85.739465"/>
     <use style="fill:#348abd;fill-opacity:0.3;stroke:#348abd;stroke-opacity:0.3;" x="306.172644" xlink:href="#md99ca573bf" y="92.471831"/>
     <use style="fill:#348abd;fill-opacity:0.3;stroke:#348abd;stroke-opacity:0.3;" x="310.826522" xlink:href="#md99ca573bf" y="98.076869"/>
     <use style="fill:#348abd;fill-opacity:0.3;stroke:#348abd;stroke-opacity:0.3;" x="315.4804" xlink:href="#md99ca573bf" y="105.259298"/>
     <use style="fill:#348abd;fill-opacity:0.3;stroke:#348abd;stroke-opacity:0.3;" x="320.134279" xlink:href="#md99ca573bf" y="108.064204"/>
     <use style="fill:#348abd;fill-opacity:0.3;stroke:#348abd;stroke-opacity:0.3;" x="324.788157" xlink:href="#md99ca573bf" y="109.411998"/>
     <use style="fill:#348abd;fill-opacity:0.3;stroke:#348abd;stroke-opacity:0.3;" x="329.442035" xlink:href="#md99ca573bf" y="118.728379"/>
     <use style="fill:#348abd;fill-opacity:0.3;stroke:#348abd;stroke-opacity:0.3;" x="334.095913" xlink:href="#md99ca573bf" y="113.399868"/>
     <use style="fill:#348abd;fill-opacity:0.3;stroke:#348abd;stroke-opacity:0.3;" x="338.749791" xlink:href="#md99ca573bf" y="116.669064"/>
     <use style="fill:#348abd;fill-opacity:0.3;stroke:#348abd;stroke-opacity:0.3;" x="343.40367" xlink:href="#md99ca573bf" y="119.605619"/>
     <use style="fill:#348abd;fill-opacity:0.3;stroke:#348abd;stroke-opacity:0.3;" x="348.057548" xlink:href="#md99ca573bf" y="117.296877"/>
     <use style="fill:#348abd;fill-opacity:0.3;stroke:#348abd;stroke-opacity:0.3;" x="352.711426" xlink:href="#md99ca573bf" y="107.510272"/>
     <use style="fill:#348abd;fill-opacity:0.3;stroke:#348abd;stroke-opacity:0.3;" x="357.365304" xlink:href="#md99ca573bf" y="100.145002"/>
     <use style="fill:#348abd;fill-opacity:0.3;stroke:#348abd;stroke-opacity:0.3;" x="362.019183" xlink:href="#md99ca573bf" y="86.796723"/>
     <use style="fill:#348abd;fill-opacity:0.3;stroke:#348abd;stroke-opacity:0.3;" x="366.673061" xlink:href="#md99ca573bf" y="102.176161"/>
     <use style="fill:#348abd;fill-opacity:0.3;stroke:#348abd;stroke-opacity:0.3;" x="371.326939" xlink:href="#md99ca573bf" y="83.115011"/>
     <use style="fill:#348abd;fill-opacity:0.3;stroke:#348abd;stroke-opacity:0.3;" x="375.980817" xlink:href="#md99ca573bf" y="78.005459"/>
     <use style="fill:#348abd;fill-opacity:0.3;stroke:#348abd;stroke-opacity:0.3;" x="380.634696" xlink:href="#md99ca573bf" y="90.273655"/>
     <use style="fill:#348abd;fill-opacity:0.3;stroke:#348abd;stroke-opacity:0.3;" x="385.288574" xlink:href="#md99ca573bf" y="87.06985"/>
     <use style="fill:#348abd;fill-opacity:0.3;stroke:#348abd;stroke-opacity:0.3;" x="389.942452" xlink:href="#md99ca573bf" y="89.141182"/>
     <use style="fill:#348abd;fill-opacity:0.3;stroke:#348abd;stroke-opacity:0.3;" x="394.59633" xlink:href="#md99ca573bf" y="92.006645"/>
     <use style="fill:#348abd;fill-opacity:0.3;stroke:#348abd;stroke-opacity:0.3;" x="399.250209" xlink:href="#md99ca573bf" y="94.346085"/>
     <use style="fill:#348abd;fill-opacity:0.3;stroke:#348abd;stroke-opacity:0.3;" x="403.904087" xlink:href="#md99ca573bf" y="91.773863"/>
     <use style="fill:#348abd;fill-opacity:0.3;stroke:#348abd;stroke-opacity:0.3;" x="408.557965" xlink:href="#md99ca573bf" y="85.787846"/>
     <use style="fill:#348abd;fill-opacity:0.3;stroke:#348abd;stroke-opacity:0.3;" x="413.211843" xlink:href="#md99ca573bf" y="90.311131"/>
     <use style="fill:#348abd;fill-opacity:0.3;stroke:#348abd;stroke-opacity:0.3;" x="417.865721" xlink:href="#md99ca573bf" y="85.344911"/>
     <use style="fill:#348abd;fill-opacity:0.3;stroke:#348abd;stroke-opacity:0.3;" x="422.5196" xlink:href="#md99ca573bf" y="76.187885"/>
     <use style="fill:#348abd;fill-opacity:0.3;stroke:#348abd;stroke-opacity:0.3;" x="427.173478" xlink:href="#md99ca573bf" y="86.966585"/>
     <use style="fill:#348abd;fill-opacity:0.3;stroke:#348abd;stroke-opacity:0.3;" x="431.827356" xlink:href="#md99ca573bf" y="90.684952"/>
     <use style="fill:#348abd;fill-opacity:0.3;stroke:#348abd;stroke-opacity:0.3;" x="436.481234" xlink:href="#md99ca573bf" y="91.388308"/>
     <use style="fill:#348abd;fill-opacity:0.3;stroke:#348abd;stroke-opacity:0.3;" x="441.135113" xlink:href="#md99ca573bf" y="92.251554"/>
     <use style="fill:#348abd;fill-opacity:0.3;stroke:#348abd;stroke-opacity:0.3;" x="445.788991" xlink:href="#md99ca573bf" y="99.657873"/>
     <use style="fill:#348abd;fill-opacity:0.3;stroke:#348abd;stroke-opacity:0.3;" x="450.442869" xlink:href="#md99ca573bf" y="98.299217"/>
     <use style="fill:#348abd;fill-opacity:0.3;stroke:#348abd;stroke-opacity:0.3;" x="455.096747" xlink:href="#md99ca573bf" y="98.224711"/>
     <use style="fill:#348abd;fill-opacity:0.3;stroke:#348abd;stroke-opacity:0.3;" x="459.750626" xlink:href="#md99ca573bf" y="105.507278"/>
     <use style="fill:#348abd;fill-opacity:0.3;stroke:#348abd;stroke-opacity:0.3;" x="464.404504" xlink:href="#md99ca573bf" y="106.399953"/>
     <use style="fill:#348abd;fill-opacity:0.3;stroke:#348abd;stroke-opacity:0.3;" x="469.058382" xlink:href="#md99ca573bf" y="107.088777"/>
     <use style="fill:#348abd;fill-opacity:0.3;stroke:#348abd;stroke-opacity:0.3;" x="473.71226" xlink:href="#md99ca573bf" y="107.829905"/>
     <use style="fill:#348abd;fill-opacity:0.3;stroke:#348abd;stroke-opacity:0.3;" x="478.366138" xlink:href="#md99ca573bf" y="110.168503"/>
     <use style="fill:#348abd;fill-opacity:0.3;stroke:#348abd;stroke-opacity:0.3;" x="483.020017" xlink:href="#md99ca573bf" y="107.279751"/>
     <use style="fill:#348abd;fill-opacity:0.3;stroke:#348abd;stroke-opacity:0.3;" x="487.673895" xlink:href="#md99ca573bf" y="100.221696"/>
     <use style="fill:#348abd;fill-opacity:0.3;stroke:#348abd;stroke-opacity:0.3;" x="492.327773" xlink:href="#md99ca573bf" y="100.856796"/>
     <use style="fill:#348abd;fill-opacity:0.3;stroke:#348abd;stroke-opacity:0.3;" x="496.981651" xlink:href="#md99ca573bf" y="101.233427"/>
     <use style="fill:#348abd;fill-opacity:0.3;stroke:#348abd;stroke-opacity:0.3;" x="501.63553" xlink:href="#md99ca573bf" y="98.143249"/>
     <use style="fill:#348abd;fill-opacity:0.3;stroke:#348abd;stroke-opacity:0.3;" x="506.289408" xlink:href="#md99ca573bf" y="99.513617"/>
     <use style="fill:#348abd;fill-opacity:0.3;stroke:#348abd;stroke-opacity:0.3;" x="510.943286" xlink:href="#md99ca573bf" y="101.880925"/>
     <use style="fill:#348abd;fill-opacity:0.3;stroke:#348abd;stroke-opacity:0.3;" x="515.597164" xlink:href="#md99ca573bf" y="106.183493"/>
     <use style="fill:#348abd;fill-opacity:0.3;stroke:#348abd;stroke-opacity:0.3;" x="520.251043" xlink:href="#md99ca573bf" y="105.477532"/>
     <use style="fill:#348abd;fill-opacity:0.3;stroke:#348abd;stroke-opacity:0.3;" x="524.904921" xlink:href="#md99ca573bf" y="105.765205"/>
     <use style="fill:#348abd;fill-opacity:0.3;stroke:#348abd;stroke-opacity:0.3;" x="529.558799" xlink:href="#md99ca573bf" y="106.316383"/>
     <use style="fill:#348abd;fill-opacity:0.3;stroke:#348abd;stroke-opacity:0.3;" x="534.212677" xlink:href="#md99ca573bf" y="101.931865"/>
     <use style="fill:#348abd;fill-opacity:0.3;stroke:#348abd;stroke-opacity:0.3;" x="538.866555" xlink:href="#md99ca573bf" y="99.471859"/>
     <use style="fill:#348abd;fill-opacity:0.3;stroke:#348abd;stroke-opacity:0.3;" x="543.520434" xlink:href="#md99ca573bf" y="91.374681"/>
     <use style="fill:#348abd;fill-opacity:0.3;stroke:#348abd;stroke-opacity:0.3;" x="548.174312" xlink:href="#md99ca573bf" y="87.263232"/>
     <use style="fill:#348abd;fill-opacity:0.3;stroke:#348abd;stroke-opacity:0.3;" x="552.82819" xlink:href="#md99ca573bf" y="96.000477"/>
     <use style="fill:#348abd;fill-opacity:0.3;stroke:#348abd;stroke-opacity:0.3;" x="557.482068" xlink:href="#md99ca573bf" y="92.105474"/>
     <use style="fill:#348abd;fill-opacity:0.3;stroke:#348abd;stroke-opacity:0.3;" x="562.135947" xlink:href="#md99ca573bf" y="97.613753"/>
     <use style="fill:#348abd;fill-opacity:0.3;stroke:#348abd;stroke-opacity:0.3;" x="566.789825" xlink:href="#md99ca573bf" y="94.344549"/>
     <use style="fill:#348abd;fill-opacity:0.3;stroke:#348abd;stroke-opacity:0.3;" x="571.443703" xlink:href="#md99ca573bf" y="93.286019"/>
     <use style="fill:#348abd;fill-opacity:0.3;stroke:#348abd;stroke-opacity:0.3;" x="576.097581" xlink:href="#md99ca573bf" y="97.70441"/>
     <use style="fill:#348abd;fill-opacity:0.3;stroke:#348abd;stroke-opacity:0.3;" x="580.75146" xlink:href="#md99ca573bf" y="100.736125"/>
     <use style="fill:#348abd;fill-opacity:0.3;stroke:#348abd;stroke-opacity:0.3;" x="585.405338" xlink:href="#md99ca573bf" y="104.754183"/>
     <use style="fill:#348abd;fill-opacity:0.3;stroke:#348abd;stroke-opacity:0.3;" x="590.059216" xlink:href="#md99ca573bf" y="91.035566"/>
     <use style="fill:#348abd;fill-opacity:0.3;stroke:#348abd;stroke-opacity:0.3;" x="594.713094" xlink:href="#md99ca573bf" y="73.987789"/>
     <use style="fill:#348abd;fill-opacity:0.3;stroke:#348abd;stroke-opacity:0.3;" x="599.366972" xlink:href="#md99ca573bf" y="50.667973"/>
     <use style="fill:#348abd;fill-opacity:0.3;stroke:#348abd;stroke-opacity:0.3;" x="604.020851" xlink:href="#md99ca573bf" y="38.66501"/>
     <use style="fill:#348abd;fill-opacity:0.3;stroke:#348abd;stroke-opacity:0.3;" x="608.674729" xlink:href="#md99ca573bf" y="59.971851"/>
     <use style="fill:#348abd;fill-opacity:0.3;stroke:#348abd;stroke-opacity:0.3;" x="613.328607" xlink:href="#md99ca573bf" y="57.424461"/>
     <use style="fill:#348abd;fill-opacity:0.3;stroke:#348abd;stroke-opacity:0.3;" x="617.982485" xlink:href="#md99ca573bf" y="58.789853"/>
     <use style="fill:#348abd;fill-opacity:0.3;stroke:#348abd;stroke-opacity:0.3;" x="622.636364" xlink:href="#md99ca573bf" y="62.562692"/>
    </g>
   </g>
   <g id="line2d_33">
    <path clip-path="url(#p7701d56cce)" d="M 120.017515 94.175133 
L 124.671393 79.029687 
L 129.325271 68.884356 
L 133.979149 57.187493 
L 138.633028 48.32455 
L 143.286906 44.115696 
L 147.940784 47.133374 
L 152.594662 54.004592 
L 157.24854 66.266421 
L 161.902419 72.306169 
L 166.556297 79.782799 
L 171.210175 85.549901 
L 175.864053 91.302485 
L 180.517932 95.745558 
L 185.17181 99.202991 
L 189.825688 102.441921 
L 194.479566 107.555324 
L 199.133445 111.964981 
L 203.787323 115.589697 
L 208.441201 115.121256 
L 213.095079 112.462002 
L 217.428851 -1 
M 252.379973 -1 
L 254.979983 15.755168 
L 259.633862 33.742803 
L 264.28774 40.930014 
L 268.941618 45.758117 
L 273.595496 49.143513 
L 278.249374 53.882901 
L 282.903253 59.633558 
L 287.557131 65.798141 
L 292.211009 72.479802 
L 296.864887 78.95203 
L 301.518766 85.498573 
L 306.172644 92.002763 
L 310.826522 97.532685 
L 315.4804 102.86813 
L 320.134279 107.155427 
L 324.788157 110.62399 
L 329.442035 113.384245 
L 334.095913 115.229334 
L 338.749791 115.806114 
L 343.40367 114.779569 
L 348.057548 111.127 
L 352.711426 107.110759 
L 357.365304 101.688911 
L 362.019183 96.030994 
L 366.673061 91.712659 
L 371.326939 88.66894 
L 375.980817 87.073968 
L 380.634696 87.192846 
L 385.288574 87.767889 
L 389.942452 89.526736 
L 394.59633 90.670832 
L 399.250209 90.811781 
L 403.904087 90.325835 
L 408.557965 88.618597 
L 413.211843 86.890324 
L 417.865721 85.641993 
L 422.5196 85.481266 
L 427.173478 86.592546 
L 431.827356 88.669972 
L 436.481234 91.34157 
L 441.135113 94.135039 
L 445.788991 96.495352 
L 450.442869 98.779697 
L 455.096747 101.090044 
L 459.750626 103.303706 
L 464.404504 105.172995 
L 469.058382 106.686634 
L 473.71226 107.17828 
L 478.366138 106.546427 
L 483.020017 105.27723 
L 487.673895 103.513233 
L 492.327773 101.852779 
L 496.981651 100.68386 
L 501.63553 100.549446 
L 506.289408 101.316084 
L 510.943286 102.458604 
L 515.597164 103.744447 
L 520.251043 104.638372 
L 524.904921 104.653776 
L 529.558799 103.310362 
L 534.212677 100.637187 
L 538.866555 97.891666 
L 543.520434 95.224489 
L 548.174312 93.70391 
L 552.82819 93.32385 
L 557.482068 93.589145 
L 562.135947 94.441232 
L 566.789825 95.477667 
L 571.443703 96.596089 
L 576.097581 97.449366 
L 580.75146 96.351138 
L 585.405338 91.815571 
L 590.059216 83.174573 
L 594.713094 73.0877 
L 599.366972 63.605607 
L 604.020851 57.192667 
L 608.674729 55.213229 
L 613.328607 55.797072 
L 617.982485 57.790957 
L 622.636364 59.972797 
" style="fill:none;stroke:#348abd;stroke-linecap:square;stroke-opacity:0.7;stroke-width:3;"/>
   </g>
   <g id="line2d_34">
    <path clip-path="url(#p7701d56cce)" d="M 154.88476 -1 
L 157.24854 26.018816 
L 161.902419 50.155383 
L 166.556297 82.319072 
L 171.210175 113.048962 
L 175.864053 119.403614 
L 180.517932 128.031704 
L 185.17181 134.513951 
L 189.825688 146.451761 
L 194.479566 168.36322 
L 199.133445 180.468116 
L 200.526417 181 
M 204.490891 181 
L 208.441201 174.009034 
L 213.095079 155.907782 
L 214.353614 -1 
M 286.081881 -1 
L 287.557131 10.562324 
L 292.211009 51.003828 
L 296.864887 80.941323 
L 301.518766 104.062315 
L 306.172644 126.027236 
L 310.826522 139.91368 
L 315.4804 152.285783 
L 320.134279 163.358381 
L 324.788157 168.0253 
L 329.442035 173.497111 
L 334.095913 175.78001 
L 338.749791 171.484921 
L 343.40367 165.664713 
L 348.057548 152.02284 
L 352.711426 134.685543 
L 357.365304 120.927614 
L 362.019183 98.826922 
L 366.673061 86.363734 
L 371.326939 77.011748 
L 375.980817 72.028526 
L 380.634696 87.641416 
L 385.288574 95.886009 
L 389.942452 102.597287 
L 394.59633 107.197818 
L 399.250209 98.850976 
L 403.904087 89.453956 
L 408.557965 80.391893 
L 413.211843 69.333021 
L 417.865721 71.136351 
L 422.5196 80.572794 
L 427.173478 90.748083 
L 431.827356 101.844325 
L 436.481234 111.739722 
L 441.135113 118.155881 
L 445.788991 125.59547 
L 450.442869 134.343582 
L 455.096747 140.685042 
L 459.750626 147.512638 
L 464.404504 152.117918 
L 469.058382 153.337744 
L 473.71226 151.933697 
L 478.366138 146.985082 
L 483.020017 140.4203 
L 487.673895 134.027423 
L 492.327773 129.862689 
L 496.981651 128.547684 
L 501.63553 131.897896 
L 506.289408 138.161302 
L 510.943286 142.861814 
L 515.597164 147.774548 
L 520.251043 148.318579 
L 524.904921 142.671527 
L 529.558799 134.890267 
L 534.212677 121.594793 
L 538.866555 108.808551 
L 543.520434 103.797639 
L 548.174312 104.960877 
L 552.82819 110.271864 
L 557.482068 113.584943 
L 562.135947 116.120263 
L 566.789825 117.524484 
L 571.443703 121.298881 
L 576.097581 125.677942 
L 580.75146 117.052371 
L 585.405338 88.600785 
L 590.059216 30.781421 
" style="fill:none;stroke:#8eba42;stroke-linecap:square;stroke-width:4.5;"/>
   </g>
   <g id="line2d_35">
    <path clip-path="url(#p7701d56cce)" d="M 115.363636 88.196045 
L 622.636364 88.196045 
" style="fill:none;stroke:#777777;stroke-linecap:square;stroke-width:1.5;"/>
   </g>
   <g id="patch_3">
    <path d="M 90 157.5 
L 90 21.6 
" style="fill:none;stroke:#ffffff;stroke-linecap:square;stroke-linejoin:miter;"/>
   </g>
   <g id="patch_4">
    <path d="M 648 157.5 
L 648 21.6 
" style="fill:none;stroke:#ffffff;stroke-linecap:square;stroke-linejoin:miter;"/>
   </g>
   <g id="patch_5">
    <path d="M 90 157.5 
L 648 157.5 
" style="fill:none;stroke:#ffffff;stroke-linecap:square;stroke-linejoin:miter;"/>
   </g>
   <g id="patch_6">
    <path d="M 90 21.6 
L 648 21.6 
" style="fill:none;stroke:#ffffff;stroke-linecap:square;stroke-linejoin:miter;"/>
   </g>
   <g id="legend_1">
    <g id="patch_7">
     <path d="M 344 70.840625 
L 641 70.840625 
Q 643 70.840625 643 68.840625 
L 643 28.6 
Q 643 26.6 641 26.6 
L 344 26.6 
Q 342 26.6 342 28.6 
L 342 68.840625 
Q 342 70.840625 344 70.840625 
z
" style="fill:#e5e5e5;opacity:0.8;stroke:#cccccc;stroke-linejoin:miter;stroke-width:0.5;"/>
    </g>
    <g id="line2d_36"/>
    <g id="line2d_37">
     <g>
      <use style="fill:#348abd;fill-opacity:0.3;stroke:#348abd;stroke-opacity:0.3;" x="356" xlink:href="#md99ca573bf" y="34.1"/>
     </g>
    </g>
    <g id="text_20">
     <!-- Korea, South cases daily growth factor  -->
     <defs>
      <path d="M 4.203125 62.296875 
L 4.203125 0 
L 11.59375 0 
L 11.59375 25.796875 
L 16.5 31.09375 
L 38.203125 -0.5 
C 38.203125 -0.5 42.09375 -0.09375 47.09375 -0.09375 
L 21.90625 35.296875 
L 45.40625 62.296875 
L 42.796875 62.296875 
C 41.09375 62.296875 39.40625 62.296875 37.703125 62.796875 
L 11.59375 33.5 
L 11.59375 59.796875 
C 11.59375 60.203125 11.59375 60.5 12 60.90625 
C 12.203125 61.203125 12.703125 61.703125 12.5 62.296875 
z
" id="Inconsolata-75"/>
      <path d="M 30.5 1.90625 
C 30.5 7 27.09375 10.203125 23.59375 10.203125 
C 20.296875 10.203125 17.796875 7.5 17.796875 4.5 
C 17.796875 1.796875 19.703125 0.703125 20.59375 0.09375 
C 21.5 -0.5 22.90625 -1.40625 22.90625 -3.5 
C 22.90625 -5.09375 22 -6.796875 21.5 -7.59375 
C 20.5 -9.203125 18.796875 -11.703125 16.40625 -13.90625 
L 19.90625 -16.90625 
C 26.90625 -9.796875 30.5 -3.296875 30.5 1.90625 
z
" id="Inconsolata-44"/>
      <path d="M 43.40625 54.796875 
C 39.203125 59.90625 33 62.59375 26.203125 62.59375 
C 14.90625 62.59375 7.203125 55.203125 7.203125 46.59375 
C 7.203125 43 8.59375 38.296875 13.796875 34.5 
C 19.59375 30.203125 28.59375 28.09375 33.296875 25.09375 
C 37.40625 22.59375 38.5 19.296875 38.5 16.5 
C 38.5 11.09375 33.90625 5.203125 24.90625 5.203125 
C 18.09375 5.203125 12.796875 8.59375 10 12.09375 
C 9.703125 12.5 9.703125 12.703125 9.703125 13.09375 
C 9.703125 13.296875 9.703125 13.90625 9.296875 14.09375 
L 5.09375 6.90625 
C 10 1.59375 17 -1.09375 24.703125 -1.09375 
C 39.90625 -1.09375 45.5 9.09375 45.5 16.90625 
C 45.5 20.203125 44.5 24.5 40.59375 28.203125 
C 35.203125 33.296875 26.40625 35.09375 20.703125 38.40625 
C 15.5 41.5 14.40625 45.203125 14.40625 47.703125 
C 14.40625 52.5 18.5 56.796875 25.59375 56.796875 
C 31.40625 56.796875 35.90625 54.203125 38.296875 50.703125 
C 38.59375 50.296875 38.5 50.09375 38.5 49.703125 
C 38.5 49.09375 38.796875 48.90625 39 48.90625 
z
" id="Inconsolata-83"/>
      <path d="M 6.203125 45.59375 
L 6.203125 20.09375 
C 6.203125 16.203125 6.203125 12.203125 8 8.09375 
C 10.59375 2.09375 16.203125 -1.203125 22.203125 -1.203125 
C 27.90625 -1.203125 33.296875 1.90625 36.296875 6.90625 
L 36.203125 3.5 
C 36.203125 2.296875 36.203125 1.09375 36.40625 0 
L 44 0 
C 43.5 1.296875 43.40625 2.796875 43.40625 4.09375 
L 43.40625 45.59375 
L 36.203125 45.59375 
L 36.203125 20.5 
C 36.203125 17 35.90625 14.296875 34.40625 11.5 
C 32.296875 7.59375 28.203125 4.703125 23.796875 4.703125 
C 20.296875 4.703125 16.90625 6.703125 15.09375 10.296875 
C 13.5 13.5 13.5 17.09375 13.5 20.09375 
L 13.5 45.59375 
z
" id="Inconsolata-117"/>
      <path d="M 10.59375 45.703125 
L 10.59375 39.796875 
L 21.59375 39.796875 
L 21.59375 5.703125 
L 10 5.703125 
L 10 0 
L 39.59375 0 
L 39.59375 5.703125 
L 28.90625 5.703125 
L 28.90625 45.703125 
z
M 25.40625 65.5 
C 22.5 65.5 20.203125 63.203125 20.203125 60.40625 
C 20.203125 57.59375 22.5 55.296875 25.40625 55.296875 
C 28.296875 55.296875 30.59375 57.59375 30.59375 60.40625 
C 30.59375 63.203125 28.296875 65.5 25.40625 65.5 
z
" id="Inconsolata-105"/>
      <path d="M 8.40625 66.40625 
L 8.40625 60.59375 
L 21.40625 60.59375 
L 21.40625 5.703125 
L 7.796875 5.703125 
L 7.796875 0 
L 42.09375 0 
L 42.09375 5.703125 
L 28.59375 5.703125 
L 28.59375 66.40625 
z
" id="Inconsolata-108"/>
      <path d="M 4.5 45.59375 
L 23.09375 0.09375 
L 21.59375 -3.203125 
C 20.796875 -5.09375 19.90625 -7 18.5 -8.5 
C 16.59375 -10.59375 14.203125 -11.5 12.09375 -11.5 
C 8.703125 -11.5 7 -9.203125 6.703125 -8.796875 
C 6.40625 -8.296875 6.5 -7.59375 5.90625 -7.09375 
L 2.203125 -13.59375 
C 4.796875 -16.09375 8.296875 -17.40625 12.09375 -17.40625 
C 16.203125 -17.40625 20.5 -15.90625 23.5 -12.5 
C 25.5 -10.203125 26.5 -7.796875 27.5 -5.203125 
L 41.703125 32.5 
C 43.40625 36.796875 44.90625 41.203125 46.296875 45.703125 
L 38.796875 45.703125 
C 38 41.5 36.703125 37.5 35.296875 33.5 
L 26.59375 9 
L 13.203125 42.703125 
C 13.09375 43 13.09375 43.203125 13.09375 43.5 
C 13.09375 44.203125 13.59375 44.703125 13.5 45.59375 
z
" id="Inconsolata-121"/>
     </defs>
     <g transform="translate(374 37.6)scale(0.1 -0.1)">
      <use xlink:href="#Inconsolata-75"/>
      <use x="49.999985" xlink:href="#Inconsolata-111"/>
      <use x="99.999969" xlink:href="#Inconsolata-114"/>
      <use x="149.999954" xlink:href="#Inconsolata-101"/>
      <use x="199.999939" xlink:href="#Inconsolata-97"/>
      <use x="249.999924" xlink:href="#Inconsolata-44"/>
      <use x="299.999908" xlink:href="#Inconsolata-32"/>
      <use x="349.999893" xlink:href="#Inconsolata-83"/>
      <use x="399.999878" xlink:href="#Inconsolata-111"/>
      <use x="449.999863" xlink:href="#Inconsolata-117"/>
      <use x="499.999847" xlink:href="#Inconsolata-116"/>
      <use x="549.999832" xlink:href="#Inconsolata-104"/>
      <use x="599.999817" xlink:href="#Inconsolata-32"/>
      <use x="649.999802" xlink:href="#Inconsolata-99"/>
      <use x="699.999786" xlink:href="#Inconsolata-97"/>
      <use x="749.999771" xlink:href="#Inconsolata-115"/>
      <use x="799.999756" xlink:href="#Inconsolata-101"/>
      <use x="849.999741" xlink:href="#Inconsolata-115"/>
      <use x="899.999725" xlink:href="#Inconsolata-32"/>
      <use x="949.99971" xlink:href="#Inconsolata-100"/>
      <use x="999.999695" xlink:href="#Inconsolata-97"/>
      <use x="1049.99968" xlink:href="#Inconsolata-105"/>
      <use x="1099.999664" xlink:href="#Inconsolata-108"/>
      <use x="1149.999649" xlink:href="#Inconsolata-121"/>
      <use x="1199.999634" xlink:href="#Inconsolata-32"/>
      <use x="1249.999619" xlink:href="#Inconsolata-103"/>
      <use x="1299.999603" xlink:href="#Inconsolata-114"/>
      <use x="1349.999588" xlink:href="#Inconsolata-111"/>
      <use x="1399.999573" xlink:href="#Inconsolata-119"/>
      <use x="1449.999557" xlink:href="#Inconsolata-116"/>
      <use x="1499.999542" xlink:href="#Inconsolata-104"/>
      <use x="1549.999527" xlink:href="#Inconsolata-32"/>
      <use x="1599.999512" xlink:href="#Inconsolata-102"/>
      <use x="1649.999496" xlink:href="#Inconsolata-97"/>
      <use x="1699.999481" xlink:href="#Inconsolata-99"/>
      <use x="1749.999466" xlink:href="#Inconsolata-116"/>
      <use x="1799.999451" xlink:href="#Inconsolata-111"/>
      <use x="1849.999435" xlink:href="#Inconsolata-114"/>
      <use x="1899.99942" xlink:href="#Inconsolata-32"/>
     </g>
    </g>
    <g id="line2d_38">
     <path d="M 346 47.840625 
L 366 47.840625 
" style="fill:none;stroke:#348abd;stroke-linecap:square;stroke-opacity:0.7;stroke-width:3;"/>
    </g>
    <g id="line2d_39"/>
    <g id="text_21">
     <!-- Korea, South cases daily growth factor (rolling mean) -->
     <defs>
      <path d="M 3.703125 0 
L 10.296875 0 
L 10.296875 30.40625 
C 10.296875 32.59375 10.5 34.59375 11.796875 37 
C 13.40625 40 15.40625 41.203125 17.296875 41.203125 
C 18.90625 41.203125 20.703125 40.203125 21.5 37.703125 
C 22.09375 35.796875 22 33.59375 22 31.703125 
L 22 0 
L 28.703125 0 
L 28.703125 30.203125 
C 28.703125 32.59375 28.90625 34.5 30.59375 37.40625 
C 31.40625 38.59375 33.09375 41.5 35.90625 41.5 
C 37.40625 41.5 38.796875 40.59375 39.5 38.90625 
C 40.40625 37 40.203125 34.40625 40.203125 32.296875 
L 40.203125 -0.09375 
L 47 -0.09375 
L 47 32.40625 
C 47 36.203125 47.09375 40 45.09375 43.09375 
C 43.40625 45.703125 40.5 46.703125 38 46.703125 
C 33.59375 46.703125 29.5 44.09375 27.703125 40.09375 
C 27 43.90625 23.796875 46.703125 19.703125 46.703125 
C 15.90625 46.703125 12.40625 44.296875 10.296875 41.09375 
L 10.40625 45.59375 
L 3.703125 45.59375 
z
" id="Inconsolata-109"/>
     </defs>
     <g transform="translate(374 51.340625)scale(0.1 -0.1)">
      <use xlink:href="#Inconsolata-75"/>
      <use x="49.999985" xlink:href="#Inconsolata-111"/>
      <use x="99.999969" xlink:href="#Inconsolata-114"/>
      <use x="149.999954" xlink:href="#Inconsolata-101"/>
      <use x="199.999939" xlink:href="#Inconsolata-97"/>
      <use x="249.999924" xlink:href="#Inconsolata-44"/>
      <use x="299.999908" xlink:href="#Inconsolata-32"/>
      <use x="349.999893" xlink:href="#Inconsolata-83"/>
      <use x="399.999878" xlink:href="#Inconsolata-111"/>
      <use x="449.999863" xlink:href="#Inconsolata-117"/>
      <use x="499.999847" xlink:href="#Inconsolata-116"/>
      <use x="549.999832" xlink:href="#Inconsolata-104"/>
      <use x="599.999817" xlink:href="#Inconsolata-32"/>
      <use x="649.999802" xlink:href="#Inconsolata-99"/>
      <use x="699.999786" xlink:href="#Inconsolata-97"/>
      <use x="749.999771" xlink:href="#Inconsolata-115"/>
      <use x="799.999756" xlink:href="#Inconsolata-101"/>
      <use x="849.999741" xlink:href="#Inconsolata-115"/>
      <use x="899.999725" xlink:href="#Inconsolata-32"/>
      <use x="949.99971" xlink:href="#Inconsolata-100"/>
      <use x="999.999695" xlink:href="#Inconsolata-97"/>
      <use x="1049.99968" xlink:href="#Inconsolata-105"/>
      <use x="1099.999664" xlink:href="#Inconsolata-108"/>
      <use x="1149.999649" xlink:href="#Inconsolata-121"/>
      <use x="1199.999634" xlink:href="#Inconsolata-32"/>
      <use x="1249.999619" xlink:href="#Inconsolata-103"/>
      <use x="1299.999603" xlink:href="#Inconsolata-114"/>
      <use x="1349.999588" xlink:href="#Inconsolata-111"/>
      <use x="1399.999573" xlink:href="#Inconsolata-119"/>
      <use x="1449.999557" xlink:href="#Inconsolata-116"/>
      <use x="1499.999542" xlink:href="#Inconsolata-104"/>
      <use x="1549.999527" xlink:href="#Inconsolata-32"/>
      <use x="1599.999512" xlink:href="#Inconsolata-102"/>
      <use x="1649.999496" xlink:href="#Inconsolata-97"/>
      <use x="1699.999481" xlink:href="#Inconsolata-99"/>
      <use x="1749.999466" xlink:href="#Inconsolata-116"/>
      <use x="1799.999451" xlink:href="#Inconsolata-111"/>
      <use x="1849.999435" xlink:href="#Inconsolata-114"/>
      <use x="1899.99942" xlink:href="#Inconsolata-32"/>
      <use x="1949.999405" xlink:href="#Inconsolata-40"/>
      <use x="1999.99939" xlink:href="#Inconsolata-114"/>
      <use x="2049.999374" xlink:href="#Inconsolata-111"/>
      <use x="2099.999359" xlink:href="#Inconsolata-108"/>
      <use x="2149.999344" xlink:href="#Inconsolata-108"/>
      <use x="2199.999329" xlink:href="#Inconsolata-105"/>
      <use x="2249.999313" xlink:href="#Inconsolata-110"/>
      <use x="2299.999298" xlink:href="#Inconsolata-103"/>
      <use x="2349.999283" xlink:href="#Inconsolata-32"/>
      <use x="2399.999268" xlink:href="#Inconsolata-109"/>
      <use x="2449.999252" xlink:href="#Inconsolata-101"/>
      <use x="2499.999237" xlink:href="#Inconsolata-97"/>
      <use x="2549.999222" xlink:href="#Inconsolata-110"/>
      <use x="2599.999207" xlink:href="#Inconsolata-41"/>
     </g>
    </g>
    <g id="line2d_40">
     <path d="M 346 61.590625 
L 366 61.590625 
" style="fill:none;stroke:#8eba42;stroke-linecap:square;stroke-width:4.5;"/>
    </g>
    <g id="line2d_41"/>
    <g id="text_22">
     <!-- Korea, South estimated R (using cases) -->
     <g transform="translate(374 65.090625)scale(0.1 -0.1)">
      <use xlink:href="#Inconsolata-75"/>
      <use x="49.999985" xlink:href="#Inconsolata-111"/>
      <use x="99.999969" xlink:href="#Inconsolata-114"/>
      <use x="149.999954" xlink:href="#Inconsolata-101"/>
      <use x="199.999939" xlink:href="#Inconsolata-97"/>
      <use x="249.999924" xlink:href="#Inconsolata-44"/>
      <use x="299.999908" xlink:href="#Inconsolata-32"/>
      <use x="349.999893" xlink:href="#Inconsolata-83"/>
      <use x="399.999878" xlink:href="#Inconsolata-111"/>
      <use x="449.999863" xlink:href="#Inconsolata-117"/>
      <use x="499.999847" xlink:href="#Inconsolata-116"/>
      <use x="549.999832" xlink:href="#Inconsolata-104"/>
      <use x="599.999817" xlink:href="#Inconsolata-32"/>
      <use x="649.999802" xlink:href="#Inconsolata-101"/>
      <use x="699.999786" xlink:href="#Inconsolata-115"/>
      <use x="749.999771" xlink:href="#Inconsolata-116"/>
      <use x="799.999756" xlink:href="#Inconsolata-105"/>
      <use x="849.999741" xlink:href="#Inconsolata-109"/>
      <use x="899.999725" xlink:href="#Inconsolata-97"/>
      <use x="949.99971" xlink:href="#Inconsolata-116"/>
      <use x="999.999695" xlink:href="#Inconsolata-101"/>
      <use x="1049.99968" xlink:href="#Inconsolata-100"/>
      <use x="1099.999664" xlink:href="#Inconsolata-32"/>
      <use x="1149.999649" xlink:href="#Inconsolata-82"/>
      <use x="1199.999634" xlink:href="#Inconsolata-32"/>
      <use x="1249.999619" xlink:href="#Inconsolata-40"/>
      <use x="1299.999603" xlink:href="#Inconsolata-117"/>
      <use x="1349.999588" xlink:href="#Inconsolata-115"/>
      <use x="1399.999573" xlink:href="#Inconsolata-105"/>
      <use x="1449.999557" xlink:href="#Inconsolata-110"/>
      <use x="1499.999542" xlink:href="#Inconsolata-103"/>
      <use x="1549.999527" xlink:href="#Inconsolata-32"/>
      <use x="1599.999512" xlink:href="#Inconsolata-99"/>
      <use x="1649.999496" xlink:href="#Inconsolata-97"/>
      <use x="1699.999481" xlink:href="#Inconsolata-115"/>
      <use x="1749.999466" xlink:href="#Inconsolata-101"/>
      <use x="1799.999451" xlink:href="#Inconsolata-115"/>
      <use x="1849.999435" xlink:href="#Inconsolata-41"/>
     </g>
    </g>
   </g>
  </g>
 </g>
 <defs>
  <clipPath id="p7701d56cce">
   <rect height="135.9" width="558" x="90" y="21.6"/>
  </clipPath>
 </defs>
</svg>
