<?xml version="1.0" encoding="utf-8" standalone="no"?>
<!DOCTYPE svg PUBLIC "-//W3C//DTD SVG 1.1//EN"
  "http://www.w3.org/Graphics/SVG/1.1/DTD/svg11.dtd">
<!-- Created with matplotlib (https://matplotlib.org/) -->
<svg height="180pt" version="1.1" viewBox="0 0 720 180" width="720pt" xmlns="http://www.w3.org/2000/svg" xmlns:xlink="http://www.w3.org/1999/xlink">
 <defs>
  <style type="text/css">
*{stroke-linecap:butt;stroke-linejoin:round;}
  </style>
 </defs>
 <g id="figure_1">
  <g id="patch_1">
   <path d="M 0 180 
L 720 180 
L 720 0 
L 0 0 
z
" style="fill:#ffffff;"/>
  </g>
  <g id="axes_1">
   <g id="patch_2">
    <path d="M 90 157.5 
L 648 157.5 
L 648 21.6 
L 90 21.6 
z
" style="fill:#e5e5e5;"/>
   </g>
   <g id="matplotlib.axis_1">
    <g id="xtick_1">
     <g id="line2d_1">
      <path clip-path="url(#pb7c9d7b85d)" d="M 171.107892 157.5 
L 171.107892 21.6 
" style="fill:none;stroke:#ffffff;stroke-linecap:square;stroke-width:0.8;"/>
     </g>
     <g id="line2d_2">
      <defs>
       <path d="M 0 0 
L 0 3.5 
" id="m8cea202006" style="stroke:#555555;stroke-width:0.8;"/>
      </defs>
      <g>
       <use style="fill:#555555;stroke:#555555;stroke-width:0.8;" x="171.107892" xlink:href="#m8cea202006" y="157.5"/>
      </g>
     </g>
     <g id="text_1">
      <!-- 2020-02-01 -->
      <defs>
       <path d="M 7.703125 52.59375 
L 12.796875 48.5 
C 13.40625 49.40625 13.09375 50 13.703125 50.796875 
C 15.203125 53.09375 18.90625 56.5 24.296875 56.5 
C 31 56.5 36.296875 51.40625 36.296875 44.703125 
C 36.296875 37.09375 29.90625 31.59375 25.40625 27.5 
C 18.296875 21.09375 12.5 14.703125 7.296875 4.40625 
L 7.296875 0 
L 43.90625 0 
L 43.90625 6.90625 
C 43.203125 7.203125 42.703125 6.703125 42.5 6.5 
C 42.09375 6.09375 41.90625 6.09375 41.5 6.09375 
L 15.296875 6.09375 
C 20.5 15.09375 27.796875 21.296875 32.296875 25.5 
C 36.796875 29.796875 43.203125 36.203125 43.203125 45.203125 
C 43.203125 54.90625 35.296875 62.703125 25.203125 62.703125 
C 18.09375 62.703125 11.40625 58.90625 7.703125 52.59375 
z
" id="Inconsolata-50"/>
       <path d="M 25.09375 62.703125 
C 15.203125 62.703125 5 50.5 5 30.59375 
C 5 10.40625 15.296875 -1.203125 25.203125 -1.203125 
C 34.203125 -1.203125 44.90625 8.59375 44.90625 30.09375 
C 44.90625 51.296875 34.703125 62.703125 25.09375 62.703125 
z
M 34.796875 48.40625 
L 12.90625 20 
C 12 23.5 11.5 27.40625 11.5 31.796875 
C 11.5 47.796875 18.796875 56.59375 25 56.59375 
C 28.40625 56.59375 32.09375 53.90625 34.796875 48.40625 
z
M 37.09375 41.796875 
C 38 38.296875 38.40625 34.09375 38.40625 29.203125 
C 38.40625 11.796875 30.90625 5.203125 25.40625 5.203125 
C 21.703125 5.203125 17.90625 8.203125 15.203125 13.703125 
z
" id="Inconsolata-48"/>
       <path d="M 7 34.703125 
L 7 28.09375 
L 43 28.09375 
L 43 34.703125 
z
" id="Inconsolata-45"/>
       <path d="M 29.90625 62.296875 
L 25.09375 62.296875 
L 8.796875 53.796875 
L 10.40625 49.90625 
L 22.90625 53.59375 
L 22.90625 -0.09375 
L 29.90625 -0.09375 
z
" id="Inconsolata-49"/>
      </defs>
      <g style="fill:#555555;" transform="translate(146.107892 171.140625)scale(0.1 -0.1)">
       <use xlink:href="#Inconsolata-50"/>
       <use x="49.999985" xlink:href="#Inconsolata-48"/>
       <use x="99.999969" xlink:href="#Inconsolata-50"/>
       <use x="149.999954" xlink:href="#Inconsolata-48"/>
       <use x="199.999939" xlink:href="#Inconsolata-45"/>
       <use x="249.999924" xlink:href="#Inconsolata-48"/>
       <use x="299.999908" xlink:href="#Inconsolata-50"/>
       <use x="349.999893" xlink:href="#Inconsolata-45"/>
       <use x="399.999878" xlink:href="#Inconsolata-48"/>
       <use x="449.999863" xlink:href="#Inconsolata-49"/>
      </g>
     </g>
    </g>
    <g id="xtick_2">
     <g id="line2d_3">
      <path clip-path="url(#pb7c9d7b85d)" d="M 249.14985 157.5 
L 249.14985 21.6 
" style="fill:none;stroke:#ffffff;stroke-linecap:square;stroke-width:0.8;"/>
     </g>
     <g id="line2d_4">
      <g>
       <use style="fill:#555555;stroke:#555555;stroke-width:0.8;" x="249.14985" xlink:href="#m8cea202006" y="157.5"/>
      </g>
     </g>
     <g id="text_2">
      <!-- 2020-02-15 -->
      <defs>
       <path d="M 10.59375 62.296875 
L 8.40625 30.59375 
L 12.90625 28.796875 
C 15.90625 32.59375 20.296875 34.703125 24.59375 34.703125 
C 31.09375 34.703125 37.296875 29.703125 37.296875 19.796875 
C 37.296875 10.203125 31.40625 5 24.703125 5 
C 18 5 13.59375 10.09375 13.296875 10.703125 
C 12.90625 11.5 13.40625 12.5 12.5 13.09375 
L 6.296875 8.40625 
C 10.5 2.296875 17.40625 -1.203125 24.796875 -1.203125 
C 35.59375 -1.203125 44.5 6.09375 44.5 19.59375 
C 44.5 33 36.09375 40.40625 25.59375 40.40625 
C 22.203125 40.40625 18.703125 39.59375 15.5 38 
L 16.40625 56 
L 42.203125 56 
L 42.203125 62.296875 
z
" id="Inconsolata-53"/>
      </defs>
      <g style="fill:#555555;" transform="translate(224.14985 171.140625)scale(0.1 -0.1)">
       <use xlink:href="#Inconsolata-50"/>
       <use x="49.999985" xlink:href="#Inconsolata-48"/>
       <use x="99.999969" xlink:href="#Inconsolata-50"/>
       <use x="149.999954" xlink:href="#Inconsolata-48"/>
       <use x="199.999939" xlink:href="#Inconsolata-45"/>
       <use x="249.999924" xlink:href="#Inconsolata-48"/>
       <use x="299.999908" xlink:href="#Inconsolata-50"/>
       <use x="349.999893" xlink:href="#Inconsolata-45"/>
       <use x="399.999878" xlink:href="#Inconsolata-49"/>
       <use x="449.999863" xlink:href="#Inconsolata-53"/>
      </g>
     </g>
    </g>
    <g id="xtick_3">
     <g id="line2d_5">
      <path clip-path="url(#pb7c9d7b85d)" d="M 332.766234 157.5 
L 332.766234 21.6 
" style="fill:none;stroke:#ffffff;stroke-linecap:square;stroke-width:0.8;"/>
     </g>
     <g id="line2d_6">
      <g>
       <use style="fill:#555555;stroke:#555555;stroke-width:0.8;" x="332.766234" xlink:href="#m8cea202006" y="157.5"/>
      </g>
     </g>
     <g id="text_3">
      <!-- 2020-03-01 -->
      <defs>
       <path d="M 41 46.703125 
C 41 55.203125 33.796875 62.5 23.90625 62.5 
C 18.296875 62.5 12.796875 60.09375 8.90625 55.796875 
L 12.796875 51.5 
C 15.703125 54.59375 19.703125 56.296875 23.59375 56.296875 
C 30 56.296875 34.40625 51.796875 34.40625 46.5 
C 34.40625 42.796875 32.09375 38.59375 27.703125 36.703125 
C 26.59375 36.296875 23.796875 35.203125 17.90625 35.203125 
L 17.90625 29.59375 
C 18.90625 29.703125 20 29.796875 21.09375 29.796875 
C 29.5 29.796875 35.703125 25.40625 35.703125 17.90625 
C 35.703125 11.09375 30.5 5.203125 23.203125 5.203125 
C 17.40625 5.203125 13.90625 9 13.40625 9.5 
C 12.59375 10.40625 13 11.40625 12.09375 12.296875 
L 6.90625 6 
C 11 1.296875 17 -1.09375 23.203125 -1.09375 
C 35.203125 -1.09375 42.40625 7.40625 42.40625 17.09375 
C 42.40625 24.5 38.203125 30.796875 31.703125 33.203125 
C 37.296875 35.296875 41 40.59375 41 46.703125 
z
" id="Inconsolata-51"/>
      </defs>
      <g style="fill:#555555;" transform="translate(307.766234 171.140625)scale(0.1 -0.1)">
       <use xlink:href="#Inconsolata-50"/>
       <use x="49.999985" xlink:href="#Inconsolata-48"/>
       <use x="99.999969" xlink:href="#Inconsolata-50"/>
       <use x="149.999954" xlink:href="#Inconsolata-48"/>
       <use x="199.999939" xlink:href="#Inconsolata-45"/>
       <use x="249.999924" xlink:href="#Inconsolata-48"/>
       <use x="299.999908" xlink:href="#Inconsolata-51"/>
       <use x="349.999893" xlink:href="#Inconsolata-45"/>
       <use x="399.999878" xlink:href="#Inconsolata-48"/>
       <use x="449.999863" xlink:href="#Inconsolata-49"/>
      </g>
     </g>
    </g>
    <g id="xtick_4">
     <g id="line2d_7">
      <path clip-path="url(#pb7c9d7b85d)" d="M 410.808192 157.5 
L 410.808192 21.6 
" style="fill:none;stroke:#ffffff;stroke-linecap:square;stroke-width:0.8;"/>
     </g>
     <g id="line2d_8">
      <g>
       <use style="fill:#555555;stroke:#555555;stroke-width:0.8;" x="410.808192" xlink:href="#m8cea202006" y="157.5"/>
      </g>
     </g>
     <g id="text_4">
      <!-- 2020-03-15 -->
      <g style="fill:#555555;" transform="translate(385.808192 171.140625)scale(0.1 -0.1)">
       <use xlink:href="#Inconsolata-50"/>
       <use x="49.999985" xlink:href="#Inconsolata-48"/>
       <use x="99.999969" xlink:href="#Inconsolata-50"/>
       <use x="149.999954" xlink:href="#Inconsolata-48"/>
       <use x="199.999939" xlink:href="#Inconsolata-45"/>
       <use x="249.999924" xlink:href="#Inconsolata-48"/>
       <use x="299.999908" xlink:href="#Inconsolata-51"/>
       <use x="349.999893" xlink:href="#Inconsolata-45"/>
       <use x="399.999878" xlink:href="#Inconsolata-49"/>
       <use x="449.999863" xlink:href="#Inconsolata-53"/>
      </g>
     </g>
    </g>
    <g id="xtick_5">
     <g id="line2d_9">
      <path clip-path="url(#pb7c9d7b85d)" d="M 505.573427 157.5 
L 505.573427 21.6 
" style="fill:none;stroke:#ffffff;stroke-linecap:square;stroke-width:0.8;"/>
     </g>
     <g id="line2d_10">
      <g>
       <use style="fill:#555555;stroke:#555555;stroke-width:0.8;" x="505.573427" xlink:href="#m8cea202006" y="157.5"/>
      </g>
     </g>
     <g id="text_5">
      <!-- 2020-04-01 -->
      <defs>
       <path d="M 31.296875 62.296875 
L 4.796875 22.40625 
L 4.796875 17.203125 
L 29.90625 17.203125 
L 29.90625 0 
L 37.09375 0 
L 37.09375 17.09375 
L 45.203125 17.09375 
L 45.203125 23.296875 
L 37.09375 23.296875 
L 37.09375 62.296875 
z
M 30 51.203125 
L 30 23.296875 
L 11.703125 23.296875 
z
" id="Inconsolata-52"/>
      </defs>
      <g style="fill:#555555;" transform="translate(480.573427 171.140625)scale(0.1 -0.1)">
       <use xlink:href="#Inconsolata-50"/>
       <use x="49.999985" xlink:href="#Inconsolata-48"/>
       <use x="99.999969" xlink:href="#Inconsolata-50"/>
       <use x="149.999954" xlink:href="#Inconsolata-48"/>
       <use x="199.999939" xlink:href="#Inconsolata-45"/>
       <use x="249.999924" xlink:href="#Inconsolata-48"/>
       <use x="299.999908" xlink:href="#Inconsolata-52"/>
       <use x="349.999893" xlink:href="#Inconsolata-45"/>
       <use x="399.999878" xlink:href="#Inconsolata-48"/>
       <use x="449.999863" xlink:href="#Inconsolata-49"/>
      </g>
     </g>
    </g>
    <g id="xtick_6">
     <g id="line2d_11">
      <path clip-path="url(#pb7c9d7b85d)" d="M 583.615385 157.5 
L 583.615385 21.6 
" style="fill:none;stroke:#ffffff;stroke-linecap:square;stroke-width:0.8;"/>
     </g>
     <g id="line2d_12">
      <g>
       <use style="fill:#555555;stroke:#555555;stroke-width:0.8;" x="583.615385" xlink:href="#m8cea202006" y="157.5"/>
      </g>
     </g>
     <g id="text_6">
      <!-- 2020-04-15 -->
      <g style="fill:#555555;" transform="translate(558.615385 171.140625)scale(0.1 -0.1)">
       <use xlink:href="#Inconsolata-50"/>
       <use x="49.999985" xlink:href="#Inconsolata-48"/>
       <use x="99.999969" xlink:href="#Inconsolata-50"/>
       <use x="149.999954" xlink:href="#Inconsolata-48"/>
       <use x="199.999939" xlink:href="#Inconsolata-45"/>
       <use x="249.999924" xlink:href="#Inconsolata-48"/>
       <use x="299.999908" xlink:href="#Inconsolata-52"/>
       <use x="349.999893" xlink:href="#Inconsolata-45"/>
       <use x="399.999878" xlink:href="#Inconsolata-49"/>
       <use x="449.999863" xlink:href="#Inconsolata-53"/>
      </g>
     </g>
    </g>
   </g>
   <g id="matplotlib.axis_2">
    <g id="ytick_1">
     <g id="line2d_13">
      <path clip-path="url(#pb7c9d7b85d)" d="M 90 157.5 
L 648 157.5 
" style="fill:none;stroke:#ffffff;stroke-linecap:square;stroke-width:0.8;"/>
     </g>
     <g id="line2d_14">
      <defs>
       <path d="M 0 0 
L -3.5 0 
" id="m09664f0819" style="stroke:#555555;stroke-width:0.8;"/>
      </defs>
      <g>
       <use style="fill:#555555;stroke:#555555;stroke-width:0.8;" x="90" xlink:href="#m09664f0819" y="157.5"/>
      </g>
     </g>
     <g id="line2d_15">
      <defs>
       <path d="M 0 0 
L 3.5 0 
" id="mfb04af4092" style="stroke:#555555;stroke-width:0.8;"/>
      </defs>
      <g>
       <use style="fill:#555555;stroke:#555555;stroke-width:0.8;" x="648" xlink:href="#mfb04af4092" y="157.5"/>
      </g>
     </g>
     <g id="text_7">
      <!-- 0 -->
      <g style="fill:#555555;" transform="translate(78 160.820312)scale(0.1 -0.1)">
       <use xlink:href="#Inconsolata-48"/>
      </g>
     </g>
     <g id="text_8">
      <!-- 0 -->
      <g style="fill:#555555;" transform="translate(655 160.820312)scale(0.1 -0.1)">
       <use xlink:href="#Inconsolata-48"/>
      </g>
     </g>
    </g>
    <g id="ytick_2">
     <g id="line2d_16">
      <path clip-path="url(#pb7c9d7b85d)" d="M 90 122.166 
L 648 122.166 
" style="fill:none;stroke:#ffffff;stroke-linecap:square;stroke-width:0.8;"/>
     </g>
     <g id="line2d_17">
      <g>
       <use style="fill:#555555;stroke:#555555;stroke-width:0.8;" x="90" xlink:href="#m09664f0819" y="122.166"/>
      </g>
     </g>
     <g id="line2d_18">
      <g>
       <use style="fill:#555555;stroke:#555555;stroke-width:0.8;" x="648" xlink:href="#mfb04af4092" y="122.166"/>
      </g>
     </g>
     <g id="text_9">
      <!-- 200 -->
      <g style="fill:#555555;" transform="translate(68 125.486312)scale(0.1 -0.1)">
       <use xlink:href="#Inconsolata-50"/>
       <use x="49.999985" xlink:href="#Inconsolata-48"/>
       <use x="99.999969" xlink:href="#Inconsolata-48"/>
      </g>
     </g>
     <g id="text_10">
      <!-- 200 -->
      <g style="fill:#555555;" transform="translate(655 125.486312)scale(0.1 -0.1)">
       <use xlink:href="#Inconsolata-50"/>
       <use x="49.999985" xlink:href="#Inconsolata-48"/>
       <use x="99.999969" xlink:href="#Inconsolata-48"/>
      </g>
     </g>
    </g>
    <g id="ytick_3">
     <g id="line2d_19">
      <path clip-path="url(#pb7c9d7b85d)" d="M 90 86.832 
L 648 86.832 
" style="fill:none;stroke:#ffffff;stroke-linecap:square;stroke-width:0.8;"/>
     </g>
     <g id="line2d_20">
      <g>
       <use style="fill:#555555;stroke:#555555;stroke-width:0.8;" x="90" xlink:href="#m09664f0819" y="86.832"/>
      </g>
     </g>
     <g id="line2d_21">
      <g>
       <use style="fill:#555555;stroke:#555555;stroke-width:0.8;" x="648" xlink:href="#mfb04af4092" y="86.832"/>
      </g>
     </g>
     <g id="text_11">
      <!-- 400 -->
      <g style="fill:#555555;" transform="translate(68 90.152312)scale(0.1 -0.1)">
       <use xlink:href="#Inconsolata-52"/>
       <use x="49.999985" xlink:href="#Inconsolata-48"/>
       <use x="99.999969" xlink:href="#Inconsolata-48"/>
      </g>
     </g>
     <g id="text_12">
      <!-- 400 -->
      <g style="fill:#555555;" transform="translate(655 90.152312)scale(0.1 -0.1)">
       <use xlink:href="#Inconsolata-52"/>
       <use x="49.999985" xlink:href="#Inconsolata-48"/>
       <use x="99.999969" xlink:href="#Inconsolata-48"/>
      </g>
     </g>
    </g>
    <g id="ytick_4">
     <g id="line2d_22">
      <path clip-path="url(#pb7c9d7b85d)" d="M 90 51.498 
L 648 51.498 
" style="fill:none;stroke:#ffffff;stroke-linecap:square;stroke-width:0.8;"/>
     </g>
     <g id="line2d_23">
      <g>
       <use style="fill:#555555;stroke:#555555;stroke-width:0.8;" x="90" xlink:href="#m09664f0819" y="51.498"/>
      </g>
     </g>
     <g id="line2d_24">
      <g>
       <use style="fill:#555555;stroke:#555555;stroke-width:0.8;" x="648" xlink:href="#mfb04af4092" y="51.498"/>
      </g>
     </g>
     <g id="text_13">
      <!-- 600 -->
      <defs>
       <path d="M 28.703125 63 
C 21.203125 63 13.203125 58.40625 9.296875 47.5 
C 7.203125 41.59375 6.703125 34.296875 6.703125 28.296875 
C 6.703125 21 7.40625 13.203125 11.40625 7.203125 
C 15 1.703125 20.59375 -1.09375 26.09375 -1.09375 
C 35.59375 -1.09375 43.90625 6.90625 43.90625 19.796875 
C 43.90625 32.703125 35.59375 40.203125 26.796875 40.203125 
C 21.40625 40.203125 16.296875 37.296875 13.59375 32.703125 
C 14 54 24.203125 56.796875 28.703125 56.796875 
C 32.796875 56.796875 35.59375 54.59375 36 54.203125 
C 36.59375 53.5 36.59375 52.59375 37.5 51.90625 
L 42.296875 57.296875 
C 38.703125 60.90625 33.703125 63 28.703125 63 
z
M 26.09375 34 
C 31.09375 34 37.09375 30.09375 37.09375 19.40625 
C 37.09375 9.703125 31.703125 5.09375 26.40625 5.09375 
C 18.796875 5.09375 13.09375 14 13.90625 25.703125 
C 16.703125 30.796875 21.5 34 26.09375 34 
z
" id="Inconsolata-54"/>
      </defs>
      <g style="fill:#555555;" transform="translate(68 54.818312)scale(0.1 -0.1)">
       <use xlink:href="#Inconsolata-54"/>
       <use x="49.999985" xlink:href="#Inconsolata-48"/>
       <use x="99.999969" xlink:href="#Inconsolata-48"/>
      </g>
     </g>
     <g id="text_14">
      <!-- 600 -->
      <g style="fill:#555555;" transform="translate(655 54.818312)scale(0.1 -0.1)">
       <use xlink:href="#Inconsolata-54"/>
       <use x="49.999985" xlink:href="#Inconsolata-48"/>
       <use x="99.999969" xlink:href="#Inconsolata-48"/>
      </g>
     </g>
    </g>
    <g id="text_15">
     <!-- doubling time [days] -->
     <defs>
      <path d="M 37.09375 39 
C 34.90625 43.703125 30 46.796875 23.703125 46.796875 
C 15 46.796875 4.40625 40.59375 4.40625 23.203125 
C 4.40625 6.296875 13.796875 -1.09375 22.59375 -1.09375 
C 28.40625 -1.09375 33.796875 2.203125 36.703125 7.296875 
L 36.703125 3.296875 
C 36.703125 2.203125 36.796875 1.09375 37.09375 0 
L 44.296875 0 
C 43.90625 1.296875 43.90625 2.796875 43.90625 4.203125 
L 43.796875 63.59375 
C 43.796875 64.203125 43.796875 64.40625 44.203125 65 
C 44.40625 65.296875 44.796875 65.796875 44.703125 66.5 
L 37.09375 66.5 
z
M 24 40.90625 
C 28 40.90625 33.90625 38.796875 35.703125 32 
C 36.296875 29.90625 36.5 27.40625 36.5 22.296875 
C 36.5 18.796875 36.296875 16.296875 35.5 13.90625 
C 33.796875 8.5 29 5.296875 24.296875 5.296875 
C 19.09375 5.296875 11.40625 9.296875 11.40625 24.296875 
C 11.40625 37.40625 18.703125 40.90625 24 40.90625 
z
" id="Inconsolata-100"/>
      <path d="M 46 22.59375 
C 46 38.40625 36 46.59375 25.59375 46.59375 
C 14 46.59375 4 36.59375 4 22.40625 
C 4 8.5 13.90625 -1.296875 25.40625 -1.296875 
C 36.203125 -1.296875 46 7.40625 46 22.59375 
z
M 25.09375 40.5 
C 31.703125 40.5 38.703125 34.796875 38.703125 22.296875 
C 38.703125 10.796875 32.09375 5 25.5 5 
C 18.203125 5 11.59375 11.796875 11.59375 23.09375 
C 11.59375 34.296875 18.09375 40.5 25.09375 40.5 
z
" id="Inconsolata-111"/>
      <path d="M 6.203125 45.59375 
L 6.203125 20.09375 
C 6.203125 16.203125 6.203125 12.203125 8 8.09375 
C 10.59375 2.09375 16.203125 -1.203125 22.203125 -1.203125 
C 27.90625 -1.203125 33.296875 1.90625 36.296875 6.90625 
L 36.203125 3.5 
C 36.203125 2.296875 36.203125 1.09375 36.40625 0 
L 44 0 
C 43.5 1.296875 43.40625 2.796875 43.40625 4.09375 
L 43.40625 45.59375 
L 36.203125 45.59375 
L 36.203125 20.5 
C 36.203125 17 35.90625 14.296875 34.40625 11.5 
C 32.296875 7.59375 28.203125 4.703125 23.796875 4.703125 
C 20.296875 4.703125 16.90625 6.703125 15.09375 10.296875 
C 13.5 13.5 13.5 17.09375 13.5 20.09375 
L 13.5 45.59375 
z
" id="Inconsolata-117"/>
      <path d="M 5.90625 66.5 
L 5.90625 0 
L 10.59375 0 
L 13.09375 6 
C 16.09375 1.5 21.09375 -1.203125 26.59375 -1.203125 
C 36 -1.203125 45.703125 6.796875 45.703125 23.40625 
C 45.703125 39.296875 36.296875 46.703125 27.296875 46.703125 
C 21.5 46.703125 16.09375 43.59375 13.203125 38.59375 
L 13.203125 64.203125 
C 13.203125 64.796875 13.296875 65 13.796875 65.40625 
C 14 65.5 14.5 65.90625 14.40625 66.5 
z
M 24.796875 40.5 
C 29.09375 40.5 38.203125 38 38.203125 21.796875 
C 38.203125 7.90625 29.203125 5.296875 24.703125 5.296875 
C 21.59375 5.296875 14.703125 6.5 13.5 15.296875 
C 13.203125 17.59375 13.203125 20.296875 13.203125 24.296875 
C 13.203125 28.40625 13.40625 31.40625 14.40625 33.90625 
C 16.09375 38 20.296875 40.5 24.796875 40.5 
z
" id="Inconsolata-98"/>
      <path d="M 8.40625 66.40625 
L 8.40625 60.59375 
L 21.40625 60.59375 
L 21.40625 5.703125 
L 7.796875 5.703125 
L 7.796875 0 
L 42.09375 0 
L 42.09375 5.703125 
L 28.59375 5.703125 
L 28.59375 66.40625 
z
" id="Inconsolata-108"/>
      <path d="M 10.59375 45.703125 
L 10.59375 39.796875 
L 21.59375 39.796875 
L 21.59375 5.703125 
L 10 5.703125 
L 10 0 
L 39.59375 0 
L 39.59375 5.703125 
L 28.90625 5.703125 
L 28.90625 45.703125 
z
M 25.40625 65.5 
C 22.5 65.5 20.203125 63.203125 20.203125 60.40625 
C 20.203125 57.59375 22.5 55.296875 25.40625 55.296875 
C 28.296875 55.296875 30.59375 57.59375 30.59375 60.40625 
C 30.59375 63.203125 28.296875 65.5 25.40625 65.5 
z
" id="Inconsolata-105"/>
      <path d="M 6.796875 0 
L 14.09375 0 
L 14.09375 26.296875 
C 14.09375 29.296875 14.5 31.59375 16.40625 34.09375 
C 18.09375 36.40625 22.5 40.5 27.296875 40.5 
C 29.59375 40.5 31.90625 39.5 33.5 37.59375 
C 36 34.59375 36 30.703125 36 27.5 
L 36 0 
L 43.09375 0 
L 43.09375 27.703125 
C 43.09375 31.203125 43.09375 35 41.5 38.703125 
C 39.203125 43.796875 34.5 46.703125 29.296875 46.703125 
C 23.09375 46.703125 17.5 42.703125 14.09375 37.59375 
L 14.09375 45.59375 
L 6.796875 45.59375 
z
" id="Inconsolata-110"/>
      <path d="M 12.5 31.40625 
C 12.5 36.90625 17.09375 41.40625 22.59375 41.40625 
C 28.203125 41.40625 32.703125 36.90625 32.703125 31.40625 
C 32.703125 25.90625 28.203125 21.40625 22.59375 21.40625 
C 17 21.40625 12.5 25.90625 12.5 31.40625 
z
M 23 47.09375 
C 13.90625 47.09375 6 39.90625 6 31 
C 6 26 8.5 21.296875 12.703125 18.59375 
C 9.40625 15.796875 7.5 12.703125 7.5 9.796875 
C 7.5 7.90625 8.296875 5.203125 11.203125 3.703125 
C 6.296875 0.59375 3.796875 -2.796875 3.796875 -6.40625 
C 3.796875 -11.40625 8.40625 -17.296875 24.40625 -17.296875 
C 39.90625 -17.296875 45.5 -9.40625 45.5 -3.296875 
C 45.5 0.703125 43.203125 4.703125 38.40625 6.59375 
C 33.59375 8.59375 28.09375 7.90625 22.90625 7.90625 
C 19.5 7.90625 17.296875 8.203125 16.40625 8.5 
C 14.59375 9 13.59375 10.09375 13.59375 11.5 
C 13.59375 13.90625 16.40625 16.203125 16.90625 16.59375 
C 18.703125 15.90625 20.703125 15.59375 22.703125 15.59375 
C 31.703125 15.59375 39.09375 22.796875 39.09375 31.203125 
C 39.09375 34 38.296875 36.703125 36.796875 39 
C 39.203125 40.40625 42 41.203125 44.796875 41.203125 
C 45.703125 41.203125 46.5 41.09375 47.40625 40.90625 
L 46.59375 46.796875 
C 42 47.203125 37.40625 45.703125 33.90625 42.796875 
C 31 45.59375 27.203125 47.09375 23 47.09375 
z
M 16.09375 2.40625 
C 17.796875 2.203125 20.203125 2 23.703125 1.796875 
C 27.09375 1.703125 30.796875 2 33.40625 1.59375 
C 37.59375 0.90625 38.90625 -1.703125 38.90625 -3.703125 
C 38.90625 -5.703125 37.703125 -8.09375 34.59375 -9.796875 
C 31.203125 -11.59375 27.40625 -11.796875 24.296875 -11.796875 
C 22.203125 -11.796875 18.296875 -11.703125 14.90625 -10.296875 
C 11.203125 -8.796875 10.40625 -6.296875 10.40625 -4.703125 
C 10.40625 -1.40625 13.5 1 16.09375 2.40625 
z
" id="Inconsolata-103"/>
      <path id="Inconsolata-32"/>
      <path d="M 18.796875 57.90625 
L 17.90625 45.59375 
L 7 45.59375 
L 6.90625 39.703125 
L 17.59375 39.703125 
C 17 31.90625 16.703125 24.09375 16.703125 16.40625 
C 16.703125 12.296875 16.703125 7.703125 19.40625 3.90625 
C 21.59375 0.90625 25.09375 -0.90625 29.796875 -0.90625 
C 35.203125 -0.90625 40.5 1.40625 44.40625 4.203125 
L 42.203125 9.90625 
C 38.296875 7 34.703125 5.703125 31.90625 5.703125 
C 28.5 5.703125 25 7.59375 24.203125 13.09375 
C 24.203125 13.5 23.90625 15.203125 23.90625 21.90625 
C 23.90625 27.796875 24.203125 33.796875 24.796875 39.703125 
L 39.796875 39.703125 
L 39.796875 45.703125 
L 24.90625 45.703125 
C 24.90625 45.703125 25.59375 53.90625 26.09375 56.5 
C 26.203125 57.5 27 58.09375 26.59375 59.203125 
z
" id="Inconsolata-116"/>
      <path d="M 3.703125 0 
L 10.296875 0 
L 10.296875 30.40625 
C 10.296875 32.59375 10.5 34.59375 11.796875 37 
C 13.40625 40 15.40625 41.203125 17.296875 41.203125 
C 18.90625 41.203125 20.703125 40.203125 21.5 37.703125 
C 22.09375 35.796875 22 33.59375 22 31.703125 
L 22 0 
L 28.703125 0 
L 28.703125 30.203125 
C 28.703125 32.59375 28.90625 34.5 30.59375 37.40625 
C 31.40625 38.59375 33.09375 41.5 35.90625 41.5 
C 37.40625 41.5 38.796875 40.59375 39.5 38.90625 
C 40.40625 37 40.203125 34.40625 40.203125 32.296875 
L 40.203125 -0.09375 
L 47 -0.09375 
L 47 32.40625 
C 47 36.203125 47.09375 40 45.09375 43.09375 
C 43.40625 45.703125 40.5 46.703125 38 46.703125 
C 33.59375 46.703125 29.5 44.09375 27.703125 40.09375 
C 27 43.90625 23.796875 46.703125 19.703125 46.703125 
C 15.90625 46.703125 12.40625 44.296875 10.296875 41.09375 
L 10.40625 45.59375 
L 3.703125 45.59375 
z
" id="Inconsolata-109"/>
      <path d="M 25.796875 46.703125 
C 14.90625 46.703125 4.796875 38.90625 4.796875 22.296875 
C 4.796875 7 14.296875 -1.09375 26.703125 -1.09375 
C 33.296875 -1.09375 39.203125 1.296875 43.09375 6 
L 39.09375 9.90625 
C 36.203125 6.5 31.796875 4.703125 27.296875 4.703125 
C 21.203125 4.703125 12.296875 8.09375 11.796875 21.796875 
L 44.203125 21.796875 
C 44.5 24.90625 44.40625 27.90625 43.90625 30.5 
C 41.796875 42.796875 33.296875 46.703125 25.796875 46.703125 
z
M 12 27.296875 
C 13.5 38.09375 20.40625 41.203125 25.296875 41.203125 
C 32.703125 41.203125 38 34.703125 37.09375 27.296875 
z
" id="Inconsolata-101"/>
      <path d="M 13.09375 66.90625 
L 13.09375 -8.90625 
L 41.703125 -8.90625 
L 41.703125 -3.203125 
L 19.5 -3.203125 
L 19.5 61 
L 41.59375 61 
L 41.59375 66.90625 
z
" id="Inconsolata-91"/>
      <path d="M 9 40.296875 
L 12.5 35.703125 
C 16.296875 39.59375 21.40625 40.796875 25.703125 40.796875 
C 31.09375 40.796875 33.796875 38.5 35.09375 36.40625 
C 36.59375 33.90625 36.5 30.90625 36.5 28.5 
L 36.5 26.90625 
L 35.09375 26.90625 
C 28.296875 26.90625 21.09375 26.90625 15.296875 24.796875 
C 8.09375 22.203125 4.90625 16.796875 4.90625 11.796875 
C 4.90625 5.09375 10.703125 -1.203125 20.203125 -1.203125 
C 25.796875 -1.203125 31.59375 0.90625 36.59375 5 
L 36.59375 0 
L 43.40625 0 
L 43.40625 28.296875 
C 43.40625 32 43.296875 35.5 41.203125 39.09375 
C 38.203125 44 32.40625 46.59375 25.296875 46.59375 
C 19.203125 46.59375 13.296875 44.703125 9 40.296875 
z
M 36.796875 21.40625 
L 36.796875 18.296875 
C 36.796875 16 36.796875 13 33.703125 9.703125 
C 32 8 27.703125 4.296875 21.703125 4.296875 
C 15.59375 4.296875 12.09375 8.203125 12.09375 12.203125 
C 12.09375 15.59375 14.40625 19.296875 20.09375 20.703125 
C 24.296875 21.703125 30.40625 21.40625 35.203125 21.40625 
z
" id="Inconsolata-97"/>
      <path d="M 4.5 45.59375 
L 23.09375 0.09375 
L 21.59375 -3.203125 
C 20.796875 -5.09375 19.90625 -7 18.5 -8.5 
C 16.59375 -10.59375 14.203125 -11.5 12.09375 -11.5 
C 8.703125 -11.5 7 -9.203125 6.703125 -8.796875 
C 6.40625 -8.296875 6.5 -7.59375 5.90625 -7.09375 
L 2.203125 -13.59375 
C 4.796875 -16.09375 8.296875 -17.40625 12.09375 -17.40625 
C 16.203125 -17.40625 20.5 -15.90625 23.5 -12.5 
C 25.5 -10.203125 26.5 -7.796875 27.5 -5.203125 
L 41.703125 32.5 
C 43.40625 36.796875 44.90625 41.203125 46.296875 45.703125 
L 38.796875 45.703125 
C 38 41.5 36.703125 37.5 35.296875 33.5 
L 26.59375 9 
L 13.203125 42.703125 
C 13.09375 43 13.09375 43.203125 13.09375 43.5 
C 13.09375 44.203125 13.59375 44.703125 13.5 45.59375 
z
" id="Inconsolata-121"/>
      <path d="M 43.203125 39.59375 
C 39 44.203125 32.90625 46.703125 26.09375 46.703125 
C 15.5 46.703125 8.59375 40.796875 8.59375 34 
C 8.59375 26 17.203125 23.09375 19.703125 22.203125 
C 23.59375 20.796875 28.59375 19.59375 32 18 
C 35.796875 16.203125 36.5 13.796875 36.5 12.203125 
C 36.5 7.90625 31.296875 5 24.796875 5 
C 17 5 12 9.703125 10.5 11.296875 
C 10.203125 11.703125 10.203125 12 10.203125 12.40625 
C 10.203125 12.5 10.296875 13.09375 9.796875 13.296875 
L 5.59375 6.203125 
C 11 1.203125 18 -1.09375 24.90625 -1.09375 
C 37.40625 -1.09375 43.90625 6.296875 43.90625 13.203125 
C 43.90625 16.296875 42.59375 20.5 37.203125 23.5 
C 32.09375 26.40625 24.703125 27.40625 20.40625 29.5 
C 16.703125 31.296875 15.90625 33.5 15.90625 35.09375 
C 15.90625 38.703125 20.40625 41.296875 25.5 41.296875 
C 32.09375 41.296875 36.5 37.296875 38.203125 35 
C 38.5 34.703125 38.40625 34.40625 38.40625 34.09375 
C 38.40625 33.5 38.796875 33.296875 39 33.296875 
z
" id="Inconsolata-115"/>
      <path d="M 36.90625 66.90625 
L 8.296875 66.90625 
L 8.296875 61 
L 30.5 61 
L 30.5 -3.203125 
L 8.203125 -3.203125 
L 8.203125 -8.90625 
L 36.90625 -8.90625 
z
" id="Inconsolata-93"/>
     </defs>
     <g style="fill:#555555;" transform="translate(61.91125 149.55)rotate(-90)scale(0.12 -0.12)">
      <use xlink:href="#Inconsolata-100"/>
      <use x="49.999985" xlink:href="#Inconsolata-111"/>
      <use x="99.999969" xlink:href="#Inconsolata-117"/>
      <use x="149.999954" xlink:href="#Inconsolata-98"/>
      <use x="199.999939" xlink:href="#Inconsolata-108"/>
      <use x="249.999924" xlink:href="#Inconsolata-105"/>
      <use x="299.999908" xlink:href="#Inconsolata-110"/>
      <use x="349.999893" xlink:href="#Inconsolata-103"/>
      <use x="399.999878" xlink:href="#Inconsolata-32"/>
      <use x="449.999863" xlink:href="#Inconsolata-116"/>
      <use x="499.999847" xlink:href="#Inconsolata-105"/>
      <use x="549.999832" xlink:href="#Inconsolata-109"/>
      <use x="599.999817" xlink:href="#Inconsolata-101"/>
      <use x="649.999802" xlink:href="#Inconsolata-32"/>
      <use x="699.999786" xlink:href="#Inconsolata-91"/>
      <use x="749.999771" xlink:href="#Inconsolata-100"/>
      <use x="799.999756" xlink:href="#Inconsolata-97"/>
      <use x="849.999741" xlink:href="#Inconsolata-121"/>
      <use x="899.999725" xlink:href="#Inconsolata-115"/>
      <use x="949.99971" xlink:href="#Inconsolata-93"/>
     </g>
    </g>
   </g>
   <g id="line2d_25">
    <defs>
     <path d="M 0 3 
C 0.795609 3 1.55874 2.683901 2.12132 2.12132 
C 2.683901 1.55874 3 0.795609 3 0 
C 3 -0.795609 2.683901 -1.55874 2.12132 -2.12132 
C 1.55874 -2.683901 0.795609 -3 0 -3 
C -0.795609 -3 -1.55874 -2.683901 -2.12132 -2.12132 
C -2.683901 -1.55874 -3 -0.795609 -3 0 
C -3 0.795609 -2.683901 1.55874 -2.12132 2.12132 
C -1.55874 2.683901 -0.795609 3 0 3 
z
" id="mdb90ace769" style="stroke:#e24a33;stroke-opacity:0.3;"/>
    </defs>
    <g clip-path="url(#pb7c9d7b85d)">
     <use style="fill:#e24a33;fill-opacity:0.3;stroke:#e24a33;stroke-opacity:0.3;" x="282.596404" xlink:href="#mdb90ace769" y="157.32333"/>
     <use style="fill:#e24a33;fill-opacity:0.3;stroke:#e24a33;stroke-opacity:0.3;" x="293.745255" xlink:href="#mdb90ace769" y="157.388534"/>
     <use style="fill:#e24a33;fill-opacity:0.3;stroke:#e24a33;stroke-opacity:0.3;" x="299.31968" xlink:href="#mdb90ace769" y="157.074328"/>
     <use style="fill:#e24a33;fill-opacity:0.3;stroke:#e24a33;stroke-opacity:0.3;" x="304.894106" xlink:href="#mdb90ace769" y="156.951213"/>
     <use style="fill:#e24a33;fill-opacity:0.3;stroke:#e24a33;stroke-opacity:0.3;" x="310.468531" xlink:href="#mdb90ace769" y="156.828339"/>
     <use style="fill:#e24a33;fill-opacity:0.3;stroke:#e24a33;stroke-opacity:0.3;" x="316.042957" xlink:href="#mdb90ace769" y="155.970088"/>
     <use style="fill:#e24a33;fill-opacity:0.3;stroke:#e24a33;stroke-opacity:0.3;" x="327.191808" xlink:href="#mdb90ace769" y="156.910236"/>
     <use style="fill:#e24a33;fill-opacity:0.3;stroke:#e24a33;stroke-opacity:0.3;" x="332.766234" xlink:href="#mdb90ace769" y="155.480056"/>
     <use style="fill:#e24a33;fill-opacity:0.3;stroke:#e24a33;stroke-opacity:0.3;" x="338.340659" xlink:href="#mdb90ace769" y="157.254588"/>
     <use style="fill:#e24a33;fill-opacity:0.3;stroke:#e24a33;stroke-opacity:0.3;" x="349.48951" xlink:href="#mdb90ace769" y="156.951213"/>
     <use style="fill:#e24a33;fill-opacity:0.3;stroke:#e24a33;stroke-opacity:0.3;" x="360.638362" xlink:href="#mdb90ace769" y="156.828339"/>
     <use style="fill:#e24a33;fill-opacity:0.3;stroke:#e24a33;stroke-opacity:0.3;" x="366.212787" xlink:href="#mdb90ace769" y="154.867621"/>
     <use style="fill:#e24a33;fill-opacity:0.3;stroke:#e24a33;stroke-opacity:0.3;" x="371.787213" xlink:href="#mdb90ace769" y="156.542047"/>
     <use style="fill:#e24a33;fill-opacity:0.3;stroke:#e24a33;stroke-opacity:0.3;" x="377.361638" xlink:href="#mdb90ace769" y="155.398394"/>
     <use style="fill:#e24a33;fill-opacity:0.3;stroke:#e24a33;stroke-opacity:0.3;" x="382.936064" xlink:href="#mdb90ace769" y="150.948671"/>
     <use style="fill:#e24a33;fill-opacity:0.3;stroke:#e24a33;stroke-opacity:0.3;" x="388.51049" xlink:href="#mdb90ace769" y="156.337721"/>
     <use style="fill:#e24a33;fill-opacity:0.3;stroke:#e24a33;stroke-opacity:0.3;" x="394.084915" xlink:href="#mdb90ace769" y="156.21516"/>
     <use style="fill:#e24a33;fill-opacity:0.3;stroke:#e24a33;stroke-opacity:0.3;" x="405.233766" xlink:href="#mdb90ace769" y="156.092617"/>
     <use style="fill:#e24a33;fill-opacity:0.3;stroke:#e24a33;stroke-opacity:0.3;" x="410.808192" xlink:href="#mdb90ace769" y="154.500188"/>
     <use style="fill:#e24a33;fill-opacity:0.3;stroke:#e24a33;stroke-opacity:0.3;" x="421.957043" xlink:href="#mdb90ace769" y="155.908827"/>
     <use style="fill:#e24a33;fill-opacity:0.3;stroke:#e24a33;stroke-opacity:0.3;" x="427.531469" xlink:href="#mdb90ace769" y="154.132768"/>
     <use style="fill:#e24a33;fill-opacity:0.3;stroke:#e24a33;stroke-opacity:0.3;" x="433.105894" xlink:href="#mdb90ace769" y="155.970088"/>
     <use style="fill:#e24a33;fill-opacity:0.3;stroke:#e24a33;stroke-opacity:0.3;" x="438.68032" xlink:href="#mdb90ace769" y="153.724533"/>
     <use style="fill:#e24a33;fill-opacity:0.3;stroke:#e24a33;stroke-opacity:0.3;" x="444.254745" xlink:href="#mdb90ace769" y="156.000719"/>
     <use style="fill:#e24a33;fill-opacity:0.3;stroke:#e24a33;stroke-opacity:0.3;" x="449.829171" xlink:href="#mdb90ace769" y="156.051773"/>
     <use style="fill:#e24a33;fill-opacity:0.3;stroke:#e24a33;stroke-opacity:0.3;" x="460.978022" xlink:href="#mdb90ace769" y="155.929247"/>
     <use style="fill:#e24a33;fill-opacity:0.3;stroke:#e24a33;stroke-opacity:0.3;" x="466.552448" xlink:href="#mdb90ace769" y="154.990102"/>
     <use style="fill:#e24a33;fill-opacity:0.3;stroke:#e24a33;stroke-opacity:0.3;" x="472.126873" xlink:href="#mdb90ace769" y="154.353218"/>
     <use style="fill:#e24a33;fill-opacity:0.3;stroke:#e24a33;stroke-opacity:0.3;" x="477.701299" xlink:href="#mdb90ace769" y="155.434121"/>
     <use style="fill:#e24a33;fill-opacity:0.3;stroke:#e24a33;stroke-opacity:0.3;" x="483.275724" xlink:href="#mdb90ace769" y="154.03479"/>
     <use style="fill:#e24a33;fill-opacity:0.3;stroke:#e24a33;stroke-opacity:0.3;" x="488.85015" xlink:href="#mdb90ace769" y="155.235073"/>
     <use style="fill:#e24a33;fill-opacity:0.3;stroke:#e24a33;stroke-opacity:0.3;" x="494.424575" xlink:href="#mdb90ace769" y="154.336889"/>
     <use style="fill:#e24a33;fill-opacity:0.3;stroke:#e24a33;stroke-opacity:0.3;" x="499.999001" xlink:href="#mdb90ace769" y="152.601923"/>
     <use style="fill:#e24a33;fill-opacity:0.3;stroke:#e24a33;stroke-opacity:0.3;" x="505.573427" xlink:href="#mdb90ace769" y="150.826209"/>
     <use style="fill:#e24a33;fill-opacity:0.3;stroke:#e24a33;stroke-opacity:0.3;" x="511.147852" xlink:href="#mdb90ace769" y="152.38761"/>
     <use style="fill:#e24a33;fill-opacity:0.3;stroke:#e24a33;stroke-opacity:0.3;" x="516.722278" xlink:href="#mdb90ace769" y="153.299977"/>
     <use style="fill:#e24a33;fill-opacity:0.3;stroke:#e24a33;stroke-opacity:0.3;" x="522.296703" xlink:href="#mdb90ace769" y="150.336363"/>
     <use style="fill:#e24a33;fill-opacity:0.3;stroke:#e24a33;stroke-opacity:0.3;" x="527.871129" xlink:href="#mdb90ace769" y="153.826591"/>
     <use style="fill:#e24a33;fill-opacity:0.3;stroke:#e24a33;stroke-opacity:0.3;" x="533.445554" xlink:href="#mdb90ace769" y="149.96898"/>
     <use style="fill:#e24a33;fill-opacity:0.3;stroke:#e24a33;stroke-opacity:0.3;" x="539.01998" xlink:href="#mdb90ace769" y="153.642887"/>
     <use style="fill:#e24a33;fill-opacity:0.3;stroke:#e24a33;stroke-opacity:0.3;" x="544.594406" xlink:href="#mdb90ace769" y="154.500188"/>
     <use style="fill:#e24a33;fill-opacity:0.3;stroke:#e24a33;stroke-opacity:0.3;" x="550.168831" xlink:href="#mdb90ace769" y="151.316057"/>
     <use style="fill:#e24a33;fill-opacity:0.3;stroke:#e24a33;stroke-opacity:0.3;" x="555.743257" xlink:href="#mdb90ace769" y="151.193595"/>
     <use style="fill:#e24a33;fill-opacity:0.3;stroke:#e24a33;stroke-opacity:0.3;" x="561.317682" xlink:href="#mdb90ace769" y="148.948474"/>
     <use style="fill:#e24a33;fill-opacity:0.3;stroke:#e24a33;stroke-opacity:0.3;" x="566.892108" xlink:href="#mdb90ace769" y="148.826014"/>
     <use style="fill:#e24a33;fill-opacity:0.3;stroke:#e24a33;stroke-opacity:0.3;" x="572.466533" xlink:href="#mdb90ace769" y="148.703553"/>
     <use style="fill:#e24a33;fill-opacity:0.3;stroke:#e24a33;stroke-opacity:0.3;" x="578.040959" xlink:href="#mdb90ace769" y="152.124313"/>
     <use style="fill:#e24a33;fill-opacity:0.3;stroke:#e24a33;stroke-opacity:0.3;" x="583.615385" xlink:href="#mdb90ace769" y="148.376993"/>
     <use style="fill:#e24a33;fill-opacity:0.3;stroke:#e24a33;stroke-opacity:0.3;" x="589.18981" xlink:href="#mdb90ace769" y="150.550671"/>
     <use style="fill:#e24a33;fill-opacity:0.3;stroke:#e24a33;stroke-opacity:0.3;" x="594.764236" xlink:href="#mdb90ace769" y="129.395862"/>
     <use style="fill:#e24a33;fill-opacity:0.3;stroke:#e24a33;stroke-opacity:0.3;" x="600.338661" xlink:href="#mdb90ace769" y="143.356153"/>
     <use style="fill:#e24a33;fill-opacity:0.3;stroke:#e24a33;stroke-opacity:0.3;" x="605.913087" xlink:href="#mdb90ace769" y="143.233694"/>
     <use style="fill:#e24a33;fill-opacity:0.3;stroke:#e24a33;stroke-opacity:0.3;" x="611.487512" xlink:href="#mdb90ace769" y="143.111235"/>
     <use style="fill:#e24a33;fill-opacity:0.3;stroke:#e24a33;stroke-opacity:0.3;" x="617.061938" xlink:href="#mdb90ace769" y="128.538652"/>
     <use style="fill:#e24a33;fill-opacity:0.3;stroke:#e24a33;stroke-opacity:0.3;" x="622.636364" xlink:href="#mdb90ace769" y="128.416194"/>
    </g>
   </g>
   <g id="line2d_26">
    <path clip-path="url(#pb7c9d7b85d)" d="M 282.596404 157.230698 
L 288.170829 157.206256 
L 293.745255 157.153814 
L 299.31968 157.043049 
L 304.894106 156.92275 
L 310.468531 156.769763 
L 316.042957 156.694111 
L 321.617383 156.711577 
L 327.191808 156.764023 
L 332.766234 156.746561 
L 338.340659 156.730323 
L 343.915085 156.674561 
L 349.48951 156.600855 
L 355.063936 156.451574 
L 360.638362 156.267668 
L 366.212787 156.088199 
L 371.787213 156.007145 
L 377.361638 155.892195 
L 382.936064 155.752703 
L 388.51049 155.598901 
L 394.084915 155.413393 
L 399.659341 155.224958 
L 405.233766 155.074024 
L 410.808192 154.934597 
L 416.382617 154.885887 
L 421.957043 154.989959 
L 427.531469 155.157632 
L 433.105894 155.304177 
L 438.68032 155.364831 
L 444.254745 155.351798 
L 449.829171 155.298803 
L 455.403596 155.225648 
L 460.978022 155.134169 
L 466.552448 155.016138 
L 472.126873 154.939362 
L 477.701299 154.87621 
L 483.275724 154.678375 
L 488.85015 154.363791 
L 494.424575 154.00732 
L 499.999001 153.583176 
L 505.573427 153.136171 
L 511.147852 152.713773 
L 516.722278 152.463394 
L 522.296703 152.562373 
L 527.871129 152.832231 
L 533.445554 152.93895 
L 539.01998 152.851023 
L 544.594406 152.602287 
L 550.168831 152.201388 
L 555.743257 151.710285 
L 561.317682 151.04925 
L 566.892108 150.387091 
L 572.466533 149.854222 
L 578.040959 149.343273 
L 583.615385 148.656242 
L 589.18981 147.823261 
L 594.764236 146.369023 
L 600.338661 144.24688 
L 605.913087 142.731374 
L 611.487512 141.881901 
" style="fill:none;stroke:#e24a33;stroke-linecap:square;stroke-width:3;"/>
   </g>
   <g id="line2d_27">
    <defs>
     <path d="M 0 3 
C 0.795609 3 1.55874 2.683901 2.12132 2.12132 
C 2.683901 1.55874 3 0.795609 3 0 
C 3 -0.795609 2.683901 -1.55874 2.12132 -2.12132 
C 1.55874 -2.683901 0.795609 -3 0 -3 
C -0.795609 -3 -1.55874 -2.683901 -2.12132 -2.12132 
C -2.683901 -1.55874 -3 -0.795609 -3 0 
C -3 0.795609 -2.683901 1.55874 -2.12132 2.12132 
C -1.55874 2.683901 -0.795609 3 0 3 
z
" id="m23092dfb62" style="stroke:#348abd;stroke-opacity:0.3;"/>
    </defs>
    <g clip-path="url(#pb7c9d7b85d)">
     <use style="fill:#348abd;fill-opacity:0.3;stroke:#348abd;stroke-opacity:0.3;" x="126.512488" xlink:href="#m23092dfb62" y="157.32333"/>
     <use style="fill:#348abd;fill-opacity:0.3;stroke:#348abd;stroke-opacity:0.3;" x="143.235764" xlink:href="#m23092dfb62" y="157.32333"/>
     <use style="fill:#348abd;fill-opacity:0.3;stroke:#348abd;stroke-opacity:0.3;" x="165.533467" xlink:href="#m23092dfb62" y="157.378946"/>
     <use style="fill:#348abd;fill-opacity:0.3;stroke:#348abd;stroke-opacity:0.3;" x="171.107892" xlink:href="#m23092dfb62" y="156.092617"/>
     <use style="fill:#348abd;fill-opacity:0.3;stroke:#348abd;stroke-opacity:0.3;" x="176.682318" xlink:href="#m23092dfb62" y="156.951213"/>
     <use style="fill:#348abd;fill-opacity:0.3;stroke:#348abd;stroke-opacity:0.3;" x="187.831169" xlink:href="#m23092dfb62" y="155.602555"/>
     <use style="fill:#348abd;fill-opacity:0.3;stroke:#348abd;stroke-opacity:0.3;" x="193.405594" xlink:href="#m23092dfb62" y="156.787413"/>
     <use style="fill:#348abd;fill-opacity:0.3;stroke:#348abd;stroke-opacity:0.3;" x="198.98002" xlink:href="#m23092dfb62" y="156.859042"/>
     <use style="fill:#348abd;fill-opacity:0.3;stroke:#348abd;stroke-opacity:0.3;" x="204.554446" xlink:href="#m23092dfb62" y="154.622664"/>
     <use style="fill:#348abd;fill-opacity:0.3;stroke:#348abd;stroke-opacity:0.3;" x="215.703297" xlink:href="#m23092dfb62" y="154.500188"/>
     <use style="fill:#348abd;fill-opacity:0.3;stroke:#348abd;stroke-opacity:0.3;" x="221.277722" xlink:href="#m23092dfb62" y="155.908827"/>
     <use style="fill:#348abd;fill-opacity:0.3;stroke:#348abd;stroke-opacity:0.3;" x="226.852148" xlink:href="#m23092dfb62" y="154.132768"/>
     <use style="fill:#348abd;fill-opacity:0.3;stroke:#348abd;stroke-opacity:0.3;" x="254.724276" xlink:href="#m23092dfb62" y="154.010296"/>
     <use style="fill:#348abd;fill-opacity:0.3;stroke:#348abd;stroke-opacity:0.3;" x="260.298701" xlink:href="#m23092dfb62" y="153.887826"/>
     <use style="fill:#348abd;fill-opacity:0.3;stroke:#348abd;stroke-opacity:0.3;" x="265.873127" xlink:href="#m23092dfb62" y="153.765356"/>
     <use style="fill:#348abd;fill-opacity:0.3;stroke:#348abd;stroke-opacity:0.3;" x="277.021978" xlink:href="#m23092dfb62" y="157.398829"/>
     <use style="fill:#348abd;fill-opacity:0.3;stroke:#348abd;stroke-opacity:0.3;" x="282.596404" xlink:href="#m23092dfb62" y="157.318238"/>
     <use style="fill:#348abd;fill-opacity:0.3;stroke:#348abd;stroke-opacity:0.3;" x="288.170829" xlink:href="#m23092dfb62" y="157.33729"/>
     <use style="fill:#348abd;fill-opacity:0.3;stroke:#348abd;stroke-opacity:0.3;" x="293.745255" xlink:href="#m23092dfb62" y="157.128373"/>
     <use style="fill:#348abd;fill-opacity:0.3;stroke:#348abd;stroke-opacity:0.3;" x="299.31968" xlink:href="#m23092dfb62" y="157.122946"/>
     <use style="fill:#348abd;fill-opacity:0.3;stroke:#348abd;stroke-opacity:0.3;" x="304.894106" xlink:href="#m23092dfb62" y="156.73201"/>
     <use style="fill:#348abd;fill-opacity:0.3;stroke:#348abd;stroke-opacity:0.3;" x="310.468531" xlink:href="#m23092dfb62" y="157.020098"/>
     <use style="fill:#348abd;fill-opacity:0.3;stroke:#348abd;stroke-opacity:0.3;" x="316.042957" xlink:href="#m23092dfb62" y="157.136419"/>
     <use style="fill:#348abd;fill-opacity:0.3;stroke:#348abd;stroke-opacity:0.3;" x="321.617383" xlink:href="#m23092dfb62" y="157.062885"/>
     <use style="fill:#348abd;fill-opacity:0.3;stroke:#348abd;stroke-opacity:0.3;" x="327.191808" xlink:href="#m23092dfb62" y="157.089802"/>
     <use style="fill:#348abd;fill-opacity:0.3;stroke:#348abd;stroke-opacity:0.3;" x="332.766234" xlink:href="#m23092dfb62" y="156.782245"/>
     <use style="fill:#348abd;fill-opacity:0.3;stroke:#348abd;stroke-opacity:0.3;" x="338.340659" xlink:href="#m23092dfb62" y="156.676508"/>
     <use style="fill:#348abd;fill-opacity:0.3;stroke:#348abd;stroke-opacity:0.3;" x="343.915085" xlink:href="#m23092dfb62" y="156.816795"/>
     <use style="fill:#348abd;fill-opacity:0.3;stroke:#348abd;stroke-opacity:0.3;" x="349.48951" xlink:href="#m23092dfb62" y="155.979664"/>
     <use style="fill:#348abd;fill-opacity:0.3;stroke:#348abd;stroke-opacity:0.3;" x="355.063936" xlink:href="#m23092dfb62" y="155.965628"/>
     <use style="fill:#348abd;fill-opacity:0.3;stroke:#348abd;stroke-opacity:0.3;" x="360.638362" xlink:href="#m23092dfb62" y="155.963294"/>
     <use style="fill:#348abd;fill-opacity:0.3;stroke:#348abd;stroke-opacity:0.3;" x="366.212787" xlink:href="#m23092dfb62" y="155.637282"/>
     <use style="fill:#348abd;fill-opacity:0.3;stroke:#348abd;stroke-opacity:0.3;" x="371.787213" xlink:href="#m23092dfb62" y="154.280811"/>
     <use style="fill:#348abd;fill-opacity:0.3;stroke:#348abd;stroke-opacity:0.3;" x="377.361638" xlink:href="#m23092dfb62" y="151.977655"/>
     <use style="fill:#348abd;fill-opacity:0.3;stroke:#348abd;stroke-opacity:0.3;" x="382.936064" xlink:href="#m23092dfb62" y="131.274725"/>
     <use style="fill:#348abd;fill-opacity:0.3;stroke:#348abd;stroke-opacity:0.3;" x="388.51049" xlink:href="#m23092dfb62" y="153.63732"/>
     <use style="fill:#348abd;fill-opacity:0.3;stroke:#348abd;stroke-opacity:0.3;" x="394.084915" xlink:href="#m23092dfb62" y="149.108532"/>
     <use style="fill:#348abd;fill-opacity:0.3;stroke:#348abd;stroke-opacity:0.3;" x="399.659341" xlink:href="#m23092dfb62" y="148.67869"/>
     <use style="fill:#348abd;fill-opacity:0.3;stroke:#348abd;stroke-opacity:0.3;" x="405.233766" xlink:href="#m23092dfb62" y="148.307179"/>
     <use style="fill:#348abd;fill-opacity:0.3;stroke:#348abd;stroke-opacity:0.3;" x="410.808192" xlink:href="#m23092dfb62" y="144.409946"/>
     <use style="fill:#348abd;fill-opacity:0.3;stroke:#348abd;stroke-opacity:0.3;" x="416.382617" xlink:href="#m23092dfb62" y="143.932042"/>
     <use style="fill:#348abd;fill-opacity:0.3;stroke:#348abd;stroke-opacity:0.3;" x="421.957043" xlink:href="#m23092dfb62" y="145.432128"/>
     <use style="fill:#348abd;fill-opacity:0.3;stroke:#348abd;stroke-opacity:0.3;" x="427.531469" xlink:href="#m23092dfb62" y="146.483474"/>
     <use style="fill:#348abd;fill-opacity:0.3;stroke:#348abd;stroke-opacity:0.3;" x="433.105894" xlink:href="#m23092dfb62" y="150.661047"/>
     <use style="fill:#348abd;fill-opacity:0.3;stroke:#348abd;stroke-opacity:0.3;" x="438.68032" xlink:href="#m23092dfb62" y="145.383064"/>
     <use style="fill:#348abd;fill-opacity:0.3;stroke:#348abd;stroke-opacity:0.3;" x="444.254745" xlink:href="#m23092dfb62" y="150.231396"/>
     <use style="fill:#348abd;fill-opacity:0.3;stroke:#348abd;stroke-opacity:0.3;" x="449.829171" xlink:href="#m23092dfb62" y="150.787656"/>
     <use style="fill:#348abd;fill-opacity:0.3;stroke:#348abd;stroke-opacity:0.3;" x="460.978022" xlink:href="#m23092dfb62" y="143.000055"/>
     <use style="fill:#348abd;fill-opacity:0.3;stroke:#348abd;stroke-opacity:0.3;" x="466.552448" xlink:href="#m23092dfb62" y="146.372325"/>
     <use style="fill:#348abd;fill-opacity:0.3;stroke:#348abd;stroke-opacity:0.3;" x="472.126873" xlink:href="#m23092dfb62" y="146.680217"/>
     <use style="fill:#348abd;fill-opacity:0.3;stroke:#348abd;stroke-opacity:0.3;" x="477.701299" xlink:href="#m23092dfb62" y="145.003297"/>
     <use style="fill:#348abd;fill-opacity:0.3;stroke:#348abd;stroke-opacity:0.3;" x="483.275724" xlink:href="#m23092dfb62" y="149.611662"/>
     <use style="fill:#348abd;fill-opacity:0.3;stroke:#348abd;stroke-opacity:0.3;" x="488.85015" xlink:href="#m23092dfb62" y="146.38498"/>
     <use style="fill:#348abd;fill-opacity:0.3;stroke:#348abd;stroke-opacity:0.3;" x="494.424575" xlink:href="#m23092dfb62" y="142.393751"/>
     <use style="fill:#348abd;fill-opacity:0.3;stroke:#348abd;stroke-opacity:0.3;" x="499.999001" xlink:href="#m23092dfb62" y="147.974344"/>
     <use style="fill:#348abd;fill-opacity:0.3;stroke:#348abd;stroke-opacity:0.3;" x="505.573427" xlink:href="#m23092dfb62" y="145.573756"/>
     <use style="fill:#348abd;fill-opacity:0.3;stroke:#348abd;stroke-opacity:0.3;" x="511.147852" xlink:href="#m23092dfb62" y="143.834982"/>
     <use style="fill:#348abd;fill-opacity:0.3;stroke:#348abd;stroke-opacity:0.3;" x="516.722278" xlink:href="#m23092dfb62" y="143.233694"/>
     <use style="fill:#348abd;fill-opacity:0.3;stroke:#348abd;stroke-opacity:0.3;" x="522.296703" xlink:href="#m23092dfb62" y="144.330615"/>
     <use style="fill:#348abd;fill-opacity:0.3;stroke:#348abd;stroke-opacity:0.3;" x="527.871129" xlink:href="#m23092dfb62" y="142.084696"/>
     <use style="fill:#348abd;fill-opacity:0.3;stroke:#348abd;stroke-opacity:0.3;" x="533.445554" xlink:href="#m23092dfb62" y="130.766355"/>
     <use style="fill:#348abd;fill-opacity:0.3;stroke:#348abd;stroke-opacity:0.3;" x="539.01998" xlink:href="#m23092dfb62" y="130.643896"/>
     <use style="fill:#348abd;fill-opacity:0.3;stroke:#348abd;stroke-opacity:0.3;" x="544.594406" xlink:href="#m23092dfb62" y="133.568694"/>
     <use style="fill:#348abd;fill-opacity:0.3;stroke:#348abd;stroke-opacity:0.3;" x="550.168831" xlink:href="#m23092dfb62" y="124.833498"/>
     <use style="fill:#348abd;fill-opacity:0.3;stroke:#348abd;stroke-opacity:0.3;" x="555.743257" xlink:href="#m23092dfb62" y="110.165353"/>
     <use style="fill:#348abd;fill-opacity:0.3;stroke:#348abd;stroke-opacity:0.3;" x="561.317682" xlink:href="#m23092dfb62" y="114.782488"/>
     <use style="fill:#348abd;fill-opacity:0.3;stroke:#348abd;stroke-opacity:0.3;" x="566.892108" xlink:href="#m23092dfb62" y="117.333705"/>
     <use style="fill:#348abd;fill-opacity:0.3;stroke:#348abd;stroke-opacity:0.3;" x="572.466533" xlink:href="#m23092dfb62" y="105.947524"/>
     <use style="fill:#348abd;fill-opacity:0.3;stroke:#348abd;stroke-opacity:0.3;" x="578.040959" xlink:href="#m23092dfb62" y="109.648307"/>
     <use style="fill:#348abd;fill-opacity:0.3;stroke:#348abd;stroke-opacity:0.3;" x="583.615385" xlink:href="#m23092dfb62" y="109.525848"/>
     <use style="fill:#348abd;fill-opacity:0.3;stroke:#348abd;stroke-opacity:0.3;" x="589.18981" xlink:href="#m23092dfb62" y="98.486247"/>
     <use style="fill:#348abd;fill-opacity:0.3;stroke:#348abd;stroke-opacity:0.3;" x="594.764236" xlink:href="#m23092dfb62" y="98.363789"/>
     <use style="fill:#348abd;fill-opacity:0.3;stroke:#348abd;stroke-opacity:0.3;" x="600.338661" xlink:href="#m23092dfb62" y="85.086335"/>
     <use style="fill:#348abd;fill-opacity:0.3;stroke:#348abd;stroke-opacity:0.3;" x="605.628591" xlink:href="#m23092dfb62" y="-1"/>
     <use style="fill:#348abd;fill-opacity:0.3;stroke:#348abd;stroke-opacity:0.3;" x="606.325075" xlink:href="#m23092dfb62" y="-1"/>
     <use style="fill:#348abd;fill-opacity:0.3;stroke:#348abd;stroke-opacity:0.3;" x="611.487512" xlink:href="#m23092dfb62" y="57.013547"/>
     <use style="fill:#348abd;fill-opacity:0.3;stroke:#348abd;stroke-opacity:0.3;" x="617.061938" xlink:href="#m23092dfb62" y="12.203221"/>
     <use style="fill:#348abd;fill-opacity:0.3;stroke:#348abd;stroke-opacity:0.3;" x="622.636364" xlink:href="#m23092dfb62" y="38.509495"/>
    </g>
   </g>
   <g id="line2d_28">
    <path clip-path="url(#pb7c9d7b85d)" d="M 143.235764 157.147348 
L 148.81019 157.128678 
L 154.384615 157.102712 
L 159.959041 157.039601 
L 165.533467 156.950394 
L 171.107892 156.862127 
L 176.682318 156.802504 
L 182.256743 156.672945 
L 187.831169 156.461206 
L 193.405594 156.215618 
L 198.98002 156.036485 
L 204.554446 155.880661 
L 210.128871 155.567996 
L 215.703297 154.763201 
L 221.277722 153.798357 
L 226.852148 153.278841 
L 232.426573 153.166638 
L 238.000999 152.647628 
L 254.724276 153.398853 
L 260.298701 155.549623 
L 265.873127 157.188485 
L 271.447552 157.275219 
L 277.021978 157.274489 
L 282.596404 157.235093 
L 288.170829 157.185051 
L 293.745255 157.13924 
L 299.31968 157.107102 
L 304.894106 157.084202 
L 310.468531 157.060497 
L 316.042957 157.025184 
L 321.617383 156.981298 
L 327.191808 156.924165 
L 332.766234 156.834517 
L 338.340659 156.70716 
L 343.915085 156.545317 
L 349.48951 156.345012 
L 355.063936 156.090638 
L 360.638362 155.699713 
L 366.212787 155.183383 
L 371.787213 154.561296 
L 377.361638 153.720981 
L 382.936064 152.526384 
L 388.51049 151.152816 
L 394.084915 149.902847 
L 399.659341 149.066061 
L 405.233766 148.191952 
L 410.808192 147.338361 
L 416.382617 146.872562 
L 421.957043 147.013233 
L 427.531469 147.498687 
L 433.105894 147.962064 
L 438.68032 147.890684 
L 444.254745 147.428363 
L 449.829171 146.805033 
L 455.403596 146.104844 
L 460.978022 145.640497 
L 466.552448 145.449119 
L 472.126873 145.638552 
L 477.701299 146.193662 
L 483.275724 146.648092 
L 488.85015 146.615009 
L 494.424575 146.336872 
L 499.999001 145.852939 
L 505.573427 145.225947 
L 511.147852 144.5197 
L 516.722278 143.465484 
L 522.296703 141.872174 
L 527.871129 139.893846 
L 533.445554 137.431545 
L 539.01998 134.027379 
L 544.594406 129.761774 
L 550.168831 125.482206 
L 555.743257 121.686132 
L 561.317682 117.894328 
L 566.892108 113.992876 
L 572.466533 110.830357 
L 578.040959 108.201039 
L 583.615385 104.172951 
L 589.18981 98.130701 
L 594.764236 90.112917 
L 600.338661 79.63239 
L 605.913087 71.945904 
L 611.487512 66.9 
" style="fill:none;stroke:#348abd;stroke-linecap:square;stroke-width:3;"/>
   </g>
   <g id="patch_3">
    <path d="M 90 157.5 
L 90 21.6 
" style="fill:none;stroke:#ffffff;stroke-linecap:square;stroke-linejoin:miter;"/>
   </g>
   <g id="patch_4">
    <path d="M 648 157.5 
L 648 21.6 
" style="fill:none;stroke:#ffffff;stroke-linecap:square;stroke-linejoin:miter;"/>
   </g>
   <g id="patch_5">
    <path d="M 90 157.5 
L 648 157.5 
" style="fill:none;stroke:#ffffff;stroke-linecap:square;stroke-linejoin:miter;"/>
   </g>
   <g id="patch_6">
    <path d="M 90 21.6 
L 648 21.6 
" style="fill:none;stroke:#ffffff;stroke-linecap:square;stroke-linejoin:miter;"/>
   </g>
   <g id="legend_1">
    <g id="patch_7">
     <path d="M 97 84.559375 
L 369 84.559375 
Q 371 84.559375 371 82.559375 
L 371 28.6 
Q 371 26.6 369 26.6 
L 97 26.6 
Q 95 26.6 95 28.6 
L 95 82.559375 
Q 95 84.559375 97 84.559375 
z
" style="fill:#e5e5e5;opacity:0.8;stroke:#cccccc;stroke-linejoin:miter;stroke-width:0.5;"/>
    </g>
    <g id="line2d_29"/>
    <g id="line2d_30">
     <g>
      <use style="fill:#e24a33;fill-opacity:0.3;stroke:#e24a33;stroke-opacity:0.3;" x="109" xlink:href="#mdb90ace769" y="34.1"/>
     </g>
    </g>
    <g id="text_16">
     <!-- Korea, South doubling time deaths -->
     <defs>
      <path d="M 4.203125 62.296875 
L 4.203125 0 
L 11.59375 0 
L 11.59375 25.796875 
L 16.5 31.09375 
L 38.203125 -0.5 
C 38.203125 -0.5 42.09375 -0.09375 47.09375 -0.09375 
L 21.90625 35.296875 
L 45.40625 62.296875 
L 42.796875 62.296875 
C 41.09375 62.296875 39.40625 62.296875 37.703125 62.796875 
L 11.59375 33.5 
L 11.59375 59.796875 
C 11.59375 60.203125 11.59375 60.5 12 60.90625 
C 12.203125 61.203125 12.703125 61.703125 12.5 62.296875 
z
" id="Inconsolata-75"/>
      <path d="M 9.90625 45.59375 
L 9.90625 -0.09375 
L 17.09375 -0.09375 
L 17.09375 22.09375 
C 17.09375 24.90625 17.203125 27.90625 20.296875 32.796875 
C 24.5 39.40625 29.90625 40.5 33.203125 40.5 
C 37 40.5 39.40625 38.703125 40.703125 37.09375 
C 41.296875 36.296875 41.59375 35.5 42.40625 34.796875 
L 45.796875 41.703125 
C 42.90625 44.703125 38.703125 46.703125 33.59375 46.703125 
C 26.90625 46.703125 20.09375 43.296875 17.09375 36.796875 
L 17.40625 45.59375 
z
" id="Inconsolata-114"/>
      <path d="M 30.5 1.90625 
C 30.5 7 27.09375 10.203125 23.59375 10.203125 
C 20.296875 10.203125 17.796875 7.5 17.796875 4.5 
C 17.796875 1.796875 19.703125 0.703125 20.59375 0.09375 
C 21.5 -0.5 22.90625 -1.40625 22.90625 -3.5 
C 22.90625 -5.09375 22 -6.796875 21.5 -7.59375 
C 20.5 -9.203125 18.796875 -11.703125 16.40625 -13.90625 
L 19.90625 -16.90625 
C 26.90625 -9.796875 30.5 -3.296875 30.5 1.90625 
z
" id="Inconsolata-44"/>
      <path d="M 43.40625 54.796875 
C 39.203125 59.90625 33 62.59375 26.203125 62.59375 
C 14.90625 62.59375 7.203125 55.203125 7.203125 46.59375 
C 7.203125 43 8.59375 38.296875 13.796875 34.5 
C 19.59375 30.203125 28.59375 28.09375 33.296875 25.09375 
C 37.40625 22.59375 38.5 19.296875 38.5 16.5 
C 38.5 11.09375 33.90625 5.203125 24.90625 5.203125 
C 18.09375 5.203125 12.796875 8.59375 10 12.09375 
C 9.703125 12.5 9.703125 12.703125 9.703125 13.09375 
C 9.703125 13.296875 9.703125 13.90625 9.296875 14.09375 
L 5.09375 6.90625 
C 10 1.59375 17 -1.09375 24.703125 -1.09375 
C 39.90625 -1.09375 45.5 9.09375 45.5 16.90625 
C 45.5 20.203125 44.5 24.5 40.59375 28.203125 
C 35.203125 33.296875 26.40625 35.09375 20.703125 38.40625 
C 15.5 41.5 14.40625 45.203125 14.40625 47.703125 
C 14.40625 52.5 18.5 56.796875 25.59375 56.796875 
C 31.40625 56.796875 35.90625 54.203125 38.296875 50.703125 
C 38.59375 50.296875 38.5 50.09375 38.5 49.703125 
C 38.5 49.09375 38.796875 48.90625 39 48.90625 
z
" id="Inconsolata-83"/>
      <path d="M 6.90625 0 
L 14.296875 0 
L 14.296875 26.296875 
C 14.296875 29.296875 14.59375 31.59375 16.5 34.09375 
C 18.296875 36.40625 22.703125 40.5 27.5 40.5 
C 29.796875 40.5 32.09375 39.5 33.703125 37.59375 
C 36.203125 34.59375 36.203125 30.703125 36.203125 27.5 
L 36.203125 0 
L 43.296875 0 
L 43.296875 27.703125 
C 43.296875 31.203125 43.203125 35 41.59375 38.703125 
C 39.296875 43.796875 34.703125 46.703125 29.5 46.703125 
C 23.296875 46.703125 17.59375 42.703125 14.296875 37.59375 
L 14.296875 64.09375 
C 14.296875 64.40625 14.296875 64.703125 14.59375 65 
C 14.90625 65.296875 15.296875 65.59375 15.296875 66.09375 
C 15.296875 66.203125 15.296875 66.296875 15.203125 66.40625 
L 6.90625 66.40625 
z
" id="Inconsolata-104"/>
     </defs>
     <g transform="translate(127 37.6)scale(0.1 -0.1)">
      <use xlink:href="#Inconsolata-75"/>
      <use x="49.999985" xlink:href="#Inconsolata-111"/>
      <use x="99.999969" xlink:href="#Inconsolata-114"/>
      <use x="149.999954" xlink:href="#Inconsolata-101"/>
      <use x="199.999939" xlink:href="#Inconsolata-97"/>
      <use x="249.999924" xlink:href="#Inconsolata-44"/>
      <use x="299.999908" xlink:href="#Inconsolata-32"/>
      <use x="349.999893" xlink:href="#Inconsolata-83"/>
      <use x="399.999878" xlink:href="#Inconsolata-111"/>
      <use x="449.999863" xlink:href="#Inconsolata-117"/>
      <use x="499.999847" xlink:href="#Inconsolata-116"/>
      <use x="549.999832" xlink:href="#Inconsolata-104"/>
      <use x="599.999817" xlink:href="#Inconsolata-32"/>
      <use x="649.999802" xlink:href="#Inconsolata-100"/>
      <use x="699.999786" xlink:href="#Inconsolata-111"/>
      <use x="749.999771" xlink:href="#Inconsolata-117"/>
      <use x="799.999756" xlink:href="#Inconsolata-98"/>
      <use x="849.999741" xlink:href="#Inconsolata-108"/>
      <use x="899.999725" xlink:href="#Inconsolata-105"/>
      <use x="949.99971" xlink:href="#Inconsolata-110"/>
      <use x="999.999695" xlink:href="#Inconsolata-103"/>
      <use x="1049.99968" xlink:href="#Inconsolata-32"/>
      <use x="1099.999664" xlink:href="#Inconsolata-116"/>
      <use x="1149.999649" xlink:href="#Inconsolata-105"/>
      <use x="1199.999634" xlink:href="#Inconsolata-109"/>
      <use x="1249.999619" xlink:href="#Inconsolata-101"/>
      <use x="1299.999603" xlink:href="#Inconsolata-32"/>
      <use x="1349.999588" xlink:href="#Inconsolata-100"/>
      <use x="1399.999573" xlink:href="#Inconsolata-101"/>
      <use x="1449.999557" xlink:href="#Inconsolata-97"/>
      <use x="1499.999542" xlink:href="#Inconsolata-116"/>
      <use x="1549.999527" xlink:href="#Inconsolata-104"/>
      <use x="1599.999512" xlink:href="#Inconsolata-115"/>
     </g>
    </g>
    <g id="line2d_31">
     <path d="M 99 47.829688 
L 119 47.829688 
" style="fill:none;stroke:#e24a33;stroke-linecap:square;stroke-width:3;"/>
    </g>
    <g id="line2d_32"/>
    <g id="text_17">
     <!-- Korea, South doubling time deaths (rolling mean) -->
     <defs>
      <path d="M 39.09375 66.59375 
C 23.703125 59.796875 13.796875 44.09375 13.796875 25.796875 
C 13.796875 7.59375 23.40625 -9 39.203125 -17.296875 
L 42.5 -12 
C 28.796875 -4.09375 20.796875 10.59375 20.796875 26.09375 
C 20.796875 40.40625 27.703125 53.203125 39.40625 60 
C 39.59375 60.203125 39.90625 60.40625 40.296875 60.40625 
C 40.59375 60.40625 40.90625 60.203125 41.296875 60.203125 
C 41.5 60.203125 41.796875 60.296875 42.203125 60.40625 
z
" id="Inconsolata-40"/>
      <path d="M 7.703125 60.296875 
C 20.90625 53.203125 29.296875 39.59375 29.296875 24.703125 
C 29.296875 9.703125 20.703125 -4.296875 7.203125 -11.40625 
L 9.09375 -17.5 
C 25.703125 -9.59375 36.40625 7 36.40625 25 
C 36.40625 42.796875 25.90625 59 9.59375 66.5 
z
" id="Inconsolata-41"/>
     </defs>
     <g transform="translate(127 51.329688)scale(0.1 -0.1)">
      <use xlink:href="#Inconsolata-75"/>
      <use x="49.999985" xlink:href="#Inconsolata-111"/>
      <use x="99.999969" xlink:href="#Inconsolata-114"/>
      <use x="149.999954" xlink:href="#Inconsolata-101"/>
      <use x="199.999939" xlink:href="#Inconsolata-97"/>
      <use x="249.999924" xlink:href="#Inconsolata-44"/>
      <use x="299.999908" xlink:href="#Inconsolata-32"/>
      <use x="349.999893" xlink:href="#Inconsolata-83"/>
      <use x="399.999878" xlink:href="#Inconsolata-111"/>
      <use x="449.999863" xlink:href="#Inconsolata-117"/>
      <use x="499.999847" xlink:href="#Inconsolata-116"/>
      <use x="549.999832" xlink:href="#Inconsolata-104"/>
      <use x="599.999817" xlink:href="#Inconsolata-32"/>
      <use x="649.999802" xlink:href="#Inconsolata-100"/>
      <use x="699.999786" xlink:href="#Inconsolata-111"/>
      <use x="749.999771" xlink:href="#Inconsolata-117"/>
      <use x="799.999756" xlink:href="#Inconsolata-98"/>
      <use x="849.999741" xlink:href="#Inconsolata-108"/>
      <use x="899.999725" xlink:href="#Inconsolata-105"/>
      <use x="949.99971" xlink:href="#Inconsolata-110"/>
      <use x="999.999695" xlink:href="#Inconsolata-103"/>
      <use x="1049.99968" xlink:href="#Inconsolata-32"/>
      <use x="1099.999664" xlink:href="#Inconsolata-116"/>
      <use x="1149.999649" xlink:href="#Inconsolata-105"/>
      <use x="1199.999634" xlink:href="#Inconsolata-109"/>
      <use x="1249.999619" xlink:href="#Inconsolata-101"/>
      <use x="1299.999603" xlink:href="#Inconsolata-32"/>
      <use x="1349.999588" xlink:href="#Inconsolata-100"/>
      <use x="1399.999573" xlink:href="#Inconsolata-101"/>
      <use x="1449.999557" xlink:href="#Inconsolata-97"/>
      <use x="1499.999542" xlink:href="#Inconsolata-116"/>
      <use x="1549.999527" xlink:href="#Inconsolata-104"/>
      <use x="1599.999512" xlink:href="#Inconsolata-115"/>
      <use x="1649.999496" xlink:href="#Inconsolata-32"/>
      <use x="1699.999481" xlink:href="#Inconsolata-40"/>
      <use x="1749.999466" xlink:href="#Inconsolata-114"/>
      <use x="1799.999451" xlink:href="#Inconsolata-111"/>
      <use x="1849.999435" xlink:href="#Inconsolata-108"/>
      <use x="1899.99942" xlink:href="#Inconsolata-108"/>
      <use x="1949.999405" xlink:href="#Inconsolata-105"/>
      <use x="1999.99939" xlink:href="#Inconsolata-110"/>
      <use x="2049.999374" xlink:href="#Inconsolata-103"/>
      <use x="2099.999359" xlink:href="#Inconsolata-32"/>
      <use x="2149.999344" xlink:href="#Inconsolata-109"/>
      <use x="2199.999329" xlink:href="#Inconsolata-101"/>
      <use x="2249.999313" xlink:href="#Inconsolata-97"/>
      <use x="2299.999298" xlink:href="#Inconsolata-110"/>
      <use x="2349.999283" xlink:href="#Inconsolata-41"/>
     </g>
    </g>
    <g id="line2d_33"/>
    <g id="line2d_34">
     <g>
      <use style="fill:#348abd;fill-opacity:0.3;stroke:#348abd;stroke-opacity:0.3;" x="109" xlink:href="#m23092dfb62" y="61.579688"/>
     </g>
    </g>
    <g id="text_18">
     <!-- Korea, South doubling time cases -->
     <defs>
      <path d="M 45.59375 38.09375 
C 42 43.40625 35.90625 46.59375 28.5 46.59375 
C 15.09375 46.59375 5.59375 36.5 5.59375 22.796875 
C 5.59375 9 15.09375 -1.203125 28.09375 -1.203125 
C 34.40625 -1.203125 40.59375 1.40625 44.90625 6.09375 
L 40.796875 10.90625 
C 37.703125 7.40625 33.203125 5.40625 28.703125 5.40625 
C 19.796875 5.40625 13 12.796875 13 23.5 
C 13 33.90625 19.703125 40.40625 28.09375 40.40625 
C 35.90625 40.40625 39.59375 35 39.90625 34.40625 
C 40.296875 33.703125 39.703125 32.703125 40.5 32.09375 
z
" id="Inconsolata-99"/>
     </defs>
     <g transform="translate(127 65.079688)scale(0.1 -0.1)">
      <use xlink:href="#Inconsolata-75"/>
      <use x="49.999985" xlink:href="#Inconsolata-111"/>
      <use x="99.999969" xlink:href="#Inconsolata-114"/>
      <use x="149.999954" xlink:href="#Inconsolata-101"/>
      <use x="199.999939" xlink:href="#Inconsolata-97"/>
      <use x="249.999924" xlink:href="#Inconsolata-44"/>
      <use x="299.999908" xlink:href="#Inconsolata-32"/>
      <use x="349.999893" xlink:href="#Inconsolata-83"/>
      <use x="399.999878" xlink:href="#Inconsolata-111"/>
      <use x="449.999863" xlink:href="#Inconsolata-117"/>
      <use x="499.999847" xlink:href="#Inconsolata-116"/>
      <use x="549.999832" xlink:href="#Inconsolata-104"/>
      <use x="599.999817" xlink:href="#Inconsolata-32"/>
      <use x="649.999802" xlink:href="#Inconsolata-100"/>
      <use x="699.999786" xlink:href="#Inconsolata-111"/>
      <use x="749.999771" xlink:href="#Inconsolata-117"/>
      <use x="799.999756" xlink:href="#Inconsolata-98"/>
      <use x="849.999741" xlink:href="#Inconsolata-108"/>
      <use x="899.999725" xlink:href="#Inconsolata-105"/>
      <use x="949.99971" xlink:href="#Inconsolata-110"/>
      <use x="999.999695" xlink:href="#Inconsolata-103"/>
      <use x="1049.99968" xlink:href="#Inconsolata-32"/>
      <use x="1099.999664" xlink:href="#Inconsolata-116"/>
      <use x="1149.999649" xlink:href="#Inconsolata-105"/>
      <use x="1199.999634" xlink:href="#Inconsolata-109"/>
      <use x="1249.999619" xlink:href="#Inconsolata-101"/>
      <use x="1299.999603" xlink:href="#Inconsolata-32"/>
      <use x="1349.999588" xlink:href="#Inconsolata-99"/>
      <use x="1399.999573" xlink:href="#Inconsolata-97"/>
      <use x="1449.999557" xlink:href="#Inconsolata-115"/>
      <use x="1499.999542" xlink:href="#Inconsolata-101"/>
      <use x="1549.999527" xlink:href="#Inconsolata-115"/>
     </g>
    </g>
    <g id="line2d_35">
     <path d="M 99 75.309375 
L 119 75.309375 
" style="fill:none;stroke:#348abd;stroke-linecap:square;stroke-width:3;"/>
    </g>
    <g id="line2d_36"/>
    <g id="text_19">
     <!-- Korea, South doubling time cases (rolling mean) -->
     <g transform="translate(127 78.809375)scale(0.1 -0.1)">
      <use xlink:href="#Inconsolata-75"/>
      <use x="49.999985" xlink:href="#Inconsolata-111"/>
      <use x="99.999969" xlink:href="#Inconsolata-114"/>
      <use x="149.999954" xlink:href="#Inconsolata-101"/>
      <use x="199.999939" xlink:href="#Inconsolata-97"/>
      <use x="249.999924" xlink:href="#Inconsolata-44"/>
      <use x="299.999908" xlink:href="#Inconsolata-32"/>
      <use x="349.999893" xlink:href="#Inconsolata-83"/>
      <use x="399.999878" xlink:href="#Inconsolata-111"/>
      <use x="449.999863" xlink:href="#Inconsolata-117"/>
      <use x="499.999847" xlink:href="#Inconsolata-116"/>
      <use x="549.999832" xlink:href="#Inconsolata-104"/>
      <use x="599.999817" xlink:href="#Inconsolata-32"/>
      <use x="649.999802" xlink:href="#Inconsolata-100"/>
      <use x="699.999786" xlink:href="#Inconsolata-111"/>
      <use x="749.999771" xlink:href="#Inconsolata-117"/>
      <use x="799.999756" xlink:href="#Inconsolata-98"/>
      <use x="849.999741" xlink:href="#Inconsolata-108"/>
      <use x="899.999725" xlink:href="#Inconsolata-105"/>
      <use x="949.99971" xlink:href="#Inconsolata-110"/>
      <use x="999.999695" xlink:href="#Inconsolata-103"/>
      <use x="1049.99968" xlink:href="#Inconsolata-32"/>
      <use x="1099.999664" xlink:href="#Inconsolata-116"/>
      <use x="1149.999649" xlink:href="#Inconsolata-105"/>
      <use x="1199.999634" xlink:href="#Inconsolata-109"/>
      <use x="1249.999619" xlink:href="#Inconsolata-101"/>
      <use x="1299.999603" xlink:href="#Inconsolata-32"/>
      <use x="1349.999588" xlink:href="#Inconsolata-99"/>
      <use x="1399.999573" xlink:href="#Inconsolata-97"/>
      <use x="1449.999557" xlink:href="#Inconsolata-115"/>
      <use x="1499.999542" xlink:href="#Inconsolata-101"/>
      <use x="1549.999527" xlink:href="#Inconsolata-115"/>
      <use x="1599.999512" xlink:href="#Inconsolata-32"/>
      <use x="1649.999496" xlink:href="#Inconsolata-40"/>
      <use x="1699.999481" xlink:href="#Inconsolata-114"/>
      <use x="1749.999466" xlink:href="#Inconsolata-111"/>
      <use x="1799.999451" xlink:href="#Inconsolata-108"/>
      <use x="1849.999435" xlink:href="#Inconsolata-108"/>
      <use x="1899.99942" xlink:href="#Inconsolata-105"/>
      <use x="1949.999405" xlink:href="#Inconsolata-110"/>
      <use x="1999.99939" xlink:href="#Inconsolata-103"/>
      <use x="2049.999374" xlink:href="#Inconsolata-32"/>
      <use x="2099.999359" xlink:href="#Inconsolata-109"/>
      <use x="2149.999344" xlink:href="#Inconsolata-101"/>
      <use x="2199.999329" xlink:href="#Inconsolata-97"/>
      <use x="2249.999313" xlink:href="#Inconsolata-110"/>
      <use x="2299.999298" xlink:href="#Inconsolata-41"/>
     </g>
    </g>
   </g>
  </g>
 </g>
 <defs>
  <clipPath id="pb7c9d7b85d">
   <rect height="135.9" width="558" x="90" y="21.6"/>
  </clipPath>
 </defs>
</svg>
