<?xml version="1.0" encoding="utf-8" standalone="no"?>
<!DOCTYPE svg PUBLIC "-//W3C//DTD SVG 1.1//EN"
  "http://www.w3.org/Graphics/SVG/1.1/DTD/svg11.dtd">
<!-- Created with matplotlib (https://matplotlib.org/) -->
<svg height="180pt" version="1.1" viewBox="0 0 720 180" width="720pt" xmlns="http://www.w3.org/2000/svg" xmlns:xlink="http://www.w3.org/1999/xlink">
 <metadata>
  <rdf:RDF xmlns:cc="http://creativecommons.org/ns#" xmlns:dc="http://purl.org/dc/elements/1.1/" xmlns:rdf="http://www.w3.org/1999/02/22-rdf-syntax-ns#">
   <cc:Work>
    <dc:type rdf:resource="http://purl.org/dc/dcmitype/StillImage"/>
    <dc:date>2021-03-29T16:32:59.443228</dc:date>
    <dc:format>image/svg+xml</dc:format>
    <dc:creator>
     <cc:Agent>
      <dc:title>Matplotlib v3.3.2, https://matplotlib.org/</dc:title>
     </cc:Agent>
    </dc:creator>
   </cc:Work>
  </rdf:RDF>
 </metadata>
 <defs>
  <style type="text/css">*{stroke-linecap:butt;stroke-linejoin:round;}</style>
 </defs>
 <g id="figure_1">
  <g id="patch_1">
   <path d="M 0 180 
L 720 180 
L 720 0 
L 0 0 
z
" style="fill:#ffffff;"/>
  </g>
  <g id="axes_1">
   <g id="patch_2">
    <path d="M 90 157.5 
L 648 157.5 
L 648 21.6 
L 90 21.6 
z
" style="fill:#e5e5e5;"/>
   </g>
   <g id="matplotlib.axis_1">
    <g id="xtick_1">
     <g id="line2d_1">
      <path clip-path="url(#p502574aa98)" d="M 165.832096 157.5 
L 165.832096 21.6 
" style="fill:none;stroke:#ffffff;stroke-linecap:square;stroke-width:0.8;"/>
     </g>
     <g id="line2d_2">
      <defs>
       <path d="M 0 0 
L 0 3.5 
" id="m6bd41f3c4c" style="stroke:#555555;stroke-width:0.8;"/>
      </defs>
      <g>
       <use style="fill:#555555;stroke:#555555;stroke-width:0.8;" x="165.832096" xlink:href="#m6bd41f3c4c" y="157.5"/>
      </g>
     </g>
     <g id="text_1">
      <text style="fill:#555555;font-family:DejaVu Sans;font-size:10px;font-stretch:normal;font-style:normal;font-weight:normal;text-anchor:middle;" transform="rotate(-0, 165.832096, 172.098437)" x="165.832096" y="172.098437">2020-03</text>
     </g>
    </g>
    <g id="xtick_2">
     <g id="line2d_3">
      <path clip-path="url(#p502574aa98)" d="M 244.769944 157.5 
L 244.769944 21.6 
" style="fill:none;stroke:#ffffff;stroke-linecap:square;stroke-width:0.8;"/>
     </g>
     <g id="line2d_4">
      <g>
       <use style="fill:#555555;stroke:#555555;stroke-width:0.8;" x="244.769944" xlink:href="#m6bd41f3c4c" y="157.5"/>
      </g>
     </g>
     <g id="text_2">
      <text style="fill:#555555;font-family:DejaVu Sans;font-size:10px;font-stretch:normal;font-style:normal;font-weight:normal;text-anchor:middle;" transform="rotate(-0, 244.769944, 172.098437)" x="244.769944" y="172.098437">2020-05</text>
     </g>
    </g>
    <g id="xtick_3">
     <g id="line2d_5">
      <path clip-path="url(#p502574aa98)" d="M 323.707792 157.5 
L 323.707792 21.6 
" style="fill:none;stroke:#ffffff;stroke-linecap:square;stroke-width:0.8;"/>
     </g>
     <g id="line2d_6">
      <g>
       <use style="fill:#555555;stroke:#555555;stroke-width:0.8;" x="323.707792" xlink:href="#m6bd41f3c4c" y="157.5"/>
      </g>
     </g>
     <g id="text_3">
      <text style="fill:#555555;font-family:DejaVu Sans;font-size:10px;font-stretch:normal;font-style:normal;font-weight:normal;text-anchor:middle;" transform="rotate(-0, 323.707792, 172.098437)" x="323.707792" y="172.098437">2020-07</text>
     </g>
    </g>
    <g id="xtick_4">
     <g id="line2d_7">
      <path clip-path="url(#p502574aa98)" d="M 403.939703 157.5 
L 403.939703 21.6 
" style="fill:none;stroke:#ffffff;stroke-linecap:square;stroke-width:0.8;"/>
     </g>
     <g id="line2d_8">
      <g>
       <use style="fill:#555555;stroke:#555555;stroke-width:0.8;" x="403.939703" xlink:href="#m6bd41f3c4c" y="157.5"/>
      </g>
     </g>
     <g id="text_4">
      <text style="fill:#555555;font-family:DejaVu Sans;font-size:10px;font-stretch:normal;font-style:normal;font-weight:normal;text-anchor:middle;" transform="rotate(-0, 403.939703, 172.098437)" x="403.939703" y="172.098437">2020-09</text>
     </g>
    </g>
    <g id="xtick_5">
     <g id="line2d_9">
      <path clip-path="url(#p502574aa98)" d="M 482.877551 157.5 
L 482.877551 21.6 
" style="fill:none;stroke:#ffffff;stroke-linecap:square;stroke-width:0.8;"/>
     </g>
     <g id="line2d_10">
      <g>
       <use style="fill:#555555;stroke:#555555;stroke-width:0.8;" x="482.877551" xlink:href="#m6bd41f3c4c" y="157.5"/>
      </g>
     </g>
     <g id="text_5">
      <text style="fill:#555555;font-family:DejaVu Sans;font-size:10px;font-stretch:normal;font-style:normal;font-weight:normal;text-anchor:middle;" transform="rotate(-0, 482.877551, 172.098437)" x="482.877551" y="172.098437">2020-11</text>
     </g>
    </g>
    <g id="xtick_6">
     <g id="line2d_11">
      <path clip-path="url(#p502574aa98)" d="M 561.815399 157.5 
L 561.815399 21.6 
" style="fill:none;stroke:#ffffff;stroke-linecap:square;stroke-width:0.8;"/>
     </g>
     <g id="line2d_12">
      <g>
       <use style="fill:#555555;stroke:#555555;stroke-width:0.8;" x="561.815399" xlink:href="#m6bd41f3c4c" y="157.5"/>
      </g>
     </g>
     <g id="text_6">
      <text style="fill:#555555;font-family:DejaVu Sans;font-size:10px;font-stretch:normal;font-style:normal;font-weight:normal;text-anchor:middle;" transform="rotate(-0, 561.815399, 172.098437)" x="561.815399" y="172.098437">2021-01</text>
     </g>
    </g>
    <g id="xtick_7">
     <g id="line2d_13">
      <path clip-path="url(#p502574aa98)" d="M 638.165121 157.5 
L 638.165121 21.6 
" style="fill:none;stroke:#ffffff;stroke-linecap:square;stroke-width:0.8;"/>
     </g>
     <g id="line2d_14">
      <g>
       <use style="fill:#555555;stroke:#555555;stroke-width:0.8;" x="638.165121" xlink:href="#m6bd41f3c4c" y="157.5"/>
      </g>
     </g>
     <g id="text_7">
      <text style="fill:#555555;font-family:DejaVu Sans;font-size:10px;font-stretch:normal;font-style:normal;font-weight:normal;text-anchor:middle;" transform="rotate(-0, 638.165121, 172.098437)" x="638.165121" y="172.098437">2021-03</text>
     </g>
    </g>
   </g>
   <g id="matplotlib.axis_2">
    <g id="ytick_1">
     <g id="line2d_15">
      <path clip-path="url(#p502574aa98)" d="M 90 126.274515 
L 648 126.274515 
" style="fill:none;stroke:#ffffff;stroke-linecap:square;stroke-width:0.8;"/>
     </g>
     <g id="line2d_16">
      <defs>
       <path d="M 0 0 
L -3.5 0 
" id="m1315cfc833" style="stroke:#555555;stroke-width:0.8;"/>
      </defs>
      <g>
       <use style="fill:#555555;stroke:#555555;stroke-width:0.8;" x="90" xlink:href="#m1315cfc833" y="126.274515"/>
      </g>
     </g>
     <g id="line2d_17">
      <defs>
       <path d="M 0 0 
L 3.5 0 
" id="m58c7bf8421" style="stroke:#555555;stroke-width:0.8;"/>
      </defs>
      <g>
       <use style="fill:#555555;stroke:#555555;stroke-width:0.8;" x="648" xlink:href="#m58c7bf8421" y="126.274515"/>
      </g>
     </g>
     <g id="text_8">
      <text style="fill:#555555;font-family:DejaVu Sans;font-size:10px;font-stretch:normal;font-style:normal;font-weight:normal;text-anchor:end;" transform="rotate(-0, 83, 130.073734)" x="83" y="130.073734">10</text>
     </g>
     <g id="text_9">
      <text style="fill:#555555;font-family:DejaVu Sans;font-size:10px;font-stretch:normal;font-style:normal;font-weight:normal;text-anchor:start;" transform="rotate(-0, 655, 130.073734)" x="655" y="130.073734">10</text>
     </g>
    </g>
    <g id="ytick_2">
     <g id="line2d_18">
      <path clip-path="url(#p502574aa98)" d="M 90 76.178091 
L 648 76.178091 
" style="fill:none;stroke:#ffffff;stroke-linecap:square;stroke-width:0.8;"/>
     </g>
     <g id="line2d_19">
      <g>
       <use style="fill:#555555;stroke:#555555;stroke-width:0.8;" x="90" xlink:href="#m1315cfc833" y="76.178091"/>
      </g>
     </g>
     <g id="line2d_20">
      <g>
       <use style="fill:#555555;stroke:#555555;stroke-width:0.8;" x="648" xlink:href="#m58c7bf8421" y="76.178091"/>
      </g>
     </g>
     <g id="text_10">
      <text style="fill:#555555;font-family:DejaVu Sans;font-size:10px;font-stretch:normal;font-style:normal;font-weight:normal;text-anchor:end;" transform="rotate(-0, 83, 79.97731)" x="83" y="79.97731">1000</text>
     </g>
     <g id="text_11">
      <text style="fill:#555555;font-family:DejaVu Sans;font-size:10px;font-stretch:normal;font-style:normal;font-weight:normal;text-anchor:start;" transform="rotate(-0, 655, 79.97731)" x="655" y="79.97731">1000</text>
     </g>
    </g>
    <g id="ytick_3">
     <g id="line2d_21">
      <path clip-path="url(#p502574aa98)" d="M 90 26.081667 
L 648 26.081667 
" style="fill:none;stroke:#ffffff;stroke-linecap:square;stroke-width:0.8;"/>
     </g>
     <g id="line2d_22">
      <g>
       <use style="fill:#555555;stroke:#555555;stroke-width:0.8;" x="90" xlink:href="#m1315cfc833" y="26.081667"/>
      </g>
     </g>
     <g id="line2d_23">
      <g>
       <use style="fill:#555555;stroke:#555555;stroke-width:0.8;" x="648" xlink:href="#m58c7bf8421" y="26.081667"/>
      </g>
     </g>
     <g id="text_12">
      <text style="fill:#555555;font-family:DejaVu Sans;font-size:10px;font-stretch:normal;font-style:normal;font-weight:normal;text-anchor:end;" transform="rotate(-0, 83, 29.880885)" x="83" y="29.880885">100000</text>
     </g>
     <g id="text_13">
      <text style="fill:#555555;font-family:DejaVu Sans;font-size:10px;font-stretch:normal;font-style:normal;font-weight:normal;text-anchor:start;" transform="rotate(-0, 655, 29.880885)" x="655" y="29.880885">100000</text>
     </g>
    </g>
    <g id="text_14">
     <text style="fill:#555555;font-family:DejaVu Sans;font-size:12px;font-stretch:normal;font-style:normal;font-weight:normal;text-anchor:middle;" transform="rotate(-90, 38.329375, 89.55)" x="38.329375" y="89.55">total numbers</text>
    </g>
   </g>
   <g id="line2d_24">
    <path clip-path="url(#p502574aa98)" d="M 115.363636 151.322727 
L 116.657699 151.322727 
L 116.657699 143.782464 
L 119.245826 143.782464 
L 119.245826 139.371693 
L 120.539889 139.371693 
L 120.539889 136.242201 
L 125.716141 136.242201 
L 125.716141 125.237702 
L 127.010204 125.237702 
L 127.010204 124.291167 
L 128.304267 124.291167 
L 128.304267 121.863744 
L 130.892393 121.863744 
L 130.892393 121.161675 
L 132.186456 121.161675 
L 132.186456 119.292236 
L 133.480519 119.292236 
L 133.480519 117.21388 
L 134.774583 117.21388 
L 134.774583 116.750903 
L 137.362709 116.750903 
L 137.362709 116.306829 
L 138.656772 116.306829 
L 138.656772 115.469624 
L 139.950835 115.469624 
L 139.950835 115.074006 
L 146.42115 115.074006 
L 146.42115 114.692272 
L 147.715213 114.692272 
L 147.715213 114.323481 
L 149.009276 114.323481 
L 149.009276 113.966783 
L 151.597403 113.966783 
L 151.597403 100.799648 
L 152.891466 100.799648 
L 152.891466 93.470621 
L 154.185529 93.470621 
L 154.185529 85.283419 
L 155.479592 85.283419 
L 155.479592 81.698805 
L 156.773655 81.698805 
L 156.773655 78.165792 
L 158.067718 78.165792 
L 158.067718 76.431214 
L 159.361781 76.431214 
L 159.361781 73.655358 
L 160.655844 73.655358 
L 160.655844 69.991416 
L 161.949907 69.991416 
L 161.949907 66.943849 
L 163.24397 66.943849 
L 163.24397 63.696302 
L 164.538033 63.696302 
L 164.538033 61.840322 
L 165.832096 61.840322 
L 165.832096 60.222653 
L 167.12616 60.222653 
L 167.12616 58.272815 
L 168.420223 58.272815 
L 168.420223 57.396601 
L 169.714286 57.396601 
L 169.714286 56.528404 
L 171.008349 56.528404 
L 171.008349 55.661524 
L 172.302412 55.661524 
L 172.302412 54.946366 
L 173.596475 54.946366 
L 173.596475 54.532554 
L 174.890538 54.532554 
L 174.890538 54.291327 
L 177.478664 54.240531 
L 177.478664 53.895657 
L 178.772727 53.895657 
L 178.772727 53.736908 
L 180.06679 53.736908 
L 180.06679 53.585894 
L 181.360853 53.585894 
L 181.360853 53.440984 
L 183.94898 53.339217 
L 183.94898 53.241034 
L 186.537106 53.130647 
L 186.537106 53.009725 
L 187.831169 53.009725 
L 187.831169 52.814938 
L 190.419295 52.704998 
L 190.419295 52.521725 
L 191.713358 52.521725 
L 191.713358 52.323264 
L 195.595547 52.231392 
L 195.595547 52.111678 
L 196.88961 52.111678 
L 196.88961 51.988557 
L 199.477737 51.881958 
L 199.477737 51.713084 
L 200.7718 51.713084 
L 200.7718 51.593233 
L 203.359926 51.505049 
L 203.359926 51.365201 
L 204.653989 51.365201 
L 204.653989 51.253503 
L 207.242115 51.156018 
L 207.242115 51.062642 
L 209.830241 50.961487 
L 209.830241 50.875071 
L 213.71243 50.775638 
L 213.71243 50.719973 
L 218.888683 50.619865 
L 218.888683 50.5867 
L 225.358998 50.482679 
L 225.358998 50.460152 
L 238.299629 50.355303 
L 238.299629 50.341129 
L 253.828386 50.252458 
L 253.828386 50.218391 
L 259.004638 50.130711 
L 259.004638 50.10197 
L 266.769017 50.016201 
L 266.769017 49.984823 
L 274.533395 49.891229 
L 274.533395 49.8728 
L 277.121521 49.834105 
L 277.121521 49.758083 
L 281.003711 49.665461 
L 281.003711 49.639819 
L 284.8859 49.570792 
L 284.8859 49.524703 
L 288.768089 49.451738 
L 288.768089 49.404294 
L 292.650278 49.316464 
L 292.650278 49.28153 
L 296.532468 49.194682 
L 296.532468 49.143811 
L 301.70872 49.03739 
L 301.70872 49.006919 
L 305.590909 48.916013 
L 305.590909 48.872611 
L 309.473098 48.771425 
L 309.473098 48.756547 
L 314.649351 48.647767 
L 314.649351 48.61405 
L 318.53154 48.51694 
L 318.53154 48.481067 
L 322.413729 48.40205 
L 322.413729 48.356432 
L 326.295918 48.250727 
L 326.295918 48.199919 
L 330.178108 48.125387 
L 330.178108 48.073517 
L 335.35436 47.968072 
L 335.35436 47.932339 
L 340.530612 47.824233 
L 340.530612 47.775374 
L 345.706865 47.6696 
L 345.706865 47.649042 
L 349.589054 47.564061 
L 349.589054 47.517915 
L 352.17718 47.485962 
L 352.17718 47.398381 
L 357.353432 47.31303 
L 357.353432 47.276328 
L 365.117811 47.171495 
L 365.117811 47.14582 
L 371.588126 47.041484 
L 371.588126 47.014624 
L 376.764378 46.928523 
L 376.764378 46.8872 
L 379.352505 46.811603 
L 379.352505 46.690861 
L 380.646568 46.690861 
L 380.646568 46.490898 
L 381.940631 46.490898 
L 381.940631 46.351888 
L 383.234694 46.351888 
L 383.234694 46.180759 
L 384.528757 46.180759 
L 384.528757 45.977676 
L 385.82282 45.977676 
L 385.82282 45.784302 
L 387.116883 45.784302 
L 387.116883 45.570789 
L 388.410946 45.570789 
L 388.410946 45.356266 
L 389.705009 45.356266 
L 389.705009 45.105175 
L 390.999072 45.105175 
L 390.999072 44.940124 
L 392.293135 44.940124 
L 392.293135 44.769049 
L 393.587199 44.769049 
L 393.587199 44.576774 
L 394.881262 44.576774 
L 394.881262 44.317243 
L 396.175325 44.317243 
L 396.175325 44.103603 
L 397.469388 44.103603 
L 397.469388 43.92096 
L 398.763451 43.92096 
L 398.763451 43.754579 
L 400.057514 43.754579 
L 400.057514 43.618481 
L 401.351577 43.618481 
L 401.351577 43.491071 
L 402.64564 43.491071 
L 402.64564 43.348099 
L 405.233766 43.244856 
L 405.233766 43.141017 
L 407.821892 43.053683 
L 407.821892 42.967557 
L 410.410019 42.9066 
L 410.410019 42.83735 
L 412.998145 42.758456 
L 412.998145 42.680629 
L 415.586271 42.592929 
L 415.586271 42.525641 
L 418.174397 42.466123 
L 418.174397 42.412784 
L 422.056586 42.306403 
L 422.056586 42.232694 
L 424.644712 42.172365 
L 424.644712 42.119969 
L 429.820965 42.019224 
L 429.820965 41.967559 
L 432.409091 41.909145 
L 432.409091 41.856143 
L 437.585343 41.761019 
L 437.585343 41.743562 
L 441.467532 41.656696 
L 441.467532 41.628045 
L 446.643785 41.532185 
L 446.643785 41.498473 
L 451.820037 41.392626 
L 451.820037 41.360672 
L 455.702226 41.292201 
L 455.702226 41.247376 
L 460.878479 41.146974 
L 460.878479 41.1153 
L 466.054731 41.018251 
L 466.054731 40.979244 
L 468.642857 40.928446 
L 468.642857 40.862634 
L 473.819109 40.754383 
L 473.819109 40.717562 
L 477.701299 40.62274 
L 477.701299 40.575637 
L 481.583488 40.473049 
L 481.583488 40.433504 
L 485.465677 40.355247 
L 485.465677 40.304861 
L 489.347866 40.211162 
L 489.347866 40.154296 
L 493.230056 40.065025 
L 493.230056 40.007742 
L 495.818182 39.951927 
L 495.818182 39.87782 
L 498.406308 39.798839 
L 498.406308 39.719284 
L 500.994434 39.634634 
L 500.994434 39.548386 
L 502.288497 39.548386 
L 502.288497 39.431596 
L 503.58256 39.431596 
L 503.58256 39.305037 
L 504.876623 39.305037 
L 504.876623 39.172682 
L 506.170686 39.172682 
L 506.170686 39.033685 
L 507.46475 39.033685 
L 507.46475 38.916246 
L 510.052876 38.820743 
L 510.052876 38.698975 
L 511.346939 38.698975 
L 511.346939 38.567236 
L 512.641002 38.567236 
L 512.641002 38.369206 
L 513.935065 38.369206 
L 513.935065 38.179346 
L 515.229128 38.179346 
L 515.229128 38.019112 
L 516.523191 38.019112 
L 516.523191 37.87374 
L 517.817254 37.87374 
L 517.817254 37.753162 
L 519.111317 37.753162 
L 519.111317 37.61065 
L 520.40538 37.61065 
L 520.40538 37.451403 
L 521.699443 37.451403 
L 521.699443 37.285614 
L 522.993506 37.285614 
L 522.993506 37.095633 
L 524.28757 37.095633 
L 524.28757 36.922461 
L 525.581633 36.922461 
L 525.581633 36.738086 
L 526.875696 36.738086 
L 526.875696 36.561344 
L 528.169759 36.561344 
L 528.169759 36.393321 
L 529.463822 36.393321 
L 529.463822 36.204932 
L 530.757885 36.204932 
L 530.757885 36.022733 
L 532.051948 36.022733 
L 532.051948 35.837667 
L 533.346011 35.837667 
L 533.346011 35.587192 
L 534.640074 35.587192 
L 534.640074 35.321986 
L 535.934137 35.321986 
L 535.934137 35.140866 
L 537.2282 35.140866 
L 537.2282 34.922917 
L 538.522263 34.922917 
L 538.522263 34.661745 
L 539.816327 34.661745 
L 539.816327 34.422377 
L 541.11039 34.422377 
L 541.11039 34.176479 
L 542.404453 34.176479 
L 542.404453 33.937585 
L 543.698516 33.937585 
L 543.698516 33.69506 
L 544.992579 33.69506 
L 544.992579 33.494102 
L 546.286642 33.494102 
L 546.286642 33.308833 
L 547.580705 33.308833 
L 547.580705 33.08082 
L 548.874768 33.08082 
L 548.874768 32.879211 
L 550.168831 32.879211 
L 550.168831 32.630704 
L 551.462894 32.630704 
L 551.462894 32.40816 
L 552.756957 32.40816 
L 552.756957 32.221021 
L 554.05102 32.221021 
L 554.05102 32.067557 
L 555.345083 32.067557 
L 555.345083 31.872237 
L 556.639147 31.872237 
L 556.639147 31.679816 
L 557.93321 31.679816 
L 557.93321 31.505236 
L 559.227273 31.505236 
L 559.227273 31.32249 
L 560.521336 31.32249 
L 560.521336 31.178332 
L 561.815399 31.178332 
L 561.815399 31.065777 
L 563.109462 31.065777 
L 563.109462 30.891731 
L 564.403525 30.891731 
L 564.403525 30.771368 
L 565.697588 30.771368 
L 565.697588 30.631808 
L 566.991651 30.631808 
L 566.991651 30.489284 
L 569.579777 30.380211 
L 569.579777 30.277179 
L 572.167904 30.171311 
L 572.167904 30.100251 
L 574.75603 30.016056 
L 574.75603 29.928788 
L 577.344156 29.849134 
L 577.344156 29.770517 
L 579.932282 29.682462 
L 579.932282 29.603984 
L 582.520408 29.545644 
L 582.520408 29.488061 
L 585.108534 29.428266 
L 585.108534 29.369239 
L 587.69666 29.318731 
L 587.69666 29.255924 
L 590.284787 29.198982 
L 590.284787 29.135852 
L 592.872913 29.08498 
L 592.872913 29.005841 
L 595.461039 28.935331 
L 595.461039 28.869209 
L 598.049165 28.805444 
L 598.049165 28.755951 
L 601.931354 28.667427 
L 601.931354 28.603184 
L 604.519481 28.5415 
L 604.519481 28.491291 
L 608.40167 28.38793 
L 608.40167 28.349136 
L 612.283859 28.249766 
L 612.283859 28.183052 
L 616.166048 28.082565 
L 616.166048 28.040024 
L 620.048237 27.936328 
L 620.048237 27.85651 
L 622.636364 27.777273 
L 622.636364 27.777273 
" style="fill:none;stroke:#348abd;stroke-linecap:square;stroke-width:3;"/>
   </g>
   <g id="line2d_25">
    <path clip-path="url(#p502574aa98)" d="M 151.597403 181 
L 151.597403 151.322727 
L 152.891466 151.322727 
L 152.891466 143.782464 
L 155.479592 143.782464 
L 155.479592 131.83143 
L 156.773655 131.83143 
L 156.773655 128.701938 
L 158.067718 128.701938 
L 158.067718 126.274515 
L 159.361781 126.274515 
L 159.361781 124.291167 
L 160.655844 124.291167 
L 160.655844 123.420438 
L 163.24397 123.420438 
L 163.24397 121.161675 
L 164.538033 121.161675 
L 164.538033 120.502182 
L 165.832096 120.502182 
L 165.832096 115.074006 
L 168.420223 115.074006 
L 168.420223 112.646583 
L 171.008349 112.646583 
L 171.008349 110.663235 
L 172.302412 110.663235 
L 172.302412 110.157176 
L 173.596475 110.157176 
L 173.596475 108.766566 
L 174.890538 108.766566 
L 174.890538 108.1327 
L 176.184601 108.1327 
L 176.184601 107.929361 
L 177.478664 107.929361 
L 177.478664 106.783218 
L 178.772727 106.783218 
L 178.772727 105.746405 
L 181.360853 105.746405 
L 181.360853 104.799869 
L 182.654917 104.799869 
L 182.654917 104.355795 
L 185.243043 104.355795 
L 185.243043 103.51859 
L 186.537106 103.51859 
L 186.537106 103.122972 
L 187.831169 103.122972 
L 187.831169 102.252243 
L 189.125232 102.252243 
L 189.125232 101.899402 
L 190.419295 101.899402 
L 190.419295 101.010884 
L 191.713358 101.010884 
L 191.713358 100.091043 
L 194.301484 100.091043 
L 194.301484 99.242954 
L 195.595547 99.242954 
L 195.595547 98.7122 
L 196.88961 98.7122 
L 196.88961 98.288867 
L 198.183673 98.288867 
L 198.183673 97.644038 
L 199.477737 97.644038 
L 199.477737 97.259606 
L 200.7718 97.259606 
L 200.7718 96.671446 
L 202.065863 96.671446 
L 202.065863 96.250298 
L 203.359926 96.250298 
L 203.359926 95.978327 
L 204.653989 95.978327 
L 204.653989 95.778719 
L 205.948052 95.778719 
L 205.948052 95.518149 
L 207.242115 95.518149 
L 207.242115 95.200974 
L 208.536178 95.200974 
L 208.536178 95.015016 
L 209.830241 95.015016 
L 209.830241 94.652372 
L 211.124304 94.652372 
L 211.124304 94.475486 
L 212.418367 94.475486 
L 212.418367 94.130114 
L 213.71243 94.130114 
L 213.71243 93.68604 
L 215.006494 93.68604 
L 215.006494 93.470621 
L 216.300557 93.470621 
L 216.300557 93.259385 
L 217.59462 93.259385 
L 217.59462 93.103607 
L 218.888683 93.103607 
L 218.888683 92.950029 
L 220.182746 92.950029 
L 220.182746 92.798588 
L 221.476809 92.798588 
L 221.476809 92.55078 
L 222.770872 92.55078 
L 222.770872 92.404761 
L 224.064935 92.404761 
L 224.064935 92.213068 
L 226.653061 92.165667 
L 226.653061 92.071482 
L 229.241187 91.978106 
L 229.241187 91.885524 
L 233.123377 91.793724 
L 233.123377 91.702691 
L 237.005566 91.612414 
L 237.005566 91.567555 
L 239.593692 91.522881 
L 239.593692 91.434078 
L 243.475881 91.345994 
L 243.475881 91.258617 
L 247.358071 91.171937 
L 247.358071 91.085942 
L 256.416512 91.000622 
L 256.416512 90.915965 
L 261.592764 90.831963 
L 261.592764 90.748604 
L 270.651206 90.665878 
L 270.651206 90.583778 
L 274.533395 90.542959 
L 274.533395 90.461777 
L 283.591837 90.381196 
L 283.591837 90.341129 
L 293.944341 90.261434 
L 293.944341 90.182319 
L 303.002783 90.103775 
L 303.002783 90.064714 
L 313.355288 89.987012 
L 313.355288 89.948368 
L 328.884045 89.871489 
L 328.884045 89.833253 
L 332.766234 89.75718 
L 332.766234 89.719343 
L 340.530612 89.681636 
L 340.530612 89.606613 
L 343.118738 89.532104 
L 343.118738 89.49504 
L 350.883117 89.384599 
L 350.883117 89.348033 
L 366.411874 89.239068 
L 366.411874 89.202987 
L 383.234694 89.095458 
L 383.234694 89.05985 
L 392.293135 88.953719 
L 392.293135 88.918571 
L 396.175325 88.813803 
L 396.175325 88.710035 
L 397.469388 88.710035 
L 397.469388 88.539258 
L 402.64564 88.438063 
L 402.64564 88.37112 
L 405.233766 88.27147 
L 405.233766 88.205541 
L 409.115955 88.10739 
L 409.115955 88.042445 
L 410.410019 88.042445 
L 410.410019 87.881758 
L 412.998145 87.786473 
L 412.998145 87.723411 
L 414.292208 87.723411 
L 414.292208 87.598371 
L 415.586271 87.598371 
L 415.586271 87.444067 
L 418.174397 87.352524 
L 418.174397 87.201643 
L 419.46846 87.201643 
L 419.46846 87.082428 
L 422.056586 87.082428 
L 422.056586 86.935222 
L 423.350649 86.935222 
L 423.350649 86.789983 
L 425.938776 86.761166 
L 425.938776 86.618216 
L 428.526902 86.561559 
L 428.526902 86.477121 
L 431.115028 86.477121 
L 431.115028 86.337832 
L 433.703154 86.282612 
L 433.703154 86.173006 
L 436.29128 86.118615 
L 436.29128 85.983814 
L 438.879406 85.957053 
L 438.879406 85.797856 
L 442.761596 85.719122 
L 442.761596 85.615023 
L 447.937848 85.563344 
L 447.937848 85.486284 
L 451.820037 85.409766 
L 451.820037 85.359051 
L 456.996289 85.258325 
L 456.996289 85.158523 
L 460.878479 85.084269 
L 460.878479 85.035045 
L 466.054731 84.937262 
L 466.054731 84.864497 
L 468.642857 84.792216 
L 468.642857 84.744294 
L 473.819109 84.696582 
L 473.819109 84.625404 
L 480.289425 84.531219 
L 480.289425 84.484431 
L 482.877551 84.437843 
L 482.877551 84.345261 
L 488.053803 84.25346 
L 488.053803 84.230631 
L 491.935993 84.162428 
L 491.935993 84.049699 
L 497.112245 83.982617 
L 497.112245 83.893814 
L 503.58256 83.80573 
L 503.58256 83.761955 
L 507.46475 83.653279 
L 507.46475 83.610111 
L 511.346939 83.502935 
L 511.346939 83.439133 
L 515.229128 83.375702 
L 515.229128 83.24994 
L 521.699443 83.166899 
L 521.699443 83.105032 
L 522.993506 83.105032 
L 522.993506 82.962029 
L 525.581633 82.881149 
L 525.581633 82.780887 
L 528.169759 82.701338 
L 528.169759 82.642056 
L 530.757885 82.563512 
L 530.757885 82.408105 
L 532.051948 82.408105 
L 532.051948 82.254887 
L 533.346011 82.254887 
L 533.346011 82.141373 
L 535.934137 82.103797 
L 535.934137 81.973293 
L 537.2282 81.973293 
L 537.2282 81.735005 
L 538.522263 81.735005 
L 538.522263 81.519587 
L 539.816327 81.519587 
L 539.816327 81.135401 
L 541.11039 81.135401 
L 541.11039 80.94828 
L 542.404453 80.94828 
L 542.404453 80.714687 
L 543.698516 80.714687 
L 543.698516 80.469854 
L 544.992579 80.469854 
L 544.992579 80.089233 
L 546.286642 80.089233 
L 546.286642 79.721481 
L 547.580705 79.721481 
L 547.580705 79.468313 
L 548.874768 79.468313 
L 548.874768 79.220903 
L 550.168831 79.220903 
L 550.168831 78.978995 
L 551.462894 78.978995 
L 551.462894 78.701118 
L 552.756957 78.701118 
L 552.756957 78.497271 
L 554.05102 78.497271 
L 554.05102 78.350174 
L 555.345083 78.350174 
L 555.345083 77.831444 
L 556.639147 77.831444 
L 556.639147 77.581069 
L 557.93321 77.581069 
L 557.93321 77.324234 
L 559.227273 77.324234 
L 559.227273 77.120672 
L 560.521336 77.120672 
L 560.521336 76.828069 
L 561.815399 76.828069 
L 561.815399 76.599525 
L 563.109462 76.599525 
L 563.109462 76.386767 
L 564.403525 76.386767 
L 564.403525 76.102208 
L 565.697588 76.102208 
L 565.697588 75.888272 
L 566.991651 75.888272 
L 566.991651 75.688857 
L 568.285714 75.688857 
L 568.285714 75.330818 
L 569.579777 75.330818 
L 569.579777 75.141278 
L 570.87384 75.141278 
L 570.87384 74.896812 
L 572.167904 74.896812 
L 572.167904 74.752726 
L 573.461967 74.752726 
L 573.461967 74.516745 
L 574.75603 74.516745 
L 574.75603 74.331578 
L 577.344156 74.240163 
L 577.344156 74.041714 
L 578.638219 74.041714 
L 578.638219 73.873193 
L 579.932282 73.873193 
L 579.932282 73.759375 
L 581.226345 73.759375 
L 581.226345 73.629509 
L 582.520408 73.629509 
L 582.520408 73.467207 
L 583.814471 73.467207 
L 583.814471 73.324014 
L 585.108534 73.324014 
L 585.108534 73.190944 
L 587.69666 73.092199 
L 587.69666 73.018725 
L 590.284787 72.921524 
L 590.284787 72.83318 
L 592.872913 72.745548 
L 592.872913 72.690147 
L 595.461039 72.627175 
L 595.461039 72.525618 
L 596.755102 72.525618 
L 596.755102 72.409602 
L 600.637291 72.325304 
L 600.637291 72.249231 
L 604.519481 72.151126 
L 604.519481 72.068799 
L 608.40167 71.979693 
L 608.40167 71.95753 
L 612.283859 71.869327 
L 612.283859 71.796367 
L 614.871985 71.716672 
L 614.871985 71.66626 
L 618.754174 71.573252 
L 618.754174 71.523498 
L 622.636364 71.452813 
L 622.636364 71.452813 
" style="fill:none;stroke:#e24a33;stroke-linecap:square;stroke-width:3;"/>
   </g>
   <g id="patch_3">
    <path d="M 90 157.5 
L 90 21.6 
" style="fill:none;stroke:#ffffff;stroke-linecap:square;stroke-linejoin:miter;"/>
   </g>
   <g id="patch_4">
    <path d="M 648 157.5 
L 648 21.6 
" style="fill:none;stroke:#ffffff;stroke-linecap:square;stroke-linejoin:miter;"/>
   </g>
   <g id="patch_5">
    <path d="M 90 157.5 
L 648 157.5 
" style="fill:none;stroke:#ffffff;stroke-linecap:square;stroke-linejoin:miter;"/>
   </g>
   <g id="patch_6">
    <path d="M 90 21.6 
L 648 21.6 
" style="fill:none;stroke:#ffffff;stroke-linecap:square;stroke-linejoin:miter;"/>
   </g>
   <g id="legend_1">
    <g id="patch_7">
     <path d="M 507.9625 152.5 
L 641 152.5 
Q 643 152.5 643 150.5 
L 643 122.14375 
Q 643 120.14375 641 120.14375 
L 507.9625 120.14375 
Q 505.9625 120.14375 505.9625 122.14375 
L 505.9625 150.5 
Q 505.9625 152.5 507.9625 152.5 
z
" style="fill:#e5e5e5;opacity:0.8;stroke:#cccccc;stroke-linejoin:miter;stroke-width:0.5;"/>
    </g>
    <g id="line2d_26">
     <path d="M 509.9625 128.242188 
L 529.9625 128.242188 
" style="fill:none;stroke:#348abd;stroke-linecap:square;stroke-width:3;"/>
    </g>
    <g id="line2d_27"/>
    <g id="text_15">
     <text style="font-family:DejaVu Sans;font-size:10px;font-stretch:normal;font-style:normal;font-weight:normal;text-anchor:start;" transform="rotate(-0, 537.9625, 131.742188)" x="537.9625" y="131.742188">Korea, South cases</text>
    </g>
    <g id="line2d_28">
     <path d="M 509.9625 142.920312 
L 529.9625 142.920312 
" style="fill:none;stroke:#e24a33;stroke-linecap:square;stroke-width:3;"/>
    </g>
    <g id="line2d_29"/>
    <g id="text_16">
     <text style="font-family:DejaVu Sans;font-size:10px;font-stretch:normal;font-style:normal;font-weight:normal;text-anchor:start;" transform="rotate(-0, 537.9625, 146.420312)" x="537.9625" y="146.420312">Korea, South deaths</text>
    </g>
   </g>
  </g>
 </g>
 <defs>
  <clipPath id="p502574aa98">
   <rect height="135.9" width="558" x="90" y="21.6"/>
  </clipPath>
 </defs>
</svg>
