<?xml version="1.0" encoding="utf-8" standalone="no"?>
<!DOCTYPE svg PUBLIC "-//W3C//DTD SVG 1.1//EN"
  "http://www.w3.org/Graphics/SVG/1.1/DTD/svg11.dtd">
<!-- Created with matplotlib (https://matplotlib.org/) -->
<svg height="432pt" version="1.1" viewBox="0 0 720 432" width="720pt" xmlns="http://www.w3.org/2000/svg" xmlns:xlink="http://www.w3.org/1999/xlink">
 <defs>
  <style type="text/css">
*{stroke-linecap:butt;stroke-linejoin:round;}
  </style>
 </defs>
 <g id="figure_1">
  <g id="patch_1">
   <path d="M 0 432 
L 720 432 
L 720 0 
L 0 0 
z
" style="fill:#ffffff;"/>
  </g>
  <g id="axes_1">
   <g id="patch_2">
    <path d="M 59.328094 180.46875 
L 687.709406 180.46875 
L 687.709406 10 
L 59.328094 10 
z
" style="fill:#e5e5e5;"/>
   </g>
   <g id="matplotlib.axis_1">
    <g id="xtick_1">
     <g id="line2d_1">
      <path clip-path="url(#p24392072df)" d="M 66.23718 180.46875 
L 66.23718 10 
" style="fill:none;stroke:#ffffff;stroke-linecap:square;stroke-width:0.8;"/>
     </g>
     <g id="line2d_2">
      <defs>
       <path d="M 0 0 
L 0 3.5 
" id="mb514901ce0" style="stroke:#555555;stroke-width:0.8;"/>
      </defs>
      <g>
       <use style="fill:#555555;stroke:#555555;stroke-width:0.8;" x="66.23718" xlink:href="#mb514901ce0" y="180.46875"/>
      </g>
     </g>
     <g id="text_1">
      <!-- 0 -->
      <defs>
       <path d="M 25.09375 62.703125 
C 15.203125 62.703125 5 50.5 5 30.59375 
C 5 10.40625 15.296875 -1.203125 25.203125 -1.203125 
C 34.203125 -1.203125 44.90625 8.59375 44.90625 30.09375 
C 44.90625 51.296875 34.703125 62.703125 25.09375 62.703125 
z
M 34.796875 48.40625 
L 12.90625 20 
C 12 23.5 11.5 27.40625 11.5 31.796875 
C 11.5 47.796875 18.796875 56.59375 25 56.59375 
C 28.40625 56.59375 32.09375 53.90625 34.796875 48.40625 
z
M 37.09375 41.796875 
C 38 38.296875 38.40625 34.09375 38.40625 29.203125 
C 38.40625 11.796875 30.90625 5.203125 25.40625 5.203125 
C 21.703125 5.203125 17.90625 8.203125 15.203125 13.703125 
z
" id="Inconsolata-48"/>
      </defs>
      <g style="fill:#555555;" transform="translate(63.73718 194.109375)scale(0.1 -0.1)">
       <use xlink:href="#Inconsolata-48"/>
      </g>
     </g>
    </g>
    <g id="xtick_2">
     <g id="line2d_3">
      <path clip-path="url(#p24392072df)" d="M 204.418886 180.46875 
L 204.418886 10 
" style="fill:none;stroke:#ffffff;stroke-linecap:square;stroke-width:0.8;"/>
     </g>
     <g id="line2d_4">
      <g>
       <use style="fill:#555555;stroke:#555555;stroke-width:0.8;" x="204.418886" xlink:href="#mb514901ce0" y="180.46875"/>
      </g>
     </g>
     <g id="text_2">
      <!-- 20 -->
      <defs>
       <path d="M 7.703125 52.59375 
L 12.796875 48.5 
C 13.40625 49.40625 13.09375 50 13.703125 50.796875 
C 15.203125 53.09375 18.90625 56.5 24.296875 56.5 
C 31 56.5 36.296875 51.40625 36.296875 44.703125 
C 36.296875 37.09375 29.90625 31.59375 25.40625 27.5 
C 18.296875 21.09375 12.5 14.703125 7.296875 4.40625 
L 7.296875 0 
L 43.90625 0 
L 43.90625 6.90625 
C 43.203125 7.203125 42.703125 6.703125 42.5 6.5 
C 42.09375 6.09375 41.90625 6.09375 41.5 6.09375 
L 15.296875 6.09375 
C 20.5 15.09375 27.796875 21.296875 32.296875 25.5 
C 36.796875 29.796875 43.203125 36.203125 43.203125 45.203125 
C 43.203125 54.90625 35.296875 62.703125 25.203125 62.703125 
C 18.09375 62.703125 11.40625 58.90625 7.703125 52.59375 
z
" id="Inconsolata-50"/>
      </defs>
      <g style="fill:#555555;" transform="translate(199.418886 194.109375)scale(0.1 -0.1)">
       <use xlink:href="#Inconsolata-50"/>
       <use x="49.999985" xlink:href="#Inconsolata-48"/>
      </g>
     </g>
    </g>
    <g id="xtick_3">
     <g id="line2d_5">
      <path clip-path="url(#p24392072df)" d="M 342.600593 180.46875 
L 342.600593 10 
" style="fill:none;stroke:#ffffff;stroke-linecap:square;stroke-width:0.8;"/>
     </g>
     <g id="line2d_6">
      <g>
       <use style="fill:#555555;stroke:#555555;stroke-width:0.8;" x="342.600593" xlink:href="#mb514901ce0" y="180.46875"/>
      </g>
     </g>
     <g id="text_3">
      <!-- 40 -->
      <defs>
       <path d="M 31.296875 62.296875 
L 4.796875 22.40625 
L 4.796875 17.203125 
L 29.90625 17.203125 
L 29.90625 0 
L 37.09375 0 
L 37.09375 17.09375 
L 45.203125 17.09375 
L 45.203125 23.296875 
L 37.09375 23.296875 
L 37.09375 62.296875 
z
M 30 51.203125 
L 30 23.296875 
L 11.703125 23.296875 
z
" id="Inconsolata-52"/>
      </defs>
      <g style="fill:#555555;" transform="translate(337.600593 194.109375)scale(0.1 -0.1)">
       <use xlink:href="#Inconsolata-52"/>
       <use x="49.999985" xlink:href="#Inconsolata-48"/>
      </g>
     </g>
    </g>
    <g id="xtick_4">
     <g id="line2d_7">
      <path clip-path="url(#p24392072df)" d="M 480.7823 180.46875 
L 480.7823 10 
" style="fill:none;stroke:#ffffff;stroke-linecap:square;stroke-width:0.8;"/>
     </g>
     <g id="line2d_8">
      <g>
       <use style="fill:#555555;stroke:#555555;stroke-width:0.8;" x="480.7823" xlink:href="#mb514901ce0" y="180.46875"/>
      </g>
     </g>
     <g id="text_4">
      <!-- 60 -->
      <defs>
       <path d="M 28.703125 63 
C 21.203125 63 13.203125 58.40625 9.296875 47.5 
C 7.203125 41.59375 6.703125 34.296875 6.703125 28.296875 
C 6.703125 21 7.40625 13.203125 11.40625 7.203125 
C 15 1.703125 20.59375 -1.09375 26.09375 -1.09375 
C 35.59375 -1.09375 43.90625 6.90625 43.90625 19.796875 
C 43.90625 32.703125 35.59375 40.203125 26.796875 40.203125 
C 21.40625 40.203125 16.296875 37.296875 13.59375 32.703125 
C 14 54 24.203125 56.796875 28.703125 56.796875 
C 32.796875 56.796875 35.59375 54.59375 36 54.203125 
C 36.59375 53.5 36.59375 52.59375 37.5 51.90625 
L 42.296875 57.296875 
C 38.703125 60.90625 33.703125 63 28.703125 63 
z
M 26.09375 34 
C 31.09375 34 37.09375 30.09375 37.09375 19.40625 
C 37.09375 9.703125 31.703125 5.09375 26.40625 5.09375 
C 18.796875 5.09375 13.09375 14 13.90625 25.703125 
C 16.703125 30.796875 21.5 34 26.09375 34 
z
" id="Inconsolata-54"/>
      </defs>
      <g style="fill:#555555;" transform="translate(475.7823 194.109375)scale(0.1 -0.1)">
       <use xlink:href="#Inconsolata-54"/>
       <use x="49.999985" xlink:href="#Inconsolata-48"/>
      </g>
     </g>
    </g>
    <g id="xtick_5">
     <g id="line2d_9">
      <path clip-path="url(#p24392072df)" d="M 618.964006 180.46875 
L 618.964006 10 
" style="fill:none;stroke:#ffffff;stroke-linecap:square;stroke-width:0.8;"/>
     </g>
     <g id="line2d_10">
      <g>
       <use style="fill:#555555;stroke:#555555;stroke-width:0.8;" x="618.964006" xlink:href="#mb514901ce0" y="180.46875"/>
      </g>
     </g>
     <g id="text_5">
      <!-- 80 -->
      <defs>
       <path d="M 25.796875 63 
C 16.203125 63 8.90625 56.09375 8.90625 47.703125 
C 8.90625 41.59375 12.796875 36 18.40625 33.09375 
C 11 29.59375 6 22.796875 6 15.59375 
C 6 6.296875 14.203125 -1.09375 24.90625 -1.09375 
C 35.796875 -1.09375 44.09375 6.5 44.09375 16 
C 44.09375 23.40625 39.09375 30 32.09375 33.296875 
C 38.09375 36.40625 42 42.296875 42 48.296875 
C 42 56.5 34.90625 63 25.796875 63 
z
M 23.703125 30.203125 
C 31.703125 27.703125 37 22.203125 37 16.09375 
C 37 10.09375 31.90625 5.203125 25.203125 5.203125 
C 18.40625 5.203125 13.203125 10.296875 13.203125 16.5 
C 13.203125 22.40625 17.796875 27.796875 23.703125 30.203125 
z
M 25.203125 57.203125 
C 30.796875 57.203125 35.203125 53 35.203125 47.796875 
C 35.203125 43 31.5 38.40625 26.59375 35.796875 
C 26.59375 35.796875 15.59375 40 15.59375 48.296875 
C 15.59375 53.203125 19.796875 57.203125 25.203125 57.203125 
z
" id="Inconsolata-56"/>
      </defs>
      <g style="fill:#555555;" transform="translate(613.964006 194.109375)scale(0.1 -0.1)">
       <use xlink:href="#Inconsolata-56"/>
       <use x="49.999985" xlink:href="#Inconsolata-48"/>
      </g>
     </g>
    </g>
    <g id="text_6">
     <!-- days since 10 cases -->
     <defs>
      <path d="M 37.09375 39 
C 34.90625 43.703125 30 46.796875 23.703125 46.796875 
C 15 46.796875 4.40625 40.59375 4.40625 23.203125 
C 4.40625 6.296875 13.796875 -1.09375 22.59375 -1.09375 
C 28.40625 -1.09375 33.796875 2.203125 36.703125 7.296875 
L 36.703125 3.296875 
C 36.703125 2.203125 36.796875 1.09375 37.09375 0 
L 44.296875 0 
C 43.90625 1.296875 43.90625 2.796875 43.90625 4.203125 
L 43.796875 63.59375 
C 43.796875 64.203125 43.796875 64.40625 44.203125 65 
C 44.40625 65.296875 44.796875 65.796875 44.703125 66.5 
L 37.09375 66.5 
z
M 24 40.90625 
C 28 40.90625 33.90625 38.796875 35.703125 32 
C 36.296875 29.90625 36.5 27.40625 36.5 22.296875 
C 36.5 18.796875 36.296875 16.296875 35.5 13.90625 
C 33.796875 8.5 29 5.296875 24.296875 5.296875 
C 19.09375 5.296875 11.40625 9.296875 11.40625 24.296875 
C 11.40625 37.40625 18.703125 40.90625 24 40.90625 
z
" id="Inconsolata-100"/>
      <path d="M 9 40.296875 
L 12.5 35.703125 
C 16.296875 39.59375 21.40625 40.796875 25.703125 40.796875 
C 31.09375 40.796875 33.796875 38.5 35.09375 36.40625 
C 36.59375 33.90625 36.5 30.90625 36.5 28.5 
L 36.5 26.90625 
L 35.09375 26.90625 
C 28.296875 26.90625 21.09375 26.90625 15.296875 24.796875 
C 8.09375 22.203125 4.90625 16.796875 4.90625 11.796875 
C 4.90625 5.09375 10.703125 -1.203125 20.203125 -1.203125 
C 25.796875 -1.203125 31.59375 0.90625 36.59375 5 
L 36.59375 0 
L 43.40625 0 
L 43.40625 28.296875 
C 43.40625 32 43.296875 35.5 41.203125 39.09375 
C 38.203125 44 32.40625 46.59375 25.296875 46.59375 
C 19.203125 46.59375 13.296875 44.703125 9 40.296875 
z
M 36.796875 21.40625 
L 36.796875 18.296875 
C 36.796875 16 36.796875 13 33.703125 9.703125 
C 32 8 27.703125 4.296875 21.703125 4.296875 
C 15.59375 4.296875 12.09375 8.203125 12.09375 12.203125 
C 12.09375 15.59375 14.40625 19.296875 20.09375 20.703125 
C 24.296875 21.703125 30.40625 21.40625 35.203125 21.40625 
z
" id="Inconsolata-97"/>
      <path d="M 4.5 45.59375 
L 23.09375 0.09375 
L 21.59375 -3.203125 
C 20.796875 -5.09375 19.90625 -7 18.5 -8.5 
C 16.59375 -10.59375 14.203125 -11.5 12.09375 -11.5 
C 8.703125 -11.5 7 -9.203125 6.703125 -8.796875 
C 6.40625 -8.296875 6.5 -7.59375 5.90625 -7.09375 
L 2.203125 -13.59375 
C 4.796875 -16.09375 8.296875 -17.40625 12.09375 -17.40625 
C 16.203125 -17.40625 20.5 -15.90625 23.5 -12.5 
C 25.5 -10.203125 26.5 -7.796875 27.5 -5.203125 
L 41.703125 32.5 
C 43.40625 36.796875 44.90625 41.203125 46.296875 45.703125 
L 38.796875 45.703125 
C 38 41.5 36.703125 37.5 35.296875 33.5 
L 26.59375 9 
L 13.203125 42.703125 
C 13.09375 43 13.09375 43.203125 13.09375 43.5 
C 13.09375 44.203125 13.59375 44.703125 13.5 45.59375 
z
" id="Inconsolata-121"/>
      <path d="M 43.203125 39.59375 
C 39 44.203125 32.90625 46.703125 26.09375 46.703125 
C 15.5 46.703125 8.59375 40.796875 8.59375 34 
C 8.59375 26 17.203125 23.09375 19.703125 22.203125 
C 23.59375 20.796875 28.59375 19.59375 32 18 
C 35.796875 16.203125 36.5 13.796875 36.5 12.203125 
C 36.5 7.90625 31.296875 5 24.796875 5 
C 17 5 12 9.703125 10.5 11.296875 
C 10.203125 11.703125 10.203125 12 10.203125 12.40625 
C 10.203125 12.5 10.296875 13.09375 9.796875 13.296875 
L 5.59375 6.203125 
C 11 1.203125 18 -1.09375 24.90625 -1.09375 
C 37.40625 -1.09375 43.90625 6.296875 43.90625 13.203125 
C 43.90625 16.296875 42.59375 20.5 37.203125 23.5 
C 32.09375 26.40625 24.703125 27.40625 20.40625 29.5 
C 16.703125 31.296875 15.90625 33.5 15.90625 35.09375 
C 15.90625 38.703125 20.40625 41.296875 25.5 41.296875 
C 32.09375 41.296875 36.5 37.296875 38.203125 35 
C 38.5 34.703125 38.40625 34.40625 38.40625 34.09375 
C 38.40625 33.5 38.796875 33.296875 39 33.296875 
z
" id="Inconsolata-115"/>
      <path id="Inconsolata-32"/>
      <path d="M 10.59375 45.703125 
L 10.59375 39.796875 
L 21.59375 39.796875 
L 21.59375 5.703125 
L 10 5.703125 
L 10 0 
L 39.59375 0 
L 39.59375 5.703125 
L 28.90625 5.703125 
L 28.90625 45.703125 
z
M 25.40625 65.5 
C 22.5 65.5 20.203125 63.203125 20.203125 60.40625 
C 20.203125 57.59375 22.5 55.296875 25.40625 55.296875 
C 28.296875 55.296875 30.59375 57.59375 30.59375 60.40625 
C 30.59375 63.203125 28.296875 65.5 25.40625 65.5 
z
" id="Inconsolata-105"/>
      <path d="M 6.796875 0 
L 14.09375 0 
L 14.09375 26.296875 
C 14.09375 29.296875 14.5 31.59375 16.40625 34.09375 
C 18.09375 36.40625 22.5 40.5 27.296875 40.5 
C 29.59375 40.5 31.90625 39.5 33.5 37.59375 
C 36 34.59375 36 30.703125 36 27.5 
L 36 0 
L 43.09375 0 
L 43.09375 27.703125 
C 43.09375 31.203125 43.09375 35 41.5 38.703125 
C 39.203125 43.796875 34.5 46.703125 29.296875 46.703125 
C 23.09375 46.703125 17.5 42.703125 14.09375 37.59375 
L 14.09375 45.59375 
L 6.796875 45.59375 
z
" id="Inconsolata-110"/>
      <path d="M 45.59375 38.09375 
C 42 43.40625 35.90625 46.59375 28.5 46.59375 
C 15.09375 46.59375 5.59375 36.5 5.59375 22.796875 
C 5.59375 9 15.09375 -1.203125 28.09375 -1.203125 
C 34.40625 -1.203125 40.59375 1.40625 44.90625 6.09375 
L 40.796875 10.90625 
C 37.703125 7.40625 33.203125 5.40625 28.703125 5.40625 
C 19.796875 5.40625 13 12.796875 13 23.5 
C 13 33.90625 19.703125 40.40625 28.09375 40.40625 
C 35.90625 40.40625 39.59375 35 39.90625 34.40625 
C 40.296875 33.703125 39.703125 32.703125 40.5 32.09375 
z
" id="Inconsolata-99"/>
      <path d="M 25.796875 46.703125 
C 14.90625 46.703125 4.796875 38.90625 4.796875 22.296875 
C 4.796875 7 14.296875 -1.09375 26.703125 -1.09375 
C 33.296875 -1.09375 39.203125 1.296875 43.09375 6 
L 39.09375 9.90625 
C 36.203125 6.5 31.796875 4.703125 27.296875 4.703125 
C 21.203125 4.703125 12.296875 8.09375 11.796875 21.796875 
L 44.203125 21.796875 
C 44.5 24.90625 44.40625 27.90625 43.90625 30.5 
C 41.796875 42.796875 33.296875 46.703125 25.796875 46.703125 
z
M 12 27.296875 
C 13.5 38.09375 20.40625 41.203125 25.296875 41.203125 
C 32.703125 41.203125 38 34.703125 37.09375 27.296875 
z
" id="Inconsolata-101"/>
      <path d="M 29.90625 62.296875 
L 25.09375 62.296875 
L 8.796875 53.796875 
L 10.40625 49.90625 
L 22.90625 53.59375 
L 22.90625 -0.09375 
L 29.90625 -0.09375 
z
" id="Inconsolata-49"/>
     </defs>
     <g style="fill:#555555;" transform="translate(316.51875 207.759688)scale(0.12 -0.12)">
      <use xlink:href="#Inconsolata-100"/>
      <use x="49.999985" xlink:href="#Inconsolata-97"/>
      <use x="99.999969" xlink:href="#Inconsolata-121"/>
      <use x="149.999954" xlink:href="#Inconsolata-115"/>
      <use x="199.999939" xlink:href="#Inconsolata-32"/>
      <use x="249.999924" xlink:href="#Inconsolata-115"/>
      <use x="299.999908" xlink:href="#Inconsolata-105"/>
      <use x="349.999893" xlink:href="#Inconsolata-110"/>
      <use x="399.999878" xlink:href="#Inconsolata-99"/>
      <use x="449.999863" xlink:href="#Inconsolata-101"/>
      <use x="499.999847" xlink:href="#Inconsolata-32"/>
      <use x="549.999832" xlink:href="#Inconsolata-49"/>
      <use x="599.999817" xlink:href="#Inconsolata-48"/>
      <use x="649.999802" xlink:href="#Inconsolata-32"/>
      <use x="699.999786" xlink:href="#Inconsolata-99"/>
      <use x="749.999771" xlink:href="#Inconsolata-97"/>
      <use x="799.999756" xlink:href="#Inconsolata-115"/>
      <use x="849.999741" xlink:href="#Inconsolata-101"/>
      <use x="899.999725" xlink:href="#Inconsolata-115"/>
     </g>
    </g>
   </g>
   <g id="matplotlib.axis_2">
    <g id="ytick_1">
     <g id="line2d_11">
      <path clip-path="url(#p24392072df)" d="M 59.328094 180.46875 
L 687.709406 180.46875 
" style="fill:none;stroke:#ffffff;stroke-linecap:square;stroke-width:0.8;"/>
     </g>
     <g id="line2d_12">
      <defs>
       <path d="M 0 0 
L -3.5 0 
" id="m36daaba535" style="stroke:#555555;stroke-width:0.8;"/>
      </defs>
      <g>
       <use style="fill:#555555;stroke:#555555;stroke-width:0.8;" x="59.328094" xlink:href="#m36daaba535" y="180.46875"/>
      </g>
     </g>
     <g id="line2d_13">
      <defs>
       <path d="M 0 0 
L 3.5 0 
" id="mde4082ca0a" style="stroke:#555555;stroke-width:0.8;"/>
      </defs>
      <g>
       <use style="fill:#555555;stroke:#555555;stroke-width:0.8;" x="687.709406" xlink:href="#mde4082ca0a" y="180.46875"/>
      </g>
     </g>
     <g id="text_7">
      <!-- $\mathdefault{10^{1}}$ -->
      <g style="fill:#555555;" transform="translate(38.428094 183.789063)scale(0.1 -0.1)">
       <use transform="translate(0 0.4)" xlink:href="#Inconsolata-49"/>
       <use transform="translate(49.999985 0.4)" xlink:href="#Inconsolata-48"/>
       <use transform="translate(100.799774 32.392188)scale(0.7)" xlink:href="#Inconsolata-49"/>
      </g>
     </g>
     <g id="text_8">
      <!-- $\mathdefault{10^{1}}$ -->
      <g style="fill:#555555;" transform="translate(694.709406 183.789063)scale(0.1 -0.1)">
       <use transform="translate(0 0.4)" xlink:href="#Inconsolata-49"/>
       <use transform="translate(49.999985 0.4)" xlink:href="#Inconsolata-48"/>
       <use transform="translate(100.799774 32.392188)scale(0.7)" xlink:href="#Inconsolata-49"/>
      </g>
     </g>
    </g>
    <g id="ytick_2">
     <g id="line2d_14">
      <path clip-path="url(#p24392072df)" d="M 59.328094 135.213887 
L 687.709406 135.213887 
" style="fill:none;stroke:#ffffff;stroke-linecap:square;stroke-width:0.8;"/>
     </g>
     <g id="line2d_15">
      <g>
       <use style="fill:#555555;stroke:#555555;stroke-width:0.8;" x="59.328094" xlink:href="#m36daaba535" y="135.213887"/>
      </g>
     </g>
     <g id="line2d_16">
      <g>
       <use style="fill:#555555;stroke:#555555;stroke-width:0.8;" x="687.709406" xlink:href="#mde4082ca0a" y="135.213887"/>
      </g>
     </g>
     <g id="text_9">
      <!-- $\mathdefault{10^{2}}$ -->
      <g style="fill:#555555;" transform="translate(38.428094 138.534199)scale(0.1 -0.1)">
       <use transform="translate(0 0.115625)" xlink:href="#Inconsolata-49"/>
       <use transform="translate(49.999985 0.115625)" xlink:href="#Inconsolata-48"/>
       <use transform="translate(100.799774 32.107813)scale(0.7)" xlink:href="#Inconsolata-50"/>
      </g>
     </g>
     <g id="text_10">
      <!-- $\mathdefault{10^{2}}$ -->
      <g style="fill:#555555;" transform="translate(694.709406 138.534199)scale(0.1 -0.1)">
       <use transform="translate(0 0.115625)" xlink:href="#Inconsolata-49"/>
       <use transform="translate(49.999985 0.115625)" xlink:href="#Inconsolata-48"/>
       <use transform="translate(100.799774 32.107813)scale(0.7)" xlink:href="#Inconsolata-50"/>
      </g>
     </g>
    </g>
    <g id="ytick_3">
     <g id="line2d_17">
      <path clip-path="url(#p24392072df)" d="M 59.328094 89.959024 
L 687.709406 89.959024 
" style="fill:none;stroke:#ffffff;stroke-linecap:square;stroke-width:0.8;"/>
     </g>
     <g id="line2d_18">
      <g>
       <use style="fill:#555555;stroke:#555555;stroke-width:0.8;" x="59.328094" xlink:href="#m36daaba535" y="89.959024"/>
      </g>
     </g>
     <g id="line2d_19">
      <g>
       <use style="fill:#555555;stroke:#555555;stroke-width:0.8;" x="687.709406" xlink:href="#mde4082ca0a" y="89.959024"/>
      </g>
     </g>
     <g id="text_11">
      <!-- $\mathdefault{10^{3}}$ -->
      <defs>
       <path d="M 41 46.703125 
C 41 55.203125 33.796875 62.5 23.90625 62.5 
C 18.296875 62.5 12.796875 60.09375 8.90625 55.796875 
L 12.796875 51.5 
C 15.703125 54.59375 19.703125 56.296875 23.59375 56.296875 
C 30 56.296875 34.40625 51.796875 34.40625 46.5 
C 34.40625 42.796875 32.09375 38.59375 27.703125 36.703125 
C 26.59375 36.296875 23.796875 35.203125 17.90625 35.203125 
L 17.90625 29.59375 
C 18.90625 29.703125 20 29.796875 21.09375 29.796875 
C 29.5 29.796875 35.703125 25.40625 35.703125 17.90625 
C 35.703125 11.09375 30.5 5.203125 23.203125 5.203125 
C 17.40625 5.203125 13.90625 9 13.40625 9.5 
C 12.59375 10.40625 13 11.40625 12.09375 12.296875 
L 6.90625 6 
C 11 1.296875 17 -1.09375 23.203125 -1.09375 
C 35.203125 -1.09375 42.40625 7.40625 42.40625 17.09375 
C 42.40625 24.5 38.203125 30.796875 31.703125 33.203125 
C 37.296875 35.296875 41 40.59375 41 46.703125 
z
" id="Inconsolata-51"/>
      </defs>
      <g style="fill:#555555;" transform="translate(38.428094 93.279336)scale(0.1 -0.1)">
       <use transform="translate(0 0.257812)" xlink:href="#Inconsolata-49"/>
       <use transform="translate(49.999985 0.257812)" xlink:href="#Inconsolata-48"/>
       <use transform="translate(100.799774 32.25)scale(0.7)" xlink:href="#Inconsolata-51"/>
      </g>
     </g>
     <g id="text_12">
      <!-- $\mathdefault{10^{3}}$ -->
      <g style="fill:#555555;" transform="translate(694.709406 93.279336)scale(0.1 -0.1)">
       <use transform="translate(0 0.257812)" xlink:href="#Inconsolata-49"/>
       <use transform="translate(49.999985 0.257812)" xlink:href="#Inconsolata-48"/>
       <use transform="translate(100.799774 32.25)scale(0.7)" xlink:href="#Inconsolata-51"/>
      </g>
     </g>
    </g>
    <g id="ytick_4">
     <g id="line2d_20">
      <path clip-path="url(#p24392072df)" d="M 59.328094 44.704161 
L 687.709406 44.704161 
" style="fill:none;stroke:#ffffff;stroke-linecap:square;stroke-width:0.8;"/>
     </g>
     <g id="line2d_21">
      <g>
       <use style="fill:#555555;stroke:#555555;stroke-width:0.8;" x="59.328094" xlink:href="#m36daaba535" y="44.704161"/>
      </g>
     </g>
     <g id="line2d_22">
      <g>
       <use style="fill:#555555;stroke:#555555;stroke-width:0.8;" x="687.709406" xlink:href="#mde4082ca0a" y="44.704161"/>
      </g>
     </g>
     <g id="text_13">
      <!-- $\mathdefault{10^{4}}$ -->
      <g style="fill:#555555;" transform="translate(38.428094 48.024473)scale(0.1 -0.1)">
       <use transform="translate(0 0.4)" xlink:href="#Inconsolata-49"/>
       <use transform="translate(49.999985 0.4)" xlink:href="#Inconsolata-48"/>
       <use transform="translate(100.799774 32.392188)scale(0.7)" xlink:href="#Inconsolata-52"/>
      </g>
     </g>
     <g id="text_14">
      <!-- $\mathdefault{10^{4}}$ -->
      <g style="fill:#555555;" transform="translate(694.709406 48.024473)scale(0.1 -0.1)">
       <use transform="translate(0 0.4)" xlink:href="#Inconsolata-49"/>
       <use transform="translate(49.999985 0.4)" xlink:href="#Inconsolata-48"/>
       <use transform="translate(100.799774 32.392188)scale(0.7)" xlink:href="#Inconsolata-52"/>
      </g>
     </g>
    </g>
    <g id="ytick_5">
     <g id="line2d_23">
      <defs>
       <path d="M 0 0 
L -2 0 
" id="m4ef68b39d4" style="stroke:#555555;stroke-width:0.6;"/>
      </defs>
      <g>
       <use style="fill:#555555;stroke:#555555;stroke-width:0.6;" x="59.328094" xlink:href="#m4ef68b39d4" y="166.845679"/>
      </g>
     </g>
     <g id="line2d_24">
      <defs>
       <path d="M 0 0 
L 2 0 
" id="m87524e7186" style="stroke:#555555;stroke-width:0.6;"/>
      </defs>
      <g>
       <use style="fill:#555555;stroke:#555555;stroke-width:0.6;" x="687.709406" xlink:href="#m87524e7186" y="166.845679"/>
      </g>
     </g>
    </g>
    <g id="ytick_6">
     <g id="line2d_25">
      <g>
       <use style="fill:#555555;stroke:#555555;stroke-width:0.6;" x="59.328094" xlink:href="#m4ef68b39d4" y="158.876693"/>
      </g>
     </g>
     <g id="line2d_26">
      <g>
       <use style="fill:#555555;stroke:#555555;stroke-width:0.6;" x="687.709406" xlink:href="#m87524e7186" y="158.876693"/>
      </g>
     </g>
    </g>
    <g id="ytick_7">
     <g id="line2d_27">
      <g>
       <use style="fill:#555555;stroke:#555555;stroke-width:0.6;" x="59.328094" xlink:href="#m4ef68b39d4" y="153.222608"/>
      </g>
     </g>
     <g id="line2d_28">
      <g>
       <use style="fill:#555555;stroke:#555555;stroke-width:0.6;" x="687.709406" xlink:href="#m87524e7186" y="153.222608"/>
      </g>
     </g>
    </g>
    <g id="ytick_8">
     <g id="line2d_29">
      <g>
       <use style="fill:#555555;stroke:#555555;stroke-width:0.6;" x="59.328094" xlink:href="#m4ef68b39d4" y="148.836958"/>
      </g>
     </g>
     <g id="line2d_30">
      <g>
       <use style="fill:#555555;stroke:#555555;stroke-width:0.6;" x="687.709406" xlink:href="#m87524e7186" y="148.836958"/>
      </g>
     </g>
    </g>
    <g id="ytick_9">
     <g id="line2d_31">
      <g>
       <use style="fill:#555555;stroke:#555555;stroke-width:0.6;" x="59.328094" xlink:href="#m4ef68b39d4" y="145.253622"/>
      </g>
     </g>
     <g id="line2d_32">
      <g>
       <use style="fill:#555555;stroke:#555555;stroke-width:0.6;" x="687.709406" xlink:href="#m87524e7186" y="145.253622"/>
      </g>
     </g>
    </g>
    <g id="ytick_10">
     <g id="line2d_33">
      <g>
       <use style="fill:#555555;stroke:#555555;stroke-width:0.6;" x="59.328094" xlink:href="#m4ef68b39d4" y="142.223954"/>
      </g>
     </g>
     <g id="line2d_34">
      <g>
       <use style="fill:#555555;stroke:#555555;stroke-width:0.6;" x="687.709406" xlink:href="#m87524e7186" y="142.223954"/>
      </g>
     </g>
    </g>
    <g id="ytick_11">
     <g id="line2d_35">
      <g>
       <use style="fill:#555555;stroke:#555555;stroke-width:0.6;" x="59.328094" xlink:href="#m4ef68b39d4" y="139.599536"/>
      </g>
     </g>
     <g id="line2d_36">
      <g>
       <use style="fill:#555555;stroke:#555555;stroke-width:0.6;" x="687.709406" xlink:href="#m87524e7186" y="139.599536"/>
      </g>
     </g>
    </g>
    <g id="ytick_12">
     <g id="line2d_37">
      <g>
       <use style="fill:#555555;stroke:#555555;stroke-width:0.6;" x="59.328094" xlink:href="#m4ef68b39d4" y="137.284636"/>
      </g>
     </g>
     <g id="line2d_38">
      <g>
       <use style="fill:#555555;stroke:#555555;stroke-width:0.6;" x="687.709406" xlink:href="#m87524e7186" y="137.284636"/>
      </g>
     </g>
    </g>
    <g id="ytick_13">
     <g id="line2d_39">
      <g>
       <use style="fill:#555555;stroke:#555555;stroke-width:0.6;" x="59.328094" xlink:href="#m4ef68b39d4" y="121.590816"/>
      </g>
     </g>
     <g id="line2d_40">
      <g>
       <use style="fill:#555555;stroke:#555555;stroke-width:0.6;" x="687.709406" xlink:href="#m87524e7186" y="121.590816"/>
      </g>
     </g>
    </g>
    <g id="ytick_14">
     <g id="line2d_41">
      <g>
       <use style="fill:#555555;stroke:#555555;stroke-width:0.6;" x="59.328094" xlink:href="#m4ef68b39d4" y="113.62183"/>
      </g>
     </g>
     <g id="line2d_42">
      <g>
       <use style="fill:#555555;stroke:#555555;stroke-width:0.6;" x="687.709406" xlink:href="#m87524e7186" y="113.62183"/>
      </g>
     </g>
    </g>
    <g id="ytick_15">
     <g id="line2d_43">
      <g>
       <use style="fill:#555555;stroke:#555555;stroke-width:0.6;" x="59.328094" xlink:href="#m4ef68b39d4" y="107.967744"/>
      </g>
     </g>
     <g id="line2d_44">
      <g>
       <use style="fill:#555555;stroke:#555555;stroke-width:0.6;" x="687.709406" xlink:href="#m87524e7186" y="107.967744"/>
      </g>
     </g>
    </g>
    <g id="ytick_16">
     <g id="line2d_45">
      <g>
       <use style="fill:#555555;stroke:#555555;stroke-width:0.6;" x="59.328094" xlink:href="#m4ef68b39d4" y="103.582095"/>
      </g>
     </g>
     <g id="line2d_46">
      <g>
       <use style="fill:#555555;stroke:#555555;stroke-width:0.6;" x="687.709406" xlink:href="#m87524e7186" y="103.582095"/>
      </g>
     </g>
    </g>
    <g id="ytick_17">
     <g id="line2d_47">
      <g>
       <use style="fill:#555555;stroke:#555555;stroke-width:0.6;" x="59.328094" xlink:href="#m4ef68b39d4" y="99.998759"/>
      </g>
     </g>
     <g id="line2d_48">
      <g>
       <use style="fill:#555555;stroke:#555555;stroke-width:0.6;" x="687.709406" xlink:href="#m87524e7186" y="99.998759"/>
      </g>
     </g>
    </g>
    <g id="ytick_18">
     <g id="line2d_49">
      <g>
       <use style="fill:#555555;stroke:#555555;stroke-width:0.6;" x="59.328094" xlink:href="#m4ef68b39d4" y="96.969091"/>
      </g>
     </g>
     <g id="line2d_50">
      <g>
       <use style="fill:#555555;stroke:#555555;stroke-width:0.6;" x="687.709406" xlink:href="#m87524e7186" y="96.969091"/>
      </g>
     </g>
    </g>
    <g id="ytick_19">
     <g id="line2d_51">
      <g>
       <use style="fill:#555555;stroke:#555555;stroke-width:0.6;" x="59.328094" xlink:href="#m4ef68b39d4" y="94.344673"/>
      </g>
     </g>
     <g id="line2d_52">
      <g>
       <use style="fill:#555555;stroke:#555555;stroke-width:0.6;" x="687.709406" xlink:href="#m87524e7186" y="94.344673"/>
      </g>
     </g>
    </g>
    <g id="ytick_20">
     <g id="line2d_53">
      <g>
       <use style="fill:#555555;stroke:#555555;stroke-width:0.6;" x="59.328094" xlink:href="#m4ef68b39d4" y="92.029773"/>
      </g>
     </g>
     <g id="line2d_54">
      <g>
       <use style="fill:#555555;stroke:#555555;stroke-width:0.6;" x="687.709406" xlink:href="#m87524e7186" y="92.029773"/>
      </g>
     </g>
    </g>
    <g id="ytick_21">
     <g id="line2d_55">
      <g>
       <use style="fill:#555555;stroke:#555555;stroke-width:0.6;" x="59.328094" xlink:href="#m4ef68b39d4" y="76.335953"/>
      </g>
     </g>
     <g id="line2d_56">
      <g>
       <use style="fill:#555555;stroke:#555555;stroke-width:0.6;" x="687.709406" xlink:href="#m87524e7186" y="76.335953"/>
      </g>
     </g>
    </g>
    <g id="ytick_22">
     <g id="line2d_57">
      <g>
       <use style="fill:#555555;stroke:#555555;stroke-width:0.6;" x="59.328094" xlink:href="#m4ef68b39d4" y="68.366967"/>
      </g>
     </g>
     <g id="line2d_58">
      <g>
       <use style="fill:#555555;stroke:#555555;stroke-width:0.6;" x="687.709406" xlink:href="#m87524e7186" y="68.366967"/>
      </g>
     </g>
    </g>
    <g id="ytick_23">
     <g id="line2d_59">
      <g>
       <use style="fill:#555555;stroke:#555555;stroke-width:0.6;" x="59.328094" xlink:href="#m4ef68b39d4" y="62.712881"/>
      </g>
     </g>
     <g id="line2d_60">
      <g>
       <use style="fill:#555555;stroke:#555555;stroke-width:0.6;" x="687.709406" xlink:href="#m87524e7186" y="62.712881"/>
      </g>
     </g>
    </g>
    <g id="ytick_24">
     <g id="line2d_61">
      <g>
       <use style="fill:#555555;stroke:#555555;stroke-width:0.6;" x="59.328094" xlink:href="#m4ef68b39d4" y="58.327232"/>
      </g>
     </g>
     <g id="line2d_62">
      <g>
       <use style="fill:#555555;stroke:#555555;stroke-width:0.6;" x="687.709406" xlink:href="#m87524e7186" y="58.327232"/>
      </g>
     </g>
    </g>
    <g id="ytick_25">
     <g id="line2d_63">
      <g>
       <use style="fill:#555555;stroke:#555555;stroke-width:0.6;" x="59.328094" xlink:href="#m4ef68b39d4" y="54.743896"/>
      </g>
     </g>
     <g id="line2d_64">
      <g>
       <use style="fill:#555555;stroke:#555555;stroke-width:0.6;" x="687.709406" xlink:href="#m87524e7186" y="54.743896"/>
      </g>
     </g>
    </g>
    <g id="ytick_26">
     <g id="line2d_65">
      <g>
       <use style="fill:#555555;stroke:#555555;stroke-width:0.6;" x="59.328094" xlink:href="#m4ef68b39d4" y="51.714228"/>
      </g>
     </g>
     <g id="line2d_66">
      <g>
       <use style="fill:#555555;stroke:#555555;stroke-width:0.6;" x="687.709406" xlink:href="#m87524e7186" y="51.714228"/>
      </g>
     </g>
    </g>
    <g id="ytick_27">
     <g id="line2d_67">
      <g>
       <use style="fill:#555555;stroke:#555555;stroke-width:0.6;" x="59.328094" xlink:href="#m4ef68b39d4" y="49.08981"/>
      </g>
     </g>
     <g id="line2d_68">
      <g>
       <use style="fill:#555555;stroke:#555555;stroke-width:0.6;" x="687.709406" xlink:href="#m87524e7186" y="49.08981"/>
      </g>
     </g>
    </g>
    <g id="ytick_28">
     <g id="line2d_69">
      <g>
       <use style="fill:#555555;stroke:#555555;stroke-width:0.6;" x="59.328094" xlink:href="#m4ef68b39d4" y="46.77491"/>
      </g>
     </g>
     <g id="line2d_70">
      <g>
       <use style="fill:#555555;stroke:#555555;stroke-width:0.6;" x="687.709406" xlink:href="#m87524e7186" y="46.77491"/>
      </g>
     </g>
    </g>
    <g id="ytick_29">
     <g id="line2d_71">
      <g>
       <use style="fill:#555555;stroke:#555555;stroke-width:0.6;" x="59.328094" xlink:href="#m4ef68b39d4" y="31.08109"/>
      </g>
     </g>
     <g id="line2d_72">
      <g>
       <use style="fill:#555555;stroke:#555555;stroke-width:0.6;" x="687.709406" xlink:href="#m87524e7186" y="31.08109"/>
      </g>
     </g>
    </g>
    <g id="ytick_30">
     <g id="line2d_73">
      <g>
       <use style="fill:#555555;stroke:#555555;stroke-width:0.6;" x="59.328094" xlink:href="#m4ef68b39d4" y="23.112104"/>
      </g>
     </g>
     <g id="line2d_74">
      <g>
       <use style="fill:#555555;stroke:#555555;stroke-width:0.6;" x="687.709406" xlink:href="#m87524e7186" y="23.112104"/>
      </g>
     </g>
    </g>
    <g id="ytick_31">
     <g id="line2d_75">
      <g>
       <use style="fill:#555555;stroke:#555555;stroke-width:0.6;" x="59.328094" xlink:href="#m4ef68b39d4" y="17.458018"/>
      </g>
     </g>
     <g id="line2d_76">
      <g>
       <use style="fill:#555555;stroke:#555555;stroke-width:0.6;" x="687.709406" xlink:href="#m87524e7186" y="17.458018"/>
      </g>
     </g>
    </g>
    <g id="ytick_32">
     <g id="line2d_77">
      <g>
       <use style="fill:#555555;stroke:#555555;stroke-width:0.6;" x="59.328094" xlink:href="#m4ef68b39d4" y="13.072369"/>
      </g>
     </g>
     <g id="line2d_78">
      <g>
       <use style="fill:#555555;stroke:#555555;stroke-width:0.6;" x="687.709406" xlink:href="#m87524e7186" y="13.072369"/>
      </g>
     </g>
    </g>
    <g id="text_15">
     <!-- daily new cases -->
     <defs>
      <path d="M 8.40625 66.40625 
L 8.40625 60.59375 
L 21.40625 60.59375 
L 21.40625 5.703125 
L 7.796875 5.703125 
L 7.796875 0 
L 42.09375 0 
L 42.09375 5.703125 
L 28.59375 5.703125 
L 28.59375 66.40625 
z
" id="Inconsolata-108"/>
      <path d="M 1.5 45.703125 
L 10.703125 -0.09375 
L 17.203125 -0.09375 
L 25.203125 29.5 
L 33.703125 -0.09375 
L 40.40625 -0.09375 
C 43.5 15 46.09375 30.296875 48 45.59375 
L 41.40625 45.59375 
C 41.59375 40.09375 41.09375 35 37.09375 9 
L 27.5 41.40625 
L 23.09375 41.40625 
L 15.203125 8.90625 
L 8.59375 41.90625 
C 8.40625 42.59375 8.40625 42.90625 8.703125 43.703125 
C 8.796875 44.203125 9.09375 44.90625 8.796875 45.703125 
z
" id="Inconsolata-119"/>
     </defs>
     <g style="fill:#555555;" transform="translate(20.649844 140.234375)rotate(-90)scale(0.12 -0.12)">
      <use xlink:href="#Inconsolata-100"/>
      <use x="49.999985" xlink:href="#Inconsolata-97"/>
      <use x="99.999969" xlink:href="#Inconsolata-105"/>
      <use x="149.999954" xlink:href="#Inconsolata-108"/>
      <use x="199.999939" xlink:href="#Inconsolata-121"/>
      <use x="249.999924" xlink:href="#Inconsolata-32"/>
      <use x="299.999908" xlink:href="#Inconsolata-110"/>
      <use x="349.999893" xlink:href="#Inconsolata-101"/>
      <use x="399.999878" xlink:href="#Inconsolata-119"/>
      <use x="449.999863" xlink:href="#Inconsolata-32"/>
      <use x="499.999847" xlink:href="#Inconsolata-99"/>
      <use x="549.999832" xlink:href="#Inconsolata-97"/>
      <use x="599.999817" xlink:href="#Inconsolata-115"/>
      <use x="649.999802" xlink:href="#Inconsolata-101"/>
      <use x="699.999786" xlink:href="#Inconsolata-115"/>
     </g>
     <!-- (rolling 7-day mean) -->
     <defs>
      <path d="M 39.09375 66.59375 
C 23.703125 59.796875 13.796875 44.09375 13.796875 25.796875 
C 13.796875 7.59375 23.40625 -9 39.203125 -17.296875 
L 42.5 -12 
C 28.796875 -4.09375 20.796875 10.59375 20.796875 26.09375 
C 20.796875 40.40625 27.703125 53.203125 39.40625 60 
C 39.59375 60.203125 39.90625 60.40625 40.296875 60.40625 
C 40.59375 60.40625 40.90625 60.203125 41.296875 60.203125 
C 41.5 60.203125 41.796875 60.296875 42.203125 60.40625 
z
" id="Inconsolata-40"/>
      <path d="M 9.90625 45.59375 
L 9.90625 -0.09375 
L 17.09375 -0.09375 
L 17.09375 22.09375 
C 17.09375 24.90625 17.203125 27.90625 20.296875 32.796875 
C 24.5 39.40625 29.90625 40.5 33.203125 40.5 
C 37 40.5 39.40625 38.703125 40.703125 37.09375 
C 41.296875 36.296875 41.59375 35.5 42.40625 34.796875 
L 45.796875 41.703125 
C 42.90625 44.703125 38.703125 46.703125 33.59375 46.703125 
C 26.90625 46.703125 20.09375 43.296875 17.09375 36.796875 
L 17.40625 45.59375 
z
" id="Inconsolata-114"/>
      <path d="M 46 22.59375 
C 46 38.40625 36 46.59375 25.59375 46.59375 
C 14 46.59375 4 36.59375 4 22.40625 
C 4 8.5 13.90625 -1.296875 25.40625 -1.296875 
C 36.203125 -1.296875 46 7.40625 46 22.59375 
z
M 25.09375 40.5 
C 31.703125 40.5 38.703125 34.796875 38.703125 22.296875 
C 38.703125 10.796875 32.09375 5 25.5 5 
C 18.203125 5 11.59375 11.796875 11.59375 23.09375 
C 11.59375 34.296875 18.09375 40.5 25.09375 40.5 
z
" id="Inconsolata-111"/>
      <path d="M 12.5 31.40625 
C 12.5 36.90625 17.09375 41.40625 22.59375 41.40625 
C 28.203125 41.40625 32.703125 36.90625 32.703125 31.40625 
C 32.703125 25.90625 28.203125 21.40625 22.59375 21.40625 
C 17 21.40625 12.5 25.90625 12.5 31.40625 
z
M 23 47.09375 
C 13.90625 47.09375 6 39.90625 6 31 
C 6 26 8.5 21.296875 12.703125 18.59375 
C 9.40625 15.796875 7.5 12.703125 7.5 9.796875 
C 7.5 7.90625 8.296875 5.203125 11.203125 3.703125 
C 6.296875 0.59375 3.796875 -2.796875 3.796875 -6.40625 
C 3.796875 -11.40625 8.40625 -17.296875 24.40625 -17.296875 
C 39.90625 -17.296875 45.5 -9.40625 45.5 -3.296875 
C 45.5 0.703125 43.203125 4.703125 38.40625 6.59375 
C 33.59375 8.59375 28.09375 7.90625 22.90625 7.90625 
C 19.5 7.90625 17.296875 8.203125 16.40625 8.5 
C 14.59375 9 13.59375 10.09375 13.59375 11.5 
C 13.59375 13.90625 16.40625 16.203125 16.90625 16.59375 
C 18.703125 15.90625 20.703125 15.59375 22.703125 15.59375 
C 31.703125 15.59375 39.09375 22.796875 39.09375 31.203125 
C 39.09375 34 38.296875 36.703125 36.796875 39 
C 39.203125 40.40625 42 41.203125 44.796875 41.203125 
C 45.703125 41.203125 46.5 41.09375 47.40625 40.90625 
L 46.59375 46.796875 
C 42 47.203125 37.40625 45.703125 33.90625 42.796875 
C 31 45.59375 27.203125 47.09375 23 47.09375 
z
M 16.09375 2.40625 
C 17.796875 2.203125 20.203125 2 23.703125 1.796875 
C 27.09375 1.703125 30.796875 2 33.40625 1.59375 
C 37.59375 0.90625 38.90625 -1.703125 38.90625 -3.703125 
C 38.90625 -5.703125 37.703125 -8.09375 34.59375 -9.796875 
C 31.203125 -11.59375 27.40625 -11.796875 24.296875 -11.796875 
C 22.203125 -11.796875 18.296875 -11.703125 14.90625 -10.296875 
C 11.203125 -8.796875 10.40625 -6.296875 10.40625 -4.703125 
C 10.40625 -1.40625 13.5 1 16.09375 2.40625 
z
" id="Inconsolata-103"/>
      <path d="M 7.796875 62.296875 
L 7.796875 55.59375 
L 34.5 55.59375 
C 31.296875 48.203125 28.296875 40.796875 25.40625 33.296875 
C 21.203125 22.296875 17.203125 11.203125 13.5 0 
L 21.40625 0 
C 24.40625 9.796875 27.703125 19.5 31.296875 29.09375 
C 34.90625 39 38.90625 48.703125 43.09375 58.40625 
L 43.09375 62.296875 
z
" id="Inconsolata-55"/>
      <path d="M 7 34.703125 
L 7 28.09375 
L 43 28.09375 
L 43 34.703125 
z
" id="Inconsolata-45"/>
      <path d="M 3.703125 0 
L 10.296875 0 
L 10.296875 30.40625 
C 10.296875 32.59375 10.5 34.59375 11.796875 37 
C 13.40625 40 15.40625 41.203125 17.296875 41.203125 
C 18.90625 41.203125 20.703125 40.203125 21.5 37.703125 
C 22.09375 35.796875 22 33.59375 22 31.703125 
L 22 0 
L 28.703125 0 
L 28.703125 30.203125 
C 28.703125 32.59375 28.90625 34.5 30.59375 37.40625 
C 31.40625 38.59375 33.09375 41.5 35.90625 41.5 
C 37.40625 41.5 38.796875 40.59375 39.5 38.90625 
C 40.40625 37 40.203125 34.40625 40.203125 32.296875 
L 40.203125 -0.09375 
L 47 -0.09375 
L 47 32.40625 
C 47 36.203125 47.09375 40 45.09375 43.09375 
C 43.40625 45.703125 40.5 46.703125 38 46.703125 
C 33.59375 46.703125 29.5 44.09375 27.703125 40.09375 
C 27 43.90625 23.796875 46.703125 19.703125 46.703125 
C 15.90625 46.703125 12.40625 44.296875 10.296875 41.09375 
L 10.40625 45.59375 
L 3.703125 45.59375 
z
" id="Inconsolata-109"/>
      <path d="M 7.703125 60.296875 
C 20.90625 53.203125 29.296875 39.59375 29.296875 24.703125 
C 29.296875 9.703125 20.703125 -4.296875 7.203125 -11.40625 
L 9.09375 -17.5 
C 25.703125 -9.59375 36.40625 7 36.40625 25 
C 36.40625 42.796875 25.90625 59 9.59375 66.5 
z
" id="Inconsolata-41"/>
     </defs>
     <g style="fill:#555555;" transform="translate(32.328094 155.234375)rotate(-90)scale(0.12 -0.12)">
      <use xlink:href="#Inconsolata-40"/>
      <use x="49.999985" xlink:href="#Inconsolata-114"/>
      <use x="99.999969" xlink:href="#Inconsolata-111"/>
      <use x="149.999954" xlink:href="#Inconsolata-108"/>
      <use x="199.999939" xlink:href="#Inconsolata-108"/>
      <use x="249.999924" xlink:href="#Inconsolata-105"/>
      <use x="299.999908" xlink:href="#Inconsolata-110"/>
      <use x="349.999893" xlink:href="#Inconsolata-103"/>
      <use x="399.999878" xlink:href="#Inconsolata-32"/>
      <use x="449.999863" xlink:href="#Inconsolata-55"/>
      <use x="499.999847" xlink:href="#Inconsolata-45"/>
      <use x="549.999832" xlink:href="#Inconsolata-100"/>
      <use x="599.999817" xlink:href="#Inconsolata-97"/>
      <use x="649.999802" xlink:href="#Inconsolata-121"/>
      <use x="699.999786" xlink:href="#Inconsolata-32"/>
      <use x="749.999771" xlink:href="#Inconsolata-109"/>
      <use x="799.999756" xlink:href="#Inconsolata-101"/>
      <use x="849.999741" xlink:href="#Inconsolata-97"/>
      <use x="899.999725" xlink:href="#Inconsolata-110"/>
      <use x="949.99971" xlink:href="#Inconsolata-41"/>
     </g>
    </g>
   </g>
   <g id="line2d_79">
    <path clip-path="url(#p24392072df)" d="M -1 215.13021 
L 4.055412 215.13021 
L 10.964497 220.784295 
L 17.873582 232.336617 
L 24.782668 236.722267 
L 31.691753 236.722267 
L 38.600838 236.722267 
L 45.509924 242.376352 
L 52.419009 242.376352 
L 59.328094 242.376352 
L 66.23718 178.852448 
L 73.146265 162.348041 
L 80.05535 145.968389 
L 86.964436 139.148499 
L 93.873521 132.515905 
L 100.782606 129.294863 
L 107.691692 124.135176 
L 114.600777 118.219193 
L 121.509862 113.315384 
L 128.418948 108.559153 
L 135.328033 105.752928 
L 142.237118 103.570867 
L 149.146204 99.956688 
L 156.055289 99.263946 
L 162.964374 99.435993 
L 169.87346 99.738438 
L 176.782545 101.50068 
L 183.69163 103.148902 
L 190.600716 105.696568 
L 197.509801 111.6045 
L 204.418886 113.306172 
L 211.327972 116.860059 
L 218.237057 121.788344 
L 225.146142 127.338715 
L 232.055228 131.444256 
L 238.964313 133.649374 
L 245.873398 132.418245 
L 252.782484 136.429982 
L 259.691569 135.326517 
L 266.600654 135.986975 
L 273.50974 134.852233 
L 280.418825 132.614052 
L 287.32791 134.524204 
L 294.236996 134.742281 
L 301.146081 134.551332 
L 308.055166 135.899559 
L 314.964252 135.783606 
L 321.873337 135.81253 
L 328.782422 137.535808 
L 335.691508 135.213887 
L 342.600593 133.884128 
L 349.509678 133.857905 
L 356.418764 134.254968 
L 363.327849 134.389125 
L 370.236934 135.841497 
L 377.14602 136.549824 
L 384.055105 137.504235 
L 390.96419 140.13316 
L 397.873276 141.94517 
L 404.782361 144.029105 
L 411.691446 146.811184 
L 418.600532 150.354038 
L 425.509617 153.576742 
L 432.418702 155.215519 
L 439.327788 156.834041 
L 446.236873 159.159488 
L 453.145958 160.843727 
L 460.055044 161.367863 
L 466.964129 162.685939 
L 473.873214 165.621162 
L 480.7823 167.271412 
L 487.691385 170.039816 
L 494.60047 172.877736 
" style="fill:none;stroke:#348abd;stroke-linecap:square;stroke-width:4;"/>
   </g>
   <g id="line2d_80">
    <defs>
     <path d="M 0 3 
C 0.795609 3 1.55874 2.683901 2.12132 2.12132 
C 2.683901 1.55874 3 0.795609 3 0 
C 3 -0.795609 2.683901 -1.55874 2.12132 -2.12132 
C 1.55874 -2.683901 0.795609 -3 0 -3 
C -0.795609 -3 -1.55874 -2.683901 -2.12132 -2.12132 
C -2.683901 -1.55874 -3 -0.795609 -3 0 
C -3 0.795609 -2.683901 1.55874 -2.12132 2.12132 
C -1.55874 2.683901 -0.795609 3 0 3 
z
" id="mbf29dbfe3a" style="stroke:#348abd;"/>
    </defs>
    <g clip-path="url(#p24392072df)">
     <use style="fill:#348abd;stroke:#348abd;" x="494.60047" xlink:href="#mbf29dbfe3a" y="172.877736"/>
    </g>
   </g>
   <g id="line2d_81">
    <path clip-path="url(#p24392072df)" d="M 66.23718 94.559935 
L 73.146265 88.608284 
L 80.05535 85.279095 
L 86.964436 82.018135 
L 93.873521 75.571862 
L 100.782606 72.707044 
L 107.691692 71.181622 
L 114.600777 68.039339 
L 121.509862 67.058211 
L 128.418948 65.491928 
L 135.328033 65.000864 
L 142.237118 66.409695 
L 149.146204 66.890809 
L 156.055289 68.669711 
L 162.964374 72.15464 
L 169.87346 61.815561 
L 176.782545 59.936733 
L 183.69163 60.336308 
L 190.600716 60.913822 
L 197.509801 61.304559 
L 204.418886 61.471884 
L 211.327972 61.448833 
L 218.237057 74.742938 
L 225.146142 84.604832 
L 232.055228 85.940664 
L 238.964313 91.388343 
L 245.873398 97.3457 
L 252.782484 103.342104 
L 259.691569 103.319927 
L 266.600654 103.453363 
L 273.50974 104.2794 
L 280.418825 111.369422 
L 287.32791 107.210406 
L 294.236996 107.311977 
L 301.146081 110.140145 
L 308.055166 112.529664 
L 314.964252 115.209808 
L 321.873337 117.070856 
L 328.782422 121.395253 
L 335.691508 130.472098 
L 342.600593 134.551332 
L 349.509678 137.409821 
L 356.418764 140.497132 
L 363.327849 146.459763 
L 370.236934 155.060763 
L 377.14602 159.159488 
L 384.055105 161.906361 
L 390.96419 162.685939 
L 397.873276 162.914476 
L 404.782361 161.797474 
L 411.691446 157.608257 
L 418.600532 151.54176 
L 425.509617 150.112883 
L 432.418702 144.699953 
L 439.327788 143.253191 
L 446.236873 140.570743 
L 453.145958 139.634664 
L 460.055044 137.409821 
L 466.964129 136.761321 
L 473.873214 135.383075 
L 480.7823 135.58232 
L 487.691385 135.213887 
L 494.60047 135.553733 
L 501.509556 135.213887 
L 508.418641 136.6704 
L 515.327726 137.790231 
L 522.236812 140.169256 
L 529.145897 142.629204 
L 536.054982 143.168839 
L 542.964068 144.384039 
L 549.873153 143.985186 
L 556.782238 143.854013 
L 563.691324 144.791155 
L 570.600409 143.001214 
L 577.509494 140.607651 
L 584.41858 140.02527 
L 591.327665 138.640617 
L 598.23675 140.061168 
L 605.145836 141.05605 
L 612.054921 132.128145 
L 618.964006 133.264242 
L 625.873092 136.045469 
L 632.782177 138.112963 
L 639.691262 140.061168 
L 646.600348 141.360768 
" style="fill:none;stroke:#348abd;stroke-linecap:square;stroke-opacity:0.4;stroke-width:2;"/>
   </g>
   <g id="line2d_82">
    <defs>
     <path d="M 0 3 
C 0.795609 3 1.55874 2.683901 2.12132 2.12132 
C 2.683901 1.55874 3 0.795609 3 0 
C 3 -0.795609 2.683901 -1.55874 2.12132 -2.12132 
C 1.55874 -2.683901 0.795609 -3 0 -3 
C -0.795609 -3 -1.55874 -2.683901 -2.12132 -2.12132 
C -2.683901 -1.55874 -3 -0.795609 -3 0 
C -3 0.795609 -2.683901 1.55874 -2.12132 2.12132 
C -1.55874 2.683901 -0.795609 3 0 3 
z
" id="md7ea0c154d" style="stroke:#348abd;stroke-opacity:0.4;"/>
    </defs>
    <g clip-path="url(#p24392072df)">
     <use style="fill:#348abd;fill-opacity:0.4;stroke:#348abd;stroke-opacity:0.4;" x="646.600348" xlink:href="#md7ea0c154d" y="141.360768"/>
    </g>
   </g>
   <g id="line2d_83">
    <path clip-path="url(#p24392072df)" d="M 52.384715 433 
L 52.419009 208.284612 
L 59.328094 183.828744 
L 66.23718 165.229376 
L 73.146265 157.433554 
L 80.05535 150.659705 
L 86.964436 143.89764 
L 93.873521 136.61002 
L 100.782606 130.986101 
L 107.691692 126.947671 
L 114.600777 119.730362 
L 121.509862 116.575214 
L 128.418948 112.887018 
L 135.328033 109.153993 
L 142.237118 105.32491 
L 149.146204 102.236598 
L 156.055289 97.559466 
L 162.964374 94.062429 
L 169.87346 89.580838 
L 176.782545 88.221552 
L 183.69163 84.221586 
L 190.600716 85.904081 
L 197.509801 77.756215 
L 204.418886 74.624199 
L 211.327972 72.094586 
L 218.237057 70.533619 
L 225.146142 68.035658 
L 232.055228 66.365691 
L 238.964313 62.314738 
L 245.873398 61.780051 
L 252.782484 59.831578 
L 259.691569 58.672221 
L 266.600654 57.80252 
L 273.50974 56.882354 
L 280.418825 56.365894 
L 287.32791 55.923187 
L 294.236996 55.961484 
L 301.146081 56.2539 
L 308.055166 56.427994 
L 314.964252 56.808406 
L 321.873337 57.440108 
L 328.782422 57.671193 
L 335.691508 58.523059 
L 342.600593 59.288706 
L 349.509678 59.990439 
L 356.418764 60.548927 
L 363.327849 60.834557 
L 370.236934 61.492322 
L 377.14602 62.126483 
L 384.055105 62.445173 
L 390.96419 62.889151 
L 397.873276 62.967924 
L 404.782361 63.127859 
L 411.691446 63.450227 
L 418.600532 63.499115 
L 425.509617 64.372269 
L 432.418702 64.694144 
L 439.327788 65.05298 
L 446.236873 66.027956 
L 453.145958 66.916003 
L 460.055044 67.711652 
L 466.964129 67.932859 
L 473.873214 67.299605 
" style="fill:none;stroke:#988ed5;stroke-linecap:square;stroke-opacity:0.4;stroke-width:2;"/>
   </g>
   <g id="line2d_84">
    <defs>
     <path d="M 0 3 
C 0.795609 3 1.55874 2.683901 2.12132 2.12132 
C 2.683901 1.55874 3 0.795609 3 0 
C 3 -0.795609 2.683901 -1.55874 2.12132 -2.12132 
C 1.55874 -2.683901 0.795609 -3 0 -3 
C -0.795609 -3 -1.55874 -2.683901 -2.12132 -2.12132 
C -2.683901 -1.55874 -3 -0.795609 -3 0 
C -3 0.795609 -2.683901 1.55874 -2.12132 2.12132 
C -1.55874 2.683901 -0.795609 3 0 3 
z
" id="m292f553479" style="stroke:#988ed5;stroke-opacity:0.4;"/>
    </defs>
    <g clip-path="url(#p24392072df)">
     <use style="fill:#988ed5;fill-opacity:0.4;stroke:#988ed5;stroke-opacity:0.4;" x="473.873214" xlink:href="#m292f553479" y="67.299605"/>
    </g>
   </g>
   <g id="line2d_85">
    <path clip-path="url(#p24392072df)" d="M -1 234.819151 
L 4.055412 192.475519 
L 10.964497 192.475519 
L 17.873582 189.594183 
L 24.782668 189.152503 
L 31.691753 189.152503 
L 38.600838 185.936541 
L 45.509924 183.828744 
L 52.419009 188.29785 
L 59.328094 181.329644 
L 66.23718 175.09746 
L 73.146265 164.344484 
L 80.05535 159.640049 
L 86.964436 149.756608 
L 93.873521 144.161455 
L 100.782606 142.425535 
L 107.691692 131.607167 
L 114.600777 125.767007 
L 121.509862 120.955426 
L 128.418948 115.413795 
L 135.328033 111.621399 
L 142.237118 106.736634 
L 149.146204 100.718379 
L 156.055289 94.83507 
L 162.964374 91.409491 
L 169.87346 79.228522 
L 176.782545 72.411647 
L 183.69163 66.687838 
L 190.600716 61.50354 
L 197.509801 56.094363 
L 204.418886 52.401977 
L 211.327972 48.401822 
L 218.237057 44.679188 
L 225.146142 41.502613 
L 232.055228 38.524065 
L 238.964313 36.248407 
L 245.873398 34.443082 
L 252.782484 31.878139 
L 259.691569 30.060232 
L 266.600654 28.482977 
L 273.50974 26.840854 
L 280.418825 25.372505 
L 287.32791 24.478818 
L 294.236996 23.635056 
L 301.146081 23.210714 
L 308.055166 22.61201 
L 314.964252 22.273168 
L 321.873337 22.093734 
L 328.782422 22.400204 
L 335.691508 22.331276 
L 342.600593 22.713547 
L 349.509678 23.06079 
L 356.418764 23.328927 
L 363.327849 23.603748 
L 370.236934 23.761854 
L 377.14602 23.509071 
L 384.055105 23.73044 
L 390.96419 23.710072 
L 397.873276 23.646593 
L 404.782361 23.746962 
" style="fill:none;stroke:#777777;stroke-linecap:square;stroke-opacity:0.4;stroke-width:2;"/>
   </g>
   <g id="line2d_86">
    <defs>
     <path d="M 0 3 
C 0.795609 3 1.55874 2.683901 2.12132 2.12132 
C 2.683901 1.55874 3 0.795609 3 0 
C 3 -0.795609 2.683901 -1.55874 2.12132 -2.12132 
C 1.55874 -2.683901 0.795609 -3 0 -3 
C -0.795609 -3 -1.55874 -2.683901 -2.12132 -2.12132 
C -2.683901 -1.55874 -3 -0.795609 -3 0 
C -3 0.795609 -2.683901 1.55874 -2.12132 2.12132 
C -1.55874 2.683901 -0.795609 3 0 3 
z
" id="m7ae09e3095" style="stroke:#777777;stroke-opacity:0.4;"/>
    </defs>
    <g clip-path="url(#p24392072df)">
     <use style="fill:#777777;fill-opacity:0.4;stroke:#777777;stroke-opacity:0.4;" x="404.782361" xlink:href="#m7ae09e3095" y="23.746962"/>
    </g>
   </g>
   <g id="line2d_87">
    <path clip-path="url(#p24392072df)" d="M 31.66178 433 
L 31.691753 236.722267 
L 38.600838 216.840326 
L 45.509924 213.557055 
L 52.419009 197.121489 
L 59.328094 190.046018 
L 66.23718 177.359025 
L 73.146265 170.205673 
L 80.05535 164.344484 
L 86.964436 158.970507 
L 93.873521 155.927409 
L 100.782606 147.851317 
L 107.691692 143.680467 
L 114.600777 138.607221 
L 121.509862 129.149968 
L 128.418948 119.845635 
L 135.328033 114.047564 
L 142.237118 114.404655 
L 149.146204 97.24375 
L 156.055289 93.349021 
L 162.964374 89.611157 
L 169.87346 85.307882 
L 176.782545 82.845066 
L 183.69163 79.976087 
L 190.600716 74.101079 
L 197.509801 74.748117 
L 204.418886 70.351594 
L 211.327972 68.395064 
L 218.237057 64.78831 
L 225.146142 62.616952 
L 232.055228 57.990403 
L 238.964313 55.789976 
L 245.873398 53.253418 
L 252.782484 52.176475 
L 259.691569 50.796608 
L 266.600654 50.238814 
L 273.50974 49.076478 
L 280.418825 49.586325 
L 287.32791 49.703294 
L 294.236996 49.994755 
L 301.146081 50.196813 
L 308.055166 50.722484 
L 314.964252 51.827262 
L 321.873337 52.947826 
L 328.782422 53.784085 
L 335.691508 55.142391 
L 342.600593 56.163152 
L 349.509678 57.310106 
L 356.418764 58.223621 
L 363.327849 59.232765 
L 370.236934 60.968343 
L 377.14602 61.737925 
L 384.055105 60.257475 
L 390.96419 59.743873 
L 397.873276 62.228259 
L 404.782361 60.185128 
L 411.691446 61.284314 
L 418.600532 60.312687 
L 425.509617 60.874789 
" style="fill:none;stroke:#fbc15e;stroke-linecap:square;stroke-opacity:0.4;stroke-width:2;"/>
   </g>
   <g id="line2d_88">
    <defs>
     <path d="M 0 3 
C 0.795609 3 1.55874 2.683901 2.12132 2.12132 
C 2.683901 1.55874 3 0.795609 3 0 
C 3 -0.795609 2.683901 -1.55874 2.12132 -2.12132 
C 1.55874 -2.683901 0.795609 -3 0 -3 
C -0.795609 -3 -1.55874 -2.683901 -2.12132 -2.12132 
C -2.683901 -1.55874 -3 -0.795609 -3 0 
C -3 0.795609 -2.683901 1.55874 -2.12132 2.12132 
C -1.55874 2.683901 -0.795609 3 0 3 
z
" id="mc7b5d63fee" style="stroke:#fbc15e;stroke-opacity:0.4;"/>
    </defs>
    <g clip-path="url(#p24392072df)">
     <use style="fill:#fbc15e;fill-opacity:0.4;stroke:#fbc15e;stroke-opacity:0.4;" x="425.509617" xlink:href="#mc7b5d63fee" y="60.874789"/>
    </g>
   </g>
   <g id="line2d_89">
    <path clip-path="url(#p24392072df)" d="M 4.025439 433 
L 4.055412 236.722267 
L 10.964497 236.722267 
L 17.873582 236.722267 
L 24.782668 228.753281 
L 31.691753 216.840326 
L 38.600838 212.100542 
L 45.509924 199.192238 
L 52.419009 199.192238 
L 59.328094 192.475519 
L 66.23718 179.643988 
L 73.146265 173.26312 
L 80.05535 166.29201 
L 86.964436 161.474389 
L 93.873521 156.416744 
L 100.782606 153.082721 
L 107.691692 149.815541 
L 114.600777 147.586078 
L 121.509862 149.234021 
L 128.418948 137.036633 
L 135.328033 129.482741 
L 142.237118 130.91829 
L 149.146204 124.151162 
L 156.055289 119.263441 
L 162.964374 112.85999 
L 169.87346 112.204798 
L 176.782545 105.269762 
L 183.69163 101.339705 
L 190.600716 98.210805 
L 197.509801 95.895905 
L 204.418886 92.331567 
L 211.327972 89.96464 
L 218.237057 84.811174 
L 225.146142 81.562339 
L 232.055228 78.968394 
L 238.964313 76.286879 
L 245.873398 74.049774 
L 252.782484 72.156909 
L 259.691569 69.106013 
L 266.600654 67.13278 
L 273.50974 65.788462 
L 280.418825 64.810946 
L 287.32791 62.257729 
L 294.236996 61.471225 
L 301.146081 61.052665 
L 308.055166 60.33009 
L 314.964252 60.274209 
L 321.873337 57.819476 
L 328.782422 57.025308 
L 335.691508 57.35762 
L 342.600593 57.081095 
L 349.509678 56.25289 
L 356.418764 56.706275 
L 363.327849 56.570236 
L 370.236934 58.235354 
L 377.14602 58.081694 
L 384.055105 57.792134 
L 390.96419 57.618041 
L 397.873276 58.144461 
L 404.782361 58.240385 
" style="fill:none;stroke:#8eba42;stroke-linecap:square;stroke-opacity:0.4;stroke-width:2;"/>
   </g>
   <g id="line2d_90">
    <defs>
     <path d="M 0 3 
C 0.795609 3 1.55874 2.683901 2.12132 2.12132 
C 2.683901 1.55874 3 0.795609 3 0 
C 3 -0.795609 2.683901 -1.55874 2.12132 -2.12132 
C 1.55874 -2.683901 0.795609 -3 0 -3 
C -0.795609 -3 -1.55874 -2.683901 -2.12132 -2.12132 
C -2.683901 -1.55874 -3 -0.795609 -3 0 
C -3 0.795609 -2.683901 1.55874 -2.12132 2.12132 
C -1.55874 2.683901 -0.795609 3 0 3 
z
" id="m5a225d1c45" style="stroke:#8eba42;stroke-opacity:0.4;"/>
    </defs>
    <g clip-path="url(#p24392072df)">
     <use style="fill:#8eba42;fill-opacity:0.4;stroke:#8eba42;stroke-opacity:0.4;" x="404.782361" xlink:href="#m5a225d1c45" y="58.240385"/>
    </g>
   </g>
   <g id="line2d_91">
    <path clip-path="url(#p24392072df)" d="M 24.754767 433 
L 24.782668 250.345338 
L 31.691753 232.336617 
L 38.600838 207.161224 
L 45.509924 198.477471 
L 52.419009 190.046018 
L 59.328094 183.173552 
L 66.23718 174.466798 
L 73.146265 167.271412 
L 80.05535 156.252275 
L 86.964436 147.744792 
L 93.873521 139.424833 
L 100.782606 129.524737 
L 107.691692 121.037147 
L 114.600777 112.344622 
L 121.509862 108.087436 
L 128.418948 104.930056 
L 135.328033 99.268455 
L 142.237118 95.688124 
L 149.146204 94.386834 
L 156.055289 94.135215 
L 162.964374 93.976129 
L 169.87346 92.734837 
L 176.782545 91.228957 
L 183.69163 91.064913 
L 190.600716 90.224736 
L 197.509801 88.941365 
L 204.418886 87.756754 
L 211.327972 87.025051 
L 218.237057 86.46715 
L 225.146142 86.535438 
L 232.055228 86.658483 
L 238.964313 87.629155 
L 245.873398 88.085804 
L 252.782484 87.192629 
L 259.691569 85.81747 
L 266.600654 83.636955 
L 273.50974 81.077523 
L 280.418825 78.269913 
L 287.32791 75.246442 
L 294.236996 72.904113 
L 301.146081 70.915589 
L 308.055166 69.529371 
L 314.964252 68.76785 
L 321.873337 68.309026 
L 328.782422 68.506913 
L 335.691508 68.999409 
L 342.600593 69.407619 
L 349.509678 70.328829 
L 356.418764 71.414113 
L 363.327849 72.528117 
L 370.236934 74.018557 
L 377.14602 74.968182 
L 384.055105 75.938497 
L 390.96419 77.10904 
L 397.873276 78.092579 
L 404.782361 78.899497 
L 411.691446 79.69095 
L 418.600532 79.73763 
L 425.509617 80.543421 
L 432.418702 81.365525 
L 439.327788 81.943299 
L 446.236873 82.555904 
L 453.145958 83.096917 
L 460.055044 83.736944 
" style="fill:none;stroke:#ffb5b8;stroke-linecap:square;stroke-opacity:0.4;stroke-width:2;"/>
   </g>
   <g id="line2d_92">
    <defs>
     <path d="M 0 3 
C 0.795609 3 1.55874 2.683901 2.12132 2.12132 
C 2.683901 1.55874 3 0.795609 3 0 
C 3 -0.795609 2.683901 -1.55874 2.12132 -2.12132 
C 1.55874 -2.683901 0.795609 -3 0 -3 
C -0.795609 -3 -1.55874 -2.683901 -2.12132 -2.12132 
C -2.683901 -1.55874 -3 -0.795609 -3 0 
C -3 0.795609 -2.683901 1.55874 -2.12132 2.12132 
C -1.55874 2.683901 -0.795609 3 0 3 
z
" id="m9a305bf88f" style="stroke:#ffb5b8;stroke-opacity:0.4;"/>
    </defs>
    <g clip-path="url(#p24392072df)">
     <use style="fill:#ffb5b8;fill-opacity:0.4;stroke:#ffb5b8;stroke-opacity:0.4;" x="460.055044" xlink:href="#m9a305bf88f" y="83.736944"/>
    </g>
   </g>
   <g id="patch_3">
    <path d="M 59.328094 180.46875 
L 59.328094 10 
" style="fill:none;stroke:#ffffff;stroke-linecap:square;stroke-linejoin:miter;"/>
   </g>
   <g id="patch_4">
    <path d="M 687.709406 180.46875 
L 687.709406 10 
" style="fill:none;stroke:#ffffff;stroke-linecap:square;stroke-linejoin:miter;"/>
   </g>
   <g id="patch_5">
    <path d="M 59.328094 180.46875 
L 687.709406 180.46875 
" style="fill:none;stroke:#ffffff;stroke-linecap:square;stroke-linejoin:miter;"/>
   </g>
   <g id="patch_6">
    <path d="M 59.328094 10 
L 687.709406 10 
" style="fill:none;stroke:#ffffff;stroke-linecap:square;stroke-linejoin:miter;"/>
   </g>
   <g id="text_16">
    <!-- Korea, South -->
    <defs>
     <path d="M 4.203125 62.296875 
L 4.203125 0 
L 11.59375 0 
L 11.59375 25.796875 
L 16.5 31.09375 
L 38.203125 -0.5 
C 38.203125 -0.5 42.09375 -0.09375 47.09375 -0.09375 
L 21.90625 35.296875 
L 45.40625 62.296875 
L 42.796875 62.296875 
C 41.09375 62.296875 39.40625 62.296875 37.703125 62.796875 
L 11.59375 33.5 
L 11.59375 59.796875 
C 11.59375 60.203125 11.59375 60.5 12 60.90625 
C 12.203125 61.203125 12.703125 61.703125 12.5 62.296875 
z
" id="Inconsolata-75"/>
     <path d="M 30.5 1.90625 
C 30.5 7 27.09375 10.203125 23.59375 10.203125 
C 20.296875 10.203125 17.796875 7.5 17.796875 4.5 
C 17.796875 1.796875 19.703125 0.703125 20.59375 0.09375 
C 21.5 -0.5 22.90625 -1.40625 22.90625 -3.5 
C 22.90625 -5.09375 22 -6.796875 21.5 -7.59375 
C 20.5 -9.203125 18.796875 -11.703125 16.40625 -13.90625 
L 19.90625 -16.90625 
C 26.90625 -9.796875 30.5 -3.296875 30.5 1.90625 
z
" id="Inconsolata-44"/>
     <path d="M 43.40625 54.796875 
C 39.203125 59.90625 33 62.59375 26.203125 62.59375 
C 14.90625 62.59375 7.203125 55.203125 7.203125 46.59375 
C 7.203125 43 8.59375 38.296875 13.796875 34.5 
C 19.59375 30.203125 28.59375 28.09375 33.296875 25.09375 
C 37.40625 22.59375 38.5 19.296875 38.5 16.5 
C 38.5 11.09375 33.90625 5.203125 24.90625 5.203125 
C 18.09375 5.203125 12.796875 8.59375 10 12.09375 
C 9.703125 12.5 9.703125 12.703125 9.703125 13.09375 
C 9.703125 13.296875 9.703125 13.90625 9.296875 14.09375 
L 5.09375 6.90625 
C 10 1.59375 17 -1.09375 24.703125 -1.09375 
C 39.90625 -1.09375 45.5 9.09375 45.5 16.90625 
C 45.5 20.203125 44.5 24.5 40.59375 28.203125 
C 35.203125 33.296875 26.40625 35.09375 20.703125 38.40625 
C 15.5 41.5 14.40625 45.203125 14.40625 47.703125 
C 14.40625 52.5 18.5 56.796875 25.59375 56.796875 
C 31.40625 56.796875 35.90625 54.203125 38.296875 50.703125 
C 38.59375 50.296875 38.5 50.09375 38.5 49.703125 
C 38.5 49.09375 38.796875 48.90625 39 48.90625 
z
" id="Inconsolata-83"/>
     <path d="M 6.203125 45.59375 
L 6.203125 20.09375 
C 6.203125 16.203125 6.203125 12.203125 8 8.09375 
C 10.59375 2.09375 16.203125 -1.203125 22.203125 -1.203125 
C 27.90625 -1.203125 33.296875 1.90625 36.296875 6.90625 
L 36.203125 3.5 
C 36.203125 2.296875 36.203125 1.09375 36.40625 0 
L 44 0 
C 43.5 1.296875 43.40625 2.796875 43.40625 4.09375 
L 43.40625 45.59375 
L 36.203125 45.59375 
L 36.203125 20.5 
C 36.203125 17 35.90625 14.296875 34.40625 11.5 
C 32.296875 7.59375 28.203125 4.703125 23.796875 4.703125 
C 20.296875 4.703125 16.90625 6.703125 15.09375 10.296875 
C 13.5 13.5 13.5 17.09375 13.5 20.09375 
L 13.5 45.59375 
z
" id="Inconsolata-117"/>
     <path d="M 18.796875 57.90625 
L 17.90625 45.59375 
L 7 45.59375 
L 6.90625 39.703125 
L 17.59375 39.703125 
C 17 31.90625 16.703125 24.09375 16.703125 16.40625 
C 16.703125 12.296875 16.703125 7.703125 19.40625 3.90625 
C 21.59375 0.90625 25.09375 -0.90625 29.796875 -0.90625 
C 35.203125 -0.90625 40.5 1.40625 44.40625 4.203125 
L 42.203125 9.90625 
C 38.296875 7 34.703125 5.703125 31.90625 5.703125 
C 28.5 5.703125 25 7.59375 24.203125 13.09375 
C 24.203125 13.5 23.90625 15.203125 23.90625 21.90625 
C 23.90625 27.796875 24.203125 33.796875 24.796875 39.703125 
L 39.796875 39.703125 
L 39.796875 45.703125 
L 24.90625 45.703125 
C 24.90625 45.703125 25.59375 53.90625 26.09375 56.5 
C 26.203125 57.5 27 58.09375 26.59375 59.203125 
z
" id="Inconsolata-116"/>
     <path d="M 6.90625 0 
L 14.296875 0 
L 14.296875 26.296875 
C 14.296875 29.296875 14.59375 31.59375 16.5 34.09375 
C 18.296875 36.40625 22.703125 40.5 27.5 40.5 
C 29.796875 40.5 32.09375 39.5 33.703125 37.59375 
C 36.203125 34.59375 36.203125 30.703125 36.203125 27.5 
L 36.203125 0 
L 43.296875 0 
L 43.296875 27.703125 
C 43.296875 31.203125 43.203125 35 41.59375 38.703125 
C 39.296875 43.796875 34.703125 46.703125 29.5 46.703125 
C 23.296875 46.703125 17.59375 42.703125 14.296875 37.59375 
L 14.296875 64.09375 
C 14.296875 64.40625 14.296875 64.703125 14.59375 65 
C 14.90625 65.296875 15.296875 65.59375 15.296875 66.09375 
C 15.296875 66.203125 15.296875 66.296875 15.203125 66.40625 
L 6.90625 66.40625 
z
" id="Inconsolata-104"/>
    </defs>
    <g transform="translate(508.418641 172.877736)scale(0.1 -0.1)">
     <use xlink:href="#Inconsolata-75"/>
     <use x="49.999985" xlink:href="#Inconsolata-111"/>
     <use x="99.999969" xlink:href="#Inconsolata-114"/>
     <use x="149.999954" xlink:href="#Inconsolata-101"/>
     <use x="199.999939" xlink:href="#Inconsolata-97"/>
     <use x="249.999924" xlink:href="#Inconsolata-44"/>
     <use x="299.999908" xlink:href="#Inconsolata-32"/>
     <use x="349.999893" xlink:href="#Inconsolata-83"/>
     <use x="399.999878" xlink:href="#Inconsolata-111"/>
     <use x="449.999863" xlink:href="#Inconsolata-117"/>
     <use x="499.999847" xlink:href="#Inconsolata-116"/>
     <use x="549.999832" xlink:href="#Inconsolata-104"/>
    </g>
   </g>
   <g id="text_17">
    <!-- China -->
    <defs>
     <path d="M 27.703125 62.796875 
C 18 62.796875 4 55.703125 4 30.703125 
C 4 6.703125 17.40625 -1.09375 27.703125 -1.09375 
C 35.09375 -1.09375 42 2.796875 45.90625 9.203125 
L 40.796875 12.5 
C 37.90625 7.796875 32.90625 5 28.09375 5 
C 18.90625 5 10.796875 14.5 10.796875 31.40625 
C 10.796875 47.90625 18.703125 57.203125 27.5 57.203125 
C 32.296875 57.203125 36.90625 54.296875 39.40625 49.90625 
C 39.59375 49.59375 39.796875 49.296875 39.796875 48.90625 
C 39.796875 48.59375 39.703125 48.40625 39.703125 48.09375 
C 39.703125 48 39.703125 47.5 40.203125 47.203125 
L 46.796875 50.40625 
C 43.5 57.90625 36 62.796875 27.703125 62.796875 
z
" id="Inconsolata-67"/>
    </defs>
    <g transform="translate(660.418518 141.360768)scale(0.1 -0.1)">
     <use xlink:href="#Inconsolata-67"/>
     <use x="49.999985" xlink:href="#Inconsolata-104"/>
     <use x="99.999969" xlink:href="#Inconsolata-105"/>
     <use x="149.999954" xlink:href="#Inconsolata-110"/>
     <use x="199.999939" xlink:href="#Inconsolata-97"/>
    </g>
   </g>
   <g id="text_18">
    <!-- Italy -->
    <defs>
     <path d="M 8.796875 62.296875 
L 8.796875 56.40625 
L 20.296875 56.40625 
L 20.296875 5.703125 
L 8.09375 5.703125 
L 8.09375 -0.09375 
L 40.296875 -0.09375 
L 40.296875 5.59375 
L 27.296875 5.59375 
L 27.296875 56.40625 
L 39.59375 56.40625 
L 39.59375 62.296875 
z
" id="Inconsolata-73"/>
    </defs>
    <g transform="translate(487.691385 67.299605)scale(0.1 -0.1)">
     <use xlink:href="#Inconsolata-73"/>
     <use x="49.999985" xlink:href="#Inconsolata-116"/>
     <use x="99.999969" xlink:href="#Inconsolata-97"/>
     <use x="149.999954" xlink:href="#Inconsolata-108"/>
     <use x="199.999939" xlink:href="#Inconsolata-121"/>
    </g>
   </g>
   <g id="text_19">
    <!-- US -->
    <defs>
     <path d="M 5 62.296875 
L 5 21.40625 
C 5 17 5.09375 12.796875 7.40625 8.5 
C 10.796875 2.09375 17.796875 -1.203125 25.09375 -1.203125 
C 32.296875 -1.203125 39.296875 2 42.796875 8.59375 
C 45.203125 12.90625 45.296875 17.203125 45.296875 21.796875 
L 45.296875 62.296875 
L 38.703125 62.296875 
L 38.703125 21.59375 
C 38.703125 18.40625 38.59375 15.296875 37.09375 12.09375 
C 34.796875 7.296875 30.09375 4.796875 25.203125 4.796875 
C 20.296875 4.796875 15.59375 7.40625 13.40625 12.203125 
C 11.90625 15.203125 11.90625 18.296875 11.90625 21.40625 
L 11.90625 59.09375 
C 11.90625 59.5 11.90625 59.90625 12.296875 60.40625 
C 12.5 60.703125 12.90625 61.203125 12.90625 61.796875 
C 12.90625 61.90625 12.90625 62.09375 12.796875 62.296875 
z
" id="Inconsolata-85"/>
    </defs>
    <g transform="translate(418.600532 23.746962)scale(0.1 -0.1)">
     <use xlink:href="#Inconsolata-85"/>
     <use x="49.999985" xlink:href="#Inconsolata-83"/>
    </g>
   </g>
   <g id="text_20">
    <!-- Spain -->
    <defs>
     <path d="M 5.90625 45.59375 
L 6 -16.703125 
L 13.296875 -16.703125 
L 13.296875 6 
C 16.40625 1.5 21.5 -1.296875 27 -1.296875 
C 36.40625 -1.296875 46.203125 6.59375 46.203125 23.296875 
C 46.203125 39.40625 36.703125 46.59375 27.703125 46.59375 
C 21.796875 46.59375 16.296875 43.59375 13.203125 38.59375 
L 13.203125 45.59375 
z
M 25 40.5 
C 29 40.5 38.703125 38.40625 38.703125 21.796875 
C 38.703125 7.40625 29.296875 5.09375 25 5.09375 
C 20.703125 5.09375 16.296875 7.296875 14.5 11.40625 
C 13.203125 14.5 13.203125 18.296875 13.203125 24.90625 
C 13.203125 28.703125 13.40625 31.5 14.40625 33.90625 
C 16.203125 38 20.40625 40.5 25 40.5 
z
" id="Inconsolata-112"/>
    </defs>
    <g transform="translate(439.327788 60.874789)scale(0.1 -0.1)">
     <use xlink:href="#Inconsolata-83"/>
     <use x="49.999985" xlink:href="#Inconsolata-112"/>
     <use x="99.999969" xlink:href="#Inconsolata-97"/>
     <use x="149.999954" xlink:href="#Inconsolata-105"/>
     <use x="199.999939" xlink:href="#Inconsolata-110"/>
    </g>
   </g>
   <g id="text_21">
    <!-- United Kingdom -->
    <g transform="translate(418.600532 58.240385)scale(0.1 -0.1)">
     <use xlink:href="#Inconsolata-85"/>
     <use x="49.999985" xlink:href="#Inconsolata-110"/>
     <use x="99.999969" xlink:href="#Inconsolata-105"/>
     <use x="149.999954" xlink:href="#Inconsolata-116"/>
     <use x="199.999939" xlink:href="#Inconsolata-101"/>
     <use x="249.999924" xlink:href="#Inconsolata-100"/>
     <use x="299.999908" xlink:href="#Inconsolata-32"/>
     <use x="349.999893" xlink:href="#Inconsolata-75"/>
     <use x="399.999878" xlink:href="#Inconsolata-105"/>
     <use x="449.999863" xlink:href="#Inconsolata-110"/>
     <use x="499.999847" xlink:href="#Inconsolata-103"/>
     <use x="549.999832" xlink:href="#Inconsolata-100"/>
     <use x="599.999817" xlink:href="#Inconsolata-111"/>
     <use x="649.999802" xlink:href="#Inconsolata-109"/>
    </g>
   </g>
   <g id="text_22">
    <!-- Iran -->
    <g transform="translate(473.873214 83.736944)scale(0.1 -0.1)">
     <use xlink:href="#Inconsolata-73"/>
     <use x="49.999985" xlink:href="#Inconsolata-114"/>
     <use x="99.999969" xlink:href="#Inconsolata-97"/>
     <use x="149.999954" xlink:href="#Inconsolata-110"/>
    </g>
   </g>
  </g>
 </g>
 <defs>
  <clipPath id="p24392072df">
   <rect height="170.46875" width="628.381311" x="59.328094" y="10"/>
  </clipPath>
 </defs>
</svg>
