<?xml version="1.0" encoding="utf-8" standalone="no"?>
<!DOCTYPE svg PUBLIC "-//W3C//DTD SVG 1.1//EN"
  "http://www.w3.org/Graphics/SVG/1.1/DTD/svg11.dtd">
<!-- Created with matplotlib (https://matplotlib.org/) -->
<svg height="180pt" version="1.1" viewBox="0 0 720 180" width="720pt" xmlns="http://www.w3.org/2000/svg" xmlns:xlink="http://www.w3.org/1999/xlink">
 <defs>
  <style type="text/css">
*{stroke-linecap:butt;stroke-linejoin:round;}
  </style>
 </defs>
 <g id="figure_1">
  <g id="patch_1">
   <path d="M 0 180 
L 720 180 
L 720 0 
L 0 0 
z
" style="fill:#ffffff;"/>
  </g>
  <g id="axes_1">
   <g id="patch_2">
    <path d="M 90 157.5 
L 648 157.5 
L 648 21.6 
L 90 21.6 
z
" style="fill:#e5e5e5;"/>
   </g>
   <g id="matplotlib.axis_1">
    <g id="xtick_1">
     <g id="line2d_1">
      <path clip-path="url(#p1811c4ca57)" d="M 161.902419 157.5 
L 161.902419 21.6 
" style="fill:none;stroke:#ffffff;stroke-linecap:square;stroke-width:0.8;"/>
     </g>
     <g id="line2d_2">
      <defs>
       <path d="M 0 0 
L 0 3.5 
" id="m06f8aa5f18" style="stroke:#555555;stroke-width:0.8;"/>
      </defs>
      <g>
       <use style="fill:#555555;stroke:#555555;stroke-width:0.8;" x="161.902419" xlink:href="#m06f8aa5f18" y="157.5"/>
      </g>
     </g>
     <g id="text_1">
      <!-- 2020-02-01 -->
      <defs>
       <path d="M 7.703125 52.59375 
L 12.796875 48.5 
C 13.40625 49.40625 13.09375 50 13.703125 50.796875 
C 15.203125 53.09375 18.90625 56.5 24.296875 56.5 
C 31 56.5 36.296875 51.40625 36.296875 44.703125 
C 36.296875 37.09375 29.90625 31.59375 25.40625 27.5 
C 18.296875 21.09375 12.5 14.703125 7.296875 4.40625 
L 7.296875 0 
L 43.90625 0 
L 43.90625 6.90625 
C 43.203125 7.203125 42.703125 6.703125 42.5 6.5 
C 42.09375 6.09375 41.90625 6.09375 41.5 6.09375 
L 15.296875 6.09375 
C 20.5 15.09375 27.796875 21.296875 32.296875 25.5 
C 36.796875 29.796875 43.203125 36.203125 43.203125 45.203125 
C 43.203125 54.90625 35.296875 62.703125 25.203125 62.703125 
C 18.09375 62.703125 11.40625 58.90625 7.703125 52.59375 
z
" id="Inconsolata-50"/>
       <path d="M 25.09375 62.703125 
C 15.203125 62.703125 5 50.5 5 30.59375 
C 5 10.40625 15.296875 -1.203125 25.203125 -1.203125 
C 34.203125 -1.203125 44.90625 8.59375 44.90625 30.09375 
C 44.90625 51.296875 34.703125 62.703125 25.09375 62.703125 
z
M 34.796875 48.40625 
L 12.90625 20 
C 12 23.5 11.5 27.40625 11.5 31.796875 
C 11.5 47.796875 18.796875 56.59375 25 56.59375 
C 28.40625 56.59375 32.09375 53.90625 34.796875 48.40625 
z
M 37.09375 41.796875 
C 38 38.296875 38.40625 34.09375 38.40625 29.203125 
C 38.40625 11.796875 30.90625 5.203125 25.40625 5.203125 
C 21.703125 5.203125 17.90625 8.203125 15.203125 13.703125 
z
" id="Inconsolata-48"/>
       <path d="M 7 34.703125 
L 7 28.09375 
L 43 28.09375 
L 43 34.703125 
z
" id="Inconsolata-45"/>
       <path d="M 29.90625 62.296875 
L 25.09375 62.296875 
L 8.796875 53.796875 
L 10.40625 49.90625 
L 22.90625 53.59375 
L 22.90625 -0.09375 
L 29.90625 -0.09375 
z
" id="Inconsolata-49"/>
      </defs>
      <g style="fill:#555555;" transform="translate(136.902419 171.140625)scale(0.1 -0.1)">
       <use xlink:href="#Inconsolata-50"/>
       <use x="49.999985" xlink:href="#Inconsolata-48"/>
       <use x="99.999969" xlink:href="#Inconsolata-50"/>
       <use x="149.999954" xlink:href="#Inconsolata-48"/>
       <use x="199.999939" xlink:href="#Inconsolata-45"/>
       <use x="249.999924" xlink:href="#Inconsolata-48"/>
       <use x="299.999908" xlink:href="#Inconsolata-50"/>
       <use x="349.999893" xlink:href="#Inconsolata-45"/>
       <use x="399.999878" xlink:href="#Inconsolata-48"/>
       <use x="449.999863" xlink:href="#Inconsolata-49"/>
      </g>
     </g>
    </g>
    <g id="xtick_2">
     <g id="line2d_3">
      <path clip-path="url(#p1811c4ca57)" d="M 227.056714 157.5 
L 227.056714 21.6 
" style="fill:none;stroke:#ffffff;stroke-linecap:square;stroke-width:0.8;"/>
     </g>
     <g id="line2d_4">
      <g>
       <use style="fill:#555555;stroke:#555555;stroke-width:0.8;" x="227.056714" xlink:href="#m06f8aa5f18" y="157.5"/>
      </g>
     </g>
     <g id="text_2">
      <!-- 2020-02-15 -->
      <defs>
       <path d="M 10.59375 62.296875 
L 8.40625 30.59375 
L 12.90625 28.796875 
C 15.90625 32.59375 20.296875 34.703125 24.59375 34.703125 
C 31.09375 34.703125 37.296875 29.703125 37.296875 19.796875 
C 37.296875 10.203125 31.40625 5 24.703125 5 
C 18 5 13.59375 10.09375 13.296875 10.703125 
C 12.90625 11.5 13.40625 12.5 12.5 13.09375 
L 6.296875 8.40625 
C 10.5 2.296875 17.40625 -1.203125 24.796875 -1.203125 
C 35.59375 -1.203125 44.5 6.09375 44.5 19.59375 
C 44.5 33 36.09375 40.40625 25.59375 40.40625 
C 22.203125 40.40625 18.703125 39.59375 15.5 38 
L 16.40625 56 
L 42.203125 56 
L 42.203125 62.296875 
z
" id="Inconsolata-53"/>
      </defs>
      <g style="fill:#555555;" transform="translate(202.056714 171.140625)scale(0.1 -0.1)">
       <use xlink:href="#Inconsolata-50"/>
       <use x="49.999985" xlink:href="#Inconsolata-48"/>
       <use x="99.999969" xlink:href="#Inconsolata-50"/>
       <use x="149.999954" xlink:href="#Inconsolata-48"/>
       <use x="199.999939" xlink:href="#Inconsolata-45"/>
       <use x="249.999924" xlink:href="#Inconsolata-48"/>
       <use x="299.999908" xlink:href="#Inconsolata-50"/>
       <use x="349.999893" xlink:href="#Inconsolata-45"/>
       <use x="399.999878" xlink:href="#Inconsolata-49"/>
       <use x="449.999863" xlink:href="#Inconsolata-53"/>
      </g>
     </g>
    </g>
    <g id="xtick_3">
     <g id="line2d_5">
      <path clip-path="url(#p1811c4ca57)" d="M 296.864887 157.5 
L 296.864887 21.6 
" style="fill:none;stroke:#ffffff;stroke-linecap:square;stroke-width:0.8;"/>
     </g>
     <g id="line2d_6">
      <g>
       <use style="fill:#555555;stroke:#555555;stroke-width:0.8;" x="296.864887" xlink:href="#m06f8aa5f18" y="157.5"/>
      </g>
     </g>
     <g id="text_3">
      <!-- 2020-03-01 -->
      <defs>
       <path d="M 41 46.703125 
C 41 55.203125 33.796875 62.5 23.90625 62.5 
C 18.296875 62.5 12.796875 60.09375 8.90625 55.796875 
L 12.796875 51.5 
C 15.703125 54.59375 19.703125 56.296875 23.59375 56.296875 
C 30 56.296875 34.40625 51.796875 34.40625 46.5 
C 34.40625 42.796875 32.09375 38.59375 27.703125 36.703125 
C 26.59375 36.296875 23.796875 35.203125 17.90625 35.203125 
L 17.90625 29.59375 
C 18.90625 29.703125 20 29.796875 21.09375 29.796875 
C 29.5 29.796875 35.703125 25.40625 35.703125 17.90625 
C 35.703125 11.09375 30.5 5.203125 23.203125 5.203125 
C 17.40625 5.203125 13.90625 9 13.40625 9.5 
C 12.59375 10.40625 13 11.40625 12.09375 12.296875 
L 6.90625 6 
C 11 1.296875 17 -1.09375 23.203125 -1.09375 
C 35.203125 -1.09375 42.40625 7.40625 42.40625 17.09375 
C 42.40625 24.5 38.203125 30.796875 31.703125 33.203125 
C 37.296875 35.296875 41 40.59375 41 46.703125 
z
" id="Inconsolata-51"/>
      </defs>
      <g style="fill:#555555;" transform="translate(271.864887 171.140625)scale(0.1 -0.1)">
       <use xlink:href="#Inconsolata-50"/>
       <use x="49.999985" xlink:href="#Inconsolata-48"/>
       <use x="99.999969" xlink:href="#Inconsolata-50"/>
       <use x="149.999954" xlink:href="#Inconsolata-48"/>
       <use x="199.999939" xlink:href="#Inconsolata-45"/>
       <use x="249.999924" xlink:href="#Inconsolata-48"/>
       <use x="299.999908" xlink:href="#Inconsolata-51"/>
       <use x="349.999893" xlink:href="#Inconsolata-45"/>
       <use x="399.999878" xlink:href="#Inconsolata-48"/>
       <use x="449.999863" xlink:href="#Inconsolata-49"/>
      </g>
     </g>
    </g>
    <g id="xtick_4">
     <g id="line2d_7">
      <path clip-path="url(#p1811c4ca57)" d="M 362.019183 157.5 
L 362.019183 21.6 
" style="fill:none;stroke:#ffffff;stroke-linecap:square;stroke-width:0.8;"/>
     </g>
     <g id="line2d_8">
      <g>
       <use style="fill:#555555;stroke:#555555;stroke-width:0.8;" x="362.019183" xlink:href="#m06f8aa5f18" y="157.5"/>
      </g>
     </g>
     <g id="text_4">
      <!-- 2020-03-15 -->
      <g style="fill:#555555;" transform="translate(337.019183 171.140625)scale(0.1 -0.1)">
       <use xlink:href="#Inconsolata-50"/>
       <use x="49.999985" xlink:href="#Inconsolata-48"/>
       <use x="99.999969" xlink:href="#Inconsolata-50"/>
       <use x="149.999954" xlink:href="#Inconsolata-48"/>
       <use x="199.999939" xlink:href="#Inconsolata-45"/>
       <use x="249.999924" xlink:href="#Inconsolata-48"/>
       <use x="299.999908" xlink:href="#Inconsolata-51"/>
       <use x="349.999893" xlink:href="#Inconsolata-45"/>
       <use x="399.999878" xlink:href="#Inconsolata-49"/>
       <use x="449.999863" xlink:href="#Inconsolata-53"/>
      </g>
     </g>
    </g>
    <g id="xtick_5">
     <g id="line2d_9">
      <path clip-path="url(#p1811c4ca57)" d="M 441.135113 157.5 
L 441.135113 21.6 
" style="fill:none;stroke:#ffffff;stroke-linecap:square;stroke-width:0.8;"/>
     </g>
     <g id="line2d_10">
      <g>
       <use style="fill:#555555;stroke:#555555;stroke-width:0.8;" x="441.135113" xlink:href="#m06f8aa5f18" y="157.5"/>
      </g>
     </g>
     <g id="text_5">
      <!-- 2020-04-01 -->
      <defs>
       <path d="M 31.296875 62.296875 
L 4.796875 22.40625 
L 4.796875 17.203125 
L 29.90625 17.203125 
L 29.90625 0 
L 37.09375 0 
L 37.09375 17.09375 
L 45.203125 17.09375 
L 45.203125 23.296875 
L 37.09375 23.296875 
L 37.09375 62.296875 
z
M 30 51.203125 
L 30 23.296875 
L 11.703125 23.296875 
z
" id="Inconsolata-52"/>
      </defs>
      <g style="fill:#555555;" transform="translate(416.135113 171.140625)scale(0.1 -0.1)">
       <use xlink:href="#Inconsolata-50"/>
       <use x="49.999985" xlink:href="#Inconsolata-48"/>
       <use x="99.999969" xlink:href="#Inconsolata-50"/>
       <use x="149.999954" xlink:href="#Inconsolata-48"/>
       <use x="199.999939" xlink:href="#Inconsolata-45"/>
       <use x="249.999924" xlink:href="#Inconsolata-48"/>
       <use x="299.999908" xlink:href="#Inconsolata-52"/>
       <use x="349.999893" xlink:href="#Inconsolata-45"/>
       <use x="399.999878" xlink:href="#Inconsolata-48"/>
       <use x="449.999863" xlink:href="#Inconsolata-49"/>
      </g>
     </g>
    </g>
    <g id="xtick_6">
     <g id="line2d_11">
      <path clip-path="url(#p1811c4ca57)" d="M 506.289408 157.5 
L 506.289408 21.6 
" style="fill:none;stroke:#ffffff;stroke-linecap:square;stroke-width:0.8;"/>
     </g>
     <g id="line2d_12">
      <g>
       <use style="fill:#555555;stroke:#555555;stroke-width:0.8;" x="506.289408" xlink:href="#m06f8aa5f18" y="157.5"/>
      </g>
     </g>
     <g id="text_6">
      <!-- 2020-04-15 -->
      <g style="fill:#555555;" transform="translate(481.289408 171.140625)scale(0.1 -0.1)">
       <use xlink:href="#Inconsolata-50"/>
       <use x="49.999985" xlink:href="#Inconsolata-48"/>
       <use x="99.999969" xlink:href="#Inconsolata-50"/>
       <use x="149.999954" xlink:href="#Inconsolata-48"/>
       <use x="199.999939" xlink:href="#Inconsolata-45"/>
       <use x="249.999924" xlink:href="#Inconsolata-48"/>
       <use x="299.999908" xlink:href="#Inconsolata-52"/>
       <use x="349.999893" xlink:href="#Inconsolata-45"/>
       <use x="399.999878" xlink:href="#Inconsolata-49"/>
       <use x="449.999863" xlink:href="#Inconsolata-53"/>
      </g>
     </g>
    </g>
    <g id="xtick_7">
     <g id="line2d_13">
      <path clip-path="url(#p1811c4ca57)" d="M 580.75146 157.5 
L 580.75146 21.6 
" style="fill:none;stroke:#ffffff;stroke-linecap:square;stroke-width:0.8;"/>
     </g>
     <g id="line2d_14">
      <g>
       <use style="fill:#555555;stroke:#555555;stroke-width:0.8;" x="580.75146" xlink:href="#m06f8aa5f18" y="157.5"/>
      </g>
     </g>
     <g id="text_7">
      <!-- 2020-05-01 -->
      <g style="fill:#555555;" transform="translate(555.75146 171.140625)scale(0.1 -0.1)">
       <use xlink:href="#Inconsolata-50"/>
       <use x="49.999985" xlink:href="#Inconsolata-48"/>
       <use x="99.999969" xlink:href="#Inconsolata-50"/>
       <use x="149.999954" xlink:href="#Inconsolata-48"/>
       <use x="199.999939" xlink:href="#Inconsolata-45"/>
       <use x="249.999924" xlink:href="#Inconsolata-48"/>
       <use x="299.999908" xlink:href="#Inconsolata-53"/>
       <use x="349.999893" xlink:href="#Inconsolata-45"/>
       <use x="399.999878" xlink:href="#Inconsolata-48"/>
       <use x="449.999863" xlink:href="#Inconsolata-49"/>
      </g>
     </g>
    </g>
    <g id="xtick_8">
     <g id="line2d_15">
      <path clip-path="url(#p1811c4ca57)" d="M 645.905755 157.5 
L 645.905755 21.6 
" style="fill:none;stroke:#ffffff;stroke-linecap:square;stroke-width:0.8;"/>
     </g>
     <g id="line2d_16">
      <g>
       <use style="fill:#555555;stroke:#555555;stroke-width:0.8;" x="645.905755" xlink:href="#m06f8aa5f18" y="157.5"/>
      </g>
     </g>
     <g id="text_8">
      <!-- 2020-05-15 -->
      <g style="fill:#555555;" transform="translate(620.905755 171.140625)scale(0.1 -0.1)">
       <use xlink:href="#Inconsolata-50"/>
       <use x="49.999985" xlink:href="#Inconsolata-48"/>
       <use x="99.999969" xlink:href="#Inconsolata-50"/>
       <use x="149.999954" xlink:href="#Inconsolata-48"/>
       <use x="199.999939" xlink:href="#Inconsolata-45"/>
       <use x="249.999924" xlink:href="#Inconsolata-48"/>
       <use x="299.999908" xlink:href="#Inconsolata-53"/>
       <use x="349.999893" xlink:href="#Inconsolata-45"/>
       <use x="399.999878" xlink:href="#Inconsolata-49"/>
       <use x="449.999863" xlink:href="#Inconsolata-53"/>
      </g>
     </g>
    </g>
   </g>
   <g id="matplotlib.axis_2">
    <g id="ytick_1">
     <g id="line2d_17">
      <path clip-path="url(#p1811c4ca57)" d="M 90 151.322727 
L 648 151.322727 
" style="fill:none;stroke:#ffffff;stroke-linecap:square;stroke-width:0.8;"/>
     </g>
     <g id="line2d_18">
      <defs>
       <path d="M 0 0 
L -3.5 0 
" id="mfbc84353cc" style="stroke:#555555;stroke-width:0.8;"/>
      </defs>
      <g>
       <use style="fill:#555555;stroke:#555555;stroke-width:0.8;" x="90" xlink:href="#mfbc84353cc" y="151.322727"/>
      </g>
     </g>
     <g id="line2d_19">
      <defs>
       <path d="M 0 0 
L 3.5 0 
" id="me6fbe3e123" style="stroke:#555555;stroke-width:0.8;"/>
      </defs>
      <g>
       <use style="fill:#555555;stroke:#555555;stroke-width:0.8;" x="648" xlink:href="#me6fbe3e123" y="151.322727"/>
      </g>
     </g>
     <g id="text_9">
      <!-- $\mathdefault{10^{0}}$ -->
      <g style="fill:#555555;" transform="translate(69.1 154.64304)scale(0.1 -0.1)">
       <use transform="translate(0 0.115625)" xlink:href="#Inconsolata-49"/>
       <use transform="translate(49.999985 0.115625)" xlink:href="#Inconsolata-48"/>
       <use transform="translate(100.799774 32.107813)scale(0.7)" xlink:href="#Inconsolata-48"/>
      </g>
     </g>
     <g id="text_10">
      <!-- $\mathdefault{10^{0}}$ -->
      <g style="fill:#555555;" transform="translate(655 154.64304)scale(0.1 -0.1)">
       <use transform="translate(0 0.115625)" xlink:href="#Inconsolata-49"/>
       <use transform="translate(49.999985 0.115625)" xlink:href="#Inconsolata-48"/>
       <use transform="translate(100.799774 32.107813)scale(0.7)" xlink:href="#Inconsolata-48"/>
      </g>
     </g>
    </g>
    <g id="ytick_2">
     <g id="line2d_20">
      <path clip-path="url(#p1811c4ca57)" d="M 90 120.725393 
L 648 120.725393 
" style="fill:none;stroke:#ffffff;stroke-linecap:square;stroke-width:0.8;"/>
     </g>
     <g id="line2d_21">
      <g>
       <use style="fill:#555555;stroke:#555555;stroke-width:0.8;" x="90" xlink:href="#mfbc84353cc" y="120.725393"/>
      </g>
     </g>
     <g id="line2d_22">
      <g>
       <use style="fill:#555555;stroke:#555555;stroke-width:0.8;" x="648" xlink:href="#me6fbe3e123" y="120.725393"/>
      </g>
     </g>
     <g id="text_11">
      <!-- $\mathdefault{10^{1}}$ -->
      <g style="fill:#555555;" transform="translate(69.1 124.045706)scale(0.1 -0.1)">
       <use transform="translate(0 0.4)" xlink:href="#Inconsolata-49"/>
       <use transform="translate(49.999985 0.4)" xlink:href="#Inconsolata-48"/>
       <use transform="translate(100.799774 32.392188)scale(0.7)" xlink:href="#Inconsolata-49"/>
      </g>
     </g>
     <g id="text_12">
      <!-- $\mathdefault{10^{1}}$ -->
      <g style="fill:#555555;" transform="translate(655 124.045706)scale(0.1 -0.1)">
       <use transform="translate(0 0.4)" xlink:href="#Inconsolata-49"/>
       <use transform="translate(49.999985 0.4)" xlink:href="#Inconsolata-48"/>
       <use transform="translate(100.799774 32.392188)scale(0.7)" xlink:href="#Inconsolata-49"/>
      </g>
     </g>
    </g>
    <g id="ytick_3">
     <g id="line2d_23">
      <path clip-path="url(#p1811c4ca57)" d="M 90 90.128059 
L 648 90.128059 
" style="fill:none;stroke:#ffffff;stroke-linecap:square;stroke-width:0.8;"/>
     </g>
     <g id="line2d_24">
      <g>
       <use style="fill:#555555;stroke:#555555;stroke-width:0.8;" x="90" xlink:href="#mfbc84353cc" y="90.128059"/>
      </g>
     </g>
     <g id="line2d_25">
      <g>
       <use style="fill:#555555;stroke:#555555;stroke-width:0.8;" x="648" xlink:href="#me6fbe3e123" y="90.128059"/>
      </g>
     </g>
     <g id="text_13">
      <!-- $\mathdefault{10^{2}}$ -->
      <g style="fill:#555555;" transform="translate(69.1 93.448372)scale(0.1 -0.1)">
       <use transform="translate(0 0.115625)" xlink:href="#Inconsolata-49"/>
       <use transform="translate(49.999985 0.115625)" xlink:href="#Inconsolata-48"/>
       <use transform="translate(100.799774 32.107813)scale(0.7)" xlink:href="#Inconsolata-50"/>
      </g>
     </g>
     <g id="text_14">
      <!-- $\mathdefault{10^{2}}$ -->
      <g style="fill:#555555;" transform="translate(655 93.448372)scale(0.1 -0.1)">
       <use transform="translate(0 0.115625)" xlink:href="#Inconsolata-49"/>
       <use transform="translate(49.999985 0.115625)" xlink:href="#Inconsolata-48"/>
       <use transform="translate(100.799774 32.107813)scale(0.7)" xlink:href="#Inconsolata-50"/>
      </g>
     </g>
    </g>
    <g id="ytick_4">
     <g id="line2d_26">
      <path clip-path="url(#p1811c4ca57)" d="M 90 59.530725 
L 648 59.530725 
" style="fill:none;stroke:#ffffff;stroke-linecap:square;stroke-width:0.8;"/>
     </g>
     <g id="line2d_27">
      <g>
       <use style="fill:#555555;stroke:#555555;stroke-width:0.8;" x="90" xlink:href="#mfbc84353cc" y="59.530725"/>
      </g>
     </g>
     <g id="line2d_28">
      <g>
       <use style="fill:#555555;stroke:#555555;stroke-width:0.8;" x="648" xlink:href="#me6fbe3e123" y="59.530725"/>
      </g>
     </g>
     <g id="text_15">
      <!-- $\mathdefault{10^{3}}$ -->
      <g style="fill:#555555;" transform="translate(69.1 62.851038)scale(0.1 -0.1)">
       <use transform="translate(0 0.257812)" xlink:href="#Inconsolata-49"/>
       <use transform="translate(49.999985 0.257812)" xlink:href="#Inconsolata-48"/>
       <use transform="translate(100.799774 32.25)scale(0.7)" xlink:href="#Inconsolata-51"/>
      </g>
     </g>
     <g id="text_16">
      <!-- $\mathdefault{10^{3}}$ -->
      <g style="fill:#555555;" transform="translate(655 62.851038)scale(0.1 -0.1)">
       <use transform="translate(0 0.257812)" xlink:href="#Inconsolata-49"/>
       <use transform="translate(49.999985 0.257812)" xlink:href="#Inconsolata-48"/>
       <use transform="translate(100.799774 32.25)scale(0.7)" xlink:href="#Inconsolata-51"/>
      </g>
     </g>
    </g>
    <g id="ytick_5">
     <g id="line2d_29">
      <path clip-path="url(#p1811c4ca57)" d="M 90 28.933391 
L 648 28.933391 
" style="fill:none;stroke:#ffffff;stroke-linecap:square;stroke-width:0.8;"/>
     </g>
     <g id="line2d_30">
      <g>
       <use style="fill:#555555;stroke:#555555;stroke-width:0.8;" x="90" xlink:href="#mfbc84353cc" y="28.933391"/>
      </g>
     </g>
     <g id="line2d_31">
      <g>
       <use style="fill:#555555;stroke:#555555;stroke-width:0.8;" x="648" xlink:href="#me6fbe3e123" y="28.933391"/>
      </g>
     </g>
     <g id="text_17">
      <!-- $\mathdefault{10^{4}}$ -->
      <g style="fill:#555555;" transform="translate(69.1 32.253704)scale(0.1 -0.1)">
       <use transform="translate(0 0.4)" xlink:href="#Inconsolata-49"/>
       <use transform="translate(49.999985 0.4)" xlink:href="#Inconsolata-48"/>
       <use transform="translate(100.799774 32.392188)scale(0.7)" xlink:href="#Inconsolata-52"/>
      </g>
     </g>
     <g id="text_18">
      <!-- $\mathdefault{10^{4}}$ -->
      <g style="fill:#555555;" transform="translate(655 32.253704)scale(0.1 -0.1)">
       <use transform="translate(0 0.4)" xlink:href="#Inconsolata-49"/>
       <use transform="translate(49.999985 0.4)" xlink:href="#Inconsolata-48"/>
       <use transform="translate(100.799774 32.392188)scale(0.7)" xlink:href="#Inconsolata-52"/>
      </g>
     </g>
    </g>
    <g id="ytick_6">
     <g id="line2d_32">
      <defs>
       <path d="M 0 0 
L -2 0 
" id="m160d2848f1" style="stroke:#555555;stroke-width:0.6;"/>
      </defs>
      <g>
       <use style="fill:#555555;stroke:#555555;stroke-width:0.6;" x="90" xlink:href="#m160d2848f1" y="156.062314"/>
      </g>
     </g>
     <g id="line2d_33">
      <defs>
       <path d="M 0 0 
L 2 0 
" id="macaa00651d" style="stroke:#555555;stroke-width:0.6;"/>
      </defs>
      <g>
       <use style="fill:#555555;stroke:#555555;stroke-width:0.6;" x="648" xlink:href="#macaa00651d" y="156.062314"/>
      </g>
     </g>
    </g>
    <g id="ytick_7">
     <g id="line2d_34">
      <g>
       <use style="fill:#555555;stroke:#555555;stroke-width:0.6;" x="90" xlink:href="#m160d2848f1" y="154.287915"/>
      </g>
     </g>
     <g id="line2d_35">
      <g>
       <use style="fill:#555555;stroke:#555555;stroke-width:0.6;" x="648" xlink:href="#macaa00651d" y="154.287915"/>
      </g>
     </g>
    </g>
    <g id="ytick_8">
     <g id="line2d_36">
      <g>
       <use style="fill:#555555;stroke:#555555;stroke-width:0.6;" x="90" xlink:href="#m160d2848f1" y="152.722784"/>
      </g>
     </g>
     <g id="line2d_37">
      <g>
       <use style="fill:#555555;stroke:#555555;stroke-width:0.6;" x="648" xlink:href="#macaa00651d" y="152.722784"/>
      </g>
     </g>
    </g>
    <g id="ytick_9">
     <g id="line2d_38">
      <g>
       <use style="fill:#555555;stroke:#555555;stroke-width:0.6;" x="90" xlink:href="#m160d2848f1" y="142.112012"/>
      </g>
     </g>
     <g id="line2d_39">
      <g>
       <use style="fill:#555555;stroke:#555555;stroke-width:0.6;" x="648" xlink:href="#macaa00651d" y="142.112012"/>
      </g>
     </g>
    </g>
    <g id="ytick_10">
     <g id="line2d_40">
      <g>
       <use style="fill:#555555;stroke:#555555;stroke-width:0.6;" x="90" xlink:href="#m160d2848f1" y="136.724089"/>
      </g>
     </g>
     <g id="line2d_41">
      <g>
       <use style="fill:#555555;stroke:#555555;stroke-width:0.6;" x="648" xlink:href="#macaa00651d" y="136.724089"/>
      </g>
     </g>
    </g>
    <g id="ytick_11">
     <g id="line2d_42">
      <g>
       <use style="fill:#555555;stroke:#555555;stroke-width:0.6;" x="90" xlink:href="#m160d2848f1" y="132.901297"/>
      </g>
     </g>
     <g id="line2d_43">
      <g>
       <use style="fill:#555555;stroke:#555555;stroke-width:0.6;" x="648" xlink:href="#macaa00651d" y="132.901297"/>
      </g>
     </g>
    </g>
    <g id="ytick_12">
     <g id="line2d_44">
      <g>
       <use style="fill:#555555;stroke:#555555;stroke-width:0.6;" x="90" xlink:href="#m160d2848f1" y="129.936109"/>
      </g>
     </g>
     <g id="line2d_45">
      <g>
       <use style="fill:#555555;stroke:#555555;stroke-width:0.6;" x="648" xlink:href="#macaa00651d" y="129.936109"/>
      </g>
     </g>
    </g>
    <g id="ytick_13">
     <g id="line2d_46">
      <g>
       <use style="fill:#555555;stroke:#555555;stroke-width:0.6;" x="90" xlink:href="#m160d2848f1" y="127.513374"/>
      </g>
     </g>
     <g id="line2d_47">
      <g>
       <use style="fill:#555555;stroke:#555555;stroke-width:0.6;" x="648" xlink:href="#macaa00651d" y="127.513374"/>
      </g>
     </g>
    </g>
    <g id="ytick_14">
     <g id="line2d_48">
      <g>
       <use style="fill:#555555;stroke:#555555;stroke-width:0.6;" x="90" xlink:href="#m160d2848f1" y="125.46498"/>
      </g>
     </g>
     <g id="line2d_49">
      <g>
       <use style="fill:#555555;stroke:#555555;stroke-width:0.6;" x="648" xlink:href="#macaa00651d" y="125.46498"/>
      </g>
     </g>
    </g>
    <g id="ytick_15">
     <g id="line2d_50">
      <g>
       <use style="fill:#555555;stroke:#555555;stroke-width:0.6;" x="90" xlink:href="#m160d2848f1" y="123.690581"/>
      </g>
     </g>
     <g id="line2d_51">
      <g>
       <use style="fill:#555555;stroke:#555555;stroke-width:0.6;" x="648" xlink:href="#macaa00651d" y="123.690581"/>
      </g>
     </g>
    </g>
    <g id="ytick_16">
     <g id="line2d_52">
      <g>
       <use style="fill:#555555;stroke:#555555;stroke-width:0.6;" x="90" xlink:href="#m160d2848f1" y="122.12545"/>
      </g>
     </g>
     <g id="line2d_53">
      <g>
       <use style="fill:#555555;stroke:#555555;stroke-width:0.6;" x="648" xlink:href="#macaa00651d" y="122.12545"/>
      </g>
     </g>
    </g>
    <g id="ytick_17">
     <g id="line2d_54">
      <g>
       <use style="fill:#555555;stroke:#555555;stroke-width:0.6;" x="90" xlink:href="#m160d2848f1" y="111.514678"/>
      </g>
     </g>
     <g id="line2d_55">
      <g>
       <use style="fill:#555555;stroke:#555555;stroke-width:0.6;" x="648" xlink:href="#macaa00651d" y="111.514678"/>
      </g>
     </g>
    </g>
    <g id="ytick_18">
     <g id="line2d_56">
      <g>
       <use style="fill:#555555;stroke:#555555;stroke-width:0.6;" x="90" xlink:href="#m160d2848f1" y="106.126755"/>
      </g>
     </g>
     <g id="line2d_57">
      <g>
       <use style="fill:#555555;stroke:#555555;stroke-width:0.6;" x="648" xlink:href="#macaa00651d" y="106.126755"/>
      </g>
     </g>
    </g>
    <g id="ytick_19">
     <g id="line2d_58">
      <g>
       <use style="fill:#555555;stroke:#555555;stroke-width:0.6;" x="90" xlink:href="#m160d2848f1" y="102.303963"/>
      </g>
     </g>
     <g id="line2d_59">
      <g>
       <use style="fill:#555555;stroke:#555555;stroke-width:0.6;" x="648" xlink:href="#macaa00651d" y="102.303963"/>
      </g>
     </g>
    </g>
    <g id="ytick_20">
     <g id="line2d_60">
      <g>
       <use style="fill:#555555;stroke:#555555;stroke-width:0.6;" x="90" xlink:href="#m160d2848f1" y="99.338775"/>
      </g>
     </g>
     <g id="line2d_61">
      <g>
       <use style="fill:#555555;stroke:#555555;stroke-width:0.6;" x="648" xlink:href="#macaa00651d" y="99.338775"/>
      </g>
     </g>
    </g>
    <g id="ytick_21">
     <g id="line2d_62">
      <g>
       <use style="fill:#555555;stroke:#555555;stroke-width:0.6;" x="90" xlink:href="#m160d2848f1" y="96.91604"/>
      </g>
     </g>
     <g id="line2d_63">
      <g>
       <use style="fill:#555555;stroke:#555555;stroke-width:0.6;" x="648" xlink:href="#macaa00651d" y="96.91604"/>
      </g>
     </g>
    </g>
    <g id="ytick_22">
     <g id="line2d_64">
      <g>
       <use style="fill:#555555;stroke:#555555;stroke-width:0.6;" x="90" xlink:href="#m160d2848f1" y="94.867646"/>
      </g>
     </g>
     <g id="line2d_65">
      <g>
       <use style="fill:#555555;stroke:#555555;stroke-width:0.6;" x="648" xlink:href="#macaa00651d" y="94.867646"/>
      </g>
     </g>
    </g>
    <g id="ytick_23">
     <g id="line2d_66">
      <g>
       <use style="fill:#555555;stroke:#555555;stroke-width:0.6;" x="90" xlink:href="#m160d2848f1" y="93.093247"/>
      </g>
     </g>
     <g id="line2d_67">
      <g>
       <use style="fill:#555555;stroke:#555555;stroke-width:0.6;" x="648" xlink:href="#macaa00651d" y="93.093247"/>
      </g>
     </g>
    </g>
    <g id="ytick_24">
     <g id="line2d_68">
      <g>
       <use style="fill:#555555;stroke:#555555;stroke-width:0.6;" x="90" xlink:href="#m160d2848f1" y="91.528116"/>
      </g>
     </g>
     <g id="line2d_69">
      <g>
       <use style="fill:#555555;stroke:#555555;stroke-width:0.6;" x="648" xlink:href="#macaa00651d" y="91.528116"/>
      </g>
     </g>
    </g>
    <g id="ytick_25">
     <g id="line2d_70">
      <g>
       <use style="fill:#555555;stroke:#555555;stroke-width:0.6;" x="90" xlink:href="#m160d2848f1" y="80.917344"/>
      </g>
     </g>
     <g id="line2d_71">
      <g>
       <use style="fill:#555555;stroke:#555555;stroke-width:0.6;" x="648" xlink:href="#macaa00651d" y="80.917344"/>
      </g>
     </g>
    </g>
    <g id="ytick_26">
     <g id="line2d_72">
      <g>
       <use style="fill:#555555;stroke:#555555;stroke-width:0.6;" x="90" xlink:href="#m160d2848f1" y="75.529421"/>
      </g>
     </g>
     <g id="line2d_73">
      <g>
       <use style="fill:#555555;stroke:#555555;stroke-width:0.6;" x="648" xlink:href="#macaa00651d" y="75.529421"/>
      </g>
     </g>
    </g>
    <g id="ytick_27">
     <g id="line2d_74">
      <g>
       <use style="fill:#555555;stroke:#555555;stroke-width:0.6;" x="90" xlink:href="#m160d2848f1" y="71.706629"/>
      </g>
     </g>
     <g id="line2d_75">
      <g>
       <use style="fill:#555555;stroke:#555555;stroke-width:0.6;" x="648" xlink:href="#macaa00651d" y="71.706629"/>
      </g>
     </g>
    </g>
    <g id="ytick_28">
     <g id="line2d_76">
      <g>
       <use style="fill:#555555;stroke:#555555;stroke-width:0.6;" x="90" xlink:href="#m160d2848f1" y="68.741441"/>
      </g>
     </g>
     <g id="line2d_77">
      <g>
       <use style="fill:#555555;stroke:#555555;stroke-width:0.6;" x="648" xlink:href="#macaa00651d" y="68.741441"/>
      </g>
     </g>
    </g>
    <g id="ytick_29">
     <g id="line2d_78">
      <g>
       <use style="fill:#555555;stroke:#555555;stroke-width:0.6;" x="90" xlink:href="#m160d2848f1" y="66.318706"/>
      </g>
     </g>
     <g id="line2d_79">
      <g>
       <use style="fill:#555555;stroke:#555555;stroke-width:0.6;" x="648" xlink:href="#macaa00651d" y="66.318706"/>
      </g>
     </g>
    </g>
    <g id="ytick_30">
     <g id="line2d_80">
      <g>
       <use style="fill:#555555;stroke:#555555;stroke-width:0.6;" x="90" xlink:href="#m160d2848f1" y="64.270312"/>
      </g>
     </g>
     <g id="line2d_81">
      <g>
       <use style="fill:#555555;stroke:#555555;stroke-width:0.6;" x="648" xlink:href="#macaa00651d" y="64.270312"/>
      </g>
     </g>
    </g>
    <g id="ytick_31">
     <g id="line2d_82">
      <g>
       <use style="fill:#555555;stroke:#555555;stroke-width:0.6;" x="90" xlink:href="#m160d2848f1" y="62.495913"/>
      </g>
     </g>
     <g id="line2d_83">
      <g>
       <use style="fill:#555555;stroke:#555555;stroke-width:0.6;" x="648" xlink:href="#macaa00651d" y="62.495913"/>
      </g>
     </g>
    </g>
    <g id="ytick_32">
     <g id="line2d_84">
      <g>
       <use style="fill:#555555;stroke:#555555;stroke-width:0.6;" x="90" xlink:href="#m160d2848f1" y="60.930782"/>
      </g>
     </g>
     <g id="line2d_85">
      <g>
       <use style="fill:#555555;stroke:#555555;stroke-width:0.6;" x="648" xlink:href="#macaa00651d" y="60.930782"/>
      </g>
     </g>
    </g>
    <g id="ytick_33">
     <g id="line2d_86">
      <g>
       <use style="fill:#555555;stroke:#555555;stroke-width:0.6;" x="90" xlink:href="#m160d2848f1" y="50.32001"/>
      </g>
     </g>
     <g id="line2d_87">
      <g>
       <use style="fill:#555555;stroke:#555555;stroke-width:0.6;" x="648" xlink:href="#macaa00651d" y="50.32001"/>
      </g>
     </g>
    </g>
    <g id="ytick_34">
     <g id="line2d_88">
      <g>
       <use style="fill:#555555;stroke:#555555;stroke-width:0.6;" x="90" xlink:href="#m160d2848f1" y="44.932087"/>
      </g>
     </g>
     <g id="line2d_89">
      <g>
       <use style="fill:#555555;stroke:#555555;stroke-width:0.6;" x="648" xlink:href="#macaa00651d" y="44.932087"/>
      </g>
     </g>
    </g>
    <g id="ytick_35">
     <g id="line2d_90">
      <g>
       <use style="fill:#555555;stroke:#555555;stroke-width:0.6;" x="90" xlink:href="#m160d2848f1" y="41.109295"/>
      </g>
     </g>
     <g id="line2d_91">
      <g>
       <use style="fill:#555555;stroke:#555555;stroke-width:0.6;" x="648" xlink:href="#macaa00651d" y="41.109295"/>
      </g>
     </g>
    </g>
    <g id="ytick_36">
     <g id="line2d_92">
      <g>
       <use style="fill:#555555;stroke:#555555;stroke-width:0.6;" x="90" xlink:href="#m160d2848f1" y="38.144107"/>
      </g>
     </g>
     <g id="line2d_93">
      <g>
       <use style="fill:#555555;stroke:#555555;stroke-width:0.6;" x="648" xlink:href="#macaa00651d" y="38.144107"/>
      </g>
     </g>
    </g>
    <g id="ytick_37">
     <g id="line2d_94">
      <g>
       <use style="fill:#555555;stroke:#555555;stroke-width:0.6;" x="90" xlink:href="#m160d2848f1" y="35.721372"/>
      </g>
     </g>
     <g id="line2d_95">
      <g>
       <use style="fill:#555555;stroke:#555555;stroke-width:0.6;" x="648" xlink:href="#macaa00651d" y="35.721372"/>
      </g>
     </g>
    </g>
    <g id="ytick_38">
     <g id="line2d_96">
      <g>
       <use style="fill:#555555;stroke:#555555;stroke-width:0.6;" x="90" xlink:href="#m160d2848f1" y="33.672978"/>
      </g>
     </g>
     <g id="line2d_97">
      <g>
       <use style="fill:#555555;stroke:#555555;stroke-width:0.6;" x="648" xlink:href="#macaa00651d" y="33.672978"/>
      </g>
     </g>
    </g>
    <g id="ytick_39">
     <g id="line2d_98">
      <g>
       <use style="fill:#555555;stroke:#555555;stroke-width:0.6;" x="90" xlink:href="#m160d2848f1" y="31.898579"/>
      </g>
     </g>
     <g id="line2d_99">
      <g>
       <use style="fill:#555555;stroke:#555555;stroke-width:0.6;" x="648" xlink:href="#macaa00651d" y="31.898579"/>
      </g>
     </g>
    </g>
    <g id="ytick_40">
     <g id="line2d_100">
      <g>
       <use style="fill:#555555;stroke:#555555;stroke-width:0.6;" x="90" xlink:href="#m160d2848f1" y="30.333448"/>
      </g>
     </g>
     <g id="line2d_101">
      <g>
       <use style="fill:#555555;stroke:#555555;stroke-width:0.6;" x="648" xlink:href="#macaa00651d" y="30.333448"/>
      </g>
     </g>
    </g>
    <g id="text_19">
     <!-- total numbers -->
     <defs>
      <path d="M 18.796875 57.90625 
L 17.90625 45.59375 
L 7 45.59375 
L 6.90625 39.703125 
L 17.59375 39.703125 
C 17 31.90625 16.703125 24.09375 16.703125 16.40625 
C 16.703125 12.296875 16.703125 7.703125 19.40625 3.90625 
C 21.59375 0.90625 25.09375 -0.90625 29.796875 -0.90625 
C 35.203125 -0.90625 40.5 1.40625 44.40625 4.203125 
L 42.203125 9.90625 
C 38.296875 7 34.703125 5.703125 31.90625 5.703125 
C 28.5 5.703125 25 7.59375 24.203125 13.09375 
C 24.203125 13.5 23.90625 15.203125 23.90625 21.90625 
C 23.90625 27.796875 24.203125 33.796875 24.796875 39.703125 
L 39.796875 39.703125 
L 39.796875 45.703125 
L 24.90625 45.703125 
C 24.90625 45.703125 25.59375 53.90625 26.09375 56.5 
C 26.203125 57.5 27 58.09375 26.59375 59.203125 
z
" id="Inconsolata-116"/>
      <path d="M 46 22.59375 
C 46 38.40625 36 46.59375 25.59375 46.59375 
C 14 46.59375 4 36.59375 4 22.40625 
C 4 8.5 13.90625 -1.296875 25.40625 -1.296875 
C 36.203125 -1.296875 46 7.40625 46 22.59375 
z
M 25.09375 40.5 
C 31.703125 40.5 38.703125 34.796875 38.703125 22.296875 
C 38.703125 10.796875 32.09375 5 25.5 5 
C 18.203125 5 11.59375 11.796875 11.59375 23.09375 
C 11.59375 34.296875 18.09375 40.5 25.09375 40.5 
z
" id="Inconsolata-111"/>
      <path d="M 9 40.296875 
L 12.5 35.703125 
C 16.296875 39.59375 21.40625 40.796875 25.703125 40.796875 
C 31.09375 40.796875 33.796875 38.5 35.09375 36.40625 
C 36.59375 33.90625 36.5 30.90625 36.5 28.5 
L 36.5 26.90625 
L 35.09375 26.90625 
C 28.296875 26.90625 21.09375 26.90625 15.296875 24.796875 
C 8.09375 22.203125 4.90625 16.796875 4.90625 11.796875 
C 4.90625 5.09375 10.703125 -1.203125 20.203125 -1.203125 
C 25.796875 -1.203125 31.59375 0.90625 36.59375 5 
L 36.59375 0 
L 43.40625 0 
L 43.40625 28.296875 
C 43.40625 32 43.296875 35.5 41.203125 39.09375 
C 38.203125 44 32.40625 46.59375 25.296875 46.59375 
C 19.203125 46.59375 13.296875 44.703125 9 40.296875 
z
M 36.796875 21.40625 
L 36.796875 18.296875 
C 36.796875 16 36.796875 13 33.703125 9.703125 
C 32 8 27.703125 4.296875 21.703125 4.296875 
C 15.59375 4.296875 12.09375 8.203125 12.09375 12.203125 
C 12.09375 15.59375 14.40625 19.296875 20.09375 20.703125 
C 24.296875 21.703125 30.40625 21.40625 35.203125 21.40625 
z
" id="Inconsolata-97"/>
      <path d="M 8.40625 66.40625 
L 8.40625 60.59375 
L 21.40625 60.59375 
L 21.40625 5.703125 
L 7.796875 5.703125 
L 7.796875 0 
L 42.09375 0 
L 42.09375 5.703125 
L 28.59375 5.703125 
L 28.59375 66.40625 
z
" id="Inconsolata-108"/>
      <path id="Inconsolata-32"/>
      <path d="M 6.796875 0 
L 14.09375 0 
L 14.09375 26.296875 
C 14.09375 29.296875 14.5 31.59375 16.40625 34.09375 
C 18.09375 36.40625 22.5 40.5 27.296875 40.5 
C 29.59375 40.5 31.90625 39.5 33.5 37.59375 
C 36 34.59375 36 30.703125 36 27.5 
L 36 0 
L 43.09375 0 
L 43.09375 27.703125 
C 43.09375 31.203125 43.09375 35 41.5 38.703125 
C 39.203125 43.796875 34.5 46.703125 29.296875 46.703125 
C 23.09375 46.703125 17.5 42.703125 14.09375 37.59375 
L 14.09375 45.59375 
L 6.796875 45.59375 
z
" id="Inconsolata-110"/>
      <path d="M 6.203125 45.59375 
L 6.203125 20.09375 
C 6.203125 16.203125 6.203125 12.203125 8 8.09375 
C 10.59375 2.09375 16.203125 -1.203125 22.203125 -1.203125 
C 27.90625 -1.203125 33.296875 1.90625 36.296875 6.90625 
L 36.203125 3.5 
C 36.203125 2.296875 36.203125 1.09375 36.40625 0 
L 44 0 
C 43.5 1.296875 43.40625 2.796875 43.40625 4.09375 
L 43.40625 45.59375 
L 36.203125 45.59375 
L 36.203125 20.5 
C 36.203125 17 35.90625 14.296875 34.40625 11.5 
C 32.296875 7.59375 28.203125 4.703125 23.796875 4.703125 
C 20.296875 4.703125 16.90625 6.703125 15.09375 10.296875 
C 13.5 13.5 13.5 17.09375 13.5 20.09375 
L 13.5 45.59375 
z
" id="Inconsolata-117"/>
      <path d="M 3.703125 0 
L 10.296875 0 
L 10.296875 30.40625 
C 10.296875 32.59375 10.5 34.59375 11.796875 37 
C 13.40625 40 15.40625 41.203125 17.296875 41.203125 
C 18.90625 41.203125 20.703125 40.203125 21.5 37.703125 
C 22.09375 35.796875 22 33.59375 22 31.703125 
L 22 0 
L 28.703125 0 
L 28.703125 30.203125 
C 28.703125 32.59375 28.90625 34.5 30.59375 37.40625 
C 31.40625 38.59375 33.09375 41.5 35.90625 41.5 
C 37.40625 41.5 38.796875 40.59375 39.5 38.90625 
C 40.40625 37 40.203125 34.40625 40.203125 32.296875 
L 40.203125 -0.09375 
L 47 -0.09375 
L 47 32.40625 
C 47 36.203125 47.09375 40 45.09375 43.09375 
C 43.40625 45.703125 40.5 46.703125 38 46.703125 
C 33.59375 46.703125 29.5 44.09375 27.703125 40.09375 
C 27 43.90625 23.796875 46.703125 19.703125 46.703125 
C 15.90625 46.703125 12.40625 44.296875 10.296875 41.09375 
L 10.40625 45.59375 
L 3.703125 45.59375 
z
" id="Inconsolata-109"/>
      <path d="M 5.90625 66.5 
L 5.90625 0 
L 10.59375 0 
L 13.09375 6 
C 16.09375 1.5 21.09375 -1.203125 26.59375 -1.203125 
C 36 -1.203125 45.703125 6.796875 45.703125 23.40625 
C 45.703125 39.296875 36.296875 46.703125 27.296875 46.703125 
C 21.5 46.703125 16.09375 43.59375 13.203125 38.59375 
L 13.203125 64.203125 
C 13.203125 64.796875 13.296875 65 13.796875 65.40625 
C 14 65.5 14.5 65.90625 14.40625 66.5 
z
M 24.796875 40.5 
C 29.09375 40.5 38.203125 38 38.203125 21.796875 
C 38.203125 7.90625 29.203125 5.296875 24.703125 5.296875 
C 21.59375 5.296875 14.703125 6.5 13.5 15.296875 
C 13.203125 17.59375 13.203125 20.296875 13.203125 24.296875 
C 13.203125 28.40625 13.40625 31.40625 14.40625 33.90625 
C 16.09375 38 20.296875 40.5 24.796875 40.5 
z
" id="Inconsolata-98"/>
      <path d="M 25.796875 46.703125 
C 14.90625 46.703125 4.796875 38.90625 4.796875 22.296875 
C 4.796875 7 14.296875 -1.09375 26.703125 -1.09375 
C 33.296875 -1.09375 39.203125 1.296875 43.09375 6 
L 39.09375 9.90625 
C 36.203125 6.5 31.796875 4.703125 27.296875 4.703125 
C 21.203125 4.703125 12.296875 8.09375 11.796875 21.796875 
L 44.203125 21.796875 
C 44.5 24.90625 44.40625 27.90625 43.90625 30.5 
C 41.796875 42.796875 33.296875 46.703125 25.796875 46.703125 
z
M 12 27.296875 
C 13.5 38.09375 20.40625 41.203125 25.296875 41.203125 
C 32.703125 41.203125 38 34.703125 37.09375 27.296875 
z
" id="Inconsolata-101"/>
      <path d="M 9.90625 45.59375 
L 9.90625 -0.09375 
L 17.09375 -0.09375 
L 17.09375 22.09375 
C 17.09375 24.90625 17.203125 27.90625 20.296875 32.796875 
C 24.5 39.40625 29.90625 40.5 33.203125 40.5 
C 37 40.5 39.40625 38.703125 40.703125 37.09375 
C 41.296875 36.296875 41.59375 35.5 42.40625 34.796875 
L 45.796875 41.703125 
C 42.90625 44.703125 38.703125 46.703125 33.59375 46.703125 
C 26.90625 46.703125 20.09375 43.296875 17.09375 36.796875 
L 17.40625 45.59375 
z
" id="Inconsolata-114"/>
      <path d="M 43.203125 39.59375 
C 39 44.203125 32.90625 46.703125 26.09375 46.703125 
C 15.5 46.703125 8.59375 40.796875 8.59375 34 
C 8.59375 26 17.203125 23.09375 19.703125 22.203125 
C 23.59375 20.796875 28.59375 19.59375 32 18 
C 35.796875 16.203125 36.5 13.796875 36.5 12.203125 
C 36.5 7.90625 31.296875 5 24.796875 5 
C 17 5 12 9.703125 10.5 11.296875 
C 10.203125 11.703125 10.203125 12 10.203125 12.40625 
C 10.203125 12.5 10.296875 13.09375 9.796875 13.296875 
L 5.59375 6.203125 
C 11 1.203125 18 -1.09375 24.90625 -1.09375 
C 37.40625 -1.09375 43.90625 6.296875 43.90625 13.203125 
C 43.90625 16.296875 42.59375 20.5 37.203125 23.5 
C 32.09375 26.40625 24.703125 27.40625 20.40625 29.5 
C 16.703125 31.296875 15.90625 33.5 15.90625 35.09375 
C 15.90625 38.703125 20.40625 41.296875 25.5 41.296875 
C 32.09375 41.296875 36.5 37.296875 38.203125 35 
C 38.5 34.703125 38.40625 34.40625 38.40625 34.09375 
C 38.40625 33.5 38.796875 33.296875 39 33.296875 
z
" id="Inconsolata-115"/>
     </defs>
     <g style="fill:#555555;" transform="translate(63.095625 128.55)rotate(-90)scale(0.12 -0.12)">
      <use xlink:href="#Inconsolata-116"/>
      <use x="49.999985" xlink:href="#Inconsolata-111"/>
      <use x="99.999969" xlink:href="#Inconsolata-116"/>
      <use x="149.999954" xlink:href="#Inconsolata-97"/>
      <use x="199.999939" xlink:href="#Inconsolata-108"/>
      <use x="249.999924" xlink:href="#Inconsolata-32"/>
      <use x="299.999908" xlink:href="#Inconsolata-110"/>
      <use x="349.999893" xlink:href="#Inconsolata-117"/>
      <use x="399.999878" xlink:href="#Inconsolata-109"/>
      <use x="449.999863" xlink:href="#Inconsolata-98"/>
      <use x="499.999847" xlink:href="#Inconsolata-101"/>
      <use x="549.999832" xlink:href="#Inconsolata-114"/>
      <use x="599.999817" xlink:href="#Inconsolata-115"/>
     </g>
    </g>
   </g>
   <g id="line2d_102">
    <path clip-path="url(#p1811c4ca57)" d="M 115.363636 151.322727 
L 120.017515 151.322727 
L 120.017515 142.112012 
L 129.325271 142.112012 
L 129.325271 136.724089 
L 133.979149 136.724089 
L 133.979149 132.901297 
L 152.594662 132.901297 
L 152.594662 119.458887 
L 157.24854 119.458887 
L 157.24854 118.302658 
L 161.902419 118.302658 
L 161.902419 115.33747 
L 171.210175 115.33747 
L 171.210175 114.479866 
L 175.864053 114.479866 
L 175.864053 112.196276 
L 180.517932 112.196276 
L 180.517932 109.657486 
L 185.17181 109.657486 
L 185.17181 109.091943 
L 194.479566 109.091943 
L 194.479566 108.54949 
L 199.133445 108.54949 
L 199.133445 107.526812 
L 203.787323 107.526812 
L 203.787323 107.04355 
L 227.056714 107.04355 
L 227.056714 106.577247 
L 231.710592 106.577247 
L 231.710592 106.126755 
L 236.36447 106.126755 
L 236.36447 105.691035 
L 245.672227 105.691035 
L 245.672227 89.606884 
L 250.326105 89.606884 
L 250.326105 80.654202 
L 254.979983 80.654202 
L 254.979983 70.653226 
L 259.633862 70.653226 
L 259.633862 66.274485 
L 264.28774 66.274485 
L 264.28774 61.958777 
L 268.941618 61.958777 
L 268.941618 59.839925 
L 273.595496 59.839925 
L 273.595496 56.449112 
L 278.249374 56.449112 
L 278.249374 51.973468 
L 282.903253 51.973468 
L 282.903253 48.250751 
L 287.557131 48.250751 
L 287.557131 44.283751 
L 292.211009 44.283751 
L 292.211009 42.016601 
L 296.864887 42.016601 
L 296.864887 40.040557 
L 301.518766 40.040557 
L 301.518766 37.658756 
L 306.172644 37.658756 
L 306.172644 36.588429 
L 310.826522 36.588429 
L 310.826522 35.527893 
L 315.4804 35.527893 
L 315.4804 34.468967 
L 320.134279 34.468967 
L 320.134279 33.595374 
L 324.788157 33.595374 
L 324.788157 33.089887 
L 329.442035 33.089887 
L 329.442035 32.79522 
L 338.749791 32.73317 
L 338.749791 32.311894 
L 343.40367 32.311894 
L 343.40367 32.117976 
L 348.057548 32.117976 
L 348.057548 31.933507 
L 352.711426 31.933507 
L 352.711426 31.756493 
L 357.365304 31.756493 
L 357.365304 31.63218 
L 362.019183 31.63218 
L 362.019183 31.512247 
L 366.673061 31.512247 
L 366.673061 31.377404 
L 371.326939 31.377404 
L 371.326939 31.229694 
L 375.980817 31.229694 
L 375.980817 30.991754 
L 380.634696 30.991754 
L 380.634696 30.857458 
L 385.288574 30.857458 
L 385.288574 30.633584 
L 389.942452 30.633584 
L 389.942452 30.391156 
L 399.250209 30.391156 
L 399.250209 30.278931 
L 403.904087 30.278931 
L 403.904087 30.132696 
L 408.557965 30.132696 
L 408.557965 29.982299 
L 413.211843 29.982299 
L 413.211843 29.852084 
L 417.865721 29.852084 
L 417.865721 29.645798 
L 422.5196 29.645798 
L 422.5196 29.499396 
L 431.827356 29.391676 
L 431.827356 29.220847 
L 436.481234 29.220847 
L 436.481234 29.084403 
L 441.135113 29.084403 
L 441.135113 28.965321 
L 445.788991 28.965321 
L 445.788991 28.851258 
L 450.442869 28.851258 
L 450.442869 28.727695 
L 459.750626 28.622134 
L 459.750626 28.561264 
L 469.058382 28.500673 
L 469.058382 28.432676 
L 483.020017 28.348484 
L 483.020017 28.31039 
L 501.63553 28.204306 
L 501.63553 28.170386 
L 529.558799 28.066654 
L 529.558799 28.055455 
L 571.443703 27.953847 
L 571.443703 27.942742 
L 613.328607 27.861589 
L 613.328607 27.819975 
L 622.636364 27.777273 
L 622.636364 27.777273 
" style="fill:none;stroke:#348abd;stroke-linecap:square;stroke-width:3;"/>
   </g>
   <g id="line2d_103">
    <path clip-path="url(#p1811c4ca57)" d="M 245.672227 181 
L 245.672227 151.322727 
L 250.326105 151.322727 
L 250.326105 142.112012 
L 259.633862 142.112012 
L 259.633862 127.513374 
L 264.28774 127.513374 
L 264.28774 123.690581 
L 268.941618 123.690581 
L 268.941618 120.725393 
L 273.595496 120.725393 
L 273.595496 118.302658 
L 278.249374 118.302658 
L 278.249374 117.23903 
L 287.557131 117.23903 
L 287.557131 114.479866 
L 292.211009 114.479866 
L 292.211009 113.674271 
L 296.864887 113.674271 
L 296.864887 107.04355 
L 306.172644 107.04355 
L 306.172644 104.078362 
L 315.4804 104.078362 
L 315.4804 101.655627 
L 320.134279 101.655627 
L 320.134279 101.037457 
L 324.788157 101.037457 
L 324.788157 99.338775 
L 329.442035 99.338775 
L 329.442035 98.564483 
L 334.095913 98.564483 
L 334.095913 98.316097 
L 338.749791 98.316097 
L 338.749791 96.91604 
L 343.40367 96.91604 
L 343.40367 95.649534 
L 352.711426 95.649534 
L 352.711426 94.493305 
L 357.365304 94.493305 
L 357.365304 93.950851 
L 366.673061 93.950851 
L 366.673061 92.928174 
L 371.326939 92.928174 
L 371.326939 92.444911 
L 375.980817 92.444911 
L 375.980817 91.381283 
L 380.634696 91.381283 
L 380.634696 90.950275 
L 385.288574 90.950275 
L 385.288574 89.864917 
L 389.942452 89.864917 
L 389.942452 88.741297 
L 399.250209 88.741297 
L 399.250209 87.705324 
L 403.904087 87.705324 
L 403.904087 87.056988 
L 408.557965 87.056988 
L 408.557965 86.53987 
L 413.211843 86.53987 
L 413.211843 85.752188 
L 417.865721 85.752188 
L 417.865721 85.282589 
L 422.5196 85.282589 
L 422.5196 84.56413 
L 427.173478 84.56413 
L 427.173478 84.049682 
L 431.827356 84.049682 
L 431.827356 83.717458 
L 436.481234 83.717458 
L 436.481234 83.47363 
L 441.135113 83.47363 
L 441.135113 83.155334 
L 445.788991 83.155334 
L 445.788991 82.767894 
L 450.442869 82.767894 
L 450.442869 82.540738 
L 455.096747 82.540738 
L 455.096747 82.097756 
L 459.750626 82.097756 
L 459.750626 81.881682 
L 464.404504 81.881682 
L 464.404504 81.459797 
L 469.058382 81.459797 
L 469.058382 80.917344 
L 473.71226 80.917344 
L 473.71226 80.654202 
L 478.366138 80.654202 
L 478.366138 80.396169 
L 483.020017 80.396169 
L 483.020017 80.205881 
L 487.673895 80.205881 
L 487.673895 80.018279 
L 492.327773 80.018279 
L 492.327773 79.833288 
L 496.981651 79.833288 
L 496.981651 79.530582 
L 501.63553 79.530582 
L 501.63553 79.352213 
L 506.289408 79.352213 
L 506.289408 79.118053 
L 515.597164 79.060152 
L 515.597164 78.945101 
L 520.251043 78.945101 
L 520.251043 78.831038 
L 524.904921 78.831038 
L 524.904921 78.717946 
L 534.212677 78.661759 
L 534.212677 78.605808 
L 538.866555 78.605808 
L 538.866555 78.494609 
L 552.82819 78.384332 
L 552.82819 78.329535 
L 562.135947 78.274963 
L 562.135947 78.166487 
L 576.097581 78.058889 
L 576.097581 77.952156 
L 590.059216 77.846273 
L 590.059216 77.741227 
L 622.636364 77.637005 
L 622.636364 77.637005 
" style="fill:none;stroke:#e24a33;stroke-linecap:square;stroke-width:3;"/>
   </g>
   <g id="patch_3">
    <path d="M 90 157.5 
L 90 21.6 
" style="fill:none;stroke:#ffffff;stroke-linecap:square;stroke-linejoin:miter;"/>
   </g>
   <g id="patch_4">
    <path d="M 648 157.5 
L 648 21.6 
" style="fill:none;stroke:#ffffff;stroke-linecap:square;stroke-linejoin:miter;"/>
   </g>
   <g id="patch_5">
    <path d="M 90 157.5 
L 648 157.5 
" style="fill:none;stroke:#ffffff;stroke-linecap:square;stroke-linejoin:miter;"/>
   </g>
   <g id="patch_6">
    <path d="M 90 21.6 
L 648 21.6 
" style="fill:none;stroke:#ffffff;stroke-linecap:square;stroke-linejoin:miter;"/>
   </g>
   <g id="legend_1">
    <g id="patch_7">
     <path d="M 97 56.98125 
L 224 56.98125 
Q 226 56.98125 226 54.98125 
L 226 28.6 
Q 226 26.6 224 26.6 
L 97 26.6 
Q 95 26.6 95 28.6 
L 95 54.98125 
Q 95 56.98125 97 56.98125 
z
" style="fill:#e5e5e5;opacity:0.8;stroke:#cccccc;stroke-linejoin:miter;stroke-width:0.5;"/>
    </g>
    <g id="line2d_104">
     <path d="M 99 34.1 
L 119 34.1 
" style="fill:none;stroke:#348abd;stroke-linecap:square;stroke-width:3;"/>
    </g>
    <g id="line2d_105"/>
    <g id="text_20">
     <!-- Korea, South cases -->
     <defs>
      <path d="M 4.203125 62.296875 
L 4.203125 0 
L 11.59375 0 
L 11.59375 25.796875 
L 16.5 31.09375 
L 38.203125 -0.5 
C 38.203125 -0.5 42.09375 -0.09375 47.09375 -0.09375 
L 21.90625 35.296875 
L 45.40625 62.296875 
L 42.796875 62.296875 
C 41.09375 62.296875 39.40625 62.296875 37.703125 62.796875 
L 11.59375 33.5 
L 11.59375 59.796875 
C 11.59375 60.203125 11.59375 60.5 12 60.90625 
C 12.203125 61.203125 12.703125 61.703125 12.5 62.296875 
z
" id="Inconsolata-75"/>
      <path d="M 30.5 1.90625 
C 30.5 7 27.09375 10.203125 23.59375 10.203125 
C 20.296875 10.203125 17.796875 7.5 17.796875 4.5 
C 17.796875 1.796875 19.703125 0.703125 20.59375 0.09375 
C 21.5 -0.5 22.90625 -1.40625 22.90625 -3.5 
C 22.90625 -5.09375 22 -6.796875 21.5 -7.59375 
C 20.5 -9.203125 18.796875 -11.703125 16.40625 -13.90625 
L 19.90625 -16.90625 
C 26.90625 -9.796875 30.5 -3.296875 30.5 1.90625 
z
" id="Inconsolata-44"/>
      <path d="M 43.40625 54.796875 
C 39.203125 59.90625 33 62.59375 26.203125 62.59375 
C 14.90625 62.59375 7.203125 55.203125 7.203125 46.59375 
C 7.203125 43 8.59375 38.296875 13.796875 34.5 
C 19.59375 30.203125 28.59375 28.09375 33.296875 25.09375 
C 37.40625 22.59375 38.5 19.296875 38.5 16.5 
C 38.5 11.09375 33.90625 5.203125 24.90625 5.203125 
C 18.09375 5.203125 12.796875 8.59375 10 12.09375 
C 9.703125 12.5 9.703125 12.703125 9.703125 13.09375 
C 9.703125 13.296875 9.703125 13.90625 9.296875 14.09375 
L 5.09375 6.90625 
C 10 1.59375 17 -1.09375 24.703125 -1.09375 
C 39.90625 -1.09375 45.5 9.09375 45.5 16.90625 
C 45.5 20.203125 44.5 24.5 40.59375 28.203125 
C 35.203125 33.296875 26.40625 35.09375 20.703125 38.40625 
C 15.5 41.5 14.40625 45.203125 14.40625 47.703125 
C 14.40625 52.5 18.5 56.796875 25.59375 56.796875 
C 31.40625 56.796875 35.90625 54.203125 38.296875 50.703125 
C 38.59375 50.296875 38.5 50.09375 38.5 49.703125 
C 38.5 49.09375 38.796875 48.90625 39 48.90625 
z
" id="Inconsolata-83"/>
      <path d="M 6.90625 0 
L 14.296875 0 
L 14.296875 26.296875 
C 14.296875 29.296875 14.59375 31.59375 16.5 34.09375 
C 18.296875 36.40625 22.703125 40.5 27.5 40.5 
C 29.796875 40.5 32.09375 39.5 33.703125 37.59375 
C 36.203125 34.59375 36.203125 30.703125 36.203125 27.5 
L 36.203125 0 
L 43.296875 0 
L 43.296875 27.703125 
C 43.296875 31.203125 43.203125 35 41.59375 38.703125 
C 39.296875 43.796875 34.703125 46.703125 29.5 46.703125 
C 23.296875 46.703125 17.59375 42.703125 14.296875 37.59375 
L 14.296875 64.09375 
C 14.296875 64.40625 14.296875 64.703125 14.59375 65 
C 14.90625 65.296875 15.296875 65.59375 15.296875 66.09375 
C 15.296875 66.203125 15.296875 66.296875 15.203125 66.40625 
L 6.90625 66.40625 
z
" id="Inconsolata-104"/>
      <path d="M 45.59375 38.09375 
C 42 43.40625 35.90625 46.59375 28.5 46.59375 
C 15.09375 46.59375 5.59375 36.5 5.59375 22.796875 
C 5.59375 9 15.09375 -1.203125 28.09375 -1.203125 
C 34.40625 -1.203125 40.59375 1.40625 44.90625 6.09375 
L 40.796875 10.90625 
C 37.703125 7.40625 33.203125 5.40625 28.703125 5.40625 
C 19.796875 5.40625 13 12.796875 13 23.5 
C 13 33.90625 19.703125 40.40625 28.09375 40.40625 
C 35.90625 40.40625 39.59375 35 39.90625 34.40625 
C 40.296875 33.703125 39.703125 32.703125 40.5 32.09375 
z
" id="Inconsolata-99"/>
     </defs>
     <g transform="translate(127 37.6)scale(0.1 -0.1)">
      <use xlink:href="#Inconsolata-75"/>
      <use x="49.999985" xlink:href="#Inconsolata-111"/>
      <use x="99.999969" xlink:href="#Inconsolata-114"/>
      <use x="149.999954" xlink:href="#Inconsolata-101"/>
      <use x="199.999939" xlink:href="#Inconsolata-97"/>
      <use x="249.999924" xlink:href="#Inconsolata-44"/>
      <use x="299.999908" xlink:href="#Inconsolata-32"/>
      <use x="349.999893" xlink:href="#Inconsolata-83"/>
      <use x="399.999878" xlink:href="#Inconsolata-111"/>
      <use x="449.999863" xlink:href="#Inconsolata-117"/>
      <use x="499.999847" xlink:href="#Inconsolata-116"/>
      <use x="549.999832" xlink:href="#Inconsolata-104"/>
      <use x="599.999817" xlink:href="#Inconsolata-32"/>
      <use x="649.999802" xlink:href="#Inconsolata-99"/>
      <use x="699.999786" xlink:href="#Inconsolata-97"/>
      <use x="749.999771" xlink:href="#Inconsolata-115"/>
      <use x="799.999756" xlink:href="#Inconsolata-101"/>
      <use x="849.999741" xlink:href="#Inconsolata-115"/>
     </g>
    </g>
    <g id="line2d_106">
     <path d="M 99 47.790625 
L 119 47.790625 
" style="fill:none;stroke:#e24a33;stroke-linecap:square;stroke-width:3;"/>
    </g>
    <g id="line2d_107"/>
    <g id="text_21">
     <!-- Korea, South deaths -->
     <defs>
      <path d="M 37.09375 39 
C 34.90625 43.703125 30 46.796875 23.703125 46.796875 
C 15 46.796875 4.40625 40.59375 4.40625 23.203125 
C 4.40625 6.296875 13.796875 -1.09375 22.59375 -1.09375 
C 28.40625 -1.09375 33.796875 2.203125 36.703125 7.296875 
L 36.703125 3.296875 
C 36.703125 2.203125 36.796875 1.09375 37.09375 0 
L 44.296875 0 
C 43.90625 1.296875 43.90625 2.796875 43.90625 4.203125 
L 43.796875 63.59375 
C 43.796875 64.203125 43.796875 64.40625 44.203125 65 
C 44.40625 65.296875 44.796875 65.796875 44.703125 66.5 
L 37.09375 66.5 
z
M 24 40.90625 
C 28 40.90625 33.90625 38.796875 35.703125 32 
C 36.296875 29.90625 36.5 27.40625 36.5 22.296875 
C 36.5 18.796875 36.296875 16.296875 35.5 13.90625 
C 33.796875 8.5 29 5.296875 24.296875 5.296875 
C 19.09375 5.296875 11.40625 9.296875 11.40625 24.296875 
C 11.40625 37.40625 18.703125 40.90625 24 40.90625 
z
" id="Inconsolata-100"/>
     </defs>
     <g transform="translate(127 51.290625)scale(0.1 -0.1)">
      <use xlink:href="#Inconsolata-75"/>
      <use x="49.999985" xlink:href="#Inconsolata-111"/>
      <use x="99.999969" xlink:href="#Inconsolata-114"/>
      <use x="149.999954" xlink:href="#Inconsolata-101"/>
      <use x="199.999939" xlink:href="#Inconsolata-97"/>
      <use x="249.999924" xlink:href="#Inconsolata-44"/>
      <use x="299.999908" xlink:href="#Inconsolata-32"/>
      <use x="349.999893" xlink:href="#Inconsolata-83"/>
      <use x="399.999878" xlink:href="#Inconsolata-111"/>
      <use x="449.999863" xlink:href="#Inconsolata-117"/>
      <use x="499.999847" xlink:href="#Inconsolata-116"/>
      <use x="549.999832" xlink:href="#Inconsolata-104"/>
      <use x="599.999817" xlink:href="#Inconsolata-32"/>
      <use x="649.999802" xlink:href="#Inconsolata-100"/>
      <use x="699.999786" xlink:href="#Inconsolata-101"/>
      <use x="749.999771" xlink:href="#Inconsolata-97"/>
      <use x="799.999756" xlink:href="#Inconsolata-116"/>
      <use x="849.999741" xlink:href="#Inconsolata-104"/>
      <use x="899.999725" xlink:href="#Inconsolata-115"/>
     </g>
    </g>
   </g>
  </g>
 </g>
 <defs>
  <clipPath id="p1811c4ca57">
   <rect height="135.9" width="558" x="90" y="21.6"/>
  </clipPath>
 </defs>
</svg>
