<?xml version="1.0" encoding="utf-8" standalone="no"?>
<!DOCTYPE svg PUBLIC "-//W3C//DTD SVG 1.1//EN"
  "http://www.w3.org/Graphics/SVG/1.1/DTD/svg11.dtd">
<!-- Created with matplotlib (https://matplotlib.org/) -->
<svg height="180pt" version="1.1" viewBox="0 0 720 180" width="720pt" xmlns="http://www.w3.org/2000/svg" xmlns:xlink="http://www.w3.org/1999/xlink">
 <defs>
  <style type="text/css">
*{stroke-linecap:butt;stroke-linejoin:round;}
  </style>
 </defs>
 <g id="figure_1">
  <g id="patch_1">
   <path d="M 0 180 
L 720 180 
L 720 0 
L 0 0 
z
" style="fill:#ffffff;"/>
  </g>
  <g id="axes_1">
   <g id="patch_2">
    <path d="M 90 157.5 
L 648 157.5 
L 648 21.6 
L 90 21.6 
z
" style="fill:#e5e5e5;"/>
   </g>
   <g id="matplotlib.axis_1">
    <g id="xtick_1">
     <g id="line2d_1">
      <path clip-path="url(#p660a47ce5e)" d="M 161.902419 157.5 
L 161.902419 21.6 
" style="fill:none;stroke:#ffffff;stroke-linecap:square;stroke-width:0.8;"/>
     </g>
     <g id="line2d_2">
      <defs>
       <path d="M 0 0 
L 0 3.5 
" id="m547357cd1e" style="stroke:#555555;stroke-width:0.8;"/>
      </defs>
      <g>
       <use style="fill:#555555;stroke:#555555;stroke-width:0.8;" x="161.902419" xlink:href="#m547357cd1e" y="157.5"/>
      </g>
     </g>
     <g id="text_1">
      <!-- 2020-02-01 -->
      <defs>
       <path d="M 7.703125 52.59375 
L 12.796875 48.5 
C 13.40625 49.40625 13.09375 50 13.703125 50.796875 
C 15.203125 53.09375 18.90625 56.5 24.296875 56.5 
C 31 56.5 36.296875 51.40625 36.296875 44.703125 
C 36.296875 37.09375 29.90625 31.59375 25.40625 27.5 
C 18.296875 21.09375 12.5 14.703125 7.296875 4.40625 
L 7.296875 0 
L 43.90625 0 
L 43.90625 6.90625 
C 43.203125 7.203125 42.703125 6.703125 42.5 6.5 
C 42.09375 6.09375 41.90625 6.09375 41.5 6.09375 
L 15.296875 6.09375 
C 20.5 15.09375 27.796875 21.296875 32.296875 25.5 
C 36.796875 29.796875 43.203125 36.203125 43.203125 45.203125 
C 43.203125 54.90625 35.296875 62.703125 25.203125 62.703125 
C 18.09375 62.703125 11.40625 58.90625 7.703125 52.59375 
z
" id="Inconsolata-50"/>
       <path d="M 25.09375 62.703125 
C 15.203125 62.703125 5 50.5 5 30.59375 
C 5 10.40625 15.296875 -1.203125 25.203125 -1.203125 
C 34.203125 -1.203125 44.90625 8.59375 44.90625 30.09375 
C 44.90625 51.296875 34.703125 62.703125 25.09375 62.703125 
z
M 34.796875 48.40625 
L 12.90625 20 
C 12 23.5 11.5 27.40625 11.5 31.796875 
C 11.5 47.796875 18.796875 56.59375 25 56.59375 
C 28.40625 56.59375 32.09375 53.90625 34.796875 48.40625 
z
M 37.09375 41.796875 
C 38 38.296875 38.40625 34.09375 38.40625 29.203125 
C 38.40625 11.796875 30.90625 5.203125 25.40625 5.203125 
C 21.703125 5.203125 17.90625 8.203125 15.203125 13.703125 
z
" id="Inconsolata-48"/>
       <path d="M 7 34.703125 
L 7 28.09375 
L 43 28.09375 
L 43 34.703125 
z
" id="Inconsolata-45"/>
       <path d="M 29.90625 62.296875 
L 25.09375 62.296875 
L 8.796875 53.796875 
L 10.40625 49.90625 
L 22.90625 53.59375 
L 22.90625 -0.09375 
L 29.90625 -0.09375 
z
" id="Inconsolata-49"/>
      </defs>
      <g style="fill:#555555;" transform="translate(136.902419 171.140625)scale(0.1 -0.1)">
       <use xlink:href="#Inconsolata-50"/>
       <use x="49.999985" xlink:href="#Inconsolata-48"/>
       <use x="99.999969" xlink:href="#Inconsolata-50"/>
       <use x="149.999954" xlink:href="#Inconsolata-48"/>
       <use x="199.999939" xlink:href="#Inconsolata-45"/>
       <use x="249.999924" xlink:href="#Inconsolata-48"/>
       <use x="299.999908" xlink:href="#Inconsolata-50"/>
       <use x="349.999893" xlink:href="#Inconsolata-45"/>
       <use x="399.999878" xlink:href="#Inconsolata-48"/>
       <use x="449.999863" xlink:href="#Inconsolata-49"/>
      </g>
     </g>
    </g>
    <g id="xtick_2">
     <g id="line2d_3">
      <path clip-path="url(#p660a47ce5e)" d="M 227.056714 157.5 
L 227.056714 21.6 
" style="fill:none;stroke:#ffffff;stroke-linecap:square;stroke-width:0.8;"/>
     </g>
     <g id="line2d_4">
      <g>
       <use style="fill:#555555;stroke:#555555;stroke-width:0.8;" x="227.056714" xlink:href="#m547357cd1e" y="157.5"/>
      </g>
     </g>
     <g id="text_2">
      <!-- 2020-02-15 -->
      <defs>
       <path d="M 10.59375 62.296875 
L 8.40625 30.59375 
L 12.90625 28.796875 
C 15.90625 32.59375 20.296875 34.703125 24.59375 34.703125 
C 31.09375 34.703125 37.296875 29.703125 37.296875 19.796875 
C 37.296875 10.203125 31.40625 5 24.703125 5 
C 18 5 13.59375 10.09375 13.296875 10.703125 
C 12.90625 11.5 13.40625 12.5 12.5 13.09375 
L 6.296875 8.40625 
C 10.5 2.296875 17.40625 -1.203125 24.796875 -1.203125 
C 35.59375 -1.203125 44.5 6.09375 44.5 19.59375 
C 44.5 33 36.09375 40.40625 25.59375 40.40625 
C 22.203125 40.40625 18.703125 39.59375 15.5 38 
L 16.40625 56 
L 42.203125 56 
L 42.203125 62.296875 
z
" id="Inconsolata-53"/>
      </defs>
      <g style="fill:#555555;" transform="translate(202.056714 171.140625)scale(0.1 -0.1)">
       <use xlink:href="#Inconsolata-50"/>
       <use x="49.999985" xlink:href="#Inconsolata-48"/>
       <use x="99.999969" xlink:href="#Inconsolata-50"/>
       <use x="149.999954" xlink:href="#Inconsolata-48"/>
       <use x="199.999939" xlink:href="#Inconsolata-45"/>
       <use x="249.999924" xlink:href="#Inconsolata-48"/>
       <use x="299.999908" xlink:href="#Inconsolata-50"/>
       <use x="349.999893" xlink:href="#Inconsolata-45"/>
       <use x="399.999878" xlink:href="#Inconsolata-49"/>
       <use x="449.999863" xlink:href="#Inconsolata-53"/>
      </g>
     </g>
    </g>
    <g id="xtick_3">
     <g id="line2d_5">
      <path clip-path="url(#p660a47ce5e)" d="M 296.864887 157.5 
L 296.864887 21.6 
" style="fill:none;stroke:#ffffff;stroke-linecap:square;stroke-width:0.8;"/>
     </g>
     <g id="line2d_6">
      <g>
       <use style="fill:#555555;stroke:#555555;stroke-width:0.8;" x="296.864887" xlink:href="#m547357cd1e" y="157.5"/>
      </g>
     </g>
     <g id="text_3">
      <!-- 2020-03-01 -->
      <defs>
       <path d="M 41 46.703125 
C 41 55.203125 33.796875 62.5 23.90625 62.5 
C 18.296875 62.5 12.796875 60.09375 8.90625 55.796875 
L 12.796875 51.5 
C 15.703125 54.59375 19.703125 56.296875 23.59375 56.296875 
C 30 56.296875 34.40625 51.796875 34.40625 46.5 
C 34.40625 42.796875 32.09375 38.59375 27.703125 36.703125 
C 26.59375 36.296875 23.796875 35.203125 17.90625 35.203125 
L 17.90625 29.59375 
C 18.90625 29.703125 20 29.796875 21.09375 29.796875 
C 29.5 29.796875 35.703125 25.40625 35.703125 17.90625 
C 35.703125 11.09375 30.5 5.203125 23.203125 5.203125 
C 17.40625 5.203125 13.90625 9 13.40625 9.5 
C 12.59375 10.40625 13 11.40625 12.09375 12.296875 
L 6.90625 6 
C 11 1.296875 17 -1.09375 23.203125 -1.09375 
C 35.203125 -1.09375 42.40625 7.40625 42.40625 17.09375 
C 42.40625 24.5 38.203125 30.796875 31.703125 33.203125 
C 37.296875 35.296875 41 40.59375 41 46.703125 
z
" id="Inconsolata-51"/>
      </defs>
      <g style="fill:#555555;" transform="translate(271.864887 171.140625)scale(0.1 -0.1)">
       <use xlink:href="#Inconsolata-50"/>
       <use x="49.999985" xlink:href="#Inconsolata-48"/>
       <use x="99.999969" xlink:href="#Inconsolata-50"/>
       <use x="149.999954" xlink:href="#Inconsolata-48"/>
       <use x="199.999939" xlink:href="#Inconsolata-45"/>
       <use x="249.999924" xlink:href="#Inconsolata-48"/>
       <use x="299.999908" xlink:href="#Inconsolata-51"/>
       <use x="349.999893" xlink:href="#Inconsolata-45"/>
       <use x="399.999878" xlink:href="#Inconsolata-48"/>
       <use x="449.999863" xlink:href="#Inconsolata-49"/>
      </g>
     </g>
    </g>
    <g id="xtick_4">
     <g id="line2d_7">
      <path clip-path="url(#p660a47ce5e)" d="M 362.019183 157.5 
L 362.019183 21.6 
" style="fill:none;stroke:#ffffff;stroke-linecap:square;stroke-width:0.8;"/>
     </g>
     <g id="line2d_8">
      <g>
       <use style="fill:#555555;stroke:#555555;stroke-width:0.8;" x="362.019183" xlink:href="#m547357cd1e" y="157.5"/>
      </g>
     </g>
     <g id="text_4">
      <!-- 2020-03-15 -->
      <g style="fill:#555555;" transform="translate(337.019183 171.140625)scale(0.1 -0.1)">
       <use xlink:href="#Inconsolata-50"/>
       <use x="49.999985" xlink:href="#Inconsolata-48"/>
       <use x="99.999969" xlink:href="#Inconsolata-50"/>
       <use x="149.999954" xlink:href="#Inconsolata-48"/>
       <use x="199.999939" xlink:href="#Inconsolata-45"/>
       <use x="249.999924" xlink:href="#Inconsolata-48"/>
       <use x="299.999908" xlink:href="#Inconsolata-51"/>
       <use x="349.999893" xlink:href="#Inconsolata-45"/>
       <use x="399.999878" xlink:href="#Inconsolata-49"/>
       <use x="449.999863" xlink:href="#Inconsolata-53"/>
      </g>
     </g>
    </g>
    <g id="xtick_5">
     <g id="line2d_9">
      <path clip-path="url(#p660a47ce5e)" d="M 441.135113 157.5 
L 441.135113 21.6 
" style="fill:none;stroke:#ffffff;stroke-linecap:square;stroke-width:0.8;"/>
     </g>
     <g id="line2d_10">
      <g>
       <use style="fill:#555555;stroke:#555555;stroke-width:0.8;" x="441.135113" xlink:href="#m547357cd1e" y="157.5"/>
      </g>
     </g>
     <g id="text_5">
      <!-- 2020-04-01 -->
      <defs>
       <path d="M 31.296875 62.296875 
L 4.796875 22.40625 
L 4.796875 17.203125 
L 29.90625 17.203125 
L 29.90625 0 
L 37.09375 0 
L 37.09375 17.09375 
L 45.203125 17.09375 
L 45.203125 23.296875 
L 37.09375 23.296875 
L 37.09375 62.296875 
z
M 30 51.203125 
L 30 23.296875 
L 11.703125 23.296875 
z
" id="Inconsolata-52"/>
      </defs>
      <g style="fill:#555555;" transform="translate(416.135113 171.140625)scale(0.1 -0.1)">
       <use xlink:href="#Inconsolata-50"/>
       <use x="49.999985" xlink:href="#Inconsolata-48"/>
       <use x="99.999969" xlink:href="#Inconsolata-50"/>
       <use x="149.999954" xlink:href="#Inconsolata-48"/>
       <use x="199.999939" xlink:href="#Inconsolata-45"/>
       <use x="249.999924" xlink:href="#Inconsolata-48"/>
       <use x="299.999908" xlink:href="#Inconsolata-52"/>
       <use x="349.999893" xlink:href="#Inconsolata-45"/>
       <use x="399.999878" xlink:href="#Inconsolata-48"/>
       <use x="449.999863" xlink:href="#Inconsolata-49"/>
      </g>
     </g>
    </g>
    <g id="xtick_6">
     <g id="line2d_11">
      <path clip-path="url(#p660a47ce5e)" d="M 506.289408 157.5 
L 506.289408 21.6 
" style="fill:none;stroke:#ffffff;stroke-linecap:square;stroke-width:0.8;"/>
     </g>
     <g id="line2d_12">
      <g>
       <use style="fill:#555555;stroke:#555555;stroke-width:0.8;" x="506.289408" xlink:href="#m547357cd1e" y="157.5"/>
      </g>
     </g>
     <g id="text_6">
      <!-- 2020-04-15 -->
      <g style="fill:#555555;" transform="translate(481.289408 171.140625)scale(0.1 -0.1)">
       <use xlink:href="#Inconsolata-50"/>
       <use x="49.999985" xlink:href="#Inconsolata-48"/>
       <use x="99.999969" xlink:href="#Inconsolata-50"/>
       <use x="149.999954" xlink:href="#Inconsolata-48"/>
       <use x="199.999939" xlink:href="#Inconsolata-45"/>
       <use x="249.999924" xlink:href="#Inconsolata-48"/>
       <use x="299.999908" xlink:href="#Inconsolata-52"/>
       <use x="349.999893" xlink:href="#Inconsolata-45"/>
       <use x="399.999878" xlink:href="#Inconsolata-49"/>
       <use x="449.999863" xlink:href="#Inconsolata-53"/>
      </g>
     </g>
    </g>
    <g id="xtick_7">
     <g id="line2d_13">
      <path clip-path="url(#p660a47ce5e)" d="M 580.75146 157.5 
L 580.75146 21.6 
" style="fill:none;stroke:#ffffff;stroke-linecap:square;stroke-width:0.8;"/>
     </g>
     <g id="line2d_14">
      <g>
       <use style="fill:#555555;stroke:#555555;stroke-width:0.8;" x="580.75146" xlink:href="#m547357cd1e" y="157.5"/>
      </g>
     </g>
     <g id="text_7">
      <!-- 2020-05-01 -->
      <g style="fill:#555555;" transform="translate(555.75146 171.140625)scale(0.1 -0.1)">
       <use xlink:href="#Inconsolata-50"/>
       <use x="49.999985" xlink:href="#Inconsolata-48"/>
       <use x="99.999969" xlink:href="#Inconsolata-50"/>
       <use x="149.999954" xlink:href="#Inconsolata-48"/>
       <use x="199.999939" xlink:href="#Inconsolata-45"/>
       <use x="249.999924" xlink:href="#Inconsolata-48"/>
       <use x="299.999908" xlink:href="#Inconsolata-53"/>
       <use x="349.999893" xlink:href="#Inconsolata-45"/>
       <use x="399.999878" xlink:href="#Inconsolata-48"/>
       <use x="449.999863" xlink:href="#Inconsolata-49"/>
      </g>
     </g>
    </g>
    <g id="xtick_8">
     <g id="line2d_15">
      <path clip-path="url(#p660a47ce5e)" d="M 645.905755 157.5 
L 645.905755 21.6 
" style="fill:none;stroke:#ffffff;stroke-linecap:square;stroke-width:0.8;"/>
     </g>
     <g id="line2d_16">
      <g>
       <use style="fill:#555555;stroke:#555555;stroke-width:0.8;" x="645.905755" xlink:href="#m547357cd1e" y="157.5"/>
      </g>
     </g>
     <g id="text_8">
      <!-- 2020-05-15 -->
      <g style="fill:#555555;" transform="translate(620.905755 171.140625)scale(0.1 -0.1)">
       <use xlink:href="#Inconsolata-50"/>
       <use x="49.999985" xlink:href="#Inconsolata-48"/>
       <use x="99.999969" xlink:href="#Inconsolata-50"/>
       <use x="149.999954" xlink:href="#Inconsolata-48"/>
       <use x="199.999939" xlink:href="#Inconsolata-45"/>
       <use x="249.999924" xlink:href="#Inconsolata-48"/>
       <use x="299.999908" xlink:href="#Inconsolata-53"/>
       <use x="349.999893" xlink:href="#Inconsolata-45"/>
       <use x="399.999878" xlink:href="#Inconsolata-49"/>
       <use x="449.999863" xlink:href="#Inconsolata-53"/>
      </g>
     </g>
    </g>
   </g>
   <g id="matplotlib.axis_2">
    <g id="ytick_1">
     <g id="line2d_17">
      <path clip-path="url(#p660a47ce5e)" d="M 90 157.5 
L 648 157.5 
" style="fill:none;stroke:#ffffff;stroke-linecap:square;stroke-width:0.8;"/>
     </g>
     <g id="line2d_18">
      <defs>
       <path d="M 0 0 
L -3.5 0 
" id="md7bf69ab5d" style="stroke:#555555;stroke-width:0.8;"/>
      </defs>
      <g>
       <use style="fill:#555555;stroke:#555555;stroke-width:0.8;" x="90" xlink:href="#md7bf69ab5d" y="157.5"/>
      </g>
     </g>
     <g id="line2d_19">
      <defs>
       <path d="M 0 0 
L 3.5 0 
" id="m81db31ab72" style="stroke:#555555;stroke-width:0.8;"/>
      </defs>
      <g>
       <use style="fill:#555555;stroke:#555555;stroke-width:0.8;" x="648" xlink:href="#m81db31ab72" y="157.5"/>
      </g>
     </g>
     <g id="text_9">
      <!-- 0 -->
      <g style="fill:#555555;" transform="translate(78 160.820312)scale(0.1 -0.1)">
       <use xlink:href="#Inconsolata-48"/>
      </g>
     </g>
     <g id="text_10">
      <!-- 0 -->
      <g style="fill:#555555;" transform="translate(655 160.820312)scale(0.1 -0.1)">
       <use xlink:href="#Inconsolata-48"/>
      </g>
     </g>
    </g>
    <g id="ytick_2">
     <g id="line2d_20">
      <path clip-path="url(#p660a47ce5e)" d="M 90 127.082004 
L 648 127.082004 
" style="fill:none;stroke:#ffffff;stroke-linecap:square;stroke-width:0.8;"/>
     </g>
     <g id="line2d_21">
      <g>
       <use style="fill:#555555;stroke:#555555;stroke-width:0.8;" x="90" xlink:href="#md7bf69ab5d" y="127.082004"/>
      </g>
     </g>
     <g id="line2d_22">
      <g>
       <use style="fill:#555555;stroke:#555555;stroke-width:0.8;" x="648" xlink:href="#m81db31ab72" y="127.082004"/>
      </g>
     </g>
     <g id="text_11">
      <!-- 200 -->
      <g style="fill:#555555;" transform="translate(68 130.402317)scale(0.1 -0.1)">
       <use xlink:href="#Inconsolata-50"/>
       <use x="49.999985" xlink:href="#Inconsolata-48"/>
       <use x="99.999969" xlink:href="#Inconsolata-48"/>
      </g>
     </g>
     <g id="text_12">
      <!-- 200 -->
      <g style="fill:#555555;" transform="translate(655 130.402317)scale(0.1 -0.1)">
       <use xlink:href="#Inconsolata-50"/>
       <use x="49.999985" xlink:href="#Inconsolata-48"/>
       <use x="99.999969" xlink:href="#Inconsolata-48"/>
      </g>
     </g>
    </g>
    <g id="ytick_3">
     <g id="line2d_23">
      <path clip-path="url(#p660a47ce5e)" d="M 90 96.664009 
L 648 96.664009 
" style="fill:none;stroke:#ffffff;stroke-linecap:square;stroke-width:0.8;"/>
     </g>
     <g id="line2d_24">
      <g>
       <use style="fill:#555555;stroke:#555555;stroke-width:0.8;" x="90" xlink:href="#md7bf69ab5d" y="96.664009"/>
      </g>
     </g>
     <g id="line2d_25">
      <g>
       <use style="fill:#555555;stroke:#555555;stroke-width:0.8;" x="648" xlink:href="#m81db31ab72" y="96.664009"/>
      </g>
     </g>
     <g id="text_13">
      <!-- 400 -->
      <g style="fill:#555555;" transform="translate(68 99.984321)scale(0.1 -0.1)">
       <use xlink:href="#Inconsolata-52"/>
       <use x="49.999985" xlink:href="#Inconsolata-48"/>
       <use x="99.999969" xlink:href="#Inconsolata-48"/>
      </g>
     </g>
     <g id="text_14">
      <!-- 400 -->
      <g style="fill:#555555;" transform="translate(655 99.984321)scale(0.1 -0.1)">
       <use xlink:href="#Inconsolata-52"/>
       <use x="49.999985" xlink:href="#Inconsolata-48"/>
       <use x="99.999969" xlink:href="#Inconsolata-48"/>
      </g>
     </g>
    </g>
    <g id="ytick_4">
     <g id="line2d_26">
      <path clip-path="url(#p660a47ce5e)" d="M 90 66.246013 
L 648 66.246013 
" style="fill:none;stroke:#ffffff;stroke-linecap:square;stroke-width:0.8;"/>
     </g>
     <g id="line2d_27">
      <g>
       <use style="fill:#555555;stroke:#555555;stroke-width:0.8;" x="90" xlink:href="#md7bf69ab5d" y="66.246013"/>
      </g>
     </g>
     <g id="line2d_28">
      <g>
       <use style="fill:#555555;stroke:#555555;stroke-width:0.8;" x="648" xlink:href="#m81db31ab72" y="66.246013"/>
      </g>
     </g>
     <g id="text_15">
      <!-- 600 -->
      <defs>
       <path d="M 28.703125 63 
C 21.203125 63 13.203125 58.40625 9.296875 47.5 
C 7.203125 41.59375 6.703125 34.296875 6.703125 28.296875 
C 6.703125 21 7.40625 13.203125 11.40625 7.203125 
C 15 1.703125 20.59375 -1.09375 26.09375 -1.09375 
C 35.59375 -1.09375 43.90625 6.90625 43.90625 19.796875 
C 43.90625 32.703125 35.59375 40.203125 26.796875 40.203125 
C 21.40625 40.203125 16.296875 37.296875 13.59375 32.703125 
C 14 54 24.203125 56.796875 28.703125 56.796875 
C 32.796875 56.796875 35.59375 54.59375 36 54.203125 
C 36.59375 53.5 36.59375 52.59375 37.5 51.90625 
L 42.296875 57.296875 
C 38.703125 60.90625 33.703125 63 28.703125 63 
z
M 26.09375 34 
C 31.09375 34 37.09375 30.09375 37.09375 19.40625 
C 37.09375 9.703125 31.703125 5.09375 26.40625 5.09375 
C 18.796875 5.09375 13.09375 14 13.90625 25.703125 
C 16.703125 30.796875 21.5 34 26.09375 34 
z
" id="Inconsolata-54"/>
      </defs>
      <g style="fill:#555555;" transform="translate(68 69.566326)scale(0.1 -0.1)">
       <use xlink:href="#Inconsolata-54"/>
       <use x="49.999985" xlink:href="#Inconsolata-48"/>
       <use x="99.999969" xlink:href="#Inconsolata-48"/>
      </g>
     </g>
     <g id="text_16">
      <!-- 600 -->
      <g style="fill:#555555;" transform="translate(655 69.566326)scale(0.1 -0.1)">
       <use xlink:href="#Inconsolata-54"/>
       <use x="49.999985" xlink:href="#Inconsolata-48"/>
       <use x="99.999969" xlink:href="#Inconsolata-48"/>
      </g>
     </g>
    </g>
    <g id="ytick_5">
     <g id="line2d_29">
      <path clip-path="url(#p660a47ce5e)" d="M 90 35.828017 
L 648 35.828017 
" style="fill:none;stroke:#ffffff;stroke-linecap:square;stroke-width:0.8;"/>
     </g>
     <g id="line2d_30">
      <g>
       <use style="fill:#555555;stroke:#555555;stroke-width:0.8;" x="90" xlink:href="#md7bf69ab5d" y="35.828017"/>
      </g>
     </g>
     <g id="line2d_31">
      <g>
       <use style="fill:#555555;stroke:#555555;stroke-width:0.8;" x="648" xlink:href="#m81db31ab72" y="35.828017"/>
      </g>
     </g>
     <g id="text_17">
      <!-- 800 -->
      <defs>
       <path d="M 25.796875 63 
C 16.203125 63 8.90625 56.09375 8.90625 47.703125 
C 8.90625 41.59375 12.796875 36 18.40625 33.09375 
C 11 29.59375 6 22.796875 6 15.59375 
C 6 6.296875 14.203125 -1.09375 24.90625 -1.09375 
C 35.796875 -1.09375 44.09375 6.5 44.09375 16 
C 44.09375 23.40625 39.09375 30 32.09375 33.296875 
C 38.09375 36.40625 42 42.296875 42 48.296875 
C 42 56.5 34.90625 63 25.796875 63 
z
M 23.703125 30.203125 
C 31.703125 27.703125 37 22.203125 37 16.09375 
C 37 10.09375 31.90625 5.203125 25.203125 5.203125 
C 18.40625 5.203125 13.203125 10.296875 13.203125 16.5 
C 13.203125 22.40625 17.796875 27.796875 23.703125 30.203125 
z
M 25.203125 57.203125 
C 30.796875 57.203125 35.203125 53 35.203125 47.796875 
C 35.203125 43 31.5 38.40625 26.59375 35.796875 
C 26.59375 35.796875 15.59375 40 15.59375 48.296875 
C 15.59375 53.203125 19.796875 57.203125 25.203125 57.203125 
z
" id="Inconsolata-56"/>
      </defs>
      <g style="fill:#555555;" transform="translate(68 39.14833)scale(0.1 -0.1)">
       <use xlink:href="#Inconsolata-56"/>
       <use x="49.999985" xlink:href="#Inconsolata-48"/>
       <use x="99.999969" xlink:href="#Inconsolata-48"/>
      </g>
     </g>
     <g id="text_18">
      <!-- 800 -->
      <g style="fill:#555555;" transform="translate(655 39.14833)scale(0.1 -0.1)">
       <use xlink:href="#Inconsolata-56"/>
       <use x="49.999985" xlink:href="#Inconsolata-48"/>
       <use x="99.999969" xlink:href="#Inconsolata-48"/>
      </g>
     </g>
    </g>
    <g id="text_19">
     <!-- daily change -->
     <defs>
      <path d="M 37.09375 39 
C 34.90625 43.703125 30 46.796875 23.703125 46.796875 
C 15 46.796875 4.40625 40.59375 4.40625 23.203125 
C 4.40625 6.296875 13.796875 -1.09375 22.59375 -1.09375 
C 28.40625 -1.09375 33.796875 2.203125 36.703125 7.296875 
L 36.703125 3.296875 
C 36.703125 2.203125 36.796875 1.09375 37.09375 0 
L 44.296875 0 
C 43.90625 1.296875 43.90625 2.796875 43.90625 4.203125 
L 43.796875 63.59375 
C 43.796875 64.203125 43.796875 64.40625 44.203125 65 
C 44.40625 65.296875 44.796875 65.796875 44.703125 66.5 
L 37.09375 66.5 
z
M 24 40.90625 
C 28 40.90625 33.90625 38.796875 35.703125 32 
C 36.296875 29.90625 36.5 27.40625 36.5 22.296875 
C 36.5 18.796875 36.296875 16.296875 35.5 13.90625 
C 33.796875 8.5 29 5.296875 24.296875 5.296875 
C 19.09375 5.296875 11.40625 9.296875 11.40625 24.296875 
C 11.40625 37.40625 18.703125 40.90625 24 40.90625 
z
" id="Inconsolata-100"/>
      <path d="M 9 40.296875 
L 12.5 35.703125 
C 16.296875 39.59375 21.40625 40.796875 25.703125 40.796875 
C 31.09375 40.796875 33.796875 38.5 35.09375 36.40625 
C 36.59375 33.90625 36.5 30.90625 36.5 28.5 
L 36.5 26.90625 
L 35.09375 26.90625 
C 28.296875 26.90625 21.09375 26.90625 15.296875 24.796875 
C 8.09375 22.203125 4.90625 16.796875 4.90625 11.796875 
C 4.90625 5.09375 10.703125 -1.203125 20.203125 -1.203125 
C 25.796875 -1.203125 31.59375 0.90625 36.59375 5 
L 36.59375 0 
L 43.40625 0 
L 43.40625 28.296875 
C 43.40625 32 43.296875 35.5 41.203125 39.09375 
C 38.203125 44 32.40625 46.59375 25.296875 46.59375 
C 19.203125 46.59375 13.296875 44.703125 9 40.296875 
z
M 36.796875 21.40625 
L 36.796875 18.296875 
C 36.796875 16 36.796875 13 33.703125 9.703125 
C 32 8 27.703125 4.296875 21.703125 4.296875 
C 15.59375 4.296875 12.09375 8.203125 12.09375 12.203125 
C 12.09375 15.59375 14.40625 19.296875 20.09375 20.703125 
C 24.296875 21.703125 30.40625 21.40625 35.203125 21.40625 
z
" id="Inconsolata-97"/>
      <path d="M 10.59375 45.703125 
L 10.59375 39.796875 
L 21.59375 39.796875 
L 21.59375 5.703125 
L 10 5.703125 
L 10 0 
L 39.59375 0 
L 39.59375 5.703125 
L 28.90625 5.703125 
L 28.90625 45.703125 
z
M 25.40625 65.5 
C 22.5 65.5 20.203125 63.203125 20.203125 60.40625 
C 20.203125 57.59375 22.5 55.296875 25.40625 55.296875 
C 28.296875 55.296875 30.59375 57.59375 30.59375 60.40625 
C 30.59375 63.203125 28.296875 65.5 25.40625 65.5 
z
" id="Inconsolata-105"/>
      <path d="M 8.40625 66.40625 
L 8.40625 60.59375 
L 21.40625 60.59375 
L 21.40625 5.703125 
L 7.796875 5.703125 
L 7.796875 0 
L 42.09375 0 
L 42.09375 5.703125 
L 28.59375 5.703125 
L 28.59375 66.40625 
z
" id="Inconsolata-108"/>
      <path d="M 4.5 45.59375 
L 23.09375 0.09375 
L 21.59375 -3.203125 
C 20.796875 -5.09375 19.90625 -7 18.5 -8.5 
C 16.59375 -10.59375 14.203125 -11.5 12.09375 -11.5 
C 8.703125 -11.5 7 -9.203125 6.703125 -8.796875 
C 6.40625 -8.296875 6.5 -7.59375 5.90625 -7.09375 
L 2.203125 -13.59375 
C 4.796875 -16.09375 8.296875 -17.40625 12.09375 -17.40625 
C 16.203125 -17.40625 20.5 -15.90625 23.5 -12.5 
C 25.5 -10.203125 26.5 -7.796875 27.5 -5.203125 
L 41.703125 32.5 
C 43.40625 36.796875 44.90625 41.203125 46.296875 45.703125 
L 38.796875 45.703125 
C 38 41.5 36.703125 37.5 35.296875 33.5 
L 26.59375 9 
L 13.203125 42.703125 
C 13.09375 43 13.09375 43.203125 13.09375 43.5 
C 13.09375 44.203125 13.59375 44.703125 13.5 45.59375 
z
" id="Inconsolata-121"/>
      <path id="Inconsolata-32"/>
      <path d="M 45.59375 38.09375 
C 42 43.40625 35.90625 46.59375 28.5 46.59375 
C 15.09375 46.59375 5.59375 36.5 5.59375 22.796875 
C 5.59375 9 15.09375 -1.203125 28.09375 -1.203125 
C 34.40625 -1.203125 40.59375 1.40625 44.90625 6.09375 
L 40.796875 10.90625 
C 37.703125 7.40625 33.203125 5.40625 28.703125 5.40625 
C 19.796875 5.40625 13 12.796875 13 23.5 
C 13 33.90625 19.703125 40.40625 28.09375 40.40625 
C 35.90625 40.40625 39.59375 35 39.90625 34.40625 
C 40.296875 33.703125 39.703125 32.703125 40.5 32.09375 
z
" id="Inconsolata-99"/>
      <path d="M 6.90625 0 
L 14.296875 0 
L 14.296875 26.296875 
C 14.296875 29.296875 14.59375 31.59375 16.5 34.09375 
C 18.296875 36.40625 22.703125 40.5 27.5 40.5 
C 29.796875 40.5 32.09375 39.5 33.703125 37.59375 
C 36.203125 34.59375 36.203125 30.703125 36.203125 27.5 
L 36.203125 0 
L 43.296875 0 
L 43.296875 27.703125 
C 43.296875 31.203125 43.203125 35 41.59375 38.703125 
C 39.296875 43.796875 34.703125 46.703125 29.5 46.703125 
C 23.296875 46.703125 17.59375 42.703125 14.296875 37.59375 
L 14.296875 64.09375 
C 14.296875 64.40625 14.296875 64.703125 14.59375 65 
C 14.90625 65.296875 15.296875 65.59375 15.296875 66.09375 
C 15.296875 66.203125 15.296875 66.296875 15.203125 66.40625 
L 6.90625 66.40625 
z
" id="Inconsolata-104"/>
      <path d="M 6.796875 0 
L 14.09375 0 
L 14.09375 26.296875 
C 14.09375 29.296875 14.5 31.59375 16.40625 34.09375 
C 18.09375 36.40625 22.5 40.5 27.296875 40.5 
C 29.59375 40.5 31.90625 39.5 33.5 37.59375 
C 36 34.59375 36 30.703125 36 27.5 
L 36 0 
L 43.09375 0 
L 43.09375 27.703125 
C 43.09375 31.203125 43.09375 35 41.5 38.703125 
C 39.203125 43.796875 34.5 46.703125 29.296875 46.703125 
C 23.09375 46.703125 17.5 42.703125 14.09375 37.59375 
L 14.09375 45.59375 
L 6.796875 45.59375 
z
" id="Inconsolata-110"/>
      <path d="M 12.5 31.40625 
C 12.5 36.90625 17.09375 41.40625 22.59375 41.40625 
C 28.203125 41.40625 32.703125 36.90625 32.703125 31.40625 
C 32.703125 25.90625 28.203125 21.40625 22.59375 21.40625 
C 17 21.40625 12.5 25.90625 12.5 31.40625 
z
M 23 47.09375 
C 13.90625 47.09375 6 39.90625 6 31 
C 6 26 8.5 21.296875 12.703125 18.59375 
C 9.40625 15.796875 7.5 12.703125 7.5 9.796875 
C 7.5 7.90625 8.296875 5.203125 11.203125 3.703125 
C 6.296875 0.59375 3.796875 -2.796875 3.796875 -6.40625 
C 3.796875 -11.40625 8.40625 -17.296875 24.40625 -17.296875 
C 39.90625 -17.296875 45.5 -9.40625 45.5 -3.296875 
C 45.5 0.703125 43.203125 4.703125 38.40625 6.59375 
C 33.59375 8.59375 28.09375 7.90625 22.90625 7.90625 
C 19.5 7.90625 17.296875 8.203125 16.40625 8.5 
C 14.59375 9 13.59375 10.09375 13.59375 11.5 
C 13.59375 13.90625 16.40625 16.203125 16.90625 16.59375 
C 18.703125 15.90625 20.703125 15.59375 22.703125 15.59375 
C 31.703125 15.59375 39.09375 22.796875 39.09375 31.203125 
C 39.09375 34 38.296875 36.703125 36.796875 39 
C 39.203125 40.40625 42 41.203125 44.796875 41.203125 
C 45.703125 41.203125 46.5 41.09375 47.40625 40.90625 
L 46.59375 46.796875 
C 42 47.203125 37.40625 45.703125 33.90625 42.796875 
C 31 45.59375 27.203125 47.09375 23 47.09375 
z
M 16.09375 2.40625 
C 17.796875 2.203125 20.203125 2 23.703125 1.796875 
C 27.09375 1.703125 30.796875 2 33.40625 1.59375 
C 37.59375 0.90625 38.90625 -1.703125 38.90625 -3.703125 
C 38.90625 -5.703125 37.703125 -8.09375 34.59375 -9.796875 
C 31.203125 -11.59375 27.40625 -11.796875 24.296875 -11.796875 
C 22.203125 -11.796875 18.296875 -11.703125 14.90625 -10.296875 
C 11.203125 -8.796875 10.40625 -6.296875 10.40625 -4.703125 
C 10.40625 -1.40625 13.5 1 16.09375 2.40625 
z
" id="Inconsolata-103"/>
      <path d="M 25.796875 46.703125 
C 14.90625 46.703125 4.796875 38.90625 4.796875 22.296875 
C 4.796875 7 14.296875 -1.09375 26.703125 -1.09375 
C 33.296875 -1.09375 39.203125 1.296875 43.09375 6 
L 39.09375 9.90625 
C 36.203125 6.5 31.796875 4.703125 27.296875 4.703125 
C 21.203125 4.703125 12.296875 8.09375 11.796875 21.796875 
L 44.203125 21.796875 
C 44.5 24.90625 44.40625 27.90625 43.90625 30.5 
C 41.796875 42.796875 33.296875 46.703125 25.796875 46.703125 
z
M 12 27.296875 
C 13.5 38.09375 20.40625 41.203125 25.296875 41.203125 
C 32.703125 41.203125 38 34.703125 37.09375 27.296875 
z
" id="Inconsolata-101"/>
     </defs>
     <g style="fill:#555555;" transform="translate(61.91125 125.55)rotate(-90)scale(0.12 -0.12)">
      <use xlink:href="#Inconsolata-100"/>
      <use x="49.999985" xlink:href="#Inconsolata-97"/>
      <use x="99.999969" xlink:href="#Inconsolata-105"/>
      <use x="149.999954" xlink:href="#Inconsolata-108"/>
      <use x="199.999939" xlink:href="#Inconsolata-121"/>
      <use x="249.999924" xlink:href="#Inconsolata-32"/>
      <use x="299.999908" xlink:href="#Inconsolata-99"/>
      <use x="349.999893" xlink:href="#Inconsolata-104"/>
      <use x="399.999878" xlink:href="#Inconsolata-97"/>
      <use x="449.999863" xlink:href="#Inconsolata-110"/>
      <use x="499.999847" xlink:href="#Inconsolata-103"/>
      <use x="549.999832" xlink:href="#Inconsolata-101"/>
     </g>
    </g>
   </g>
   <g id="patch_3">
    <path clip-path="url(#p660a47ce5e)" d="M 118.155963 157.5 
L 121.879066 157.5 
L 121.879066 157.5 
L 118.155963 157.5 
z
" style="fill:#348abd;opacity:0.2;"/>
   </g>
   <g id="patch_4">
    <path clip-path="url(#p660a47ce5e)" d="M 122.809842 157.5 
L 126.532944 157.5 
L 126.532944 157.34791 
L 122.809842 157.34791 
z
" style="fill:#348abd;opacity:0.2;"/>
   </g>
   <g id="patch_5">
    <path clip-path="url(#p660a47ce5e)" d="M 127.46372 157.5 
L 131.186822 157.5 
L 131.186822 157.5 
L 127.46372 157.5 
z
" style="fill:#348abd;opacity:0.2;"/>
   </g>
   <g id="patch_6">
    <path clip-path="url(#p660a47ce5e)" d="M 132.117598 157.5 
L 135.840701 157.5 
L 135.840701 157.34791 
L 132.117598 157.34791 
z
" style="fill:#348abd;opacity:0.2;"/>
   </g>
   <g id="patch_7">
    <path clip-path="url(#p660a47ce5e)" d="M 136.771476 157.5 
L 140.494579 157.5 
L 140.494579 157.34791 
L 136.771476 157.34791 
z
" style="fill:#348abd;opacity:0.2;"/>
   </g>
   <g id="patch_8">
    <path clip-path="url(#p660a47ce5e)" d="M 141.425354 157.5 
L 145.148457 157.5 
L 145.148457 157.5 
L 141.425354 157.5 
z
" style="fill:#348abd;opacity:0.2;"/>
   </g>
   <g id="patch_9">
    <path clip-path="url(#p660a47ce5e)" d="M 146.079233 157.5 
L 149.802335 157.5 
L 149.802335 157.5 
L 146.079233 157.5 
z
" style="fill:#348abd;opacity:0.2;"/>
   </g>
   <g id="patch_10">
    <path clip-path="url(#p660a47ce5e)" d="M 150.733111 157.5 
L 154.456214 157.5 
L 154.456214 157.5 
L 150.733111 157.5 
z
" style="fill:#348abd;opacity:0.2;"/>
   </g>
   <g id="patch_11">
    <path clip-path="url(#p660a47ce5e)" d="M 155.386989 157.5 
L 159.110092 157.5 
L 159.110092 156.43537 
L 155.386989 156.43537 
z
" style="fill:#348abd;opacity:0.2;"/>
   </g>
   <g id="patch_12">
    <path clip-path="url(#p660a47ce5e)" d="M 160.040867 157.5 
L 163.76397 157.5 
L 163.76397 157.34791 
L 160.040867 157.34791 
z
" style="fill:#348abd;opacity:0.2;"/>
   </g>
   <g id="patch_13">
    <path clip-path="url(#p660a47ce5e)" d="M 164.694746 157.5 
L 168.417848 157.5 
L 168.417848 157.04373 
L 164.694746 157.04373 
z
" style="fill:#348abd;opacity:0.2;"/>
   </g>
   <g id="patch_14">
    <path clip-path="url(#p660a47ce5e)" d="M 169.348624 157.5 
L 173.071726 157.5 
L 173.071726 157.5 
L 169.348624 157.5 
z
" style="fill:#348abd;opacity:0.2;"/>
   </g>
   <g id="patch_15">
    <path clip-path="url(#p660a47ce5e)" d="M 174.002502 157.5 
L 177.725605 157.5 
L 177.725605 157.34791 
L 174.002502 157.34791 
z
" style="fill:#348abd;opacity:0.2;"/>
   </g>
   <g id="patch_16">
    <path clip-path="url(#p660a47ce5e)" d="M 178.65638 157.5 
L 182.379483 157.5 
L 182.379483 157.04373 
L 178.65638 157.04373 
z
" style="fill:#348abd;opacity:0.2;"/>
   </g>
   <g id="patch_17">
    <path clip-path="url(#p660a47ce5e)" d="M 183.310259 157.5 
L 187.033361 157.5 
L 187.033361 156.89164 
L 183.310259 156.89164 
z
" style="fill:#348abd;opacity:0.2;"/>
   </g>
   <g id="patch_18">
    <path clip-path="url(#p660a47ce5e)" d="M 187.964137 157.5 
L 191.687239 157.5 
L 191.687239 157.34791 
L 187.964137 157.34791 
z
" style="fill:#348abd;opacity:0.2;"/>
   </g>
   <g id="patch_19">
    <path clip-path="url(#p660a47ce5e)" d="M 192.618015 157.5 
L 196.341118 157.5 
L 196.341118 157.5 
L 192.618015 157.5 
z
" style="fill:#348abd;opacity:0.2;"/>
   </g>
   <g id="patch_20">
    <path clip-path="url(#p660a47ce5e)" d="M 197.271893 157.5 
L 200.994996 157.5 
L 200.994996 157.34791 
L 197.271893 157.34791 
z
" style="fill:#348abd;opacity:0.2;"/>
   </g>
   <g id="patch_21">
    <path clip-path="url(#p660a47ce5e)" d="M 201.925771 157.5 
L 205.648874 157.5 
L 205.648874 157.19582 
L 201.925771 157.19582 
z
" style="fill:#348abd;opacity:0.2;"/>
   </g>
   <g id="patch_22">
    <path clip-path="url(#p660a47ce5e)" d="M 206.57965 157.5 
L 210.302752 157.5 
L 210.302752 157.34791 
L 206.57965 157.34791 
z
" style="fill:#348abd;opacity:0.2;"/>
   </g>
   <g id="patch_23">
    <path clip-path="url(#p660a47ce5e)" d="M 211.233528 157.5 
L 214.956631 157.5 
L 214.956631 157.5 
L 211.233528 157.5 
z
" style="fill:#348abd;opacity:0.2;"/>
   </g>
   <g id="patch_24">
    <path clip-path="url(#p660a47ce5e)" d="M 215.887406 157.5 
L 219.610509 157.5 
L 219.610509 157.5 
L 215.887406 157.5 
z
" style="fill:#348abd;opacity:0.2;"/>
   </g>
   <g id="patch_25">
    <path clip-path="url(#p660a47ce5e)" d="M 220.541284 157.5 
L 224.264387 157.5 
L 224.264387 157.5 
L 220.541284 157.5 
z
" style="fill:#348abd;opacity:0.2;"/>
   </g>
   <g id="patch_26">
    <path clip-path="url(#p660a47ce5e)" d="M 225.195163 157.5 
L 228.918265 157.5 
L 228.918265 157.5 
L 225.195163 157.5 
z
" style="fill:#348abd;opacity:0.2;"/>
   </g>
   <g id="patch_27">
    <path clip-path="url(#p660a47ce5e)" d="M 229.849041 157.5 
L 233.572143 157.5 
L 233.572143 157.34791 
L 229.849041 157.34791 
z
" style="fill:#348abd;opacity:0.2;"/>
   </g>
   <g id="patch_28">
    <path clip-path="url(#p660a47ce5e)" d="M 234.502919 157.5 
L 238.226022 157.5 
L 238.226022 157.34791 
L 234.502919 157.34791 
z
" style="fill:#348abd;opacity:0.2;"/>
   </g>
   <g id="patch_29">
    <path clip-path="url(#p660a47ce5e)" d="M 239.156797 157.5 
L 242.8799 157.5 
L 242.8799 157.34791 
L 239.156797 157.34791 
z
" style="fill:#348abd;opacity:0.2;"/>
   </g>
   <g id="patch_30">
    <path clip-path="url(#p660a47ce5e)" d="M 243.810676 157.5 
L 247.533778 157.5 
L 247.533778 157.5 
L 243.810676 157.5 
z
" style="fill:#348abd;opacity:0.2;"/>
   </g>
   <g id="patch_31">
    <path clip-path="url(#p660a47ce5e)" d="M 248.464554 157.5 
L 252.187656 157.5 
L 252.187656 146.397432 
L 248.464554 146.397432 
z
" style="fill:#348abd;opacity:0.2;"/>
   </g>
   <g id="patch_32">
    <path clip-path="url(#p660a47ce5e)" d="M 253.118432 157.5 
L 256.841535 157.5 
L 256.841535 142.291002 
L 253.118432 142.291002 
z
" style="fill:#348abd;opacity:0.2;"/>
   </g>
   <g id="patch_33">
    <path clip-path="url(#p660a47ce5e)" d="M 257.77231 157.5 
L 261.495413 157.5 
L 261.495413 122.671395 
L 257.77231 122.671395 
z
" style="fill:#348abd;opacity:0.2;"/>
   </g>
   <g id="patch_34">
    <path clip-path="url(#p660a47ce5e)" d="M 262.426188 157.5 
L 266.149291 157.5 
L 266.149291 131.796794 
L 262.426188 131.796794 
z
" style="fill:#348abd;opacity:0.2;"/>
   </g>
   <g id="patch_35">
    <path clip-path="url(#p660a47ce5e)" d="M 267.080067 157.5 
L 270.803169 157.5 
L 270.803169 122.367215 
L 267.080067 122.367215 
z
" style="fill:#348abd;opacity:0.2;"/>
   </g>
   <g id="patch_36">
    <path clip-path="url(#p660a47ce5e)" d="M 271.733945 157.5 
L 275.457048 157.5 
L 275.457048 135.599043 
L 271.733945 135.599043 
z
" style="fill:#348abd;opacity:0.2;"/>
   </g>
   <g id="patch_37">
    <path clip-path="url(#p660a47ce5e)" d="M 276.387823 157.5 
L 280.110926 157.5 
L 280.110926 114.306446 
L 276.387823 114.306446 
z
" style="fill:#348abd;opacity:0.2;"/>
   </g>
   <g id="patch_38">
    <path clip-path="url(#p660a47ce5e)" d="M 281.041701 157.5 
L 284.764804 157.5 
L 284.764804 80.694561 
L 281.041701 80.694561 
z
" style="fill:#348abd;opacity:0.2;"/>
   </g>
   <g id="patch_39">
    <path clip-path="url(#p660a47ce5e)" d="M 285.69558 157.5 
L 289.418682 157.5 
L 289.418682 70.656622 
L 285.69558 70.656622 
z
" style="fill:#348abd;opacity:0.2;"/>
   </g>
   <g id="patch_40">
    <path clip-path="url(#p660a47ce5e)" d="M 290.349458 157.5 
L 294.07256 157.5 
L 294.07256 33.850848 
L 290.349458 33.850848 
z
" style="fill:#348abd;opacity:0.2;"/>
   </g>
   <g id="patch_41">
    <path clip-path="url(#p660a47ce5e)" d="M 295.003336 157.5 
L 298.726439 157.5 
L 298.726439 68.375273 
L 295.003336 68.375273 
z
" style="fill:#348abd;opacity:0.2;"/>
   </g>
   <g id="patch_42">
    <path clip-path="url(#p660a47ce5e)" d="M 299.657214 157.5 
L 303.380317 157.5 
L 303.380317 66.398103 
L 299.657214 66.398103 
z
" style="fill:#348abd;opacity:0.2;"/>
   </g>
   <g id="patch_43">
    <path clip-path="url(#p660a47ce5e)" d="M 304.311093 157.5 
L 308.034195 157.5 
L 308.034195 28.071429 
L 304.311093 28.071429 
z
" style="fill:#348abd;opacity:0.2;"/>
   </g>
   <g id="patch_44">
    <path clip-path="url(#p660a47ce5e)" d="M 308.964971 157.5 
L 312.688073 157.5 
L 312.688073 91.340859 
L 308.964971 91.340859 
z
" style="fill:#348abd;opacity:0.2;"/>
   </g>
   <g id="patch_45">
    <path clip-path="url(#p660a47ce5e)" d="M 313.618849 157.5 
L 317.341952 157.5 
L 317.341952 86.47398 
L 313.618849 86.47398 
z
" style="fill:#348abd;opacity:0.2;"/>
   </g>
   <g id="patch_46">
    <path clip-path="url(#p660a47ce5e)" d="M 318.272727 157.5 
L 321.99583 157.5 
L 321.99583 80.694561 
L 318.272727 80.694561 
z
" style="fill:#348abd;opacity:0.2;"/>
   </g>
   <g id="patch_47">
    <path clip-path="url(#p660a47ce5e)" d="M 322.926606 157.5 
L 326.649708 157.5 
L 326.649708 89.36369 
L 322.926606 89.36369 
z
" style="fill:#348abd;opacity:0.2;"/>
   </g>
   <g id="patch_48">
    <path clip-path="url(#p660a47ce5e)" d="M 327.580484 157.5 
L 331.303586 157.5 
L 331.303586 115.979436 
L 327.580484 115.979436 
z
" style="fill:#348abd;opacity:0.2;"/>
   </g>
   <g id="patch_49">
    <path clip-path="url(#p660a47ce5e)" d="M 332.234362 157.5 
L 335.957465 157.5 
L 335.957465 132.557244 
L 332.234362 132.557244 
z
" style="fill:#348abd;opacity:0.2;"/>
   </g>
   <g id="patch_50">
    <path clip-path="url(#p660a47ce5e)" d="M 336.88824 157.5 
L 340.611343 157.5 
L 340.611343 152.176851 
L 336.88824 152.176851 
z
" style="fill:#348abd;opacity:0.2;"/>
   </g>
   <g id="patch_51">
    <path clip-path="url(#p660a47ce5e)" d="M 341.542118 157.5 
L 345.265221 157.5 
L 345.265221 120.694225 
L 341.542118 120.694225 
z
" style="fill:#348abd;opacity:0.2;"/>
   </g>
   <g id="patch_52">
    <path clip-path="url(#p660a47ce5e)" d="M 346.195997 157.5 
L 349.919099 157.5 
L 349.919099 140.161742 
L 346.195997 140.161742 
z
" style="fill:#348abd;opacity:0.2;"/>
   </g>
   <g id="patch_53">
    <path clip-path="url(#p660a47ce5e)" d="M 350.849875 157.5 
L 354.572977 157.5 
L 354.572977 140.770102 
L 350.849875 140.770102 
z
" style="fill:#348abd;opacity:0.2;"/>
   </g>
   <g id="patch_54">
    <path clip-path="url(#p660a47ce5e)" d="M 355.503753 157.5 
L 359.226856 157.5 
L 359.226856 141.226372 
L 355.503753 141.226372 
z
" style="fill:#348abd;opacity:0.2;"/>
   </g>
   <g id="patch_55">
    <path clip-path="url(#p660a47ce5e)" d="M 360.157631 157.5 
L 363.880734 157.5 
L 363.880734 145.941162 
L 360.157631 145.941162 
z
" style="fill:#348abd;opacity:0.2;"/>
   </g>
   <g id="patch_56">
    <path clip-path="url(#p660a47ce5e)" d="M 364.81151 157.5 
L 368.534612 157.5 
L 368.534612 146.245342 
L 364.81151 146.245342 
z
" style="fill:#348abd;opacity:0.2;"/>
   </g>
   <g id="patch_57">
    <path clip-path="url(#p660a47ce5e)" d="M 369.465388 157.5 
L 373.18849 157.5 
L 373.18849 144.724442 
L 369.465388 144.724442 
z
" style="fill:#348abd;opacity:0.2;"/>
   </g>
   <g id="patch_58">
    <path clip-path="url(#p660a47ce5e)" d="M 374.119266 157.5 
L 377.842369 157.5 
L 377.842369 143.355632 
L 374.119266 143.355632 
z
" style="fill:#348abd;opacity:0.2;"/>
   </g>
   <g id="patch_59">
    <path clip-path="url(#p660a47ce5e)" d="M 378.773144 157.5 
L 382.496247 157.5 
L 382.496247 134.382323 
L 378.773144 134.382323 
z
" style="fill:#348abd;opacity:0.2;"/>
   </g>
   <g id="patch_60">
    <path clip-path="url(#p660a47ce5e)" d="M 383.427023 157.5 
L 387.150125 157.5 
L 387.150125 144.268172 
L 383.427023 144.268172 
z
" style="fill:#348abd;opacity:0.2;"/>
   </g>
   <g id="patch_61">
    <path clip-path="url(#p660a47ce5e)" d="M 388.080901 157.5 
L 391.804003 157.5 
L 391.804003 135.142773 
L 388.080901 135.142773 
z
" style="fill:#348abd;opacity:0.2;"/>
   </g>
   <g id="patch_62">
    <path clip-path="url(#p660a47ce5e)" d="M 392.734779 157.5 
L 396.457882 157.5 
L 396.457882 132.861424 
L 392.734779 132.861424 
z
" style="fill:#348abd;opacity:0.2;"/>
   </g>
   <g id="patch_63">
    <path clip-path="url(#p660a47ce5e)" d="M 397.388657 157.5 
L 401.11176 157.5 
L 401.11176 157.5 
L 397.388657 157.5 
z
" style="fill:#348abd;opacity:0.2;"/>
   </g>
   <g id="patch_64">
    <path clip-path="url(#p660a47ce5e)" d="M 402.042535 157.5 
L 405.765638 157.5 
L 405.765638 145.941162 
L 402.042535 145.941162 
z
" style="fill:#348abd;opacity:0.2;"/>
   </g>
   <g id="patch_65">
    <path clip-path="url(#p660a47ce5e)" d="M 406.696414 157.5 
L 410.419516 157.5 
L 410.419516 142.291002 
L 406.696414 142.291002 
z
" style="fill:#348abd;opacity:0.2;"/>
   </g>
   <g id="patch_66">
    <path clip-path="url(#p660a47ce5e)" d="M 411.350292 157.5 
L 415.073394 157.5 
L 415.073394 141.682642 
L 411.350292 141.682642 
z
" style="fill:#348abd;opacity:0.2;"/>
   </g>
   <g id="patch_67">
    <path clip-path="url(#p660a47ce5e)" d="M 416.00417 157.5 
L 419.727273 157.5 
L 419.727273 143.659812 
L 416.00417 143.659812 
z
" style="fill:#348abd;opacity:0.2;"/>
   </g>
   <g id="patch_68">
    <path clip-path="url(#p660a47ce5e)" d="M 420.658048 157.5 
L 424.381151 157.5 
L 424.381151 135.294863 
L 420.658048 135.294863 
z
" style="fill:#348abd;opacity:0.2;"/>
   </g>
   <g id="patch_69">
    <path clip-path="url(#p660a47ce5e)" d="M 425.311927 157.5 
L 429.035029 157.5 
L 429.035029 141.530552 
L 425.311927 141.530552 
z
" style="fill:#348abd;opacity:0.2;"/>
   </g>
   <g id="patch_70">
    <path clip-path="url(#p660a47ce5e)" d="M 429.965805 157.5 
L 433.688907 157.5 
L 433.688907 145.636982 
L 429.965805 145.636982 
z
" style="fill:#348abd;opacity:0.2;"/>
   </g>
   <g id="patch_71">
    <path clip-path="url(#p660a47ce5e)" d="M 434.619683 157.5 
L 438.342786 157.5 
L 438.342786 138.488753 
L 434.619683 138.488753 
z
" style="fill:#348abd;opacity:0.2;"/>
   </g>
   <g id="patch_72">
    <path clip-path="url(#p660a47ce5e)" d="M 439.273561 157.5 
L 442.996664 157.5 
L 442.996664 142.138912 
L 439.273561 142.138912 
z
" style="fill:#348abd;opacity:0.2;"/>
   </g>
   <g id="patch_73">
    <path clip-path="url(#p660a47ce5e)" d="M 443.92744 157.5 
L 447.650542 157.5 
L 447.650542 143.963992 
L 443.92744 143.963992 
z
" style="fill:#348abd;opacity:0.2;"/>
   </g>
   <g id="patch_74">
    <path clip-path="url(#p660a47ce5e)" d="M 448.581318 157.5 
L 452.30442 157.5 
L 452.30442 144.420262 
L 448.581318 144.420262 
z
" style="fill:#348abd;opacity:0.2;"/>
   </g>
   <g id="patch_75">
    <path clip-path="url(#p660a47ce5e)" d="M 453.235196 157.5 
L 456.958299 157.5 
L 456.958299 143.203542 
L 453.235196 143.203542 
z
" style="fill:#348abd;opacity:0.2;"/>
   </g>
   <g id="patch_76">
    <path clip-path="url(#p660a47ce5e)" d="M 457.889074 157.5 
L 461.612177 157.5 
L 461.612177 145.180712 
L 457.889074 145.180712 
z
" style="fill:#348abd;opacity:0.2;"/>
   </g>
   <g id="patch_77">
    <path clip-path="url(#p660a47ce5e)" d="M 462.542952 157.5 
L 466.266055 157.5 
L 466.266055 150.351771 
L 462.542952 150.351771 
z
" style="fill:#348abd;opacity:0.2;"/>
   </g>
   <g id="patch_78">
    <path clip-path="url(#p660a47ce5e)" d="M 467.196831 157.5 
L 470.919933 157.5 
L 470.919933 150.351771 
L 467.196831 150.351771 
z
" style="fill:#348abd;opacity:0.2;"/>
   </g>
   <g id="patch_79">
    <path clip-path="url(#p660a47ce5e)" d="M 471.850709 157.5 
L 475.573812 157.5 
L 475.573812 149.439231 
L 471.850709 149.439231 
z
" style="fill:#348abd;opacity:0.2;"/>
   </g>
   <g id="patch_80">
    <path clip-path="url(#p660a47ce5e)" d="M 476.504587 157.5 
L 480.22769 157.5 
L 480.22769 151.568491 
L 476.504587 151.568491 
z
" style="fill:#348abd;opacity:0.2;"/>
   </g>
   <g id="patch_81">
    <path clip-path="url(#p660a47ce5e)" d="M 481.158465 157.5 
L 484.881568 157.5 
L 484.881568 153.393571 
L 481.158465 153.393571 
z
" style="fill:#348abd;opacity:0.2;"/>
   </g>
   <g id="patch_82">
    <path clip-path="url(#p660a47ce5e)" d="M 485.812344 157.5 
L 489.535446 157.5 
L 489.535446 152.937301 
L 485.812344 152.937301 
z
" style="fill:#348abd;opacity:0.2;"/>
   </g>
   <g id="patch_83">
    <path clip-path="url(#p660a47ce5e)" d="M 490.466222 157.5 
L 494.189324 157.5 
L 494.189324 152.633121 
L 490.466222 152.633121 
z
" style="fill:#348abd;opacity:0.2;"/>
   </g>
   <g id="patch_84">
    <path clip-path="url(#p660a47ce5e)" d="M 495.1201 157.5 
L 498.843203 157.5 
L 498.843203 153.697751 
L 495.1201 153.697751 
z
" style="fill:#348abd;opacity:0.2;"/>
   </g>
   <g id="patch_85">
    <path clip-path="url(#p660a47ce5e)" d="M 499.773978 157.5 
L 503.497081 157.5 
L 503.497081 153.393571 
L 499.773978 153.393571 
z
" style="fill:#348abd;opacity:0.2;"/>
   </g>
   <g id="patch_86">
    <path clip-path="url(#p660a47ce5e)" d="M 504.427857 157.5 
L 508.150959 157.5 
L 508.150959 153.393571 
L 504.427857 153.393571 
z
" style="fill:#348abd;opacity:0.2;"/>
   </g>
   <g id="patch_87">
    <path clip-path="url(#p660a47ce5e)" d="M 509.081735 157.5 
L 512.804837 157.5 
L 512.804837 154.15402 
L 509.081735 154.15402 
z
" style="fill:#348abd;opacity:0.2;"/>
   </g>
   <g id="patch_88">
    <path clip-path="url(#p660a47ce5e)" d="M 513.735613 157.5 
L 517.458716 157.5 
L 517.458716 154.15402 
L 513.735613 154.15402 
z
" style="fill:#348abd;opacity:0.2;"/>
   </g>
   <g id="patch_89">
    <path clip-path="url(#p660a47ce5e)" d="M 518.389491 157.5 
L 522.112594 157.5 
L 522.112594 154.76238 
L 518.389491 154.76238 
z
" style="fill:#348abd;opacity:0.2;"/>
   </g>
   <g id="patch_90">
    <path clip-path="url(#p660a47ce5e)" d="M 523.043369 157.5 
L 526.766472 157.5 
L 526.766472 156.28328 
L 523.043369 156.28328 
z
" style="fill:#348abd;opacity:0.2;"/>
   </g>
   <g id="patch_91">
    <path clip-path="url(#p660a47ce5e)" d="M 527.697248 157.5 
L 531.42035 157.5 
L 531.42035 155.52283 
L 527.697248 155.52283 
z
" style="fill:#348abd;opacity:0.2;"/>
   </g>
   <g id="patch_92">
    <path clip-path="url(#p660a47ce5e)" d="M 532.351126 157.5 
L 536.074229 157.5 
L 536.074229 156.13119 
L 532.351126 156.13119 
z
" style="fill:#348abd;opacity:0.2;"/>
   </g>
   <g id="patch_93">
    <path clip-path="url(#p660a47ce5e)" d="M 537.005004 157.5 
L 540.728107 157.5 
L 540.728107 155.82701 
L 537.005004 155.82701 
z
" style="fill:#348abd;opacity:0.2;"/>
   </g>
   <g id="patch_94">
    <path clip-path="url(#p660a47ce5e)" d="M 541.658882 157.5 
L 545.381985 157.5 
L 545.381985 155.37074 
L 541.658882 155.37074 
z
" style="fill:#348abd;opacity:0.2;"/>
   </g>
   <g id="patch_95">
    <path clip-path="url(#p660a47ce5e)" d="M 546.312761 157.5 
L 550.035863 157.5 
L 550.035863 155.9791 
L 546.312761 155.9791 
z
" style="fill:#348abd;opacity:0.2;"/>
   </g>
   <g id="patch_96">
    <path clip-path="url(#p660a47ce5e)" d="M 550.966639 157.5 
L 554.689741 157.5 
L 554.689741 155.9791 
L 550.966639 155.9791 
z
" style="fill:#348abd;opacity:0.2;"/>
   </g>
   <g id="patch_97">
    <path clip-path="url(#p660a47ce5e)" d="M 555.620517 157.5 
L 559.34362 157.5 
L 559.34362 155.9791 
L 555.620517 155.9791 
z
" style="fill:#348abd;opacity:0.2;"/>
   </g>
   <g id="patch_98">
    <path clip-path="url(#p660a47ce5e)" d="M 560.274395 157.5 
L 563.997498 157.5 
L 563.997498 155.37074 
L 560.274395 155.37074 
z
" style="fill:#348abd;opacity:0.2;"/>
   </g>
   <g id="patch_99">
    <path clip-path="url(#p660a47ce5e)" d="M 564.928274 157.5 
L 568.651376 157.5 
L 568.651376 156.13119 
L 564.928274 156.13119 
z
" style="fill:#348abd;opacity:0.2;"/>
   </g>
   <g id="patch_100">
    <path clip-path="url(#p660a47ce5e)" d="M 569.582152 157.5 
L 573.305254 157.5 
L 573.305254 156.89164 
L 569.582152 156.89164 
z
" style="fill:#348abd;opacity:0.2;"/>
   </g>
   <g id="patch_101">
    <path clip-path="url(#p660a47ce5e)" d="M 574.23603 157.5 
L 577.959133 157.5 
L 577.959133 156.13119 
L 574.23603 156.13119 
z
" style="fill:#348abd;opacity:0.2;"/>
   </g>
   <g id="patch_102">
    <path clip-path="url(#p660a47ce5e)" d="M 578.889908 157.5 
L 582.613011 157.5 
L 582.613011 156.58746 
L 578.889908 156.58746 
z
" style="fill:#348abd;opacity:0.2;"/>
   </g>
   <g id="patch_103">
    <path clip-path="url(#p660a47ce5e)" d="M 583.543786 157.5 
L 587.266889 157.5 
L 587.266889 155.52283 
L 583.543786 155.52283 
z
" style="fill:#348abd;opacity:0.2;"/>
   </g>
   <g id="patch_104">
    <path clip-path="url(#p660a47ce5e)" d="M 588.197665 157.5 
L 591.920767 157.5 
L 591.920767 156.28328 
L 588.197665 156.28328 
z
" style="fill:#348abd;opacity:0.2;"/>
   </g>
   <g id="patch_105">
    <path clip-path="url(#p660a47ce5e)" d="M 592.851543 157.5 
L 596.574646 157.5 
L 596.574646 157.04373 
L 592.851543 157.04373 
z
" style="fill:#348abd;opacity:0.2;"/>
   </g>
   <g id="patch_106">
    <path clip-path="url(#p660a47ce5e)" d="M 597.505421 157.5 
L 601.228524 157.5 
L 601.228524 157.19582 
L 597.505421 157.19582 
z
" style="fill:#348abd;opacity:0.2;"/>
   </g>
   <g id="patch_107">
    <path clip-path="url(#p660a47ce5e)" d="M 602.159299 157.5 
L 605.882402 157.5 
L 605.882402 156.89164 
L 602.159299 156.89164 
z
" style="fill:#348abd;opacity:0.2;"/>
   </g>
   <g id="patch_108">
    <path clip-path="url(#p660a47ce5e)" d="M 606.813178 157.5 
L 610.53628 157.5 
L 610.53628 155.67492 
L 606.813178 155.67492 
z
" style="fill:#348abd;opacity:0.2;"/>
   </g>
   <g id="patch_109">
    <path clip-path="url(#p660a47ce5e)" d="M 611.467056 157.5 
L 615.190158 157.5 
L 615.190158 154.76238 
L 611.467056 154.76238 
z
" style="fill:#348abd;opacity:0.2;"/>
   </g>
   <g id="patch_110">
    <path clip-path="url(#p660a47ce5e)" d="M 616.120934 157.5 
L 619.844037 157.5 
L 619.844037 152.328941 
L 616.120934 152.328941 
z
" style="fill:#348abd;opacity:0.2;"/>
   </g>
   <g id="patch_111">
    <path clip-path="url(#p660a47ce5e)" d="M 620.774812 157.5 
L 624.497915 157.5 
L 624.497915 152.176851 
L 620.774812 152.176851 
z
" style="fill:#348abd;opacity:0.2;"/>
   </g>
   <g id="line2d_32">
    <path clip-path="url(#p660a47ce5e)" d="M 120.017515 157.421369 
L 124.671393 157.422652 
L 129.325271 157.424948 
L 133.979149 157.41521 
L 138.633028 157.394227 
L 143.286906 157.359726 
L 147.940784 157.317397 
L 152.594662 157.283134 
L 157.24854 157.251805 
L 161.902419 157.223538 
L 166.556297 157.200276 
L 171.210175 157.185659 
L 175.864053 157.191815 
L 180.517932 157.209114 
L 185.17181 157.232072 
L 189.825688 157.253856 
L 194.479566 157.271736 
L 199.133445 157.300754 
L 203.787323 157.336843 
L 208.441201 157.373146 
L 213.095079 157.4009 
L 217.748957 157.416626 
L 222.402836 157.423917 
L 227.056714 157.276025 
L 231.710592 156.800635 
L 236.36447 155.591805 
L 241.018349 153.505335 
L 245.672227 150.472901 
L 250.326105 146.760383 
L 254.979983 142.588503 
L 259.633862 137.631279 
L 264.28774 131.705469 
L 268.941618 124.099967 
L 273.595496 115.079513 
L 278.249374 105.269355 
L 282.903253 94.63871 
L 287.557131 84.677838 
L 292.211009 75.992014 
L 296.864887 69.559052 
L 301.518766 66.69531 
L 306.172644 67.166161 
L 310.826522 71.290572 
L 315.4804 78.304356 
L 320.134279 86.981495 
L 324.788157 96.820849 
L 329.442035 106.312511 
L 334.095913 115.098599 
L 338.749791 123.012212 
L 343.40367 129.40564 
L 348.057548 134.567936 
L 352.711426 138.250956 
L 357.365304 140.316567 
L 362.019183 141.522824 
L 366.673061 142.083911 
L 371.326939 142.108496 
L 375.980817 142.059005 
L 380.634696 141.706161 
L 385.288574 141.53635 
L 389.942452 141.665777 
L 394.59633 141.91562 
L 399.250209 142.29979 
L 403.904087 142.609289 
L 408.557965 142.823832 
L 413.211843 142.833682 
L 417.865721 142.510045 
L 422.5196 142.123319 
L 427.173478 141.758199 
L 431.827356 141.613496 
L 436.481234 141.842112 
L 441.135113 142.355954 
L 445.788991 143.064308 
L 450.442869 143.919414 
L 455.096747 144.969472 
L 459.750626 146.081981 
L 464.404504 147.276947 
L 469.058382 148.506673 
L 473.71226 149.649825 
L 478.366138 150.673326 
L 483.020017 151.514781 
L 487.673895 152.17427 
L 492.327773 152.668351 
L 496.981651 153.049949 
L 501.63553 153.392694 
L 506.289408 153.709578 
L 510.943286 154.0293 
L 515.597164 154.367739 
L 520.251043 154.708055 
L 524.904921 155.030866 
L 529.558799 155.30433 
L 534.212677 155.527774 
L 538.866555 155.685015 
L 543.520434 155.771084 
L 548.174312 155.826937 
L 552.82819 155.86504 
L 557.482068 155.919574 
L 562.135947 155.989865 
L 566.789825 156.052658 
L 571.443703 156.12192 
L 576.097581 156.194616 
L 580.75146 156.285751 
L 585.405338 156.373507 
L 590.059216 156.416628 
L 594.713094 156.362921 
L 599.366972 156.164335 
L 604.020851 155.864789 
L 608.674729 155.485705 
L 613.328607 155.056984 
L 617.982485 154.602056 
L 622.636364 154.320901 
" style="fill:none;stroke:#348abd;stroke-linecap:square;stroke-width:3;"/>
   </g>
   <g id="patch_112">
    <path d="M 90 157.5 
L 90 21.6 
" style="fill:none;stroke:#ffffff;stroke-linecap:square;stroke-linejoin:miter;"/>
   </g>
   <g id="patch_113">
    <path d="M 648 157.5 
L 648 21.6 
" style="fill:none;stroke:#ffffff;stroke-linecap:square;stroke-linejoin:miter;"/>
   </g>
   <g id="patch_114">
    <path d="M 90 157.5 
L 648 157.5 
" style="fill:none;stroke:#ffffff;stroke-linecap:square;stroke-linejoin:miter;"/>
   </g>
   <g id="patch_115">
    <path d="M 90 21.6 
L 648 21.6 
" style="fill:none;stroke:#ffffff;stroke-linecap:square;stroke-linejoin:miter;"/>
   </g>
   <g id="legend_1">
    <g id="patch_116">
     <path d="M 424 57.040625 
L 641 57.040625 
Q 643 57.040625 643 55.040625 
L 643 28.6 
Q 643 26.6 641 26.6 
L 424 26.6 
Q 422 26.6 422 28.6 
L 422 55.040625 
Q 422 57.040625 424 57.040625 
z
" style="fill:#e5e5e5;opacity:0.8;stroke:#cccccc;stroke-linejoin:miter;stroke-width:0.5;"/>
    </g>
    <g id="line2d_33">
     <path d="M 426 34.1 
L 446 34.1 
" style="fill:none;stroke:#348abd;stroke-linecap:square;stroke-width:3;"/>
    </g>
    <g id="line2d_34"/>
    <g id="text_20">
     <!-- Korea, South new cases (rolling mean) -->
     <defs>
      <path d="M 4.203125 62.296875 
L 4.203125 0 
L 11.59375 0 
L 11.59375 25.796875 
L 16.5 31.09375 
L 38.203125 -0.5 
C 38.203125 -0.5 42.09375 -0.09375 47.09375 -0.09375 
L 21.90625 35.296875 
L 45.40625 62.296875 
L 42.796875 62.296875 
C 41.09375 62.296875 39.40625 62.296875 37.703125 62.796875 
L 11.59375 33.5 
L 11.59375 59.796875 
C 11.59375 60.203125 11.59375 60.5 12 60.90625 
C 12.203125 61.203125 12.703125 61.703125 12.5 62.296875 
z
" id="Inconsolata-75"/>
      <path d="M 46 22.59375 
C 46 38.40625 36 46.59375 25.59375 46.59375 
C 14 46.59375 4 36.59375 4 22.40625 
C 4 8.5 13.90625 -1.296875 25.40625 -1.296875 
C 36.203125 -1.296875 46 7.40625 46 22.59375 
z
M 25.09375 40.5 
C 31.703125 40.5 38.703125 34.796875 38.703125 22.296875 
C 38.703125 10.796875 32.09375 5 25.5 5 
C 18.203125 5 11.59375 11.796875 11.59375 23.09375 
C 11.59375 34.296875 18.09375 40.5 25.09375 40.5 
z
" id="Inconsolata-111"/>
      <path d="M 9.90625 45.59375 
L 9.90625 -0.09375 
L 17.09375 -0.09375 
L 17.09375 22.09375 
C 17.09375 24.90625 17.203125 27.90625 20.296875 32.796875 
C 24.5 39.40625 29.90625 40.5 33.203125 40.5 
C 37 40.5 39.40625 38.703125 40.703125 37.09375 
C 41.296875 36.296875 41.59375 35.5 42.40625 34.796875 
L 45.796875 41.703125 
C 42.90625 44.703125 38.703125 46.703125 33.59375 46.703125 
C 26.90625 46.703125 20.09375 43.296875 17.09375 36.796875 
L 17.40625 45.59375 
z
" id="Inconsolata-114"/>
      <path d="M 30.5 1.90625 
C 30.5 7 27.09375 10.203125 23.59375 10.203125 
C 20.296875 10.203125 17.796875 7.5 17.796875 4.5 
C 17.796875 1.796875 19.703125 0.703125 20.59375 0.09375 
C 21.5 -0.5 22.90625 -1.40625 22.90625 -3.5 
C 22.90625 -5.09375 22 -6.796875 21.5 -7.59375 
C 20.5 -9.203125 18.796875 -11.703125 16.40625 -13.90625 
L 19.90625 -16.90625 
C 26.90625 -9.796875 30.5 -3.296875 30.5 1.90625 
z
" id="Inconsolata-44"/>
      <path d="M 43.40625 54.796875 
C 39.203125 59.90625 33 62.59375 26.203125 62.59375 
C 14.90625 62.59375 7.203125 55.203125 7.203125 46.59375 
C 7.203125 43 8.59375 38.296875 13.796875 34.5 
C 19.59375 30.203125 28.59375 28.09375 33.296875 25.09375 
C 37.40625 22.59375 38.5 19.296875 38.5 16.5 
C 38.5 11.09375 33.90625 5.203125 24.90625 5.203125 
C 18.09375 5.203125 12.796875 8.59375 10 12.09375 
C 9.703125 12.5 9.703125 12.703125 9.703125 13.09375 
C 9.703125 13.296875 9.703125 13.90625 9.296875 14.09375 
L 5.09375 6.90625 
C 10 1.59375 17 -1.09375 24.703125 -1.09375 
C 39.90625 -1.09375 45.5 9.09375 45.5 16.90625 
C 45.5 20.203125 44.5 24.5 40.59375 28.203125 
C 35.203125 33.296875 26.40625 35.09375 20.703125 38.40625 
C 15.5 41.5 14.40625 45.203125 14.40625 47.703125 
C 14.40625 52.5 18.5 56.796875 25.59375 56.796875 
C 31.40625 56.796875 35.90625 54.203125 38.296875 50.703125 
C 38.59375 50.296875 38.5 50.09375 38.5 49.703125 
C 38.5 49.09375 38.796875 48.90625 39 48.90625 
z
" id="Inconsolata-83"/>
      <path d="M 6.203125 45.59375 
L 6.203125 20.09375 
C 6.203125 16.203125 6.203125 12.203125 8 8.09375 
C 10.59375 2.09375 16.203125 -1.203125 22.203125 -1.203125 
C 27.90625 -1.203125 33.296875 1.90625 36.296875 6.90625 
L 36.203125 3.5 
C 36.203125 2.296875 36.203125 1.09375 36.40625 0 
L 44 0 
C 43.5 1.296875 43.40625 2.796875 43.40625 4.09375 
L 43.40625 45.59375 
L 36.203125 45.59375 
L 36.203125 20.5 
C 36.203125 17 35.90625 14.296875 34.40625 11.5 
C 32.296875 7.59375 28.203125 4.703125 23.796875 4.703125 
C 20.296875 4.703125 16.90625 6.703125 15.09375 10.296875 
C 13.5 13.5 13.5 17.09375 13.5 20.09375 
L 13.5 45.59375 
z
" id="Inconsolata-117"/>
      <path d="M 18.796875 57.90625 
L 17.90625 45.59375 
L 7 45.59375 
L 6.90625 39.703125 
L 17.59375 39.703125 
C 17 31.90625 16.703125 24.09375 16.703125 16.40625 
C 16.703125 12.296875 16.703125 7.703125 19.40625 3.90625 
C 21.59375 0.90625 25.09375 -0.90625 29.796875 -0.90625 
C 35.203125 -0.90625 40.5 1.40625 44.40625 4.203125 
L 42.203125 9.90625 
C 38.296875 7 34.703125 5.703125 31.90625 5.703125 
C 28.5 5.703125 25 7.59375 24.203125 13.09375 
C 24.203125 13.5 23.90625 15.203125 23.90625 21.90625 
C 23.90625 27.796875 24.203125 33.796875 24.796875 39.703125 
L 39.796875 39.703125 
L 39.796875 45.703125 
L 24.90625 45.703125 
C 24.90625 45.703125 25.59375 53.90625 26.09375 56.5 
C 26.203125 57.5 27 58.09375 26.59375 59.203125 
z
" id="Inconsolata-116"/>
      <path d="M 1.5 45.703125 
L 10.703125 -0.09375 
L 17.203125 -0.09375 
L 25.203125 29.5 
L 33.703125 -0.09375 
L 40.40625 -0.09375 
C 43.5 15 46.09375 30.296875 48 45.59375 
L 41.40625 45.59375 
C 41.59375 40.09375 41.09375 35 37.09375 9 
L 27.5 41.40625 
L 23.09375 41.40625 
L 15.203125 8.90625 
L 8.59375 41.90625 
C 8.40625 42.59375 8.40625 42.90625 8.703125 43.703125 
C 8.796875 44.203125 9.09375 44.90625 8.796875 45.703125 
z
" id="Inconsolata-119"/>
      <path d="M 43.203125 39.59375 
C 39 44.203125 32.90625 46.703125 26.09375 46.703125 
C 15.5 46.703125 8.59375 40.796875 8.59375 34 
C 8.59375 26 17.203125 23.09375 19.703125 22.203125 
C 23.59375 20.796875 28.59375 19.59375 32 18 
C 35.796875 16.203125 36.5 13.796875 36.5 12.203125 
C 36.5 7.90625 31.296875 5 24.796875 5 
C 17 5 12 9.703125 10.5 11.296875 
C 10.203125 11.703125 10.203125 12 10.203125 12.40625 
C 10.203125 12.5 10.296875 13.09375 9.796875 13.296875 
L 5.59375 6.203125 
C 11 1.203125 18 -1.09375 24.90625 -1.09375 
C 37.40625 -1.09375 43.90625 6.296875 43.90625 13.203125 
C 43.90625 16.296875 42.59375 20.5 37.203125 23.5 
C 32.09375 26.40625 24.703125 27.40625 20.40625 29.5 
C 16.703125 31.296875 15.90625 33.5 15.90625 35.09375 
C 15.90625 38.703125 20.40625 41.296875 25.5 41.296875 
C 32.09375 41.296875 36.5 37.296875 38.203125 35 
C 38.5 34.703125 38.40625 34.40625 38.40625 34.09375 
C 38.40625 33.5 38.796875 33.296875 39 33.296875 
z
" id="Inconsolata-115"/>
      <path d="M 39.09375 66.59375 
C 23.703125 59.796875 13.796875 44.09375 13.796875 25.796875 
C 13.796875 7.59375 23.40625 -9 39.203125 -17.296875 
L 42.5 -12 
C 28.796875 -4.09375 20.796875 10.59375 20.796875 26.09375 
C 20.796875 40.40625 27.703125 53.203125 39.40625 60 
C 39.59375 60.203125 39.90625 60.40625 40.296875 60.40625 
C 40.59375 60.40625 40.90625 60.203125 41.296875 60.203125 
C 41.5 60.203125 41.796875 60.296875 42.203125 60.40625 
z
" id="Inconsolata-40"/>
      <path d="M 3.703125 0 
L 10.296875 0 
L 10.296875 30.40625 
C 10.296875 32.59375 10.5 34.59375 11.796875 37 
C 13.40625 40 15.40625 41.203125 17.296875 41.203125 
C 18.90625 41.203125 20.703125 40.203125 21.5 37.703125 
C 22.09375 35.796875 22 33.59375 22 31.703125 
L 22 0 
L 28.703125 0 
L 28.703125 30.203125 
C 28.703125 32.59375 28.90625 34.5 30.59375 37.40625 
C 31.40625 38.59375 33.09375 41.5 35.90625 41.5 
C 37.40625 41.5 38.796875 40.59375 39.5 38.90625 
C 40.40625 37 40.203125 34.40625 40.203125 32.296875 
L 40.203125 -0.09375 
L 47 -0.09375 
L 47 32.40625 
C 47 36.203125 47.09375 40 45.09375 43.09375 
C 43.40625 45.703125 40.5 46.703125 38 46.703125 
C 33.59375 46.703125 29.5 44.09375 27.703125 40.09375 
C 27 43.90625 23.796875 46.703125 19.703125 46.703125 
C 15.90625 46.703125 12.40625 44.296875 10.296875 41.09375 
L 10.40625 45.59375 
L 3.703125 45.59375 
z
" id="Inconsolata-109"/>
      <path d="M 7.703125 60.296875 
C 20.90625 53.203125 29.296875 39.59375 29.296875 24.703125 
C 29.296875 9.703125 20.703125 -4.296875 7.203125 -11.40625 
L 9.09375 -17.5 
C 25.703125 -9.59375 36.40625 7 36.40625 25 
C 36.40625 42.796875 25.90625 59 9.59375 66.5 
z
" id="Inconsolata-41"/>
     </defs>
     <g transform="translate(454 37.6)scale(0.1 -0.1)">
      <use xlink:href="#Inconsolata-75"/>
      <use x="49.999985" xlink:href="#Inconsolata-111"/>
      <use x="99.999969" xlink:href="#Inconsolata-114"/>
      <use x="149.999954" xlink:href="#Inconsolata-101"/>
      <use x="199.999939" xlink:href="#Inconsolata-97"/>
      <use x="249.999924" xlink:href="#Inconsolata-44"/>
      <use x="299.999908" xlink:href="#Inconsolata-32"/>
      <use x="349.999893" xlink:href="#Inconsolata-83"/>
      <use x="399.999878" xlink:href="#Inconsolata-111"/>
      <use x="449.999863" xlink:href="#Inconsolata-117"/>
      <use x="499.999847" xlink:href="#Inconsolata-116"/>
      <use x="549.999832" xlink:href="#Inconsolata-104"/>
      <use x="599.999817" xlink:href="#Inconsolata-32"/>
      <use x="649.999802" xlink:href="#Inconsolata-110"/>
      <use x="699.999786" xlink:href="#Inconsolata-101"/>
      <use x="749.999771" xlink:href="#Inconsolata-119"/>
      <use x="799.999756" xlink:href="#Inconsolata-32"/>
      <use x="849.999741" xlink:href="#Inconsolata-99"/>
      <use x="899.999725" xlink:href="#Inconsolata-97"/>
      <use x="949.99971" xlink:href="#Inconsolata-115"/>
      <use x="999.999695" xlink:href="#Inconsolata-101"/>
      <use x="1049.99968" xlink:href="#Inconsolata-115"/>
      <use x="1099.999664" xlink:href="#Inconsolata-32"/>
      <use x="1149.999649" xlink:href="#Inconsolata-40"/>
      <use x="1199.999634" xlink:href="#Inconsolata-114"/>
      <use x="1249.999619" xlink:href="#Inconsolata-111"/>
      <use x="1299.999603" xlink:href="#Inconsolata-108"/>
      <use x="1349.999588" xlink:href="#Inconsolata-108"/>
      <use x="1399.999573" xlink:href="#Inconsolata-105"/>
      <use x="1449.999557" xlink:href="#Inconsolata-110"/>
      <use x="1499.999542" xlink:href="#Inconsolata-103"/>
      <use x="1549.999527" xlink:href="#Inconsolata-32"/>
      <use x="1599.999512" xlink:href="#Inconsolata-109"/>
      <use x="1649.999496" xlink:href="#Inconsolata-101"/>
      <use x="1699.999481" xlink:href="#Inconsolata-97"/>
      <use x="1749.999466" xlink:href="#Inconsolata-110"/>
      <use x="1799.999451" xlink:href="#Inconsolata-41"/>
     </g>
    </g>
    <g id="patch_117">
     <path d="M 426 51.35 
L 446 51.35 
L 446 44.35 
L 426 44.35 
z
" style="fill:#348abd;opacity:0.2;"/>
    </g>
    <g id="text_21">
     <!-- Korea, South new cases -->
     <g transform="translate(454 51.35)scale(0.1 -0.1)">
      <use xlink:href="#Inconsolata-75"/>
      <use x="49.999985" xlink:href="#Inconsolata-111"/>
      <use x="99.999969" xlink:href="#Inconsolata-114"/>
      <use x="149.999954" xlink:href="#Inconsolata-101"/>
      <use x="199.999939" xlink:href="#Inconsolata-97"/>
      <use x="249.999924" xlink:href="#Inconsolata-44"/>
      <use x="299.999908" xlink:href="#Inconsolata-32"/>
      <use x="349.999893" xlink:href="#Inconsolata-83"/>
      <use x="399.999878" xlink:href="#Inconsolata-111"/>
      <use x="449.999863" xlink:href="#Inconsolata-117"/>
      <use x="499.999847" xlink:href="#Inconsolata-116"/>
      <use x="549.999832" xlink:href="#Inconsolata-104"/>
      <use x="599.999817" xlink:href="#Inconsolata-32"/>
      <use x="649.999802" xlink:href="#Inconsolata-110"/>
      <use x="699.999786" xlink:href="#Inconsolata-101"/>
      <use x="749.999771" xlink:href="#Inconsolata-119"/>
      <use x="799.999756" xlink:href="#Inconsolata-32"/>
      <use x="849.999741" xlink:href="#Inconsolata-99"/>
      <use x="899.999725" xlink:href="#Inconsolata-97"/>
      <use x="949.99971" xlink:href="#Inconsolata-115"/>
      <use x="999.999695" xlink:href="#Inconsolata-101"/>
      <use x="1049.99968" xlink:href="#Inconsolata-115"/>
     </g>
    </g>
   </g>
  </g>
 </g>
 <defs>
  <clipPath id="p660a47ce5e">
   <rect height="135.9" width="558" x="90" y="21.6"/>
  </clipPath>
 </defs>
</svg>
