<?xml version="1.0" encoding="utf-8" standalone="no"?>
<!DOCTYPE svg PUBLIC "-//W3C//DTD SVG 1.1//EN"
  "http://www.w3.org/Graphics/SVG/1.1/DTD/svg11.dtd">
<!-- Created with matplotlib (https://matplotlib.org/) -->
<svg height="432pt" version="1.1" viewBox="0 0 720 432" width="720pt" xmlns="http://www.w3.org/2000/svg" xmlns:xlink="http://www.w3.org/1999/xlink">
 <defs>
  <style type="text/css">
*{stroke-linecap:butt;stroke-linejoin:round;}
  </style>
 </defs>
 <g id="figure_1">
  <g id="patch_1">
   <path d="M 0 432 
L 720 432 
L 720 0 
L 0 0 
z
" style="fill:#ffffff;"/>
  </g>
  <g id="axes_1">
   <g id="patch_2">
    <path d="M 59.328094 391.46875 
L 687.709406 391.46875 
L 687.709406 221 
L 59.328094 221 
z
" style="fill:#e5e5e5;"/>
   </g>
   <g id="matplotlib.axis_1">
    <g id="xtick_1">
     <g id="line2d_1">
      <path clip-path="url(#pe2ec920be3)" d="M 66.191899 391.46875 
L 66.191899 221 
" style="fill:none;stroke:#ffffff;stroke-linecap:square;stroke-width:0.8;"/>
     </g>
     <g id="line2d_2">
      <defs>
       <path d="M 0 0 
L 0 3.5 
" id="m9222e04526" style="stroke:#555555;stroke-width:0.8;"/>
      </defs>
      <g>
       <use style="fill:#555555;stroke:#555555;stroke-width:0.8;" x="66.191899" xlink:href="#m9222e04526" y="391.46875"/>
      </g>
     </g>
     <g id="text_1">
      <!-- 0 -->
      <defs>
       <path d="M 25.09375 62.703125 
C 15.203125 62.703125 5 50.5 5 30.59375 
C 5 10.40625 15.296875 -1.203125 25.203125 -1.203125 
C 34.203125 -1.203125 44.90625 8.59375 44.90625 30.09375 
C 44.90625 51.296875 34.703125 62.703125 25.09375 62.703125 
z
M 34.796875 48.40625 
L 12.90625 20 
C 12 23.5 11.5 27.40625 11.5 31.796875 
C 11.5 47.796875 18.796875 56.59375 25 56.59375 
C 28.40625 56.59375 32.09375 53.90625 34.796875 48.40625 
z
M 37.09375 41.796875 
C 38 38.296875 38.40625 34.09375 38.40625 29.203125 
C 38.40625 11.796875 30.90625 5.203125 25.40625 5.203125 
C 21.703125 5.203125 17.90625 8.203125 15.203125 13.703125 
z
" id="Inconsolata-48"/>
      </defs>
      <g style="fill:#555555;" transform="translate(63.691899 405.109375)scale(0.1 -0.1)">
       <use xlink:href="#Inconsolata-48"/>
      </g>
     </g>
    </g>
    <g id="xtick_2">
     <g id="line2d_3">
      <path clip-path="url(#pe2ec920be3)" d="M 203.467991 391.46875 
L 203.467991 221 
" style="fill:none;stroke:#ffffff;stroke-linecap:square;stroke-width:0.8;"/>
     </g>
     <g id="line2d_4">
      <g>
       <use style="fill:#555555;stroke:#555555;stroke-width:0.8;" x="203.467991" xlink:href="#m9222e04526" y="391.46875"/>
      </g>
     </g>
     <g id="text_2">
      <!-- 20 -->
      <defs>
       <path d="M 7.703125 52.59375 
L 12.796875 48.5 
C 13.40625 49.40625 13.09375 50 13.703125 50.796875 
C 15.203125 53.09375 18.90625 56.5 24.296875 56.5 
C 31 56.5 36.296875 51.40625 36.296875 44.703125 
C 36.296875 37.09375 29.90625 31.59375 25.40625 27.5 
C 18.296875 21.09375 12.5 14.703125 7.296875 4.40625 
L 7.296875 0 
L 43.90625 0 
L 43.90625 6.90625 
C 43.203125 7.203125 42.703125 6.703125 42.5 6.5 
C 42.09375 6.09375 41.90625 6.09375 41.5 6.09375 
L 15.296875 6.09375 
C 20.5 15.09375 27.796875 21.296875 32.296875 25.5 
C 36.796875 29.796875 43.203125 36.203125 43.203125 45.203125 
C 43.203125 54.90625 35.296875 62.703125 25.203125 62.703125 
C 18.09375 62.703125 11.40625 58.90625 7.703125 52.59375 
z
" id="Inconsolata-50"/>
      </defs>
      <g style="fill:#555555;" transform="translate(198.467991 405.109375)scale(0.1 -0.1)">
       <use xlink:href="#Inconsolata-50"/>
       <use x="49.999985" xlink:href="#Inconsolata-48"/>
      </g>
     </g>
    </g>
    <g id="xtick_3">
     <g id="line2d_5">
      <path clip-path="url(#pe2ec920be3)" d="M 340.744083 391.46875 
L 340.744083 221 
" style="fill:none;stroke:#ffffff;stroke-linecap:square;stroke-width:0.8;"/>
     </g>
     <g id="line2d_6">
      <g>
       <use style="fill:#555555;stroke:#555555;stroke-width:0.8;" x="340.744083" xlink:href="#m9222e04526" y="391.46875"/>
      </g>
     </g>
     <g id="text_3">
      <!-- 40 -->
      <defs>
       <path d="M 31.296875 62.296875 
L 4.796875 22.40625 
L 4.796875 17.203125 
L 29.90625 17.203125 
L 29.90625 0 
L 37.09375 0 
L 37.09375 17.09375 
L 45.203125 17.09375 
L 45.203125 23.296875 
L 37.09375 23.296875 
L 37.09375 62.296875 
z
M 30 51.203125 
L 30 23.296875 
L 11.703125 23.296875 
z
" id="Inconsolata-52"/>
      </defs>
      <g style="fill:#555555;" transform="translate(335.744083 405.109375)scale(0.1 -0.1)">
       <use xlink:href="#Inconsolata-52"/>
       <use x="49.999985" xlink:href="#Inconsolata-48"/>
      </g>
     </g>
    </g>
    <g id="xtick_4">
     <g id="line2d_7">
      <path clip-path="url(#pe2ec920be3)" d="M 478.020175 391.46875 
L 478.020175 221 
" style="fill:none;stroke:#ffffff;stroke-linecap:square;stroke-width:0.8;"/>
     </g>
     <g id="line2d_8">
      <g>
       <use style="fill:#555555;stroke:#555555;stroke-width:0.8;" x="478.020175" xlink:href="#m9222e04526" y="391.46875"/>
      </g>
     </g>
     <g id="text_4">
      <!-- 60 -->
      <defs>
       <path d="M 28.703125 63 
C 21.203125 63 13.203125 58.40625 9.296875 47.5 
C 7.203125 41.59375 6.703125 34.296875 6.703125 28.296875 
C 6.703125 21 7.40625 13.203125 11.40625 7.203125 
C 15 1.703125 20.59375 -1.09375 26.09375 -1.09375 
C 35.59375 -1.09375 43.90625 6.90625 43.90625 19.796875 
C 43.90625 32.703125 35.59375 40.203125 26.796875 40.203125 
C 21.40625 40.203125 16.296875 37.296875 13.59375 32.703125 
C 14 54 24.203125 56.796875 28.703125 56.796875 
C 32.796875 56.796875 35.59375 54.59375 36 54.203125 
C 36.59375 53.5 36.59375 52.59375 37.5 51.90625 
L 42.296875 57.296875 
C 38.703125 60.90625 33.703125 63 28.703125 63 
z
M 26.09375 34 
C 31.09375 34 37.09375 30.09375 37.09375 19.40625 
C 37.09375 9.703125 31.703125 5.09375 26.40625 5.09375 
C 18.796875 5.09375 13.09375 14 13.90625 25.703125 
C 16.703125 30.796875 21.5 34 26.09375 34 
z
" id="Inconsolata-54"/>
      </defs>
      <g style="fill:#555555;" transform="translate(473.020175 405.109375)scale(0.1 -0.1)">
       <use xlink:href="#Inconsolata-54"/>
       <use x="49.999985" xlink:href="#Inconsolata-48"/>
      </g>
     </g>
    </g>
    <g id="xtick_5">
     <g id="line2d_9">
      <path clip-path="url(#pe2ec920be3)" d="M 615.296267 391.46875 
L 615.296267 221 
" style="fill:none;stroke:#ffffff;stroke-linecap:square;stroke-width:0.8;"/>
     </g>
     <g id="line2d_10">
      <g>
       <use style="fill:#555555;stroke:#555555;stroke-width:0.8;" x="615.296267" xlink:href="#m9222e04526" y="391.46875"/>
      </g>
     </g>
     <g id="text_5">
      <!-- 80 -->
      <defs>
       <path d="M 25.796875 63 
C 16.203125 63 8.90625 56.09375 8.90625 47.703125 
C 8.90625 41.59375 12.796875 36 18.40625 33.09375 
C 11 29.59375 6 22.796875 6 15.59375 
C 6 6.296875 14.203125 -1.09375 24.90625 -1.09375 
C 35.796875 -1.09375 44.09375 6.5 44.09375 16 
C 44.09375 23.40625 39.09375 30 32.09375 33.296875 
C 38.09375 36.40625 42 42.296875 42 48.296875 
C 42 56.5 34.90625 63 25.796875 63 
z
M 23.703125 30.203125 
C 31.703125 27.703125 37 22.203125 37 16.09375 
C 37 10.09375 31.90625 5.203125 25.203125 5.203125 
C 18.40625 5.203125 13.203125 10.296875 13.203125 16.5 
C 13.203125 22.40625 17.796875 27.796875 23.703125 30.203125 
z
M 25.203125 57.203125 
C 30.796875 57.203125 35.203125 53 35.203125 47.796875 
C 35.203125 43 31.5 38.40625 26.59375 35.796875 
C 26.59375 35.796875 15.59375 40 15.59375 48.296875 
C 15.59375 53.203125 19.796875 57.203125 25.203125 57.203125 
z
" id="Inconsolata-56"/>
      </defs>
      <g style="fill:#555555;" transform="translate(610.296267 405.109375)scale(0.1 -0.1)">
       <use xlink:href="#Inconsolata-56"/>
       <use x="49.999985" xlink:href="#Inconsolata-48"/>
      </g>
     </g>
    </g>
    <g id="text_6">
     <!-- days since 3 deaths -->
     <defs>
      <path d="M 37.09375 39 
C 34.90625 43.703125 30 46.796875 23.703125 46.796875 
C 15 46.796875 4.40625 40.59375 4.40625 23.203125 
C 4.40625 6.296875 13.796875 -1.09375 22.59375 -1.09375 
C 28.40625 -1.09375 33.796875 2.203125 36.703125 7.296875 
L 36.703125 3.296875 
C 36.703125 2.203125 36.796875 1.09375 37.09375 0 
L 44.296875 0 
C 43.90625 1.296875 43.90625 2.796875 43.90625 4.203125 
L 43.796875 63.59375 
C 43.796875 64.203125 43.796875 64.40625 44.203125 65 
C 44.40625 65.296875 44.796875 65.796875 44.703125 66.5 
L 37.09375 66.5 
z
M 24 40.90625 
C 28 40.90625 33.90625 38.796875 35.703125 32 
C 36.296875 29.90625 36.5 27.40625 36.5 22.296875 
C 36.5 18.796875 36.296875 16.296875 35.5 13.90625 
C 33.796875 8.5 29 5.296875 24.296875 5.296875 
C 19.09375 5.296875 11.40625 9.296875 11.40625 24.296875 
C 11.40625 37.40625 18.703125 40.90625 24 40.90625 
z
" id="Inconsolata-100"/>
      <path d="M 9 40.296875 
L 12.5 35.703125 
C 16.296875 39.59375 21.40625 40.796875 25.703125 40.796875 
C 31.09375 40.796875 33.796875 38.5 35.09375 36.40625 
C 36.59375 33.90625 36.5 30.90625 36.5 28.5 
L 36.5 26.90625 
L 35.09375 26.90625 
C 28.296875 26.90625 21.09375 26.90625 15.296875 24.796875 
C 8.09375 22.203125 4.90625 16.796875 4.90625 11.796875 
C 4.90625 5.09375 10.703125 -1.203125 20.203125 -1.203125 
C 25.796875 -1.203125 31.59375 0.90625 36.59375 5 
L 36.59375 0 
L 43.40625 0 
L 43.40625 28.296875 
C 43.40625 32 43.296875 35.5 41.203125 39.09375 
C 38.203125 44 32.40625 46.59375 25.296875 46.59375 
C 19.203125 46.59375 13.296875 44.703125 9 40.296875 
z
M 36.796875 21.40625 
L 36.796875 18.296875 
C 36.796875 16 36.796875 13 33.703125 9.703125 
C 32 8 27.703125 4.296875 21.703125 4.296875 
C 15.59375 4.296875 12.09375 8.203125 12.09375 12.203125 
C 12.09375 15.59375 14.40625 19.296875 20.09375 20.703125 
C 24.296875 21.703125 30.40625 21.40625 35.203125 21.40625 
z
" id="Inconsolata-97"/>
      <path d="M 4.5 45.59375 
L 23.09375 0.09375 
L 21.59375 -3.203125 
C 20.796875 -5.09375 19.90625 -7 18.5 -8.5 
C 16.59375 -10.59375 14.203125 -11.5 12.09375 -11.5 
C 8.703125 -11.5 7 -9.203125 6.703125 -8.796875 
C 6.40625 -8.296875 6.5 -7.59375 5.90625 -7.09375 
L 2.203125 -13.59375 
C 4.796875 -16.09375 8.296875 -17.40625 12.09375 -17.40625 
C 16.203125 -17.40625 20.5 -15.90625 23.5 -12.5 
C 25.5 -10.203125 26.5 -7.796875 27.5 -5.203125 
L 41.703125 32.5 
C 43.40625 36.796875 44.90625 41.203125 46.296875 45.703125 
L 38.796875 45.703125 
C 38 41.5 36.703125 37.5 35.296875 33.5 
L 26.59375 9 
L 13.203125 42.703125 
C 13.09375 43 13.09375 43.203125 13.09375 43.5 
C 13.09375 44.203125 13.59375 44.703125 13.5 45.59375 
z
" id="Inconsolata-121"/>
      <path d="M 43.203125 39.59375 
C 39 44.203125 32.90625 46.703125 26.09375 46.703125 
C 15.5 46.703125 8.59375 40.796875 8.59375 34 
C 8.59375 26 17.203125 23.09375 19.703125 22.203125 
C 23.59375 20.796875 28.59375 19.59375 32 18 
C 35.796875 16.203125 36.5 13.796875 36.5 12.203125 
C 36.5 7.90625 31.296875 5 24.796875 5 
C 17 5 12 9.703125 10.5 11.296875 
C 10.203125 11.703125 10.203125 12 10.203125 12.40625 
C 10.203125 12.5 10.296875 13.09375 9.796875 13.296875 
L 5.59375 6.203125 
C 11 1.203125 18 -1.09375 24.90625 -1.09375 
C 37.40625 -1.09375 43.90625 6.296875 43.90625 13.203125 
C 43.90625 16.296875 42.59375 20.5 37.203125 23.5 
C 32.09375 26.40625 24.703125 27.40625 20.40625 29.5 
C 16.703125 31.296875 15.90625 33.5 15.90625 35.09375 
C 15.90625 38.703125 20.40625 41.296875 25.5 41.296875 
C 32.09375 41.296875 36.5 37.296875 38.203125 35 
C 38.5 34.703125 38.40625 34.40625 38.40625 34.09375 
C 38.40625 33.5 38.796875 33.296875 39 33.296875 
z
" id="Inconsolata-115"/>
      <path id="Inconsolata-32"/>
      <path d="M 10.59375 45.703125 
L 10.59375 39.796875 
L 21.59375 39.796875 
L 21.59375 5.703125 
L 10 5.703125 
L 10 0 
L 39.59375 0 
L 39.59375 5.703125 
L 28.90625 5.703125 
L 28.90625 45.703125 
z
M 25.40625 65.5 
C 22.5 65.5 20.203125 63.203125 20.203125 60.40625 
C 20.203125 57.59375 22.5 55.296875 25.40625 55.296875 
C 28.296875 55.296875 30.59375 57.59375 30.59375 60.40625 
C 30.59375 63.203125 28.296875 65.5 25.40625 65.5 
z
" id="Inconsolata-105"/>
      <path d="M 6.796875 0 
L 14.09375 0 
L 14.09375 26.296875 
C 14.09375 29.296875 14.5 31.59375 16.40625 34.09375 
C 18.09375 36.40625 22.5 40.5 27.296875 40.5 
C 29.59375 40.5 31.90625 39.5 33.5 37.59375 
C 36 34.59375 36 30.703125 36 27.5 
L 36 0 
L 43.09375 0 
L 43.09375 27.703125 
C 43.09375 31.203125 43.09375 35 41.5 38.703125 
C 39.203125 43.796875 34.5 46.703125 29.296875 46.703125 
C 23.09375 46.703125 17.5 42.703125 14.09375 37.59375 
L 14.09375 45.59375 
L 6.796875 45.59375 
z
" id="Inconsolata-110"/>
      <path d="M 45.59375 38.09375 
C 42 43.40625 35.90625 46.59375 28.5 46.59375 
C 15.09375 46.59375 5.59375 36.5 5.59375 22.796875 
C 5.59375 9 15.09375 -1.203125 28.09375 -1.203125 
C 34.40625 -1.203125 40.59375 1.40625 44.90625 6.09375 
L 40.796875 10.90625 
C 37.703125 7.40625 33.203125 5.40625 28.703125 5.40625 
C 19.796875 5.40625 13 12.796875 13 23.5 
C 13 33.90625 19.703125 40.40625 28.09375 40.40625 
C 35.90625 40.40625 39.59375 35 39.90625 34.40625 
C 40.296875 33.703125 39.703125 32.703125 40.5 32.09375 
z
" id="Inconsolata-99"/>
      <path d="M 25.796875 46.703125 
C 14.90625 46.703125 4.796875 38.90625 4.796875 22.296875 
C 4.796875 7 14.296875 -1.09375 26.703125 -1.09375 
C 33.296875 -1.09375 39.203125 1.296875 43.09375 6 
L 39.09375 9.90625 
C 36.203125 6.5 31.796875 4.703125 27.296875 4.703125 
C 21.203125 4.703125 12.296875 8.09375 11.796875 21.796875 
L 44.203125 21.796875 
C 44.5 24.90625 44.40625 27.90625 43.90625 30.5 
C 41.796875 42.796875 33.296875 46.703125 25.796875 46.703125 
z
M 12 27.296875 
C 13.5 38.09375 20.40625 41.203125 25.296875 41.203125 
C 32.703125 41.203125 38 34.703125 37.09375 27.296875 
z
" id="Inconsolata-101"/>
      <path d="M 41 46.703125 
C 41 55.203125 33.796875 62.5 23.90625 62.5 
C 18.296875 62.5 12.796875 60.09375 8.90625 55.796875 
L 12.796875 51.5 
C 15.703125 54.59375 19.703125 56.296875 23.59375 56.296875 
C 30 56.296875 34.40625 51.796875 34.40625 46.5 
C 34.40625 42.796875 32.09375 38.59375 27.703125 36.703125 
C 26.59375 36.296875 23.796875 35.203125 17.90625 35.203125 
L 17.90625 29.59375 
C 18.90625 29.703125 20 29.796875 21.09375 29.796875 
C 29.5 29.796875 35.703125 25.40625 35.703125 17.90625 
C 35.703125 11.09375 30.5 5.203125 23.203125 5.203125 
C 17.40625 5.203125 13.90625 9 13.40625 9.5 
C 12.59375 10.40625 13 11.40625 12.09375 12.296875 
L 6.90625 6 
C 11 1.296875 17 -1.09375 23.203125 -1.09375 
C 35.203125 -1.09375 42.40625 7.40625 42.40625 17.09375 
C 42.40625 24.5 38.203125 30.796875 31.703125 33.203125 
C 37.296875 35.296875 41 40.59375 41 46.703125 
z
" id="Inconsolata-51"/>
      <path d="M 18.796875 57.90625 
L 17.90625 45.59375 
L 7 45.59375 
L 6.90625 39.703125 
L 17.59375 39.703125 
C 17 31.90625 16.703125 24.09375 16.703125 16.40625 
C 16.703125 12.296875 16.703125 7.703125 19.40625 3.90625 
C 21.59375 0.90625 25.09375 -0.90625 29.796875 -0.90625 
C 35.203125 -0.90625 40.5 1.40625 44.40625 4.203125 
L 42.203125 9.90625 
C 38.296875 7 34.703125 5.703125 31.90625 5.703125 
C 28.5 5.703125 25 7.59375 24.203125 13.09375 
C 24.203125 13.5 23.90625 15.203125 23.90625 21.90625 
C 23.90625 27.796875 24.203125 33.796875 24.796875 39.703125 
L 39.796875 39.703125 
L 39.796875 45.703125 
L 24.90625 45.703125 
C 24.90625 45.703125 25.59375 53.90625 26.09375 56.5 
C 26.203125 57.5 27 58.09375 26.59375 59.203125 
z
" id="Inconsolata-116"/>
      <path d="M 6.90625 0 
L 14.296875 0 
L 14.296875 26.296875 
C 14.296875 29.296875 14.59375 31.59375 16.5 34.09375 
C 18.296875 36.40625 22.703125 40.5 27.5 40.5 
C 29.796875 40.5 32.09375 39.5 33.703125 37.59375 
C 36.203125 34.59375 36.203125 30.703125 36.203125 27.5 
L 36.203125 0 
L 43.296875 0 
L 43.296875 27.703125 
C 43.296875 31.203125 43.203125 35 41.59375 38.703125 
C 39.296875 43.796875 34.703125 46.703125 29.5 46.703125 
C 23.296875 46.703125 17.59375 42.703125 14.296875 37.59375 
L 14.296875 64.09375 
C 14.296875 64.40625 14.296875 64.703125 14.59375 65 
C 14.90625 65.296875 15.296875 65.59375 15.296875 66.09375 
C 15.296875 66.203125 15.296875 66.296875 15.203125 66.40625 
L 6.90625 66.40625 
z
" id="Inconsolata-104"/>
     </defs>
     <g style="fill:#555555;" transform="translate(316.51875 418.759687)scale(0.12 -0.12)">
      <use xlink:href="#Inconsolata-100"/>
      <use x="49.999985" xlink:href="#Inconsolata-97"/>
      <use x="99.999969" xlink:href="#Inconsolata-121"/>
      <use x="149.999954" xlink:href="#Inconsolata-115"/>
      <use x="199.999939" xlink:href="#Inconsolata-32"/>
      <use x="249.999924" xlink:href="#Inconsolata-115"/>
      <use x="299.999908" xlink:href="#Inconsolata-105"/>
      <use x="349.999893" xlink:href="#Inconsolata-110"/>
      <use x="399.999878" xlink:href="#Inconsolata-99"/>
      <use x="449.999863" xlink:href="#Inconsolata-101"/>
      <use x="499.999847" xlink:href="#Inconsolata-32"/>
      <use x="549.999832" xlink:href="#Inconsolata-51"/>
      <use x="599.999817" xlink:href="#Inconsolata-32"/>
      <use x="649.999802" xlink:href="#Inconsolata-100"/>
      <use x="699.999786" xlink:href="#Inconsolata-101"/>
      <use x="749.999771" xlink:href="#Inconsolata-97"/>
      <use x="799.999756" xlink:href="#Inconsolata-116"/>
      <use x="849.999741" xlink:href="#Inconsolata-104"/>
      <use x="899.999725" xlink:href="#Inconsolata-115"/>
     </g>
    </g>
   </g>
   <g id="matplotlib.axis_2">
    <g id="ytick_1">
     <g id="line2d_11">
      <path clip-path="url(#pe2ec920be3)" d="M 59.328094 363.275491 
L 687.709406 363.275491 
" style="fill:none;stroke:#ffffff;stroke-linecap:square;stroke-width:0.8;"/>
     </g>
     <g id="line2d_12">
      <defs>
       <path d="M 0 0 
L -3.5 0 
" id="m92a57c53e6" style="stroke:#555555;stroke-width:0.8;"/>
      </defs>
      <g>
       <use style="fill:#555555;stroke:#555555;stroke-width:0.8;" x="59.328094" xlink:href="#m92a57c53e6" y="363.275491"/>
      </g>
     </g>
     <g id="line2d_13">
      <defs>
       <path d="M 0 0 
L 3.5 0 
" id="mb2ec9cb396" style="stroke:#555555;stroke-width:0.8;"/>
      </defs>
      <g>
       <use style="fill:#555555;stroke:#555555;stroke-width:0.8;" x="687.709406" xlink:href="#mb2ec9cb396" y="363.275491"/>
      </g>
     </g>
     <g id="text_7">
      <!-- $\mathdefault{10^{1}}$ -->
      <defs>
       <path d="M 29.90625 62.296875 
L 25.09375 62.296875 
L 8.796875 53.796875 
L 10.40625 49.90625 
L 22.90625 53.59375 
L 22.90625 -0.09375 
L 29.90625 -0.09375 
z
" id="Inconsolata-49"/>
      </defs>
      <g style="fill:#555555;" transform="translate(38.428094 366.595804)scale(0.1 -0.1)">
       <use transform="translate(0 0.4)" xlink:href="#Inconsolata-49"/>
       <use transform="translate(49.999985 0.4)" xlink:href="#Inconsolata-48"/>
       <use transform="translate(100.799774 32.392188)scale(0.7)" xlink:href="#Inconsolata-49"/>
      </g>
     </g>
     <g id="text_8">
      <!-- $\mathdefault{10^{1}}$ -->
      <g style="fill:#555555;" transform="translate(694.709406 366.595804)scale(0.1 -0.1)">
       <use transform="translate(0 0.4)" xlink:href="#Inconsolata-49"/>
       <use transform="translate(49.999985 0.4)" xlink:href="#Inconsolata-48"/>
       <use transform="translate(100.799774 32.392188)scale(0.7)" xlink:href="#Inconsolata-49"/>
      </g>
     </g>
    </g>
    <g id="ytick_2">
     <g id="line2d_14">
      <path clip-path="url(#pe2ec920be3)" d="M 59.328094 309.356186 
L 687.709406 309.356186 
" style="fill:none;stroke:#ffffff;stroke-linecap:square;stroke-width:0.8;"/>
     </g>
     <g id="line2d_15">
      <g>
       <use style="fill:#555555;stroke:#555555;stroke-width:0.8;" x="59.328094" xlink:href="#m92a57c53e6" y="309.356186"/>
      </g>
     </g>
     <g id="line2d_16">
      <g>
       <use style="fill:#555555;stroke:#555555;stroke-width:0.8;" x="687.709406" xlink:href="#mb2ec9cb396" y="309.356186"/>
      </g>
     </g>
     <g id="text_9">
      <!-- $\mathdefault{10^{2}}$ -->
      <g style="fill:#555555;" transform="translate(38.428094 312.676498)scale(0.1 -0.1)">
       <use transform="translate(0 0.115625)" xlink:href="#Inconsolata-49"/>
       <use transform="translate(49.999985 0.115625)" xlink:href="#Inconsolata-48"/>
       <use transform="translate(100.799774 32.107813)scale(0.7)" xlink:href="#Inconsolata-50"/>
      </g>
     </g>
     <g id="text_10">
      <!-- $\mathdefault{10^{2}}$ -->
      <g style="fill:#555555;" transform="translate(694.709406 312.676498)scale(0.1 -0.1)">
       <use transform="translate(0 0.115625)" xlink:href="#Inconsolata-49"/>
       <use transform="translate(49.999985 0.115625)" xlink:href="#Inconsolata-48"/>
       <use transform="translate(100.799774 32.107813)scale(0.7)" xlink:href="#Inconsolata-50"/>
      </g>
     </g>
    </g>
    <g id="ytick_3">
     <g id="line2d_17">
      <path clip-path="url(#pe2ec920be3)" d="M 59.328094 255.436881 
L 687.709406 255.436881 
" style="fill:none;stroke:#ffffff;stroke-linecap:square;stroke-width:0.8;"/>
     </g>
     <g id="line2d_18">
      <g>
       <use style="fill:#555555;stroke:#555555;stroke-width:0.8;" x="59.328094" xlink:href="#m92a57c53e6" y="255.436881"/>
      </g>
     </g>
     <g id="line2d_19">
      <g>
       <use style="fill:#555555;stroke:#555555;stroke-width:0.8;" x="687.709406" xlink:href="#mb2ec9cb396" y="255.436881"/>
      </g>
     </g>
     <g id="text_11">
      <!-- $\mathdefault{10^{3}}$ -->
      <g style="fill:#555555;" transform="translate(38.428094 258.757193)scale(0.1 -0.1)">
       <use transform="translate(0 0.257812)" xlink:href="#Inconsolata-49"/>
       <use transform="translate(49.999985 0.257812)" xlink:href="#Inconsolata-48"/>
       <use transform="translate(100.799774 32.25)scale(0.7)" xlink:href="#Inconsolata-51"/>
      </g>
     </g>
     <g id="text_12">
      <!-- $\mathdefault{10^{3}}$ -->
      <g style="fill:#555555;" transform="translate(694.709406 258.757193)scale(0.1 -0.1)">
       <use transform="translate(0 0.257812)" xlink:href="#Inconsolata-49"/>
       <use transform="translate(49.999985 0.257812)" xlink:href="#Inconsolata-48"/>
       <use transform="translate(100.799774 32.25)scale(0.7)" xlink:href="#Inconsolata-51"/>
      </g>
     </g>
    </g>
    <g id="ytick_4">
     <g id="line2d_20">
      <defs>
       <path d="M 0 0 
L -2 0 
" id="m5953154455" style="stroke:#555555;stroke-width:0.6;"/>
      </defs>
      <g>
       <use style="fill:#555555;stroke:#555555;stroke-width:0.6;" x="59.328094" xlink:href="#m5953154455" y="391.46875"/>
      </g>
     </g>
     <g id="line2d_21">
      <defs>
       <path d="M 0 0 
L 2 0 
" id="m4d45575bae" style="stroke:#555555;stroke-width:0.6;"/>
      </defs>
      <g>
       <use style="fill:#555555;stroke:#555555;stroke-width:0.6;" x="687.709406" xlink:href="#m4d45575bae" y="391.46875"/>
      </g>
     </g>
    </g>
    <g id="ytick_5">
     <g id="line2d_22">
      <g>
       <use style="fill:#555555;stroke:#555555;stroke-width:0.6;" x="59.328094" xlink:href="#m5953154455" y="384.73214"/>
      </g>
     </g>
     <g id="line2d_23">
      <g>
       <use style="fill:#555555;stroke:#555555;stroke-width:0.6;" x="687.709406" xlink:href="#m4d45575bae" y="384.73214"/>
      </g>
     </g>
    </g>
    <g id="ytick_6">
     <g id="line2d_24">
      <g>
       <use style="fill:#555555;stroke:#555555;stroke-width:0.6;" x="59.328094" xlink:href="#m5953154455" y="379.50682"/>
      </g>
     </g>
     <g id="line2d_25">
      <g>
       <use style="fill:#555555;stroke:#555555;stroke-width:0.6;" x="687.709406" xlink:href="#m4d45575bae" y="379.50682"/>
      </g>
     </g>
    </g>
    <g id="ytick_7">
     <g id="line2d_26">
      <g>
       <use style="fill:#555555;stroke:#555555;stroke-width:0.6;" x="59.328094" xlink:href="#m5953154455" y="375.237422"/>
      </g>
     </g>
     <g id="line2d_27">
      <g>
       <use style="fill:#555555;stroke:#555555;stroke-width:0.6;" x="687.709406" xlink:href="#m4d45575bae" y="375.237422"/>
      </g>
     </g>
    </g>
    <g id="ytick_8">
     <g id="line2d_28">
      <g>
       <use style="fill:#555555;stroke:#555555;stroke-width:0.6;" x="59.328094" xlink:href="#m5953154455" y="371.627697"/>
      </g>
     </g>
     <g id="line2d_29">
      <g>
       <use style="fill:#555555;stroke:#555555;stroke-width:0.6;" x="687.709406" xlink:href="#m4d45575bae" y="371.627697"/>
      </g>
     </g>
    </g>
    <g id="ytick_9">
     <g id="line2d_30">
      <g>
       <use style="fill:#555555;stroke:#555555;stroke-width:0.6;" x="59.328094" xlink:href="#m5953154455" y="368.500812"/>
      </g>
     </g>
     <g id="line2d_31">
      <g>
       <use style="fill:#555555;stroke:#555555;stroke-width:0.6;" x="687.709406" xlink:href="#m4d45575bae" y="368.500812"/>
      </g>
     </g>
    </g>
    <g id="ytick_10">
     <g id="line2d_32">
      <g>
       <use style="fill:#555555;stroke:#555555;stroke-width:0.6;" x="59.328094" xlink:href="#m5953154455" y="365.742703"/>
      </g>
     </g>
     <g id="line2d_33">
      <g>
       <use style="fill:#555555;stroke:#555555;stroke-width:0.6;" x="687.709406" xlink:href="#m4d45575bae" y="365.742703"/>
      </g>
     </g>
    </g>
    <g id="ytick_11">
     <g id="line2d_34">
      <g>
       <use style="fill:#555555;stroke:#555555;stroke-width:0.6;" x="59.328094" xlink:href="#m5953154455" y="347.044163"/>
      </g>
     </g>
     <g id="line2d_35">
      <g>
       <use style="fill:#555555;stroke:#555555;stroke-width:0.6;" x="687.709406" xlink:href="#m4d45575bae" y="347.044163"/>
      </g>
     </g>
    </g>
    <g id="ytick_12">
     <g id="line2d_36">
      <g>
       <use style="fill:#555555;stroke:#555555;stroke-width:0.6;" x="59.328094" xlink:href="#m5953154455" y="337.549445"/>
      </g>
     </g>
     <g id="line2d_37">
      <g>
       <use style="fill:#555555;stroke:#555555;stroke-width:0.6;" x="687.709406" xlink:href="#m4d45575bae" y="337.549445"/>
      </g>
     </g>
    </g>
    <g id="ytick_13">
     <g id="line2d_38">
      <g>
       <use style="fill:#555555;stroke:#555555;stroke-width:0.6;" x="59.328094" xlink:href="#m5953154455" y="330.812835"/>
      </g>
     </g>
     <g id="line2d_39">
      <g>
       <use style="fill:#555555;stroke:#555555;stroke-width:0.6;" x="687.709406" xlink:href="#m4d45575bae" y="330.812835"/>
      </g>
     </g>
    </g>
    <g id="ytick_14">
     <g id="line2d_40">
      <g>
       <use style="fill:#555555;stroke:#555555;stroke-width:0.6;" x="59.328094" xlink:href="#m5953154455" y="325.587514"/>
      </g>
     </g>
     <g id="line2d_41">
      <g>
       <use style="fill:#555555;stroke:#555555;stroke-width:0.6;" x="687.709406" xlink:href="#m4d45575bae" y="325.587514"/>
      </g>
     </g>
    </g>
    <g id="ytick_15">
     <g id="line2d_42">
      <g>
       <use style="fill:#555555;stroke:#555555;stroke-width:0.6;" x="59.328094" xlink:href="#m5953154455" y="321.318116"/>
      </g>
     </g>
     <g id="line2d_43">
      <g>
       <use style="fill:#555555;stroke:#555555;stroke-width:0.6;" x="687.709406" xlink:href="#m4d45575bae" y="321.318116"/>
      </g>
     </g>
    </g>
    <g id="ytick_16">
     <g id="line2d_44">
      <g>
       <use style="fill:#555555;stroke:#555555;stroke-width:0.6;" x="59.328094" xlink:href="#m5953154455" y="317.708392"/>
      </g>
     </g>
     <g id="line2d_45">
      <g>
       <use style="fill:#555555;stroke:#555555;stroke-width:0.6;" x="687.709406" xlink:href="#m4d45575bae" y="317.708392"/>
      </g>
     </g>
    </g>
    <g id="ytick_17">
     <g id="line2d_46">
      <g>
       <use style="fill:#555555;stroke:#555555;stroke-width:0.6;" x="59.328094" xlink:href="#m5953154455" y="314.581506"/>
      </g>
     </g>
     <g id="line2d_47">
      <g>
       <use style="fill:#555555;stroke:#555555;stroke-width:0.6;" x="687.709406" xlink:href="#m4d45575bae" y="314.581506"/>
      </g>
     </g>
    </g>
    <g id="ytick_18">
     <g id="line2d_48">
      <g>
       <use style="fill:#555555;stroke:#555555;stroke-width:0.6;" x="59.328094" xlink:href="#m5953154455" y="311.823398"/>
      </g>
     </g>
     <g id="line2d_49">
      <g>
       <use style="fill:#555555;stroke:#555555;stroke-width:0.6;" x="687.709406" xlink:href="#m4d45575bae" y="311.823398"/>
      </g>
     </g>
    </g>
    <g id="ytick_19">
     <g id="line2d_50">
      <g>
       <use style="fill:#555555;stroke:#555555;stroke-width:0.6;" x="59.328094" xlink:href="#m5953154455" y="293.124858"/>
      </g>
     </g>
     <g id="line2d_51">
      <g>
       <use style="fill:#555555;stroke:#555555;stroke-width:0.6;" x="687.709406" xlink:href="#m4d45575bae" y="293.124858"/>
      </g>
     </g>
    </g>
    <g id="ytick_20">
     <g id="line2d_52">
      <g>
       <use style="fill:#555555;stroke:#555555;stroke-width:0.6;" x="59.328094" xlink:href="#m5953154455" y="283.630139"/>
      </g>
     </g>
     <g id="line2d_53">
      <g>
       <use style="fill:#555555;stroke:#555555;stroke-width:0.6;" x="687.709406" xlink:href="#m4d45575bae" y="283.630139"/>
      </g>
     </g>
    </g>
    <g id="ytick_21">
     <g id="line2d_54">
      <g>
       <use style="fill:#555555;stroke:#555555;stroke-width:0.6;" x="59.328094" xlink:href="#m5953154455" y="276.893529"/>
      </g>
     </g>
     <g id="line2d_55">
      <g>
       <use style="fill:#555555;stroke:#555555;stroke-width:0.6;" x="687.709406" xlink:href="#m4d45575bae" y="276.893529"/>
      </g>
     </g>
    </g>
    <g id="ytick_22">
     <g id="line2d_56">
      <g>
       <use style="fill:#555555;stroke:#555555;stroke-width:0.6;" x="59.328094" xlink:href="#m5953154455" y="271.668209"/>
      </g>
     </g>
     <g id="line2d_57">
      <g>
       <use style="fill:#555555;stroke:#555555;stroke-width:0.6;" x="687.709406" xlink:href="#m4d45575bae" y="271.668209"/>
      </g>
     </g>
    </g>
    <g id="ytick_23">
     <g id="line2d_58">
      <g>
       <use style="fill:#555555;stroke:#555555;stroke-width:0.6;" x="59.328094" xlink:href="#m5953154455" y="267.398811"/>
      </g>
     </g>
     <g id="line2d_59">
      <g>
       <use style="fill:#555555;stroke:#555555;stroke-width:0.6;" x="687.709406" xlink:href="#m4d45575bae" y="267.398811"/>
      </g>
     </g>
    </g>
    <g id="ytick_24">
     <g id="line2d_60">
      <g>
       <use style="fill:#555555;stroke:#555555;stroke-width:0.6;" x="59.328094" xlink:href="#m5953154455" y="263.789087"/>
      </g>
     </g>
     <g id="line2d_61">
      <g>
       <use style="fill:#555555;stroke:#555555;stroke-width:0.6;" x="687.709406" xlink:href="#m4d45575bae" y="263.789087"/>
      </g>
     </g>
    </g>
    <g id="ytick_25">
     <g id="line2d_62">
      <g>
       <use style="fill:#555555;stroke:#555555;stroke-width:0.6;" x="59.328094" xlink:href="#m5953154455" y="260.662201"/>
      </g>
     </g>
     <g id="line2d_63">
      <g>
       <use style="fill:#555555;stroke:#555555;stroke-width:0.6;" x="687.709406" xlink:href="#m4d45575bae" y="260.662201"/>
      </g>
     </g>
    </g>
    <g id="ytick_26">
     <g id="line2d_64">
      <g>
       <use style="fill:#555555;stroke:#555555;stroke-width:0.6;" x="59.328094" xlink:href="#m5953154455" y="257.904093"/>
      </g>
     </g>
     <g id="line2d_65">
      <g>
       <use style="fill:#555555;stroke:#555555;stroke-width:0.6;" x="687.709406" xlink:href="#m4d45575bae" y="257.904093"/>
      </g>
     </g>
    </g>
    <g id="ytick_27">
     <g id="line2d_66">
      <g>
       <use style="fill:#555555;stroke:#555555;stroke-width:0.6;" x="59.328094" xlink:href="#m5953154455" y="239.205552"/>
      </g>
     </g>
     <g id="line2d_67">
      <g>
       <use style="fill:#555555;stroke:#555555;stroke-width:0.6;" x="687.709406" xlink:href="#m4d45575bae" y="239.205552"/>
      </g>
     </g>
    </g>
    <g id="ytick_28">
     <g id="line2d_68">
      <g>
       <use style="fill:#555555;stroke:#555555;stroke-width:0.6;" x="59.328094" xlink:href="#m5953154455" y="229.710834"/>
      </g>
     </g>
     <g id="line2d_69">
      <g>
       <use style="fill:#555555;stroke:#555555;stroke-width:0.6;" x="687.709406" xlink:href="#m4d45575bae" y="229.710834"/>
      </g>
     </g>
    </g>
    <g id="ytick_29">
     <g id="line2d_70">
      <g>
       <use style="fill:#555555;stroke:#555555;stroke-width:0.6;" x="59.328094" xlink:href="#m5953154455" y="222.974224"/>
      </g>
     </g>
     <g id="line2d_71">
      <g>
       <use style="fill:#555555;stroke:#555555;stroke-width:0.6;" x="687.709406" xlink:href="#m4d45575bae" y="222.974224"/>
      </g>
     </g>
    </g>
    <g id="text_13">
     <!-- daily new deaths -->
     <defs>
      <path d="M 8.40625 66.40625 
L 8.40625 60.59375 
L 21.40625 60.59375 
L 21.40625 5.703125 
L 7.796875 5.703125 
L 7.796875 0 
L 42.09375 0 
L 42.09375 5.703125 
L 28.59375 5.703125 
L 28.59375 66.40625 
z
" id="Inconsolata-108"/>
      <path d="M 1.5 45.703125 
L 10.703125 -0.09375 
L 17.203125 -0.09375 
L 25.203125 29.5 
L 33.703125 -0.09375 
L 40.40625 -0.09375 
C 43.5 15 46.09375 30.296875 48 45.59375 
L 41.40625 45.59375 
C 41.59375 40.09375 41.09375 35 37.09375 9 
L 27.5 41.40625 
L 23.09375 41.40625 
L 15.203125 8.90625 
L 8.59375 41.90625 
C 8.40625 42.59375 8.40625 42.90625 8.703125 43.703125 
C 8.796875 44.203125 9.09375 44.90625 8.796875 45.703125 
z
" id="Inconsolata-119"/>
     </defs>
     <g style="fill:#555555;" transform="translate(20.649844 354.234375)rotate(-90)scale(0.12 -0.12)">
      <use xlink:href="#Inconsolata-100"/>
      <use x="49.999985" xlink:href="#Inconsolata-97"/>
      <use x="99.999969" xlink:href="#Inconsolata-105"/>
      <use x="149.999954" xlink:href="#Inconsolata-108"/>
      <use x="199.999939" xlink:href="#Inconsolata-121"/>
      <use x="249.999924" xlink:href="#Inconsolata-32"/>
      <use x="299.999908" xlink:href="#Inconsolata-110"/>
      <use x="349.999893" xlink:href="#Inconsolata-101"/>
      <use x="399.999878" xlink:href="#Inconsolata-119"/>
      <use x="449.999863" xlink:href="#Inconsolata-32"/>
      <use x="499.999847" xlink:href="#Inconsolata-100"/>
      <use x="549.999832" xlink:href="#Inconsolata-101"/>
      <use x="599.999817" xlink:href="#Inconsolata-97"/>
      <use x="649.999802" xlink:href="#Inconsolata-116"/>
      <use x="699.999786" xlink:href="#Inconsolata-104"/>
      <use x="749.999771" xlink:href="#Inconsolata-115"/>
     </g>
     <!-- (rolling 7-day mean) -->
     <defs>
      <path d="M 39.09375 66.59375 
C 23.703125 59.796875 13.796875 44.09375 13.796875 25.796875 
C 13.796875 7.59375 23.40625 -9 39.203125 -17.296875 
L 42.5 -12 
C 28.796875 -4.09375 20.796875 10.59375 20.796875 26.09375 
C 20.796875 40.40625 27.703125 53.203125 39.40625 60 
C 39.59375 60.203125 39.90625 60.40625 40.296875 60.40625 
C 40.59375 60.40625 40.90625 60.203125 41.296875 60.203125 
C 41.5 60.203125 41.796875 60.296875 42.203125 60.40625 
z
" id="Inconsolata-40"/>
      <path d="M 9.90625 45.59375 
L 9.90625 -0.09375 
L 17.09375 -0.09375 
L 17.09375 22.09375 
C 17.09375 24.90625 17.203125 27.90625 20.296875 32.796875 
C 24.5 39.40625 29.90625 40.5 33.203125 40.5 
C 37 40.5 39.40625 38.703125 40.703125 37.09375 
C 41.296875 36.296875 41.59375 35.5 42.40625 34.796875 
L 45.796875 41.703125 
C 42.90625 44.703125 38.703125 46.703125 33.59375 46.703125 
C 26.90625 46.703125 20.09375 43.296875 17.09375 36.796875 
L 17.40625 45.59375 
z
" id="Inconsolata-114"/>
      <path d="M 46 22.59375 
C 46 38.40625 36 46.59375 25.59375 46.59375 
C 14 46.59375 4 36.59375 4 22.40625 
C 4 8.5 13.90625 -1.296875 25.40625 -1.296875 
C 36.203125 -1.296875 46 7.40625 46 22.59375 
z
M 25.09375 40.5 
C 31.703125 40.5 38.703125 34.796875 38.703125 22.296875 
C 38.703125 10.796875 32.09375 5 25.5 5 
C 18.203125 5 11.59375 11.796875 11.59375 23.09375 
C 11.59375 34.296875 18.09375 40.5 25.09375 40.5 
z
" id="Inconsolata-111"/>
      <path d="M 12.5 31.40625 
C 12.5 36.90625 17.09375 41.40625 22.59375 41.40625 
C 28.203125 41.40625 32.703125 36.90625 32.703125 31.40625 
C 32.703125 25.90625 28.203125 21.40625 22.59375 21.40625 
C 17 21.40625 12.5 25.90625 12.5 31.40625 
z
M 23 47.09375 
C 13.90625 47.09375 6 39.90625 6 31 
C 6 26 8.5 21.296875 12.703125 18.59375 
C 9.40625 15.796875 7.5 12.703125 7.5 9.796875 
C 7.5 7.90625 8.296875 5.203125 11.203125 3.703125 
C 6.296875 0.59375 3.796875 -2.796875 3.796875 -6.40625 
C 3.796875 -11.40625 8.40625 -17.296875 24.40625 -17.296875 
C 39.90625 -17.296875 45.5 -9.40625 45.5 -3.296875 
C 45.5 0.703125 43.203125 4.703125 38.40625 6.59375 
C 33.59375 8.59375 28.09375 7.90625 22.90625 7.90625 
C 19.5 7.90625 17.296875 8.203125 16.40625 8.5 
C 14.59375 9 13.59375 10.09375 13.59375 11.5 
C 13.59375 13.90625 16.40625 16.203125 16.90625 16.59375 
C 18.703125 15.90625 20.703125 15.59375 22.703125 15.59375 
C 31.703125 15.59375 39.09375 22.796875 39.09375 31.203125 
C 39.09375 34 38.296875 36.703125 36.796875 39 
C 39.203125 40.40625 42 41.203125 44.796875 41.203125 
C 45.703125 41.203125 46.5 41.09375 47.40625 40.90625 
L 46.59375 46.796875 
C 42 47.203125 37.40625 45.703125 33.90625 42.796875 
C 31 45.59375 27.203125 47.09375 23 47.09375 
z
M 16.09375 2.40625 
C 17.796875 2.203125 20.203125 2 23.703125 1.796875 
C 27.09375 1.703125 30.796875 2 33.40625 1.59375 
C 37.59375 0.90625 38.90625 -1.703125 38.90625 -3.703125 
C 38.90625 -5.703125 37.703125 -8.09375 34.59375 -9.796875 
C 31.203125 -11.59375 27.40625 -11.796875 24.296875 -11.796875 
C 22.203125 -11.796875 18.296875 -11.703125 14.90625 -10.296875 
C 11.203125 -8.796875 10.40625 -6.296875 10.40625 -4.703125 
C 10.40625 -1.40625 13.5 1 16.09375 2.40625 
z
" id="Inconsolata-103"/>
      <path d="M 7.796875 62.296875 
L 7.796875 55.59375 
L 34.5 55.59375 
C 31.296875 48.203125 28.296875 40.796875 25.40625 33.296875 
C 21.203125 22.296875 17.203125 11.203125 13.5 0 
L 21.40625 0 
C 24.40625 9.796875 27.703125 19.5 31.296875 29.09375 
C 34.90625 39 38.90625 48.703125 43.09375 58.40625 
L 43.09375 62.296875 
z
" id="Inconsolata-55"/>
      <path d="M 7 34.703125 
L 7 28.09375 
L 43 28.09375 
L 43 34.703125 
z
" id="Inconsolata-45"/>
      <path d="M 3.703125 0 
L 10.296875 0 
L 10.296875 30.40625 
C 10.296875 32.59375 10.5 34.59375 11.796875 37 
C 13.40625 40 15.40625 41.203125 17.296875 41.203125 
C 18.90625 41.203125 20.703125 40.203125 21.5 37.703125 
C 22.09375 35.796875 22 33.59375 22 31.703125 
L 22 0 
L 28.703125 0 
L 28.703125 30.203125 
C 28.703125 32.59375 28.90625 34.5 30.59375 37.40625 
C 31.40625 38.59375 33.09375 41.5 35.90625 41.5 
C 37.40625 41.5 38.796875 40.59375 39.5 38.90625 
C 40.40625 37 40.203125 34.40625 40.203125 32.296875 
L 40.203125 -0.09375 
L 47 -0.09375 
L 47 32.40625 
C 47 36.203125 47.09375 40 45.09375 43.09375 
C 43.40625 45.703125 40.5 46.703125 38 46.703125 
C 33.59375 46.703125 29.5 44.09375 27.703125 40.09375 
C 27 43.90625 23.796875 46.703125 19.703125 46.703125 
C 15.90625 46.703125 12.40625 44.296875 10.296875 41.09375 
L 10.40625 45.59375 
L 3.703125 45.59375 
z
" id="Inconsolata-109"/>
      <path d="M 7.703125 60.296875 
C 20.90625 53.203125 29.296875 39.59375 29.296875 24.703125 
C 29.296875 9.703125 20.703125 -4.296875 7.203125 -11.40625 
L 9.09375 -17.5 
C 25.703125 -9.59375 36.40625 7 36.40625 25 
C 36.40625 42.796875 25.90625 59 9.59375 66.5 
z
" id="Inconsolata-41"/>
     </defs>
     <g style="fill:#555555;" transform="translate(32.328094 366.234375)rotate(-90)scale(0.12 -0.12)">
      <use xlink:href="#Inconsolata-40"/>
      <use x="49.999985" xlink:href="#Inconsolata-114"/>
      <use x="99.999969" xlink:href="#Inconsolata-111"/>
      <use x="149.999954" xlink:href="#Inconsolata-108"/>
      <use x="199.999939" xlink:href="#Inconsolata-108"/>
      <use x="249.999924" xlink:href="#Inconsolata-105"/>
      <use x="299.999908" xlink:href="#Inconsolata-110"/>
      <use x="349.999893" xlink:href="#Inconsolata-103"/>
      <use x="399.999878" xlink:href="#Inconsolata-32"/>
      <use x="449.999863" xlink:href="#Inconsolata-55"/>
      <use x="499.999847" xlink:href="#Inconsolata-45"/>
      <use x="549.999832" xlink:href="#Inconsolata-100"/>
      <use x="599.999817" xlink:href="#Inconsolata-97"/>
      <use x="649.999802" xlink:href="#Inconsolata-121"/>
      <use x="699.999786" xlink:href="#Inconsolata-32"/>
      <use x="749.999771" xlink:href="#Inconsolata-109"/>
      <use x="799.999756" xlink:href="#Inconsolata-101"/>
      <use x="849.999741" xlink:href="#Inconsolata-97"/>
      <use x="899.999725" xlink:href="#Inconsolata-110"/>
      <use x="949.99971" xlink:href="#Inconsolata-41"/>
     </g>
    </g>
   </g>
   <g id="line2d_72">
    <path clip-path="url(#pe2ec920be3)" d="M -1 419.385173 
L 4.417658 414.067911 
L 11.281462 408.842591 
L 18.145267 404.573193 
L 25.009071 404.573193 
L 31.872876 406.610726 
L 38.736681 400.963468 
L 45.600485 406.610726 
L 52.46429 392.611262 
L 59.328094 395.078474 
L 66.191899 389.338477 
L 73.055704 390.379397 
L 79.919508 383.910412 
L 86.783313 384.73214 
L 93.647117 380.884679 
L 100.510922 387.385942 
L 107.374727 386.467516 
L 114.238531 387.385942 
L 121.102336 382.348709 
L 127.96614 388.341865 
L 134.829945 384.73214 
L 141.69375 387.385942 
L 148.557554 390.379397 
L 155.421359 385.583756 
L 162.285163 388.341865 
L 169.148968 387.385942 
L 176.012773 384.73214 
L 182.876577 383.116544 
L 189.740382 378.847146 
L 196.604186 378.847146 
L 203.467991 376.972798 
L 210.331796 375.237422 
L 217.1956 376.379934 
L 224.059405 373.621826 
L 230.923209 375.237422 
L 237.787014 375.801711 
L 244.650819 372.603541 
L 251.514623 375.237422 
L 258.378428 376.972798 
L 265.242232 377.581062 
L 272.106037 379.50682 
L 285.833646 382.348709 
L 292.697451 384.73214 
L 299.561255 383.116544 
L 306.42506 379.50682 
L 313.288865 379.50682 
L 320.152669 380.185617 
L 327.016474 380.185617 
L 333.880278 382.348709 
L 340.744083 382.348709 
L 347.607888 383.116544 
L 354.471692 387.385942 
L 361.335497 387.385942 
L 368.199301 390.379397 
L 381.926911 392.611262 
L 388.790715 393.81239 
L 395.65452 399.347872 
L 402.518324 402.698844 
L 402.518324 402.698844 
" style="fill:none;stroke:#e24a33;stroke-linecap:square;stroke-width:4;"/>
   </g>
   <g id="line2d_73">
    <defs>
     <path d="M 0 3 
C 0.795609 3 1.55874 2.683901 2.12132 2.12132 
C 2.683901 1.55874 3 0.795609 3 0 
C 3 -0.795609 2.683901 -1.55874 2.12132 -2.12132 
C 1.55874 -2.683901 0.795609 -3 0 -3 
C -0.795609 -3 -1.55874 -2.683901 -2.12132 -2.12132 
C -2.683901 -1.55874 -3 -0.795609 -3 0 
C -3 0.795609 -2.683901 1.55874 -2.12132 2.12132 
C -1.55874 2.683901 -0.795609 3 0 3 
z
" id="m8a7e61faf3" style="stroke:#e24a33;"/>
    </defs>
    <g clip-path="url(#pe2ec920be3)">
     <use style="fill:#e24a33;stroke:#e24a33;" x="402.518324" xlink:href="#m8a7e61faf3" y="402.698844"/>
    </g>
   </g>
   <g id="line2d_74">
    <path clip-path="url(#pe2ec920be3)" d="M 66.191899 351.447755 
L 73.055704 344.964852 
L 79.919508 340.265775 
L 86.783313 336.78161 
L 93.647117 328.810174 
L 100.510922 326.060598 
L 107.374727 324.927841 
L 114.238531 320.767106 
L 121.102336 319.086252 
L 127.96614 317.002303 
L 134.829945 315.17437 
L 141.69375 315.260303 
L 148.557554 313.478853 
L 155.421359 312.160337 
L 162.285163 314.833755 
L 169.148968 308.181836 
L 176.012773 306.141651 
L 182.876577 304.590299 
L 189.740382 304.508565 
L 196.604186 304.754629 
L 203.467991 303.706539 
L 210.331796 301.027408 
L 217.1956 304.291991 
L 224.059405 308.794287 
L 230.923209 306.822164 
L 237.787014 310.069445 
L 244.650819 308.34146 
L 258.378428 312.926915 
L 265.242232 316.863604 
L 272.106037 314.918445 
L 278.969842 322.814543 
L 285.833646 320.931052 
L 292.697451 327.759241 
L 299.561255 330.646166 
L 306.42506 332.013962 
L 313.288865 331.751341 
L 320.152669 333.094932 
L 327.016474 334.915564 
L 333.880278 335.623687 
L 347.607888 339.64788 
L 354.471692 341.420813 
L 361.335497 344.360512 
L 368.199301 347.72296 
L 375.063106 350.459556 
L 381.926911 354.231111 
L 388.790715 356.372213 
L 395.65452 357.131745 
L 402.518324 360.148606 
L 409.382129 361.043626 
L 416.245934 362.292822 
L 423.109738 364.653351 
L 429.973543 362.943332 
L 436.837347 368.086343 
L 443.701152 370.690898 
L 450.564957 374.148069 
L 457.428761 375.237422 
L 464.292566 374.686411 
L 471.15637 376.379934 
L 478.020175 383.116544 
L 484.88398 380.185617 
L 491.747784 384.73214 
L 498.611589 382.348709 
L 505.475393 382.348709 
L 512.339198 383.116544 
L 519.203003 382.348709 
L 532.930612 385.583756 
L 539.794416 386.467516 
L 553.522026 396.416945 
L 560.38583 400.963468 
L 567.249635 402.698844 
L 574.113439 408.842591 
L 587.841049 408.842591 
L 594.704853 411.309803 
L 601.568658 417.194797 
L 608.432462 294.932396 
L 629.023876 295.022914 
L 642.751485 295.041059 
L 642.751485 295.041059 
" style="fill:none;stroke:#348abd;stroke-linecap:square;stroke-opacity:0.4;stroke-width:2;"/>
   </g>
   <g id="line2d_75">
    <defs>
     <path d="M 0 3 
C 0.795609 3 1.55874 2.683901 2.12132 2.12132 
C 2.683901 1.55874 3 0.795609 3 0 
C 3 -0.795609 2.683901 -1.55874 2.12132 -2.12132 
C 1.55874 -2.683901 0.795609 -3 0 -3 
C -0.795609 -3 -1.55874 -2.683901 -2.12132 -2.12132 
C -2.683901 -1.55874 -3 -0.795609 -3 0 
C -3 0.795609 -2.683901 1.55874 -2.12132 2.12132 
C -1.55874 2.683901 -0.795609 3 0 3 
z
" id="m037037415e" style="stroke:#348abd;stroke-opacity:0.4;"/>
    </defs>
    <g clip-path="url(#pe2ec920be3)">
     <use style="fill:#348abd;fill-opacity:0.4;stroke:#348abd;stroke-opacity:0.4;" x="642.751485" xlink:href="#m037037415e" y="295.041059"/>
    </g>
   </g>
   <g id="line2d_76">
    <path clip-path="url(#pe2ec920be3)" d="M 26.405231 433 
L 31.872876 417.194797 
L 38.736681 408.842591 
L 45.600485 404.573193 
L 52.46429 396.416945 
L 59.328094 392.611262 
L 66.191899 385.583756 
L 73.055704 382.348709 
L 79.919508 373.621826 
L 86.783313 363.61243 
L 100.510922 348.600098 
L 107.374727 341.685413 
L 114.238531 338.228242 
L 121.102336 326.823882 
L 127.96614 321.825361 
L 134.829945 314.918445 
L 141.69375 308.696512 
L 148.557554 310.069445 
L 155.421359 299.441522 
L 162.285163 296.578988 
L 169.148968 292.41645 
L 176.012773 288.647309 
L 182.876577 286.321438 
L 189.740382 283.06824 
L 196.604186 278.827891 
L 203.467991 277.179617 
L 210.331796 272.457463 
L 217.1956 270.576728 
L 224.059405 269.020382 
L 230.923209 266.755405 
L 237.787014 265.653481 
L 251.514623 262.843106 
L 265.242232 261.938277 
L 272.106037 261.024607 
L 278.969842 260.628772 
L 292.697451 260.247733 
L 299.561255 260.88488 
L 306.42506 261.779846 
L 313.288865 262.815584 
L 320.152669 263.636657 
L 327.016474 264.769913 
L 333.880278 265.710475 
L 340.744083 266.501839 
L 347.607888 267.577908 
L 354.471692 267.928856 
L 361.335497 268.471178 
L 368.199301 268.883353 
L 375.063106 268.895237 
L 381.926911 268.682248 
L 388.790715 269.188288 
L 395.65452 269.158216 
L 402.518324 269.996479 
L 409.382129 269.984024 
L 416.245934 270.691956 
L 423.109738 271.132452 
L 429.973543 272.073121 
L 429.973543 272.073121 
" style="fill:none;stroke:#988ed5;stroke-linecap:square;stroke-opacity:0.4;stroke-width:2;"/>
   </g>
   <g id="line2d_77">
    <defs>
     <path d="M 0 3 
C 0.795609 3 1.55874 2.683901 2.12132 2.12132 
C 2.683901 1.55874 3 0.795609 3 0 
C 3 -0.795609 2.683901 -1.55874 2.12132 -2.12132 
C 1.55874 -2.683901 0.795609 -3 0 -3 
C -0.795609 -3 -1.55874 -2.683901 -2.12132 -2.12132 
C -2.683901 -1.55874 -3 -0.795609 -3 0 
C -3 0.795609 -2.683901 1.55874 -2.12132 2.12132 
C -1.55874 2.683901 -0.795609 3 0 3 
z
" id="m0a50097266" style="stroke:#988ed5;stroke-opacity:0.4;"/>
    </defs>
    <g clip-path="url(#pe2ec920be3)">
     <use style="fill:#988ed5;fill-opacity:0.4;stroke:#988ed5;stroke-opacity:0.4;" x="429.973543" xlink:href="#m0a50097266" y="272.073121"/>
    </g>
   </g>
   <g id="line2d_78">
    <path clip-path="url(#pe2ec920be3)" d="M 2.4226 433 
L 4.417658 420.804521 
L 11.281462 417.194797 
L 18.145267 406.610726 
L 25.009071 404.573193 
L 31.872876 400.963468 
L 38.736681 397.836583 
L 45.600485 392.611262 
L 52.46429 397.836583 
L 59.328094 391.46875 
L 66.191899 387.385942 
L 73.055704 384.73214 
L 79.919508 380.884679 
L 86.783313 378.205548 
L 93.647117 375.237422 
L 100.510922 365.742703 
L 107.374727 360.148606 
L 114.238531 359.570382 
L 121.102336 343.917277 
L 127.96614 339.045871 
L 134.829945 333.187307 
L 141.69375 325.321411 
L 148.557554 318.584801 
L 155.421359 313.044097 
L 162.285163 305.537126 
L 169.148968 300.794171 
L 176.012773 294.203062 
L 182.876577 288.318068 
L 189.740382 284.194428 
L 196.604186 280.299247 
L 203.467991 274.001991 
L 210.331796 269.631791 
L 217.1956 264.665495 
L 224.059405 261.045851 
L 230.923209 257.601268 
L 237.787014 254.933842 
L 244.650819 252.887852 
L 251.514623 249.760967 
L 258.378428 247.216177 
L 265.242232 245.687086 
L 272.106037 243.80171 
L 278.969842 242.69266 
L 292.697451 241.386457 
L 299.561255 240.85283 
L 306.42506 239.82588 
L 313.288865 235.520442 
L 320.152669 233.072101 
L 327.016474 233.070814 
L 333.880278 232.512471 
L 340.744083 232.608184 
L 347.607888 232.551465 
L 354.471692 233.003978 
L 354.471692 233.003978 
" style="fill:none;stroke:#777777;stroke-linecap:square;stroke-opacity:0.4;stroke-width:2;"/>
   </g>
   <g id="line2d_79">
    <defs>
     <path d="M 0 3 
C 0.795609 3 1.55874 2.683901 2.12132 2.12132 
C 2.683901 1.55874 3 0.795609 3 0 
C 3 -0.795609 2.683901 -1.55874 2.12132 -2.12132 
C 1.55874 -2.683901 0.795609 -3 0 -3 
C -0.795609 -3 -1.55874 -2.683901 -2.12132 -2.12132 
C -2.683901 -1.55874 -3 -0.795609 -3 0 
C -3 0.795609 -2.683901 1.55874 -2.12132 2.12132 
C -1.55874 2.683901 -0.795609 3 0 3 
z
" id="m6204d04367" style="stroke:#777777;stroke-opacity:0.4;"/>
    </defs>
    <g clip-path="url(#pe2ec920be3)">
     <use style="fill:#777777;fill-opacity:0.4;stroke:#777777;stroke-opacity:0.4;" x="354.471692" xlink:href="#m6204d04367" y="233.003978"/>
    </g>
   </g>
   <g id="line2d_80">
    <path clip-path="url(#pe2ec920be3)" d="M 41.052468 433 
L 45.600485 425.073919 
L 52.46429 408.842591 
L 59.328094 396.416945 
L 66.191899 384.73214 
L 73.055704 380.185617 
L 79.919508 370.236188 
L 86.783313 370.236188 
L 93.647117 349.142598 
L 100.510922 340.517571 
L 107.374727 331.491632 
L 114.238531 328.129184 
L 121.102336 317.329163 
L 127.96614 314.208156 
L 134.829945 306.972755 
L 141.69375 303.212439 
L 148.557554 297.128152 
L 155.421359 291.776168 
L 162.285163 285.138455 
L 169.148968 281.755791 
L 176.012773 275.091344 
L 182.876577 271.435203 
L 189.740382 267.991674 
L 196.604186 265.232931 
L 203.467991 263.171266 
L 210.331796 261.492145 
L 217.1956 260.429196 
L 224.059405 260.083978 
L 230.923209 259.113047 
L 237.787014 258.813599 
L 244.650819 259.183603 
L 251.514623 259.687552 
L 258.378428 260.557894 
L 265.242232 260.741786 
L 272.106037 261.492145 
L 278.969842 262.856879 
L 292.697451 264.970101 
L 299.561255 265.432007 
L 306.42506 266.229764 
L 313.288865 268.477015 
L 320.152669 269.038314 
L 327.016474 269.327118 
L 333.880278 269.008434 
L 340.744083 272.093552 
L 347.607888 273.446856 
L 354.471692 274.540333 
L 361.335497 273.577151 
L 368.199301 275.207788 
L 368.199301 275.207788 
" style="fill:none;stroke:#fbc15e;stroke-linecap:square;stroke-opacity:0.4;stroke-width:2;"/>
   </g>
   <g id="line2d_81">
    <defs>
     <path d="M 0 3 
C 0.795609 3 1.55874 2.683901 2.12132 2.12132 
C 2.683901 1.55874 3 0.795609 3 0 
C 3 -0.795609 2.683901 -1.55874 2.12132 -2.12132 
C 1.55874 -2.683901 0.795609 -3 0 -3 
C -0.795609 -3 -1.55874 -2.683901 -2.12132 -2.12132 
C -2.683901 -1.55874 -3 -0.795609 -3 0 
C -3 0.795609 -2.683901 1.55874 -2.12132 2.12132 
C -1.55874 2.683901 -0.795609 3 0 3 
z
" id="m9770093a77" style="stroke:#fbc15e;stroke-opacity:0.4;"/>
    </defs>
    <g clip-path="url(#pe2ec920be3)">
     <use style="fill:#fbc15e;fill-opacity:0.4;stroke:#fbc15e;stroke-opacity:0.4;" x="368.199301" xlink:href="#m9770093a77" y="275.207788"/>
    </g>
   </g>
   <g id="line2d_82">
    <path clip-path="url(#pe2ec920be3)" d="M 15.393513 433 
L 18.145267 430.299239 
L 25.009071 420.804521 
L 31.872876 414.067911 
L 38.736681 417.194797 
L 45.600485 420.804521 
L 52.46429 393.81239 
L 59.328094 395.078474 
L 66.191899 370.236188 
L 73.055704 371.154613 
L 79.919508 365.373926 
L 86.783313 348.779539 
L 93.647117 342.497639 
L 100.510922 337.217285 
L 107.374727 332.458318 
L 114.238531 330.812835 
L 121.102336 324.476883 
L 127.96614 322.814543 
L 134.829945 320.122565 
L 141.69375 313.638969 
L 148.557554 306.61295 
L 155.421359 302.22977 
L 162.285163 299.310457 
L 169.148968 293.632102 
L 176.012773 286.084965 
L 182.876577 281.036151 
L 189.740382 276.479061 
L 196.604186 273.053165 
L 203.467991 270.291114 
L 210.331796 268.69403 
L 217.1956 266.426836 
L 224.059405 264.497419 
L 230.923209 263.004301 
L 237.787014 261.674818 
L 244.650819 260.779579 
L 251.514623 260.305318 
L 258.378428 259.195383 
L 265.242232 259.211099 
L 272.106037 259.909209 
L 278.969842 259.978148 
L 285.833646 260.524614 
L 292.697451 260.637125 
L 299.561255 261.229346 
L 306.42506 262.384071 
L 313.288865 262.177951 
L 320.152669 262.142289 
L 320.152669 262.142289 
" style="fill:none;stroke:#8eba42;stroke-linecap:square;stroke-opacity:0.4;stroke-width:2;"/>
   </g>
   <g id="line2d_83">
    <defs>
     <path d="M 0 3 
C 0.795609 3 1.55874 2.683901 2.12132 2.12132 
C 2.683901 1.55874 3 0.795609 3 0 
C 3 -0.795609 2.683901 -1.55874 2.12132 -2.12132 
C 1.55874 -2.683901 0.795609 -3 0 -3 
C -0.795609 -3 -1.55874 -2.683901 -2.12132 -2.12132 
C -2.683901 -1.55874 -3 -0.795609 -3 0 
C -3 0.795609 -2.683901 1.55874 -2.12132 2.12132 
C -1.55874 2.683901 -0.795609 3 0 3 
z
" id="m36a71e3bd8" style="stroke:#8eba42;stroke-opacity:0.4;"/>
    </defs>
    <g clip-path="url(#pe2ec920be3)">
     <use style="fill:#8eba42;fill-opacity:0.4;stroke:#8eba42;stroke-opacity:0.4;" x="320.152669" xlink:href="#m36a71e3bd8" y="262.142289"/>
    </g>
   </g>
   <g id="line2d_84">
    <path clip-path="url(#pe2ec920be3)" d="M 23.86699 433 
L 25.009071 430.299239 
L 31.872876 425.073919 
L 38.736681 414.067911 
L 45.600485 404.573193 
L 52.46429 397.836583 
L 59.328094 396.416945 
L 66.191899 388.341865 
L 73.055704 383.116544 
L 79.919508 377.581062 
L 86.783313 373.107149 
L 93.647117 369.352428 
L 100.510922 366.498151 
L 107.374727 362.292822 
L 121.102336 357.390497 
L 127.96614 354.45957 
L 134.829945 347.044163 
L 141.69375 342.360297 
L 148.557554 337.107604 
L 162.285163 327.540049 
L 169.148968 323.053492 
L 176.012773 318.884381 
L 182.876577 315.870833 
L 189.740382 312.349642 
L 196.604186 309.45676 
L 203.467991 306.792161 
L 210.331796 304.67232 
L 217.1956 302.981982 
L 224.059405 302.32868 
L 230.923209 301.935523 
L 237.787014 301.984308 
L 244.650819 302.303913 
L 251.514623 302.403137 
L 258.378428 302.205108 
L 265.242232 302.32868 
L 272.106037 301.935523 
L 285.833646 302.32868 
L 292.697451 301.862535 
L 299.561255 301.984308 
L 306.42506 302.804292 
L 313.288865 303.058549 
L 320.152669 302.577797 
L 327.016474 301.886839 
L 333.880278 301.429323 
L 340.744083 301.620873 
L 347.607888 302.033195 
L 354.471692 302.205108 
L 361.335497 302.502783 
L 402.518324 307.46126 
L 409.382129 308.502181 
L 416.245934 310.242519 
L 423.109738 311.308721 
L 429.973543 312.047484 
L 436.837347 312.425794 
L 443.701152 312.425794 
L 443.701152 312.425794 
" style="fill:none;stroke:#ffb5b8;stroke-linecap:square;stroke-opacity:0.4;stroke-width:2;"/>
   </g>
   <g id="line2d_85">
    <defs>
     <path d="M 0 3 
C 0.795609 3 1.55874 2.683901 2.12132 2.12132 
C 2.683901 1.55874 3 0.795609 3 0 
C 3 -0.795609 2.683901 -1.55874 2.12132 -2.12132 
C 1.55874 -2.683901 0.795609 -3 0 -3 
C -0.795609 -3 -1.55874 -2.683901 -2.12132 -2.12132 
C -2.683901 -1.55874 -3 -0.795609 -3 0 
C -3 0.795609 -2.683901 1.55874 -2.12132 2.12132 
C -1.55874 2.683901 -0.795609 3 0 3 
z
" id="m6ef7dc6be2" style="stroke:#ffb5b8;stroke-opacity:0.4;"/>
    </defs>
    <g clip-path="url(#pe2ec920be3)">
     <use style="fill:#ffb5b8;fill-opacity:0.4;stroke:#ffb5b8;stroke-opacity:0.4;" x="443.701152" xlink:href="#m6ef7dc6be2" y="312.425794"/>
    </g>
   </g>
   <g id="patch_3">
    <path d="M 59.328094 391.46875 
L 59.328094 221 
" style="fill:none;stroke:#ffffff;stroke-linecap:square;stroke-linejoin:miter;"/>
   </g>
   <g id="patch_4">
    <path d="M 687.709406 391.46875 
L 687.709406 221 
" style="fill:none;stroke:#ffffff;stroke-linecap:square;stroke-linejoin:miter;"/>
   </g>
   <g id="patch_5">
    <path d="M 59.328094 391.46875 
L 687.709406 391.46875 
" style="fill:none;stroke:#ffffff;stroke-linecap:square;stroke-linejoin:miter;"/>
   </g>
   <g id="patch_6">
    <path d="M 59.328094 221 
L 687.709406 221 
" style="fill:none;stroke:#ffffff;stroke-linecap:square;stroke-linejoin:miter;"/>
   </g>
   <g id="text_14">
    <!-- China -->
    <defs>
     <path d="M 27.703125 62.796875 
C 18 62.796875 4 55.703125 4 30.703125 
C 4 6.703125 17.40625 -1.09375 27.703125 -1.09375 
C 35.09375 -1.09375 42 2.796875 45.90625 9.203125 
L 40.796875 12.5 
C 37.90625 7.796875 32.90625 5 28.09375 5 
C 18.90625 5 10.796875 14.5 10.796875 31.40625 
C 10.796875 47.90625 18.703125 57.203125 27.5 57.203125 
C 32.296875 57.203125 36.90625 54.296875 39.40625 49.90625 
C 39.59375 49.59375 39.796875 49.296875 39.796875 48.90625 
C 39.796875 48.59375 39.703125 48.40625 39.703125 48.09375 
C 39.703125 48 39.703125 47.5 40.203125 47.203125 
L 46.796875 50.40625 
C 43.5 57.90625 36 62.796875 27.703125 62.796875 
z
" id="Inconsolata-67"/>
    </defs>
    <g transform="translate(656.479095 295.041059)scale(0.1 -0.1)">
     <use xlink:href="#Inconsolata-67"/>
     <use x="49.999985" xlink:href="#Inconsolata-104"/>
     <use x="99.999969" xlink:href="#Inconsolata-105"/>
     <use x="149.999954" xlink:href="#Inconsolata-110"/>
     <use x="199.999939" xlink:href="#Inconsolata-97"/>
    </g>
   </g>
   <g id="text_15">
    <!-- Italy -->
    <defs>
     <path d="M 8.796875 62.296875 
L 8.796875 56.40625 
L 20.296875 56.40625 
L 20.296875 5.703125 
L 8.09375 5.703125 
L 8.09375 -0.09375 
L 40.296875 -0.09375 
L 40.296875 5.59375 
L 27.296875 5.59375 
L 27.296875 56.40625 
L 39.59375 56.40625 
L 39.59375 62.296875 
z
" id="Inconsolata-73"/>
    </defs>
    <g transform="translate(443.701152 272.073121)scale(0.1 -0.1)">
     <use xlink:href="#Inconsolata-73"/>
     <use x="49.999985" xlink:href="#Inconsolata-116"/>
     <use x="99.999969" xlink:href="#Inconsolata-97"/>
     <use x="149.999954" xlink:href="#Inconsolata-108"/>
     <use x="199.999939" xlink:href="#Inconsolata-121"/>
    </g>
   </g>
   <g id="text_16">
    <!-- US -->
    <defs>
     <path d="M 5 62.296875 
L 5 21.40625 
C 5 17 5.09375 12.796875 7.40625 8.5 
C 10.796875 2.09375 17.796875 -1.203125 25.09375 -1.203125 
C 32.296875 -1.203125 39.296875 2 42.796875 8.59375 
C 45.203125 12.90625 45.296875 17.203125 45.296875 21.796875 
L 45.296875 62.296875 
L 38.703125 62.296875 
L 38.703125 21.59375 
C 38.703125 18.40625 38.59375 15.296875 37.09375 12.09375 
C 34.796875 7.296875 30.09375 4.796875 25.203125 4.796875 
C 20.296875 4.796875 15.59375 7.40625 13.40625 12.203125 
C 11.90625 15.203125 11.90625 18.296875 11.90625 21.40625 
L 11.90625 59.09375 
C 11.90625 59.5 11.90625 59.90625 12.296875 60.40625 
C 12.5 60.703125 12.90625 61.203125 12.90625 61.796875 
C 12.90625 61.90625 12.90625 62.09375 12.796875 62.296875 
z
" id="Inconsolata-85"/>
     <path d="M 43.40625 54.796875 
C 39.203125 59.90625 33 62.59375 26.203125 62.59375 
C 14.90625 62.59375 7.203125 55.203125 7.203125 46.59375 
C 7.203125 43 8.59375 38.296875 13.796875 34.5 
C 19.59375 30.203125 28.59375 28.09375 33.296875 25.09375 
C 37.40625 22.59375 38.5 19.296875 38.5 16.5 
C 38.5 11.09375 33.90625 5.203125 24.90625 5.203125 
C 18.09375 5.203125 12.796875 8.59375 10 12.09375 
C 9.703125 12.5 9.703125 12.703125 9.703125 13.09375 
C 9.703125 13.296875 9.703125 13.90625 9.296875 14.09375 
L 5.09375 6.90625 
C 10 1.59375 17 -1.09375 24.703125 -1.09375 
C 39.90625 -1.09375 45.5 9.09375 45.5 16.90625 
C 45.5 20.203125 44.5 24.5 40.59375 28.203125 
C 35.203125 33.296875 26.40625 35.09375 20.703125 38.40625 
C 15.5 41.5 14.40625 45.203125 14.40625 47.703125 
C 14.40625 52.5 18.5 56.796875 25.59375 56.796875 
C 31.40625 56.796875 35.90625 54.203125 38.296875 50.703125 
C 38.59375 50.296875 38.5 50.09375 38.5 49.703125 
C 38.5 49.09375 38.796875 48.90625 39 48.90625 
z
" id="Inconsolata-83"/>
    </defs>
    <g transform="translate(368.199301 233.003978)scale(0.1 -0.1)">
     <use xlink:href="#Inconsolata-85"/>
     <use x="49.999985" xlink:href="#Inconsolata-83"/>
    </g>
   </g>
   <g id="text_17">
    <!-- Spain -->
    <defs>
     <path d="M 5.90625 45.59375 
L 6 -16.703125 
L 13.296875 -16.703125 
L 13.296875 6 
C 16.40625 1.5 21.5 -1.296875 27 -1.296875 
C 36.40625 -1.296875 46.203125 6.59375 46.203125 23.296875 
C 46.203125 39.40625 36.703125 46.59375 27.703125 46.59375 
C 21.796875 46.59375 16.296875 43.59375 13.203125 38.59375 
L 13.203125 45.59375 
z
M 25 40.5 
C 29 40.5 38.703125 38.40625 38.703125 21.796875 
C 38.703125 7.40625 29.296875 5.09375 25 5.09375 
C 20.703125 5.09375 16.296875 7.296875 14.5 11.40625 
C 13.203125 14.5 13.203125 18.296875 13.203125 24.90625 
C 13.203125 28.703125 13.40625 31.5 14.40625 33.90625 
C 16.203125 38 20.40625 40.5 25 40.5 
z
" id="Inconsolata-112"/>
    </defs>
    <g transform="translate(381.926911 275.207788)scale(0.1 -0.1)">
     <use xlink:href="#Inconsolata-83"/>
     <use x="49.999985" xlink:href="#Inconsolata-112"/>
     <use x="99.999969" xlink:href="#Inconsolata-97"/>
     <use x="149.999954" xlink:href="#Inconsolata-105"/>
     <use x="199.999939" xlink:href="#Inconsolata-110"/>
    </g>
   </g>
   <g id="text_18">
    <!-- United Kingdom -->
    <defs>
     <path d="M 4.203125 62.296875 
L 4.203125 0 
L 11.59375 0 
L 11.59375 25.796875 
L 16.5 31.09375 
L 38.203125 -0.5 
C 38.203125 -0.5 42.09375 -0.09375 47.09375 -0.09375 
L 21.90625 35.296875 
L 45.40625 62.296875 
L 42.796875 62.296875 
C 41.09375 62.296875 39.40625 62.296875 37.703125 62.796875 
L 11.59375 33.5 
L 11.59375 59.796875 
C 11.59375 60.203125 11.59375 60.5 12 60.90625 
C 12.203125 61.203125 12.703125 61.703125 12.5 62.296875 
z
" id="Inconsolata-75"/>
    </defs>
    <g transform="translate(333.880278 262.142289)scale(0.1 -0.1)">
     <use xlink:href="#Inconsolata-85"/>
     <use x="49.999985" xlink:href="#Inconsolata-110"/>
     <use x="99.999969" xlink:href="#Inconsolata-105"/>
     <use x="149.999954" xlink:href="#Inconsolata-116"/>
     <use x="199.999939" xlink:href="#Inconsolata-101"/>
     <use x="249.999924" xlink:href="#Inconsolata-100"/>
     <use x="299.999908" xlink:href="#Inconsolata-32"/>
     <use x="349.999893" xlink:href="#Inconsolata-75"/>
     <use x="399.999878" xlink:href="#Inconsolata-105"/>
     <use x="449.999863" xlink:href="#Inconsolata-110"/>
     <use x="499.999847" xlink:href="#Inconsolata-103"/>
     <use x="549.999832" xlink:href="#Inconsolata-100"/>
     <use x="599.999817" xlink:href="#Inconsolata-111"/>
     <use x="649.999802" xlink:href="#Inconsolata-109"/>
    </g>
   </g>
   <g id="text_19">
    <!-- Iran -->
    <g transform="translate(457.428761 312.425794)scale(0.1 -0.1)">
     <use xlink:href="#Inconsolata-73"/>
     <use x="49.999985" xlink:href="#Inconsolata-114"/>
     <use x="99.999969" xlink:href="#Inconsolata-97"/>
     <use x="149.999954" xlink:href="#Inconsolata-110"/>
    </g>
   </g>
  </g>
 </g>
 <defs>
  <clipPath id="pe2ec920be3">
   <rect height="170.46875" width="628.381311" x="59.328094" y="221"/>
  </clipPath>
 </defs>
</svg>
