<?xml version="1.0" encoding="utf-8" standalone="no"?>
<!DOCTYPE svg PUBLIC "-//W3C//DTD SVG 1.1//EN"
  "http://www.w3.org/Graphics/SVG/1.1/DTD/svg11.dtd">
<!-- Created with matplotlib (https://matplotlib.org/) -->
<svg height="432pt" version="1.1" viewBox="0 0 720 432" width="720pt" xmlns="http://www.w3.org/2000/svg" xmlns:xlink="http://www.w3.org/1999/xlink">
 <defs>
  <style type="text/css">
*{stroke-linecap:butt;stroke-linejoin:round;}
  </style>
 </defs>
 <g id="figure_1">
  <g id="patch_1">
   <path d="M 0 432 
L 720 432 
L 720 0 
L 0 0 
z
" style="fill:#ffffff;"/>
  </g>
  <g id="axes_1">
   <g id="patch_2">
    <path d="M 68.471875 392 
L 678 392 
L 678 221 
L 68.471875 221 
z
" style="fill:#e5e5e5;"/>
   </g>
   <g id="matplotlib.axis_1">
    <g id="xtick_1">
     <g id="line2d_1">
      <path clip-path="url(#pcf537c9f1d)" d="M 74.24119 392 
L 74.24119 221 
" style="fill:none;stroke:#ffffff;stroke-linecap:square;stroke-width:0.8;"/>
     </g>
     <g id="line2d_2">
      <defs>
       <path d="M 0 0 
L 0 3.5 
" id="maff088c52a" style="stroke:#555555;stroke-width:0.8;"/>
      </defs>
      <g>
       <use style="fill:#555555;stroke:#555555;stroke-width:0.8;" x="74.24119" xlink:href="#maff088c52a" y="392"/>
      </g>
     </g>
     <g id="text_1">
      <!-- 0 -->
      <defs>
       <path d="M 25 62.703125 
Q 34.203125 62.703125 39.25 54.203125 
Q 44.296875 45.703125 44.296875 30.796875 
Q 44.296875 15.5 39.296875 7.203125 
Q 34.296875 -1.09375 25 -1.09375 
Q 15.703125 -1.09375 10.703125 7.203125 
Q 5.703125 15.5 5.703125 30.796875 
Q 5.703125 45.703125 10.75 54.203125 
Q 15.796875 62.703125 25 62.703125 
z
M 25 56.59375 
Q 19.296875 56.59375 16.09375 49.640625 
Q 12.90625 42.703125 12.90625 30.796875 
Q 12.90625 24.296875 13.796875 19.296875 
L 35 46.703125 
Q 33.5 51.5 30.953125 54.046875 
Q 28.40625 56.59375 25 56.59375 
z
M 25 5 
Q 30.703125 5 33.890625 11.703125 
Q 37.09375 18.40625 37.09375 30.796875 
Q 37.09375 36.59375 36.40625 40.796875 
L 15.203125 13.796875 
Q 18.40625 5 25 5 
z
" id="Inconsolata-Regular-48"/>
      </defs>
      <g style="fill:#555555;" transform="translate(71.74119 405.65)scale(0.1 -0.1)">
       <use xlink:href="#Inconsolata-Regular-48"/>
      </g>
     </g>
    </g>
    <g id="xtick_2">
     <g id="line2d_3">
      <path clip-path="url(#pcf537c9f1d)" d="M 189.627489 392 
L 189.627489 221 
" style="fill:none;stroke:#ffffff;stroke-linecap:square;stroke-width:0.8;"/>
     </g>
     <g id="line2d_4">
      <g>
       <use style="fill:#555555;stroke:#555555;stroke-width:0.8;" x="189.627489" xlink:href="#maff088c52a" y="392"/>
      </g>
     </g>
     <g id="text_2">
      <!-- 20 -->
      <defs>
       <path d="M 7.296875 5.59375 
L 15.40625 13.796875 
Q 23.5 21.90625 27.546875 26.5 
Q 31.59375 31.09375 34 35.640625 
Q 36.40625 40.203125 36.40625 45.09375 
Q 36.40625 51.203125 33.5 53.890625 
Q 30.59375 56.59375 25.796875 56.59375 
Q 21.5 56.59375 17.84375 54.6875 
Q 14.203125 52.796875 13 50.5 
Q 12.40625 49.40625 11.796875 48.25 
Q 11.203125 47.09375 11.203125 46.90625 
Q 11.203125 46.796875 11.296875 46.796875 
Q 11.40625 46.796875 11.703125 46.9375 
Q 12 47.09375 12.09375 46.703125 
L 11.796875 46.09375 
L 10.90625 46.59375 
L 5.796875 50.59375 
Q 8.796875 56.40625 14 59.546875 
Q 19.203125 62.703125 25.703125 62.703125 
Q 33.703125 62.703125 38.640625 57.890625 
Q 43.59375 53.09375 43.59375 44.90625 
Q 43.59375 39.5 41 34.390625 
Q 38.40625 29.296875 34.34375 24.6875 
Q 30.296875 20.09375 23.09375 13 
L 16.296875 6.09375 
L 39.5 6.09375 
Q 41.09375 6.09375 41.84375 6.296875 
Q 42.59375 6.5 43.203125 7.09375 
L 43.90625 7.09375 
L 43.90625 0 
L 7.296875 0 
z
" id="Inconsolata-Regular-50"/>
      </defs>
      <g style="fill:#555555;" transform="translate(184.627489 405.65)scale(0.1 -0.1)">
       <use xlink:href="#Inconsolata-Regular-50"/>
       <use x="49.999985" xlink:href="#Inconsolata-Regular-48"/>
      </g>
     </g>
    </g>
    <g id="xtick_3">
     <g id="line2d_5">
      <path clip-path="url(#pcf537c9f1d)" d="M 305.013788 392 
L 305.013788 221 
" style="fill:none;stroke:#ffffff;stroke-linecap:square;stroke-width:0.8;"/>
     </g>
     <g id="line2d_6">
      <g>
       <use style="fill:#555555;stroke:#555555;stroke-width:0.8;" x="305.013788" xlink:href="#maff088c52a" y="392"/>
      </g>
     </g>
     <g id="text_3">
      <!-- 40 -->
      <defs>
       <path d="M 31.796875 0 
L 31.796875 15.296875 
L 4.796875 15.296875 
L 4.796875 20.40625 
L 33.296875 62.40625 
L 39.203125 62.40625 
L 39.203125 21.09375 
L 47.203125 21.09375 
L 47.203125 15.203125 
L 39.203125 15.203125 
L 39.203125 0 
z
M 12.90625 21.203125 
L 31.796875 21.203125 
L 31.796875 49.796875 
z
" id="Inconsolata-Regular-52"/>
      </defs>
      <g style="fill:#555555;" transform="translate(300.013788 405.65)scale(0.1 -0.1)">
       <use xlink:href="#Inconsolata-Regular-52"/>
       <use x="49.999985" xlink:href="#Inconsolata-Regular-48"/>
      </g>
     </g>
    </g>
    <g id="xtick_4">
     <g id="line2d_7">
      <path clip-path="url(#pcf537c9f1d)" d="M 420.400087 392 
L 420.400087 221 
" style="fill:none;stroke:#ffffff;stroke-linecap:square;stroke-width:0.8;"/>
     </g>
     <g id="line2d_8">
      <g>
       <use style="fill:#555555;stroke:#555555;stroke-width:0.8;" x="420.400087" xlink:href="#maff088c52a" y="392"/>
      </g>
     </g>
     <g id="text_4">
      <!-- 60 -->
      <defs>
       <path d="M 26.796875 40.203125 
Q 31.5 40.203125 35.390625 37.640625 
Q 39.296875 35.09375 41.59375 30.4375 
Q 43.90625 25.796875 43.90625 19.796875 
Q 43.90625 13.703125 41.546875 9 
Q 39.203125 4.296875 35.09375 1.640625 
Q 31 -1 26.09375 -1 
Q 16.90625 -1 11.796875 6.84375 
Q 6.703125 14.703125 6.703125 28.40625 
Q 6.703125 39.40625 9.390625 47.203125 
Q 12.09375 55 17.046875 59 
Q 22 63 28.703125 63 
Q 36.5 63 42.40625 57.296875 
L 38 52.296875 
L 37.90625 52.203125 
Q 35.796875 54.796875 33.84375 55.796875 
Q 31.90625 56.796875 28.90625 56.796875 
Q 25.59375 56.796875 22.1875 54.75 
Q 18.796875 52.703125 16.25 47.34375 
Q 13.703125 42 13.59375 32.703125 
Q 15.703125 36.203125 19.25 38.203125 
Q 22.796875 40.203125 26.796875 40.203125 
z
M 36.796875 52 
Q 36.796875 52.59375 37.703125 51.90625 
L 37.296875 51.5 
L 36.796875 52 
z
M 37.90625 52.203125 
Q 38.5 51.40625 38.140625 51.65625 
Q 37.796875 51.90625 37.703125 51.90625 
L 37.90625 52.203125 
z
M 26.40625 5.203125 
Q 30.90625 5.203125 34 9.046875 
Q 37.09375 12.90625 37.09375 19.703125 
Q 37.09375 24.40625 35.5 27.65625 
Q 33.90625 30.90625 31.40625 32.5 
Q 28.90625 34.09375 26.203125 34.09375 
Q 22.703125 34.09375 19.390625 31.75 
Q 16.09375 29.40625 14 25.703125 
Q 13.796875 24.09375 13.796875 23.09375 
Q 13.796875 18.703125 15.34375 14.59375 
Q 16.90625 10.5 19.796875 7.84375 
Q 22.703125 5.203125 26.40625 5.203125 
z
" id="Inconsolata-Regular-54"/>
      </defs>
      <g style="fill:#555555;" transform="translate(415.400087 405.65)scale(0.1 -0.1)">
       <use xlink:href="#Inconsolata-Regular-54"/>
       <use x="49.999985" xlink:href="#Inconsolata-Regular-48"/>
      </g>
     </g>
    </g>
    <g id="xtick_5">
     <g id="line2d_9">
      <path clip-path="url(#pcf537c9f1d)" d="M 535.786386 392 
L 535.786386 221 
" style="fill:none;stroke:#ffffff;stroke-linecap:square;stroke-width:0.8;"/>
     </g>
     <g id="line2d_10">
      <g>
       <use style="fill:#555555;stroke:#555555;stroke-width:0.8;" x="535.786386" xlink:href="#maff088c52a" y="392"/>
      </g>
     </g>
     <g id="text_5">
      <!-- 80 -->
      <defs>
       <path d="M 25 -1 
Q 19.296875 -1 14.9375 1.203125 
Q 10.59375 3.40625 8.296875 7.203125 
Q 6 11 6 15.703125 
Q 6 21.09375 9.390625 25.796875 
Q 12.796875 30.5 18.5 33.09375 
Q 14.203125 35.296875 11.59375 39.25 
Q 9 43.203125 9 47.703125 
Q 9 54.40625 13.296875 58.75 
Q 17.59375 63.09375 25.5 63.09375 
Q 33.703125 63.09375 37.84375 58.9375 
Q 42 54.796875 42 48.296875 
Q 42 43.796875 39.296875 39.75 
Q 36.59375 35.703125 32.09375 33.296875 
Q 37.5 30.796875 40.796875 26.140625 
Q 44.09375 21.5 44.09375 16.09375 
Q 44.09375 11.296875 41.75 7.390625 
Q 39.40625 3.5 35.046875 1.25 
Q 30.703125 -1 25 -1 
z
M 26.703125 35.796875 
Q 30.40625 37.90625 32.796875 41.25 
Q 35.203125 44.59375 35.203125 48.09375 
Q 35.203125 51.90625 32.59375 54.546875 
Q 30 57.203125 25.296875 57.203125 
Q 20.59375 57.203125 18.140625 54.640625 
Q 15.703125 52.09375 15.703125 48.40625 
Q 15.703125 44.203125 18.390625 41.5 
Q 21.09375 38.796875 26.703125 35.796875 
z
M 25.203125 5.296875 
Q 30.796875 5.296875 33.890625 8.34375 
Q 37 11.40625 37 16.09375 
Q 37 20.703125 33.390625 24.546875 
Q 29.796875 28.40625 23.703125 30.296875 
Q 19.09375 28.40625 16.140625 24.59375 
Q 13.203125 20.796875 13.203125 16.40625 
Q 13.203125 11.703125 16.453125 8.5 
Q 19.703125 5.296875 25.203125 5.296875 
z
" id="Inconsolata-Regular-56"/>
      </defs>
      <g style="fill:#555555;" transform="translate(530.786386 405.65)scale(0.1 -0.1)">
       <use xlink:href="#Inconsolata-Regular-56"/>
       <use x="49.999985" xlink:href="#Inconsolata-Regular-48"/>
      </g>
     </g>
    </g>
    <g id="xtick_6">
     <g id="line2d_11">
      <path clip-path="url(#pcf537c9f1d)" d="M 651.172685 392 
L 651.172685 221 
" style="fill:none;stroke:#ffffff;stroke-linecap:square;stroke-width:0.8;"/>
     </g>
     <g id="line2d_12">
      <g>
       <use style="fill:#555555;stroke:#555555;stroke-width:0.8;" x="651.172685" xlink:href="#maff088c52a" y="392"/>
      </g>
     </g>
     <g id="text_6">
      <!-- 100 -->
      <defs>
       <path d="M 23 0 
L 23 53.703125 
L 10.40625 50 
L 8.796875 53.90625 
L 25.09375 62.40625 
L 30 62.40625 
L 30 0 
z
" id="Inconsolata-Regular-49"/>
      </defs>
      <g style="fill:#555555;" transform="translate(643.672685 405.65)scale(0.1 -0.1)">
       <use xlink:href="#Inconsolata-Regular-49"/>
       <use x="49.999985" xlink:href="#Inconsolata-Regular-48"/>
       <use x="99.999969" xlink:href="#Inconsolata-Regular-48"/>
      </g>
     </g>
    </g>
    <g id="text_7">
     <!-- days since 3 deaths -->
     <defs>
      <path d="M 23.40625 -1 
Q 18.5 -1 14.203125 1.75 
Q 9.90625 4.5 7.203125 10 
Q 4.5 15.5 4.5 23.296875 
Q 4.5 31.203125 7.296875 36.5 
Q 10.09375 41.796875 14.5 44.34375 
Q 18.90625 46.90625 23.796875 46.90625 
Q 28.40625 46.90625 31.84375 44.796875 
Q 35.296875 42.703125 37.09375 39 
L 37.09375 66.5 
L 44.703125 66.5 
L 44.703125 65.796875 
Q 44.09375 65.203125 43.9375 64.5 
Q 43.796875 63.796875 43.796875 62.09375 
L 43.90625 7.09375 
Q 43.90625 4.703125 44.046875 3.140625 
Q 44.203125 1.59375 44.90625 0 
L 37.796875 0 
Q 37.09375 1.59375 36.9375 3.140625 
Q 36.796875 4.703125 36.796875 7.09375 
Q 34.59375 3.296875 31.140625 1.140625 
Q 27.703125 -1 23.40625 -1 
z
M 24.5 5.296875 
Q 30.703125 5.296875 33.59375 10.1875 
Q 36.5 15.09375 36.5 23.09375 
Q 36.5 31.203125 33.34375 36.09375 
Q 30.203125 41 23.90625 41 
Q 17.90625 41 14.703125 36.546875 
Q 11.5 32.09375 11.5 24.40625 
Q 11.5 15.59375 14.84375 10.4375 
Q 18.203125 5.296875 24.5 5.296875 
z
" id="Inconsolata-Regular-100"/>
      <path d="M 24.40625 46.703125 
Q 34.203125 46.703125 39.34375 41.59375 
Q 44.5 36.5 44.5 24.296875 
L 44.5 0 
L 36.703125 0 
L 36.703125 7 
Q 32.5 -1.09375 21.09375 -1.09375 
Q 13.5 -1.09375 9.203125 2.34375 
Q 4.90625 5.796875 4.90625 11.5 
Q 4.90625 16.296875 8 19.890625 
Q 11.09375 23.5 16.34375 25.453125 
Q 21.59375 27.40625 27.90625 27.40625 
Q 33.59375 27.40625 38.203125 26.796875 
Q 37.59375 34.5 34.140625 37.640625 
Q 30.703125 40.796875 23.90625 40.796875 
Q 20.5 40.796875 17.34375 39.5 
Q 14.203125 38.203125 11.59375 35.703125 
L 8.09375 40.296875 
Q 14.5 46.703125 24.40625 46.703125 
z
M 21.796875 4.40625 
Q 29.203125 4.40625 33.5 8.75 
Q 37.796875 13.09375 38.203125 21.296875 
Q 33.703125 22 28.5 22 
Q 20.90625 22 16.5 19.5 
Q 12.09375 17 12.09375 11.90625 
Q 12.09375 4.40625 21.796875 4.40625 
z
" id="Inconsolata-Regular-97"/>
      <path d="M 44.296875 45.703125 
Q 43.703125 41.59375 42.453125 37.59375 
Q 41.203125 33.59375 38.90625 27 
L 27.5 -5.203125 
Q 25.203125 -11.59375 21.5 -14.5 
Q 17.796875 -17.40625 12.703125 -17.40625 
Q 6.296875 -17.40625 2.203125 -13.5 
L 5.296875 -8.59375 
L 5.40625 -8.5 
L 5.5 -8.59375 
Q 7.09375 -10.09375 8.890625 -10.796875 
Q 10.703125 -11.5 13.09375 -11.5 
Q 16.796875 -11.5 19 -8.890625 
Q 21.203125 -6.296875 23.296875 -0.296875 
L 4.59375 45.703125 
L 12.09375 45.703125 
L 26.296875 9.09375 
L 32.296875 27.5 
Q 34.5 34.40625 35.546875 38.046875 
Q 36.59375 41.703125 37.09375 45.703125 
z
M 6.5 -8.203125 
Q 6.5 -8.40625 6.296875 -8.40625 
L 5.5 -8.203125 
L 5.90625 -7.703125 
L 6.5 -8.09375 
z
M 5.40625 -8.5 
Q 4.90625 -8 5.15625 -8.09375 
Q 5.40625 -8.203125 5.5 -8.203125 
L 5.40625 -8.5 
z
" id="Inconsolata-Regular-121"/>
      <path d="M 28.296875 26.90625 
Q 36.90625 24.296875 40.453125 21.25 
Q 44 18.203125 44 13.296875 
Q 44 7.09375 39.140625 3.046875 
Q 34.296875 -1 25.09375 -1 
Q 13.5 -1 5.703125 6.203125 
L 9.703125 13 
L 9.796875 13.09375 
L 9.90625 13 
Q 13 9 16.296875 7 
Q 19.59375 5 25.296875 5 
Q 30.703125 5 33.796875 6.953125 
Q 36.90625 8.90625 36.90625 12.296875 
Q 36.90625 15.203125 34.40625 17.09375 
Q 31.90625 19 25.40625 21.09375 
Q 8.203125 26 8.203125 35.296875 
Q 8.203125 40.59375 12.546875 43.6875 
Q 16.90625 46.796875 25 46.796875 
Q 31.203125 46.796875 35.453125 45.046875 
Q 39.703125 43.296875 43.203125 39.59375 
L 39.09375 34.59375 
L 39 34.5 
Q 36.90625 37.703125 33.046875 39.546875 
Q 29.203125 41.40625 25.203125 41.40625 
Q 20.90625 41.40625 18.15625 39.90625 
Q 15.40625 38.40625 15.40625 35.703125 
Q 15.40625 33.203125 18.203125 31.09375 
Q 21 29 28.296875 26.90625 
z
M 37.90625 34.296875 
Q 37.90625 34.796875 38.703125 34.203125 
L 38.40625 33.796875 
L 37.90625 34.296875 
z
M 39 34.5 
Q 39.296875 34.09375 39.25 34 
Q 39.203125 33.90625 39 34 
Q 38.796875 34.09375 38.703125 34.203125 
L 39 34.5 
z
M 10.90625 13.40625 
Q 10.90625 13 10 13.40625 
L 10.296875 13.90625 
L 10.90625 13.5 
z
M 9.796875 13.09375 
Q 9.5 13.59375 9.59375 13.59375 
Q 9.703125 13.59375 10 13.40625 
L 9.796875 13.09375 
z
" id="Inconsolata-Regular-115"/>
      <path id="Inconsolata-Regular-32"/>
      <path d="M 10 0 
L 10 5.796875 
L 21.703125 5.796875 
L 21.703125 39.90625 
L 10.59375 39.90625 
L 10.59375 45.703125 
L 28.90625 45.703125 
L 28.90625 5.796875 
L 39.59375 5.796875 
L 39.59375 0 
z
M 24.90625 55.296875 
Q 22.796875 55.296875 21.296875 56.796875 
Q 19.796875 58.296875 19.796875 60.40625 
Q 19.796875 62.59375 21.25 64.09375 
Q 22.703125 65.59375 24.90625 65.59375 
Q 27 65.59375 28.546875 64.046875 
Q 30.09375 62.5 30.09375 60.40625 
Q 30.09375 58.296875 28.546875 56.796875 
Q 27 55.296875 24.90625 55.296875 
z
" id="Inconsolata-Regular-105"/>
      <path d="M 7.203125 45.703125 
L 14.203125 45.703125 
L 14.203125 37.59375 
Q 16.90625 41.796875 21 44.296875 
Q 25.09375 46.796875 29.703125 46.796875 
Q 35.796875 46.796875 39.4375 42.140625 
Q 43.09375 37.5 43.09375 27.703125 
L 43.09375 0 
L 36.09375 0 
L 36.09375 27.5 
Q 36.09375 34.296875 33.796875 37.390625 
Q 31.5 40.5 27.703125 40.5 
Q 24.59375 40.5 21.4375 38.703125 
Q 18.296875 36.90625 16.25 33.65625 
Q 14.203125 30.40625 14.203125 26.296875 
L 14.203125 0 
L 7.203125 0 
z
" id="Inconsolata-Regular-110"/>
      <path d="M 28.90625 5.40625 
Q 35.796875 5.40625 40.796875 11 
L 45 6.09375 
Q 38.296875 -1.09375 28.5 -1.09375 
Q 21.90625 -1.09375 16.703125 2 
Q 11.5 5.09375 8.546875 10.546875 
Q 5.59375 16 5.59375 22.796875 
Q 5.59375 29.59375 8.546875 35 
Q 11.5 40.40625 16.703125 43.5 
Q 21.90625 46.59375 28.40625 46.59375 
Q 33.90625 46.59375 38.40625 44.34375 
Q 42.90625 42.09375 45.703125 38.09375 
L 41.203125 33.703125 
L 41.09375 33.59375 
Q 38.203125 37.40625 35.140625 38.953125 
Q 32.09375 40.5 27.59375 40.5 
Q 23.703125 40.5 20.34375 38.34375 
Q 17 36.203125 15 32.296875 
Q 13 28.40625 13 23.296875 
Q 13 18.203125 15.046875 14.09375 
Q 17.09375 10 20.75 7.703125 
Q 24.40625 5.40625 28.90625 5.40625 
z
M 40 33.5 
Q 40 34.09375 40.90625 33.40625 
L 40.5 33 
L 40 33.5 
z
M 41.09375 33.59375 
Q 41.59375 32.90625 41.34375 33.09375 
Q 41.09375 33.296875 40.90625 33.40625 
L 41.09375 33.59375 
z
" id="Inconsolata-Regular-99"/>
      <path d="M 27.203125 -1 
Q 17 -1 10.953125 5.203125 
Q 4.90625 11.40625 4.90625 22.703125 
Q 4.90625 30.203125 7.703125 35.640625 
Q 10.5 41.09375 15.25 43.9375 
Q 20 46.796875 25.90625 46.796875 
Q 34.203125 46.796875 39.34375 41.296875 
Q 44.5 35.796875 44.5 25.09375 
Q 44.5 24 44.296875 21.796875 
L 11.796875 21.796875 
Q 12.203125 13.40625 16.5 9.09375 
Q 20.796875 4.796875 27.40625 4.796875 
Q 34.59375 4.796875 39.203125 9.90625 
L 43.203125 6 
Q 37.40625 -1 27.203125 -1 
z
M 37.203125 27.40625 
Q 37.203125 33.796875 33.953125 37.546875 
Q 30.703125 41.296875 25.40625 41.296875 
Q 20.40625 41.296875 16.703125 37.796875 
Q 13 34.296875 12.09375 27.40625 
z
" id="Inconsolata-Regular-101"/>
      <path d="M 30.796875 33 
Q 36.296875 31.203125 39.5 27.203125 
Q 42.703125 23.203125 42.703125 17.09375 
Q 42.703125 12.09375 40.5 7.9375 
Q 38.296875 3.796875 34.09375 1.34375 
Q 29.90625 -1.09375 24 -1.09375 
Q 19 -1.09375 14.546875 0.703125 
Q 10.09375 2.5 6.90625 6 
L 11.5 11.5 
L 11.59375 11.59375 
L 11.703125 11.5 
Q 14.203125 8.296875 16.84375 6.59375 
Q 19.5 4.90625 23.703125 4.90625 
Q 29.5 4.90625 32.5 8.296875 
Q 35.5 11.703125 35.5 17.40625 
Q 35.5 23.59375 31.75 26.6875 
Q 28 29.796875 21.203125 29.796875 
Q 20.203125 29.796875 18 29.59375 
L 18 35.203125 
Q 26.90625 35.203125 30.15625 38.5 
Q 33.40625 41.796875 33.40625 47.5 
Q 33.40625 51.703125 30.953125 54.203125 
Q 28.5 56.703125 24.5 56.703125 
Q 18 56.703125 13.09375 52.09375 
L 8.90625 56.296875 
Q 15 62.703125 24.40625 62.703125 
Q 31.90625 62.703125 36.25 58.453125 
Q 40.59375 54.203125 40.59375 47.203125 
Q 40.59375 42.09375 38.09375 38.296875 
Q 35.59375 34.5 30.796875 33 
z
M 12.703125 11.796875 
Q 12.703125 11.5 12.390625 11.546875 
Q 12.09375 11.59375 11.796875 11.796875 
L 12.203125 12.296875 
L 12.703125 11.796875 
z
M 11.59375 11.59375 
Q 11.203125 12.296875 11.453125 12.09375 
Q 11.703125 11.90625 11.796875 11.796875 
L 11.59375 11.59375 
z
" id="Inconsolata-Regular-51"/>
      <path d="M 44.40625 4.203125 
Q 37.796875 -0.703125 29.90625 -0.703125 
Q 22.296875 -0.703125 19.140625 3.890625 
Q 16 8.5 16 18.90625 
Q 16 20.59375 16.203125 24.796875 
L 17.09375 39.796875 
L 7 39.796875 
L 7 45.703125 
L 17.5 45.703125 
L 18.203125 57.90625 
L 26.203125 59.203125 
L 27.203125 59.296875 
L 27.296875 58.703125 
Q 26.59375 57.703125 26.25 57 
Q 25.90625 56.296875 25.796875 54.796875 
L 24.703125 45.703125 
L 39.90625 45.703125 
L 39.90625 39.796875 
L 24.296875 39.796875 
L 23.40625 24.296875 
Q 23.203125 20.296875 23.203125 19 
Q 23.203125 11 25.046875 8.140625 
Q 26.90625 5.296875 31 5.296875 
Q 34 5.296875 36.5 6.390625 
Q 39 7.5 42.203125 9.90625 
z
" id="Inconsolata-Regular-116"/>
      <path d="M 7.296875 66.5 
L 15.203125 66.5 
L 15.203125 65.796875 
Q 14.59375 65.203125 14.4375 64.5 
Q 14.296875 63.796875 14.296875 62.09375 
L 14.296875 37.59375 
Q 17 41.796875 21.046875 44.296875 
Q 25.09375 46.796875 29.296875 46.796875 
Q 35.796875 46.796875 39.5 42.1875 
Q 43.203125 37.59375 43.203125 27.703125 
L 43.203125 0 
L 36.203125 0 
L 36.203125 27.5 
Q 36.203125 34.296875 33.890625 37.390625 
Q 31.59375 40.5 27.796875 40.5 
Q 24.59375 40.5 21.5 38.75 
Q 18.40625 37 16.34375 33.75 
Q 14.296875 30.5 14.296875 26.296875 
L 14.296875 0 
L 7.296875 0 
z
" id="Inconsolata-Regular-104"/>
     </defs>
     <g style="fill:#555555;" transform="translate(316.235938 419.300313)scale(0.12 -0.12)">
      <use xlink:href="#Inconsolata-Regular-100"/>
      <use x="49.999985" xlink:href="#Inconsolata-Regular-97"/>
      <use x="99.999969" xlink:href="#Inconsolata-Regular-121"/>
      <use x="149.999954" xlink:href="#Inconsolata-Regular-115"/>
      <use x="199.999939" xlink:href="#Inconsolata-Regular-32"/>
      <use x="249.999924" xlink:href="#Inconsolata-Regular-115"/>
      <use x="299.999908" xlink:href="#Inconsolata-Regular-105"/>
      <use x="349.999893" xlink:href="#Inconsolata-Regular-110"/>
      <use x="399.999878" xlink:href="#Inconsolata-Regular-99"/>
      <use x="449.999863" xlink:href="#Inconsolata-Regular-101"/>
      <use x="499.999847" xlink:href="#Inconsolata-Regular-32"/>
      <use x="549.999832" xlink:href="#Inconsolata-Regular-51"/>
      <use x="599.999817" xlink:href="#Inconsolata-Regular-32"/>
      <use x="649.999802" xlink:href="#Inconsolata-Regular-100"/>
      <use x="699.999786" xlink:href="#Inconsolata-Regular-101"/>
      <use x="749.999771" xlink:href="#Inconsolata-Regular-97"/>
      <use x="799.999756" xlink:href="#Inconsolata-Regular-116"/>
      <use x="849.999741" xlink:href="#Inconsolata-Regular-104"/>
      <use x="899.999725" xlink:href="#Inconsolata-Regular-115"/>
     </g>
    </g>
   </g>
   <g id="matplotlib.axis_2">
    <g id="ytick_1">
     <g id="line2d_13">
      <path clip-path="url(#pcf537c9f1d)" d="M 68.471875 392 
L 678 392 
" style="fill:none;stroke:#ffffff;stroke-linecap:square;stroke-width:0.8;"/>
     </g>
     <g id="line2d_14">
      <defs>
       <path d="M 0 0 
L -3.5 0 
" id="me357217dd6" style="stroke:#555555;stroke-width:0.8;"/>
      </defs>
      <g>
       <use style="fill:#555555;stroke:#555555;stroke-width:0.8;" x="68.471875" xlink:href="#me357217dd6" y="392"/>
      </g>
     </g>
     <g id="line2d_15">
      <defs>
       <path d="M 0 0 
L 3.5 0 
" id="m43c0753776" style="stroke:#555555;stroke-width:0.8;"/>
      </defs>
      <g>
       <use style="fill:#555555;stroke:#555555;stroke-width:0.8;" x="678" xlink:href="#m43c0753776" y="392"/>
      </g>
     </g>
     <g id="text_8">
      <!-- 0.1 -->
      <defs>
       <path d="M 23.796875 -1.09375 
Q 21.40625 -1.09375 19.703125 0.59375 
Q 18 2.296875 18 4.59375 
Q 18 6.90625 19.703125 8.59375 
Q 21.40625 10.296875 23.796875 10.296875 
Q 26.09375 10.296875 27.796875 8.59375 
Q 29.5 6.90625 29.5 4.59375 
Q 29.5 2.296875 27.796875 0.59375 
Q 26.09375 -1.09375 23.796875 -1.09375 
z
" id="Inconsolata-Regular-46"/>
      </defs>
      <g style="fill:#555555;" transform="translate(46.471875 395.325)scale(0.1 -0.1)">
       <use xlink:href="#Inconsolata-Regular-48"/>
       <use x="49.999985" xlink:href="#Inconsolata-Regular-46"/>
       <use x="99.999969" xlink:href="#Inconsolata-Regular-49"/>
      </g>
     </g>
     <g id="text_9">
      <!-- 0.1 -->
      <g style="fill:#555555;" transform="translate(685 395.325)scale(0.1 -0.1)">
       <use xlink:href="#Inconsolata-Regular-48"/>
       <use x="49.999985" xlink:href="#Inconsolata-Regular-46"/>
       <use x="99.999969" xlink:href="#Inconsolata-Regular-49"/>
      </g>
     </g>
    </g>
    <g id="ytick_2">
     <g id="line2d_16">
      <path clip-path="url(#pcf537c9f1d)" d="M 68.471875 354.434632 
L 678 354.434632 
" style="fill:none;stroke:#ffffff;stroke-linecap:square;stroke-width:0.8;"/>
     </g>
     <g id="line2d_17">
      <g>
       <use style="fill:#555555;stroke:#555555;stroke-width:0.8;" x="68.471875" xlink:href="#me357217dd6" y="354.434632"/>
      </g>
     </g>
     <g id="line2d_18">
      <g>
       <use style="fill:#555555;stroke:#555555;stroke-width:0.8;" x="678" xlink:href="#m43c0753776" y="354.434632"/>
      </g>
     </g>
     <g id="text_10">
      <!-- 1 -->
      <g style="fill:#555555;" transform="translate(56.471875 357.759632)scale(0.1 -0.1)">
       <use xlink:href="#Inconsolata-Regular-49"/>
      </g>
     </g>
     <g id="text_11">
      <!-- 1 -->
      <g style="fill:#555555;" transform="translate(685 357.759632)scale(0.1 -0.1)">
       <use xlink:href="#Inconsolata-Regular-49"/>
      </g>
     </g>
    </g>
    <g id="ytick_3">
     <g id="line2d_19">
      <path clip-path="url(#pcf537c9f1d)" d="M 68.471875 316.869265 
L 678 316.869265 
" style="fill:none;stroke:#ffffff;stroke-linecap:square;stroke-width:0.8;"/>
     </g>
     <g id="line2d_20">
      <g>
       <use style="fill:#555555;stroke:#555555;stroke-width:0.8;" x="68.471875" xlink:href="#me357217dd6" y="316.869265"/>
      </g>
     </g>
     <g id="line2d_21">
      <g>
       <use style="fill:#555555;stroke:#555555;stroke-width:0.8;" x="678" xlink:href="#m43c0753776" y="316.869265"/>
      </g>
     </g>
     <g id="text_12">
      <!-- 10 -->
      <g style="fill:#555555;" transform="translate(51.471875 320.194265)scale(0.1 -0.1)">
       <use xlink:href="#Inconsolata-Regular-49"/>
       <use x="49.999985" xlink:href="#Inconsolata-Regular-48"/>
      </g>
     </g>
     <g id="text_13">
      <!-- 10 -->
      <g style="fill:#555555;" transform="translate(685 320.194265)scale(0.1 -0.1)">
       <use xlink:href="#Inconsolata-Regular-49"/>
       <use x="49.999985" xlink:href="#Inconsolata-Regular-48"/>
      </g>
     </g>
    </g>
    <g id="ytick_4">
     <g id="line2d_22">
      <path clip-path="url(#pcf537c9f1d)" d="M 68.471875 279.303897 
L 678 279.303897 
" style="fill:none;stroke:#ffffff;stroke-linecap:square;stroke-width:0.8;"/>
     </g>
     <g id="line2d_23">
      <g>
       <use style="fill:#555555;stroke:#555555;stroke-width:0.8;" x="68.471875" xlink:href="#me357217dd6" y="279.303897"/>
      </g>
     </g>
     <g id="line2d_24">
      <g>
       <use style="fill:#555555;stroke:#555555;stroke-width:0.8;" x="678" xlink:href="#m43c0753776" y="279.303897"/>
      </g>
     </g>
     <g id="text_14">
      <!-- 100 -->
      <g style="fill:#555555;" transform="translate(46.471875 282.628897)scale(0.1 -0.1)">
       <use xlink:href="#Inconsolata-Regular-49"/>
       <use x="49.999985" xlink:href="#Inconsolata-Regular-48"/>
       <use x="99.999969" xlink:href="#Inconsolata-Regular-48"/>
      </g>
     </g>
     <g id="text_15">
      <!-- 100 -->
      <g style="fill:#555555;" transform="translate(685 282.628897)scale(0.1 -0.1)">
       <use xlink:href="#Inconsolata-Regular-49"/>
       <use x="49.999985" xlink:href="#Inconsolata-Regular-48"/>
       <use x="99.999969" xlink:href="#Inconsolata-Regular-48"/>
      </g>
     </g>
    </g>
    <g id="ytick_5">
     <g id="line2d_25">
      <path clip-path="url(#pcf537c9f1d)" d="M 68.471875 241.73853 
L 678 241.73853 
" style="fill:none;stroke:#ffffff;stroke-linecap:square;stroke-width:0.8;"/>
     </g>
     <g id="line2d_26">
      <g>
       <use style="fill:#555555;stroke:#555555;stroke-width:0.8;" x="68.471875" xlink:href="#me357217dd6" y="241.73853"/>
      </g>
     </g>
     <g id="line2d_27">
      <g>
       <use style="fill:#555555;stroke:#555555;stroke-width:0.8;" x="678" xlink:href="#m43c0753776" y="241.73853"/>
      </g>
     </g>
     <g id="text_16">
      <!-- 1000 -->
      <g style="fill:#555555;" transform="translate(41.471875 245.06353)scale(0.1 -0.1)">
       <use xlink:href="#Inconsolata-Regular-49"/>
       <use x="49.999985" xlink:href="#Inconsolata-Regular-48"/>
       <use x="99.999969" xlink:href="#Inconsolata-Regular-48"/>
       <use x="149.999954" xlink:href="#Inconsolata-Regular-48"/>
      </g>
     </g>
     <g id="text_17">
      <!-- 1000 -->
      <g style="fill:#555555;" transform="translate(685 245.06353)scale(0.1 -0.1)">
       <use xlink:href="#Inconsolata-Regular-49"/>
       <use x="49.999985" xlink:href="#Inconsolata-Regular-48"/>
       <use x="99.999969" xlink:href="#Inconsolata-Regular-48"/>
       <use x="149.999954" xlink:href="#Inconsolata-Regular-48"/>
      </g>
     </g>
    </g>
    <g id="ytick_6">
     <g id="line2d_28">
      <defs>
       <path d="M 0 0 
L -2 0 
" id="m3aa901e32a" style="stroke:#555555;stroke-width:0.6;"/>
      </defs>
      <g>
       <use style="fill:#555555;stroke:#555555;stroke-width:0.6;" x="68.471875" xlink:href="#m3aa901e32a" y="380.691698"/>
      </g>
     </g>
     <g id="line2d_29">
      <defs>
       <path d="M 0 0 
L 2 0 
" id="m8a91a53278" style="stroke:#555555;stroke-width:0.6;"/>
      </defs>
      <g>
       <use style="fill:#555555;stroke:#555555;stroke-width:0.6;" x="678" xlink:href="#m8a91a53278" y="380.691698"/>
      </g>
     </g>
    </g>
    <g id="ytick_7">
     <g id="line2d_30">
      <g>
       <use style="fill:#555555;stroke:#555555;stroke-width:0.6;" x="68.471875" xlink:href="#m3aa901e32a" y="374.076765"/>
      </g>
     </g>
     <g id="line2d_31">
      <g>
       <use style="fill:#555555;stroke:#555555;stroke-width:0.6;" x="678" xlink:href="#m8a91a53278" y="374.076765"/>
      </g>
     </g>
    </g>
    <g id="ytick_8">
     <g id="line2d_32">
      <g>
       <use style="fill:#555555;stroke:#555555;stroke-width:0.6;" x="68.471875" xlink:href="#m3aa901e32a" y="369.383395"/>
      </g>
     </g>
     <g id="line2d_33">
      <g>
       <use style="fill:#555555;stroke:#555555;stroke-width:0.6;" x="678" xlink:href="#m8a91a53278" y="369.383395"/>
      </g>
     </g>
    </g>
    <g id="ytick_9">
     <g id="line2d_34">
      <g>
       <use style="fill:#555555;stroke:#555555;stroke-width:0.6;" x="68.471875" xlink:href="#m3aa901e32a" y="365.742935"/>
      </g>
     </g>
     <g id="line2d_35">
      <g>
       <use style="fill:#555555;stroke:#555555;stroke-width:0.6;" x="678" xlink:href="#m8a91a53278" y="365.742935"/>
      </g>
     </g>
    </g>
    <g id="ytick_10">
     <g id="line2d_36">
      <g>
       <use style="fill:#555555;stroke:#555555;stroke-width:0.6;" x="68.471875" xlink:href="#m3aa901e32a" y="362.768462"/>
      </g>
     </g>
     <g id="line2d_37">
      <g>
       <use style="fill:#555555;stroke:#555555;stroke-width:0.6;" x="678" xlink:href="#m8a91a53278" y="362.768462"/>
      </g>
     </g>
    </g>
    <g id="ytick_11">
     <g id="line2d_38">
      <g>
       <use style="fill:#555555;stroke:#555555;stroke-width:0.6;" x="68.471875" xlink:href="#m3aa901e32a" y="360.253582"/>
      </g>
     </g>
     <g id="line2d_39">
      <g>
       <use style="fill:#555555;stroke:#555555;stroke-width:0.6;" x="678" xlink:href="#m8a91a53278" y="360.253582"/>
      </g>
     </g>
    </g>
    <g id="ytick_12">
     <g id="line2d_40">
      <g>
       <use style="fill:#555555;stroke:#555555;stroke-width:0.6;" x="68.471875" xlink:href="#m3aa901e32a" y="358.075093"/>
      </g>
     </g>
     <g id="line2d_41">
      <g>
       <use style="fill:#555555;stroke:#555555;stroke-width:0.6;" x="678" xlink:href="#m8a91a53278" y="358.075093"/>
      </g>
     </g>
    </g>
    <g id="ytick_13">
     <g id="line2d_42">
      <g>
       <use style="fill:#555555;stroke:#555555;stroke-width:0.6;" x="68.471875" xlink:href="#m3aa901e32a" y="356.153529"/>
      </g>
     </g>
     <g id="line2d_43">
      <g>
       <use style="fill:#555555;stroke:#555555;stroke-width:0.6;" x="678" xlink:href="#m8a91a53278" y="356.153529"/>
      </g>
     </g>
    </g>
    <g id="ytick_14">
     <g id="line2d_44">
      <g>
       <use style="fill:#555555;stroke:#555555;stroke-width:0.6;" x="68.471875" xlink:href="#m3aa901e32a" y="343.12633"/>
      </g>
     </g>
     <g id="line2d_45">
      <g>
       <use style="fill:#555555;stroke:#555555;stroke-width:0.6;" x="678" xlink:href="#m8a91a53278" y="343.12633"/>
      </g>
     </g>
    </g>
    <g id="ytick_15">
     <g id="line2d_46">
      <g>
       <use style="fill:#555555;stroke:#555555;stroke-width:0.6;" x="68.471875" xlink:href="#m3aa901e32a" y="336.511397"/>
      </g>
     </g>
     <g id="line2d_47">
      <g>
       <use style="fill:#555555;stroke:#555555;stroke-width:0.6;" x="678" xlink:href="#m8a91a53278" y="336.511397"/>
      </g>
     </g>
    </g>
    <g id="ytick_16">
     <g id="line2d_48">
      <g>
       <use style="fill:#555555;stroke:#555555;stroke-width:0.6;" x="68.471875" xlink:href="#m3aa901e32a" y="331.818028"/>
      </g>
     </g>
     <g id="line2d_49">
      <g>
       <use style="fill:#555555;stroke:#555555;stroke-width:0.6;" x="678" xlink:href="#m8a91a53278" y="331.818028"/>
      </g>
     </g>
    </g>
    <g id="ytick_17">
     <g id="line2d_50">
      <g>
       <use style="fill:#555555;stroke:#555555;stroke-width:0.6;" x="68.471875" xlink:href="#m3aa901e32a" y="328.177567"/>
      </g>
     </g>
     <g id="line2d_51">
      <g>
       <use style="fill:#555555;stroke:#555555;stroke-width:0.6;" x="678" xlink:href="#m8a91a53278" y="328.177567"/>
      </g>
     </g>
    </g>
    <g id="ytick_18">
     <g id="line2d_52">
      <g>
       <use style="fill:#555555;stroke:#555555;stroke-width:0.6;" x="68.471875" xlink:href="#m3aa901e32a" y="325.203095"/>
      </g>
     </g>
     <g id="line2d_53">
      <g>
       <use style="fill:#555555;stroke:#555555;stroke-width:0.6;" x="678" xlink:href="#m8a91a53278" y="325.203095"/>
      </g>
     </g>
    </g>
    <g id="ytick_19">
     <g id="line2d_54">
      <g>
       <use style="fill:#555555;stroke:#555555;stroke-width:0.6;" x="68.471875" xlink:href="#m3aa901e32a" y="322.688214"/>
      </g>
     </g>
     <g id="line2d_55">
      <g>
       <use style="fill:#555555;stroke:#555555;stroke-width:0.6;" x="678" xlink:href="#m8a91a53278" y="322.688214"/>
      </g>
     </g>
    </g>
    <g id="ytick_20">
     <g id="line2d_56">
      <g>
       <use style="fill:#555555;stroke:#555555;stroke-width:0.6;" x="68.471875" xlink:href="#m3aa901e32a" y="320.509725"/>
      </g>
     </g>
     <g id="line2d_57">
      <g>
       <use style="fill:#555555;stroke:#555555;stroke-width:0.6;" x="678" xlink:href="#m8a91a53278" y="320.509725"/>
      </g>
     </g>
    </g>
    <g id="ytick_21">
     <g id="line2d_58">
      <g>
       <use style="fill:#555555;stroke:#555555;stroke-width:0.6;" x="68.471875" xlink:href="#m3aa901e32a" y="318.588162"/>
      </g>
     </g>
     <g id="line2d_59">
      <g>
       <use style="fill:#555555;stroke:#555555;stroke-width:0.6;" x="678" xlink:href="#m8a91a53278" y="318.588162"/>
      </g>
     </g>
    </g>
    <g id="ytick_22">
     <g id="line2d_60">
      <g>
       <use style="fill:#555555;stroke:#555555;stroke-width:0.6;" x="68.471875" xlink:href="#m3aa901e32a" y="305.560962"/>
      </g>
     </g>
     <g id="line2d_61">
      <g>
       <use style="fill:#555555;stroke:#555555;stroke-width:0.6;" x="678" xlink:href="#m8a91a53278" y="305.560962"/>
      </g>
     </g>
    </g>
    <g id="ytick_23">
     <g id="line2d_62">
      <g>
       <use style="fill:#555555;stroke:#555555;stroke-width:0.6;" x="68.471875" xlink:href="#m3aa901e32a" y="298.94603"/>
      </g>
     </g>
     <g id="line2d_63">
      <g>
       <use style="fill:#555555;stroke:#555555;stroke-width:0.6;" x="678" xlink:href="#m8a91a53278" y="298.94603"/>
      </g>
     </g>
    </g>
    <g id="ytick_24">
     <g id="line2d_64">
      <g>
       <use style="fill:#555555;stroke:#555555;stroke-width:0.6;" x="68.471875" xlink:href="#m3aa901e32a" y="294.25266"/>
      </g>
     </g>
     <g id="line2d_65">
      <g>
       <use style="fill:#555555;stroke:#555555;stroke-width:0.6;" x="678" xlink:href="#m8a91a53278" y="294.25266"/>
      </g>
     </g>
    </g>
    <g id="ytick_25">
     <g id="line2d_66">
      <g>
       <use style="fill:#555555;stroke:#555555;stroke-width:0.6;" x="68.471875" xlink:href="#m3aa901e32a" y="290.6122"/>
      </g>
     </g>
     <g id="line2d_67">
      <g>
       <use style="fill:#555555;stroke:#555555;stroke-width:0.6;" x="678" xlink:href="#m8a91a53278" y="290.6122"/>
      </g>
     </g>
    </g>
    <g id="ytick_26">
     <g id="line2d_68">
      <g>
       <use style="fill:#555555;stroke:#555555;stroke-width:0.6;" x="68.471875" xlink:href="#m3aa901e32a" y="287.637727"/>
      </g>
     </g>
     <g id="line2d_69">
      <g>
       <use style="fill:#555555;stroke:#555555;stroke-width:0.6;" x="678" xlink:href="#m8a91a53278" y="287.637727"/>
      </g>
     </g>
    </g>
    <g id="ytick_27">
     <g id="line2d_70">
      <g>
       <use style="fill:#555555;stroke:#555555;stroke-width:0.6;" x="68.471875" xlink:href="#m3aa901e32a" y="285.122846"/>
      </g>
     </g>
     <g id="line2d_71">
      <g>
       <use style="fill:#555555;stroke:#555555;stroke-width:0.6;" x="678" xlink:href="#m8a91a53278" y="285.122846"/>
      </g>
     </g>
    </g>
    <g id="ytick_28">
     <g id="line2d_72">
      <g>
       <use style="fill:#555555;stroke:#555555;stroke-width:0.6;" x="68.471875" xlink:href="#m3aa901e32a" y="282.944358"/>
      </g>
     </g>
     <g id="line2d_73">
      <g>
       <use style="fill:#555555;stroke:#555555;stroke-width:0.6;" x="678" xlink:href="#m8a91a53278" y="282.944358"/>
      </g>
     </g>
    </g>
    <g id="ytick_29">
     <g id="line2d_74">
      <g>
       <use style="fill:#555555;stroke:#555555;stroke-width:0.6;" x="68.471875" xlink:href="#m3aa901e32a" y="281.022794"/>
      </g>
     </g>
     <g id="line2d_75">
      <g>
       <use style="fill:#555555;stroke:#555555;stroke-width:0.6;" x="678" xlink:href="#m8a91a53278" y="281.022794"/>
      </g>
     </g>
    </g>
    <g id="ytick_30">
     <g id="line2d_76">
      <g>
       <use style="fill:#555555;stroke:#555555;stroke-width:0.6;" x="68.471875" xlink:href="#m3aa901e32a" y="267.995595"/>
      </g>
     </g>
     <g id="line2d_77">
      <g>
       <use style="fill:#555555;stroke:#555555;stroke-width:0.6;" x="678" xlink:href="#m8a91a53278" y="267.995595"/>
      </g>
     </g>
    </g>
    <g id="ytick_31">
     <g id="line2d_78">
      <g>
       <use style="fill:#555555;stroke:#555555;stroke-width:0.6;" x="68.471875" xlink:href="#m3aa901e32a" y="261.380662"/>
      </g>
     </g>
     <g id="line2d_79">
      <g>
       <use style="fill:#555555;stroke:#555555;stroke-width:0.6;" x="678" xlink:href="#m8a91a53278" y="261.380662"/>
      </g>
     </g>
    </g>
    <g id="ytick_32">
     <g id="line2d_80">
      <g>
       <use style="fill:#555555;stroke:#555555;stroke-width:0.6;" x="68.471875" xlink:href="#m3aa901e32a" y="256.687293"/>
      </g>
     </g>
     <g id="line2d_81">
      <g>
       <use style="fill:#555555;stroke:#555555;stroke-width:0.6;" x="678" xlink:href="#m8a91a53278" y="256.687293"/>
      </g>
     </g>
    </g>
    <g id="ytick_33">
     <g id="line2d_82">
      <g>
       <use style="fill:#555555;stroke:#555555;stroke-width:0.6;" x="68.471875" xlink:href="#m3aa901e32a" y="253.046832"/>
      </g>
     </g>
     <g id="line2d_83">
      <g>
       <use style="fill:#555555;stroke:#555555;stroke-width:0.6;" x="678" xlink:href="#m8a91a53278" y="253.046832"/>
      </g>
     </g>
    </g>
    <g id="ytick_34">
     <g id="line2d_84">
      <g>
       <use style="fill:#555555;stroke:#555555;stroke-width:0.6;" x="68.471875" xlink:href="#m3aa901e32a" y="250.07236"/>
      </g>
     </g>
     <g id="line2d_85">
      <g>
       <use style="fill:#555555;stroke:#555555;stroke-width:0.6;" x="678" xlink:href="#m8a91a53278" y="250.07236"/>
      </g>
     </g>
    </g>
    <g id="ytick_35">
     <g id="line2d_86">
      <g>
       <use style="fill:#555555;stroke:#555555;stroke-width:0.6;" x="68.471875" xlink:href="#m3aa901e32a" y="247.557479"/>
      </g>
     </g>
     <g id="line2d_87">
      <g>
       <use style="fill:#555555;stroke:#555555;stroke-width:0.6;" x="678" xlink:href="#m8a91a53278" y="247.557479"/>
      </g>
     </g>
    </g>
    <g id="ytick_36">
     <g id="line2d_88">
      <g>
       <use style="fill:#555555;stroke:#555555;stroke-width:0.6;" x="68.471875" xlink:href="#m3aa901e32a" y="245.37899"/>
      </g>
     </g>
     <g id="line2d_89">
      <g>
       <use style="fill:#555555;stroke:#555555;stroke-width:0.6;" x="678" xlink:href="#m8a91a53278" y="245.37899"/>
      </g>
     </g>
    </g>
    <g id="ytick_37">
     <g id="line2d_90">
      <g>
       <use style="fill:#555555;stroke:#555555;stroke-width:0.6;" x="68.471875" xlink:href="#m3aa901e32a" y="243.457427"/>
      </g>
     </g>
     <g id="line2d_91">
      <g>
       <use style="fill:#555555;stroke:#555555;stroke-width:0.6;" x="678" xlink:href="#m8a91a53278" y="243.457427"/>
      </g>
     </g>
    </g>
    <g id="ytick_38">
     <g id="line2d_92">
      <g>
       <use style="fill:#555555;stroke:#555555;stroke-width:0.6;" x="68.471875" xlink:href="#m3aa901e32a" y="230.430227"/>
      </g>
     </g>
     <g id="line2d_93">
      <g>
       <use style="fill:#555555;stroke:#555555;stroke-width:0.6;" x="678" xlink:href="#m8a91a53278" y="230.430227"/>
      </g>
     </g>
    </g>
    <g id="ytick_39">
     <g id="line2d_94">
      <g>
       <use style="fill:#555555;stroke:#555555;stroke-width:0.6;" x="68.471875" xlink:href="#m3aa901e32a" y="223.815295"/>
      </g>
     </g>
     <g id="line2d_95">
      <g>
       <use style="fill:#555555;stroke:#555555;stroke-width:0.6;" x="678" xlink:href="#m8a91a53278" y="223.815295"/>
      </g>
     </g>
    </g>
    <g id="text_18">
     <!-- daily new deaths -->
     <defs>
      <path d="M 7.90625 0 
L 7.90625 5.796875 
L 21.40625 5.796875 
L 21.40625 60.703125 
L 8.5 60.703125 
L 8.5 66.5 
L 28.703125 66.5 
L 28.703125 5.796875 
L 42.09375 5.796875 
L 42.09375 0 
z
" id="Inconsolata-Regular-108"/>
      <path d="M 1.59375 45.703125 
L 7.90625 45.703125 
L 15.296875 9 
L 23.09375 41.40625 
L 27.5 41.40625 
L 37.203125 9.09375 
Q 40 27.796875 40.703125 33.640625 
Q 41.40625 39.5 41.40625 44.203125 
L 41.40625 45.703125 
L 48.09375 45.703125 
Q 45.09375 22.5 40.5 -0.09375 
L 33.703125 -0.09375 
L 25.296875 29.5 
L 17.296875 -0.09375 
L 10.796875 -0.09375 
z
" id="Inconsolata-Regular-119"/>
     </defs>
     <g style="fill:#555555;" transform="translate(23.718375 354.5)rotate(-90)scale(0.12 -0.12)">
      <use xlink:href="#Inconsolata-Regular-100"/>
      <use x="49.999985" xlink:href="#Inconsolata-Regular-97"/>
      <use x="99.999969" xlink:href="#Inconsolata-Regular-105"/>
      <use x="149.999954" xlink:href="#Inconsolata-Regular-108"/>
      <use x="199.999939" xlink:href="#Inconsolata-Regular-121"/>
      <use x="249.999924" xlink:href="#Inconsolata-Regular-32"/>
      <use x="299.999908" xlink:href="#Inconsolata-Regular-110"/>
      <use x="349.999893" xlink:href="#Inconsolata-Regular-101"/>
      <use x="399.999878" xlink:href="#Inconsolata-Regular-119"/>
      <use x="449.999863" xlink:href="#Inconsolata-Regular-32"/>
      <use x="499.999847" xlink:href="#Inconsolata-Regular-100"/>
      <use x="549.999832" xlink:href="#Inconsolata-Regular-101"/>
      <use x="599.999817" xlink:href="#Inconsolata-Regular-97"/>
      <use x="649.999802" xlink:href="#Inconsolata-Regular-116"/>
      <use x="699.999786" xlink:href="#Inconsolata-Regular-104"/>
      <use x="749.999771" xlink:href="#Inconsolata-Regular-115"/>
     </g>
     <!-- (rolling 7-day mean) -->
     <defs>
      <path d="M 39.5 -17.40625 
Q 31.296875 -13.59375 25.09375 -7 
Q 18.90625 -0.40625 15.546875 7.890625 
Q 12.203125 16.203125 12.203125 25 
Q 12.203125 33.796875 15.5 41.890625 
Q 18.796875 50 24.84375 56.34375 
Q 30.90625 62.703125 38.90625 66.5 
L 40.796875 60.296875 
Q 31 55 25.140625 45.390625 
Q 19.296875 35.796875 19.296875 24.703125 
Q 19.296875 13.5 25.296875 3.703125 
Q 31.296875 -6.09375 41.40625 -11.40625 
L 39.5 -17.40625 
z
" id="Inconsolata-Regular-40"/>
      <path d="M 42.59375 36.203125 
L 42.59375 36.09375 
Q 39.703125 38.796875 37.75 39.6875 
Q 35.796875 40.59375 33.203125 40.59375 
Q 29.59375 40.59375 26.390625 38.796875 
Q 23.203125 37 21.203125 33.34375 
Q 19.203125 29.703125 19.203125 24.203125 
L 19.203125 -0.09375 
L 11.90625 -0.09375 
L 11.90625 45.703125 
L 19.40625 45.703125 
L 19.203125 37.296875 
Q 21.09375 41.796875 25.046875 44.296875 
Q 29 46.796875 33.703125 46.796875 
Q 41 46.796875 45.796875 41.796875 
z
M 42.59375 36.09375 
Q 43.296875 35.5 42.9375 35.59375 
Q 42.59375 35.703125 42.40625 35.796875 
L 42.59375 36.09375 
z
M 41.5 35.796875 
Q 41.5 36.09375 41.796875 36.046875 
Q 42.09375 36 42.40625 35.796875 
L 42.203125 35.296875 
L 41.5 35.703125 
z
" id="Inconsolata-Regular-114"/>
      <path d="M 25 -0.796875 
Q 18.90625 -0.796875 14.09375 2.203125 
Q 9.296875 5.203125 6.59375 10.59375 
Q 3.90625 16 3.90625 22.90625 
Q 3.90625 29.796875 6.59375 35.1875 
Q 9.296875 40.59375 14.09375 43.640625 
Q 18.90625 46.703125 25 46.703125 
Q 31.09375 46.703125 35.890625 43.640625 
Q 40.703125 40.59375 43.390625 35.1875 
Q 46.09375 29.796875 46.09375 22.90625 
Q 46.09375 16 43.390625 10.59375 
Q 40.703125 5.203125 35.890625 2.203125 
Q 31.09375 -0.796875 25 -0.796875 
z
M 25 5.203125 
Q 28.90625 5.203125 31.953125 7.5 
Q 35 9.796875 36.75 13.84375 
Q 38.5 17.90625 38.5 23 
Q 38.5 30.796875 34.703125 35.75 
Q 30.90625 40.703125 25 40.703125 
Q 19.09375 40.703125 15.296875 35.75 
Q 11.5 30.796875 11.5 23 
Q 11.5 17.90625 13.25 13.84375 
Q 15 9.796875 18.046875 7.5 
Q 21.09375 5.203125 25 5.203125 
z
" id="Inconsolata-Regular-111"/>
      <path d="M 47.5 41 
Q 46.59375 41.09375 44.90625 41.09375 
Q 40.09375 41.09375 36.90625 39 
Q 38.59375 35.59375 38.59375 31.5 
Q 38.59375 27 36.640625 23.34375 
Q 34.703125 19.703125 31.046875 17.59375 
Q 27.40625 15.5 22.59375 15.5 
Q 18.796875 15.5 15.5 16.90625 
Q 13.703125 14.703125 13.703125 12.703125 
Q 13.703125 10.296875 16.75 9.25 
Q 19.796875 8.203125 27.703125 8.203125 
Q 37.40625 8.203125 40.953125 5.25 
Q 44.5 2.296875 44.5 -3.40625 
Q 44.5 -9.296875 39.703125 -13.25 
Q 34.90625 -17.203125 24.703125 -17.203125 
Q 14.90625 -17.203125 9.34375 -14.203125 
Q 3.796875 -11.203125 3.796875 -5.40625 
Q 3.796875 -1.796875 5.796875 0.796875 
Q 7.796875 3.40625 10.90625 4.90625 
Q 7.59375 7.09375 7.59375 11 
Q 7.59375 15 11.703125 19.40625 
Q 9.203125 21.59375 7.890625 24.6875 
Q 6.59375 27.796875 6.59375 31.5 
Q 6.59375 35.90625 8.546875 39.546875 
Q 10.5 43.203125 14.140625 45.296875 
Q 17.796875 47.40625 22.59375 47.40625 
Q 29.90625 47.40625 34.296875 42.703125 
Q 36.703125 44.90625 39.25 45.953125 
Q 41.796875 47 44.90625 47 
L 46.59375 46.90625 
L 47.5 41 
z
M 22.59375 21.5 
Q 26.90625 21.5 29.75 24.390625 
Q 32.59375 27.296875 32.59375 31.5 
Q 32.59375 35.703125 29.75 38.59375 
Q 26.90625 41.5 22.59375 41.5 
Q 18.296875 41.5 15.4375 38.59375 
Q 12.59375 35.703125 12.59375 31.5 
Q 12.59375 27.296875 15.4375 24.390625 
Q 18.296875 21.5 22.59375 21.5 
z
M 37.90625 -4.5 
Q 37.90625 -2.09375 37.046875 -0.75 
Q 36.203125 0.59375 33.703125 1.25 
Q 31.203125 1.90625 26.203125 1.90625 
Q 19 1.90625 14.703125 3.203125 
Q 12.296875 1.59375 11.34375 -0.09375 
Q 10.40625 -1.796875 10.40625 -4.59375 
Q 10.40625 -8 14.203125 -9.890625 
Q 18 -11.796875 24.796875 -11.796875 
Q 31.40625 -11.796875 34.65625 -9.84375 
Q 37.90625 -7.90625 37.90625 -4.5 
z
" id="Inconsolata-Regular-103"/>
      <path d="M 15.5 0 
Q 24.203125 28.5 34.5 55.703125 
L 7.90625 55.703125 
L 7.90625 62.296875 
L 43.203125 62.296875 
L 43.203125 58.40625 
Q 30.90625 27.40625 23.40625 0 
L 15.5 0 
z
" id="Inconsolata-Regular-55"/>
      <path d="M 7.09375 28.09375 
L 7.09375 34.796875 
L 43.09375 34.796875 
L 43.09375 28.09375 
z
" id="Inconsolata-Regular-45"/>
      <path d="M 3.796875 45.703125 
L 10.40625 45.703125 
L 10.40625 41.203125 
Q 12 43.703125 14.5 45.25 
Q 17 46.796875 19.703125 46.796875 
Q 22.703125 46.796875 24.953125 44.890625 
Q 27.203125 43 27.796875 40.09375 
Q 29.09375 43.09375 31.890625 44.9375 
Q 34.703125 46.796875 38.09375 46.796875 
Q 42.59375 46.796875 44.84375 43.546875 
Q 47.09375 40.296875 46.90625 35.09375 
L 46.90625 0 
L 40.296875 0 
L 40.296875 32.40625 
Q 40.296875 38.09375 39.1875 39.796875 
Q 38.09375 41.5 36 41.5 
Q 34.203125 41.5 32.5 39.796875 
Q 30.796875 38.09375 29.75 35.4375 
Q 28.703125 32.796875 28.703125 30.203125 
L 28.703125 0 
L 22 0 
L 22 31.796875 
Q 22 37.40625 20.953125 39.34375 
Q 19.90625 41.296875 17 41.296875 
Q 15.5 41.296875 13.953125 39.9375 
Q 12.40625 38.59375 11.40625 36.140625 
Q 10.40625 33.703125 10.40625 30.5 
L 10.40625 0 
L 3.796875 0 
z
" id="Inconsolata-Regular-109"/>
      <path d="M 11.40625 -11.40625 
Q 21.5 -6.09375 27.5 3.703125 
Q 33.5 13.5 33.5 24.703125 
Q 33.5 35.796875 27.640625 45.390625 
Q 21.796875 55 12 60.296875 
L 13.90625 66.5 
Q 21.90625 62.703125 27.953125 56.34375 
Q 34 50 37.296875 41.890625 
Q 40.59375 33.796875 40.59375 25 
Q 40.59375 16.203125 37.25 7.890625 
Q 33.90625 -0.40625 27.703125 -7 
Q 21.5 -13.59375 13.296875 -17.40625 
z
" id="Inconsolata-Regular-41"/>
     </defs>
     <g style="fill:#555555;" transform="translate(35.383125 366.5)rotate(-90)scale(0.12 -0.12)">
      <use xlink:href="#Inconsolata-Regular-40"/>
      <use x="49.999985" xlink:href="#Inconsolata-Regular-114"/>
      <use x="99.999969" xlink:href="#Inconsolata-Regular-111"/>
      <use x="149.999954" xlink:href="#Inconsolata-Regular-108"/>
      <use x="199.999939" xlink:href="#Inconsolata-Regular-108"/>
      <use x="249.999924" xlink:href="#Inconsolata-Regular-105"/>
      <use x="299.999908" xlink:href="#Inconsolata-Regular-110"/>
      <use x="349.999893" xlink:href="#Inconsolata-Regular-103"/>
      <use x="399.999878" xlink:href="#Inconsolata-Regular-32"/>
      <use x="449.999863" xlink:href="#Inconsolata-Regular-55"/>
      <use x="499.999847" xlink:href="#Inconsolata-Regular-45"/>
      <use x="549.999832" xlink:href="#Inconsolata-Regular-100"/>
      <use x="599.999817" xlink:href="#Inconsolata-Regular-97"/>
      <use x="649.999802" xlink:href="#Inconsolata-Regular-121"/>
      <use x="699.999786" xlink:href="#Inconsolata-Regular-32"/>
      <use x="749.999771" xlink:href="#Inconsolata-Regular-109"/>
      <use x="799.999756" xlink:href="#Inconsolata-Regular-101"/>
      <use x="849.999741" xlink:href="#Inconsolata-Regular-97"/>
      <use x="899.999725" xlink:href="#Inconsolata-Regular-110"/>
      <use x="949.99971" xlink:href="#Inconsolata-Regular-41"/>
     </g>
    </g>
   </g>
   <g id="line2d_96">
    <path clip-path="url(#pcf537c9f1d)" d="M -0.767101 433 
L -0.759904 386.181051 
L 5.00941 374.872749 
L 10.778725 374.872749 
L 16.54804 356.949513 
L 22.317355 352.256144 
L 28.08667 348.615683 
L 33.855985 345.641211 
L 39.6253 345.641211 
L 45.394615 347.060752 
L 51.16393 343.12633 
L 56.933245 347.060752 
L 62.70256 337.307381 
L 68.471875 339.026278 
L 74.24119 335.027244 
L 80.010505 335.75245 
L 85.77982 331.245533 
L 91.549135 331.818028 
L 97.31845 329.137517 
L 103.087765 333.666921 
L 108.85708 333.027057 
L 114.626395 333.666921 
L 120.39571 330.157501 
L 126.165025 334.332908 
L 131.93434 331.818028 
L 137.703654 333.666921 
L 143.472969 335.75245 
L 149.242284 332.411345 
L 155.011599 334.332908 
L 160.780914 333.666921 
L 166.550229 331.818028 
L 172.319544 330.692448 
L 178.088859 327.717975 
L 183.858174 327.717975 
L 195.396804 325.203095 
L 201.166119 325.999079 
L 206.935434 324.077515 
L 212.704749 325.203095 
L 218.474064 325.596233 
L 224.243379 323.36808 
L 230.012694 325.203095 
L 235.782009 326.412124 
L 241.551324 326.835899 
L 247.320639 328.177567 
L 258.859269 330.157501 
L 264.628583 331.818028 
L 270.397898 330.692448 
L 276.167213 328.177567 
L 281.936528 328.177567 
L 287.705843 328.650483 
L 293.475158 328.650483 
L 299.244473 330.157501 
L 305.013788 330.157501 
L 310.783103 330.692448 
L 316.552418 333.666921 
L 322.321733 333.666921 
L 328.091048 335.75245 
L 339.629678 337.307381 
L 345.398993 338.144202 
L 351.168308 342.000751 
L 356.937623 344.335359 
L 362.706938 347.060752 
L 368.476253 348.615683 
L 374.245568 348.615683 
L 380.014883 350.33458 
L 385.784198 352.256144 
L 391.553512 350.33458 
L 397.322827 350.33458 
L 403.092142 352.256144 
L 408.861457 348.615683 
L 414.630772 352.256144 
L 420.400087 350.33458 
L 426.169402 348.615683 
L 431.938717 350.33458 
L 437.708032 350.33458 
L 443.477347 352.256144 
L 449.246662 356.949513 
L 455.015977 356.949513 
L 460.785292 363.564446 
L 483.862552 363.564446 
L 489.631867 356.949513 
L 495.401182 356.949513 
L 501.170497 354.434632 
L 506.939812 359.923986 
L 512.709127 363.564446 
L 541.555701 363.564446 
L 547.325016 356.949513 
L 553.094331 356.949513 
L 558.863646 359.923986 
L 564.632961 359.923986 
L 570.402276 368.257816 
L 576.171591 363.564446 
L 581.940906 363.564446 
L 587.710221 368.257816 
L 593.479536 363.564446 
L 628.095426 363.564446 
L 628.095426 363.564446 
" style="fill:none;stroke:#e24a33;stroke-linecap:square;stroke-width:4;"/>
   </g>
   <g id="line2d_97">
    <defs>
     <path d="M 0 3 
C 0.795609 3 1.55874 2.683901 2.12132 2.12132 
C 2.683901 1.55874 3 0.795609 3 0 
C 3 -0.795609 2.683901 -1.55874 2.12132 -2.12132 
C 1.55874 -2.683901 0.795609 -3 0 -3 
C -0.795609 -3 -1.55874 -2.683901 -2.12132 -2.12132 
C -2.683901 -1.55874 -3 -0.795609 -3 0 
C -3 0.795609 -2.683901 1.55874 -2.12132 2.12132 
C -1.55874 2.683901 -0.795609 3 0 3 
z
" id="mebfb7d489a" style="stroke:#e24a33;"/>
    </defs>
    <g clip-path="url(#pcf537c9f1d)">
     <use style="fill:#e24a33;stroke:#e24a33;" x="628.095426" xlink:href="#mebfb7d489a" y="363.564446"/>
    </g>
   </g>
   <g id="line2d_98">
    <path clip-path="url(#pcf537c9f1d)" d="M 28.077738 433 
L 28.08667 374.872749 
L 33.855985 374.872749 
L 39.6253 368.257816 
L 45.394615 368.257816 
L 51.16393 354.434632 
L 56.933245 350.33458 
L 62.70256 347.060752 
L 68.471875 342.000751 
L 74.24119 335.75245 
L 80.010505 333.666921 
L 85.77982 325.596233 
L 91.549135 319.384146 
L 97.31845 315.743685 
L 103.087765 314.090177 
L 108.85708 310.099692 
L 114.626395 306.397783 
L 120.39571 301.643196 
L 126.165025 297.966116 
L 131.93434 294.546622 
L 137.703654 290.658879 
L 143.472969 286.9159 
L 155.011599 281.336543 
L 160.780914 278.980829 
L 166.550229 276.329425 
L 172.319544 274.616355 
L 178.088859 273.306469 
L 183.858174 272.673434 
L 189.627489 270.993391 
L 195.396804 269.962377 
L 201.166119 267.661106 
L 206.935434 266.870015 
L 212.704749 266.957259 
L 218.474064 269.305331 
L 224.243379 267.558678 
L 230.012694 268.183119 
L 235.782009 269.483078 
L 241.551324 267.36694 
L 247.320639 267.479454 
L 253.089954 265.970775 
L 258.859269 264.608805 
L 264.628583 266.188373 
L 270.397898 265.138072 
L 276.167213 264.458006 
L 281.936528 267.144214 
L 287.705843 266.621759 
L 293.475158 267.902635 
L 299.244473 267.787175 
L 305.013788 268.112545 
L 310.783103 269.662782 
L 316.552418 269.444826 
L 322.321733 270.674441 
L 328.091048 272.720069 
L 333.860363 273.88127 
L 345.398993 275.386131 
L 351.168308 275.813284 
L 356.937623 279.800822 
L 362.706938 276.963075 
L 368.476253 277.770167 
L 374.245568 277.664435 
L 391.553512 280.067285 
L 397.322827 278.287445 
L 403.092142 282.20396 
L 408.861457 285.056392 
L 414.630772 288.972737 
L 426.169402 288.721741 
L 431.938717 290.989429 
L 437.708032 290.941795 
L 443.477347 294.078792 
L 449.246662 292.125234 
L 455.015977 291.522786 
L 460.785292 291.921936 
L 466.554607 292.023268 
L 478.093237 293.624005 
L 483.862552 294.021246 
L 489.631867 295.028264 
L 495.401182 294.487404 
L 501.170497 294.906513 
L 512.709127 296.364695 
L 518.478441 300.493194 
L 524.247756 302.013995 
L 530.017071 302.880452 
L 535.786386 304.006031 
L 553.094331 304.006031 
L 553.094331 304.006031 
" style="fill:none;stroke:#348abd;stroke-linecap:square;stroke-opacity:0.4;stroke-width:2;"/>
   </g>
   <g id="line2d_99">
    <defs>
     <path d="M 0 3 
C 0.795609 3 1.55874 2.683901 2.12132 2.12132 
C 2.683901 1.55874 3 0.795609 3 0 
C 3 -0.795609 2.683901 -1.55874 2.12132 -2.12132 
C 1.55874 -2.683901 0.795609 -3 0 -3 
C -0.795609 -3 -1.55874 -2.683901 -2.12132 -2.12132 
C -2.683901 -1.55874 -3 -0.795609 -3 0 
C -3 0.795609 -2.683901 1.55874 -2.12132 2.12132 
C -1.55874 2.683901 -0.795609 3 0 3 
z
" id="m8fca175cbe" style="stroke:#348abd;stroke-opacity:0.4;"/>
    </defs>
    <g clip-path="url(#pcf537c9f1d)">
     <use style="fill:#348abd;fill-opacity:0.4;stroke:#348abd;stroke-opacity:0.4;" x="553.094331" xlink:href="#m8fca175cbe" y="304.006031"/>
    </g>
   </g>
   <g id="line2d_100">
    <path clip-path="url(#pcf537c9f1d)" d="M -1 368.062497 
L -0.759904 368.257816 
L 5.00941 374.872749 
L 10.778725 354.434632 
L 16.54804 356.949513 
L 22.317355 354.434632 
L 28.08667 350.33458 
L 33.855985 348.615683 
L 39.6253 348.615683 
L 45.394615 345.641211 
L 51.16393 347.060752 
L 56.933245 342.000751 
L 62.70256 340.947841 
L 68.471875 338.144202 
L 74.24119 335.027244 
L 80.010505 332.411345 
L 85.77982 330.692448 
L 91.549135 332.411345 
L 97.31845 333.027057 
L 103.087765 332.411345 
L 108.85708 333.666921 
L 114.626395 336.511397 
L 120.39571 339.958785 
L 126.165025 344.335359 
L 131.93434 345.641211 
L 137.703654 345.641211 
L 143.472969 348.615683 
L 149.242284 354.434632 
L 155.011599 356.949513 
L 160.780914 359.923986 
L 166.550229 363.564446 
L 172.319544 345.641211 
L 178.088859 344.335359 
L 183.858174 344.335359 
L 189.627489 340.947841 
L 195.396804 340.947841 
L 201.166119 335.75245 
L 206.935434 334.332908 
L 212.704749 339.026278 
L 218.474064 343.12633 
L 224.243379 343.12633 
L 230.012694 345.641211 
L 235.782009 344.335359 
L 241.551324 352.256144 
L 247.320639 356.949513 
L 253.089954 363.564446 
L 258.859269 363.564446 
L 264.628583 368.257816 
L 270.397898 374.872749 
L 276.167213 386.181051 
L 305.013788 386.181051 
L 310.783103 374.872749 
L 328.091048 374.872749 
L 333.860363 368.257816 
L 339.629678 368.257816 
L 345.398993 363.564446 
L 351.168308 368.257816 
L 368.476253 368.257816 
L 374.245568 374.872749 
L 380.014883 374.872749 
L 385.784198 386.181051 
L 391.553512 386.181051 
L 391.560709 433 
L 391.560709 433 
" style="fill:none;stroke:#988ed5;stroke-linecap:square;stroke-opacity:0.4;stroke-width:2;"/>
   </g>
   <g id="line2d_101">
    <defs>
     <path d="M 0 3 
C 0.795609 3 1.55874 2.683901 2.12132 2.12132 
C 2.683901 1.55874 3 0.795609 3 0 
C 3 -0.795609 2.683901 -1.55874 2.12132 -2.12132 
C 1.55874 -2.683901 0.795609 -3 0 -3 
C -0.795609 -3 -1.55874 -2.683901 -2.12132 -2.12132 
C -2.683901 -1.55874 -3 -0.795609 -3 0 
C -3 0.795609 -2.683901 1.55874 -2.12132 2.12132 
C -1.55874 2.683901 -0.795609 3 0 3 
z
" id="m8060a11933" style="stroke:#988ed5;stroke-opacity:0.4;"/>
    </defs>
    <g clip-path="url(#pcf537c9f1d)">
     <use style="fill:#988ed5;fill-opacity:0.4;stroke:#988ed5;stroke-opacity:0.4;" x="0" xlink:href="#m8060a11933" y="0"/>
    </g>
   </g>
   <g id="line2d_102">
    <path clip-path="url(#pcf537c9f1d)" d="M -1 360.075487 
L -0.759904 359.923986 
L 5.00941 359.923986 
L 10.778725 363.564446 
L 16.54804 368.257816 
L 22.317355 374.872749 
L 28.08667 363.564446 
L 33.855985 363.564446 
L 39.6253 359.923986 
L 45.394615 350.33458 
L 51.16393 347.060752 
L 56.933245 347.060752 
L 62.70256 344.335359 
L 68.471875 342.000751 
L 74.24119 335.027244 
L 80.010505 335.027244 
L 85.77982 331.245533 
L 91.549135 325.596233 
L 97.31845 320.803687 
L 103.087765 319.114479 
L 108.85708 316.409673 
L 114.626395 315.527597 
L 120.39571 311.716303 
L 126.165025 308.628928 
L 131.93434 308.488889 
L 137.703654 309.495384 
L 143.472969 306.895973 
L 149.242284 305.795707 
L 155.011599 305.795707 
L 160.780914 306.275577 
L 166.550229 307.150891 
L 172.319544 305.560962 
L 178.088859 304.326981 
L 189.627489 307.022934 
L 195.396804 306.15428 
L 201.166119 305.795707 
L 206.935434 305.560962 
L 212.704749 305.560962 
L 218.474064 303.179807 
L 224.243379 301.735109 
L 230.012694 301.920502 
L 235.782009 301.280639 
L 241.551324 300.155059 
L 247.320639 299.905979 
L 253.089954 300.578834 
L 258.859269 303.691273 
L 264.628583 305.560962 
L 270.397898 305.215061 
L 276.167213 306.033878 
L 281.936528 308.075843 
L 287.705843 309.644376 
L 293.475158 309.347741 
L 299.244473 307.409856 
L 305.013788 307.940453 
L 310.783103 307.806177 
L 316.552418 309.056405 
L 322.321733 307.672997 
L 328.091048 307.022934 
L 333.860363 307.022934 
L 339.629678 306.644977 
L 345.398993 306.769992 
L 351.168308 307.409856 
L 356.937623 307.409856 
L 362.706938 309.644376 
L 368.476253 310.887982 
L 374.245568 312.951499 
L 380.014883 315.743685 
L 385.784198 315.103822 
L 391.553512 316.637851 
L 397.322827 316.637851 
L 403.092142 315.527597 
L 408.861457 317.829214 
L 414.630772 317.829214 
L 420.400087 317.104009 
L 426.169402 317.34218 
L 431.938717 317.34218 
L 437.708032 317.58388 
L 443.477347 317.34218 
L 449.246662 313.322297 
L 455.015977 314.895992 
L 460.785292 313.510906 
L 478.093237 313.510906 
L 478.093237 313.510906 
" style="fill:none;stroke:#777777;stroke-linecap:square;stroke-opacity:0.4;stroke-width:2;"/>
   </g>
   <g id="line2d_103">
    <defs>
     <path d="M 0 3 
C 0.795609 3 1.55874 2.683901 2.12132 2.12132 
C 2.683901 1.55874 3 0.795609 3 0 
C 3 -0.795609 2.683901 -1.55874 2.12132 -2.12132 
C 1.55874 -2.683901 0.795609 -3 0 -3 
C -0.795609 -3 -1.55874 -2.683901 -2.12132 -2.12132 
C -2.683901 -1.55874 -3 -0.795609 -3 0 
C -3 0.795609 -2.683901 1.55874 -2.12132 2.12132 
C -1.55874 2.683901 -0.795609 3 0 3 
z
" id="m3c1e533697" style="stroke:#777777;stroke-opacity:0.4;"/>
    </defs>
    <g clip-path="url(#pcf537c9f1d)">
     <use style="fill:#777777;fill-opacity:0.4;stroke:#777777;stroke-opacity:0.4;" x="478.093237" xlink:href="#m3c1e533697" y="313.510906"/>
    </g>
   </g>
   <g id="line2d_104">
    <path clip-path="url(#pcf537c9f1d)" d="M -1 364.035052 
L -0.759904 363.564446 
L 5.00941 363.564446 
L 10.778725 359.923986 
L 16.54804 352.256144 
L 22.317355 344.335359 
L 33.855985 347.060752 
L 39.6253 345.641211 
L 45.394615 342.000751 
L 51.16393 339.026278 
L 56.933245 339.026278 
L 62.70256 340.947841 
L 68.471875 337.307381 
L 74.24119 335.027244 
L 80.010505 334.332908 
L 97.31845 336.511397 
L 103.087765 335.75245 
L 114.626395 335.75245 
L 120.39571 337.307381 
L 131.93434 335.75245 
L 137.703654 333.666921 
L 143.472969 334.332908 
L 149.242284 334.332908 
L 155.011599 333.027057 
L 160.780914 331.245533 
L 166.550229 330.692448 
L 172.319544 330.692448 
L 178.088859 332.411345 
L 183.858174 331.818028 
L 195.396804 331.818028 
L 201.166119 332.411345 
L 212.704749 331.245533 
L 218.474064 329.639539 
L 224.243379 329.639539 
L 230.012694 328.177567 
L 235.782009 328.650483 
L 241.551324 328.177567 
L 247.320639 328.177567 
L 253.089954 328.650483 
L 258.859269 328.650483 
L 264.628583 327.717975 
L 270.397898 329.137517 
L 276.167213 329.137517 
L 281.936528 328.650483 
L 299.244473 328.650483 
L 305.013788 329.137517 
L 310.783103 329.137517 
L 316.552418 328.177567 
L 322.321733 328.650483 
L 328.091048 328.650483 
L 339.629678 327.717975 
L 345.398993 327.717975 
L 356.937623 328.650483 
L 362.706938 328.650483 
L 368.476253 328.177567 
L 385.784198 328.177567 
L 385.784198 328.177567 
" style="fill:none;stroke:#fbc15e;stroke-linecap:square;stroke-opacity:0.4;stroke-width:2;"/>
   </g>
   <g id="line2d_105">
    <defs>
     <path d="M 0 3 
C 0.795609 3 1.55874 2.683901 2.12132 2.12132 
C 2.683901 1.55874 3 0.795609 3 0 
C 3 -0.795609 2.683901 -1.55874 2.12132 -2.12132 
C 1.55874 -2.683901 0.795609 -3 0 -3 
C -0.795609 -3 -1.55874 -2.683901 -2.12132 -2.12132 
C -2.683901 -1.55874 -3 -0.795609 -3 0 
C -3 0.795609 -2.683901 1.55874 -2.12132 2.12132 
C -1.55874 2.683901 -0.795609 3 0 3 
z
" id="m731d9158f9" style="stroke:#fbc15e;stroke-opacity:0.4;"/>
    </defs>
    <g clip-path="url(#pcf537c9f1d)">
     <use style="fill:#fbc15e;fill-opacity:0.4;stroke:#fbc15e;stroke-opacity:0.4;" x="385.784198" xlink:href="#m731d9158f9" y="328.177567"/>
    </g>
   </g>
   <g id="line2d_106">
    <path clip-path="url(#pcf537c9f1d)" d="M 5.002214 433 
L 5.00941 386.181051 
L 16.54804 386.181051 
L 22.317355 374.872749 
L 28.08667 374.872749 
L 33.855985 368.257816 
L 39.6253 363.564446 
L 45.394615 368.257816 
L 51.16393 348.615683 
L 56.933245 345.641211 
L 68.471875 345.641211 
L 74.24119 334.332908 
L 80.010505 334.332908 
L 85.77982 327.270977 
L 91.549135 324.819208 
L 97.31845 318.849198 
L 103.087765 313.894792 
L 108.85708 310.099692 
L 114.626395 311.887137 
L 120.39571 307.409856 
L 126.165025 304.435383 
L 131.93434 301.735109 
L 143.472969 299.579679 
L 149.242284 296.83566 
L 155.011599 292.539591 
L 160.780914 291.326815 
L 166.550229 290.846944 
L 172.319544 290.152608 
L 178.088859 288.352342 
L 183.858174 287.833112 
L 189.627489 288.190812 
L 195.396804 288.930636 
L 201.166119 288.150678 
L 206.935434 287.951476 
L 212.704749 287.991122 
L 218.474064 289.705609 
L 224.243379 288.804978 
L 230.012694 289.573863 
L 235.782009 290.472958 
L 253.089954 291.821229 
L 258.859269 291.473572 
L 264.628583 293.849814 
L 270.397898 293.624005 
L 276.167213 292.910992 
L 281.936528 294.845978 
L 287.705843 294.967275 
L 293.475158 295.336674 
L 299.244473 297.391098 
L 305.013788 298.411082 
L 310.783103 297.041739 
L 322.321733 299.180774 
L 328.091048 300.751475 
L 333.860363 302.880452 
L 339.629678 303.07941 
L 345.398993 304.219295 
L 351.168308 308.212366 
L 356.937623 311.716303 
L 362.706938 312.951499 
L 368.476253 316.184643 
L 374.245568 317.104009 
L 380.014883 317.34218 
L 385.784198 316.637851 
L 391.553512 319.114479 
L 397.322827 316.409673 
L 403.092142 318.078294 
L 408.861457 318.849198 
L 420.400087 322.688214 
L 426.169402 323.024606 
L 431.938717 325.596233 
L 437.708032 334.332908 
L 443.477347 335.75245 
L 449.246662 333.027057 
L 455.015977 333.666921 
L 460.785292 333.027057 
L 466.554607 333.666921 
L 472.323922 332.411345 
L 478.093237 334.332908 
L 483.862552 333.666921 
L 489.631867 336.511397 
L 495.401182 340.947841 
L 501.170497 343.12633 
L 506.939812 343.12633 
L 512.709127 354.434632 
L 518.478441 359.923986 
L 524.247756 363.564446 
L 530.017071 374.872749 
L 553.094331 374.872749 
L 553.094331 374.872749 
" style="fill:none;stroke:#8eba42;stroke-linecap:square;stroke-opacity:0.4;stroke-width:2;"/>
   </g>
   <g id="line2d_107">
    <defs>
     <path d="M 0 3 
C 0.795609 3 1.55874 2.683901 2.12132 2.12132 
C 2.683901 1.55874 3 0.795609 3 0 
C 3 -0.795609 2.683901 -1.55874 2.12132 -2.12132 
C 1.55874 -2.683901 0.795609 -3 0 -3 
C -0.795609 -3 -1.55874 -2.683901 -2.12132 -2.12132 
C -2.683901 -1.55874 -3 -0.795609 -3 0 
C -3 0.795609 -2.683901 1.55874 -2.12132 2.12132 
C -1.55874 2.683901 -0.795609 3 0 3 
z
" id="m297393a4b8" style="stroke:#8eba42;stroke-opacity:0.4;"/>
    </defs>
    <g clip-path="url(#pcf537c9f1d)">
     <use style="fill:#8eba42;fill-opacity:0.4;stroke:#8eba42;stroke-opacity:0.4;" x="553.094331" xlink:href="#m297393a4b8" y="374.872749"/>
    </g>
   </g>
   <g id="line2d_108">
    <path clip-path="url(#pcf537c9f1d)" d="M 10.771529 433 
L 10.778725 386.181051 
L 16.54804 386.181051 
L 22.317355 356.949513 
L 28.08667 354.434632 
L 33.855985 347.060752 
L 39.6253 345.641211 
L 45.394615 343.12633 
L 51.16393 340.947841 
L 56.933245 337.307381 
L 62.70256 340.947841 
L 68.471875 336.511397 
L 74.24119 333.666921 
L 91.549135 324.819208 
L 97.31845 321.407994 
L 103.087765 315.103822 
L 108.85708 310.099692 
L 114.626395 306.895973 
L 120.39571 298.411082 
L 126.165025 293.127081 
L 131.93434 289.184892 
L 143.472969 279.633493 
L 149.242284 275.62619 
L 155.011599 271.134033 
L 160.780914 267.23294 
L 166.550229 262.851133 
L 172.319544 259.882329 
L 178.088859 256.49614 
L 183.858174 253.471834 
L 189.627489 249.477378 
L 201.166119 243.686917 
L 206.935434 241.759519 
L 212.704749 239.305091 
L 218.474064 237.720254 
L 224.243379 236.41987 
L 230.012694 234.627791 
L 235.782009 233.276091 
L 241.551324 232.476078 
L 247.320639 231.517978 
L 253.089954 231.028379 
L 270.397898 230.347699 
L 276.167213 229.868988 
L 281.936528 229.794846 
L 287.705843 229.227608 
L 293.475158 228.865764 
L 299.244473 229.458729 
L 316.552418 229.687602 
L 322.321733 229.435688 
L 328.091048 230.354657 
L 339.629678 230.504979 
L 345.398993 230.983714 
L 351.168308 231.305119 
L 356.937623 230.957214 
L 362.706938 231.301431 
L 368.476253 231.084081 
L 374.245568 232.131007 
L 380.014883 231.890924 
L 385.784198 232.016302 
L 391.553512 232.008599 
L 397.322827 232.29479 
L 403.092142 232.063891 
L 408.861457 232.626039 
L 414.630772 232.375989 
L 420.400087 233.158586 
L 426.169402 233.274704 
L 431.938717 233.937224 
L 437.708032 234.870751 
L 443.477347 235.539033 
L 449.246662 235.358341 
L 455.015977 235.986607 
L 460.785292 235.860954 
L 466.554607 236.475478 
L 472.323922 236.645157 
L 478.093237 237.068483 
L 483.862552 237.997696 
L 489.631867 238.671097 
L 495.401182 238.896664 
L 501.170497 239.242971 
L 506.939812 239.823183 
L 512.709127 241.759519 
L 518.478441 241.789884 
L 530.017071 242.137239 
L 535.786386 242.477513 
L 541.555701 242.545938 
L 547.325016 241.902495 
L 553.094331 241.12558 
L 558.863646 242.312523 
L 564.632961 242.710843 
L 570.402276 243.397975 
L 587.710221 243.397975 
L 587.710221 243.397975 
" style="fill:none;stroke:#ffb5b8;stroke-linecap:square;stroke-opacity:0.4;stroke-width:2;"/>
   </g>
   <g id="line2d_109">
    <defs>
     <path d="M 0 3 
C 0.795609 3 1.55874 2.683901 2.12132 2.12132 
C 2.683901 1.55874 3 0.795609 3 0 
C 3 -0.795609 2.683901 -1.55874 2.12132 -2.12132 
C 1.55874 -2.683901 0.795609 -3 0 -3 
C -0.795609 -3 -1.55874 -2.683901 -2.12132 -2.12132 
C -2.683901 -1.55874 -3 -0.795609 -3 0 
C -3 0.795609 -2.683901 1.55874 -2.12132 2.12132 
C -1.55874 2.683901 -0.795609 3 0 3 
z
" id="m3c41f981cc" style="stroke:#ffb5b8;stroke-opacity:0.4;"/>
    </defs>
    <g clip-path="url(#pcf537c9f1d)">
     <use style="fill:#ffb5b8;fill-opacity:0.4;stroke:#ffb5b8;stroke-opacity:0.4;" x="587.710221" xlink:href="#m3c41f981cc" y="243.397975"/>
    </g>
   </g>
   <g id="patch_3">
    <path d="M 68.471875 392 
L 68.471875 221 
" style="fill:none;stroke:#ffffff;stroke-linecap:square;stroke-linejoin:miter;"/>
   </g>
   <g id="patch_4">
    <path d="M 678 392 
L 678 221 
" style="fill:none;stroke:#ffffff;stroke-linecap:square;stroke-linejoin:miter;"/>
   </g>
   <g id="patch_5">
    <path d="M 68.471875 392 
L 678 392 
" style="fill:none;stroke:#ffffff;stroke-linecap:square;stroke-linejoin:miter;"/>
   </g>
   <g id="patch_6">
    <path d="M 68.471875 221 
L 678 221 
" style="fill:none;stroke:#ffffff;stroke-linecap:square;stroke-linejoin:miter;"/>
   </g>
   <g id="text_19">
    <!-- Korea, South -->
    <defs>
     <path d="M 16.59375 31.203125 
L 11.703125 25.796875 
L 11.703125 0 
L 4.203125 0 
L 4.203125 62.296875 
L 12.59375 62.296875 
L 12.59375 61.59375 
Q 12 61 11.84375 60.296875 
Q 11.703125 59.59375 11.703125 57.90625 
L 11.703125 33.59375 
L 37.703125 62.796875 
Q 40.203125 62.296875 42.90625 62.296875 
L 45.5 62.296875 
L 21.90625 35.40625 
L 47.09375 0 
L 38.09375 -0.40625 
z
" id="Inconsolata-Regular-75"/>
     <path d="M 16.5 -13.796875 
Q 19.296875 -11.203125 21.140625 -8.203125 
Q 23 -5.203125 23 -3.296875 
Q 23 -2.40625 22.5 -1.796875 
Q 22 -1.203125 20.703125 0 
Q 19.296875 1.296875 18.59375 2.1875 
Q 17.90625 3.09375 17.90625 4.40625 
Q 17.90625 6.90625 19.546875 8.59375 
Q 21.203125 10.296875 23.796875 10.296875 
Q 26.5 10.296875 28.546875 7.9375 
Q 30.59375 5.59375 30.59375 2 
Q 30.59375 -5.796875 19.90625 -16.796875 
z
" id="Inconsolata-Regular-44"/>
     <path d="M 29.796875 34.40625 
Q 38.703125 30.703125 42.09375 26.796875 
Q 45.5 22.90625 45.5 17 
Q 45.5 12.40625 43.25 8.296875 
Q 41 4.203125 36.296875 1.59375 
Q 31.59375 -1 24.703125 -1 
Q 12.59375 -1 5.203125 6.90625 
L 8.796875 13.203125 
L 8.796875 13.296875 
Q 8.90625 13.296875 8.90625 13.25 
Q 8.90625 13.203125 8.90625 13.203125 
Q 11.59375 9.59375 15.84375 7.4375 
Q 20.09375 5.296875 25.703125 5.296875 
Q 31.203125 5.296875 34.890625 8.390625 
Q 38.59375 11.5 38.59375 16 
Q 38.59375 18.90625 37.4375 20.84375 
Q 36.296875 22.796875 33.296875 24.6875 
Q 30.296875 26.59375 24.296875 29.203125 
Q 15.09375 32.796875 11.140625 37.390625 
Q 7.203125 42 7.203125 47.703125 
Q 7.203125 54.703125 12.296875 58.890625 
Q 17.40625 63.09375 26.203125 63.09375 
Q 31.296875 63.09375 35.75 61.046875 
Q 40.203125 59 43.5 55.296875 
L 39.59375 50.09375 
L 39.5 50 
Q 36.5 54.09375 33.25 55.6875 
Q 30 57.296875 25.09375 57.296875 
Q 20.296875 57.296875 17.34375 54.640625 
Q 14.40625 52 14.40625 48.203125 
Q 14.40625 45.296875 15.65625 43.140625 
Q 16.90625 41 20.203125 38.953125 
Q 23.5 36.90625 29.796875 34.40625 
z
M 38.40625 49.796875 
Q 38.40625 50.09375 38.796875 49.890625 
Q 39.203125 49.703125 39.296875 49.703125 
L 39 49.296875 
L 38.40625 49.703125 
z
M 39.5 50 
Q 40.09375 49.203125 39.75 49.453125 
Q 39.40625 49.703125 39.296875 49.703125 
L 39.5 50 
z
M 9.90625 13.59375 
Q 9.90625 13.296875 9.5 13.5 
Q 9.09375 13.703125 9 13.703125 
L 9.203125 14.09375 
L 9.90625 13.703125 
z
M 8.796875 13.296875 
Q 8.203125 14.09375 9 13.703125 
L 8.796875 13.296875 
z
" id="Inconsolata-Regular-83"/>
     <path d="M 22.09375 -1.09375 
Q 14.90625 -1.09375 10.59375 4.25 
Q 6.296875 9.59375 6.40625 20.203125 
L 6.5 45.703125 
L 13.5 45.703125 
L 13.5 20.203125 
Q 13.5 12 16.34375 8.34375 
Q 19.203125 4.703125 23.90625 4.703125 
Q 29.09375 4.703125 32.640625 8.75 
Q 36.203125 12.796875 36.203125 20.5 
L 36.203125 45.703125 
L 43.203125 45.703125 
L 43.203125 7.09375 
Q 43.203125 4.703125 43.34375 3.140625 
Q 43.5 1.59375 44.203125 0 
L 37.296875 0 
Q 36.59375 1.5 36.4375 3.09375 
Q 36.296875 4.703125 36.296875 7 
Q 34.09375 3.203125 30.34375 1.046875 
Q 26.59375 -1.09375 22.09375 -1.09375 
z
" id="Inconsolata-Regular-117"/>
    </defs>
    <g transform="translate(639.634056 363.564446)scale(0.1 -0.1)">
     <use xlink:href="#Inconsolata-Regular-75"/>
     <use x="49.999985" xlink:href="#Inconsolata-Regular-111"/>
     <use x="99.999969" xlink:href="#Inconsolata-Regular-114"/>
     <use x="149.999954" xlink:href="#Inconsolata-Regular-101"/>
     <use x="199.999939" xlink:href="#Inconsolata-Regular-97"/>
     <use x="249.999924" xlink:href="#Inconsolata-Regular-44"/>
     <use x="299.999908" xlink:href="#Inconsolata-Regular-32"/>
     <use x="349.999893" xlink:href="#Inconsolata-Regular-83"/>
     <use x="399.999878" xlink:href="#Inconsolata-Regular-111"/>
     <use x="449.999863" xlink:href="#Inconsolata-Regular-117"/>
     <use x="499.999847" xlink:href="#Inconsolata-Regular-116"/>
     <use x="549.999832" xlink:href="#Inconsolata-Regular-104"/>
    </g>
   </g>
   <g id="text_20">
    <!-- Germany -->
    <defs>
     <path d="M 46 29.90625 
L 46 5.5 
Q 37.09375 -1 27.703125 -1 
Q 20.296875 -1 14.84375 2.890625 
Q 9.40625 6.796875 6.5 13.890625 
Q 3.59375 21 3.59375 30.40625 
Q 3.5 42.796875 7.203125 50.046875 
Q 10.90625 57.296875 16.296875 60.140625 
Q 21.703125 63 27.203125 63 
Q 32.796875 63 38 60.09375 
Q 43.203125 57.203125 45.796875 52.5 
L 40.90625 48.59375 
L 40.796875 48.5 
Q 37.40625 53 34.5 54.890625 
Q 31.59375 56.796875 27.296875 56.796875 
Q 19.796875 56.796875 15.140625 51 
Q 10.5 45.203125 10.5 31.90625 
Q 10.5 19.09375 15.046875 12.140625 
Q 19.59375 5.203125 27.703125 5.203125 
Q 30.703125 5.203125 34 6.140625 
Q 37.296875 7.09375 39.5 9 
L 39.5 23.796875 
L 28.203125 23.796875 
L 28.203125 29.90625 
z
M 39.703125 48.5 
Q 39.703125 49.09375 40.59375 48.40625 
L 40.09375 47.90625 
L 39.703125 48.5 
z
M 40.796875 48.5 
Q 41.296875 47.796875 40.59375 48.40625 
L 40.796875 48.5 
z
" id="Inconsolata-Regular-71"/>
    </defs>
    <g transform="translate(564.632961 304.006031)scale(0.1 -0.1)">
     <use xlink:href="#Inconsolata-Regular-71"/>
     <use x="49.999985" xlink:href="#Inconsolata-Regular-101"/>
     <use x="99.999969" xlink:href="#Inconsolata-Regular-114"/>
     <use x="149.999954" xlink:href="#Inconsolata-Regular-109"/>
     <use x="199.999939" xlink:href="#Inconsolata-Regular-97"/>
     <use x="249.999924" xlink:href="#Inconsolata-Regular-110"/>
     <use x="299.999908" xlink:href="#Inconsolata-Regular-121"/>
    </g>
   </g>
   <g id="text_21">
    <!-- Poland -->
    <defs>
     <path d="M 5.90625 62.296875 
L 25.90625 62.296875 
Q 35.796875 62.296875 40.6875 57.390625 
Q 45.59375 52.5 45.59375 44.703125 
Q 45.59375 37 40.796875 32.25 
Q 36 27.5 26.40625 27.5 
L 13.09375 27.5 
L 13.09375 0 
L 5.90625 0 
z
M 25.59375 33.703125 
Q 32.203125 33.703125 35.296875 36.546875 
Q 38.40625 39.40625 38.40625 44.5 
Q 38.40625 49.40625 35.203125 52.546875 
Q 32 55.703125 25.703125 55.703125 
L 13.09375 55.703125 
L 13.09375 33.703125 
z
" id="Inconsolata-Regular-80"/>
    </defs>
    <g transform="translate(489.631867 313.510906)scale(0.1 -0.1)">
     <use xlink:href="#Inconsolata-Regular-80"/>
     <use x="49.999985" xlink:href="#Inconsolata-Regular-111"/>
     <use x="99.999969" xlink:href="#Inconsolata-Regular-108"/>
     <use x="149.999954" xlink:href="#Inconsolata-Regular-97"/>
     <use x="199.999939" xlink:href="#Inconsolata-Regular-110"/>
     <use x="249.999924" xlink:href="#Inconsolata-Regular-100"/>
    </g>
   </g>
   <g id="text_22">
    <!-- Belarus -->
    <defs>
     <path d="M 4.796875 62.296875 
L 22.5 62.296875 
Q 32.90625 62.296875 38.046875 58.25 
Q 43.203125 54.203125 43.203125 47.203125 
Q 43.203125 42.59375 40.75 38.75 
Q 38.296875 34.90625 34 33.40625 
Q 39.203125 31.59375 42.453125 27.140625 
Q 45.703125 22.703125 45.703125 17.5 
Q 45.703125 9.296875 39.890625 4.640625 
Q 34.09375 0 22.40625 0 
L 4.796875 0 
z
M 21.5 36.5 
Q 36.203125 36.5 36.203125 46.40625 
Q 36.203125 50.90625 32.890625 53.65625 
Q 29.59375 56.40625 22.59375 56.40625 
L 11.703125 56.40625 
L 11.703125 36.5 
z
M 23.59375 6.09375 
Q 38.296875 6.09375 38.296875 17.90625 
Q 38.296875 30.59375 21.90625 30.59375 
L 11.703125 30.59375 
L 11.703125 6.09375 
z
" id="Inconsolata-Regular-66"/>
    </defs>
    <g transform="translate(397.322827 328.177567)scale(0.1 -0.1)">
     <use xlink:href="#Inconsolata-Regular-66"/>
     <use x="49.999985" xlink:href="#Inconsolata-Regular-101"/>
     <use x="99.999969" xlink:href="#Inconsolata-Regular-108"/>
     <use x="149.999954" xlink:href="#Inconsolata-Regular-97"/>
     <use x="199.999939" xlink:href="#Inconsolata-Regular-114"/>
     <use x="249.999924" xlink:href="#Inconsolata-Regular-117"/>
     <use x="299.999908" xlink:href="#Inconsolata-Regular-115"/>
    </g>
   </g>
   <g id="text_23">
    <!-- Switzerland -->
    <defs>
     <path d="M 5 4.90625 
L 33.296875 39.40625 
L 7.09375 39.40625 
L 7.09375 45.703125 
L 42.59375 45.703125 
L 42.59375 40.796875 
L 14.796875 6.203125 
L 40.59375 6.203125 
Q 42.203125 6.203125 42.953125 6.390625 
Q 43.703125 6.59375 44.296875 7.203125 
L 45 7.203125 
L 45 0 
L 5 0 
z
" id="Inconsolata-Regular-122"/>
    </defs>
    <g transform="translate(564.632961 374.872749)scale(0.1 -0.1)">
     <use xlink:href="#Inconsolata-Regular-83"/>
     <use x="49.999985" xlink:href="#Inconsolata-Regular-119"/>
     <use x="99.999969" xlink:href="#Inconsolata-Regular-105"/>
     <use x="149.999954" xlink:href="#Inconsolata-Regular-116"/>
     <use x="199.999939" xlink:href="#Inconsolata-Regular-122"/>
     <use x="249.999924" xlink:href="#Inconsolata-Regular-101"/>
     <use x="299.999908" xlink:href="#Inconsolata-Regular-114"/>
     <use x="349.999893" xlink:href="#Inconsolata-Regular-108"/>
     <use x="399.999878" xlink:href="#Inconsolata-Regular-97"/>
     <use x="449.999863" xlink:href="#Inconsolata-Regular-110"/>
     <use x="499.999847" xlink:href="#Inconsolata-Regular-100"/>
    </g>
   </g>
   <g id="text_24">
    <!-- US -->
    <defs>
     <path d="M 25.09375 -1.09375 
Q 15.203125 -1.09375 10.09375 4.796875 
Q 5 10.703125 5 21.5 
L 5 62.296875 
L 12.796875 62.296875 
L 12.796875 61.59375 
Q 12.203125 61 12.046875 60.296875 
Q 11.90625 59.59375 11.90625 57.90625 
L 11.90625 21.40625 
Q 11.90625 13.40625 15 9.09375 
Q 18.09375 4.796875 25.203125 4.796875 
Q 32.40625 4.796875 35.546875 9.09375 
Q 38.703125 13.40625 38.703125 21.703125 
L 38.703125 62.296875 
L 45.40625 62.296875 
L 45.40625 21.796875 
Q 45.40625 10.296875 40.046875 4.59375 
Q 34.703125 -1.09375 25.09375 -1.09375 
z
" id="Inconsolata-Regular-85"/>
    </defs>
    <g transform="translate(599.248851 243.397975)scale(0.1 -0.1)">
     <use xlink:href="#Inconsolata-Regular-85"/>
     <use x="49.999985" xlink:href="#Inconsolata-Regular-83"/>
    </g>
   </g>
  </g>
 </g>
 <defs>
  <clipPath id="pcf537c9f1d">
   <rect height="171" width="609.528125" x="68.471875" y="221"/>
  </clipPath>
 </defs>
</svg>
