<?xml version="1.0" encoding="utf-8" standalone="no"?>
<!DOCTYPE svg PUBLIC "-//W3C//DTD SVG 1.1//EN"
  "http://www.w3.org/Graphics/SVG/1.1/DTD/svg11.dtd">
<!-- Created with matplotlib (https://matplotlib.org/) -->
<svg height="180pt" version="1.1" viewBox="0 0 720 180" width="720pt" xmlns="http://www.w3.org/2000/svg" xmlns:xlink="http://www.w3.org/1999/xlink">
 <defs>
  <style type="text/css">
*{stroke-linecap:butt;stroke-linejoin:round;}
  </style>
 </defs>
 <g id="figure_1">
  <g id="patch_1">
   <path d="M 0 180 
L 720 180 
L 720 0 
L 0 0 
z
" style="fill:#ffffff;"/>
  </g>
  <g id="axes_1">
   <g id="patch_2">
    <path d="M 90 157.5 
L 648 157.5 
L 648 21.6 
L 90 21.6 
z
" style="fill:#e5e5e5;"/>
   </g>
   <g id="matplotlib.axis_1">
    <g id="xtick_1">
     <g id="line2d_1">
      <path clip-path="url(#p3db47c1779)" d="M 161.902419 157.5 
L 161.902419 21.6 
" style="fill:none;stroke:#ffffff;stroke-linecap:square;stroke-width:0.8;"/>
     </g>
     <g id="line2d_2">
      <defs>
       <path d="M 0 0 
L 0 3.5 
" id="mc50d0b3479" style="stroke:#555555;stroke-width:0.8;"/>
      </defs>
      <g>
       <use style="fill:#555555;stroke:#555555;stroke-width:0.8;" x="161.902419" xlink:href="#mc50d0b3479" y="157.5"/>
      </g>
     </g>
     <g id="text_1">
      <!-- 2020-02-01 -->
      <defs>
       <path d="M 7.703125 52.59375 
L 12.796875 48.5 
C 13.40625 49.40625 13.09375 50 13.703125 50.796875 
C 15.203125 53.09375 18.90625 56.5 24.296875 56.5 
C 31 56.5 36.296875 51.40625 36.296875 44.703125 
C 36.296875 37.09375 29.90625 31.59375 25.40625 27.5 
C 18.296875 21.09375 12.5 14.703125 7.296875 4.40625 
L 7.296875 0 
L 43.90625 0 
L 43.90625 6.90625 
C 43.203125 7.203125 42.703125 6.703125 42.5 6.5 
C 42.09375 6.09375 41.90625 6.09375 41.5 6.09375 
L 15.296875 6.09375 
C 20.5 15.09375 27.796875 21.296875 32.296875 25.5 
C 36.796875 29.796875 43.203125 36.203125 43.203125 45.203125 
C 43.203125 54.90625 35.296875 62.703125 25.203125 62.703125 
C 18.09375 62.703125 11.40625 58.90625 7.703125 52.59375 
z
" id="Inconsolata-50"/>
       <path d="M 25.09375 62.703125 
C 15.203125 62.703125 5 50.5 5 30.59375 
C 5 10.40625 15.296875 -1.203125 25.203125 -1.203125 
C 34.203125 -1.203125 44.90625 8.59375 44.90625 30.09375 
C 44.90625 51.296875 34.703125 62.703125 25.09375 62.703125 
z
M 34.796875 48.40625 
L 12.90625 20 
C 12 23.5 11.5 27.40625 11.5 31.796875 
C 11.5 47.796875 18.796875 56.59375 25 56.59375 
C 28.40625 56.59375 32.09375 53.90625 34.796875 48.40625 
z
M 37.09375 41.796875 
C 38 38.296875 38.40625 34.09375 38.40625 29.203125 
C 38.40625 11.796875 30.90625 5.203125 25.40625 5.203125 
C 21.703125 5.203125 17.90625 8.203125 15.203125 13.703125 
z
" id="Inconsolata-48"/>
       <path d="M 7 34.703125 
L 7 28.09375 
L 43 28.09375 
L 43 34.703125 
z
" id="Inconsolata-45"/>
       <path d="M 29.90625 62.296875 
L 25.09375 62.296875 
L 8.796875 53.796875 
L 10.40625 49.90625 
L 22.90625 53.59375 
L 22.90625 -0.09375 
L 29.90625 -0.09375 
z
" id="Inconsolata-49"/>
      </defs>
      <g style="fill:#555555;" transform="translate(136.902419 171.140625)scale(0.1 -0.1)">
       <use xlink:href="#Inconsolata-50"/>
       <use x="49.999985" xlink:href="#Inconsolata-48"/>
       <use x="99.999969" xlink:href="#Inconsolata-50"/>
       <use x="149.999954" xlink:href="#Inconsolata-48"/>
       <use x="199.999939" xlink:href="#Inconsolata-45"/>
       <use x="249.999924" xlink:href="#Inconsolata-48"/>
       <use x="299.999908" xlink:href="#Inconsolata-50"/>
       <use x="349.999893" xlink:href="#Inconsolata-45"/>
       <use x="399.999878" xlink:href="#Inconsolata-48"/>
       <use x="449.999863" xlink:href="#Inconsolata-49"/>
      </g>
     </g>
    </g>
    <g id="xtick_2">
     <g id="line2d_3">
      <path clip-path="url(#p3db47c1779)" d="M 227.056714 157.5 
L 227.056714 21.6 
" style="fill:none;stroke:#ffffff;stroke-linecap:square;stroke-width:0.8;"/>
     </g>
     <g id="line2d_4">
      <g>
       <use style="fill:#555555;stroke:#555555;stroke-width:0.8;" x="227.056714" xlink:href="#mc50d0b3479" y="157.5"/>
      </g>
     </g>
     <g id="text_2">
      <!-- 2020-02-15 -->
      <defs>
       <path d="M 10.59375 62.296875 
L 8.40625 30.59375 
L 12.90625 28.796875 
C 15.90625 32.59375 20.296875 34.703125 24.59375 34.703125 
C 31.09375 34.703125 37.296875 29.703125 37.296875 19.796875 
C 37.296875 10.203125 31.40625 5 24.703125 5 
C 18 5 13.59375 10.09375 13.296875 10.703125 
C 12.90625 11.5 13.40625 12.5 12.5 13.09375 
L 6.296875 8.40625 
C 10.5 2.296875 17.40625 -1.203125 24.796875 -1.203125 
C 35.59375 -1.203125 44.5 6.09375 44.5 19.59375 
C 44.5 33 36.09375 40.40625 25.59375 40.40625 
C 22.203125 40.40625 18.703125 39.59375 15.5 38 
L 16.40625 56 
L 42.203125 56 
L 42.203125 62.296875 
z
" id="Inconsolata-53"/>
      </defs>
      <g style="fill:#555555;" transform="translate(202.056714 171.140625)scale(0.1 -0.1)">
       <use xlink:href="#Inconsolata-50"/>
       <use x="49.999985" xlink:href="#Inconsolata-48"/>
       <use x="99.999969" xlink:href="#Inconsolata-50"/>
       <use x="149.999954" xlink:href="#Inconsolata-48"/>
       <use x="199.999939" xlink:href="#Inconsolata-45"/>
       <use x="249.999924" xlink:href="#Inconsolata-48"/>
       <use x="299.999908" xlink:href="#Inconsolata-50"/>
       <use x="349.999893" xlink:href="#Inconsolata-45"/>
       <use x="399.999878" xlink:href="#Inconsolata-49"/>
       <use x="449.999863" xlink:href="#Inconsolata-53"/>
      </g>
     </g>
    </g>
    <g id="xtick_3">
     <g id="line2d_5">
      <path clip-path="url(#p3db47c1779)" d="M 296.864887 157.5 
L 296.864887 21.6 
" style="fill:none;stroke:#ffffff;stroke-linecap:square;stroke-width:0.8;"/>
     </g>
     <g id="line2d_6">
      <g>
       <use style="fill:#555555;stroke:#555555;stroke-width:0.8;" x="296.864887" xlink:href="#mc50d0b3479" y="157.5"/>
      </g>
     </g>
     <g id="text_3">
      <!-- 2020-03-01 -->
      <defs>
       <path d="M 41 46.703125 
C 41 55.203125 33.796875 62.5 23.90625 62.5 
C 18.296875 62.5 12.796875 60.09375 8.90625 55.796875 
L 12.796875 51.5 
C 15.703125 54.59375 19.703125 56.296875 23.59375 56.296875 
C 30 56.296875 34.40625 51.796875 34.40625 46.5 
C 34.40625 42.796875 32.09375 38.59375 27.703125 36.703125 
C 26.59375 36.296875 23.796875 35.203125 17.90625 35.203125 
L 17.90625 29.59375 
C 18.90625 29.703125 20 29.796875 21.09375 29.796875 
C 29.5 29.796875 35.703125 25.40625 35.703125 17.90625 
C 35.703125 11.09375 30.5 5.203125 23.203125 5.203125 
C 17.40625 5.203125 13.90625 9 13.40625 9.5 
C 12.59375 10.40625 13 11.40625 12.09375 12.296875 
L 6.90625 6 
C 11 1.296875 17 -1.09375 23.203125 -1.09375 
C 35.203125 -1.09375 42.40625 7.40625 42.40625 17.09375 
C 42.40625 24.5 38.203125 30.796875 31.703125 33.203125 
C 37.296875 35.296875 41 40.59375 41 46.703125 
z
" id="Inconsolata-51"/>
      </defs>
      <g style="fill:#555555;" transform="translate(271.864887 171.140625)scale(0.1 -0.1)">
       <use xlink:href="#Inconsolata-50"/>
       <use x="49.999985" xlink:href="#Inconsolata-48"/>
       <use x="99.999969" xlink:href="#Inconsolata-50"/>
       <use x="149.999954" xlink:href="#Inconsolata-48"/>
       <use x="199.999939" xlink:href="#Inconsolata-45"/>
       <use x="249.999924" xlink:href="#Inconsolata-48"/>
       <use x="299.999908" xlink:href="#Inconsolata-51"/>
       <use x="349.999893" xlink:href="#Inconsolata-45"/>
       <use x="399.999878" xlink:href="#Inconsolata-48"/>
       <use x="449.999863" xlink:href="#Inconsolata-49"/>
      </g>
     </g>
    </g>
    <g id="xtick_4">
     <g id="line2d_7">
      <path clip-path="url(#p3db47c1779)" d="M 362.019183 157.5 
L 362.019183 21.6 
" style="fill:none;stroke:#ffffff;stroke-linecap:square;stroke-width:0.8;"/>
     </g>
     <g id="line2d_8">
      <g>
       <use style="fill:#555555;stroke:#555555;stroke-width:0.8;" x="362.019183" xlink:href="#mc50d0b3479" y="157.5"/>
      </g>
     </g>
     <g id="text_4">
      <!-- 2020-03-15 -->
      <g style="fill:#555555;" transform="translate(337.019183 171.140625)scale(0.1 -0.1)">
       <use xlink:href="#Inconsolata-50"/>
       <use x="49.999985" xlink:href="#Inconsolata-48"/>
       <use x="99.999969" xlink:href="#Inconsolata-50"/>
       <use x="149.999954" xlink:href="#Inconsolata-48"/>
       <use x="199.999939" xlink:href="#Inconsolata-45"/>
       <use x="249.999924" xlink:href="#Inconsolata-48"/>
       <use x="299.999908" xlink:href="#Inconsolata-51"/>
       <use x="349.999893" xlink:href="#Inconsolata-45"/>
       <use x="399.999878" xlink:href="#Inconsolata-49"/>
       <use x="449.999863" xlink:href="#Inconsolata-53"/>
      </g>
     </g>
    </g>
    <g id="xtick_5">
     <g id="line2d_9">
      <path clip-path="url(#p3db47c1779)" d="M 441.135113 157.5 
L 441.135113 21.6 
" style="fill:none;stroke:#ffffff;stroke-linecap:square;stroke-width:0.8;"/>
     </g>
     <g id="line2d_10">
      <g>
       <use style="fill:#555555;stroke:#555555;stroke-width:0.8;" x="441.135113" xlink:href="#mc50d0b3479" y="157.5"/>
      </g>
     </g>
     <g id="text_5">
      <!-- 2020-04-01 -->
      <defs>
       <path d="M 31.296875 62.296875 
L 4.796875 22.40625 
L 4.796875 17.203125 
L 29.90625 17.203125 
L 29.90625 0 
L 37.09375 0 
L 37.09375 17.09375 
L 45.203125 17.09375 
L 45.203125 23.296875 
L 37.09375 23.296875 
L 37.09375 62.296875 
z
M 30 51.203125 
L 30 23.296875 
L 11.703125 23.296875 
z
" id="Inconsolata-52"/>
      </defs>
      <g style="fill:#555555;" transform="translate(416.135113 171.140625)scale(0.1 -0.1)">
       <use xlink:href="#Inconsolata-50"/>
       <use x="49.999985" xlink:href="#Inconsolata-48"/>
       <use x="99.999969" xlink:href="#Inconsolata-50"/>
       <use x="149.999954" xlink:href="#Inconsolata-48"/>
       <use x="199.999939" xlink:href="#Inconsolata-45"/>
       <use x="249.999924" xlink:href="#Inconsolata-48"/>
       <use x="299.999908" xlink:href="#Inconsolata-52"/>
       <use x="349.999893" xlink:href="#Inconsolata-45"/>
       <use x="399.999878" xlink:href="#Inconsolata-48"/>
       <use x="449.999863" xlink:href="#Inconsolata-49"/>
      </g>
     </g>
    </g>
    <g id="xtick_6">
     <g id="line2d_11">
      <path clip-path="url(#p3db47c1779)" d="M 506.289408 157.5 
L 506.289408 21.6 
" style="fill:none;stroke:#ffffff;stroke-linecap:square;stroke-width:0.8;"/>
     </g>
     <g id="line2d_12">
      <g>
       <use style="fill:#555555;stroke:#555555;stroke-width:0.8;" x="506.289408" xlink:href="#mc50d0b3479" y="157.5"/>
      </g>
     </g>
     <g id="text_6">
      <!-- 2020-04-15 -->
      <g style="fill:#555555;" transform="translate(481.289408 171.140625)scale(0.1 -0.1)">
       <use xlink:href="#Inconsolata-50"/>
       <use x="49.999985" xlink:href="#Inconsolata-48"/>
       <use x="99.999969" xlink:href="#Inconsolata-50"/>
       <use x="149.999954" xlink:href="#Inconsolata-48"/>
       <use x="199.999939" xlink:href="#Inconsolata-45"/>
       <use x="249.999924" xlink:href="#Inconsolata-48"/>
       <use x="299.999908" xlink:href="#Inconsolata-52"/>
       <use x="349.999893" xlink:href="#Inconsolata-45"/>
       <use x="399.999878" xlink:href="#Inconsolata-49"/>
       <use x="449.999863" xlink:href="#Inconsolata-53"/>
      </g>
     </g>
    </g>
    <g id="xtick_7">
     <g id="line2d_13">
      <path clip-path="url(#p3db47c1779)" d="M 580.75146 157.5 
L 580.75146 21.6 
" style="fill:none;stroke:#ffffff;stroke-linecap:square;stroke-width:0.8;"/>
     </g>
     <g id="line2d_14">
      <g>
       <use style="fill:#555555;stroke:#555555;stroke-width:0.8;" x="580.75146" xlink:href="#mc50d0b3479" y="157.5"/>
      </g>
     </g>
     <g id="text_7">
      <!-- 2020-05-01 -->
      <g style="fill:#555555;" transform="translate(555.75146 171.140625)scale(0.1 -0.1)">
       <use xlink:href="#Inconsolata-50"/>
       <use x="49.999985" xlink:href="#Inconsolata-48"/>
       <use x="99.999969" xlink:href="#Inconsolata-50"/>
       <use x="149.999954" xlink:href="#Inconsolata-48"/>
       <use x="199.999939" xlink:href="#Inconsolata-45"/>
       <use x="249.999924" xlink:href="#Inconsolata-48"/>
       <use x="299.999908" xlink:href="#Inconsolata-53"/>
       <use x="349.999893" xlink:href="#Inconsolata-45"/>
       <use x="399.999878" xlink:href="#Inconsolata-48"/>
       <use x="449.999863" xlink:href="#Inconsolata-49"/>
      </g>
     </g>
    </g>
    <g id="xtick_8">
     <g id="line2d_15">
      <path clip-path="url(#p3db47c1779)" d="M 645.905755 157.5 
L 645.905755 21.6 
" style="fill:none;stroke:#ffffff;stroke-linecap:square;stroke-width:0.8;"/>
     </g>
     <g id="line2d_16">
      <g>
       <use style="fill:#555555;stroke:#555555;stroke-width:0.8;" x="645.905755" xlink:href="#mc50d0b3479" y="157.5"/>
      </g>
     </g>
     <g id="text_8">
      <!-- 2020-05-15 -->
      <g style="fill:#555555;" transform="translate(620.905755 171.140625)scale(0.1 -0.1)">
       <use xlink:href="#Inconsolata-50"/>
       <use x="49.999985" xlink:href="#Inconsolata-48"/>
       <use x="99.999969" xlink:href="#Inconsolata-50"/>
       <use x="149.999954" xlink:href="#Inconsolata-48"/>
       <use x="199.999939" xlink:href="#Inconsolata-45"/>
       <use x="249.999924" xlink:href="#Inconsolata-48"/>
       <use x="299.999908" xlink:href="#Inconsolata-53"/>
       <use x="349.999893" xlink:href="#Inconsolata-45"/>
       <use x="399.999878" xlink:href="#Inconsolata-49"/>
       <use x="449.999863" xlink:href="#Inconsolata-53"/>
      </g>
     </g>
    </g>
   </g>
   <g id="matplotlib.axis_2">
    <g id="ytick_1">
     <g id="line2d_17">
      <path clip-path="url(#p3db47c1779)" d="M 90 143.240519 
L 648 143.240519 
" style="fill:none;stroke:#ffffff;stroke-linecap:square;stroke-width:0.8;"/>
     </g>
     <g id="line2d_18">
      <defs>
       <path d="M 0 0 
L -3.5 0 
" id="mfb1af10c01" style="stroke:#555555;stroke-width:0.8;"/>
      </defs>
      <g>
       <use style="fill:#555555;stroke:#555555;stroke-width:0.8;" x="90" xlink:href="#mfb1af10c01" y="143.240519"/>
      </g>
     </g>
     <g id="line2d_19">
      <defs>
       <path d="M 0 0 
L 3.5 0 
" id="me80ce078d2" style="stroke:#555555;stroke-width:0.8;"/>
      </defs>
      <g>
       <use style="fill:#555555;stroke:#555555;stroke-width:0.8;" x="648" xlink:href="#me80ce078d2" y="143.240519"/>
      </g>
     </g>
     <g id="text_9">
      <!-- 0.6 -->
      <defs>
       <path d="M 29.703125 4.59375 
C 29.703125 7.703125 27.09375 10.296875 23.796875 10.296875 
C 20.5 10.296875 17.90625 7.703125 17.90625 4.59375 
C 17.90625 1.40625 20.5 -1.203125 23.796875 -1.203125 
C 27.09375 -1.203125 29.703125 1.40625 29.703125 4.59375 
z
" id="Inconsolata-46"/>
       <path d="M 28.703125 63 
C 21.203125 63 13.203125 58.40625 9.296875 47.5 
C 7.203125 41.59375 6.703125 34.296875 6.703125 28.296875 
C 6.703125 21 7.40625 13.203125 11.40625 7.203125 
C 15 1.703125 20.59375 -1.09375 26.09375 -1.09375 
C 35.59375 -1.09375 43.90625 6.90625 43.90625 19.796875 
C 43.90625 32.703125 35.59375 40.203125 26.796875 40.203125 
C 21.40625 40.203125 16.296875 37.296875 13.59375 32.703125 
C 14 54 24.203125 56.796875 28.703125 56.796875 
C 32.796875 56.796875 35.59375 54.59375 36 54.203125 
C 36.59375 53.5 36.59375 52.59375 37.5 51.90625 
L 42.296875 57.296875 
C 38.703125 60.90625 33.703125 63 28.703125 63 
z
M 26.09375 34 
C 31.09375 34 37.09375 30.09375 37.09375 19.40625 
C 37.09375 9.703125 31.703125 5.09375 26.40625 5.09375 
C 18.796875 5.09375 13.09375 14 13.90625 25.703125 
C 16.703125 30.796875 21.5 34 26.09375 34 
z
" id="Inconsolata-54"/>
      </defs>
      <g style="fill:#555555;" transform="translate(68 146.560831)scale(0.1 -0.1)">
       <use xlink:href="#Inconsolata-48"/>
       <use x="49.999985" xlink:href="#Inconsolata-46"/>
       <use x="99.999969" xlink:href="#Inconsolata-54"/>
      </g>
     </g>
     <g id="text_10">
      <!-- 0.6 -->
      <g style="fill:#555555;" transform="translate(655 146.560831)scale(0.1 -0.1)">
       <use xlink:href="#Inconsolata-48"/>
       <use x="49.999985" xlink:href="#Inconsolata-46"/>
       <use x="99.999969" xlink:href="#Inconsolata-54"/>
      </g>
     </g>
    </g>
    <g id="ytick_2">
     <g id="line2d_20">
      <path clip-path="url(#p3db47c1779)" d="M 90 105.812667 
L 648 105.812667 
" style="fill:none;stroke:#ffffff;stroke-linecap:square;stroke-width:0.8;"/>
     </g>
     <g id="line2d_21">
      <g>
       <use style="fill:#555555;stroke:#555555;stroke-width:0.8;" x="90" xlink:href="#mfb1af10c01" y="105.812667"/>
      </g>
     </g>
     <g id="line2d_22">
      <g>
       <use style="fill:#555555;stroke:#555555;stroke-width:0.8;" x="648" xlink:href="#me80ce078d2" y="105.812667"/>
      </g>
     </g>
     <g id="text_11">
      <!-- 0.8 -->
      <defs>
       <path d="M 25.796875 63 
C 16.203125 63 8.90625 56.09375 8.90625 47.703125 
C 8.90625 41.59375 12.796875 36 18.40625 33.09375 
C 11 29.59375 6 22.796875 6 15.59375 
C 6 6.296875 14.203125 -1.09375 24.90625 -1.09375 
C 35.796875 -1.09375 44.09375 6.5 44.09375 16 
C 44.09375 23.40625 39.09375 30 32.09375 33.296875 
C 38.09375 36.40625 42 42.296875 42 48.296875 
C 42 56.5 34.90625 63 25.796875 63 
z
M 23.703125 30.203125 
C 31.703125 27.703125 37 22.203125 37 16.09375 
C 37 10.09375 31.90625 5.203125 25.203125 5.203125 
C 18.40625 5.203125 13.203125 10.296875 13.203125 16.5 
C 13.203125 22.40625 17.796875 27.796875 23.703125 30.203125 
z
M 25.203125 57.203125 
C 30.796875 57.203125 35.203125 53 35.203125 47.796875 
C 35.203125 43 31.5 38.40625 26.59375 35.796875 
C 26.59375 35.796875 15.59375 40 15.59375 48.296875 
C 15.59375 53.203125 19.796875 57.203125 25.203125 57.203125 
z
" id="Inconsolata-56"/>
      </defs>
      <g style="fill:#555555;" transform="translate(68 109.132979)scale(0.1 -0.1)">
       <use xlink:href="#Inconsolata-48"/>
       <use x="49.999985" xlink:href="#Inconsolata-46"/>
       <use x="99.999969" xlink:href="#Inconsolata-56"/>
      </g>
     </g>
     <g id="text_12">
      <!-- 0.8 -->
      <g style="fill:#555555;" transform="translate(655 109.132979)scale(0.1 -0.1)">
       <use xlink:href="#Inconsolata-48"/>
       <use x="49.999985" xlink:href="#Inconsolata-46"/>
       <use x="99.999969" xlink:href="#Inconsolata-56"/>
      </g>
     </g>
    </g>
    <g id="ytick_3">
     <g id="line2d_23">
      <path clip-path="url(#p3db47c1779)" d="M 90 68.384815 
L 648 68.384815 
" style="fill:none;stroke:#ffffff;stroke-linecap:square;stroke-width:0.8;"/>
     </g>
     <g id="line2d_24">
      <g>
       <use style="fill:#555555;stroke:#555555;stroke-width:0.8;" x="90" xlink:href="#mfb1af10c01" y="68.384815"/>
      </g>
     </g>
     <g id="line2d_25">
      <g>
       <use style="fill:#555555;stroke:#555555;stroke-width:0.8;" x="648" xlink:href="#me80ce078d2" y="68.384815"/>
      </g>
     </g>
     <g id="text_13">
      <!-- 1.0 -->
      <g style="fill:#555555;" transform="translate(68 71.705127)scale(0.1 -0.1)">
       <use xlink:href="#Inconsolata-49"/>
       <use x="49.999985" xlink:href="#Inconsolata-46"/>
       <use x="99.999969" xlink:href="#Inconsolata-48"/>
      </g>
     </g>
     <g id="text_14">
      <!-- 1.0 -->
      <g style="fill:#555555;" transform="translate(655 71.705127)scale(0.1 -0.1)">
       <use xlink:href="#Inconsolata-49"/>
       <use x="49.999985" xlink:href="#Inconsolata-46"/>
       <use x="99.999969" xlink:href="#Inconsolata-48"/>
      </g>
     </g>
    </g>
    <g id="ytick_4">
     <g id="line2d_26">
      <path clip-path="url(#p3db47c1779)" d="M 90 30.956963 
L 648 30.956963 
" style="fill:none;stroke:#ffffff;stroke-linecap:square;stroke-width:0.8;"/>
     </g>
     <g id="line2d_27">
      <g>
       <use style="fill:#555555;stroke:#555555;stroke-width:0.8;" x="90" xlink:href="#mfb1af10c01" y="30.956963"/>
      </g>
     </g>
     <g id="line2d_28">
      <g>
       <use style="fill:#555555;stroke:#555555;stroke-width:0.8;" x="648" xlink:href="#me80ce078d2" y="30.956963"/>
      </g>
     </g>
     <g id="text_15">
      <!-- 1.2 -->
      <g style="fill:#555555;" transform="translate(68 34.277275)scale(0.1 -0.1)">
       <use xlink:href="#Inconsolata-49"/>
       <use x="49.999985" xlink:href="#Inconsolata-46"/>
       <use x="99.999969" xlink:href="#Inconsolata-50"/>
      </g>
     </g>
     <g id="text_16">
      <!-- 1.2 -->
      <g style="fill:#555555;" transform="translate(655 34.277275)scale(0.1 -0.1)">
       <use xlink:href="#Inconsolata-49"/>
       <use x="49.999985" xlink:href="#Inconsolata-46"/>
       <use x="99.999969" xlink:href="#Inconsolata-50"/>
      </g>
     </g>
    </g>
    <g id="text_17">
     <!-- R &amp; growth factor -->
     <defs>
      <path d="M 5.59375 62.296875 
L 5.59375 0 
L 12.59375 0 
L 12.59375 27.5 
L 24.703125 27.5 
L 38.5 0 
L 46.40625 0 
L 32 27.703125 
C 39.5 29.796875 44.703125 36.90625 44.703125 45.203125 
C 44.703125 51.40625 41.59375 57.296875 35.796875 60.203125 
C 31.90625 62.203125 28 62.296875 23.90625 62.296875 
z
M 12.59375 55.703125 
L 23.90625 55.703125 
C 26.5 55.703125 29 55.59375 31.59375 54.40625 
C 35.5 52.40625 37.5 48.40625 37.5 44.40625 
C 37.5 40.40625 35.59375 36.703125 32 34.90625 
C 29.59375 33.703125 27.203125 33.59375 24.703125 33.59375 
L 12.59375 33.59375 
z
" id="Inconsolata-82"/>
      <path id="Inconsolata-32"/>
      <path d="M 22.796875 62.90625 
C 15.203125 62.90625 9.09375 57.203125 9.09375 49.796875 
C 9.09375 44.296875 12.5 38.703125 16.203125 34.203125 
C 8.5 30 3.59375 22.296875 3.59375 14.59375 
C 3.59375 5.703125 10.203125 -1.09375 19.203125 -1.09375 
C 25.90625 -1.09375 32.09375 2.59375 36 7.5 
L 41.5 -1.296875 
L 47.40625 3.09375 
L 40.40625 12.203125 
C 43.203125 15.90625 45.796875 19.796875 48 23.90625 
L 41.5 28.296875 
C 41.296875 28.09375 41.09375 27.796875 41.09375 27.296875 
C 41.09375 26.90625 41.296875 26.5 41.296875 26.09375 
C 41.296875 25.796875 41.203125 25.59375 41.09375 25.296875 
C 40.40625 23 39 20.09375 36.59375 17.296875 
L 25.40625 32.90625 
C 31.90625 36.5 36.203125 43 36.203125 49.59375 
C 36.203125 57.296875 30.296875 62.90625 22.796875 62.90625 
z
M 16 49.59375 
C 16 54 19.203125 56.90625 22.703125 56.90625 
C 26.40625 56.90625 29.703125 53.796875 29.703125 49.09375 
C 29.703125 44.5 26.703125 39.796875 22 37.203125 
C 17.09375 43.40625 16 47 16 49.59375 
z
M 19.59375 29.59375 
L 32.40625 12.296875 
C 32.40625 12.296875 26.90625 5.40625 20.203125 5.40625 
C 15.09375 5.40625 11.09375 9.5 11.09375 15.296875 
C 11.09375 20.40625 14.296875 26.09375 19.59375 29.59375 
z
" id="Inconsolata-38"/>
      <path d="M 12.5 31.40625 
C 12.5 36.90625 17.09375 41.40625 22.59375 41.40625 
C 28.203125 41.40625 32.703125 36.90625 32.703125 31.40625 
C 32.703125 25.90625 28.203125 21.40625 22.59375 21.40625 
C 17 21.40625 12.5 25.90625 12.5 31.40625 
z
M 23 47.09375 
C 13.90625 47.09375 6 39.90625 6 31 
C 6 26 8.5 21.296875 12.703125 18.59375 
C 9.40625 15.796875 7.5 12.703125 7.5 9.796875 
C 7.5 7.90625 8.296875 5.203125 11.203125 3.703125 
C 6.296875 0.59375 3.796875 -2.796875 3.796875 -6.40625 
C 3.796875 -11.40625 8.40625 -17.296875 24.40625 -17.296875 
C 39.90625 -17.296875 45.5 -9.40625 45.5 -3.296875 
C 45.5 0.703125 43.203125 4.703125 38.40625 6.59375 
C 33.59375 8.59375 28.09375 7.90625 22.90625 7.90625 
C 19.5 7.90625 17.296875 8.203125 16.40625 8.5 
C 14.59375 9 13.59375 10.09375 13.59375 11.5 
C 13.59375 13.90625 16.40625 16.203125 16.90625 16.59375 
C 18.703125 15.90625 20.703125 15.59375 22.703125 15.59375 
C 31.703125 15.59375 39.09375 22.796875 39.09375 31.203125 
C 39.09375 34 38.296875 36.703125 36.796875 39 
C 39.203125 40.40625 42 41.203125 44.796875 41.203125 
C 45.703125 41.203125 46.5 41.09375 47.40625 40.90625 
L 46.59375 46.796875 
C 42 47.203125 37.40625 45.703125 33.90625 42.796875 
C 31 45.59375 27.203125 47.09375 23 47.09375 
z
M 16.09375 2.40625 
C 17.796875 2.203125 20.203125 2 23.703125 1.796875 
C 27.09375 1.703125 30.796875 2 33.40625 1.59375 
C 37.59375 0.90625 38.90625 -1.703125 38.90625 -3.703125 
C 38.90625 -5.703125 37.703125 -8.09375 34.59375 -9.796875 
C 31.203125 -11.59375 27.40625 -11.796875 24.296875 -11.796875 
C 22.203125 -11.796875 18.296875 -11.703125 14.90625 -10.296875 
C 11.203125 -8.796875 10.40625 -6.296875 10.40625 -4.703125 
C 10.40625 -1.40625 13.5 1 16.09375 2.40625 
z
" id="Inconsolata-103"/>
      <path d="M 9.90625 45.59375 
L 9.90625 -0.09375 
L 17.09375 -0.09375 
L 17.09375 22.09375 
C 17.09375 24.90625 17.203125 27.90625 20.296875 32.796875 
C 24.5 39.40625 29.90625 40.5 33.203125 40.5 
C 37 40.5 39.40625 38.703125 40.703125 37.09375 
C 41.296875 36.296875 41.59375 35.5 42.40625 34.796875 
L 45.796875 41.703125 
C 42.90625 44.703125 38.703125 46.703125 33.59375 46.703125 
C 26.90625 46.703125 20.09375 43.296875 17.09375 36.796875 
L 17.40625 45.59375 
z
" id="Inconsolata-114"/>
      <path d="M 46 22.59375 
C 46 38.40625 36 46.59375 25.59375 46.59375 
C 14 46.59375 4 36.59375 4 22.40625 
C 4 8.5 13.90625 -1.296875 25.40625 -1.296875 
C 36.203125 -1.296875 46 7.40625 46 22.59375 
z
M 25.09375 40.5 
C 31.703125 40.5 38.703125 34.796875 38.703125 22.296875 
C 38.703125 10.796875 32.09375 5 25.5 5 
C 18.203125 5 11.59375 11.796875 11.59375 23.09375 
C 11.59375 34.296875 18.09375 40.5 25.09375 40.5 
z
" id="Inconsolata-111"/>
      <path d="M 1.5 45.703125 
L 10.703125 -0.09375 
L 17.203125 -0.09375 
L 25.203125 29.5 
L 33.703125 -0.09375 
L 40.40625 -0.09375 
C 43.5 15 46.09375 30.296875 48 45.59375 
L 41.40625 45.59375 
C 41.59375 40.09375 41.09375 35 37.09375 9 
L 27.5 41.40625 
L 23.09375 41.40625 
L 15.203125 8.90625 
L 8.59375 41.90625 
C 8.40625 42.59375 8.40625 42.90625 8.703125 43.703125 
C 8.796875 44.203125 9.09375 44.90625 8.796875 45.703125 
z
" id="Inconsolata-119"/>
      <path d="M 18.796875 57.90625 
L 17.90625 45.59375 
L 7 45.59375 
L 6.90625 39.703125 
L 17.59375 39.703125 
C 17 31.90625 16.703125 24.09375 16.703125 16.40625 
C 16.703125 12.296875 16.703125 7.703125 19.40625 3.90625 
C 21.59375 0.90625 25.09375 -0.90625 29.796875 -0.90625 
C 35.203125 -0.90625 40.5 1.40625 44.40625 4.203125 
L 42.203125 9.90625 
C 38.296875 7 34.703125 5.703125 31.90625 5.703125 
C 28.5 5.703125 25 7.59375 24.203125 13.09375 
C 24.203125 13.5 23.90625 15.203125 23.90625 21.90625 
C 23.90625 27.796875 24.203125 33.796875 24.796875 39.703125 
L 39.796875 39.703125 
L 39.796875 45.703125 
L 24.90625 45.703125 
C 24.90625 45.703125 25.59375 53.90625 26.09375 56.5 
C 26.203125 57.5 27 58.09375 26.59375 59.203125 
z
" id="Inconsolata-116"/>
      <path d="M 6.90625 0 
L 14.296875 0 
L 14.296875 26.296875 
C 14.296875 29.296875 14.59375 31.59375 16.5 34.09375 
C 18.296875 36.40625 22.703125 40.5 27.5 40.5 
C 29.796875 40.5 32.09375 39.5 33.703125 37.59375 
C 36.203125 34.59375 36.203125 30.703125 36.203125 27.5 
L 36.203125 0 
L 43.296875 0 
L 43.296875 27.703125 
C 43.296875 31.203125 43.203125 35 41.59375 38.703125 
C 39.296875 43.796875 34.703125 46.703125 29.5 46.703125 
C 23.296875 46.703125 17.59375 42.703125 14.296875 37.59375 
L 14.296875 64.09375 
C 14.296875 64.40625 14.296875 64.703125 14.59375 65 
C 14.90625 65.296875 15.296875 65.59375 15.296875 66.09375 
C 15.296875 66.203125 15.296875 66.296875 15.203125 66.40625 
L 6.90625 66.40625 
z
" id="Inconsolata-104"/>
      <path d="M 34.296875 67 
C 27.90625 67 21.90625 64.296875 18.703125 59.09375 
C 16.296875 55.296875 16.203125 51.5 16.203125 47.40625 
L 16.203125 42.90625 
L 6.203125 42.90625 
L 6.203125 37.203125 
L 16.203125 37.203125 
L 16.203125 0 
L 23.09375 0 
L 23.09375 37.203125 
L 38 37.203125 
L 38 42.90625 
L 23.09375 42.90625 
L 23.09375 46.5 
C 23.09375 49.796875 23 53.296875 24.703125 56.296875 
C 26.59375 59.703125 30.203125 61.40625 33.90625 61.40625 
C 38.296875 61.40625 42 59.09375 43.90625 56.203125 
C 44.203125 55.703125 44.203125 55.40625 44.203125 55 
C 44.203125 54.296875 44.703125 54.09375 45 54.09375 
L 48.296875 60.796875 
C 45 64.703125 40 67 34.296875 67 
z
" id="Inconsolata-102"/>
      <path d="M 9 40.296875 
L 12.5 35.703125 
C 16.296875 39.59375 21.40625 40.796875 25.703125 40.796875 
C 31.09375 40.796875 33.796875 38.5 35.09375 36.40625 
C 36.59375 33.90625 36.5 30.90625 36.5 28.5 
L 36.5 26.90625 
L 35.09375 26.90625 
C 28.296875 26.90625 21.09375 26.90625 15.296875 24.796875 
C 8.09375 22.203125 4.90625 16.796875 4.90625 11.796875 
C 4.90625 5.09375 10.703125 -1.203125 20.203125 -1.203125 
C 25.796875 -1.203125 31.59375 0.90625 36.59375 5 
L 36.59375 0 
L 43.40625 0 
L 43.40625 28.296875 
C 43.40625 32 43.296875 35.5 41.203125 39.09375 
C 38.203125 44 32.40625 46.59375 25.296875 46.59375 
C 19.203125 46.59375 13.296875 44.703125 9 40.296875 
z
M 36.796875 21.40625 
L 36.796875 18.296875 
C 36.796875 16 36.796875 13 33.703125 9.703125 
C 32 8 27.703125 4.296875 21.703125 4.296875 
C 15.59375 4.296875 12.09375 8.203125 12.09375 12.203125 
C 12.09375 15.59375 14.40625 19.296875 20.09375 20.703125 
C 24.296875 21.703125 30.40625 21.40625 35.203125 21.40625 
z
" id="Inconsolata-97"/>
      <path d="M 45.59375 38.09375 
C 42 43.40625 35.90625 46.59375 28.5 46.59375 
C 15.09375 46.59375 5.59375 36.5 5.59375 22.796875 
C 5.59375 9 15.09375 -1.203125 28.09375 -1.203125 
C 34.40625 -1.203125 40.59375 1.40625 44.90625 6.09375 
L 40.796875 10.90625 
C 37.703125 7.40625 33.203125 5.40625 28.703125 5.40625 
C 19.796875 5.40625 13 12.796875 13 23.5 
C 13 33.90625 19.703125 40.40625 28.09375 40.40625 
C 35.90625 40.40625 39.59375 35 39.90625 34.40625 
C 40.296875 33.703125 39.703125 32.703125 40.5 32.09375 
z
" id="Inconsolata-99"/>
     </defs>
     <g style="fill:#555555;" transform="translate(50.234875 140.55)rotate(-90)scale(0.12 -0.12)">
      <use xlink:href="#Inconsolata-82"/>
      <use x="49.999985" xlink:href="#Inconsolata-32"/>
      <use x="99.999969" xlink:href="#Inconsolata-38"/>
      <use x="149.999954" xlink:href="#Inconsolata-32"/>
      <use x="199.999939" xlink:href="#Inconsolata-103"/>
      <use x="249.999924" xlink:href="#Inconsolata-114"/>
      <use x="299.999908" xlink:href="#Inconsolata-111"/>
      <use x="349.999893" xlink:href="#Inconsolata-119"/>
      <use x="399.999878" xlink:href="#Inconsolata-116"/>
      <use x="449.999863" xlink:href="#Inconsolata-104"/>
      <use x="499.999847" xlink:href="#Inconsolata-32"/>
      <use x="549.999832" xlink:href="#Inconsolata-102"/>
      <use x="599.999817" xlink:href="#Inconsolata-97"/>
      <use x="649.999802" xlink:href="#Inconsolata-99"/>
      <use x="699.999786" xlink:href="#Inconsolata-116"/>
      <use x="749.999771" xlink:href="#Inconsolata-111"/>
      <use x="799.999756" xlink:href="#Inconsolata-114"/>
     </g>
     <!-- (based on deaths) -->
     <defs>
      <path d="M 39.09375 66.59375 
C 23.703125 59.796875 13.796875 44.09375 13.796875 25.796875 
C 13.796875 7.59375 23.40625 -9 39.203125 -17.296875 
L 42.5 -12 
C 28.796875 -4.09375 20.796875 10.59375 20.796875 26.09375 
C 20.796875 40.40625 27.703125 53.203125 39.40625 60 
C 39.59375 60.203125 39.90625 60.40625 40.296875 60.40625 
C 40.59375 60.40625 40.90625 60.203125 41.296875 60.203125 
C 41.5 60.203125 41.796875 60.296875 42.203125 60.40625 
z
" id="Inconsolata-40"/>
      <path d="M 5.90625 66.5 
L 5.90625 0 
L 10.59375 0 
L 13.09375 6 
C 16.09375 1.5 21.09375 -1.203125 26.59375 -1.203125 
C 36 -1.203125 45.703125 6.796875 45.703125 23.40625 
C 45.703125 39.296875 36.296875 46.703125 27.296875 46.703125 
C 21.5 46.703125 16.09375 43.59375 13.203125 38.59375 
L 13.203125 64.203125 
C 13.203125 64.796875 13.296875 65 13.796875 65.40625 
C 14 65.5 14.5 65.90625 14.40625 66.5 
z
M 24.796875 40.5 
C 29.09375 40.5 38.203125 38 38.203125 21.796875 
C 38.203125 7.90625 29.203125 5.296875 24.703125 5.296875 
C 21.59375 5.296875 14.703125 6.5 13.5 15.296875 
C 13.203125 17.59375 13.203125 20.296875 13.203125 24.296875 
C 13.203125 28.40625 13.40625 31.40625 14.40625 33.90625 
C 16.09375 38 20.296875 40.5 24.796875 40.5 
z
" id="Inconsolata-98"/>
      <path d="M 43.203125 39.59375 
C 39 44.203125 32.90625 46.703125 26.09375 46.703125 
C 15.5 46.703125 8.59375 40.796875 8.59375 34 
C 8.59375 26 17.203125 23.09375 19.703125 22.203125 
C 23.59375 20.796875 28.59375 19.59375 32 18 
C 35.796875 16.203125 36.5 13.796875 36.5 12.203125 
C 36.5 7.90625 31.296875 5 24.796875 5 
C 17 5 12 9.703125 10.5 11.296875 
C 10.203125 11.703125 10.203125 12 10.203125 12.40625 
C 10.203125 12.5 10.296875 13.09375 9.796875 13.296875 
L 5.59375 6.203125 
C 11 1.203125 18 -1.09375 24.90625 -1.09375 
C 37.40625 -1.09375 43.90625 6.296875 43.90625 13.203125 
C 43.90625 16.296875 42.59375 20.5 37.203125 23.5 
C 32.09375 26.40625 24.703125 27.40625 20.40625 29.5 
C 16.703125 31.296875 15.90625 33.5 15.90625 35.09375 
C 15.90625 38.703125 20.40625 41.296875 25.5 41.296875 
C 32.09375 41.296875 36.5 37.296875 38.203125 35 
C 38.5 34.703125 38.40625 34.40625 38.40625 34.09375 
C 38.40625 33.5 38.796875 33.296875 39 33.296875 
z
" id="Inconsolata-115"/>
      <path d="M 25.796875 46.703125 
C 14.90625 46.703125 4.796875 38.90625 4.796875 22.296875 
C 4.796875 7 14.296875 -1.09375 26.703125 -1.09375 
C 33.296875 -1.09375 39.203125 1.296875 43.09375 6 
L 39.09375 9.90625 
C 36.203125 6.5 31.796875 4.703125 27.296875 4.703125 
C 21.203125 4.703125 12.296875 8.09375 11.796875 21.796875 
L 44.203125 21.796875 
C 44.5 24.90625 44.40625 27.90625 43.90625 30.5 
C 41.796875 42.796875 33.296875 46.703125 25.796875 46.703125 
z
M 12 27.296875 
C 13.5 38.09375 20.40625 41.203125 25.296875 41.203125 
C 32.703125 41.203125 38 34.703125 37.09375 27.296875 
z
" id="Inconsolata-101"/>
      <path d="M 37.09375 39 
C 34.90625 43.703125 30 46.796875 23.703125 46.796875 
C 15 46.796875 4.40625 40.59375 4.40625 23.203125 
C 4.40625 6.296875 13.796875 -1.09375 22.59375 -1.09375 
C 28.40625 -1.09375 33.796875 2.203125 36.703125 7.296875 
L 36.703125 3.296875 
C 36.703125 2.203125 36.796875 1.09375 37.09375 0 
L 44.296875 0 
C 43.90625 1.296875 43.90625 2.796875 43.90625 4.203125 
L 43.796875 63.59375 
C 43.796875 64.203125 43.796875 64.40625 44.203125 65 
C 44.40625 65.296875 44.796875 65.796875 44.703125 66.5 
L 37.09375 66.5 
z
M 24 40.90625 
C 28 40.90625 33.90625 38.796875 35.703125 32 
C 36.296875 29.90625 36.5 27.40625 36.5 22.296875 
C 36.5 18.796875 36.296875 16.296875 35.5 13.90625 
C 33.796875 8.5 29 5.296875 24.296875 5.296875 
C 19.09375 5.296875 11.40625 9.296875 11.40625 24.296875 
C 11.40625 37.40625 18.703125 40.90625 24 40.90625 
z
" id="Inconsolata-100"/>
      <path d="M 6.796875 0 
L 14.09375 0 
L 14.09375 26.296875 
C 14.09375 29.296875 14.5 31.59375 16.40625 34.09375 
C 18.09375 36.40625 22.5 40.5 27.296875 40.5 
C 29.59375 40.5 31.90625 39.5 33.5 37.59375 
C 36 34.59375 36 30.703125 36 27.5 
L 36 0 
L 43.09375 0 
L 43.09375 27.703125 
C 43.09375 31.203125 43.09375 35 41.5 38.703125 
C 39.203125 43.796875 34.5 46.703125 29.296875 46.703125 
C 23.09375 46.703125 17.5 42.703125 14.09375 37.59375 
L 14.09375 45.59375 
L 6.796875 45.59375 
z
" id="Inconsolata-110"/>
      <path d="M 7.703125 60.296875 
C 20.90625 53.203125 29.296875 39.59375 29.296875 24.703125 
C 29.296875 9.703125 20.703125 -4.296875 7.203125 -11.40625 
L 9.09375 -17.5 
C 25.703125 -9.59375 36.40625 7 36.40625 25 
C 36.40625 42.796875 25.90625 59 9.59375 66.5 
z
" id="Inconsolata-41"/>
     </defs>
     <g style="fill:#555555;" transform="translate(61.9 140.55)rotate(-90)scale(0.12 -0.12)">
      <use xlink:href="#Inconsolata-40"/>
      <use x="49.999985" xlink:href="#Inconsolata-98"/>
      <use x="99.999969" xlink:href="#Inconsolata-97"/>
      <use x="149.999954" xlink:href="#Inconsolata-115"/>
      <use x="199.999939" xlink:href="#Inconsolata-101"/>
      <use x="249.999924" xlink:href="#Inconsolata-100"/>
      <use x="299.999908" xlink:href="#Inconsolata-32"/>
      <use x="349.999893" xlink:href="#Inconsolata-111"/>
      <use x="399.999878" xlink:href="#Inconsolata-110"/>
      <use x="449.999863" xlink:href="#Inconsolata-32"/>
      <use x="499.999847" xlink:href="#Inconsolata-100"/>
      <use x="549.999832" xlink:href="#Inconsolata-101"/>
      <use x="599.999817" xlink:href="#Inconsolata-97"/>
      <use x="649.999802" xlink:href="#Inconsolata-116"/>
      <use x="699.999786" xlink:href="#Inconsolata-104"/>
      <use x="749.999771" xlink:href="#Inconsolata-115"/>
      <use x="799.999756" xlink:href="#Inconsolata-41"/>
     </g>
    </g>
   </g>
   <g id="line2d_29">
    <defs>
     <path d="M 0 3 
C 0.795609 3 1.55874 2.683901 2.12132 2.12132 
C 2.683901 1.55874 3 0.795609 3 0 
C 3 -0.795609 2.683901 -1.55874 2.12132 -2.12132 
C 1.55874 -2.683901 0.795609 -3 0 -3 
C -0.795609 -3 -1.55874 -2.683901 -2.12132 -2.12132 
C -2.683901 -1.55874 -3 -0.795609 -3 0 
C -3 0.795609 -2.683901 1.55874 -2.12132 2.12132 
C -1.55874 2.683901 -0.795609 3 0 3 
z
" id="md71542b6c4" style="stroke:#e24a33;stroke-opacity:0.3;"/>
    </defs>
    <g clip-path="url(#p3db47c1779)">
     <use style="fill:#e24a33;fill-opacity:0.3;stroke:#e24a33;stroke-opacity:0.3;" x="255.515762" xlink:href="#md71542b6c4" y="-1"/>
     <use style="fill:#e24a33;fill-opacity:0.3;stroke:#e24a33;stroke-opacity:0.3;" x="259.633862" xlink:href="#md71542b6c4" y="16.727537"/>
     <use style="fill:#e24a33;fill-opacity:0.3;stroke:#e24a33;stroke-opacity:0.3;" x="264.28774" xlink:href="#md71542b6c4" y="40.672277"/>
     <use style="fill:#e24a33;fill-opacity:0.3;stroke:#e24a33;stroke-opacity:0.3;" x="268.941618" xlink:href="#md71542b6c4" y="61.689129"/>
     <use style="fill:#e24a33;fill-opacity:0.3;stroke:#e24a33;stroke-opacity:0.3;" x="273.595496" xlink:href="#md71542b6c4" y="59.276791"/>
     <use style="fill:#e24a33;fill-opacity:0.3;stroke:#e24a33;stroke-opacity:0.3;" x="278.249374" xlink:href="#md71542b6c4" y="73.881698"/>
     <use style="fill:#e24a33;fill-opacity:0.3;stroke:#e24a33;stroke-opacity:0.3;" x="282.903253" xlink:href="#md71542b6c4" y="4.538203"/>
     <use style="fill:#e24a33;fill-opacity:0.3;stroke:#e24a33;stroke-opacity:0.3;" x="287.557131" xlink:href="#md71542b6c4" y="68.242831"/>
     <use style="fill:#e24a33;fill-opacity:0.3;stroke:#e24a33;stroke-opacity:0.3;" x="292.211009" xlink:href="#md71542b6c4" y="23.467052"/>
     <use style="fill:#e24a33;fill-opacity:0.3;stroke:#e24a33;stroke-opacity:0.3;" x="296.864887" xlink:href="#md71542b6c4" y="53.691408"/>
     <use style="fill:#e24a33;fill-opacity:0.3;stroke:#e24a33;stroke-opacity:0.3;" x="301.518766" xlink:href="#md71542b6c4" y="37.150977"/>
     <use style="fill:#e24a33;fill-opacity:0.3;stroke:#e24a33;stroke-opacity:0.3;" x="306.172644" xlink:href="#md71542b6c4" y="56.522201"/>
     <use style="fill:#e24a33;fill-opacity:0.3;stroke:#e24a33;stroke-opacity:0.3;" x="310.826522" xlink:href="#md71542b6c4" y="51.595751"/>
     <use style="fill:#e24a33;fill-opacity:0.3;stroke:#e24a33;stroke-opacity:0.3;" x="315.4804" xlink:href="#md71542b6c4" y="69.305459"/>
     <use style="fill:#e24a33;fill-opacity:0.3;stroke:#e24a33;stroke-opacity:0.3;" x="320.134279" xlink:href="#md71542b6c4" y="73.593449"/>
     <use style="fill:#e24a33;fill-opacity:0.3;stroke:#e24a33;stroke-opacity:0.3;" x="324.788157" xlink:href="#md71542b6c4" y="83.007489"/>
     <use style="fill:#e24a33;fill-opacity:0.3;stroke:#e24a33;stroke-opacity:0.3;" x="329.442035" xlink:href="#md71542b6c4" y="52.017079"/>
     <use style="fill:#e24a33;fill-opacity:0.3;stroke:#e24a33;stroke-opacity:0.3;" x="334.095913" xlink:href="#md71542b6c4" y="84.196234"/>
     <use style="fill:#e24a33;fill-opacity:0.3;stroke:#e24a33;stroke-opacity:0.3;" x="338.749791" xlink:href="#md71542b6c4" y="54.552435"/>
     <use style="fill:#e24a33;fill-opacity:0.3;stroke:#e24a33;stroke-opacity:0.3;" x="343.40367" xlink:href="#md71542b6c4" y="78.019769"/>
     <use style="fill:#e24a33;fill-opacity:0.3;stroke:#e24a33;stroke-opacity:0.3;" x="348.057548" xlink:href="#md71542b6c4" y="75.845548"/>
     <use style="fill:#e24a33;fill-opacity:0.3;stroke:#e24a33;stroke-opacity:0.3;" x="352.711426" xlink:href="#md71542b6c4" y="72.562499"/>
     <use style="fill:#e24a33;fill-opacity:0.3;stroke:#e24a33;stroke-opacity:0.3;" x="357.365304" xlink:href="#md71542b6c4" y="70.836701"/>
     <use style="fill:#e24a33;fill-opacity:0.3;stroke:#e24a33;stroke-opacity:0.3;" x="362.019183" xlink:href="#md71542b6c4" y="54.134466"/>
     <use style="fill:#e24a33;fill-opacity:0.3;stroke:#e24a33;stroke-opacity:0.3;" x="366.673061" xlink:href="#md71542b6c4" y="73.142938"/>
     <use style="fill:#e24a33;fill-opacity:0.3;stroke:#e24a33;stroke-opacity:0.3;" x="371.326939" xlink:href="#md71542b6c4" y="53.147587"/>
     <use style="fill:#e24a33;fill-opacity:0.3;stroke:#e24a33;stroke-opacity:0.3;" x="375.980817" xlink:href="#md71542b6c4" y="32.224196"/>
     <use style="fill:#e24a33;fill-opacity:0.3;stroke:#e24a33;stroke-opacity:0.3;" x="380.634696" xlink:href="#md71542b6c4" y="68.139777"/>
     <use style="fill:#e24a33;fill-opacity:0.3;stroke:#e24a33;stroke-opacity:0.3;" x="385.288574" xlink:href="#md71542b6c4" y="46.602169"/>
     <use style="fill:#e24a33;fill-opacity:0.3;stroke:#e24a33;stroke-opacity:0.3;" x="389.942452" xlink:href="#md71542b6c4" y="51.769309"/>
     <use style="fill:#e24a33;fill-opacity:0.3;stroke:#e24a33;stroke-opacity:0.3;" x="394.59633" xlink:href="#md71542b6c4" y="67.468812"/>
     <use style="fill:#e24a33;fill-opacity:0.3;stroke:#e24a33;stroke-opacity:0.3;" x="399.250209" xlink:href="#md71542b6c4" y="58.83402"/>
     <use style="fill:#e24a33;fill-opacity:0.3;stroke:#e24a33;stroke-opacity:0.3;" x="403.904087" xlink:href="#md71542b6c4" y="70.182266"/>
     <use style="fill:#e24a33;fill-opacity:0.3;stroke:#e24a33;stroke-opacity:0.3;" x="408.557965" xlink:href="#md71542b6c4" y="59.532697"/>
     <use style="fill:#e24a33;fill-opacity:0.3;stroke:#e24a33;stroke-opacity:0.3;" x="413.211843" xlink:href="#md71542b6c4" y="69.514822"/>
     <use style="fill:#e24a33;fill-opacity:0.3;stroke:#e24a33;stroke-opacity:0.3;" x="417.865721" xlink:href="#md71542b6c4" y="73.287744"/>
     <use style="fill:#e24a33;fill-opacity:0.3;stroke:#e24a33;stroke-opacity:0.3;" x="422.5196" xlink:href="#md71542b6c4" y="65.869246"/>
     <use style="fill:#e24a33;fill-opacity:0.3;stroke:#e24a33;stroke-opacity:0.3;" x="427.173478" xlink:href="#md71542b6c4" y="82.27355"/>
     <use style="fill:#e24a33;fill-opacity:0.3;stroke:#e24a33;stroke-opacity:0.3;" x="431.827356" xlink:href="#md71542b6c4" y="77.650576"/>
     <use style="fill:#e24a33;fill-opacity:0.3;stroke:#e24a33;stroke-opacity:0.3;" x="436.481234" xlink:href="#md71542b6c4" y="81.359941"/>
     <use style="fill:#e24a33;fill-opacity:0.3;stroke:#e24a33;stroke-opacity:0.3;" x="441.135113" xlink:href="#md71542b6c4" y="80.629046"/>
     <use style="fill:#e24a33;fill-opacity:0.3;stroke:#e24a33;stroke-opacity:0.3;" x="445.788991" xlink:href="#md71542b6c4" y="78.1576"/>
     <use style="fill:#e24a33;fill-opacity:0.3;stroke:#e24a33;stroke-opacity:0.3;" x="450.442869" xlink:href="#md71542b6c4" y="74.624368"/>
     <use style="fill:#e24a33;fill-opacity:0.3;stroke:#e24a33;stroke-opacity:0.3;" x="455.096747" xlink:href="#md71542b6c4" y="59.060902"/>
     <use style="fill:#e24a33;fill-opacity:0.3;stroke:#e24a33;stroke-opacity:0.3;" x="459.750626" xlink:href="#md71542b6c4" y="60.510559"/>
     <use style="fill:#e24a33;fill-opacity:0.3;stroke:#e24a33;stroke-opacity:0.3;" x="464.404504" xlink:href="#md71542b6c4" y="60.6447"/>
     <use style="fill:#e24a33;fill-opacity:0.3;stroke:#e24a33;stroke-opacity:0.3;" x="469.058382" xlink:href="#md71542b6c4" y="68.148793"/>
     <use style="fill:#e24a33;fill-opacity:0.3;stroke:#e24a33;stroke-opacity:0.3;" x="473.71226" xlink:href="#md71542b6c4" y="73.9926"/>
     <use style="fill:#e24a33;fill-opacity:0.3;stroke:#e24a33;stroke-opacity:0.3;" x="478.366138" xlink:href="#md71542b6c4" y="74.984231"/>
     <use style="fill:#e24a33;fill-opacity:0.3;stroke:#e24a33;stroke-opacity:0.3;" x="483.020017" xlink:href="#md71542b6c4" y="79.149989"/>
     <use style="fill:#e24a33;fill-opacity:0.3;stroke:#e24a33;stroke-opacity:0.3;" x="487.673895" xlink:href="#md71542b6c4" y="77.45513"/>
     <use style="fill:#e24a33;fill-opacity:0.3;stroke:#e24a33;stroke-opacity:0.3;" x="492.327773" xlink:href="#md71542b6c4" y="80.601672"/>
     <use style="fill:#e24a33;fill-opacity:0.3;stroke:#e24a33;stroke-opacity:0.3;" x="496.981651" xlink:href="#md71542b6c4" y="89.155235"/>
     <use style="fill:#e24a33;fill-opacity:0.3;stroke:#e24a33;stroke-opacity:0.3;" x="501.63553" xlink:href="#md71542b6c4" y="77.676233"/>
     <use style="fill:#e24a33;fill-opacity:0.3;stroke:#e24a33;stroke-opacity:0.3;" x="506.289408" xlink:href="#md71542b6c4" y="80.483675"/>
     <use style="fill:#e24a33;fill-opacity:0.3;stroke:#e24a33;stroke-opacity:0.3;" x="510.943286" xlink:href="#md71542b6c4" y="80.929415"/>
     <use style="fill:#e24a33;fill-opacity:0.3;stroke:#e24a33;stroke-opacity:0.3;" x="515.597164" xlink:href="#md71542b6c4" y="87.705267"/>
     <use style="fill:#e24a33;fill-opacity:0.3;stroke:#e24a33;stroke-opacity:0.3;" x="520.251043" xlink:href="#md71542b6c4" y="91.362812"/>
     <use style="fill:#e24a33;fill-opacity:0.3;stroke:#e24a33;stroke-opacity:0.3;" x="524.904921" xlink:href="#md71542b6c4" y="94.927531"/>
     <use style="fill:#e24a33;fill-opacity:0.3;stroke:#e24a33;stroke-opacity:0.3;" x="529.558799" xlink:href="#md71542b6c4" y="94.930906"/>
     <use style="fill:#e24a33;fill-opacity:0.3;stroke:#e24a33;stroke-opacity:0.3;" x="534.212677" xlink:href="#md71542b6c4" y="89.659852"/>
     <use style="fill:#e24a33;fill-opacity:0.3;stroke:#e24a33;stroke-opacity:0.3;" x="538.866555" xlink:href="#md71542b6c4" y="76.046423"/>
     <use style="fill:#e24a33;fill-opacity:0.3;stroke:#e24a33;stroke-opacity:0.3;" x="543.520434" xlink:href="#md71542b6c4" y="82.734967"/>
     <use style="fill:#e24a33;fill-opacity:0.3;stroke:#e24a33;stroke-opacity:0.3;" x="548.174312" xlink:href="#md71542b6c4" y="71.910533"/>
     <use style="fill:#e24a33;fill-opacity:0.3;stroke:#e24a33;stroke-opacity:0.3;" x="552.82819" xlink:href="#md71542b6c4" y="74.125001"/>
     <use style="fill:#e24a33;fill-opacity:0.3;stroke:#e24a33;stroke-opacity:0.3;" x="557.482068" xlink:href="#md71542b6c4" y="66.249187"/>
     <use style="fill:#e24a33;fill-opacity:0.3;stroke:#e24a33;stroke-opacity:0.3;" x="562.135947" xlink:href="#md71542b6c4" y="58.892562"/>
     <use style="fill:#e24a33;fill-opacity:0.3;stroke:#e24a33;stroke-opacity:0.3;" x="566.789825" xlink:href="#md71542b6c4" y="80.981601"/>
     <use style="fill:#e24a33;fill-opacity:0.3;stroke:#e24a33;stroke-opacity:0.3;" x="571.443703" xlink:href="#md71542b6c4" y="54.878914"/>
     <use style="fill:#e24a33;fill-opacity:0.3;stroke:#e24a33;stroke-opacity:0.3;" x="576.097581" xlink:href="#md71542b6c4" y="68.358111"/>
     <use style="fill:#e24a33;fill-opacity:0.3;stroke:#e24a33;stroke-opacity:0.3;" x="580.75146" xlink:href="#md71542b6c4" y="66.087811"/>
     <use style="fill:#e24a33;fill-opacity:0.3;stroke:#e24a33;stroke-opacity:0.3;" x="585.405338" xlink:href="#md71542b6c4" y="67.602661"/>
     <use style="fill:#e24a33;fill-opacity:0.3;stroke:#e24a33;stroke-opacity:0.3;" x="590.059216" xlink:href="#md71542b6c4" y="83.866435"/>
     <use style="fill:#e24a33;fill-opacity:0.3;stroke:#e24a33;stroke-opacity:0.3;" x="594.713094" xlink:href="#md71542b6c4" y="83.877102"/>
     <use style="fill:#e24a33;fill-opacity:0.3;stroke:#e24a33;stroke-opacity:0.3;" x="599.366972" xlink:href="#md71542b6c4" y="94.182892"/>
     <use style="fill:#e24a33;fill-opacity:0.3;stroke:#e24a33;stroke-opacity:0.3;" x="604.020851" xlink:href="#md71542b6c4" y="113.247535"/>
     <use style="fill:#e24a33;fill-opacity:0.3;stroke:#e24a33;stroke-opacity:0.3;" x="608.674729" xlink:href="#md71542b6c4" y="96.859897"/>
     <use style="fill:#e24a33;fill-opacity:0.3;stroke:#e24a33;stroke-opacity:0.3;" x="613.328607" xlink:href="#md71542b6c4" y="133.06334"/>
     <use style="fill:#e24a33;fill-opacity:0.3;stroke:#e24a33;stroke-opacity:0.3;" x="617.982485" xlink:href="#md71542b6c4" y="155.584133"/>
     <use style="fill:#e24a33;fill-opacity:0.3;stroke:#e24a33;stroke-opacity:0.3;" x="622.636364" xlink:href="#md71542b6c4" y="160.924405"/>
    </g>
   </g>
   <g id="line2d_30">
    <path clip-path="url(#p3db47c1779)" d="M 258.473235 -1 
L 259.633862 5.19507 
L 264.28774 34.080887 
L 268.941618 44.355972 
L 273.595496 50.552584 
L 278.249374 49.6674 
L 282.903253 47.026363 
L 287.557131 43.575579 
L 292.211009 42.939247 
L 296.864887 43.45555 
L 301.518766 48.536839 
L 306.172644 52.071421 
L 310.826522 59.253611 
L 315.4804 63.397315 
L 320.134279 68.405764 
L 324.788157 69.461451 
L 329.442035 70.262039 
L 334.095913 70.110647 
L 338.749791 70.400041 
L 343.40367 70.895574 
L 348.057548 71.249198 
L 352.711426 69.936495 
L 357.365304 68.202229 
L 362.019183 63.217078 
L 366.673061 59.646958 
L 371.326939 55.846887 
L 375.980817 53.220609 
L 380.634696 53.375805 
L 385.288574 53.863009 
L 389.942452 56.770298 
L 394.59633 59.938805 
L 399.250209 61.701794 
L 403.904087 64.469887 
L 408.557965 66.180148 
L 413.211843 68.086075 
L 417.865721 70.616484 
L 422.5196 73.076888 
L 427.173478 75.955293 
L 431.827356 77.815305 
L 436.481234 78.653751 
L 441.135113 77.721806 
L 445.788991 74.598076 
L 450.442869 70.758904 
L 455.096747 67.167023 
L 459.750626 65.294815 
L 464.404504 65.579079 
L 469.058382 67.861165 
L 473.71226 71.290695 
L 478.366138 74.40556 
L 483.020017 77.476694 
L 487.673895 79.360748 
L 492.327773 80.656735 
L 496.981651 81.385475 
L 501.63553 81.898821 
L 506.289408 82.888013 
L 510.943286 84.637011 
L 515.597164 86.91397 
L 520.251043 89.562489 
L 524.904921 90.304435 
L 529.558799 89.619431 
L 534.212677 86.725834 
L 538.866555 83.04132 
L 543.520434 78.873173 
L 548.174312 74.529218 
L 552.82819 71.948475 
L 557.482068 69.380213 
L 562.135947 67.556158 
L 566.789825 66.679156 
L 571.443703 66.1134 
L 576.097581 67.334039 
L 580.75146 69.963837 
L 585.405338 73.619823 
L 590.059216 80.761961 
L 594.713094 87.219849 
L 599.366972 95.714952 
L 604.020851 106.142908 
L 608.674729 117.819933 
L 613.328607 128.457442 
L 617.982485 138.127044 
L 622.636364 145.851595 
" style="fill:none;stroke:#e24a33;stroke-linecap:square;stroke-opacity:0.7;stroke-width:3;"/>
   </g>
   <g id="line2d_31">
    <path clip-path="url(#p3db47c1779)" d="M 264.110635 -1 
L 264.28774 3.166505 
L 268.941618 17.863329 
L 273.595496 10.541256 
L 276.245701 -1 
M 301.750399 -1 
L 306.172644 32.618691 
L 310.826522 60.013428 
L 315.4804 77.617386 
L 320.134279 82.469326 
L 324.788157 75.68364 
L 329.442035 70.460441 
L 334.095913 79.983607 
L 338.749791 75.5379 
L 343.40367 84.843704 
L 348.057548 86.120615 
L 352.711426 65.283978 
L 357.365304 61.507855 
L 362.019183 29.725319 
L 366.673061 5.048048 
L 369.560662 -1 
M 379.340402 -1 
L 380.634696 5.054413 
L 385.288574 17.576105 
L 389.942452 33.636731 
L 394.59633 51.124461 
L 399.250209 49.397754 
L 403.904087 60.519876 
L 408.557965 65.948845 
L 413.211843 69.732771 
L 417.865721 89.07644 
L 422.5196 98.450817 
L 427.173478 106.733654 
L 431.827356 114.54193 
L 436.481234 109.528896 
L 441.135113 96.675924 
L 445.788991 79.280592 
L 450.442869 55.829089 
L 455.096747 40.942379 
L 459.750626 48.758321 
L 464.404504 62.663811 
L 469.058382 79.837002 
L 473.71226 98.689313 
L 478.366138 104.795818 
L 483.020017 111.484781 
L 487.673895 116.342629 
L 492.327773 112.355161 
L 496.981651 114.231149 
L 501.63553 116.933985 
L 506.289408 122.815717 
L 510.943286 134.716832 
L 515.597164 144.828565 
L 520.251043 146.271644 
L 524.904921 143.388858 
L 529.558799 135.565124 
L 534.212677 119.255959 
L 538.866555 107.010823 
L 543.520434 95.180712 
L 548.174312 73.087105 
L 552.82819 70.315363 
L 557.482068 65.783857 
L 562.135947 54.009174 
L 566.789825 67.996311 
L 571.443703 59.871781 
L 576.097581 63.684771 
L 580.75146 88.494677 
L 585.405338 101.250077 
L 590.059216 132.04717 
" style="fill:none;stroke:#fbc15e;stroke-linecap:square;stroke-width:4.5;"/>
   </g>
   <g id="line2d_32">
    <path clip-path="url(#p3db47c1779)" d="M 115.363636 68.384815 
L 622.636364 68.384815 
" style="fill:none;stroke:#777777;stroke-linecap:square;stroke-width:1.5;"/>
   </g>
   <g id="patch_3">
    <path d="M 90 157.5 
L 90 21.6 
" style="fill:none;stroke:#ffffff;stroke-linecap:square;stroke-linejoin:miter;"/>
   </g>
   <g id="patch_4">
    <path d="M 648 157.5 
L 648 21.6 
" style="fill:none;stroke:#ffffff;stroke-linecap:square;stroke-linejoin:miter;"/>
   </g>
   <g id="patch_5">
    <path d="M 90 157.5 
L 648 157.5 
" style="fill:none;stroke:#ffffff;stroke-linecap:square;stroke-linejoin:miter;"/>
   </g>
   <g id="patch_6">
    <path d="M 90 21.6 
L 648 21.6 
" style="fill:none;stroke:#ffffff;stroke-linecap:square;stroke-linejoin:miter;"/>
   </g>
   <g id="legend_1">
    <g id="patch_7">
     <path d="M 97 152.5 
L 399 152.5 
Q 401 152.5 401 150.5 
L 401 110.259375 
Q 401 108.259375 399 108.259375 
L 97 108.259375 
Q 95 108.259375 95 110.259375 
L 95 150.5 
Q 95 152.5 97 152.5 
z
" style="fill:#e5e5e5;opacity:0.8;stroke:#cccccc;stroke-linejoin:miter;stroke-width:0.5;"/>
    </g>
    <g id="line2d_33"/>
    <g id="line2d_34">
     <g>
      <use style="fill:#e24a33;fill-opacity:0.3;stroke:#e24a33;stroke-opacity:0.3;" x="109" xlink:href="#md71542b6c4" y="115.759375"/>
     </g>
    </g>
    <g id="text_18">
     <!-- Korea, South deaths daily growth factor  -->
     <defs>
      <path d="M 4.203125 62.296875 
L 4.203125 0 
L 11.59375 0 
L 11.59375 25.796875 
L 16.5 31.09375 
L 38.203125 -0.5 
C 38.203125 -0.5 42.09375 -0.09375 47.09375 -0.09375 
L 21.90625 35.296875 
L 45.40625 62.296875 
L 42.796875 62.296875 
C 41.09375 62.296875 39.40625 62.296875 37.703125 62.796875 
L 11.59375 33.5 
L 11.59375 59.796875 
C 11.59375 60.203125 11.59375 60.5 12 60.90625 
C 12.203125 61.203125 12.703125 61.703125 12.5 62.296875 
z
" id="Inconsolata-75"/>
      <path d="M 30.5 1.90625 
C 30.5 7 27.09375 10.203125 23.59375 10.203125 
C 20.296875 10.203125 17.796875 7.5 17.796875 4.5 
C 17.796875 1.796875 19.703125 0.703125 20.59375 0.09375 
C 21.5 -0.5 22.90625 -1.40625 22.90625 -3.5 
C 22.90625 -5.09375 22 -6.796875 21.5 -7.59375 
C 20.5 -9.203125 18.796875 -11.703125 16.40625 -13.90625 
L 19.90625 -16.90625 
C 26.90625 -9.796875 30.5 -3.296875 30.5 1.90625 
z
" id="Inconsolata-44"/>
      <path d="M 43.40625 54.796875 
C 39.203125 59.90625 33 62.59375 26.203125 62.59375 
C 14.90625 62.59375 7.203125 55.203125 7.203125 46.59375 
C 7.203125 43 8.59375 38.296875 13.796875 34.5 
C 19.59375 30.203125 28.59375 28.09375 33.296875 25.09375 
C 37.40625 22.59375 38.5 19.296875 38.5 16.5 
C 38.5 11.09375 33.90625 5.203125 24.90625 5.203125 
C 18.09375 5.203125 12.796875 8.59375 10 12.09375 
C 9.703125 12.5 9.703125 12.703125 9.703125 13.09375 
C 9.703125 13.296875 9.703125 13.90625 9.296875 14.09375 
L 5.09375 6.90625 
C 10 1.59375 17 -1.09375 24.703125 -1.09375 
C 39.90625 -1.09375 45.5 9.09375 45.5 16.90625 
C 45.5 20.203125 44.5 24.5 40.59375 28.203125 
C 35.203125 33.296875 26.40625 35.09375 20.703125 38.40625 
C 15.5 41.5 14.40625 45.203125 14.40625 47.703125 
C 14.40625 52.5 18.5 56.796875 25.59375 56.796875 
C 31.40625 56.796875 35.90625 54.203125 38.296875 50.703125 
C 38.59375 50.296875 38.5 50.09375 38.5 49.703125 
C 38.5 49.09375 38.796875 48.90625 39 48.90625 
z
" id="Inconsolata-83"/>
      <path d="M 6.203125 45.59375 
L 6.203125 20.09375 
C 6.203125 16.203125 6.203125 12.203125 8 8.09375 
C 10.59375 2.09375 16.203125 -1.203125 22.203125 -1.203125 
C 27.90625 -1.203125 33.296875 1.90625 36.296875 6.90625 
L 36.203125 3.5 
C 36.203125 2.296875 36.203125 1.09375 36.40625 0 
L 44 0 
C 43.5 1.296875 43.40625 2.796875 43.40625 4.09375 
L 43.40625 45.59375 
L 36.203125 45.59375 
L 36.203125 20.5 
C 36.203125 17 35.90625 14.296875 34.40625 11.5 
C 32.296875 7.59375 28.203125 4.703125 23.796875 4.703125 
C 20.296875 4.703125 16.90625 6.703125 15.09375 10.296875 
C 13.5 13.5 13.5 17.09375 13.5 20.09375 
L 13.5 45.59375 
z
" id="Inconsolata-117"/>
      <path d="M 10.59375 45.703125 
L 10.59375 39.796875 
L 21.59375 39.796875 
L 21.59375 5.703125 
L 10 5.703125 
L 10 0 
L 39.59375 0 
L 39.59375 5.703125 
L 28.90625 5.703125 
L 28.90625 45.703125 
z
M 25.40625 65.5 
C 22.5 65.5 20.203125 63.203125 20.203125 60.40625 
C 20.203125 57.59375 22.5 55.296875 25.40625 55.296875 
C 28.296875 55.296875 30.59375 57.59375 30.59375 60.40625 
C 30.59375 63.203125 28.296875 65.5 25.40625 65.5 
z
" id="Inconsolata-105"/>
      <path d="M 8.40625 66.40625 
L 8.40625 60.59375 
L 21.40625 60.59375 
L 21.40625 5.703125 
L 7.796875 5.703125 
L 7.796875 0 
L 42.09375 0 
L 42.09375 5.703125 
L 28.59375 5.703125 
L 28.59375 66.40625 
z
" id="Inconsolata-108"/>
      <path d="M 4.5 45.59375 
L 23.09375 0.09375 
L 21.59375 -3.203125 
C 20.796875 -5.09375 19.90625 -7 18.5 -8.5 
C 16.59375 -10.59375 14.203125 -11.5 12.09375 -11.5 
C 8.703125 -11.5 7 -9.203125 6.703125 -8.796875 
C 6.40625 -8.296875 6.5 -7.59375 5.90625 -7.09375 
L 2.203125 -13.59375 
C 4.796875 -16.09375 8.296875 -17.40625 12.09375 -17.40625 
C 16.203125 -17.40625 20.5 -15.90625 23.5 -12.5 
C 25.5 -10.203125 26.5 -7.796875 27.5 -5.203125 
L 41.703125 32.5 
C 43.40625 36.796875 44.90625 41.203125 46.296875 45.703125 
L 38.796875 45.703125 
C 38 41.5 36.703125 37.5 35.296875 33.5 
L 26.59375 9 
L 13.203125 42.703125 
C 13.09375 43 13.09375 43.203125 13.09375 43.5 
C 13.09375 44.203125 13.59375 44.703125 13.5 45.59375 
z
" id="Inconsolata-121"/>
     </defs>
     <g transform="translate(127 119.259375)scale(0.1 -0.1)">
      <use xlink:href="#Inconsolata-75"/>
      <use x="49.999985" xlink:href="#Inconsolata-111"/>
      <use x="99.999969" xlink:href="#Inconsolata-114"/>
      <use x="149.999954" xlink:href="#Inconsolata-101"/>
      <use x="199.999939" xlink:href="#Inconsolata-97"/>
      <use x="249.999924" xlink:href="#Inconsolata-44"/>
      <use x="299.999908" xlink:href="#Inconsolata-32"/>
      <use x="349.999893" xlink:href="#Inconsolata-83"/>
      <use x="399.999878" xlink:href="#Inconsolata-111"/>
      <use x="449.999863" xlink:href="#Inconsolata-117"/>
      <use x="499.999847" xlink:href="#Inconsolata-116"/>
      <use x="549.999832" xlink:href="#Inconsolata-104"/>
      <use x="599.999817" xlink:href="#Inconsolata-32"/>
      <use x="649.999802" xlink:href="#Inconsolata-100"/>
      <use x="699.999786" xlink:href="#Inconsolata-101"/>
      <use x="749.999771" xlink:href="#Inconsolata-97"/>
      <use x="799.999756" xlink:href="#Inconsolata-116"/>
      <use x="849.999741" xlink:href="#Inconsolata-104"/>
      <use x="899.999725" xlink:href="#Inconsolata-115"/>
      <use x="949.99971" xlink:href="#Inconsolata-32"/>
      <use x="999.999695" xlink:href="#Inconsolata-100"/>
      <use x="1049.99968" xlink:href="#Inconsolata-97"/>
      <use x="1099.999664" xlink:href="#Inconsolata-105"/>
      <use x="1149.999649" xlink:href="#Inconsolata-108"/>
      <use x="1199.999634" xlink:href="#Inconsolata-121"/>
      <use x="1249.999619" xlink:href="#Inconsolata-32"/>
      <use x="1299.999603" xlink:href="#Inconsolata-103"/>
      <use x="1349.999588" xlink:href="#Inconsolata-114"/>
      <use x="1399.999573" xlink:href="#Inconsolata-111"/>
      <use x="1449.999557" xlink:href="#Inconsolata-119"/>
      <use x="1499.999542" xlink:href="#Inconsolata-116"/>
      <use x="1549.999527" xlink:href="#Inconsolata-104"/>
      <use x="1599.999512" xlink:href="#Inconsolata-32"/>
      <use x="1649.999496" xlink:href="#Inconsolata-102"/>
      <use x="1699.999481" xlink:href="#Inconsolata-97"/>
      <use x="1749.999466" xlink:href="#Inconsolata-99"/>
      <use x="1799.999451" xlink:href="#Inconsolata-116"/>
      <use x="1849.999435" xlink:href="#Inconsolata-111"/>
      <use x="1899.99942" xlink:href="#Inconsolata-114"/>
      <use x="1949.999405" xlink:href="#Inconsolata-32"/>
     </g>
    </g>
    <g id="line2d_35">
     <path d="M 99 129.5 
L 119 129.5 
" style="fill:none;stroke:#e24a33;stroke-linecap:square;stroke-opacity:0.7;stroke-width:3;"/>
    </g>
    <g id="line2d_36"/>
    <g id="text_19">
     <!-- Korea, South deaths daily growth factor (rolling mean) -->
     <defs>
      <path d="M 3.703125 0 
L 10.296875 0 
L 10.296875 30.40625 
C 10.296875 32.59375 10.5 34.59375 11.796875 37 
C 13.40625 40 15.40625 41.203125 17.296875 41.203125 
C 18.90625 41.203125 20.703125 40.203125 21.5 37.703125 
C 22.09375 35.796875 22 33.59375 22 31.703125 
L 22 0 
L 28.703125 0 
L 28.703125 30.203125 
C 28.703125 32.59375 28.90625 34.5 30.59375 37.40625 
C 31.40625 38.59375 33.09375 41.5 35.90625 41.5 
C 37.40625 41.5 38.796875 40.59375 39.5 38.90625 
C 40.40625 37 40.203125 34.40625 40.203125 32.296875 
L 40.203125 -0.09375 
L 47 -0.09375 
L 47 32.40625 
C 47 36.203125 47.09375 40 45.09375 43.09375 
C 43.40625 45.703125 40.5 46.703125 38 46.703125 
C 33.59375 46.703125 29.5 44.09375 27.703125 40.09375 
C 27 43.90625 23.796875 46.703125 19.703125 46.703125 
C 15.90625 46.703125 12.40625 44.296875 10.296875 41.09375 
L 10.40625 45.59375 
L 3.703125 45.59375 
z
" id="Inconsolata-109"/>
     </defs>
     <g transform="translate(127 133)scale(0.1 -0.1)">
      <use xlink:href="#Inconsolata-75"/>
      <use x="49.999985" xlink:href="#Inconsolata-111"/>
      <use x="99.999969" xlink:href="#Inconsolata-114"/>
      <use x="149.999954" xlink:href="#Inconsolata-101"/>
      <use x="199.999939" xlink:href="#Inconsolata-97"/>
      <use x="249.999924" xlink:href="#Inconsolata-44"/>
      <use x="299.999908" xlink:href="#Inconsolata-32"/>
      <use x="349.999893" xlink:href="#Inconsolata-83"/>
      <use x="399.999878" xlink:href="#Inconsolata-111"/>
      <use x="449.999863" xlink:href="#Inconsolata-117"/>
      <use x="499.999847" xlink:href="#Inconsolata-116"/>
      <use x="549.999832" xlink:href="#Inconsolata-104"/>
      <use x="599.999817" xlink:href="#Inconsolata-32"/>
      <use x="649.999802" xlink:href="#Inconsolata-100"/>
      <use x="699.999786" xlink:href="#Inconsolata-101"/>
      <use x="749.999771" xlink:href="#Inconsolata-97"/>
      <use x="799.999756" xlink:href="#Inconsolata-116"/>
      <use x="849.999741" xlink:href="#Inconsolata-104"/>
      <use x="899.999725" xlink:href="#Inconsolata-115"/>
      <use x="949.99971" xlink:href="#Inconsolata-32"/>
      <use x="999.999695" xlink:href="#Inconsolata-100"/>
      <use x="1049.99968" xlink:href="#Inconsolata-97"/>
      <use x="1099.999664" xlink:href="#Inconsolata-105"/>
      <use x="1149.999649" xlink:href="#Inconsolata-108"/>
      <use x="1199.999634" xlink:href="#Inconsolata-121"/>
      <use x="1249.999619" xlink:href="#Inconsolata-32"/>
      <use x="1299.999603" xlink:href="#Inconsolata-103"/>
      <use x="1349.999588" xlink:href="#Inconsolata-114"/>
      <use x="1399.999573" xlink:href="#Inconsolata-111"/>
      <use x="1449.999557" xlink:href="#Inconsolata-119"/>
      <use x="1499.999542" xlink:href="#Inconsolata-116"/>
      <use x="1549.999527" xlink:href="#Inconsolata-104"/>
      <use x="1599.999512" xlink:href="#Inconsolata-32"/>
      <use x="1649.999496" xlink:href="#Inconsolata-102"/>
      <use x="1699.999481" xlink:href="#Inconsolata-97"/>
      <use x="1749.999466" xlink:href="#Inconsolata-99"/>
      <use x="1799.999451" xlink:href="#Inconsolata-116"/>
      <use x="1849.999435" xlink:href="#Inconsolata-111"/>
      <use x="1899.99942" xlink:href="#Inconsolata-114"/>
      <use x="1949.999405" xlink:href="#Inconsolata-32"/>
      <use x="1999.99939" xlink:href="#Inconsolata-40"/>
      <use x="2049.999374" xlink:href="#Inconsolata-114"/>
      <use x="2099.999359" xlink:href="#Inconsolata-111"/>
      <use x="2149.999344" xlink:href="#Inconsolata-108"/>
      <use x="2199.999329" xlink:href="#Inconsolata-108"/>
      <use x="2249.999313" xlink:href="#Inconsolata-105"/>
      <use x="2299.999298" xlink:href="#Inconsolata-110"/>
      <use x="2349.999283" xlink:href="#Inconsolata-103"/>
      <use x="2399.999268" xlink:href="#Inconsolata-32"/>
      <use x="2449.999252" xlink:href="#Inconsolata-109"/>
      <use x="2499.999237" xlink:href="#Inconsolata-101"/>
      <use x="2549.999222" xlink:href="#Inconsolata-97"/>
      <use x="2599.999207" xlink:href="#Inconsolata-110"/>
      <use x="2649.999191" xlink:href="#Inconsolata-41"/>
     </g>
    </g>
    <g id="line2d_37">
     <path d="M 99 143.25 
L 119 143.25 
" style="fill:none;stroke:#fbc15e;stroke-linecap:square;stroke-width:4.5;"/>
    </g>
    <g id="line2d_38"/>
    <g id="text_20">
     <!-- Korea, South estimated R (using deaths) -->
     <g transform="translate(127 146.75)scale(0.1 -0.1)">
      <use xlink:href="#Inconsolata-75"/>
      <use x="49.999985" xlink:href="#Inconsolata-111"/>
      <use x="99.999969" xlink:href="#Inconsolata-114"/>
      <use x="149.999954" xlink:href="#Inconsolata-101"/>
      <use x="199.999939" xlink:href="#Inconsolata-97"/>
      <use x="249.999924" xlink:href="#Inconsolata-44"/>
      <use x="299.999908" xlink:href="#Inconsolata-32"/>
      <use x="349.999893" xlink:href="#Inconsolata-83"/>
      <use x="399.999878" xlink:href="#Inconsolata-111"/>
      <use x="449.999863" xlink:href="#Inconsolata-117"/>
      <use x="499.999847" xlink:href="#Inconsolata-116"/>
      <use x="549.999832" xlink:href="#Inconsolata-104"/>
      <use x="599.999817" xlink:href="#Inconsolata-32"/>
      <use x="649.999802" xlink:href="#Inconsolata-101"/>
      <use x="699.999786" xlink:href="#Inconsolata-115"/>
      <use x="749.999771" xlink:href="#Inconsolata-116"/>
      <use x="799.999756" xlink:href="#Inconsolata-105"/>
      <use x="849.999741" xlink:href="#Inconsolata-109"/>
      <use x="899.999725" xlink:href="#Inconsolata-97"/>
      <use x="949.99971" xlink:href="#Inconsolata-116"/>
      <use x="999.999695" xlink:href="#Inconsolata-101"/>
      <use x="1049.99968" xlink:href="#Inconsolata-100"/>
      <use x="1099.999664" xlink:href="#Inconsolata-32"/>
      <use x="1149.999649" xlink:href="#Inconsolata-82"/>
      <use x="1199.999634" xlink:href="#Inconsolata-32"/>
      <use x="1249.999619" xlink:href="#Inconsolata-40"/>
      <use x="1299.999603" xlink:href="#Inconsolata-117"/>
      <use x="1349.999588" xlink:href="#Inconsolata-115"/>
      <use x="1399.999573" xlink:href="#Inconsolata-105"/>
      <use x="1449.999557" xlink:href="#Inconsolata-110"/>
      <use x="1499.999542" xlink:href="#Inconsolata-103"/>
      <use x="1549.999527" xlink:href="#Inconsolata-32"/>
      <use x="1599.999512" xlink:href="#Inconsolata-100"/>
      <use x="1649.999496" xlink:href="#Inconsolata-101"/>
      <use x="1699.999481" xlink:href="#Inconsolata-97"/>
      <use x="1749.999466" xlink:href="#Inconsolata-116"/>
      <use x="1799.999451" xlink:href="#Inconsolata-104"/>
      <use x="1849.999435" xlink:href="#Inconsolata-115"/>
      <use x="1899.99942" xlink:href="#Inconsolata-41"/>
     </g>
    </g>
   </g>
  </g>
 </g>
 <defs>
  <clipPath id="p3db47c1779">
   <rect height="135.9" width="558" x="90" y="21.6"/>
  </clipPath>
 </defs>
</svg>
