<?xml version="1.0" encoding="utf-8" standalone="no"?>
<!DOCTYPE svg PUBLIC "-//W3C//DTD SVG 1.1//EN"
  "http://www.w3.org/Graphics/SVG/1.1/DTD/svg11.dtd">
<!-- Created with matplotlib (https://matplotlib.org/) -->
<svg height="432pt" version="1.1" viewBox="0 0 720 432" width="720pt" xmlns="http://www.w3.org/2000/svg" xmlns:xlink="http://www.w3.org/1999/xlink">
 <metadata>
  <rdf:RDF xmlns:cc="http://creativecommons.org/ns#" xmlns:dc="http://purl.org/dc/elements/1.1/" xmlns:rdf="http://www.w3.org/1999/02/22-rdf-syntax-ns#">
   <cc:Work>
    <dc:type rdf:resource="http://purl.org/dc/dcmitype/StillImage"/>
    <dc:date>2021-03-29T16:33:01.627301</dc:date>
    <dc:format>image/svg+xml</dc:format>
    <dc:creator>
     <cc:Agent>
      <dc:title>Matplotlib v3.3.2, https://matplotlib.org/</dc:title>
     </cc:Agent>
    </dc:creator>
   </cc:Work>
  </rdf:RDF>
 </metadata>
 <defs>
  <style type="text/css">*{stroke-linecap:butt;stroke-linejoin:round;}</style>
 </defs>
 <g id="figure_1">
  <g id="patch_1">
   <path d="M 0 432 
L 720 432 
L 720 0 
L 0 0 
z
" style="fill:#ffffff;"/>
  </g>
  <g id="axes_1">
   <g id="patch_2">
    <path d="M 90 378 
L 648 378 
L 648 229.745455 
L 90 229.745455 
z
" style="fill:#e5e5e5;"/>
   </g>
   <g id="matplotlib.axis_1">
    <g id="xtick_1">
     <g id="line2d_1">
      <path clip-path="url(#pb454dbd0ab)" d="M 161.122774 378 
L 161.122774 229.745455 
" style="fill:none;stroke:#ffffff;stroke-linecap:square;stroke-width:0.8;"/>
     </g>
     <g id="line2d_2">
      <defs>
       <path d="M 0 0 
L 0 3.5 
" id="m7c494f13a4" style="stroke:#555555;stroke-width:0.8;"/>
      </defs>
      <g>
       <use style="fill:#555555;stroke:#555555;stroke-width:0.8;" x="161.122774" xlink:href="#m7c494f13a4" y="378"/>
      </g>
     </g>
     <g id="text_1">
      <text style="fill:#555555;font-family:DejaVu Sans;font-size:10px;font-stretch:normal;font-style:normal;font-weight:normal;text-anchor:middle;" transform="rotate(-0, 161.122774, 392.598437)" x="161.122774" y="392.598437">2020-03</text>
     </g>
    </g>
    <g id="xtick_2">
     <g id="line2d_3">
      <path clip-path="url(#pb454dbd0ab)" d="M 240.874414 378 
L 240.874414 229.745455 
" style="fill:none;stroke:#ffffff;stroke-linecap:square;stroke-width:0.8;"/>
     </g>
     <g id="line2d_4">
      <g>
       <use style="fill:#555555;stroke:#555555;stroke-width:0.8;" x="240.874414" xlink:href="#m7c494f13a4" y="378"/>
      </g>
     </g>
     <g id="text_2">
      <text style="fill:#555555;font-family:DejaVu Sans;font-size:10px;font-stretch:normal;font-style:normal;font-weight:normal;text-anchor:middle;" transform="rotate(-0, 240.874414, 392.598437)" x="240.874414" y="392.598437">2020-05</text>
     </g>
    </g>
    <g id="xtick_3">
     <g id="line2d_5">
      <path clip-path="url(#pb454dbd0ab)" d="M 320.626054 378 
L 320.626054 229.745455 
" style="fill:none;stroke:#ffffff;stroke-linecap:square;stroke-width:0.8;"/>
     </g>
     <g id="line2d_6">
      <g>
       <use style="fill:#555555;stroke:#555555;stroke-width:0.8;" x="320.626054" xlink:href="#m7c494f13a4" y="378"/>
      </g>
     </g>
     <g id="text_3">
      <text style="fill:#555555;font-family:DejaVu Sans;font-size:10px;font-stretch:normal;font-style:normal;font-weight:normal;text-anchor:middle;" transform="rotate(-0, 320.626054, 392.598437)" x="320.626054" y="392.598437">2020-07</text>
     </g>
    </g>
    <g id="xtick_4">
     <g id="line2d_7">
      <path clip-path="url(#pb454dbd0ab)" d="M 401.685098 378 
L 401.685098 229.745455 
" style="fill:none;stroke:#ffffff;stroke-linecap:square;stroke-width:0.8;"/>
     </g>
     <g id="line2d_8">
      <g>
       <use style="fill:#555555;stroke:#555555;stroke-width:0.8;" x="401.685098" xlink:href="#m7c494f13a4" y="378"/>
      </g>
     </g>
     <g id="text_4">
      <text style="fill:#555555;font-family:DejaVu Sans;font-size:10px;font-stretch:normal;font-style:normal;font-weight:normal;text-anchor:middle;" transform="rotate(-0, 401.685098, 392.598437)" x="401.685098" y="392.598437">2020-09</text>
     </g>
    </g>
    <g id="xtick_5">
     <g id="line2d_9">
      <path clip-path="url(#pb454dbd0ab)" d="M 481.436739 378 
L 481.436739 229.745455 
" style="fill:none;stroke:#ffffff;stroke-linecap:square;stroke-width:0.8;"/>
     </g>
     <g id="line2d_10">
      <g>
       <use style="fill:#555555;stroke:#555555;stroke-width:0.8;" x="481.436739" xlink:href="#m7c494f13a4" y="378"/>
      </g>
     </g>
     <g id="text_5">
      <text style="fill:#555555;font-family:DejaVu Sans;font-size:10px;font-stretch:normal;font-style:normal;font-weight:normal;text-anchor:middle;" transform="rotate(-0, 481.436739, 392.598437)" x="481.436739" y="392.598437">2020-11</text>
     </g>
    </g>
    <g id="xtick_6">
     <g id="line2d_11">
      <path clip-path="url(#pb454dbd0ab)" d="M 561.188379 378 
L 561.188379 229.745455 
" style="fill:none;stroke:#ffffff;stroke-linecap:square;stroke-width:0.8;"/>
     </g>
     <g id="line2d_12">
      <g>
       <use style="fill:#555555;stroke:#555555;stroke-width:0.8;" x="561.188379" xlink:href="#m7c494f13a4" y="378"/>
      </g>
     </g>
     <g id="text_6">
      <text style="fill:#555555;font-family:DejaVu Sans;font-size:10px;font-stretch:normal;font-style:normal;font-weight:normal;text-anchor:middle;" transform="rotate(-0, 561.188379, 392.598437)" x="561.188379" y="392.598437">2021-01</text>
     </g>
    </g>
    <g id="xtick_7">
     <g id="line2d_13">
      <path clip-path="url(#pb454dbd0ab)" d="M 638.325211 378 
L 638.325211 229.745455 
" style="fill:none;stroke:#ffffff;stroke-linecap:square;stroke-width:0.8;"/>
     </g>
     <g id="line2d_14">
      <g>
       <use style="fill:#555555;stroke:#555555;stroke-width:0.8;" x="638.325211" xlink:href="#m7c494f13a4" y="378"/>
      </g>
     </g>
     <g id="text_7">
      <text style="fill:#555555;font-family:DejaVu Sans;font-size:10px;font-stretch:normal;font-style:normal;font-weight:normal;text-anchor:middle;" transform="rotate(-0, 638.325211, 392.598437)" x="638.325211" y="392.598437">2021-03</text>
     </g>
    </g>
   </g>
   <g id="matplotlib.axis_2">
    <g id="ytick_1">
     <g id="line2d_15">
      <path clip-path="url(#pb454dbd0ab)" d="M 90 360.363837 
L 648 360.363837 
" style="fill:none;stroke:#ffffff;stroke-linecap:square;stroke-width:0.8;"/>
     </g>
     <g id="line2d_16">
      <defs>
       <path d="M 0 0 
L -3.5 0 
" id="mcd164a31a3" style="stroke:#555555;stroke-width:0.8;"/>
      </defs>
      <g>
       <use style="fill:#555555;stroke:#555555;stroke-width:0.8;" x="90" xlink:href="#mcd164a31a3" y="360.363837"/>
      </g>
     </g>
     <g id="line2d_17">
      <defs>
       <path d="M 0 0 
L 3.5 0 
" id="m92a773a08f" style="stroke:#555555;stroke-width:0.8;"/>
      </defs>
      <g>
       <use style="fill:#555555;stroke:#555555;stroke-width:0.8;" x="648" xlink:href="#m92a773a08f" y="360.363837"/>
      </g>
     </g>
     <g id="text_8">
      <text style="fill:#555555;font-family:DejaVu Sans;font-size:10px;font-stretch:normal;font-style:normal;font-weight:normal;text-anchor:end;" transform="rotate(-0, 83, 364.163056)" x="83" y="364.163056">0.0001</text>
     </g>
     <g id="text_9">
      <text style="fill:#555555;font-family:DejaVu Sans;font-size:10px;font-stretch:normal;font-style:normal;font-weight:normal;text-anchor:start;" transform="rotate(-0, 655, 364.163056)" x="655" y="364.163056">0.0001</text>
     </g>
    </g>
    <g id="ytick_2">
     <g id="line2d_18">
      <path clip-path="url(#pb454dbd0ab)" d="M 90 330.336147 
L 648 330.336147 
" style="fill:none;stroke:#ffffff;stroke-linecap:square;stroke-width:0.8;"/>
     </g>
     <g id="line2d_19">
      <g>
       <use style="fill:#555555;stroke:#555555;stroke-width:0.8;" x="90" xlink:href="#mcd164a31a3" y="330.336147"/>
      </g>
     </g>
     <g id="line2d_20">
      <g>
       <use style="fill:#555555;stroke:#555555;stroke-width:0.8;" x="648" xlink:href="#m92a773a08f" y="330.336147"/>
      </g>
     </g>
     <g id="text_10">
      <text style="fill:#555555;font-family:DejaVu Sans;font-size:10px;font-stretch:normal;font-style:normal;font-weight:normal;text-anchor:end;" transform="rotate(-0, 83, 334.135366)" x="83" y="334.135366">0.001</text>
     </g>
     <g id="text_11">
      <text style="fill:#555555;font-family:DejaVu Sans;font-size:10px;font-stretch:normal;font-style:normal;font-weight:normal;text-anchor:start;" transform="rotate(-0, 655, 334.135366)" x="655" y="334.135366">0.001</text>
     </g>
    </g>
    <g id="ytick_3">
     <g id="line2d_21">
      <path clip-path="url(#pb454dbd0ab)" d="M 90 300.308457 
L 648 300.308457 
" style="fill:none;stroke:#ffffff;stroke-linecap:square;stroke-width:0.8;"/>
     </g>
     <g id="line2d_22">
      <g>
       <use style="fill:#555555;stroke:#555555;stroke-width:0.8;" x="90" xlink:href="#mcd164a31a3" y="300.308457"/>
      </g>
     </g>
     <g id="line2d_23">
      <g>
       <use style="fill:#555555;stroke:#555555;stroke-width:0.8;" x="648" xlink:href="#m92a773a08f" y="300.308457"/>
      </g>
     </g>
     <g id="text_12">
      <text style="fill:#555555;font-family:DejaVu Sans;font-size:10px;font-stretch:normal;font-style:normal;font-weight:normal;text-anchor:end;" transform="rotate(-0, 83, 304.107675)" x="83" y="304.107675">0.01</text>
     </g>
     <g id="text_13">
      <text style="fill:#555555;font-family:DejaVu Sans;font-size:10px;font-stretch:normal;font-style:normal;font-weight:normal;text-anchor:start;" transform="rotate(-0, 655, 304.107675)" x="655" y="304.107675">0.01</text>
     </g>
    </g>
    <g id="ytick_4">
     <g id="line2d_24">
      <path clip-path="url(#pb454dbd0ab)" d="M 90 270.280766 
L 648 270.280766 
" style="fill:none;stroke:#ffffff;stroke-linecap:square;stroke-width:0.8;"/>
     </g>
     <g id="line2d_25">
      <g>
       <use style="fill:#555555;stroke:#555555;stroke-width:0.8;" x="90" xlink:href="#mcd164a31a3" y="270.280766"/>
      </g>
     </g>
     <g id="line2d_26">
      <g>
       <use style="fill:#555555;stroke:#555555;stroke-width:0.8;" x="648" xlink:href="#m92a773a08f" y="270.280766"/>
      </g>
     </g>
     <g id="text_14">
      <text style="fill:#555555;font-family:DejaVu Sans;font-size:10px;font-stretch:normal;font-style:normal;font-weight:normal;text-anchor:end;" transform="rotate(-0, 83, 274.079985)" x="83" y="274.079985">0.1</text>
     </g>
     <g id="text_15">
      <text style="fill:#555555;font-family:DejaVu Sans;font-size:10px;font-stretch:normal;font-style:normal;font-weight:normal;text-anchor:start;" transform="rotate(-0, 655, 274.079985)" x="655" y="274.079985">0.1</text>
     </g>
    </g>
    <g id="ytick_5">
     <g id="line2d_27">
      <path clip-path="url(#pb454dbd0ab)" d="M 90 240.253076 
L 648 240.253076 
" style="fill:none;stroke:#ffffff;stroke-linecap:square;stroke-width:0.8;"/>
     </g>
     <g id="line2d_28">
      <g>
       <use style="fill:#555555;stroke:#555555;stroke-width:0.8;" x="90" xlink:href="#mcd164a31a3" y="240.253076"/>
      </g>
     </g>
     <g id="line2d_29">
      <g>
       <use style="fill:#555555;stroke:#555555;stroke-width:0.8;" x="648" xlink:href="#m92a773a08f" y="240.253076"/>
      </g>
     </g>
     <g id="text_16">
      <text style="fill:#555555;font-family:DejaVu Sans;font-size:10px;font-stretch:normal;font-style:normal;font-weight:normal;text-anchor:end;" transform="rotate(-0, 83, 244.052294)" x="83" y="244.052294">1</text>
     </g>
     <g id="text_17">
      <text style="fill:#555555;font-family:DejaVu Sans;font-size:10px;font-stretch:normal;font-style:normal;font-weight:normal;text-anchor:start;" transform="rotate(-0, 655, 244.052294)" x="655" y="244.052294">1</text>
     </g>
    </g>
    <g id="ytick_6">
     <g id="line2d_30">
      <defs>
       <path d="M 0 0 
L -2 0 
" id="m9c47eee22a" style="stroke:#555555;stroke-width:0.6;"/>
      </defs>
      <g>
       <use style="fill:#555555;stroke:#555555;stroke-width:0.6;" x="90" xlink:href="#m9c47eee22a" y="376.064679"/>
      </g>
     </g>
     <g id="line2d_31">
      <defs>
       <path d="M 0 0 
L 2 0 
" id="m752ade6470" style="stroke:#555555;stroke-width:0.6;"/>
      </defs>
      <g>
       <use style="fill:#555555;stroke:#555555;stroke-width:0.6;" x="648" xlink:href="#m752ade6470" y="376.064679"/>
      </g>
     </g>
    </g>
    <g id="ytick_7">
     <g id="line2d_32">
      <g>
       <use style="fill:#555555;stroke:#555555;stroke-width:0.6;" x="90" xlink:href="#m9c47eee22a" y="372.313057"/>
      </g>
     </g>
     <g id="line2d_33">
      <g>
       <use style="fill:#555555;stroke:#555555;stroke-width:0.6;" x="648" xlink:href="#m752ade6470" y="372.313057"/>
      </g>
     </g>
    </g>
    <g id="ytick_8">
     <g id="line2d_34">
      <g>
       <use style="fill:#555555;stroke:#555555;stroke-width:0.6;" x="90" xlink:href="#m9c47eee22a" y="369.403073"/>
      </g>
     </g>
     <g id="line2d_35">
      <g>
       <use style="fill:#555555;stroke:#555555;stroke-width:0.6;" x="648" xlink:href="#m752ade6470" y="369.403073"/>
      </g>
     </g>
    </g>
    <g id="ytick_9">
     <g id="line2d_36">
      <g>
       <use style="fill:#555555;stroke:#555555;stroke-width:0.6;" x="90" xlink:href="#m9c47eee22a" y="367.025443"/>
      </g>
     </g>
     <g id="line2d_37">
      <g>
       <use style="fill:#555555;stroke:#555555;stroke-width:0.6;" x="648" xlink:href="#m752ade6470" y="367.025443"/>
      </g>
     </g>
    </g>
    <g id="ytick_10">
     <g id="line2d_38">
      <g>
       <use style="fill:#555555;stroke:#555555;stroke-width:0.6;" x="90" xlink:href="#m9c47eee22a" y="365.015186"/>
      </g>
     </g>
     <g id="line2d_39">
      <g>
       <use style="fill:#555555;stroke:#555555;stroke-width:0.6;" x="648" xlink:href="#m752ade6470" y="365.015186"/>
      </g>
     </g>
    </g>
    <g id="ytick_11">
     <g id="line2d_40">
      <g>
       <use style="fill:#555555;stroke:#555555;stroke-width:0.6;" x="90" xlink:href="#m9c47eee22a" y="363.273821"/>
      </g>
     </g>
     <g id="line2d_41">
      <g>
       <use style="fill:#555555;stroke:#555555;stroke-width:0.6;" x="648" xlink:href="#m752ade6470" y="363.273821"/>
      </g>
     </g>
    </g>
    <g id="ytick_12">
     <g id="line2d_42">
      <g>
       <use style="fill:#555555;stroke:#555555;stroke-width:0.6;" x="90" xlink:href="#m9c47eee22a" y="361.737829"/>
      </g>
     </g>
     <g id="line2d_43">
      <g>
       <use style="fill:#555555;stroke:#555555;stroke-width:0.6;" x="648" xlink:href="#m752ade6470" y="361.737829"/>
      </g>
     </g>
    </g>
    <g id="ytick_13">
     <g id="line2d_44">
      <g>
       <use style="fill:#555555;stroke:#555555;stroke-width:0.6;" x="90" xlink:href="#m9c47eee22a" y="351.324602"/>
      </g>
     </g>
     <g id="line2d_45">
      <g>
       <use style="fill:#555555;stroke:#555555;stroke-width:0.6;" x="648" xlink:href="#m752ade6470" y="351.324602"/>
      </g>
     </g>
    </g>
    <g id="ytick_14">
     <g id="line2d_46">
      <g>
       <use style="fill:#555555;stroke:#555555;stroke-width:0.6;" x="90" xlink:href="#m9c47eee22a" y="346.036988"/>
      </g>
     </g>
     <g id="line2d_47">
      <g>
       <use style="fill:#555555;stroke:#555555;stroke-width:0.6;" x="648" xlink:href="#m752ade6470" y="346.036988"/>
      </g>
     </g>
    </g>
    <g id="ytick_15">
     <g id="line2d_48">
      <g>
       <use style="fill:#555555;stroke:#555555;stroke-width:0.6;" x="90" xlink:href="#m9c47eee22a" y="342.285366"/>
      </g>
     </g>
     <g id="line2d_49">
      <g>
       <use style="fill:#555555;stroke:#555555;stroke-width:0.6;" x="648" xlink:href="#m752ade6470" y="342.285366"/>
      </g>
     </g>
    </g>
    <g id="ytick_16">
     <g id="line2d_50">
      <g>
       <use style="fill:#555555;stroke:#555555;stroke-width:0.6;" x="90" xlink:href="#m9c47eee22a" y="339.375383"/>
      </g>
     </g>
     <g id="line2d_51">
      <g>
       <use style="fill:#555555;stroke:#555555;stroke-width:0.6;" x="648" xlink:href="#m752ade6470" y="339.375383"/>
      </g>
     </g>
    </g>
    <g id="ytick_17">
     <g id="line2d_52">
      <g>
       <use style="fill:#555555;stroke:#555555;stroke-width:0.6;" x="90" xlink:href="#m9c47eee22a" y="336.997753"/>
      </g>
     </g>
     <g id="line2d_53">
      <g>
       <use style="fill:#555555;stroke:#555555;stroke-width:0.6;" x="648" xlink:href="#m752ade6470" y="336.997753"/>
      </g>
     </g>
    </g>
    <g id="ytick_18">
     <g id="line2d_54">
      <g>
       <use style="fill:#555555;stroke:#555555;stroke-width:0.6;" x="90" xlink:href="#m9c47eee22a" y="334.987495"/>
      </g>
     </g>
     <g id="line2d_55">
      <g>
       <use style="fill:#555555;stroke:#555555;stroke-width:0.6;" x="648" xlink:href="#m752ade6470" y="334.987495"/>
      </g>
     </g>
    </g>
    <g id="ytick_19">
     <g id="line2d_56">
      <g>
       <use style="fill:#555555;stroke:#555555;stroke-width:0.6;" x="90" xlink:href="#m9c47eee22a" y="333.246131"/>
      </g>
     </g>
     <g id="line2d_57">
      <g>
       <use style="fill:#555555;stroke:#555555;stroke-width:0.6;" x="648" xlink:href="#m752ade6470" y="333.246131"/>
      </g>
     </g>
    </g>
    <g id="ytick_20">
     <g id="line2d_58">
      <g>
       <use style="fill:#555555;stroke:#555555;stroke-width:0.6;" x="90" xlink:href="#m9c47eee22a" y="331.710139"/>
      </g>
     </g>
     <g id="line2d_59">
      <g>
       <use style="fill:#555555;stroke:#555555;stroke-width:0.6;" x="648" xlink:href="#m752ade6470" y="331.710139"/>
      </g>
     </g>
    </g>
    <g id="ytick_21">
     <g id="line2d_60">
      <g>
       <use style="fill:#555555;stroke:#555555;stroke-width:0.6;" x="90" xlink:href="#m9c47eee22a" y="321.296911"/>
      </g>
     </g>
     <g id="line2d_61">
      <g>
       <use style="fill:#555555;stroke:#555555;stroke-width:0.6;" x="648" xlink:href="#m752ade6470" y="321.296911"/>
      </g>
     </g>
    </g>
    <g id="ytick_22">
     <g id="line2d_62">
      <g>
       <use style="fill:#555555;stroke:#555555;stroke-width:0.6;" x="90" xlink:href="#m9c47eee22a" y="316.009298"/>
      </g>
     </g>
     <g id="line2d_63">
      <g>
       <use style="fill:#555555;stroke:#555555;stroke-width:0.6;" x="648" xlink:href="#m752ade6470" y="316.009298"/>
      </g>
     </g>
    </g>
    <g id="ytick_23">
     <g id="line2d_64">
      <g>
       <use style="fill:#555555;stroke:#555555;stroke-width:0.6;" x="90" xlink:href="#m9c47eee22a" y="312.257676"/>
      </g>
     </g>
     <g id="line2d_65">
      <g>
       <use style="fill:#555555;stroke:#555555;stroke-width:0.6;" x="648" xlink:href="#m752ade6470" y="312.257676"/>
      </g>
     </g>
    </g>
    <g id="ytick_24">
     <g id="line2d_66">
      <g>
       <use style="fill:#555555;stroke:#555555;stroke-width:0.6;" x="90" xlink:href="#m9c47eee22a" y="309.347692"/>
      </g>
     </g>
     <g id="line2d_67">
      <g>
       <use style="fill:#555555;stroke:#555555;stroke-width:0.6;" x="648" xlink:href="#m752ade6470" y="309.347692"/>
      </g>
     </g>
    </g>
    <g id="ytick_25">
     <g id="line2d_68">
      <g>
       <use style="fill:#555555;stroke:#555555;stroke-width:0.6;" x="90" xlink:href="#m9c47eee22a" y="306.970062"/>
      </g>
     </g>
     <g id="line2d_69">
      <g>
       <use style="fill:#555555;stroke:#555555;stroke-width:0.6;" x="648" xlink:href="#m752ade6470" y="306.970062"/>
      </g>
     </g>
    </g>
    <g id="ytick_26">
     <g id="line2d_70">
      <g>
       <use style="fill:#555555;stroke:#555555;stroke-width:0.6;" x="90" xlink:href="#m9c47eee22a" y="304.959805"/>
      </g>
     </g>
     <g id="line2d_71">
      <g>
       <use style="fill:#555555;stroke:#555555;stroke-width:0.6;" x="648" xlink:href="#m752ade6470" y="304.959805"/>
      </g>
     </g>
    </g>
    <g id="ytick_27">
     <g id="line2d_72">
      <g>
       <use style="fill:#555555;stroke:#555555;stroke-width:0.6;" x="90" xlink:href="#m9c47eee22a" y="303.21844"/>
      </g>
     </g>
     <g id="line2d_73">
      <g>
       <use style="fill:#555555;stroke:#555555;stroke-width:0.6;" x="648" xlink:href="#m752ade6470" y="303.21844"/>
      </g>
     </g>
    </g>
    <g id="ytick_28">
     <g id="line2d_74">
      <g>
       <use style="fill:#555555;stroke:#555555;stroke-width:0.6;" x="90" xlink:href="#m9c47eee22a" y="301.682448"/>
      </g>
     </g>
     <g id="line2d_75">
      <g>
       <use style="fill:#555555;stroke:#555555;stroke-width:0.6;" x="648" xlink:href="#m752ade6470" y="301.682448"/>
      </g>
     </g>
    </g>
    <g id="ytick_29">
     <g id="line2d_76">
      <g>
       <use style="fill:#555555;stroke:#555555;stroke-width:0.6;" x="90" xlink:href="#m9c47eee22a" y="291.269221"/>
      </g>
     </g>
     <g id="line2d_77">
      <g>
       <use style="fill:#555555;stroke:#555555;stroke-width:0.6;" x="648" xlink:href="#m752ade6470" y="291.269221"/>
      </g>
     </g>
    </g>
    <g id="ytick_30">
     <g id="line2d_78">
      <g>
       <use style="fill:#555555;stroke:#555555;stroke-width:0.6;" x="90" xlink:href="#m9c47eee22a" y="285.981607"/>
      </g>
     </g>
     <g id="line2d_79">
      <g>
       <use style="fill:#555555;stroke:#555555;stroke-width:0.6;" x="648" xlink:href="#m752ade6470" y="285.981607"/>
      </g>
     </g>
    </g>
    <g id="ytick_31">
     <g id="line2d_80">
      <g>
       <use style="fill:#555555;stroke:#555555;stroke-width:0.6;" x="90" xlink:href="#m9c47eee22a" y="282.229986"/>
      </g>
     </g>
     <g id="line2d_81">
      <g>
       <use style="fill:#555555;stroke:#555555;stroke-width:0.6;" x="648" xlink:href="#m752ade6470" y="282.229986"/>
      </g>
     </g>
    </g>
    <g id="ytick_32">
     <g id="line2d_82">
      <g>
       <use style="fill:#555555;stroke:#555555;stroke-width:0.6;" x="90" xlink:href="#m9c47eee22a" y="279.320002"/>
      </g>
     </g>
     <g id="line2d_83">
      <g>
       <use style="fill:#555555;stroke:#555555;stroke-width:0.6;" x="648" xlink:href="#m752ade6470" y="279.320002"/>
      </g>
     </g>
    </g>
    <g id="ytick_33">
     <g id="line2d_84">
      <g>
       <use style="fill:#555555;stroke:#555555;stroke-width:0.6;" x="90" xlink:href="#m9c47eee22a" y="276.942372"/>
      </g>
     </g>
     <g id="line2d_85">
      <g>
       <use style="fill:#555555;stroke:#555555;stroke-width:0.6;" x="648" xlink:href="#m752ade6470" y="276.942372"/>
      </g>
     </g>
    </g>
    <g id="ytick_34">
     <g id="line2d_86">
      <g>
       <use style="fill:#555555;stroke:#555555;stroke-width:0.6;" x="90" xlink:href="#m9c47eee22a" y="274.932114"/>
      </g>
     </g>
     <g id="line2d_87">
      <g>
       <use style="fill:#555555;stroke:#555555;stroke-width:0.6;" x="648" xlink:href="#m752ade6470" y="274.932114"/>
      </g>
     </g>
    </g>
    <g id="ytick_35">
     <g id="line2d_88">
      <g>
       <use style="fill:#555555;stroke:#555555;stroke-width:0.6;" x="90" xlink:href="#m9c47eee22a" y="273.19075"/>
      </g>
     </g>
     <g id="line2d_89">
      <g>
       <use style="fill:#555555;stroke:#555555;stroke-width:0.6;" x="648" xlink:href="#m752ade6470" y="273.19075"/>
      </g>
     </g>
    </g>
    <g id="ytick_36">
     <g id="line2d_90">
      <g>
       <use style="fill:#555555;stroke:#555555;stroke-width:0.6;" x="90" xlink:href="#m9c47eee22a" y="271.654758"/>
      </g>
     </g>
     <g id="line2d_91">
      <g>
       <use style="fill:#555555;stroke:#555555;stroke-width:0.6;" x="648" xlink:href="#m752ade6470" y="271.654758"/>
      </g>
     </g>
    </g>
    <g id="ytick_37">
     <g id="line2d_92">
      <g>
       <use style="fill:#555555;stroke:#555555;stroke-width:0.6;" x="90" xlink:href="#m9c47eee22a" y="261.241531"/>
      </g>
     </g>
     <g id="line2d_93">
      <g>
       <use style="fill:#555555;stroke:#555555;stroke-width:0.6;" x="648" xlink:href="#m752ade6470" y="261.241531"/>
      </g>
     </g>
    </g>
    <g id="ytick_38">
     <g id="line2d_94">
      <g>
       <use style="fill:#555555;stroke:#555555;stroke-width:0.6;" x="90" xlink:href="#m9c47eee22a" y="255.953917"/>
      </g>
     </g>
     <g id="line2d_95">
      <g>
       <use style="fill:#555555;stroke:#555555;stroke-width:0.6;" x="648" xlink:href="#m752ade6470" y="255.953917"/>
      </g>
     </g>
    </g>
    <g id="ytick_39">
     <g id="line2d_96">
      <g>
       <use style="fill:#555555;stroke:#555555;stroke-width:0.6;" x="90" xlink:href="#m9c47eee22a" y="252.202295"/>
      </g>
     </g>
     <g id="line2d_97">
      <g>
       <use style="fill:#555555;stroke:#555555;stroke-width:0.6;" x="648" xlink:href="#m752ade6470" y="252.202295"/>
      </g>
     </g>
    </g>
    <g id="ytick_40">
     <g id="line2d_98">
      <g>
       <use style="fill:#555555;stroke:#555555;stroke-width:0.6;" x="90" xlink:href="#m9c47eee22a" y="249.292311"/>
      </g>
     </g>
     <g id="line2d_99">
      <g>
       <use style="fill:#555555;stroke:#555555;stroke-width:0.6;" x="648" xlink:href="#m752ade6470" y="249.292311"/>
      </g>
     </g>
    </g>
    <g id="ytick_41">
     <g id="line2d_100">
      <g>
       <use style="fill:#555555;stroke:#555555;stroke-width:0.6;" x="90" xlink:href="#m9c47eee22a" y="246.914681"/>
      </g>
     </g>
     <g id="line2d_101">
      <g>
       <use style="fill:#555555;stroke:#555555;stroke-width:0.6;" x="648" xlink:href="#m752ade6470" y="246.914681"/>
      </g>
     </g>
    </g>
    <g id="ytick_42">
     <g id="line2d_102">
      <g>
       <use style="fill:#555555;stroke:#555555;stroke-width:0.6;" x="90" xlink:href="#m9c47eee22a" y="244.904424"/>
      </g>
     </g>
     <g id="line2d_103">
      <g>
       <use style="fill:#555555;stroke:#555555;stroke-width:0.6;" x="648" xlink:href="#m752ade6470" y="244.904424"/>
      </g>
     </g>
    </g>
    <g id="ytick_43">
     <g id="line2d_104">
      <g>
       <use style="fill:#555555;stroke:#555555;stroke-width:0.6;" x="90" xlink:href="#m9c47eee22a" y="243.16306"/>
      </g>
     </g>
     <g id="line2d_105">
      <g>
       <use style="fill:#555555;stroke:#555555;stroke-width:0.6;" x="648" xlink:href="#m752ade6470" y="243.16306"/>
      </g>
     </g>
    </g>
    <g id="ytick_44">
     <g id="line2d_106">
      <g>
       <use style="fill:#555555;stroke:#555555;stroke-width:0.6;" x="90" xlink:href="#m9c47eee22a" y="241.627067"/>
      </g>
     </g>
     <g id="line2d_107">
      <g>
       <use style="fill:#555555;stroke:#555555;stroke-width:0.6;" x="648" xlink:href="#m752ade6470" y="241.627067"/>
      </g>
     </g>
    </g>
    <g id="ytick_45">
     <g id="line2d_108">
      <g>
       <use style="fill:#555555;stroke:#555555;stroke-width:0.6;" x="90" xlink:href="#m9c47eee22a" y="231.21384"/>
      </g>
     </g>
     <g id="line2d_109">
      <g>
       <use style="fill:#555555;stroke:#555555;stroke-width:0.6;" x="648" xlink:href="#m752ade6470" y="231.21384"/>
      </g>
     </g>
    </g>
    <g id="text_18">
     <text style="fill:#555555;font-family:DejaVu Sans;font-size:12px;font-stretch:normal;font-style:normal;font-weight:normal;" transform="translate(14.639 354.91679)rotate(-90)">daily new deaths</text>
     <text style="fill:#555555;font-family:DejaVu Sans;font-size:12px;font-stretch:normal;font-style:normal;font-weight:normal;" transform="translate(28.076375 353.381165)rotate(-90)">per 100K people</text>
     <text style="fill:#555555;font-family:DejaVu Sans;font-size:12px;font-stretch:normal;font-style:normal;font-weight:normal;" transform="translate(41.51375 365.018352)rotate(-90)">(rolling 7-day mean)</text>
    </g>
   </g>
   <g id="line2d_110">
    <path clip-path="url(#pb454dbd0ab)" d="M 144.122765 433 
L 144.126523 347.000147 
L 145.433927 337.960912 
L 146.741331 337.960912 
L 148.048735 323.634062 
L 149.356139 319.88244 
L 150.663543 316.972457 
L 151.970947 314.594827 
L 153.278351 314.594827 
L 154.585754 315.72953 
L 155.893158 312.584569 
L 157.200562 315.72953 
L 158.507966 307.933221 
L 159.81537 309.307213 
L 161.122774 306.110605 
L 162.430178 306.690294 
L 163.737582 303.087713 
L 165.044986 303.545334 
L 166.35239 301.402681 
L 167.659794 305.023237 
L 168.967198 304.511765 
L 170.274602 305.023237 
L 171.582006 302.218 
L 172.88941 305.555591 
L 174.196813 303.545334 
L 175.504217 305.023237 
L 176.811621 306.690294 
L 178.119025 304.019599 
L 179.426429 305.555591 
L 180.733833 305.023237 
L 182.041237 303.545334 
L 183.348641 302.645607 
L 184.656045 300.267977 
L 185.963449 300.267977 
L 188.578257 298.25772 
L 189.885661 298.893986 
L 191.193065 297.357993 
L 192.500469 298.25772 
L 193.807873 298.571973 
L 195.115276 296.79091 
L 196.42268 298.25772 
L 197.730084 299.224152 
L 199.037488 299.562894 
L 200.344892 300.63535 
L 202.9597 302.218 
L 204.267104 303.545334 
L 205.574508 302.645607 
L 206.881912 300.63535 
L 208.189316 300.63535 
L 209.49672 301.013372 
L 210.804124 301.013372 
L 212.111528 302.218 
L 213.418932 302.218 
L 214.726336 302.645607 
L 216.033739 305.023237 
L 217.341143 305.023237 
L 218.648547 306.690294 
L 222.570759 308.60213 
L 223.878163 311.684843 
L 225.185567 313.551001 
L 226.492971 315.72953 
L 227.800375 316.972457 
L 229.107779 316.972457 
L 230.415183 318.346448 
L 231.722587 319.88244 
L 233.029991 318.346448 
L 234.337395 318.346448 
L 235.644799 319.88244 
L 236.952202 316.972457 
L 238.259606 319.88244 
L 240.874414 316.972457 
L 242.181818 318.346448 
L 243.489222 318.346448 
L 244.796626 319.88244 
L 246.10403 323.634062 
L 247.411434 323.634062 
L 248.718838 328.921676 
L 253.948454 328.921676 
L 255.255858 323.634062 
L 256.563261 323.634062 
L 257.870665 321.623805 
L 259.178069 326.011692 
L 260.485473 328.921676 
L 267.022493 328.921676 
L 268.329897 323.634062 
L 269.637301 323.634062 
L 270.944705 326.011692 
L 272.252109 326.011692 
L 273.559513 332.673298 
L 274.866917 328.921676 
L 276.174321 328.921676 
L 277.481724 332.673298 
L 278.789128 328.921676 
L 282.71134 328.921676 
L 284.018744 332.673298 
L 285.326148 337.960912 
L 286.633552 337.960912 
L 287.940956 332.673298 
L 289.24836 332.673298 
L 290.555764 328.921676 
L 295.78538 328.921676 
L 297.092784 332.673298 
L 298.400187 328.921676 
L 299.707591 332.673298 
L 304.937207 332.673298 
L 306.244611 337.960912 
L 312.781631 337.960912 
L 314.089035 347.000147 
L 315.396439 347.000147 
L 315.400196 433 
M 319.314893 433 
L 319.31865 347.000147 
L 320.626054 347.000147 
L 321.933458 337.960912 
L 323.240862 332.673298 
L 324.548266 332.673298 
L 325.85567 326.011692 
L 327.163074 323.634062 
L 328.470478 326.011692 
L 329.777882 323.634062 
L 331.085286 326.011692 
L 332.39269 328.921676 
L 335.007498 328.921676 
L 336.314902 326.011692 
L 337.622306 323.634062 
L 338.929709 323.634062 
L 340.237113 321.623805 
L 341.544517 321.623805 
L 342.851921 319.88244 
L 344.159325 323.634062 
L 345.466729 326.011692 
L 346.774133 328.921676 
L 348.081537 332.673298 
L 349.388941 332.673298 
L 350.696345 328.921676 
L 352.003749 332.673298 
L 357.233365 332.673298 
L 358.540769 337.960912 
L 359.848172 347.000147 
L 361.155576 337.960912 
L 363.770384 337.960912 
L 365.077788 332.673298 
L 366.385192 328.921676 
L 369 328.921676 
L 370.307404 332.673298 
L 371.614808 332.673298 
L 372.922212 337.960912 
L 374.229616 347.000147 
L 374.233374 433 
M 378.14807 433 
L 378.151828 347.000147 
L 379.459231 347.000147 
L 382.074039 328.921676 
L 387.303655 328.921676 
L 388.611059 323.634062 
L 389.918463 323.634062 
L 391.225867 321.623805 
L 392.533271 314.594827 
L 393.840675 312.584569 
L 395.148079 311.684843 
L 396.455483 312.584569 
L 397.762887 312.584569 
L 399.070291 310.843205 
L 400.377694 311.684843 
L 401.685098 314.594827 
L 402.992502 315.72953 
L 404.299906 314.594827 
L 405.60731 310.052608 
L 406.914714 309.307213 
L 408.222118 310.052608 
L 409.529522 308.60213 
L 410.836926 306.690294 
L 412.14433 305.555591 
L 413.451734 304.019599 
L 414.759138 304.511765 
L 416.066542 306.110605 
L 417.373946 304.511765 
L 418.68135 304.019599 
L 419.988754 306.110605 
L 421.296157 305.023237 
L 422.603561 306.690294 
L 423.910965 307.296955 
L 426.525773 307.296955 
L 427.833177 309.307213 
L 429.140581 307.296955 
L 430.447985 309.307213 
L 431.755389 307.296955 
L 433.062793 308.60213 
L 434.370197 305.023237 
L 435.677601 306.690294 
L 436.985005 307.296955 
L 438.292409 307.296955 
L 439.599813 307.933221 
L 440.907216 310.843205 
L 442.21462 311.684843 
L 443.522024 314.594827 
L 446.136832 314.594827 
L 447.444236 316.972457 
L 448.75164 315.72953 
L 450.059044 315.72953 
L 452.673852 313.551001 
L 453.981256 314.594827 
L 455.28866 313.551001 
L 456.596064 313.551001 
L 459.210872 315.72953 
L 460.518276 313.551001 
L 461.825679 314.594827 
L 463.133083 312.584569 
L 465.747891 312.584569 
L 467.055295 313.551001 
L 469.670103 313.551001 
L 470.977507 315.72953 
L 472.284911 318.346448 
L 473.592315 319.88244 
L 474.899719 321.623805 
L 476.207123 318.346448 
L 477.514527 315.72953 
L 480.129335 313.551001 
L 484.051546 313.551001 
L 485.35895 314.594827 
L 486.666354 314.594827 
L 487.973758 313.551001 
L 489.281162 313.551001 
L 490.588566 314.594827 
L 491.89597 314.594827 
L 493.203374 311.684843 
L 494.510778 311.684843 
L 495.818182 312.584569 
L 497.125586 318.346448 
L 498.43299 318.346448 
L 499.740394 315.72953 
L 501.047798 313.551001 
L 502.355201 315.72953 
L 503.662605 314.594827 
L 504.970009 311.684843 
L 507.584817 310.052608 
L 508.892221 310.052608 
L 510.199625 311.684843 
L 511.507029 308.60213 
L 515.429241 310.843205 
L 516.736645 313.551001 
L 518.044049 312.584569 
L 519.351453 307.933221 
L 520.658857 309.307213 
L 521.966261 306.690294 
L 523.273664 306.110605 
L 524.581068 304.511765 
L 527.195876 300.63535 
L 528.50328 300.267977 
L 529.810684 299.562894 
L 531.118088 300.63535 
L 532.425492 299.562894 
L 533.732896 296.516356 
L 535.0403 294.506098 
L 536.347704 291.596114 
L 537.655108 291.048865 
L 538.962512 289.69275 
L 540.269916 287.751675 
L 541.57732 285.583822 
L 542.884724 284.35158 
L 544.192127 283.82778 
L 545.499531 284.35158 
L 548.114339 283.128103 
L 549.421743 283.128103 
L 550.729147 284.458913 
L 552.036551 282.839363 
L 554.651359 282.189506 
L 555.958763 282.189506 
L 558.573571 281.313952 
L 559.880975 280.653514 
L 561.188379 281.8322 
L 562.495783 281.8322 
L 563.803187 282.00963 
L 565.11059 280.493502 
L 566.417994 280.979553 
L 567.725398 280.573262 
L 569.032802 280.897276 
L 571.64761 280.979553 
L 572.955014 281.744383 
L 574.262418 282.934901 
L 575.569822 282.934901 
L 576.877226 284.139529 
L 578.18463 284.139529 
L 579.492034 284.786316 
L 580.799438 285.12215 
L 582.106842 284.458913 
L 584.721649 286.815005 
L 586.029053 286.944766 
L 587.336457 287.47712 
L 588.643861 288.611823 
L 591.258669 291.596114 
L 592.566073 291.411134 
L 593.873477 290.353188 
L 596.488285 292.562546 
L 600.410497 293.178764 
L 601.717901 293.606372 
L 603.025305 295.984002 
L 604.332709 295.725758 
L 608.25492 297.357993 
L 609.562324 296.516356 
L 610.869728 296.516356 
L 612.177132 295.984002 
L 613.484536 295.725758 
L 614.79194 295.224125 
L 616.099344 295.47253 
L 617.406748 295.47253 
L 618.714152 296.516356 
L 622.636364 296.516356 
L 622.636364 296.516356 
" style="fill:none;stroke:#e24a33;stroke-linecap:square;stroke-width:4;"/>
   </g>
   <g id="line2d_111">
    <defs>
     <path d="M 0 3 
C 0.795609 3 1.55874 2.683901 2.12132 2.12132 
C 2.683901 1.55874 3 0.795609 3 0 
C 3 -0.795609 2.683901 -1.55874 2.12132 -2.12132 
C 1.55874 -2.683901 0.795609 -3 0 -3 
C -0.795609 -3 -1.55874 -2.683901 -2.12132 -2.12132 
C -2.683901 -1.55874 -3 -0.795609 -3 0 
C -3 0.795609 -2.683901 1.55874 -2.12132 2.12132 
C -1.55874 2.683901 -0.795609 3 0 3 
z
" id="mc9e74ae13e" style="stroke:#e24a33;"/>
    </defs>
    <g clip-path="url(#pb454dbd0ab)">
     <use style="fill:#e24a33;stroke:#e24a33;" x="622.636364" xlink:href="#mc9e74ae13e" y="296.516356"/>
    </g>
   </g>
   <g id="line2d_112">
    <path clip-path="url(#pb454dbd0ab)" d="M 167.655921 433 
L 167.659794 344.36595 
L 168.967198 344.36595 
L 170.274602 339.078336 
L 171.582006 339.078336 
L 172.88941 328.028843 
L 174.196813 324.751487 
L 175.504217 322.134569 
L 176.811621 318.089882 
L 178.119025 313.095333 
L 179.426429 311.428276 
L 180.733833 304.977011 
L 182.041237 300.011411 
L 183.348641 297.101427 
L 184.656045 295.779703 
L 187.270853 289.630826 
L 188.578257 285.830271 
L 193.807873 274.058079 
L 196.42268 269.598248 
L 197.730084 267.715219 
L 199.037488 265.595833 
L 200.344892 264.226499 
L 201.652296 263.179448 
L 202.9597 262.673435 
L 204.267104 261.3305 
L 205.574508 260.506364 
L 206.881912 258.666855 
L 208.189316 258.034501 
L 209.49672 258.104238 
L 210.804124 259.981158 
L 212.111528 258.58498 
L 213.418932 259.084124 
L 214.726336 260.123239 
L 216.033739 258.431715 
L 217.341143 258.521652 
L 219.955951 256.227013 
L 221.263355 257.489634 
L 222.570759 256.65008 
L 223.878163 256.106473 
L 225.185567 258.25368 
L 226.492971 257.836058 
L 227.800375 258.85992 
L 229.107779 258.767628 
L 230.415183 259.02771 
L 231.722587 260.266885 
L 233.029991 260.092663 
L 234.337395 261.07555 
L 235.644799 262.710712 
L 236.952202 263.638912 
L 239.56701 264.841816 
L 240.874414 265.183258 
L 242.181818 268.370677 
L 243.489222 266.102337 
L 244.796626 266.747483 
L 246.10403 266.662966 
L 250.026242 268.583673 
L 251.333646 267.160966 
L 252.64105 270.291613 
L 253.948454 272.571691 
L 255.255858 275.702202 
L 257.870665 275.501569 
L 259.178069 277.314234 
L 260.485473 277.276159 
L 261.792877 279.783702 
L 263.100281 278.222134 
L 264.407685 277.740571 
L 265.715089 278.059629 
L 267.022493 278.140629 
L 269.637301 279.42017 
L 270.944705 279.737702 
L 272.252109 280.542657 
L 273.559513 280.110324 
L 274.866917 280.445337 
L 277.481724 281.610927 
L 278.789128 284.911022 
L 280.096532 286.126667 
L 281.403936 286.819264 
L 284.018744 288.685422 
L 285.326148 288.504297 
L 286.633552 288.961918 
L 287.940956 286.20183 
L 289.24836 288.062191 
L 291.863168 290.439821 
L 294.477976 291.41428 
L 295.78538 291.871901 
L 297.092784 295.623523 
L 298.400187 293.48087 
L 299.707591 292.964333 
L 301.014995 292.838333 
L 302.322399 293.091562 
L 303.629803 294.156713 
L 304.937207 294.437173 
L 306.244611 294.156713 
L 307.552015 296.758226 
L 308.859419 298.967585 
L 310.166823 296.589955 
L 311.474227 297.453904 
L 312.781631 297.453904 
L 314.089035 296.758226 
L 315.396439 296.928697 
L 316.703843 298.572377 
L 318.011246 298.768484 
L 319.31865 303.763032 
L 320.626054 301.877569 
L 321.933458 301.146114 
L 323.240862 303.476408 
L 324.548266 304.662759 
L 325.85567 302.130797 
L 327.163074 302.130797 
L 328.470478 301.629164 
L 329.777882 302.38904 
L 331.085286 302.921394 
L 332.39269 301.877569 
L 333.700094 303.476408 
L 335.007498 307.418411 
L 336.314902 309.050646 
L 338.929709 313.701994 
L 340.237113 313.701994 
L 341.544517 314.33826 
L 345.466729 312.515644 
L 346.774133 308.209008 
L 348.081537 307.807719 
L 350.696345 308.623039 
L 354.618557 307.418411 
L 355.925961 310.424638 
L 357.233365 309.050646 
L 358.540769 309.050646 
L 359.848172 309.492751 
L 361.155576 308.209008 
L 362.46298 304.056098 
L 363.770384 306.31571 
L 365.077788 302.921394 
L 366.385192 303.195949 
L 369 302.652501 
L 370.307404 303.763032 
L 371.614808 307.418411 
L 372.922212 306.673016 
L 376.844424 307.807719 
L 379.459231 307.807719 
L 380.766635 306.673016 
L 382.074039 303.476408 
L 383.381443 306.673016 
L 384.688847 306.31571 
L 385.996251 305.299024 
L 388.611059 305.299024 
L 389.918463 306.673016 
L 391.225867 310.424638 
L 392.533271 311.96063 
L 393.840675 310.424638 
L 395.148079 311.428276 
L 396.455483 310.424638 
L 397.762887 310.916804 
L 399.070291 306.31571 
L 400.377694 308.209008 
L 401.685098 306.31571 
L 402.992502 309.050646 
L 404.299906 309.050646 
L 405.60731 309.950372 
L 406.914714 309.492751 
L 408.222118 314.33826 
L 409.529522 312.515644 
L 410.836926 313.701994 
L 412.14433 312.515644 
L 414.759138 311.428276 
L 416.066542 308.623039 
L 418.68135 308.623039 
L 419.988754 305.967933 
L 421.296157 306.673016 
L 422.603561 306.673016 
L 423.910965 307.418411 
L 425.218369 305.967933 
L 426.525773 302.38904 
L 427.833177 300.011411 
L 430.447985 297.816173 
L 431.755389 297.276474 
L 433.062793 296.589955 
L 434.370197 296.589955 
L 435.677601 297.633781 
L 436.985005 297.453904 
L 438.292409 298.572377 
L 439.599813 297.633781 
L 440.907216 298.188795 
L 442.21462 295.316665 
L 443.522024 295.779703 
L 444.829428 295.165902 
L 446.136832 295.469192 
L 447.444236 296.097788 
L 448.75164 294.869506 
L 450.059044 294.296189 
L 451.366448 295.316665 
L 452.673852 291.41428 
L 453.981256 289.533141 
L 455.28866 288.504297 
L 456.596064 286.126667 
L 457.903468 286.819264 
L 459.210872 286.27743 
L 460.518276 284.180809 
L 461.825679 284.310569 
L 463.133083 284.640735 
L 464.440487 283.0085 
L 465.747891 283.988556 
L 467.055295 281.400586 
L 468.362699 280.690013 
L 469.670103 281.452854 
L 470.977507 281.98739 
L 472.284911 278.722165 
L 473.592315 277.20034 
L 474.899719 274.854247 
L 476.207123 273.79343 
L 477.514527 273.706394 
L 478.821931 270.470872 
L 480.129335 270.07095 
L 481.436739 267.408361 
L 482.744142 266.150847 
L 484.051546 265.456852 
L 485.35895 265.862462 
L 486.666354 265.304147 
L 487.973758 267.266419 
L 489.281162 262.51312 
L 490.588566 262.748096 
L 493.203374 261.341699 
L 494.510778 260.890261 
L 495.818182 260.933622 
L 497.125586 258.703409 
L 498.43299 259.341048 
L 501.047798 258.512631 
L 502.355201 257.91335 
L 506.277413 256.974634 
L 507.584817 256.448374 
L 508.892221 255.512771 
L 510.199625 254.427123 
L 511.507029 253.690155 
L 514.121837 253.357965 
L 516.736645 252.20758 
L 518.044049 251.64168 
L 519.351453 251.599149 
L 521.966261 250.573709 
L 523.273664 250.451626 
L 524.581068 250.177476 
L 525.888472 249.779072 
L 527.195876 249.890335 
L 528.50328 249.139509 
L 529.810684 249.038807 
L 533.732896 248.153627 
L 535.0403 246.829449 
L 536.347704 245.868015 
L 537.655108 245.364833 
L 538.962512 244.647805 
L 540.269916 244.388768 
L 541.57732 244.318729 
L 542.884724 243.777389 
L 545.499531 243.319366 
L 546.806935 244.291425 
L 548.114339 245.823629 
L 549.421743 245.998631 
L 557.266167 243.520631 
L 559.880975 243.725051 
L 561.188379 243.412525 
L 562.495783 243.736663 
L 563.803187 243.40686 
L 566.417994 240.226146 
L 567.725398 239.70418 
L 569.032802 239.644623 
L 570.340206 239.845651 
L 572.955014 239.400744 
L 574.262418 239.486423 
L 575.569822 240.66389 
L 576.877226 240.248354 
L 578.18463 240.032324 
L 579.492034 241.176372 
L 580.799438 239.723382 
L 582.106842 240.144301 
L 583.414246 240.696056 
L 584.721649 239.938653 
L 586.029053 241.308305 
L 587.336457 241.342102 
L 588.643861 240.255024 
L 589.951265 243.358807 
L 591.258669 243.742473 
L 592.566073 242.315415 
L 593.873477 243.497797 
L 595.180881 241.742182 
L 596.488285 242.685244 
L 597.795689 242.512232 
L 599.103093 241.395389 
L 600.410497 241.628027 
L 601.717901 242.999823 
L 603.025305 242.234924 
L 604.332709 243.865088 
L 605.640112 243.57789 
L 606.947516 244.820243 
L 609.562324 245.587192 
L 610.869728 246.65391 
L 612.177132 247.183994 
L 613.484536 247.214295 
L 614.79194 247.366866 
L 617.406748 249.788308 
L 618.714152 248.737022 
L 622.636364 248.737022 
L 622.636364 248.737022 
" style="fill:none;stroke:#348abd;stroke-linecap:square;stroke-opacity:0.4;stroke-width:2;"/>
   </g>
   <g id="line2d_113">
    <defs>
     <path d="M 0 3 
C 0.795609 3 1.55874 2.683901 2.12132 2.12132 
C 2.683901 1.55874 3 0.795609 3 0 
C 3 -0.795609 2.683901 -1.55874 2.12132 -2.12132 
C 1.55874 -2.683901 0.795609 -3 0 -3 
C -0.795609 -3 -1.55874 -2.683901 -2.12132 -2.12132 
C -2.683901 -1.55874 -3 -0.795609 -3 0 
C -3 0.795609 -2.683901 1.55874 -2.12132 2.12132 
C -1.55874 2.683901 -0.795609 3 0 3 
z
" id="m1815f2a52d" style="stroke:#348abd;stroke-opacity:0.4;"/>
    </defs>
    <g clip-path="url(#pb454dbd0ab)">
     <use style="fill:#348abd;fill-opacity:0.4;stroke:#348abd;stroke-opacity:0.4;" x="622.636364" xlink:href="#m1815f2a52d" y="248.737022"/>
    </g>
   </g>
   <g id="line2d_114">
    <path clip-path="url(#pb454dbd0ab)" d="M 157.196407 433 
L 157.200562 337.871636 
L 159.81537 337.871636 
L 161.122774 328.8324 
L 168.967198 328.8324 
L 170.274602 337.871636 
L 174.196813 337.871636 
L 174.200969 433 
M 178.114476 433 
L 178.119025 328.8324 
L 179.426429 323.544786 
L 180.733833 323.544786 
L 182.041237 319.793165 
L 185.963449 319.793165 
L 187.270853 323.544786 
L 188.578257 328.8324 
L 189.885661 312.495293 
L 191.193065 314.505551 
L 192.500469 312.495293 
L 193.807873 309.217937 
L 195.115276 307.843945 
L 196.42268 307.843945 
L 197.730084 305.466315 
L 199.037488 306.601018 
L 200.344892 302.556331 
L 201.652296 301.714694 
L 202.9597 299.473618 
L 204.267104 296.982094 
L 205.574508 294.891088 
L 206.881912 293.517096 
L 208.189316 294.891088 
L 209.49672 295.383254 
L 210.804124 294.891088 
L 212.111528 295.894726 
L 213.418932 298.168444 
L 214.726336 300.924096 
L 216.033739 304.422489 
L 217.341143 305.466315 
L 218.648547 305.466315 
L 219.955951 307.843945 
L 221.263355 312.495293 
L 222.570759 314.505551 
L 223.878163 316.883181 
L 225.185567 319.793165 
L 226.492971 305.466315 
L 227.800375 304.422489 
L 229.107779 304.422489 
L 230.415183 301.714694 
L 231.722587 301.714694 
L 233.029991 297.561783 
L 234.337395 296.42708 
L 235.644799 300.178701 
L 236.952202 303.456058 
L 238.259606 303.456058 
L 239.56701 305.466315 
L 240.874414 304.422489 
L 242.181818 310.753929 
L 243.489222 314.505551 
L 244.796626 319.793165 
L 246.10403 319.793165 
L 247.411434 323.544786 
L 248.718838 328.8324 
L 250.026242 337.871636 
L 256.563261 337.871636 
L 257.870665 328.8324 
L 261.792877 328.8324 
L 263.100281 323.544786 
L 264.407685 323.544786 
L 265.715089 319.793165 
L 267.022493 323.544786 
L 270.944705 323.544786 
L 272.252109 328.8324 
L 273.559513 328.8324 
L 274.866917 337.871636 
L 276.174321 337.871636 
L 276.178476 433 
M 306.240456 433 
L 306.244611 337.871636 
L 307.552015 328.8324 
L 314.089035 328.8324 
L 315.396439 337.871636 
L 315.400594 433 
M 321.928909 433 
L 321.933458 328.8324 
L 327.163074 328.8324 
L 328.470478 323.544786 
L 329.777882 319.793165 
L 331.085286 328.8324 
L 332.39269 328.8324 
L 333.700094 316.883181 
L 336.314902 307.843945 
L 337.622306 306.601018 
L 338.929709 303.456058 
L 340.237113 302.556331 
L 341.544517 300.178701 
L 342.851921 300.924096 
L 344.159325 298.80471 
L 345.466729 296.982094 
L 346.774133 294.891088 
L 348.081537 292.274169 
L 349.388941 290.434383 
L 350.696345 289.443461 
L 353.311153 285.377587 
L 354.618557 285.146769 
L 355.925961 285.377587 
L 357.233365 286.095614 
L 358.540769 284.47786 
L 361.155576 282.282623 
L 362.46298 283.234934 
L 363.770384 282.467603 
L 365.077788 281.224676 
L 366.385192 279.632352 
L 367.692596 278.903623 
L 369 277.94732 
L 370.307404 277.179989 
L 371.614808 277.056378 
L 372.922212 276.692423 
L 374.229616 277.686494 
L 375.53702 277.686494 
L 376.844424 276.812617 
L 378.151828 276.933928 
L 379.459231 278.079715 
L 380.766635 277.558011 
L 382.074039 278.213469 
L 383.381443 277.056378 
L 384.688847 277.056378 
L 387.303655 279.632352 
L 388.611059 277.94732 
L 389.918463 276.692423 
L 391.225867 276.45531 
L 392.533271 275.993639 
L 393.840675 276.692423 
L 395.148079 273.902633 
L 396.455483 274.195698 
L 397.762887 276.107533 
L 399.070291 277.056378 
L 400.377694 272.185441 
L 402.992502 273.243387 
L 404.299906 276.573328 
L 405.60731 276.222432 
L 406.914714 275.657804 
L 408.222118 276.573328 
L 409.529522 284.47786 
L 410.836926 285.612564 
L 412.14433 285.146769 
L 413.451734 285.851852 
L 414.759138 287.942858 
L 416.066542 288.822351 
L 417.373946 288.522547 
L 418.68135 289.765474 
L 419.988754 289.443461 
L 421.296157 290.09564 
L 422.603561 291.506838 
L 423.910965 290.434383 
L 425.218369 291.506838 
L 426.525773 293.959201 
L 427.833177 292.675458 
L 429.140581 295.383254 
L 430.447985 296.982094 
L 431.755389 296.42708 
L 433.062793 294.416822 
L 434.370197 294.891088 
L 435.677601 294.891088 
L 436.985005 298.168444 
L 438.292409 296.982094 
L 439.599813 297.561783 
L 440.907216 299.473618 
L 442.21462 304.422489 
L 443.522024 306.601018 
L 444.829428 309.217937 
L 446.136832 312.495293 
L 447.444236 319.793165 
L 451.366448 319.793165 
L 452.673852 312.495293 
L 456.596064 312.495293 
L 457.903468 314.505551 
L 459.210872 312.495293 
L 460.518276 314.505551 
L 461.825679 337.871636 
L 467.055295 337.871636 
L 467.059451 433 
M 470.972958 433 
L 470.977507 328.8324 
L 478.821931 328.8324 
L 478.82648 433 
M 514.117682 433 
L 514.121837 337.871636 
L 521.966261 337.871636 
L 521.970416 433 
M 550.724992 433 
L 550.729147 337.871636 
L 558.573571 337.871636 
L 558.577726 433 
L 558.577726 433 
" style="fill:none;stroke:#988ed5;stroke-linecap:square;stroke-opacity:0.4;stroke-width:2;"/>
   </g>
   <g id="line2d_115">
    <defs>
     <path d="M 0 3 
C 0.795609 3 1.55874 2.683901 2.12132 2.12132 
C 2.683901 1.55874 3 0.795609 3 0 
C 3 -0.795609 2.683901 -1.55874 2.12132 -2.12132 
C 1.55874 -2.683901 0.795609 -3 0 -3 
C -0.795609 -3 -1.55874 -2.683901 -2.12132 -2.12132 
C -2.683901 -1.55874 -3 -0.795609 -3 0 
C -3 0.795609 -2.683901 1.55874 -2.12132 2.12132 
C -1.55874 2.683901 -0.795609 3 0 3 
z
" id="m528d1bc979" style="stroke:#988ed5;stroke-opacity:0.4;"/>
    </defs>
    <g clip-path="url(#pb454dbd0ab)">
     <use style="fill:#988ed5;fill-opacity:0.4;stroke:#988ed5;stroke-opacity:0.4;" x="622.636364" xlink:href="#m528d1bc979" y="30267.943504"/>
    </g>
   </g>
   <g id="line2d_116">
    <path clip-path="url(#pb454dbd0ab)" d="M 171.578075 433 
L 171.582006 343.041613 
L 172.88941 334.002377 
L 174.196813 328.714763 
L 175.504217 328.714763 
L 176.811621 324.963142 
L 178.119025 322.053158 
L 179.426429 322.053158 
L 180.733833 324.963142 
L 182.041237 328.714763 
L 183.348641 334.002377 
L 184.656045 324.963142 
L 185.963449 324.963142 
L 187.270853 322.053158 
L 188.578257 314.387914 
L 189.885661 311.770995 
L 191.193065 311.770995 
L 192.500469 309.592466 
L 193.807873 307.726308 
L 195.115276 302.152071 
L 196.42268 302.152071 
L 197.730084 299.129178 
L 199.037488 294.613438 
L 200.344892 290.78254 
L 201.652296 289.432281 
L 202.9597 287.270207 
L 204.267104 286.565124 
L 205.574508 283.518586 
L 206.881912 281.050707 
L 208.189316 280.938768 
L 209.49672 281.743305 
L 210.804124 279.665478 
L 212.111528 278.785986 
L 213.418932 278.785986 
L 214.726336 279.169568 
L 216.033739 279.869246 
L 217.341143 278.598344 
L 218.648547 277.611967 
L 221.263355 279.766964 
L 222.570759 279.07261 
L 225.185567 278.598344 
L 226.492971 278.598344 
L 227.800375 276.69498 
L 229.107779 275.540167 
L 230.415183 275.68836 
L 231.722587 275.176889 
L 233.029991 274.277162 
L 234.337395 274.078061 
L 235.644799 274.615905 
L 236.952202 277.103818 
L 238.259606 278.598344 
L 239.56701 278.321849 
L 240.874414 278.976367 
L 242.181818 280.608602 
L 243.489222 281.8624 
L 244.796626 281.625287 
L 246.10403 280.076248 
L 247.411434 280.500378 
L 248.718838 280.393045 
L 250.026242 281.392409 
L 251.333646 280.286589 
L 252.64105 279.766964 
L 253.948454 279.766964 
L 255.255858 279.464846 
L 256.563261 279.564776 
L 257.870665 280.076248 
L 259.178069 280.076248 
L 260.485473 281.8624 
L 261.792877 282.856471 
L 263.100281 284.505933 
L 264.407685 286.737853 
L 265.715089 286.226382 
L 267.022493 287.4526 
L 268.329897 287.4526 
L 269.637301 286.565124 
L 270.944705 288.404911 
L 272.252109 288.404911 
L 273.559513 287.825221 
L 274.866917 288.015602 
L 276.174321 288.015602 
L 277.481724 288.208804 
L 278.789128 288.015602 
L 280.096532 284.802329 
L 281.403936 286.060254 
L 282.71134 284.953092 
L 284.018744 284.0736 
L 285.326148 283.932616 
L 287.940956 284.216124 
L 289.24836 284.216124 
L 290.555764 283.249692 
L 291.863168 285.105618 
L 293.170572 285.25995 
L 294.477976 284.360223 
L 295.78538 284.360223 
L 297.092784 284.505933 
L 298.400187 285.896216 
L 299.707591 282.856471 
L 301.014995 281.508328 
L 302.322399 281.8624 
L 303.629803 281.8624 
L 304.937207 282.600759 
L 306.244611 282.600759 
L 307.552015 281.743305 
L 308.859419 283.518586 
L 310.166823 283.65514 
L 311.474227 284.505933 
L 312.781631 285.574203 
L 315.396439 284.653289 
L 316.703843 285.734215 
L 318.011246 285.896216 
L 319.31865 286.226382 
L 320.626054 286.394653 
L 321.933458 286.060254 
L 323.240862 286.394653 
L 324.548266 288.604011 
L 325.85567 288.604011 
L 327.163074 289.867017 
L 328.470478 290.78254 
L 329.777882 290.547564 
L 331.085286 291.021829 
L 332.39269 290.78254 
L 333.700094 289.647837 
L 335.007498 291.513995 
L 336.314902 291.021829 
L 337.622306 292.025467 
L 338.929709 292.025467 
L 340.237113 291.265591 
L 341.544517 291.767224 
L 342.851921 292.557821 
L 344.159325 292.557821 
L 345.466729 293.112835 
L 346.774133 293.992327 
L 348.081537 293.112835 
L 349.388941 292.832376 
L 350.696345 292.288928 
L 352.003749 293.112835 
L 354.618557 290.089943 
L 355.925961 289.432281 
L 357.233365 290.316746 
L 358.540769 289.647837 
L 359.848172 290.547564 
L 361.155576 290.547564 
L 362.46298 289.22023 
L 363.770384 288.604011 
L 365.077788 287.4526 
L 366.385192 286.060254 
L 367.692596 286.565124 
L 369 286.394653 
L 370.307404 285.41613 
L 371.614808 286.912901 
L 372.922212 287.63758 
L 374.229616 287.4526 
L 375.53702 287.825221 
L 376.844424 287.63758 
L 378.151828 286.565124 
L 379.459231 286.737853 
L 380.766635 285.41613 
L 382.074039 285.734215 
L 383.381443 285.896216 
L 384.688847 285.574203 
L 385.996251 286.226382 
L 387.303655 286.737853 
L 388.611059 285.734215 
L 389.918463 285.734215 
L 391.225867 285.105618 
L 392.533271 285.896216 
L 393.840675 285.734215 
L 395.148079 286.226382 
L 396.455483 286.060254 
L 397.762887 285.734215 
L 399.070291 285.25995 
L 400.377694 285.574203 
L 401.685098 285.574203 
L 402.992502 285.734215 
L 404.299906 284.802329 
L 405.60731 285.105618 
L 406.914714 286.226382 
L 408.222118 287.825221 
L 409.529522 288.208804 
L 410.836926 287.825221 
L 412.14433 287.825221 
L 413.451734 288.015602 
L 416.066542 284.216124 
L 417.373946 284.360223 
L 418.68135 283.79314 
L 419.988754 282.856471 
L 421.296157 282.986232 
L 422.603561 282.349966 
L 423.910965 283.65514 
L 425.218369 284.505933 
L 426.525773 282.103905 
L 427.833177 281.050707 
L 429.140581 280.393045 
L 430.447985 278.413364 
L 431.755389 278.691828 
L 433.062793 277.785848 
L 434.370197 276.29857 
L 435.677601 276.14332 
L 438.292409 275.466697 
L 439.599813 275.320988 
L 440.907216 274.078061 
L 442.21462 273.187119 
L 443.522024 271.899532 
L 444.829428 269.605767 
L 446.136832 267.655744 
L 447.444236 266.686438 
L 448.75164 265.995129 
L 452.673852 265.440115 
L 453.981256 264.117163 
L 455.28866 263.635229 
L 456.596064 261.46125 
L 457.903468 260.707515 
L 459.210872 260.311954 
L 460.518276 260.175161 
L 461.825679 259.192539 
L 463.133083 258.901344 
L 464.440487 257.406555 
L 465.747891 257.026961 
L 467.055295 255.43566 
L 468.362699 254.849802 
L 469.670103 254.789637 
L 470.977507 254.419763 
L 472.284911 252.984649 
L 473.592315 251.364718 
L 474.899719 250.811147 
L 476.207123 249.739273 
L 477.514527 249.093308 
L 478.821931 248.645387 
L 480.129335 247.784441 
L 481.436739 246.619079 
L 482.744142 246.092501 
L 484.051546 244.343436 
L 486.666354 243.351529 
L 490.588566 241.927691 
L 491.89597 242.453051 
L 493.203374 242.60544 
L 494.510778 241.492864 
L 495.818182 241.135119 
L 497.125586 241.294091 
L 498.43299 241.150929 
L 499.740394 240.269144 
L 501.047798 238.596963 
L 502.355201 237.729068 
L 506.277413 237.456119 
L 507.584817 236.748736 
L 508.892221 236.484298 
L 511.507029 236.873494 
L 512.814433 236.778871 
L 515.429241 237.091836 
L 518.044049 237.708802 
L 519.351453 237.547802 
L 520.658857 237.741242 
L 521.966261 238.141136 
L 524.581068 238.497628 
L 527.195876 238.842033 
L 528.50328 239.522107 
L 531.118088 239.461743 
L 532.425492 239.648377 
L 533.732896 239.629593 
L 535.0403 239.923832 
L 536.347704 239.74744 
L 537.655108 239.933435 
L 538.962512 240.512906 
L 540.269916 240.608665 
L 541.57732 240.838309 
L 544.192127 241.145657 
L 545.499531 241.86627 
L 546.806935 241.503695 
L 548.114339 242.552488 
L 549.421743 245.242681 
L 550.729147 245.878586 
L 552.036551 246.247474 
L 553.343955 246.263073 
L 554.651359 245.556758 
L 555.958763 245.278816 
L 557.266167 244.15618 
L 558.573571 243.938882 
L 561.188379 243.828338 
L 562.495783 243.610022 
L 563.803187 243.686658 
L 565.11059 246.1388 
L 566.417994 246.683399 
L 567.725398 244.229424 
L 569.032802 243.470682 
L 570.340206 243.264424 
L 571.64761 243.33905 
L 572.955014 243.796002 
L 574.262418 242.587766 
L 575.569822 242.267907 
L 576.877226 242.664529 
L 582.106842 243.489595 
L 583.414246 243.252027 
L 586.029053 243.661062 
L 587.336457 243.867246 
L 589.951265 244.136275 
L 591.258669 244.499291 
L 592.566073 244.712348 
L 593.873477 244.781826 
L 595.180881 245.084869 
L 596.488285 245.170712 
L 600.410497 244.985429 
L 601.717901 244.581353 
L 603.025305 244.370408 
L 605.640112 244.540257 
L 606.947516 244.519758 
L 608.25492 244.698497 
L 609.562324 245.120568 
L 610.869728 245.05638 
L 612.177132 245.946963 
L 614.79194 245.886166 
L 617.406748 246.286507 
L 618.714152 246.935679 
L 622.636364 246.935679 
L 622.636364 246.935679 
" style="fill:none;stroke:#777777;stroke-linecap:square;stroke-opacity:0.4;stroke-width:2;"/>
   </g>
   <g id="line2d_117">
    <defs>
     <path d="M 0 3 
C 0.795609 3 1.55874 2.683901 2.12132 2.12132 
C 2.683901 1.55874 3 0.795609 3 0 
C 3 -0.795609 2.683901 -1.55874 2.12132 -2.12132 
C 1.55874 -2.683901 0.795609 -3 0 -3 
C -0.795609 -3 -1.55874 -2.683901 -2.12132 -2.12132 
C -2.683901 -1.55874 -3 -0.795609 -3 0 
C -3 0.795609 -2.683901 1.55874 -2.12132 2.12132 
C -1.55874 2.683901 -0.795609 3 0 3 
z
" id="m352d27062f" style="stroke:#777777;stroke-opacity:0.4;"/>
    </defs>
    <g clip-path="url(#pb454dbd0ab)">
     <use style="fill:#777777;fill-opacity:0.4;stroke:#777777;stroke-opacity:0.4;" x="622.636364" xlink:href="#m352d27062f" y="246.935679"/>
    </g>
   </g>
   <g id="line2d_118">
    <path clip-path="url(#pb454dbd0ab)" d="M 196.417962 433 
L 196.42268 324.946136 
L 199.037488 306.867665 
L 200.344892 306.867665 
L 201.652296 303.957681 
L 204.267104 291.49699 
L 206.881912 293.675519 
L 208.189316 292.540815 
L 209.49672 289.630832 
L 210.804124 287.253202 
L 212.111528 287.253202 
L 213.418932 288.789194 
L 214.726336 285.87921 
L 216.033739 284.056594 
L 217.341143 283.50158 
L 221.263355 285.242944 
L 222.570759 284.636283 
L 225.185567 284.636283 
L 226.492971 285.87921 
L 229.107779 284.636283 
L 230.415183 282.969226 
L 231.722587 283.50158 
L 233.029991 283.50158 
L 234.337395 282.457754 
L 235.644799 281.033701 
L 236.952202 280.591596 
L 238.259606 280.591596 
L 239.56701 281.965588 
L 240.874414 281.491322 
L 243.489222 281.491322 
L 244.796626 281.965588 
L 247.411434 281.033701 
L 248.718838 279.749958 
L 250.026242 279.749958 
L 251.333646 278.581339 
L 252.64105 278.959361 
L 253.948454 278.581339 
L 255.255858 278.581339 
L 256.563261 278.959361 
L 257.870665 278.959361 
L 259.178069 278.213966 
L 260.485473 279.348669 
L 261.792877 279.348669 
L 263.100281 278.959361 
L 267.022493 278.959361 
L 268.329897 279.348669 
L 269.637301 279.348669 
L 270.944705 278.581339 
L 272.252109 278.959361 
L 273.559513 278.959361 
L 276.174321 278.213966 
L 277.481724 278.213966 
L 280.096532 278.959361 
L 281.403936 278.959361 
L 282.71134 278.581339 
L 284.018744 278.959361 
L 285.326148 278.959361 
L 286.633552 278.213966 
L 287.940956 277.17014 
L 289.24836 276.839974 
L 290.555764 276.839974 
L 291.863168 277.17014 
L 293.170572 276.839974 
L 294.477976 277.17014 
L 295.78538 278.213966 
L 298.400187 278.213966 
L 299.707591 277.508883 
L 302.322399 276.839974 
L 303.629803 277.508883 
L 304.937207 277.17014 
L 306.244611 277.17014 
L 307.552015 277.508883 
L 308.859419 278.213966 
L 310.166823 278.213966 
L 311.474227 278.959361 
L 312.781631 277.85666 
L 315.396439 278.581339 
L 316.703843 278.213966 
L 318.011246 277.508883 
L 319.31865 277.17014 
L 320.626054 276.517961 
L 321.933458 276.839974 
L 324.548266 275.597048 
L 325.85567 275.303982 
L 327.163074 275.597048 
L 328.470478 276.203709 
L 329.777882 276.517961 
L 331.085286 276.517961 
L 332.39269 277.17014 
L 336.314902 278.213966 
L 337.622306 277.85666 
L 340.237113 278.581339 
L 341.544517 278.581339 
L 342.851921 279.348669 
L 344.159325 279.348669 
L 345.466729 278.959361 
L 346.774133 279.348669 
L 348.081537 278.581339 
L 350.696345 278.581339 
L 352.003749 278.213966 
L 354.618557 278.959361 
L 355.925961 278.581339 
L 357.233365 279.348669 
L 359.848172 279.348669 
L 362.46298 281.033701 
L 363.770384 281.965588 
L 365.077788 283.50158 
L 367.692596 285.87921 
L 369 287.253202 
L 371.614808 287.253202 
L 374.229616 285.87921 
L 375.53702 287.253202 
L 376.844424 284.056594 
L 379.459231 282.969226 
L 380.766635 281.965588 
L 383.381443 281.033701 
L 384.688847 278.959361 
L 385.996251 279.749958 
L 387.303655 279.348669 
L 388.611059 278.581339 
L 392.533271 278.581339 
L 393.840675 278.959361 
L 395.148079 278.959361 
L 396.455483 278.581339 
L 397.762887 278.959361 
L 402.992502 278.959361 
L 404.299906 278.581339 
L 408.222118 278.581339 
L 410.836926 277.85666 
L 412.14433 277.17014 
L 413.451734 277.17014 
L 414.759138 276.839974 
L 416.066542 276.839974 
L 417.373946 276.517961 
L 418.68135 277.17014 
L 419.988754 278.581339 
L 421.296157 279.749958 
L 422.603561 280.591596 
L 423.910965 281.033701 
L 425.218369 280.591596 
L 426.525773 281.033701 
L 427.833177 280.163989 
L 430.447985 277.85666 
L 431.755389 277.508883 
L 433.062793 277.85666 
L 438.292409 277.85666 
L 439.599813 277.508883 
L 440.907216 279.348669 
L 442.21462 276.839974 
L 443.522024 276.839974 
L 444.829428 276.517961 
L 447.444236 276.517961 
L 448.75164 278.959361 
L 450.059044 275.303982 
L 451.366448 277.17014 
L 455.28866 278.213966 
L 456.596064 278.213966 
L 457.903468 276.839974 
L 459.210872 279.348669 
L 464.440487 281.033701 
L 465.747891 283.50158 
L 467.055295 281.491322 
L 473.592315 281.491322 
L 474.899719 279.749958 
L 476.207123 281.965588 
L 477.514527 281.491322 
L 478.821931 281.491322 
L 484.051546 283.50158 
L 485.35895 283.50158 
L 486.666354 284.636283 
L 487.973758 284.636283 
L 489.281162 283.50158 
L 490.588566 281.965588 
L 491.89597 281.033701 
L 495.818182 277.17014 
L 497.125586 276.203709 
L 498.43299 275.597048 
L 499.740394 275.303982 
L 501.047798 274.736899 
L 502.355201 274.462344 
L 503.662605 273.92999 
L 504.970009 273.92999 
L 507.584817 273.418519 
L 508.892221 273.418519 
L 510.199625 272.926352 
L 511.507029 272.687064 
L 512.814433 272.926352 
L 514.121837 272.687064 
L 515.429241 272.926352 
L 516.736645 272.926352 
L 518.044049 272.687064 
L 519.351453 273.170114 
L 524.581068 272.221269 
L 525.888472 272.452087 
L 527.195876 272.452087 
L 528.50328 272.221269 
L 529.810684 272.452087 
L 532.425492 272.452087 
L 535.0403 271.552361 
L 536.347704 271.336804 
L 537.655108 271.336804 
L 538.962512 271.124753 
L 540.269916 271.124753 
L 545.499531 271.994466 
L 546.806935 271.77154 
L 548.114339 271.77154 
L 550.729147 271.336804 
L 552.036551 271.336804 
L 554.651359 270.508535 
L 555.958763 270.309434 
L 559.880975 270.309434 
L 561.188379 270.113327 
L 562.495783 270.113327 
L 565.11059 270.508535 
L 567.725398 270.508535 
L 569.032802 270.309434 
L 571.64761 270.710723 
L 572.955014 270.710723 
L 575.569822 270.309434 
L 576.877226 270.309434 
L 578.18463 270.508535 
L 579.492034 270.508535 
L 580.799438 270.309434 
L 582.106842 270.309434 
L 584.721649 270.710723 
L 586.029053 270.309434 
L 587.336457 270.113327 
L 589.951265 270.113327 
L 593.873477 269.542103 
L 595.180881 269.729745 
L 596.488285 269.729745 
L 597.795689 269.542103 
L 604.332709 270.508535 
L 605.640112 270.508535 
L 606.947516 270.710723 
L 608.25492 270.710723 
L 609.562324 270.508535 
L 610.869728 270.508535 
L 613.484536 270.113327 
L 614.79194 270.309434 
L 617.406748 270.309434 
L 618.714152 270.508535 
L 622.636364 270.508535 
L 622.636364 270.508535 
" style="fill:none;stroke:#fbc15e;stroke-linecap:square;stroke-opacity:0.4;stroke-width:2;"/>
   </g>
   <g id="line2d_119">
    <defs>
     <path d="M 0 3 
C 0.795609 3 1.55874 2.683901 2.12132 2.12132 
C 2.683901 1.55874 3 0.795609 3 0 
C 3 -0.795609 2.683901 -1.55874 2.12132 -2.12132 
C 1.55874 -2.683901 0.795609 -3 0 -3 
C -0.795609 -3 -1.55874 -2.683901 -2.12132 -2.12132 
C -2.683901 -1.55874 -3 -0.795609 -3 0 
C -3 0.795609 -2.683901 1.55874 -2.12132 2.12132 
C -1.55874 2.683901 -0.795609 3 0 3 
z
" id="mc22ba00246" style="stroke:#fbc15e;stroke-opacity:0.4;"/>
    </defs>
    <g clip-path="url(#pb454dbd0ab)">
     <use style="fill:#fbc15e;fill-opacity:0.4;stroke:#fbc15e;stroke-opacity:0.4;" x="622.636364" xlink:href="#mc22ba00246" y="270.508535"/>
    </g>
   </g>
   <g id="line2d_120">
    <path clip-path="url(#pb454dbd0ab)" d="M 162.42541 433 
L 162.430178 323.800498 
L 165.044986 323.800498 
L 166.35239 314.761263 
L 167.659794 314.761263 
L 168.967198 309.473649 
L 170.274602 305.722027 
L 171.582006 309.473649 
L 172.88941 293.772808 
L 174.196813 291.395178 
L 176.811621 291.395178 
L 178.119025 282.355942 
L 179.426429 282.355942 
L 180.733833 276.711022 
L 182.041237 274.751213 
L 183.348641 269.979116 
L 184.656045 266.018836 
L 185.963449 262.985241 
L 187.270853 264.414026 
L 188.578257 260.835134 
L 191.193065 256.299053 
L 193.807873 254.576121 
L 195.115276 252.382702 
L 196.42268 248.948661 
L 197.730084 247.979235 
L 199.037488 247.595652 
L 200.344892 247.040638 
L 201.652296 245.601605 
L 202.9597 245.186561 
L 204.267104 245.472486 
L 205.574508 246.063861 
L 206.881912 245.440405 
L 208.189316 245.281174 
L 209.49672 245.312865 
L 210.804124 246.683332 
L 212.111528 245.963417 
L 214.726336 247.296708 
L 218.648547 248.374442 
L 219.955951 248.096544 
L 221.263355 249.995982 
L 222.570759 249.815482 
L 223.878163 249.245539 
L 225.185567 250.79226 
L 226.492971 250.889218 
L 227.800375 251.184496 
L 229.107779 252.82669 
L 230.415183 253.642009 
L 231.722587 252.547431 
L 234.337395 254.257258 
L 235.644799 255.51279 
L 236.952202 257.214577 
L 238.259606 257.373614 
L 239.56701 258.284775 
L 240.874414 261.476617 
L 242.181818 264.277471 
L 243.489222 265.264819 
L 244.796626 267.849216 
L 246.10403 268.584107 
L 247.411434 268.774488 
L 248.718838 268.211486 
L 250.026242 270.191167 
L 251.333646 268.029093 
L 252.64105 269.362897 
L 253.948454 269.979116 
L 256.563261 273.047814 
L 257.870665 273.316707 
L 259.178069 275.372324 
L 260.485473 282.355942 
L 261.792877 283.490646 
L 263.100281 281.312117 
L 264.407685 281.823589 
L 265.715089 281.312117 
L 267.022493 281.823589 
L 268.329897 280.81995 
L 269.637301 282.355942 
L 270.944705 281.823589 
L 272.252109 284.097307 
L 273.559513 287.643556 
L 274.866917 289.384921 
L 276.174321 289.384921 
L 277.481724 298.424156 
L 278.789128 302.812043 
L 280.096532 305.722027 
L 281.403936 314.761263 
L 284.018744 314.761263 
L 285.326148 323.800498 
L 286.633552 309.473649 
L 287.940956 289.384921 
L 290.555764 287.643556 
L 291.863168 286.852959 
L 294.477976 286.852959 
L 295.78538 287.643556 
L 297.092784 284.733572 
L 298.400187 284.733572 
L 301.014995 286.107564 
L 303.629803 286.107564 
L 304.937207 286.852959 
L 306.244611 314.761263 
L 308.859419 314.761263 
L 310.166823 300.434414 
L 314.089035 300.434414 
L 315.396439 298.424156 
L 318.011246 298.424156 
L 319.31865 309.473649 
L 324.548266 309.473649 
L 325.85567 323.800498 
L 328.470478 323.800498 
L 329.777882 309.473649 
L 332.39269 309.473649 
L 333.700094 314.761263 
L 335.007498 314.761263 
L 336.314902 309.473649 
L 337.622306 309.473649 
L 338.929709 323.800498 
L 340.237113 323.800498 
L 341.544517 309.473649 
L 342.851921 305.722027 
L 344.159325 305.722027 
L 345.466729 300.434414 
L 346.774133 296.682792 
L 349.388941 296.682792 
L 350.696345 298.424156 
L 352.003749 300.434414 
L 353.311153 298.424156 
L 354.618557 302.812043 
L 355.925961 305.722027 
L 358.540769 305.722027 
L 359.848172 309.473649 
L 361.155576 309.473649 
L 362.46298 302.812043 
L 367.692596 302.812043 
L 369 300.434414 
L 370.307404 295.1468 
L 371.614808 298.424156 
L 372.922212 300.434414 
L 374.229616 302.812043 
L 376.844424 302.812043 
L 378.151828 305.722027 
L 379.459231 314.761263 
L 380.766635 302.812043 
L 382.074039 298.424156 
L 383.381443 295.1468 
L 384.688847 295.1468 
L 385.996251 293.772808 
L 388.611059 293.772808 
L 391.225867 302.812043 
L 392.533271 305.722027 
L 393.840675 302.812043 
L 395.148079 305.722027 
L 396.455483 302.812043 
L 397.762887 295.1468 
L 399.070291 296.682792 
L 400.377694 293.772808 
L 401.685098 295.1468 
L 402.992502 296.682792 
L 405.60731 296.682792 
L 406.914714 298.424156 
L 408.222118 296.682792 
L 409.529522 298.424156 
L 412.14433 298.424156 
L 413.451734 296.682792 
L 414.759138 292.529881 
L 416.066542 293.772808 
L 417.373946 284.733572 
L 418.68135 283.490646 
L 419.988754 281.823589 
L 421.296157 281.823589 
L 422.603561 282.355942 
L 425.218369 281.312117 
L 426.525773 284.097307 
L 427.833177 285.402481 
L 431.755389 285.402481 
L 433.062793 288.485194 
L 434.370197 288.485194 
L 436.985005 290.351352 
L 438.292409 292.529881 
L 440.907216 290.351352 
L 442.21462 290.351352 
L 443.522024 291.395178 
L 444.829428 296.682792 
L 446.136832 290.351352 
L 447.444236 290.351352 
L 450.059044 292.529881 
L 451.366448 286.107564 
L 453.981256 280.81995 
L 455.28866 280.345685 
L 456.596064 277.813724 
L 457.903468 277.813724 
L 459.210872 277.435701 
L 460.518276 275.058071 
L 461.825679 275.058071 
L 461.832564 433 
M 470.972346 433 
L 470.977507 314.761263 
L 472.284911 261.476617 
L 473.592315 258.114303 
L 474.899719 254.069616 
L 476.207123 253.702244 
L 477.514527 252.166252 
L 478.821931 249.726161 
L 480.129335 248.41463 
L 481.436739 245.764822 
L 482.744142 244.78432 
L 484.051546 244.632856 
L 485.35895 244.072823 
L 486.666354 244.247091 
L 487.973758 242.808931 
L 489.281162 241.704814 
L 490.588566 241.325417 
L 491.89597 240.642493 
L 493.203374 240.270809 
L 495.818182 240.444401 
L 497.125586 239.66023 
L 498.43299 239.315159 
L 499.740394 239.295143 
L 503.662605 238.746798 
L 504.970009 238.61324 
L 506.277413 238.632236 
L 507.584817 239.456143 
L 508.892221 239.784232 
L 510.199625 239.742767 
L 511.507029 240.843642 
L 512.814433 240.598212 
L 515.429241 240.532071 
L 516.736645 239.701433 
L 519.351453 238.901129 
L 520.658857 237.965228 
L 521.966261 238.313005 
L 523.273664 238.387418 
L 524.581068 238.746798 
L 525.888472 239.275157 
L 527.195876 239.037684 
L 528.50328 239.476409 
L 529.810684 239.639677 
L 531.118088 239.295143 
L 532.425492 239.619156 
L 533.732896 239.15588 
L 535.0403 238.881738 
L 537.655108 239.076964 
L 538.962512 239.680815 
L 540.269916 239.82583 
L 541.57732 239.598668 
L 542.884724 239.805015 
L 544.192127 239.175684 
L 545.499531 239.335207 
L 546.806935 240.142115 
L 548.114339 240.422575 
L 554.651359 241.16284 
L 555.958763 241.585063 
L 557.266167 241.632831 
L 558.573571 241.849983 
L 559.880975 241.825676 
L 561.188379 241.372242 
L 562.495783 242.120397 
L 563.803187 242.37119 
L 565.11059 241.923178 
L 566.417994 242.095581 
L 569.032802 242.245191 
L 570.340206 244.247091 
L 571.64761 244.072823 
L 572.955014 245.281174 
L 574.262418 245.408403 
L 576.877226 244.968429 
L 578.18463 245.186561 
L 579.492034 244.78432 
L 580.799438 246.030294 
L 582.106842 245.569205 
L 583.414246 246.165084 
L 584.721649 246.063861 
L 586.029053 246.508284 
L 587.336457 246.233005 
L 588.643861 247.259818 
L 591.258669 247.940365 
L 592.566073 247.90161 
L 593.873477 248.57663 
L 595.180881 248.57663 
L 596.488285 248.740668 
L 597.795689 249.160025 
L 599.103093 250.087177 
L 600.410497 250.79226 
L 603.025305 252.883266 
L 604.332709 252.547431 
L 605.640112 252.770357 
L 606.947516 254.77125 
L 608.25492 254.836947 
L 609.562324 256.007625 
L 610.869728 256.597143 
L 612.177132 257.373614 
L 613.484536 258.544734 
L 614.79194 258.284775 
L 616.099344 260.835134 
L 617.406748 260.323662 
L 618.714152 259.544872 
L 622.636364 259.544872 
L 622.636364 259.544872 
" style="fill:none;stroke:#8eba42;stroke-linecap:square;stroke-opacity:0.4;stroke-width:2;"/>
   </g>
   <g id="line2d_121">
    <defs>
     <path d="M 0 3 
C 0.795609 3 1.55874 2.683901 2.12132 2.12132 
C 2.683901 1.55874 3 0.795609 3 0 
C 3 -0.795609 2.683901 -1.55874 2.12132 -2.12132 
C 1.55874 -2.683901 0.795609 -3 0 -3 
C -0.795609 -3 -1.55874 -2.683901 -2.12132 -2.12132 
C -2.683901 -1.55874 -3 -0.795609 -3 0 
C -3 0.795609 -2.683901 1.55874 -2.12132 2.12132 
C -1.55874 2.683901 -0.795609 3 0 3 
z
" id="mfd0f559d6a" style="stroke:#8eba42;stroke-opacity:0.4;"/>
    </defs>
    <g clip-path="url(#pb454dbd0ab)">
     <use style="fill:#8eba42;fill-opacity:0.4;stroke:#8eba42;stroke-opacity:0.4;" x="622.636364" xlink:href="#mfd0f559d6a" y="259.544872"/>
    </g>
   </g>
   <g id="line2d_122">
    <path clip-path="url(#pb454dbd0ab)" d="M 155.890459 433 
L 155.893158 371.261157 
L 157.200562 371.261157 
L 158.507966 347.895072 
L 159.81537 345.884815 
L 161.122774 339.99054 
L 162.430178 338.855837 
L 163.737582 336.845579 
L 165.044986 335.104215 
L 166.35239 332.194231 
L 167.659794 335.104215 
L 168.967198 331.557965 
L 170.274602 330.951304 
L 171.582006 326.47901 
L 172.88941 324.171681 
L 174.196813 322.832983 
L 175.504217 320.508472 
L 176.811621 314.957398 
L 178.119025 310.445899 
L 179.426429 304.995273 
L 180.733833 300.746986 
L 182.041237 295.9966 
L 183.348641 292.584523 
L 184.656045 289.756103 
L 188.578257 279.287607 
L 191.193065 272.732477 
L 192.500469 269.518968 
L 193.807873 267.114697 
L 195.115276 264.998416 
L 197.730084 259.432215 
L 199.037488 256.992796 
L 201.652296 253.689158 
L 205.574508 249.00632 
L 206.881912 248.112717 
L 209.49672 246.651205 
L 210.804124 246.162665 
L 213.418932 245.739909 
L 214.726336 245.855828 
L 216.033739 245.474777 
L 221.263355 245.61477 
L 222.570759 245.42256 
L 223.878163 245.360508 
L 225.185567 245.485753 
L 226.492971 245.224032 
L 227.800375 245.161268 
L 229.107779 245.393174 
L 230.415183 245.894117 
L 231.722587 246.532605 
L 233.029991 246.809166 
L 234.337395 246.8438 
L 235.644799 247.011719 
L 236.952202 247.293892 
L 238.259606 247.284193 
L 240.874414 247.645943 
L 242.181818 247.631996 
L 243.489222 247.750023 
L 244.796626 248.123052 
L 248.718838 248.691514 
L 250.026242 249.056202 
L 252.64105 250.476923 
L 256.563261 251.126943 
L 257.870665 251.33029 
L 259.178069 251.093141 
L 260.485473 251.268294 
L 261.792877 251.597448 
L 263.100281 252.424788 
L 264.407685 253.041656 
L 267.022493 253.55361 
L 268.329897 254.580852 
L 269.637301 255.962952 
L 272.252109 256.089941 
L 274.866917 256.578957 
L 276.174321 256.400245 
L 277.481724 256.032927 
L 278.789128 255.483366 
L 280.096532 256.35935 
L 281.403936 256.600727 
L 284.018744 257.701622 
L 286.633552 258.911187 
L 287.940956 259.046671 
L 291.863168 259.936503 
L 293.170572 259.794034 
L 298.400187 261.041009 
L 299.707591 261.433862 
L 302.322399 262.516241 
L 303.629803 262.600688 
L 304.937207 262.550579 
L 306.244611 262.749007 
L 307.552015 262.698326 
L 308.859419 263.178096 
L 310.166823 263.187939 
L 311.474227 263.426437 
L 314.089035 263.449859 
L 315.396439 263.979562 
L 316.703843 264.126878 
L 318.011246 263.43647 
L 319.31865 263.423095 
L 320.626054 264.088134 
L 321.933458 264.053012 
L 323.240862 264.165738 
L 324.548266 262.284493 
L 325.85567 261.88636 
L 327.163074 261.068881 
L 328.470478 260.600296 
L 329.777882 259.50378 
L 331.085286 259.149818 
L 332.39269 258.972812 
L 333.700094 259.545915 
L 335.007498 259.217425 
L 336.314902 259.390445 
L 338.929709 258.767737 
L 340.237113 258.777095 
L 342.851921 258.117669 
L 344.159325 257.570816 
L 346.774133 256.931705 
L 349.388941 256.704131 
L 350.696345 255.631466 
L 353.311153 254.820549 
L 357.233365 254.093022 
L 358.540769 254.265751 
L 359.848172 255.199232 
L 366.385192 255.261642 
L 367.692596 255.024303 
L 369 255.005011 
L 370.307404 255.578249 
L 371.614808 255.381951 
L 372.922212 255.697832 
L 374.229616 255.499739 
L 375.53702 255.631466 
L 376.844424 255.554463 
L 378.151828 255.742264 
L 379.459231 255.281318 
L 380.766635 255.640663 
L 382.074039 255.591075 
L 383.381443 256.057602 
L 384.688847 256.097561 
L 385.996251 256.305021 
L 388.611059 256.423672 
L 389.918463 256.654315 
L 391.225867 256.638414 
L 393.840675 257.064433 
L 395.148079 257.128212 
L 396.455483 256.931705 
L 399.070291 257.577218 
L 400.377694 257.72535 
L 401.685098 257.757777 
L 402.992502 258.017925 
L 404.299906 258.066593 
L 405.60731 258.681489 
L 406.914714 260.142768 
L 408.222118 259.905842 
L 409.529522 260.231428 
L 410.836926 259.653104 
L 413.451734 259.844737 
L 414.759138 259.493886 
L 416.066542 257.751285 
L 417.373946 258.200255 
L 418.68135 258.274358 
L 419.988754 258.887562 
L 421.296157 258.887562 
L 422.603561 259.265931 
L 423.910965 259.270792 
L 425.218369 259.693215 
L 426.525773 259.412542 
L 431.755389 259.008498 
L 433.062793 259.195656 
L 435.677601 259.923719 
L 438.292409 260.226196 
L 439.599813 260.485067 
L 440.907216 260.310162 
L 442.21462 259.985196 
L 443.522024 260.431818 
L 444.829428 260.471735 
L 447.444236 259.857444 
L 448.75164 259.931388 
L 450.059044 259.730931 
L 451.366448 259.962108 
L 453.981256 259.52607 
L 455.28866 259.842197 
L 456.596064 259.936503 
L 457.903468 259.638095 
L 459.210872 259.570765 
L 461.825679 259.008498 
L 463.133083 258.630476 
L 465.747891 258.496935 
L 467.055295 258.084336 
L 468.362699 258.155549 
L 470.977507 257.945262 
L 472.284911 258.200255 
L 474.899719 257.721033 
L 476.207123 257.822873 
L 478.821931 257.667185 
L 480.129335 256.427581 
L 481.436739 256.262492 
L 485.35895 255.353119 
L 486.666354 255.218815 
L 487.973758 254.846494 
L 489.281162 255.121196 
L 490.588566 254.570677 
L 491.89597 254.481142 
L 493.203374 254.530057 
L 494.510778 254.091388 
L 495.818182 253.773401 
L 497.125586 253.682823 
L 498.43299 253.211612 
L 499.740394 252.475214 
L 501.047798 251.328968 
L 502.355201 250.370849 
L 508.892221 248.596819 
L 510.199625 249.320977 
L 511.507029 249.784752 
L 512.814433 250.087724 
L 514.121837 250.075709 
L 515.429241 249.767148 
L 516.736645 249.285889 
L 518.044049 248.679639 
L 519.351453 247.079306 
L 520.658857 246.051053 
L 521.966261 245.214929 
L 524.581068 244.759704 
L 525.888472 244.698336 
L 527.195876 244.415965 
L 528.50328 244.399635 
L 529.810684 243.836884 
L 533.732896 243.511259 
L 537.655108 242.47883 
L 538.962512 242.795864 
L 544.192127 242.223139 
L 545.499531 242.408598 
L 546.806935 242.797926 
L 548.114339 243.921263 
L 549.421743 244.511239 
L 550.729147 244.731774 
L 552.036551 244.690387 
L 554.651359 244.258192 
L 555.958763 243.849544 
L 557.266167 243.318859 
L 558.573571 242.929172 
L 562.495783 242.966715 
L 563.803187 242.894505 
L 565.11059 242.566988 
L 566.417994 241.344518 
L 567.725398 240.846319 
L 569.032802 240.532348 
L 570.340206 240.556055 
L 571.64761 240.102765 
L 574.262418 240.040866 
L 575.569822 240.153732 
L 576.877226 240.097177 
L 578.18463 240.159906 
L 579.492034 240.500037 
L 580.799438 241.520306 
L 583.414246 241.152275 
L 587.336457 241.201439 
L 588.643861 240.895529 
L 589.951265 240.149243 
L 591.258669 240.387005 
L 593.873477 240.585025 
L 595.180881 240.920501 
L 597.795689 240.891371 
L 599.103093 241.228223 
L 604.332709 241.532775 
L 610.869728 243.132076 
L 612.177132 243.632326 
L 616.099344 244.589067 
L 617.406748 245.636113 
L 618.714152 246.358961 
L 622.636364 246.358961 
L 622.636364 246.358961 
" style="fill:none;stroke:#ffb5b8;stroke-linecap:square;stroke-opacity:0.4;stroke-width:2;"/>
   </g>
   <g id="line2d_123">
    <defs>
     <path d="M 0 3 
C 0.795609 3 1.55874 2.683901 2.12132 2.12132 
C 2.683901 1.55874 3 0.795609 3 0 
C 3 -0.795609 2.683901 -1.55874 2.12132 -2.12132 
C 1.55874 -2.683901 0.795609 -3 0 -3 
C -0.795609 -3 -1.55874 -2.683901 -2.12132 -2.12132 
C -2.683901 -1.55874 -3 -0.795609 -3 0 
C -3 0.795609 -2.683901 1.55874 -2.12132 2.12132 
C -1.55874 2.683901 -0.795609 3 0 3 
z
" id="me9c171eb9f" style="stroke:#ffb5b8;stroke-opacity:0.4;"/>
    </defs>
    <g clip-path="url(#pb454dbd0ab)">
     <use style="fill:#ffb5b8;fill-opacity:0.4;stroke:#ffb5b8;stroke-opacity:0.4;" x="622.636364" xlink:href="#me9c171eb9f" y="246.358961"/>
    </g>
   </g>
   <g id="patch_3">
    <path d="M 90 378 
L 90 229.745455 
" style="fill:none;stroke:#ffffff;stroke-linecap:square;stroke-linejoin:miter;"/>
   </g>
   <g id="patch_4">
    <path d="M 648 378 
L 648 229.745455 
" style="fill:none;stroke:#ffffff;stroke-linecap:square;stroke-linejoin:miter;"/>
   </g>
   <g id="patch_5">
    <path d="M 90 378 
L 648 378 
" style="fill:none;stroke:#ffffff;stroke-linecap:square;stroke-linejoin:miter;"/>
   </g>
   <g id="patch_6">
    <path d="M 90 229.745455 
L 648 229.745455 
" style="fill:none;stroke:#ffffff;stroke-linecap:square;stroke-linejoin:miter;"/>
   </g>
   <g id="legend_1">
    <g id="patch_7">
     <path d="M 97 340.49233 
L 192.7625 340.49233 
Q 194.7625 340.49233 194.7625 338.49233 
L 194.7625 236.745455 
Q 194.7625 234.745455 192.7625 234.745455 
L 97 234.745455 
Q 95 234.745455 95 236.745455 
L 95 338.49233 
Q 95 340.49233 97 340.49233 
z
" style="fill:#e5e5e5;opacity:0.8;stroke:#cccccc;stroke-linejoin:miter;stroke-width:0.5;"/>
    </g>
    <g id="line2d_124">
     <path d="M 99 242.843892 
L 119 242.843892 
" style="fill:none;stroke:#e24a33;stroke-linecap:square;stroke-width:4;"/>
    </g>
    <g id="line2d_125"/>
    <g id="text_19">
     <text style="font-family:DejaVu Sans;font-size:10px;font-stretch:normal;font-style:normal;font-weight:normal;text-anchor:start;" transform="rotate(-0, 127, 246.343892)" x="127" y="246.343892">Korea, South</text>
    </g>
    <g id="line2d_126">
     <path d="M 99 257.522017 
L 119 257.522017 
" style="fill:none;stroke:#348abd;stroke-linecap:square;stroke-opacity:0.4;stroke-width:2;"/>
    </g>
    <g id="line2d_127"/>
    <g id="text_20">
     <text style="font-family:DejaVu Sans;font-size:10px;font-stretch:normal;font-style:normal;font-weight:normal;text-anchor:start;" transform="rotate(-0, 127, 261.022017)" x="127" y="261.022017">Germany</text>
    </g>
    <g id="line2d_128">
     <path d="M 99 272.200142 
L 119 272.200142 
" style="fill:none;stroke:#988ed5;stroke-linecap:square;stroke-opacity:0.4;stroke-width:2;"/>
    </g>
    <g id="line2d_129"/>
    <g id="text_21">
     <text style="font-family:DejaVu Sans;font-size:10px;font-stretch:normal;font-style:normal;font-weight:normal;text-anchor:start;" transform="rotate(-0, 127, 275.700142)" x="127" y="275.700142">Australia</text>
    </g>
    <g id="line2d_130">
     <path d="M 99 286.878267 
L 119 286.878267 
" style="fill:none;stroke:#777777;stroke-linecap:square;stroke-opacity:0.4;stroke-width:2;"/>
    </g>
    <g id="line2d_131"/>
    <g id="text_22">
     <text style="font-family:DejaVu Sans;font-size:10px;font-stretch:normal;font-style:normal;font-weight:normal;text-anchor:start;" transform="rotate(-0, 127, 290.378267)" x="127" y="290.378267">Poland</text>
    </g>
    <g id="line2d_132">
     <path d="M 99 301.556392 
L 119 301.556392 
" style="fill:none;stroke:#fbc15e;stroke-linecap:square;stroke-opacity:0.4;stroke-width:2;"/>
    </g>
    <g id="line2d_133"/>
    <g id="text_23">
     <text style="font-family:DejaVu Sans;font-size:10px;font-stretch:normal;font-style:normal;font-weight:normal;text-anchor:start;" transform="rotate(-0, 127, 305.056392)" x="127" y="305.056392">Belarus</text>
    </g>
    <g id="line2d_134">
     <path d="M 99 316.234517 
L 119 316.234517 
" style="fill:none;stroke:#8eba42;stroke-linecap:square;stroke-opacity:0.4;stroke-width:2;"/>
    </g>
    <g id="line2d_135"/>
    <g id="text_24">
     <text style="font-family:DejaVu Sans;font-size:10px;font-stretch:normal;font-style:normal;font-weight:normal;text-anchor:start;" transform="rotate(-0, 127, 319.734517)" x="127" y="319.734517">Switzerland</text>
    </g>
    <g id="line2d_136">
     <path d="M 99 330.912642 
L 119 330.912642 
" style="fill:none;stroke:#ffb5b8;stroke-linecap:square;stroke-opacity:0.4;stroke-width:2;"/>
    </g>
    <g id="line2d_137"/>
    <g id="text_25">
     <text style="font-family:DejaVu Sans;font-size:10px;font-stretch:normal;font-style:normal;font-weight:normal;text-anchor:start;" transform="rotate(-0, 127, 334.412642)" x="127" y="334.412642">US</text>
    </g>
   </g>
  </g>
 </g>
 <defs>
  <clipPath id="pb454dbd0ab">
   <rect height="148.254545" width="558" x="90" y="229.745455"/>
  </clipPath>
 </defs>
</svg>
