<?xml version="1.0" encoding="utf-8" standalone="no"?>
<!DOCTYPE svg PUBLIC "-//W3C//DTD SVG 1.1//EN"
  "http://www.w3.org/Graphics/SVG/1.1/DTD/svg11.dtd">
<!-- Created with matplotlib (https://matplotlib.org/) -->
<svg height="216pt" version="1.1" viewBox="0 0 720 216" width="720pt" xmlns="http://www.w3.org/2000/svg" xmlns:xlink="http://www.w3.org/1999/xlink">
 <defs>
  <style type="text/css">
*{stroke-linecap:butt;stroke-linejoin:round;}
  </style>
 </defs>
 <g id="figure_1">
  <g id="patch_1">
   <path d="M 0 216 
L 720 216 
L 720 0 
L 0 0 
z
" style="fill:#ffffff;"/>
  </g>
  <g id="axes_1">
   <g id="patch_2">
    <path d="M 90 189 
L 648 189 
L 648 25.92 
L 90 25.92 
z
" style="fill:#e5e5e5;"/>
   </g>
   <g id="matplotlib.axis_1">
    <g id="xtick_1">
     <g id="line2d_1">
      <path clip-path="url(#p15b6856f92)" d="M 90 189 
L 90 25.92 
" style="fill:none;stroke:#ffffff;stroke-linecap:square;stroke-width:0.8;"/>
     </g>
     <g id="line2d_2">
      <defs>
       <path d="M 0 0 
L 0 3.5 
" id="m9079e206ae" style="stroke:#555555;stroke-width:0.8;"/>
      </defs>
      <g>
       <use style="fill:#555555;stroke:#555555;stroke-width:0.8;" x="90" xlink:href="#m9079e206ae" y="189"/>
      </g>
     </g>
     <g id="text_1">
      <!-- 2020-04-26 -->
      <defs>
       <path d="M 7.296875 5.59375 
L 15.40625 13.796875 
Q 23.5 21.90625 27.546875 26.5 
Q 31.59375 31.09375 34 35.640625 
Q 36.40625 40.203125 36.40625 45.09375 
Q 36.40625 51.203125 33.5 53.890625 
Q 30.59375 56.59375 25.796875 56.59375 
Q 21.5 56.59375 17.84375 54.6875 
Q 14.203125 52.796875 13 50.5 
Q 12.40625 49.40625 11.796875 48.25 
Q 11.203125 47.09375 11.203125 46.90625 
Q 11.203125 46.796875 11.296875 46.796875 
Q 11.40625 46.796875 11.703125 46.9375 
Q 12 47.09375 12.09375 46.703125 
L 11.796875 46.09375 
L 10.90625 46.59375 
L 5.796875 50.59375 
Q 8.796875 56.40625 14 59.546875 
Q 19.203125 62.703125 25.703125 62.703125 
Q 33.703125 62.703125 38.640625 57.890625 
Q 43.59375 53.09375 43.59375 44.90625 
Q 43.59375 39.5 41 34.390625 
Q 38.40625 29.296875 34.34375 24.6875 
Q 30.296875 20.09375 23.09375 13 
L 16.296875 6.09375 
L 39.5 6.09375 
Q 41.09375 6.09375 41.84375 6.296875 
Q 42.59375 6.5 43.203125 7.09375 
L 43.90625 7.09375 
L 43.90625 0 
L 7.296875 0 
z
" id="Inconsolata-Regular-50"/>
       <path d="M 25 62.703125 
Q 34.203125 62.703125 39.25 54.203125 
Q 44.296875 45.703125 44.296875 30.796875 
Q 44.296875 15.5 39.296875 7.203125 
Q 34.296875 -1.09375 25 -1.09375 
Q 15.703125 -1.09375 10.703125 7.203125 
Q 5.703125 15.5 5.703125 30.796875 
Q 5.703125 45.703125 10.75 54.203125 
Q 15.796875 62.703125 25 62.703125 
z
M 25 56.59375 
Q 19.296875 56.59375 16.09375 49.640625 
Q 12.90625 42.703125 12.90625 30.796875 
Q 12.90625 24.296875 13.796875 19.296875 
L 35 46.703125 
Q 33.5 51.5 30.953125 54.046875 
Q 28.40625 56.59375 25 56.59375 
z
M 25 5 
Q 30.703125 5 33.890625 11.703125 
Q 37.09375 18.40625 37.09375 30.796875 
Q 37.09375 36.59375 36.40625 40.796875 
L 15.203125 13.796875 
Q 18.40625 5 25 5 
z
" id="Inconsolata-Regular-48"/>
       <path d="M 7.09375 28.09375 
L 7.09375 34.796875 
L 43.09375 34.796875 
L 43.09375 28.09375 
z
" id="Inconsolata-Regular-45"/>
       <path d="M 31.796875 0 
L 31.796875 15.296875 
L 4.796875 15.296875 
L 4.796875 20.40625 
L 33.296875 62.40625 
L 39.203125 62.40625 
L 39.203125 21.09375 
L 47.203125 21.09375 
L 47.203125 15.203125 
L 39.203125 15.203125 
L 39.203125 0 
z
M 12.90625 21.203125 
L 31.796875 21.203125 
L 31.796875 49.796875 
z
" id="Inconsolata-Regular-52"/>
       <path d="M 26.796875 40.203125 
Q 31.5 40.203125 35.390625 37.640625 
Q 39.296875 35.09375 41.59375 30.4375 
Q 43.90625 25.796875 43.90625 19.796875 
Q 43.90625 13.703125 41.546875 9 
Q 39.203125 4.296875 35.09375 1.640625 
Q 31 -1 26.09375 -1 
Q 16.90625 -1 11.796875 6.84375 
Q 6.703125 14.703125 6.703125 28.40625 
Q 6.703125 39.40625 9.390625 47.203125 
Q 12.09375 55 17.046875 59 
Q 22 63 28.703125 63 
Q 36.5 63 42.40625 57.296875 
L 38 52.296875 
L 37.90625 52.203125 
Q 35.796875 54.796875 33.84375 55.796875 
Q 31.90625 56.796875 28.90625 56.796875 
Q 25.59375 56.796875 22.1875 54.75 
Q 18.796875 52.703125 16.25 47.34375 
Q 13.703125 42 13.59375 32.703125 
Q 15.703125 36.203125 19.25 38.203125 
Q 22.796875 40.203125 26.796875 40.203125 
z
M 36.796875 52 
Q 36.796875 52.59375 37.703125 51.90625 
L 37.296875 51.5 
L 36.796875 52 
z
M 37.90625 52.203125 
Q 38.5 51.40625 38.140625 51.65625 
Q 37.796875 51.90625 37.703125 51.90625 
L 37.90625 52.203125 
z
M 26.40625 5.203125 
Q 30.90625 5.203125 34 9.046875 
Q 37.09375 12.90625 37.09375 19.703125 
Q 37.09375 24.40625 35.5 27.65625 
Q 33.90625 30.90625 31.40625 32.5 
Q 28.90625 34.09375 26.203125 34.09375 
Q 22.703125 34.09375 19.390625 31.75 
Q 16.09375 29.40625 14 25.703125 
Q 13.796875 24.09375 13.796875 23.09375 
Q 13.796875 18.703125 15.34375 14.59375 
Q 16.90625 10.5 19.796875 7.84375 
Q 22.703125 5.203125 26.40625 5.203125 
z
" id="Inconsolata-Regular-54"/>
      </defs>
      <g style="fill:#555555;" transform="translate(65 202.65)scale(0.1 -0.1)">
       <use xlink:href="#Inconsolata-Regular-50"/>
       <use x="49.999985" xlink:href="#Inconsolata-Regular-48"/>
       <use x="99.999969" xlink:href="#Inconsolata-Regular-50"/>
       <use x="149.999954" xlink:href="#Inconsolata-Regular-48"/>
       <use x="199.999939" xlink:href="#Inconsolata-Regular-45"/>
       <use x="249.999924" xlink:href="#Inconsolata-Regular-48"/>
       <use x="299.999908" xlink:href="#Inconsolata-Regular-52"/>
       <use x="349.999893" xlink:href="#Inconsolata-Regular-45"/>
       <use x="399.999878" xlink:href="#Inconsolata-Regular-50"/>
       <use x="449.999863" xlink:href="#Inconsolata-Regular-54"/>
      </g>
     </g>
    </g>
    <g id="xtick_2">
     <g id="line2d_3">
      <path clip-path="url(#p15b6856f92)" d="M 183 189 
L 183 25.92 
" style="fill:none;stroke:#ffffff;stroke-linecap:square;stroke-width:0.8;"/>
     </g>
     <g id="line2d_4">
      <g>
       <use style="fill:#555555;stroke:#555555;stroke-width:0.8;" x="183" xlink:href="#m9079e206ae" y="189"/>
      </g>
     </g>
     <g id="text_2">
      <!-- 2020-04-27 -->
      <defs>
       <path d="M 15.5 0 
Q 24.203125 28.5 34.5 55.703125 
L 7.90625 55.703125 
L 7.90625 62.296875 
L 43.203125 62.296875 
L 43.203125 58.40625 
Q 30.90625 27.40625 23.40625 0 
L 15.5 0 
z
" id="Inconsolata-Regular-55"/>
      </defs>
      <g style="fill:#555555;" transform="translate(158 202.65)scale(0.1 -0.1)">
       <use xlink:href="#Inconsolata-Regular-50"/>
       <use x="49.999985" xlink:href="#Inconsolata-Regular-48"/>
       <use x="99.999969" xlink:href="#Inconsolata-Regular-50"/>
       <use x="149.999954" xlink:href="#Inconsolata-Regular-48"/>
       <use x="199.999939" xlink:href="#Inconsolata-Regular-45"/>
       <use x="249.999924" xlink:href="#Inconsolata-Regular-48"/>
       <use x="299.999908" xlink:href="#Inconsolata-Regular-52"/>
       <use x="349.999893" xlink:href="#Inconsolata-Regular-45"/>
       <use x="399.999878" xlink:href="#Inconsolata-Regular-50"/>
       <use x="449.999863" xlink:href="#Inconsolata-Regular-55"/>
      </g>
     </g>
    </g>
    <g id="xtick_3">
     <g id="line2d_5">
      <path clip-path="url(#p15b6856f92)" d="M 276 189 
L 276 25.92 
" style="fill:none;stroke:#ffffff;stroke-linecap:square;stroke-width:0.8;"/>
     </g>
     <g id="line2d_6">
      <g>
       <use style="fill:#555555;stroke:#555555;stroke-width:0.8;" x="276" xlink:href="#m9079e206ae" y="189"/>
      </g>
     </g>
     <g id="text_3">
      <!-- 2020-04-28 -->
      <defs>
       <path d="M 25 -1 
Q 19.296875 -1 14.9375 1.203125 
Q 10.59375 3.40625 8.296875 7.203125 
Q 6 11 6 15.703125 
Q 6 21.09375 9.390625 25.796875 
Q 12.796875 30.5 18.5 33.09375 
Q 14.203125 35.296875 11.59375 39.25 
Q 9 43.203125 9 47.703125 
Q 9 54.40625 13.296875 58.75 
Q 17.59375 63.09375 25.5 63.09375 
Q 33.703125 63.09375 37.84375 58.9375 
Q 42 54.796875 42 48.296875 
Q 42 43.796875 39.296875 39.75 
Q 36.59375 35.703125 32.09375 33.296875 
Q 37.5 30.796875 40.796875 26.140625 
Q 44.09375 21.5 44.09375 16.09375 
Q 44.09375 11.296875 41.75 7.390625 
Q 39.40625 3.5 35.046875 1.25 
Q 30.703125 -1 25 -1 
z
M 26.703125 35.796875 
Q 30.40625 37.90625 32.796875 41.25 
Q 35.203125 44.59375 35.203125 48.09375 
Q 35.203125 51.90625 32.59375 54.546875 
Q 30 57.203125 25.296875 57.203125 
Q 20.59375 57.203125 18.140625 54.640625 
Q 15.703125 52.09375 15.703125 48.40625 
Q 15.703125 44.203125 18.390625 41.5 
Q 21.09375 38.796875 26.703125 35.796875 
z
M 25.203125 5.296875 
Q 30.796875 5.296875 33.890625 8.34375 
Q 37 11.40625 37 16.09375 
Q 37 20.703125 33.390625 24.546875 
Q 29.796875 28.40625 23.703125 30.296875 
Q 19.09375 28.40625 16.140625 24.59375 
Q 13.203125 20.796875 13.203125 16.40625 
Q 13.203125 11.703125 16.453125 8.5 
Q 19.703125 5.296875 25.203125 5.296875 
z
" id="Inconsolata-Regular-56"/>
      </defs>
      <g style="fill:#555555;" transform="translate(251 202.65)scale(0.1 -0.1)">
       <use xlink:href="#Inconsolata-Regular-50"/>
       <use x="49.999985" xlink:href="#Inconsolata-Regular-48"/>
       <use x="99.999969" xlink:href="#Inconsolata-Regular-50"/>
       <use x="149.999954" xlink:href="#Inconsolata-Regular-48"/>
       <use x="199.999939" xlink:href="#Inconsolata-Regular-45"/>
       <use x="249.999924" xlink:href="#Inconsolata-Regular-48"/>
       <use x="299.999908" xlink:href="#Inconsolata-Regular-52"/>
       <use x="349.999893" xlink:href="#Inconsolata-Regular-45"/>
       <use x="399.999878" xlink:href="#Inconsolata-Regular-50"/>
       <use x="449.999863" xlink:href="#Inconsolata-Regular-56"/>
      </g>
     </g>
    </g>
    <g id="xtick_4">
     <g id="line2d_7">
      <path clip-path="url(#p15b6856f92)" d="M 369 189 
L 369 25.92 
" style="fill:none;stroke:#ffffff;stroke-linecap:square;stroke-width:0.8;"/>
     </g>
     <g id="line2d_8">
      <g>
       <use style="fill:#555555;stroke:#555555;stroke-width:0.8;" x="369" xlink:href="#m9079e206ae" y="189"/>
      </g>
     </g>
     <g id="text_4">
      <!-- 2020-04-29 -->
      <defs>
       <path d="M 24.703125 62.703125 
Q 30.5 62.703125 34.84375 59.34375 
Q 39.203125 56 41.546875 50 
Q 43.90625 44 43.90625 36.296875 
Q 43.90625 17.90625 38.40625 8.546875 
Q 32.90625 -0.796875 22.796875 -1 
Q 13.796875 -1 7.90625 4.703125 
L 12.203125 9.59375 
L 12.296875 9.703125 
L 12.40625 9.59375 
Q 14.5 7.09375 16.703125 6.046875 
Q 18.90625 5 22.203125 5 
Q 29 5 32.703125 11.59375 
Q 36.40625 18.203125 37.09375 28.09375 
Q 34.59375 25.90625 31.640625 24.75 
Q 28.703125 23.59375 24.90625 23.59375 
Q 19.796875 23.59375 15.640625 26 
Q 11.5 28.40625 9.140625 32.65625 
Q 6.796875 36.90625 6.796875 42.40625 
Q 6.796875 48.09375 9.1875 52.75 
Q 11.59375 57.40625 15.6875 60.046875 
Q 19.796875 62.703125 24.703125 62.703125 
z
M 25 29.703125 
Q 29.203125 29.703125 32.046875 30.890625 
Q 34.90625 32.09375 37.203125 34.90625 
Q 36.796875 45.90625 33.84375 51.25 
Q 30.90625 56.59375 25 56.59375 
Q 19.796875 56.59375 16.6875 52.796875 
Q 13.59375 49 13.59375 42.5 
Q 13.59375 36.703125 16.890625 33.203125 
Q 20.203125 29.703125 25 29.703125 
z
M 13.40625 9.90625 
Q 13.40625 9.203125 12.5 9.90625 
L 12.90625 10.40625 
L 13.40625 9.90625 
z
M 12.296875 9.703125 
Q 11.703125 10.40625 12.5 9.90625 
L 12.296875 9.703125 
z
" id="Inconsolata-Regular-57"/>
      </defs>
      <g style="fill:#555555;" transform="translate(344 202.65)scale(0.1 -0.1)">
       <use xlink:href="#Inconsolata-Regular-50"/>
       <use x="49.999985" xlink:href="#Inconsolata-Regular-48"/>
       <use x="99.999969" xlink:href="#Inconsolata-Regular-50"/>
       <use x="149.999954" xlink:href="#Inconsolata-Regular-48"/>
       <use x="199.999939" xlink:href="#Inconsolata-Regular-45"/>
       <use x="249.999924" xlink:href="#Inconsolata-Regular-48"/>
       <use x="299.999908" xlink:href="#Inconsolata-Regular-52"/>
       <use x="349.999893" xlink:href="#Inconsolata-Regular-45"/>
       <use x="399.999878" xlink:href="#Inconsolata-Regular-50"/>
       <use x="449.999863" xlink:href="#Inconsolata-Regular-57"/>
      </g>
     </g>
    </g>
    <g id="xtick_5">
     <g id="line2d_9">
      <path clip-path="url(#p15b6856f92)" d="M 462 189 
L 462 25.92 
" style="fill:none;stroke:#ffffff;stroke-linecap:square;stroke-width:0.8;"/>
     </g>
     <g id="line2d_10">
      <g>
       <use style="fill:#555555;stroke:#555555;stroke-width:0.8;" x="462" xlink:href="#m9079e206ae" y="189"/>
      </g>
     </g>
     <g id="text_5">
      <!-- 2020-04-30 -->
      <defs>
       <path d="M 30.796875 33 
Q 36.296875 31.203125 39.5 27.203125 
Q 42.703125 23.203125 42.703125 17.09375 
Q 42.703125 12.09375 40.5 7.9375 
Q 38.296875 3.796875 34.09375 1.34375 
Q 29.90625 -1.09375 24 -1.09375 
Q 19 -1.09375 14.546875 0.703125 
Q 10.09375 2.5 6.90625 6 
L 11.5 11.5 
L 11.59375 11.59375 
L 11.703125 11.5 
Q 14.203125 8.296875 16.84375 6.59375 
Q 19.5 4.90625 23.703125 4.90625 
Q 29.5 4.90625 32.5 8.296875 
Q 35.5 11.703125 35.5 17.40625 
Q 35.5 23.59375 31.75 26.6875 
Q 28 29.796875 21.203125 29.796875 
Q 20.203125 29.796875 18 29.59375 
L 18 35.203125 
Q 26.90625 35.203125 30.15625 38.5 
Q 33.40625 41.796875 33.40625 47.5 
Q 33.40625 51.703125 30.953125 54.203125 
Q 28.5 56.703125 24.5 56.703125 
Q 18 56.703125 13.09375 52.09375 
L 8.90625 56.296875 
Q 15 62.703125 24.40625 62.703125 
Q 31.90625 62.703125 36.25 58.453125 
Q 40.59375 54.203125 40.59375 47.203125 
Q 40.59375 42.09375 38.09375 38.296875 
Q 35.59375 34.5 30.796875 33 
z
M 12.703125 11.796875 
Q 12.703125 11.5 12.390625 11.546875 
Q 12.09375 11.59375 11.796875 11.796875 
L 12.203125 12.296875 
L 12.703125 11.796875 
z
M 11.59375 11.59375 
Q 11.203125 12.296875 11.453125 12.09375 
Q 11.703125 11.90625 11.796875 11.796875 
L 11.59375 11.59375 
z
" id="Inconsolata-Regular-51"/>
      </defs>
      <g style="fill:#555555;" transform="translate(437 202.65)scale(0.1 -0.1)">
       <use xlink:href="#Inconsolata-Regular-50"/>
       <use x="49.999985" xlink:href="#Inconsolata-Regular-48"/>
       <use x="99.999969" xlink:href="#Inconsolata-Regular-50"/>
       <use x="149.999954" xlink:href="#Inconsolata-Regular-48"/>
       <use x="199.999939" xlink:href="#Inconsolata-Regular-45"/>
       <use x="249.999924" xlink:href="#Inconsolata-Regular-48"/>
       <use x="299.999908" xlink:href="#Inconsolata-Regular-52"/>
       <use x="349.999893" xlink:href="#Inconsolata-Regular-45"/>
       <use x="399.999878" xlink:href="#Inconsolata-Regular-51"/>
       <use x="449.999863" xlink:href="#Inconsolata-Regular-48"/>
      </g>
     </g>
    </g>
    <g id="xtick_6">
     <g id="line2d_11">
      <path clip-path="url(#p15b6856f92)" d="M 555 189 
L 555 25.92 
" style="fill:none;stroke:#ffffff;stroke-linecap:square;stroke-width:0.8;"/>
     </g>
     <g id="line2d_12">
      <g>
       <use style="fill:#555555;stroke:#555555;stroke-width:0.8;" x="555" xlink:href="#m9079e206ae" y="189"/>
      </g>
     </g>
     <g id="text_6">
      <!-- 2020-05-01 -->
      <defs>
       <path d="M 25.703125 40.5 
Q 31.09375 40.5 35.34375 37.953125 
Q 39.59375 35.40625 42.046875 30.65625 
Q 44.5 25.90625 44.5 19.59375 
Q 44.5 13.296875 41.953125 8.59375 
Q 39.40625 3.90625 34.953125 1.40625 
Q 30.5 -1.09375 24.90625 -1.09375 
Q 19.203125 -1.09375 14.34375 1.40625 
Q 9.5 3.90625 6.40625 8.5 
L 12 12.703125 
L 12.09375 12.796875 
Q 12.203125 12.796875 12.203125 12.75 
Q 12.203125 12.703125 12.203125 12.703125 
Q 14.796875 8.703125 17.6875 6.84375 
Q 20.59375 5 25.296875 5 
Q 28.5 5 31.296875 6.84375 
Q 34.09375 8.703125 35.75 12.046875 
Q 37.40625 15.40625 37.40625 19.90625 
Q 37.40625 26.703125 33.75 30.703125 
Q 30.09375 34.703125 24.59375 34.703125 
Q 21.40625 34.703125 18.296875 33.140625 
Q 15.203125 31.59375 12.90625 28.796875 
L 8.5 30.59375 
L 10.59375 62.296875 
L 42.203125 62.296875 
L 42.203125 56 
L 16.5 56 
L 15.5 38.09375 
Q 20.40625 40.5 25.703125 40.5 
z
M 12.09375 12.796875 
Q 11.59375 13.59375 12.296875 12.90625 
L 12.09375 12.796875 
z
M 13.203125 12.796875 
Q 13.203125 12.203125 12.296875 12.90625 
L 12.796875 13.296875 
L 13.203125 12.796875 
z
" id="Inconsolata-Regular-53"/>
       <path d="M 23 0 
L 23 53.703125 
L 10.40625 50 
L 8.796875 53.90625 
L 25.09375 62.40625 
L 30 62.40625 
L 30 0 
z
" id="Inconsolata-Regular-49"/>
      </defs>
      <g style="fill:#555555;" transform="translate(530 202.65)scale(0.1 -0.1)">
       <use xlink:href="#Inconsolata-Regular-50"/>
       <use x="49.999985" xlink:href="#Inconsolata-Regular-48"/>
       <use x="99.999969" xlink:href="#Inconsolata-Regular-50"/>
       <use x="149.999954" xlink:href="#Inconsolata-Regular-48"/>
       <use x="199.999939" xlink:href="#Inconsolata-Regular-45"/>
       <use x="249.999924" xlink:href="#Inconsolata-Regular-48"/>
       <use x="299.999908" xlink:href="#Inconsolata-Regular-53"/>
       <use x="349.999893" xlink:href="#Inconsolata-Regular-45"/>
       <use x="399.999878" xlink:href="#Inconsolata-Regular-48"/>
       <use x="449.999863" xlink:href="#Inconsolata-Regular-49"/>
      </g>
     </g>
    </g>
    <g id="xtick_7">
     <g id="line2d_13">
      <path clip-path="url(#p15b6856f92)" d="M 648 189 
L 648 25.92 
" style="fill:none;stroke:#ffffff;stroke-linecap:square;stroke-width:0.8;"/>
     </g>
     <g id="line2d_14">
      <g>
       <use style="fill:#555555;stroke:#555555;stroke-width:0.8;" x="648" xlink:href="#m9079e206ae" y="189"/>
      </g>
     </g>
     <g id="text_7">
      <!-- 2020-05-02 -->
      <g style="fill:#555555;" transform="translate(623 202.65)scale(0.1 -0.1)">
       <use xlink:href="#Inconsolata-Regular-50"/>
       <use x="49.999985" xlink:href="#Inconsolata-Regular-48"/>
       <use x="99.999969" xlink:href="#Inconsolata-Regular-50"/>
       <use x="149.999954" xlink:href="#Inconsolata-Regular-48"/>
       <use x="199.999939" xlink:href="#Inconsolata-Regular-45"/>
       <use x="249.999924" xlink:href="#Inconsolata-Regular-48"/>
       <use x="299.999908" xlink:href="#Inconsolata-Regular-53"/>
       <use x="349.999893" xlink:href="#Inconsolata-Regular-45"/>
       <use x="399.999878" xlink:href="#Inconsolata-Regular-48"/>
       <use x="449.999863" xlink:href="#Inconsolata-Regular-50"/>
      </g>
     </g>
    </g>
   </g>
   <g id="matplotlib.axis_2">
    <g id="ytick_1">
     <g id="line2d_15">
      <path clip-path="url(#p15b6856f92)" d="M 90 189 
L 648 189 
" style="fill:none;stroke:#ffffff;stroke-linecap:square;stroke-width:0.8;"/>
     </g>
     <g id="line2d_16">
      <defs>
       <path d="M 0 0 
L -3.5 0 
" id="mb6ba753646" style="stroke:#555555;stroke-width:0.8;"/>
      </defs>
      <g>
       <use style="fill:#555555;stroke:#555555;stroke-width:0.8;" x="90" xlink:href="#mb6ba753646" y="189"/>
      </g>
     </g>
     <g id="line2d_17">
      <defs>
       <path d="M 0 0 
L 3.5 0 
" id="m4d3e3fabba" style="stroke:#555555;stroke-width:0.8;"/>
      </defs>
      <g>
       <use style="fill:#555555;stroke:#555555;stroke-width:0.8;" x="648" xlink:href="#m4d3e3fabba" y="189"/>
      </g>
     </g>
     <g id="text_8">
      <!-- 0 -->
      <g style="fill:#555555;" transform="translate(78 192.325)scale(0.1 -0.1)">
       <use xlink:href="#Inconsolata-Regular-48"/>
      </g>
     </g>
     <g id="text_9">
      <!-- 0 -->
      <g style="fill:#555555;" transform="translate(655 192.325)scale(0.1 -0.1)">
       <use xlink:href="#Inconsolata-Regular-48"/>
      </g>
     </g>
    </g>
    <g id="ytick_2">
     <g id="line2d_18">
      <path clip-path="url(#p15b6856f92)" d="M 90 168.615 
L 648 168.615 
" style="fill:none;stroke:#ffffff;stroke-linecap:square;stroke-width:0.8;"/>
     </g>
     <g id="line2d_19">
      <g>
       <use style="fill:#555555;stroke:#555555;stroke-width:0.8;" x="90" xlink:href="#mb6ba753646" y="168.615"/>
      </g>
     </g>
     <g id="line2d_20">
      <g>
       <use style="fill:#555555;stroke:#555555;stroke-width:0.8;" x="648" xlink:href="#m4d3e3fabba" y="168.615"/>
      </g>
     </g>
     <g id="text_10">
      <!-- 250 -->
      <g style="fill:#555555;" transform="translate(68 171.94)scale(0.1 -0.1)">
       <use xlink:href="#Inconsolata-Regular-50"/>
       <use x="49.999985" xlink:href="#Inconsolata-Regular-53"/>
       <use x="99.999969" xlink:href="#Inconsolata-Regular-48"/>
      </g>
     </g>
     <g id="text_11">
      <!-- 250 -->
      <g style="fill:#555555;" transform="translate(655 171.94)scale(0.1 -0.1)">
       <use xlink:href="#Inconsolata-Regular-50"/>
       <use x="49.999985" xlink:href="#Inconsolata-Regular-53"/>
       <use x="99.999969" xlink:href="#Inconsolata-Regular-48"/>
      </g>
     </g>
    </g>
    <g id="ytick_3">
     <g id="line2d_21">
      <path clip-path="url(#p15b6856f92)" d="M 90 148.23 
L 648 148.23 
" style="fill:none;stroke:#ffffff;stroke-linecap:square;stroke-width:0.8;"/>
     </g>
     <g id="line2d_22">
      <g>
       <use style="fill:#555555;stroke:#555555;stroke-width:0.8;" x="90" xlink:href="#mb6ba753646" y="148.23"/>
      </g>
     </g>
     <g id="line2d_23">
      <g>
       <use style="fill:#555555;stroke:#555555;stroke-width:0.8;" x="648" xlink:href="#m4d3e3fabba" y="148.23"/>
      </g>
     </g>
     <g id="text_12">
      <!-- 500 -->
      <g style="fill:#555555;" transform="translate(68 151.555)scale(0.1 -0.1)">
       <use xlink:href="#Inconsolata-Regular-53"/>
       <use x="49.999985" xlink:href="#Inconsolata-Regular-48"/>
       <use x="99.999969" xlink:href="#Inconsolata-Regular-48"/>
      </g>
     </g>
     <g id="text_13">
      <!-- 500 -->
      <g style="fill:#555555;" transform="translate(655 151.555)scale(0.1 -0.1)">
       <use xlink:href="#Inconsolata-Regular-53"/>
       <use x="49.999985" xlink:href="#Inconsolata-Regular-48"/>
       <use x="99.999969" xlink:href="#Inconsolata-Regular-48"/>
      </g>
     </g>
    </g>
    <g id="ytick_4">
     <g id="line2d_24">
      <path clip-path="url(#p15b6856f92)" d="M 90 127.845 
L 648 127.845 
" style="fill:none;stroke:#ffffff;stroke-linecap:square;stroke-width:0.8;"/>
     </g>
     <g id="line2d_25">
      <g>
       <use style="fill:#555555;stroke:#555555;stroke-width:0.8;" x="90" xlink:href="#mb6ba753646" y="127.845"/>
      </g>
     </g>
     <g id="line2d_26">
      <g>
       <use style="fill:#555555;stroke:#555555;stroke-width:0.8;" x="648" xlink:href="#m4d3e3fabba" y="127.845"/>
      </g>
     </g>
     <g id="text_14">
      <!-- 750 -->
      <g style="fill:#555555;" transform="translate(68 131.17)scale(0.1 -0.1)">
       <use xlink:href="#Inconsolata-Regular-55"/>
       <use x="49.999985" xlink:href="#Inconsolata-Regular-53"/>
       <use x="99.999969" xlink:href="#Inconsolata-Regular-48"/>
      </g>
     </g>
     <g id="text_15">
      <!-- 750 -->
      <g style="fill:#555555;" transform="translate(655 131.17)scale(0.1 -0.1)">
       <use xlink:href="#Inconsolata-Regular-55"/>
       <use x="49.999985" xlink:href="#Inconsolata-Regular-53"/>
       <use x="99.999969" xlink:href="#Inconsolata-Regular-48"/>
      </g>
     </g>
    </g>
    <g id="ytick_5">
     <g id="line2d_27">
      <path clip-path="url(#p15b6856f92)" d="M 90 107.46 
L 648 107.46 
" style="fill:none;stroke:#ffffff;stroke-linecap:square;stroke-width:0.8;"/>
     </g>
     <g id="line2d_28">
      <g>
       <use style="fill:#555555;stroke:#555555;stroke-width:0.8;" x="90" xlink:href="#mb6ba753646" y="107.46"/>
      </g>
     </g>
     <g id="line2d_29">
      <g>
       <use style="fill:#555555;stroke:#555555;stroke-width:0.8;" x="648" xlink:href="#m4d3e3fabba" y="107.46"/>
      </g>
     </g>
     <g id="text_16">
      <!-- 1000 -->
      <g style="fill:#555555;" transform="translate(63 110.785)scale(0.1 -0.1)">
       <use xlink:href="#Inconsolata-Regular-49"/>
       <use x="49.999985" xlink:href="#Inconsolata-Regular-48"/>
       <use x="99.999969" xlink:href="#Inconsolata-Regular-48"/>
       <use x="149.999954" xlink:href="#Inconsolata-Regular-48"/>
      </g>
     </g>
     <g id="text_17">
      <!-- 1000 -->
      <g style="fill:#555555;" transform="translate(655 110.785)scale(0.1 -0.1)">
       <use xlink:href="#Inconsolata-Regular-49"/>
       <use x="49.999985" xlink:href="#Inconsolata-Regular-48"/>
       <use x="99.999969" xlink:href="#Inconsolata-Regular-48"/>
       <use x="149.999954" xlink:href="#Inconsolata-Regular-48"/>
      </g>
     </g>
    </g>
    <g id="ytick_6">
     <g id="line2d_30">
      <path clip-path="url(#p15b6856f92)" d="M 90 87.075 
L 648 87.075 
" style="fill:none;stroke:#ffffff;stroke-linecap:square;stroke-width:0.8;"/>
     </g>
     <g id="line2d_31">
      <g>
       <use style="fill:#555555;stroke:#555555;stroke-width:0.8;" x="90" xlink:href="#mb6ba753646" y="87.075"/>
      </g>
     </g>
     <g id="line2d_32">
      <g>
       <use style="fill:#555555;stroke:#555555;stroke-width:0.8;" x="648" xlink:href="#m4d3e3fabba" y="87.075"/>
      </g>
     </g>
     <g id="text_18">
      <!-- 1250 -->
      <g style="fill:#555555;" transform="translate(63 90.4)scale(0.1 -0.1)">
       <use xlink:href="#Inconsolata-Regular-49"/>
       <use x="49.999985" xlink:href="#Inconsolata-Regular-50"/>
       <use x="99.999969" xlink:href="#Inconsolata-Regular-53"/>
       <use x="149.999954" xlink:href="#Inconsolata-Regular-48"/>
      </g>
     </g>
     <g id="text_19">
      <!-- 1250 -->
      <g style="fill:#555555;" transform="translate(655 90.4)scale(0.1 -0.1)">
       <use xlink:href="#Inconsolata-Regular-49"/>
       <use x="49.999985" xlink:href="#Inconsolata-Regular-50"/>
       <use x="99.999969" xlink:href="#Inconsolata-Regular-53"/>
       <use x="149.999954" xlink:href="#Inconsolata-Regular-48"/>
      </g>
     </g>
    </g>
    <g id="ytick_7">
     <g id="line2d_33">
      <path clip-path="url(#p15b6856f92)" d="M 90 66.69 
L 648 66.69 
" style="fill:none;stroke:#ffffff;stroke-linecap:square;stroke-width:0.8;"/>
     </g>
     <g id="line2d_34">
      <g>
       <use style="fill:#555555;stroke:#555555;stroke-width:0.8;" x="90" xlink:href="#mb6ba753646" y="66.69"/>
      </g>
     </g>
     <g id="line2d_35">
      <g>
       <use style="fill:#555555;stroke:#555555;stroke-width:0.8;" x="648" xlink:href="#m4d3e3fabba" y="66.69"/>
      </g>
     </g>
     <g id="text_20">
      <!-- 1500 -->
      <g style="fill:#555555;" transform="translate(63 70.015)scale(0.1 -0.1)">
       <use xlink:href="#Inconsolata-Regular-49"/>
       <use x="49.999985" xlink:href="#Inconsolata-Regular-53"/>
       <use x="99.999969" xlink:href="#Inconsolata-Regular-48"/>
       <use x="149.999954" xlink:href="#Inconsolata-Regular-48"/>
      </g>
     </g>
     <g id="text_21">
      <!-- 1500 -->
      <g style="fill:#555555;" transform="translate(655 70.015)scale(0.1 -0.1)">
       <use xlink:href="#Inconsolata-Regular-49"/>
       <use x="49.999985" xlink:href="#Inconsolata-Regular-53"/>
       <use x="99.999969" xlink:href="#Inconsolata-Regular-48"/>
       <use x="149.999954" xlink:href="#Inconsolata-Regular-48"/>
      </g>
     </g>
    </g>
    <g id="ytick_8">
     <g id="line2d_36">
      <path clip-path="url(#p15b6856f92)" d="M 90 46.305 
L 648 46.305 
" style="fill:none;stroke:#ffffff;stroke-linecap:square;stroke-width:0.8;"/>
     </g>
     <g id="line2d_37">
      <g>
       <use style="fill:#555555;stroke:#555555;stroke-width:0.8;" x="90" xlink:href="#mb6ba753646" y="46.305"/>
      </g>
     </g>
     <g id="line2d_38">
      <g>
       <use style="fill:#555555;stroke:#555555;stroke-width:0.8;" x="648" xlink:href="#m4d3e3fabba" y="46.305"/>
      </g>
     </g>
     <g id="text_22">
      <!-- 1750 -->
      <g style="fill:#555555;" transform="translate(63 49.63)scale(0.1 -0.1)">
       <use xlink:href="#Inconsolata-Regular-49"/>
       <use x="49.999985" xlink:href="#Inconsolata-Regular-55"/>
       <use x="99.999969" xlink:href="#Inconsolata-Regular-53"/>
       <use x="149.999954" xlink:href="#Inconsolata-Regular-48"/>
      </g>
     </g>
     <g id="text_23">
      <!-- 1750 -->
      <g style="fill:#555555;" transform="translate(655 49.63)scale(0.1 -0.1)">
       <use xlink:href="#Inconsolata-Regular-49"/>
       <use x="49.999985" xlink:href="#Inconsolata-Regular-55"/>
       <use x="99.999969" xlink:href="#Inconsolata-Regular-53"/>
       <use x="149.999954" xlink:href="#Inconsolata-Regular-48"/>
      </g>
     </g>
    </g>
    <g id="ytick_9">
     <g id="line2d_39">
      <path clip-path="url(#p15b6856f92)" d="M 90 25.92 
L 648 25.92 
" style="fill:none;stroke:#ffffff;stroke-linecap:square;stroke-width:0.8;"/>
     </g>
     <g id="line2d_40">
      <g>
       <use style="fill:#555555;stroke:#555555;stroke-width:0.8;" x="90" xlink:href="#mb6ba753646" y="25.92"/>
      </g>
     </g>
     <g id="line2d_41">
      <g>
       <use style="fill:#555555;stroke:#555555;stroke-width:0.8;" x="648" xlink:href="#m4d3e3fabba" y="25.92"/>
      </g>
     </g>
     <g id="text_24">
      <!-- 2000 -->
      <g style="fill:#555555;" transform="translate(63 29.245)scale(0.1 -0.1)">
       <use xlink:href="#Inconsolata-Regular-50"/>
       <use x="49.999985" xlink:href="#Inconsolata-Regular-48"/>
       <use x="99.999969" xlink:href="#Inconsolata-Regular-48"/>
       <use x="149.999954" xlink:href="#Inconsolata-Regular-48"/>
      </g>
     </g>
     <g id="text_25">
      <!-- 2000 -->
      <g style="fill:#555555;" transform="translate(655 29.245)scale(0.1 -0.1)">
       <use xlink:href="#Inconsolata-Regular-50"/>
       <use x="49.999985" xlink:href="#Inconsolata-Regular-48"/>
       <use x="99.999969" xlink:href="#Inconsolata-Regular-48"/>
       <use x="149.999954" xlink:href="#Inconsolata-Regular-48"/>
      </g>
     </g>
    </g>
    <g id="text_26">
     <!-- daily change -->
     <defs>
      <path d="M 23.40625 -1 
Q 18.5 -1 14.203125 1.75 
Q 9.90625 4.5 7.203125 10 
Q 4.5 15.5 4.5 23.296875 
Q 4.5 31.203125 7.296875 36.5 
Q 10.09375 41.796875 14.5 44.34375 
Q 18.90625 46.90625 23.796875 46.90625 
Q 28.40625 46.90625 31.84375 44.796875 
Q 35.296875 42.703125 37.09375 39 
L 37.09375 66.5 
L 44.703125 66.5 
L 44.703125 65.796875 
Q 44.09375 65.203125 43.9375 64.5 
Q 43.796875 63.796875 43.796875 62.09375 
L 43.90625 7.09375 
Q 43.90625 4.703125 44.046875 3.140625 
Q 44.203125 1.59375 44.90625 0 
L 37.796875 0 
Q 37.09375 1.59375 36.9375 3.140625 
Q 36.796875 4.703125 36.796875 7.09375 
Q 34.59375 3.296875 31.140625 1.140625 
Q 27.703125 -1 23.40625 -1 
z
M 24.5 5.296875 
Q 30.703125 5.296875 33.59375 10.1875 
Q 36.5 15.09375 36.5 23.09375 
Q 36.5 31.203125 33.34375 36.09375 
Q 30.203125 41 23.90625 41 
Q 17.90625 41 14.703125 36.546875 
Q 11.5 32.09375 11.5 24.40625 
Q 11.5 15.59375 14.84375 10.4375 
Q 18.203125 5.296875 24.5 5.296875 
z
" id="Inconsolata-Regular-100"/>
      <path d="M 24.40625 46.703125 
Q 34.203125 46.703125 39.34375 41.59375 
Q 44.5 36.5 44.5 24.296875 
L 44.5 0 
L 36.703125 0 
L 36.703125 7 
Q 32.5 -1.09375 21.09375 -1.09375 
Q 13.5 -1.09375 9.203125 2.34375 
Q 4.90625 5.796875 4.90625 11.5 
Q 4.90625 16.296875 8 19.890625 
Q 11.09375 23.5 16.34375 25.453125 
Q 21.59375 27.40625 27.90625 27.40625 
Q 33.59375 27.40625 38.203125 26.796875 
Q 37.59375 34.5 34.140625 37.640625 
Q 30.703125 40.796875 23.90625 40.796875 
Q 20.5 40.796875 17.34375 39.5 
Q 14.203125 38.203125 11.59375 35.703125 
L 8.09375 40.296875 
Q 14.5 46.703125 24.40625 46.703125 
z
M 21.796875 4.40625 
Q 29.203125 4.40625 33.5 8.75 
Q 37.796875 13.09375 38.203125 21.296875 
Q 33.703125 22 28.5 22 
Q 20.90625 22 16.5 19.5 
Q 12.09375 17 12.09375 11.90625 
Q 12.09375 4.40625 21.796875 4.40625 
z
" id="Inconsolata-Regular-97"/>
      <path d="M 10 0 
L 10 5.796875 
L 21.703125 5.796875 
L 21.703125 39.90625 
L 10.59375 39.90625 
L 10.59375 45.703125 
L 28.90625 45.703125 
L 28.90625 5.796875 
L 39.59375 5.796875 
L 39.59375 0 
z
M 24.90625 55.296875 
Q 22.796875 55.296875 21.296875 56.796875 
Q 19.796875 58.296875 19.796875 60.40625 
Q 19.796875 62.59375 21.25 64.09375 
Q 22.703125 65.59375 24.90625 65.59375 
Q 27 65.59375 28.546875 64.046875 
Q 30.09375 62.5 30.09375 60.40625 
Q 30.09375 58.296875 28.546875 56.796875 
Q 27 55.296875 24.90625 55.296875 
z
" id="Inconsolata-Regular-105"/>
      <path d="M 7.90625 0 
L 7.90625 5.796875 
L 21.40625 5.796875 
L 21.40625 60.703125 
L 8.5 60.703125 
L 8.5 66.5 
L 28.703125 66.5 
L 28.703125 5.796875 
L 42.09375 5.796875 
L 42.09375 0 
z
" id="Inconsolata-Regular-108"/>
      <path d="M 44.296875 45.703125 
Q 43.703125 41.59375 42.453125 37.59375 
Q 41.203125 33.59375 38.90625 27 
L 27.5 -5.203125 
Q 25.203125 -11.59375 21.5 -14.5 
Q 17.796875 -17.40625 12.703125 -17.40625 
Q 6.296875 -17.40625 2.203125 -13.5 
L 5.296875 -8.59375 
L 5.40625 -8.5 
L 5.5 -8.59375 
Q 7.09375 -10.09375 8.890625 -10.796875 
Q 10.703125 -11.5 13.09375 -11.5 
Q 16.796875 -11.5 19 -8.890625 
Q 21.203125 -6.296875 23.296875 -0.296875 
L 4.59375 45.703125 
L 12.09375 45.703125 
L 26.296875 9.09375 
L 32.296875 27.5 
Q 34.5 34.40625 35.546875 38.046875 
Q 36.59375 41.703125 37.09375 45.703125 
z
M 6.5 -8.203125 
Q 6.5 -8.40625 6.296875 -8.40625 
L 5.5 -8.203125 
L 5.90625 -7.703125 
L 6.5 -8.09375 
z
M 5.40625 -8.5 
Q 4.90625 -8 5.15625 -8.09375 
Q 5.40625 -8.203125 5.5 -8.203125 
L 5.40625 -8.5 
z
" id="Inconsolata-Regular-121"/>
      <path id="Inconsolata-Regular-32"/>
      <path d="M 28.90625 5.40625 
Q 35.796875 5.40625 40.796875 11 
L 45 6.09375 
Q 38.296875 -1.09375 28.5 -1.09375 
Q 21.90625 -1.09375 16.703125 2 
Q 11.5 5.09375 8.546875 10.546875 
Q 5.59375 16 5.59375 22.796875 
Q 5.59375 29.59375 8.546875 35 
Q 11.5 40.40625 16.703125 43.5 
Q 21.90625 46.59375 28.40625 46.59375 
Q 33.90625 46.59375 38.40625 44.34375 
Q 42.90625 42.09375 45.703125 38.09375 
L 41.203125 33.703125 
L 41.09375 33.59375 
Q 38.203125 37.40625 35.140625 38.953125 
Q 32.09375 40.5 27.59375 40.5 
Q 23.703125 40.5 20.34375 38.34375 
Q 17 36.203125 15 32.296875 
Q 13 28.40625 13 23.296875 
Q 13 18.203125 15.046875 14.09375 
Q 17.09375 10 20.75 7.703125 
Q 24.40625 5.40625 28.90625 5.40625 
z
M 40 33.5 
Q 40 34.09375 40.90625 33.40625 
L 40.5 33 
L 40 33.5 
z
M 41.09375 33.59375 
Q 41.59375 32.90625 41.34375 33.09375 
Q 41.09375 33.296875 40.90625 33.40625 
L 41.09375 33.59375 
z
" id="Inconsolata-Regular-99"/>
      <path d="M 7.296875 66.5 
L 15.203125 66.5 
L 15.203125 65.796875 
Q 14.59375 65.203125 14.4375 64.5 
Q 14.296875 63.796875 14.296875 62.09375 
L 14.296875 37.59375 
Q 17 41.796875 21.046875 44.296875 
Q 25.09375 46.796875 29.296875 46.796875 
Q 35.796875 46.796875 39.5 42.1875 
Q 43.203125 37.59375 43.203125 27.703125 
L 43.203125 0 
L 36.203125 0 
L 36.203125 27.5 
Q 36.203125 34.296875 33.890625 37.390625 
Q 31.59375 40.5 27.796875 40.5 
Q 24.59375 40.5 21.5 38.75 
Q 18.40625 37 16.34375 33.75 
Q 14.296875 30.5 14.296875 26.296875 
L 14.296875 0 
L 7.296875 0 
z
" id="Inconsolata-Regular-104"/>
      <path d="M 7.203125 45.703125 
L 14.203125 45.703125 
L 14.203125 37.59375 
Q 16.90625 41.796875 21 44.296875 
Q 25.09375 46.796875 29.703125 46.796875 
Q 35.796875 46.796875 39.4375 42.140625 
Q 43.09375 37.5 43.09375 27.703125 
L 43.09375 0 
L 36.09375 0 
L 36.09375 27.5 
Q 36.09375 34.296875 33.796875 37.390625 
Q 31.5 40.5 27.703125 40.5 
Q 24.59375 40.5 21.4375 38.703125 
Q 18.296875 36.90625 16.25 33.65625 
Q 14.203125 30.40625 14.203125 26.296875 
L 14.203125 0 
L 7.203125 0 
z
" id="Inconsolata-Regular-110"/>
      <path d="M 47.5 41 
Q 46.59375 41.09375 44.90625 41.09375 
Q 40.09375 41.09375 36.90625 39 
Q 38.59375 35.59375 38.59375 31.5 
Q 38.59375 27 36.640625 23.34375 
Q 34.703125 19.703125 31.046875 17.59375 
Q 27.40625 15.5 22.59375 15.5 
Q 18.796875 15.5 15.5 16.90625 
Q 13.703125 14.703125 13.703125 12.703125 
Q 13.703125 10.296875 16.75 9.25 
Q 19.796875 8.203125 27.703125 8.203125 
Q 37.40625 8.203125 40.953125 5.25 
Q 44.5 2.296875 44.5 -3.40625 
Q 44.5 -9.296875 39.703125 -13.25 
Q 34.90625 -17.203125 24.703125 -17.203125 
Q 14.90625 -17.203125 9.34375 -14.203125 
Q 3.796875 -11.203125 3.796875 -5.40625 
Q 3.796875 -1.796875 5.796875 0.796875 
Q 7.796875 3.40625 10.90625 4.90625 
Q 7.59375 7.09375 7.59375 11 
Q 7.59375 15 11.703125 19.40625 
Q 9.203125 21.59375 7.890625 24.6875 
Q 6.59375 27.796875 6.59375 31.5 
Q 6.59375 35.90625 8.546875 39.546875 
Q 10.5 43.203125 14.140625 45.296875 
Q 17.796875 47.40625 22.59375 47.40625 
Q 29.90625 47.40625 34.296875 42.703125 
Q 36.703125 44.90625 39.25 45.953125 
Q 41.796875 47 44.90625 47 
L 46.59375 46.90625 
L 47.5 41 
z
M 22.59375 21.5 
Q 26.90625 21.5 29.75 24.390625 
Q 32.59375 27.296875 32.59375 31.5 
Q 32.59375 35.703125 29.75 38.59375 
Q 26.90625 41.5 22.59375 41.5 
Q 18.296875 41.5 15.4375 38.59375 
Q 12.59375 35.703125 12.59375 31.5 
Q 12.59375 27.296875 15.4375 24.390625 
Q 18.296875 21.5 22.59375 21.5 
z
M 37.90625 -4.5 
Q 37.90625 -2.09375 37.046875 -0.75 
Q 36.203125 0.59375 33.703125 1.25 
Q 31.203125 1.90625 26.203125 1.90625 
Q 19 1.90625 14.703125 3.203125 
Q 12.296875 1.59375 11.34375 -0.09375 
Q 10.40625 -1.796875 10.40625 -4.59375 
Q 10.40625 -8 14.203125 -9.890625 
Q 18 -11.796875 24.796875 -11.796875 
Q 31.40625 -11.796875 34.65625 -9.84375 
Q 37.90625 -7.90625 37.90625 -4.5 
z
" id="Inconsolata-Regular-103"/>
      <path d="M 27.203125 -1 
Q 17 -1 10.953125 5.203125 
Q 4.90625 11.40625 4.90625 22.703125 
Q 4.90625 30.203125 7.703125 35.640625 
Q 10.5 41.09375 15.25 43.9375 
Q 20 46.796875 25.90625 46.796875 
Q 34.203125 46.796875 39.34375 41.296875 
Q 44.5 35.796875 44.5 25.09375 
Q 44.5 24 44.296875 21.796875 
L 11.796875 21.796875 
Q 12.203125 13.40625 16.5 9.09375 
Q 20.796875 4.796875 27.40625 4.796875 
Q 34.59375 4.796875 39.203125 9.90625 
L 43.203125 6 
Q 37.40625 -1 27.203125 -1 
z
M 37.203125 27.40625 
Q 37.203125 33.796875 33.953125 37.546875 
Q 30.703125 41.296875 25.40625 41.296875 
Q 20.40625 41.296875 16.703125 37.796875 
Q 13 34.296875 12.09375 27.40625 
z
" id="Inconsolata-Regular-101"/>
     </defs>
     <g style="fill:#555555;" transform="translate(56.91125 143.46)rotate(-90)scale(0.12 -0.12)">
      <use xlink:href="#Inconsolata-Regular-100"/>
      <use x="49.999985" xlink:href="#Inconsolata-Regular-97"/>
      <use x="99.999969" xlink:href="#Inconsolata-Regular-105"/>
      <use x="149.999954" xlink:href="#Inconsolata-Regular-108"/>
      <use x="199.999939" xlink:href="#Inconsolata-Regular-121"/>
      <use x="249.999924" xlink:href="#Inconsolata-Regular-32"/>
      <use x="299.999908" xlink:href="#Inconsolata-Regular-99"/>
      <use x="349.999893" xlink:href="#Inconsolata-Regular-104"/>
      <use x="399.999878" xlink:href="#Inconsolata-Regular-97"/>
      <use x="449.999863" xlink:href="#Inconsolata-Regular-110"/>
      <use x="499.999847" xlink:href="#Inconsolata-Regular-103"/>
      <use x="549.999832" xlink:href="#Inconsolata-Regular-101"/>
     </g>
    </g>
   </g>
   <g id="patch_3">
    <path clip-path="url(#p15b6856f92)" d="M -8689.2 189 
L -8614.8 189 
L -8614.8 189 
L -8689.2 189 
z
" style="fill:#348abd;opacity:0.2;"/>
   </g>
   <g id="patch_4">
    <path clip-path="url(#p15b6856f92)" d="M -8596.2 189 
L -8521.8 189 
L -8521.8 189 
L -8596.2 189 
z
" style="fill:#348abd;opacity:0.2;"/>
   </g>
   <g id="patch_5">
    <path clip-path="url(#p15b6856f92)" d="M -8503.2 189 
L -8428.8 189 
L -8428.8 189 
L -8503.2 189 
z
" style="fill:#348abd;opacity:0.2;"/>
   </g>
   <g id="patch_6">
    <path clip-path="url(#p15b6856f92)" d="M -8410.2 189 
L -8335.8 189 
L -8335.8 189 
L -8410.2 189 
z
" style="fill:#348abd;opacity:0.2;"/>
   </g>
   <g id="patch_7">
    <path clip-path="url(#p15b6856f92)" d="M -8317.2 189 
L -8242.8 189 
L -8242.8 188.91846 
L -8317.2 188.91846 
z
" style="fill:#348abd;opacity:0.2;"/>
   </g>
   <g id="patch_8">
    <path clip-path="url(#p15b6856f92)" d="M -8224.2 189 
L -8149.8 189 
L -8149.8 188.75538 
L -8224.2 188.75538 
z
" style="fill:#348abd;opacity:0.2;"/>
   </g>
   <g id="patch_9">
    <path clip-path="url(#p15b6856f92)" d="M -8131.2 189 
L -8056.8 189 
L -8056.8 189 
L -8131.2 189 
z
" style="fill:#348abd;opacity:0.2;"/>
   </g>
   <g id="patch_10">
    <path clip-path="url(#p15b6856f92)" d="M -8038.2 189 
L -7963.8 189 
L -7963.8 189 
L -8038.2 189 
z
" style="fill:#348abd;opacity:0.2;"/>
   </g>
   <g id="patch_11">
    <path clip-path="url(#p15b6856f92)" d="M -7945.2 189 
L -7870.8 189 
L -7870.8 188.91846 
L -7945.2 188.91846 
z
" style="fill:#348abd;opacity:0.2;"/>
   </g>
   <g id="patch_12">
    <path clip-path="url(#p15b6856f92)" d="M -7852.2 189 
L -7777.8 189 
L -7777.8 188.75538 
L -7852.2 188.75538 
z
" style="fill:#348abd;opacity:0.2;"/>
   </g>
   <g id="patch_13">
    <path clip-path="url(#p15b6856f92)" d="M -7759.2 189 
L -7684.8 189 
L -7684.8 188.83692 
L -7759.2 188.83692 
z
" style="fill:#348abd;opacity:0.2;"/>
   </g>
   <g id="patch_14">
    <path clip-path="url(#p15b6856f92)" d="M -7666.2 189 
L -7591.8 189 
L -7591.8 188.83692 
L -7666.2 188.83692 
z
" style="fill:#348abd;opacity:0.2;"/>
   </g>
   <g id="patch_15">
    <path clip-path="url(#p15b6856f92)" d="M -7573.2 189 
L -7498.8 189 
L -7498.8 189 
L -7573.2 189 
z
" style="fill:#348abd;opacity:0.2;"/>
   </g>
   <g id="patch_16">
    <path clip-path="url(#p15b6856f92)" d="M -7480.2 189 
L -7405.8 189 
L -7405.8 189 
L -7480.2 189 
z
" style="fill:#348abd;opacity:0.2;"/>
   </g>
   <g id="patch_17">
    <path clip-path="url(#p15b6856f92)" d="M -7387.2 189 
L -7312.8 189 
L -7312.8 189 
L -7387.2 189 
z
" style="fill:#348abd;opacity:0.2;"/>
   </g>
   <g id="patch_18">
    <path clip-path="url(#p15b6856f92)" d="M -7294.2 189 
L -7219.8 189 
L -7219.8 188.91846 
L -7294.2 188.91846 
z
" style="fill:#348abd;opacity:0.2;"/>
   </g>
   <g id="patch_19">
    <path clip-path="url(#p15b6856f92)" d="M -7201.2 189 
L -7126.8 189 
L -7126.8 189 
L -7201.2 189 
z
" style="fill:#348abd;opacity:0.2;"/>
   </g>
   <g id="patch_20">
    <path clip-path="url(#p15b6856f92)" d="M -7108.2 189 
L -7033.8 189 
L -7033.8 188.91846 
L -7108.2 188.91846 
z
" style="fill:#348abd;opacity:0.2;"/>
   </g>
   <g id="patch_21">
    <path clip-path="url(#p15b6856f92)" d="M -7015.2 189 
L -6940.8 189 
L -6940.8 189 
L -7015.2 189 
z
" style="fill:#348abd;opacity:0.2;"/>
   </g>
   <g id="patch_22">
    <path clip-path="url(#p15b6856f92)" d="M -6922.2 189 
L -6847.8 189 
L -6847.8 188.83692 
L -6922.2 188.83692 
z
" style="fill:#348abd;opacity:0.2;"/>
   </g>
   <g id="patch_23">
    <path clip-path="url(#p15b6856f92)" d="M -6829.2 189 
L -6754.8 189 
L -6754.8 189 
L -6829.2 189 
z
" style="fill:#348abd;opacity:0.2;"/>
   </g>
   <g id="patch_24">
    <path clip-path="url(#p15b6856f92)" d="M -6736.2 189 
L -6661.8 189 
L -6661.8 189 
L -6736.2 189 
z
" style="fill:#348abd;opacity:0.2;"/>
   </g>
   <g id="patch_25">
    <path clip-path="url(#p15b6856f92)" d="M -6643.2 189 
L -6568.8 189 
L -6568.8 189 
L -6643.2 189 
z
" style="fill:#348abd;opacity:0.2;"/>
   </g>
   <g id="patch_26">
    <path clip-path="url(#p15b6856f92)" d="M -6550.2 189 
L -6475.8 189 
L -6475.8 189 
L -6550.2 189 
z
" style="fill:#348abd;opacity:0.2;"/>
   </g>
   <g id="patch_27">
    <path clip-path="url(#p15b6856f92)" d="M -6457.2 189 
L -6382.8 189 
L -6382.8 189 
L -6457.2 189 
z
" style="fill:#348abd;opacity:0.2;"/>
   </g>
   <g id="patch_28">
    <path clip-path="url(#p15b6856f92)" d="M -6364.2 189 
L -6289.8 189 
L -6289.8 189 
L -6364.2 189 
z
" style="fill:#348abd;opacity:0.2;"/>
   </g>
   <g id="patch_29">
    <path clip-path="url(#p15b6856f92)" d="M -6271.2 189 
L -6196.8 189 
L -6196.8 189 
L -6271.2 189 
z
" style="fill:#348abd;opacity:0.2;"/>
   </g>
   <g id="patch_30">
    <path clip-path="url(#p15b6856f92)" d="M -6178.2 189 
L -6103.8 189 
L -6103.8 189 
L -6178.2 189 
z
" style="fill:#348abd;opacity:0.2;"/>
   </g>
   <g id="patch_31">
    <path clip-path="url(#p15b6856f92)" d="M -6085.2 189 
L -6010.8 189 
L -6010.8 189 
L -6085.2 189 
z
" style="fill:#348abd;opacity:0.2;"/>
   </g>
   <g id="patch_32">
    <path clip-path="url(#p15b6856f92)" d="M -5992.2 189 
L -5917.8 189 
L -5917.8 189 
L -5992.2 189 
z
" style="fill:#348abd;opacity:0.2;"/>
   </g>
   <g id="patch_33">
    <path clip-path="url(#p15b6856f92)" d="M -5899.2 189 
L -5824.8 189 
L -5824.8 189 
L -5899.2 189 
z
" style="fill:#348abd;opacity:0.2;"/>
   </g>
   <g id="patch_34">
    <path clip-path="url(#p15b6856f92)" d="M -5806.2 189 
L -5731.8 189 
L -5731.8 189 
L -5806.2 189 
z
" style="fill:#348abd;opacity:0.2;"/>
   </g>
   <g id="patch_35">
    <path clip-path="url(#p15b6856f92)" d="M -5713.2 189 
L -5638.8 189 
L -5638.8 189 
L -5713.2 189 
z
" style="fill:#348abd;opacity:0.2;"/>
   </g>
   <g id="patch_36">
    <path clip-path="url(#p15b6856f92)" d="M -5620.2 189 
L -5545.8 189 
L -5545.8 188.91846 
L -5620.2 188.91846 
z
" style="fill:#348abd;opacity:0.2;"/>
   </g>
   <g id="patch_37">
    <path clip-path="url(#p15b6856f92)" d="M -5527.2 189 
L -5452.8 189 
L -5452.8 188.1846 
L -5527.2 188.1846 
z
" style="fill:#348abd;opacity:0.2;"/>
   </g>
   <g id="patch_38">
    <path clip-path="url(#p15b6856f92)" d="M -5434.2 189 
L -5359.8 189 
L -5359.8 187.45074 
L -5434.2 187.45074 
z
" style="fill:#348abd;opacity:0.2;"/>
   </g>
   <g id="patch_39">
    <path clip-path="url(#p15b6856f92)" d="M -5341.2 189 
L -5266.8 189 
L -5266.8 188.83692 
L -5341.2 188.83692 
z
" style="fill:#348abd;opacity:0.2;"/>
   </g>
   <g id="patch_40">
    <path clip-path="url(#p15b6856f92)" d="M -5248.2 189 
L -5173.8 189 
L -5173.8 186.47226 
L -5248.2 186.47226 
z
" style="fill:#348abd;opacity:0.2;"/>
   </g>
   <g id="patch_41">
    <path clip-path="url(#p15b6856f92)" d="M -5155.2 189 
L -5080.8 189 
L -5080.8 184.84146 
L -5155.2 184.84146 
z
" style="fill:#348abd;opacity:0.2;"/>
   </g>
   <g id="patch_42">
    <path clip-path="url(#p15b6856f92)" d="M -5062.2 189 
L -4987.8 189 
L -4987.8 186.63534 
L -5062.2 186.63534 
z
" style="fill:#348abd;opacity:0.2;"/>
   </g>
   <g id="patch_43">
    <path clip-path="url(#p15b6856f92)" d="M -4969.2 189 
L -4894.8 189 
L -4894.8 185.98302 
L -4969.2 185.98302 
z
" style="fill:#348abd;opacity:0.2;"/>
   </g>
   <g id="patch_44">
    <path clip-path="url(#p15b6856f92)" d="M -4876.2 189 
L -4801.8 189 
L -4801.8 183.61836 
L -4876.2 183.61836 
z
" style="fill:#348abd;opacity:0.2;"/>
   </g>
   <g id="patch_45">
    <path clip-path="url(#p15b6856f92)" d="M -4783.2 189 
L -4708.8 189 
L -4708.8 171.0612 
L -4783.2 171.0612 
z
" style="fill:#348abd;opacity:0.2;"/>
   </g>
   <g id="patch_46">
    <path clip-path="url(#p15b6856f92)" d="M -4690.2 189 
L -4615.8 189 
L -4615.8 173.67048 
L -4690.2 173.67048 
z
" style="fill:#348abd;opacity:0.2;"/>
   </g>
   <g id="patch_47">
    <path clip-path="url(#p15b6856f92)" d="M -4597.2 189 
L -4522.8 189 
L -4522.8 178.48134 
L -4597.2 178.48134 
z
" style="fill:#348abd;opacity:0.2;"/>
   </g>
   <g id="patch_48">
    <path clip-path="url(#p15b6856f92)" d="M -4504.2 189 
L -4429.8 189 
L -4429.8 169.34886 
L -4504.2 169.34886 
z
" style="fill:#348abd;opacity:0.2;"/>
   </g>
   <g id="patch_49">
    <path clip-path="url(#p15b6856f92)" d="M -4411.2 189 
L -4336.8 189 
L -4336.8 177.91056 
L -4411.2 177.91056 
z
" style="fill:#348abd;opacity:0.2;"/>
   </g>
   <g id="patch_50">
    <path clip-path="url(#p15b6856f92)" d="M -4318.2 189 
L -4243.8 189 
L -4243.8 166.08726 
L -4318.2 166.08726 
z
" style="fill:#348abd;opacity:0.2;"/>
   </g>
   <g id="patch_51">
    <path clip-path="url(#p15b6856f92)" d="M -4225.2 189 
L -4150.8 189 
L -4150.8 152.22546 
L -4225.2 152.22546 
z
" style="fill:#348abd;opacity:0.2;"/>
   </g>
   <g id="patch_52">
    <path clip-path="url(#p15b6856f92)" d="M -4132.2 189 
L -4057.8 189 
L -4057.8 175.1382 
L -4132.2 175.1382 
z
" style="fill:#348abd;opacity:0.2;"/>
   </g>
   <g id="patch_53">
    <path clip-path="url(#p15b6856f92)" d="M -4039.2 189 
L -3964.8 189 
L -3964.8 58.78062 
L -4039.2 58.78062 
z
" style="fill:#348abd;opacity:0.2;"/>
   </g>
   <g id="patch_54">
    <path clip-path="url(#p15b6856f92)" d="M -3946.2 189 
L -3871.8 189 
L -3871.8 114.7986 
L -3946.2 114.7986 
z
" style="fill:#348abd;opacity:0.2;"/>
   </g>
   <g id="patch_55">
    <path clip-path="url(#p15b6856f92)" d="M -3853.2 189 
L -3778.8 189 
L -3778.8 90.3366 
L -3853.2 90.3366 
z
" style="fill:#348abd;opacity:0.2;"/>
   </g>
   <g id="patch_56">
    <path clip-path="url(#p15b6856f92)" d="M -3760.2 189 
L -3685.8 189 
L -3685.8 68.56542 
L -3760.2 68.56542 
z
" style="fill:#348abd;opacity:0.2;"/>
   </g>
   <g id="patch_57">
    <path clip-path="url(#p15b6856f92)" d="M -3667.2 189 
L -3592.8 189 
L -3592.8 27.1431 
L -3667.2 27.1431 
z
" style="fill:#348abd;opacity:0.2;"/>
   </g>
   <g id="patch_58">
    <path clip-path="url(#p15b6856f92)" d="M -3574.2 189 
L -3499.8 189 
L -3499.8 -61.3278 
L -3574.2 -61.3278 
z
" style="fill:#348abd;opacity:0.2;"/>
   </g>
   <g id="patch_59">
    <path clip-path="url(#p15b6856f92)" d="M -3481.2 189 
L -3406.8 189 
L -3406.8 -55.04922 
L -3481.2 -55.04922 
z
" style="fill:#348abd;opacity:0.2;"/>
   </g>
   <g id="patch_60">
    <path clip-path="url(#p15b6856f92)" d="M -3388.2 189 
L -3313.8 189 
L -3313.8 -180.21312 
L -3388.2 -180.21312 
z
" style="fill:#348abd;opacity:0.2;"/>
   </g>
   <g id="patch_61">
    <path clip-path="url(#p15b6856f92)" d="M -3295.2 189 
L -3220.8 189 
L -3220.8 -3.8421 
L -3295.2 -3.8421 
z
" style="fill:#348abd;opacity:0.2;"/>
   </g>
   <g id="patch_62">
    <path clip-path="url(#p15b6856f92)" d="M -3202.2 189 
L -3127.8 189 
L -3127.8 -27.8964 
L -3202.2 -27.8964 
z
" style="fill:#348abd;opacity:0.2;"/>
   </g>
   <g id="patch_63">
    <path clip-path="url(#p15b6856f92)" d="M -3109.2 189 
L -3034.8 189 
L -3034.8 -152.08182 
L -3109.2 -152.08182 
z
" style="fill:#348abd;opacity:0.2;"/>
   </g>
   <g id="patch_64">
    <path clip-path="url(#p15b6856f92)" d="M -3016.2 189 
L -2941.8 189 
L -2941.8 -131.4522 
L -3016.2 -131.4522 
z
" style="fill:#348abd;opacity:0.2;"/>
   </g>
   <g id="patch_65">
    <path clip-path="url(#p15b6856f92)" d="M -2923.2 189 
L -2848.8 189 
L -2848.8 -164.63898 
L -2923.2 -164.63898 
z
" style="fill:#348abd;opacity:0.2;"/>
   </g>
   <g id="patch_66">
    <path clip-path="url(#p15b6856f92)" d="M -2830.2 189 
L -2755.8 189 
L -2755.8 -350.3871 
L -2830.2 -350.3871 
z
" style="fill:#348abd;opacity:0.2;"/>
   </g>
   <g id="patch_67">
    <path clip-path="url(#p15b6856f92)" d="M -2737.2 189 
L -2662.8 189 
L -2662.8 -376.31682 
L -2737.2 -376.31682 
z
" style="fill:#348abd;opacity:0.2;"/>
   </g>
   <g id="patch_68">
    <path clip-path="url(#p15b6856f92)" d="M -2644.2 189 
L -2569.8 189 
L -2569.8 -367.42896 
L -2644.2 -367.42896 
z
" style="fill:#348abd;opacity:0.2;"/>
   </g>
   <g id="patch_69">
    <path clip-path="url(#p15b6856f92)" d="M -2551.2 189 
L -2476.8 189 
L -2476.8 -169.776 
L -2551.2 -169.776 
z
" style="fill:#348abd;opacity:0.2;"/>
   </g>
   <g id="patch_70">
    <path clip-path="url(#p15b6856f92)" d="M -2458.2 189 
L -2383.8 189 
L -2383.8 -201.5766 
L -2458.2 -201.5766 
z
" style="fill:#348abd;opacity:0.2;"/>
   </g>
   <g id="patch_71">
    <path clip-path="url(#p15b6856f92)" d="M -2365.2 189 
L -2290.8 189 
L -2290.8 -212.42142 
L -2365.2 -212.42142 
z
" style="fill:#348abd;opacity:0.2;"/>
   </g>
   <g id="patch_72">
    <path clip-path="url(#p15b6856f92)" d="M -2272.2 189 
L -2197.8 189 
L -2197.8 -305.45856 
L -2272.2 -305.45856 
z
" style="fill:#348abd;opacity:0.2;"/>
   </g>
   <g id="patch_73">
    <path clip-path="url(#p15b6856f92)" d="M -2179.2 189 
L -2104.8 189 
L -2104.8 -375.41988 
L -2179.2 -375.41988 
z
" style="fill:#348abd;opacity:0.2;"/>
   </g>
   <g id="patch_74">
    <path clip-path="url(#p15b6856f92)" d="M -2086.2 189 
L -2011.8 189 
L -2011.8 -330.0021 
L -2086.2 -330.0021 
z
" style="fill:#348abd;opacity:0.2;"/>
   </g>
   <g id="patch_75">
    <path clip-path="url(#p15b6856f92)" d="M -1993.2 189 
L -1918.8 189 
L -1918.8 -213.23682 
L -1993.2 -213.23682 
z
" style="fill:#348abd;opacity:0.2;"/>
   </g>
   <g id="patch_76">
    <path clip-path="url(#p15b6856f92)" d="M -1900.2 189 
L -1825.8 189 
L -1825.8 -139.68774 
L -1900.2 -139.68774 
z
" style="fill:#348abd;opacity:0.2;"/>
   </g>
   <g id="patch_77">
    <path clip-path="url(#p15b6856f92)" d="M -1807.2 189 
L -1732.8 189 
L -1732.8 -76.08654 
L -1807.2 -76.08654 
z
" style="fill:#348abd;opacity:0.2;"/>
   </g>
   <g id="patch_78">
    <path clip-path="url(#p15b6856f92)" d="M -1714.2 189 
L -1639.8 189 
L -1639.8 -160.72506 
L -1714.2 -160.72506 
z
" style="fill:#348abd;opacity:0.2;"/>
   </g>
   <g id="patch_79">
    <path clip-path="url(#p15b6856f92)" d="M -1621.2 189 
L -1546.8 189 
L -1546.8 -270.31482 
L -1621.2 -270.31482 
z
" style="fill:#348abd;opacity:0.2;"/>
   </g>
   <g id="patch_80">
    <path clip-path="url(#p15b6856f92)" d="M -1528.2 189 
L -1453.8 189 
L -1453.8 -209.3229 
L -1528.2 -209.3229 
z
" style="fill:#348abd;opacity:0.2;"/>
   </g>
   <g id="patch_81">
    <path clip-path="url(#p15b6856f92)" d="M -1435.2 189 
L -1360.8 189 
L -1360.8 -136.3446 
L -1435.2 -136.3446 
z
" style="fill:#348abd;opacity:0.2;"/>
   </g>
   <g id="patch_82">
    <path clip-path="url(#p15b6856f92)" d="M -1342.2 189 
L -1267.8 189 
L -1267.8 -34.17498 
L -1342.2 -34.17498 
z
" style="fill:#348abd;opacity:0.2;"/>
   </g>
   <g id="patch_83">
    <path clip-path="url(#p15b6856f92)" d="M -1249.2 189 
L -1174.8 189 
L -1174.8 -51.21684 
L -1249.2 -51.21684 
z
" style="fill:#348abd;opacity:0.2;"/>
   </g>
   <g id="patch_84">
    <path clip-path="url(#p15b6856f92)" d="M -1156.2 189 
L -1081.8 189 
L -1081.8 8.14428 
L -1156.2 8.14428 
z
" style="fill:#348abd;opacity:0.2;"/>
   </g>
   <g id="patch_85">
    <path clip-path="url(#p15b6856f92)" d="M -1063.2 189 
L -988.8 189 
L -988.8 84.05802 
L -1063.2 84.05802 
z
" style="fill:#348abd;opacity:0.2;"/>
   </g>
   <g id="patch_86">
    <path clip-path="url(#p15b6856f92)" d="M -970.2 189 
L -895.8 189 
L -895.8 -87.74676 
L -970.2 -87.74676 
z
" style="fill:#348abd;opacity:0.2;"/>
   </g>
   <g id="patch_87">
    <path clip-path="url(#p15b6856f92)" d="M -877.2 189 
L -802.8 189 
L -802.8 -51.1353 
L -877.2 -51.1353 
z
" style="fill:#348abd;opacity:0.2;"/>
   </g>
   <g id="patch_88">
    <path clip-path="url(#p15b6856f92)" d="M -784.2 189 
L -709.8 189 
L -709.8 -112.61646 
L -784.2 -112.61646 
z
" style="fill:#348abd;opacity:0.2;"/>
   </g>
   <g id="patch_89">
    <path clip-path="url(#p15b6856f92)" d="M -691.2 189 
L -616.8 189 
L -616.8 30.4047 
L -691.2 30.4047 
z
" style="fill:#348abd;opacity:0.2;"/>
   </g>
   <g id="patch_90">
    <path clip-path="url(#p15b6856f92)" d="M -598.2 189 
L -523.8 189 
L -523.8 38.80332 
L -598.2 38.80332 
z
" style="fill:#348abd;opacity:0.2;"/>
   </g>
   <g id="patch_91">
    <path clip-path="url(#p15b6856f92)" d="M -505.2 189 
L -430.8 189 
L -430.8 35.62326 
L -505.2 35.62326 
z
" style="fill:#348abd;opacity:0.2;"/>
   </g>
   <g id="patch_92">
    <path clip-path="url(#p15b6856f92)" d="M -412.2 189 
L -337.8 189 
L -337.8 89.03196 
L -412.2 89.03196 
z
" style="fill:#348abd;opacity:0.2;"/>
   </g>
   <g id="patch_93">
    <path clip-path="url(#p15b6856f92)" d="M -319.2 189 
L -244.8 189 
L -244.8 -3.18978 
L -319.2 -3.18978 
z
" style="fill:#348abd;opacity:0.2;"/>
   </g>
   <g id="patch_94">
    <path clip-path="url(#p15b6856f92)" d="M -226.2 189 
L -151.8 189 
L -151.8 -13.30074 
L -226.2 -13.30074 
z
" style="fill:#348abd;opacity:0.2;"/>
   </g>
   <g id="patch_95">
    <path clip-path="url(#p15b6856f92)" d="M -133.2 189 
L -58.8 189 
L -58.8 36.5202 
L -133.2 36.5202 
z
" style="fill:#348abd;opacity:0.2;"/>
   </g>
   <g id="patch_96">
    <path clip-path="url(#p15b6856f92)" d="M -40.2 189 
L 34.2 189 
L 34.2 65.54844 
L -40.2 65.54844 
z
" style="fill:#348abd;opacity:0.2;"/>
   </g>
   <g id="patch_97">
    <path clip-path="url(#p15b6856f92)" d="M 52.8 189 
L 127.2 189 
L 127.2 86.50422 
L 52.8 86.50422 
z
" style="fill:#348abd;opacity:0.2;"/>
   </g>
   <g id="patch_98">
    <path clip-path="url(#p15b6856f92)" d="M 145.8 189 
L 220.2 189 
L 220.2 108.43848 
L 145.8 108.43848 
z
" style="fill:#348abd;opacity:0.2;"/>
   </g>
   <g id="patch_99">
    <path clip-path="url(#p15b6856f92)" d="M 238.8 189 
L 313.2 189 
L 313.2 94.90284 
L 238.8 94.90284 
z
" style="fill:#348abd;opacity:0.2;"/>
   </g>
   <g id="patch_100">
    <path clip-path="url(#p15b6856f92)" d="M 331.8 189 
L 406.2 189 
L 406.2 56.33442 
L 331.8 56.33442 
z
" style="fill:#348abd;opacity:0.2;"/>
   </g>
   <g id="line2d_42">
    <path clip-path="url(#p15b6856f92)" d="M -1 53.186948 
L 90 60.189295 
L 183 67.566354 
L 276 74.281559 
L 369 78.549597 
" style="fill:none;stroke:#348abd;stroke-linecap:square;stroke-width:3;"/>
   </g>
   <g id="patch_101">
    <path d="M 90 189 
L 90 25.92 
" style="fill:none;stroke:#ffffff;stroke-linecap:square;stroke-linejoin:miter;"/>
   </g>
   <g id="patch_102">
    <path d="M 648 189 
L 648 25.92 
" style="fill:none;stroke:#ffffff;stroke-linecap:square;stroke-linejoin:miter;"/>
   </g>
   <g id="patch_103">
    <path d="M 90 189 
L 648 189 
" style="fill:none;stroke:#ffffff;stroke-linecap:square;stroke-linejoin:miter;"/>
   </g>
   <g id="patch_104">
    <path d="M 90 25.92 
L 648 25.92 
" style="fill:none;stroke:#ffffff;stroke-linecap:square;stroke-linejoin:miter;"/>
   </g>
   <g id="legend_1">
    <g id="patch_105">
     <path d="M 449 61.40125 
L 641 61.40125 
Q 643 61.40125 643 59.40125 
L 643 32.92 
Q 643 30.92 641 30.92 
L 449 30.92 
Q 447 30.92 447 32.92 
L 447 59.40125 
Q 447 61.40125 449 61.40125 
z
" style="fill:#e5e5e5;opacity:0.8;stroke:#cccccc;stroke-linejoin:miter;stroke-width:0.5;"/>
    </g>
    <g id="line2d_43">
     <path d="M 451 38.42 
L 471 38.42 
" style="fill:none;stroke:#348abd;stroke-linecap:square;stroke-width:3;"/>
    </g>
    <g id="line2d_44"/>
    <g id="text_27">
     <!-- Germany new cases (rolling mean) -->
     <defs>
      <path d="M 46 29.90625 
L 46 5.5 
Q 37.09375 -1 27.703125 -1 
Q 20.296875 -1 14.84375 2.890625 
Q 9.40625 6.796875 6.5 13.890625 
Q 3.59375 21 3.59375 30.40625 
Q 3.5 42.796875 7.203125 50.046875 
Q 10.90625 57.296875 16.296875 60.140625 
Q 21.703125 63 27.203125 63 
Q 32.796875 63 38 60.09375 
Q 43.203125 57.203125 45.796875 52.5 
L 40.90625 48.59375 
L 40.796875 48.5 
Q 37.40625 53 34.5 54.890625 
Q 31.59375 56.796875 27.296875 56.796875 
Q 19.796875 56.796875 15.140625 51 
Q 10.5 45.203125 10.5 31.90625 
Q 10.5 19.09375 15.046875 12.140625 
Q 19.59375 5.203125 27.703125 5.203125 
Q 30.703125 5.203125 34 6.140625 
Q 37.296875 7.09375 39.5 9 
L 39.5 23.796875 
L 28.203125 23.796875 
L 28.203125 29.90625 
z
M 39.703125 48.5 
Q 39.703125 49.09375 40.59375 48.40625 
L 40.09375 47.90625 
L 39.703125 48.5 
z
M 40.796875 48.5 
Q 41.296875 47.796875 40.59375 48.40625 
L 40.796875 48.5 
z
" id="Inconsolata-Regular-71"/>
      <path d="M 42.59375 36.203125 
L 42.59375 36.09375 
Q 39.703125 38.796875 37.75 39.6875 
Q 35.796875 40.59375 33.203125 40.59375 
Q 29.59375 40.59375 26.390625 38.796875 
Q 23.203125 37 21.203125 33.34375 
Q 19.203125 29.703125 19.203125 24.203125 
L 19.203125 -0.09375 
L 11.90625 -0.09375 
L 11.90625 45.703125 
L 19.40625 45.703125 
L 19.203125 37.296875 
Q 21.09375 41.796875 25.046875 44.296875 
Q 29 46.796875 33.703125 46.796875 
Q 41 46.796875 45.796875 41.796875 
z
M 42.59375 36.09375 
Q 43.296875 35.5 42.9375 35.59375 
Q 42.59375 35.703125 42.40625 35.796875 
L 42.59375 36.09375 
z
M 41.5 35.796875 
Q 41.5 36.09375 41.796875 36.046875 
Q 42.09375 36 42.40625 35.796875 
L 42.203125 35.296875 
L 41.5 35.703125 
z
" id="Inconsolata-Regular-114"/>
      <path d="M 3.796875 45.703125 
L 10.40625 45.703125 
L 10.40625 41.203125 
Q 12 43.703125 14.5 45.25 
Q 17 46.796875 19.703125 46.796875 
Q 22.703125 46.796875 24.953125 44.890625 
Q 27.203125 43 27.796875 40.09375 
Q 29.09375 43.09375 31.890625 44.9375 
Q 34.703125 46.796875 38.09375 46.796875 
Q 42.59375 46.796875 44.84375 43.546875 
Q 47.09375 40.296875 46.90625 35.09375 
L 46.90625 0 
L 40.296875 0 
L 40.296875 32.40625 
Q 40.296875 38.09375 39.1875 39.796875 
Q 38.09375 41.5 36 41.5 
Q 34.203125 41.5 32.5 39.796875 
Q 30.796875 38.09375 29.75 35.4375 
Q 28.703125 32.796875 28.703125 30.203125 
L 28.703125 0 
L 22 0 
L 22 31.796875 
Q 22 37.40625 20.953125 39.34375 
Q 19.90625 41.296875 17 41.296875 
Q 15.5 41.296875 13.953125 39.9375 
Q 12.40625 38.59375 11.40625 36.140625 
Q 10.40625 33.703125 10.40625 30.5 
L 10.40625 0 
L 3.796875 0 
z
" id="Inconsolata-Regular-109"/>
      <path d="M 1.59375 45.703125 
L 7.90625 45.703125 
L 15.296875 9 
L 23.09375 41.40625 
L 27.5 41.40625 
L 37.203125 9.09375 
Q 40 27.796875 40.703125 33.640625 
Q 41.40625 39.5 41.40625 44.203125 
L 41.40625 45.703125 
L 48.09375 45.703125 
Q 45.09375 22.5 40.5 -0.09375 
L 33.703125 -0.09375 
L 25.296875 29.5 
L 17.296875 -0.09375 
L 10.796875 -0.09375 
z
" id="Inconsolata-Regular-119"/>
      <path d="M 28.296875 26.90625 
Q 36.90625 24.296875 40.453125 21.25 
Q 44 18.203125 44 13.296875 
Q 44 7.09375 39.140625 3.046875 
Q 34.296875 -1 25.09375 -1 
Q 13.5 -1 5.703125 6.203125 
L 9.703125 13 
L 9.796875 13.09375 
L 9.90625 13 
Q 13 9 16.296875 7 
Q 19.59375 5 25.296875 5 
Q 30.703125 5 33.796875 6.953125 
Q 36.90625 8.90625 36.90625 12.296875 
Q 36.90625 15.203125 34.40625 17.09375 
Q 31.90625 19 25.40625 21.09375 
Q 8.203125 26 8.203125 35.296875 
Q 8.203125 40.59375 12.546875 43.6875 
Q 16.90625 46.796875 25 46.796875 
Q 31.203125 46.796875 35.453125 45.046875 
Q 39.703125 43.296875 43.203125 39.59375 
L 39.09375 34.59375 
L 39 34.5 
Q 36.90625 37.703125 33.046875 39.546875 
Q 29.203125 41.40625 25.203125 41.40625 
Q 20.90625 41.40625 18.15625 39.90625 
Q 15.40625 38.40625 15.40625 35.703125 
Q 15.40625 33.203125 18.203125 31.09375 
Q 21 29 28.296875 26.90625 
z
M 37.90625 34.296875 
Q 37.90625 34.796875 38.703125 34.203125 
L 38.40625 33.796875 
L 37.90625 34.296875 
z
M 39 34.5 
Q 39.296875 34.09375 39.25 34 
Q 39.203125 33.90625 39 34 
Q 38.796875 34.09375 38.703125 34.203125 
L 39 34.5 
z
M 10.90625 13.40625 
Q 10.90625 13 10 13.40625 
L 10.296875 13.90625 
L 10.90625 13.5 
z
M 9.796875 13.09375 
Q 9.5 13.59375 9.59375 13.59375 
Q 9.703125 13.59375 10 13.40625 
L 9.796875 13.09375 
z
" id="Inconsolata-Regular-115"/>
      <path d="M 39.5 -17.40625 
Q 31.296875 -13.59375 25.09375 -7 
Q 18.90625 -0.40625 15.546875 7.890625 
Q 12.203125 16.203125 12.203125 25 
Q 12.203125 33.796875 15.5 41.890625 
Q 18.796875 50 24.84375 56.34375 
Q 30.90625 62.703125 38.90625 66.5 
L 40.796875 60.296875 
Q 31 55 25.140625 45.390625 
Q 19.296875 35.796875 19.296875 24.703125 
Q 19.296875 13.5 25.296875 3.703125 
Q 31.296875 -6.09375 41.40625 -11.40625 
L 39.5 -17.40625 
z
" id="Inconsolata-Regular-40"/>
      <path d="M 25 -0.796875 
Q 18.90625 -0.796875 14.09375 2.203125 
Q 9.296875 5.203125 6.59375 10.59375 
Q 3.90625 16 3.90625 22.90625 
Q 3.90625 29.796875 6.59375 35.1875 
Q 9.296875 40.59375 14.09375 43.640625 
Q 18.90625 46.703125 25 46.703125 
Q 31.09375 46.703125 35.890625 43.640625 
Q 40.703125 40.59375 43.390625 35.1875 
Q 46.09375 29.796875 46.09375 22.90625 
Q 46.09375 16 43.390625 10.59375 
Q 40.703125 5.203125 35.890625 2.203125 
Q 31.09375 -0.796875 25 -0.796875 
z
M 25 5.203125 
Q 28.90625 5.203125 31.953125 7.5 
Q 35 9.796875 36.75 13.84375 
Q 38.5 17.90625 38.5 23 
Q 38.5 30.796875 34.703125 35.75 
Q 30.90625 40.703125 25 40.703125 
Q 19.09375 40.703125 15.296875 35.75 
Q 11.5 30.796875 11.5 23 
Q 11.5 17.90625 13.25 13.84375 
Q 15 9.796875 18.046875 7.5 
Q 21.09375 5.203125 25 5.203125 
z
" id="Inconsolata-Regular-111"/>
      <path d="M 11.40625 -11.40625 
Q 21.5 -6.09375 27.5 3.703125 
Q 33.5 13.5 33.5 24.703125 
Q 33.5 35.796875 27.640625 45.390625 
Q 21.796875 55 12 60.296875 
L 13.90625 66.5 
Q 21.90625 62.703125 27.953125 56.34375 
Q 34 50 37.296875 41.890625 
Q 40.59375 33.796875 40.59375 25 
Q 40.59375 16.203125 37.25 7.890625 
Q 33.90625 -0.40625 27.703125 -7 
Q 21.5 -13.59375 13.296875 -17.40625 
z
" id="Inconsolata-Regular-41"/>
     </defs>
     <g transform="translate(479 41.92)scale(0.1 -0.1)">
      <use xlink:href="#Inconsolata-Regular-71"/>
      <use x="49.999985" xlink:href="#Inconsolata-Regular-101"/>
      <use x="99.999969" xlink:href="#Inconsolata-Regular-114"/>
      <use x="149.999954" xlink:href="#Inconsolata-Regular-109"/>
      <use x="199.999939" xlink:href="#Inconsolata-Regular-97"/>
      <use x="249.999924" xlink:href="#Inconsolata-Regular-110"/>
      <use x="299.999908" xlink:href="#Inconsolata-Regular-121"/>
      <use x="349.999893" xlink:href="#Inconsolata-Regular-32"/>
      <use x="399.999878" xlink:href="#Inconsolata-Regular-110"/>
      <use x="449.999863" xlink:href="#Inconsolata-Regular-101"/>
      <use x="499.999847" xlink:href="#Inconsolata-Regular-119"/>
      <use x="549.999832" xlink:href="#Inconsolata-Regular-32"/>
      <use x="599.999817" xlink:href="#Inconsolata-Regular-99"/>
      <use x="649.999802" xlink:href="#Inconsolata-Regular-97"/>
      <use x="699.999786" xlink:href="#Inconsolata-Regular-115"/>
      <use x="749.999771" xlink:href="#Inconsolata-Regular-101"/>
      <use x="799.999756" xlink:href="#Inconsolata-Regular-115"/>
      <use x="849.999741" xlink:href="#Inconsolata-Regular-32"/>
      <use x="899.999725" xlink:href="#Inconsolata-Regular-40"/>
      <use x="949.99971" xlink:href="#Inconsolata-Regular-114"/>
      <use x="999.999695" xlink:href="#Inconsolata-Regular-111"/>
      <use x="1049.99968" xlink:href="#Inconsolata-Regular-108"/>
      <use x="1099.999664" xlink:href="#Inconsolata-Regular-108"/>
      <use x="1149.999649" xlink:href="#Inconsolata-Regular-105"/>
      <use x="1199.999634" xlink:href="#Inconsolata-Regular-110"/>
      <use x="1249.999619" xlink:href="#Inconsolata-Regular-103"/>
      <use x="1299.999603" xlink:href="#Inconsolata-Regular-32"/>
      <use x="1349.999588" xlink:href="#Inconsolata-Regular-109"/>
      <use x="1399.999573" xlink:href="#Inconsolata-Regular-101"/>
      <use x="1449.999557" xlink:href="#Inconsolata-Regular-97"/>
      <use x="1499.999542" xlink:href="#Inconsolata-Regular-110"/>
      <use x="1549.999527" xlink:href="#Inconsolata-Regular-41"/>
     </g>
    </g>
    <g id="patch_106">
     <path d="M 451 55.660625 
L 471 55.660625 
L 471 48.660625 
L 451 48.660625 
z
" style="fill:#348abd;opacity:0.2;"/>
    </g>
    <g id="text_28">
     <!-- Germany new cases -->
     <g transform="translate(479 55.660625)scale(0.1 -0.1)">
      <use xlink:href="#Inconsolata-Regular-71"/>
      <use x="49.999985" xlink:href="#Inconsolata-Regular-101"/>
      <use x="99.999969" xlink:href="#Inconsolata-Regular-114"/>
      <use x="149.999954" xlink:href="#Inconsolata-Regular-109"/>
      <use x="199.999939" xlink:href="#Inconsolata-Regular-97"/>
      <use x="249.999924" xlink:href="#Inconsolata-Regular-110"/>
      <use x="299.999908" xlink:href="#Inconsolata-Regular-121"/>
      <use x="349.999893" xlink:href="#Inconsolata-Regular-32"/>
      <use x="399.999878" xlink:href="#Inconsolata-Regular-110"/>
      <use x="449.999863" xlink:href="#Inconsolata-Regular-101"/>
      <use x="499.999847" xlink:href="#Inconsolata-Regular-119"/>
      <use x="549.999832" xlink:href="#Inconsolata-Regular-32"/>
      <use x="599.999817" xlink:href="#Inconsolata-Regular-99"/>
      <use x="649.999802" xlink:href="#Inconsolata-Regular-97"/>
      <use x="699.999786" xlink:href="#Inconsolata-Regular-115"/>
      <use x="749.999771" xlink:href="#Inconsolata-Regular-101"/>
      <use x="799.999756" xlink:href="#Inconsolata-Regular-115"/>
     </g>
    </g>
   </g>
  </g>
 </g>
 <defs>
  <clipPath id="p15b6856f92">
   <rect height="163.08" width="558" x="90" y="25.92"/>
  </clipPath>
 </defs>
</svg>
