<?xml version="1.0" encoding="utf-8" standalone="no"?>
<!DOCTYPE svg PUBLIC "-//W3C//DTD SVG 1.1//EN"
  "http://www.w3.org/Graphics/SVG/1.1/DTD/svg11.dtd">
<!-- Created with matplotlib (https://matplotlib.org/) -->
<svg height="216pt" version="1.1" viewBox="0 0 720 216" width="720pt" xmlns="http://www.w3.org/2000/svg" xmlns:xlink="http://www.w3.org/1999/xlink">
 <metadata>
  <rdf:RDF xmlns:cc="http://creativecommons.org/ns#" xmlns:dc="http://purl.org/dc/elements/1.1/" xmlns:rdf="http://www.w3.org/1999/02/22-rdf-syntax-ns#">
   <cc:Work>
    <dc:type rdf:resource="http://purl.org/dc/dcmitype/StillImage"/>
    <dc:date>2020-10-31T09:39:02.314474</dc:date>
    <dc:format>image/svg+xml</dc:format>
    <dc:creator>
     <cc:Agent>
      <dc:title>Matplotlib v3.3.2, https://matplotlib.org/</dc:title>
     </cc:Agent>
    </dc:creator>
   </cc:Work>
  </rdf:RDF>
 </metadata>
 <defs>
  <style type="text/css">*{stroke-linecap:butt;stroke-linejoin:round;}</style>
 </defs>
 <g id="figure_1">
  <g id="patch_1">
   <path d="M 0 216 
L 720 216 
L 720 0 
L 0 0 
z
" style="fill:#ffffff;"/>
  </g>
  <g id="axes_1">
   <g id="patch_2">
    <path d="M 90 172.8 
L 648 172.8 
L 648 25.92 
L 90 25.92 
z
" style="fill:#e5e5e5;"/>
   </g>
   <g id="matplotlib.axis_1">
    <g id="xtick_1">
     <g id="line2d_1">
      <path clip-path="url(#pbbac6f6262)" d="M 157.636364 172.8 
L 157.636364 25.92 
" style="fill:none;stroke:#ffffff;stroke-linecap:square;stroke-width:0.8;"/>
     </g>
     <g id="line2d_2">
      <defs>
       <path d="M 0 0 
L 0 3.5 
" id="med43870237" style="stroke:#555555;stroke-width:0.8;"/>
      </defs>
      <g>
       <use style="fill:#555555;stroke:#555555;stroke-width:0.8;" x="157.636364" xlink:href="#med43870237" y="172.8"/>
      </g>
     </g>
     <g id="text_1">
      <!-- 2020-04-26 -->
      <g style="fill:#555555;" transform="translate(113.499937 210.55095)rotate(-30)scale(0.1 -0.1)">
       <defs>
        <path d="M 7.703125 52.59375 
L 12.796875 48.5 
C 13.40625 49.40625 13.09375 50 13.703125 50.796875 
C 15.203125 53.09375 18.90625 56.5 24.296875 56.5 
C 31 56.5 36.296875 51.40625 36.296875 44.703125 
C 36.296875 37.09375 29.90625 31.59375 25.40625 27.5 
C 18.296875 21.09375 12.5 14.703125 7.296875 4.40625 
L 7.296875 0 
L 43.90625 0 
L 43.90625 6.90625 
C 43.203125 7.203125 42.703125 6.703125 42.5 6.5 
C 42.09375 6.09375 41.90625 6.09375 41.5 6.09375 
L 15.296875 6.09375 
C 20.5 15.09375 27.796875 21.296875 32.296875 25.5 
C 36.796875 29.796875 43.203125 36.203125 43.203125 45.203125 
C 43.203125 54.90625 35.296875 62.703125 25.203125 62.703125 
C 18.09375 62.703125 11.40625 58.90625 7.703125 52.59375 
z
" id="Inconsolata-50"/>
        <path d="M 25.09375 62.703125 
C 15.203125 62.703125 5 50.5 5 30.59375 
C 5 10.40625 15.296875 -1.203125 25.203125 -1.203125 
C 34.203125 -1.203125 44.90625 8.59375 44.90625 30.09375 
C 44.90625 51.296875 34.703125 62.703125 25.09375 62.703125 
z
M 34.796875 48.40625 
L 12.90625 20 
C 12 23.5 11.5 27.40625 11.5 31.796875 
C 11.5 47.796875 18.796875 56.59375 25 56.59375 
C 28.40625 56.59375 32.09375 53.90625 34.796875 48.40625 
z
M 37.09375 41.796875 
C 38 38.296875 38.40625 34.09375 38.40625 29.203125 
C 38.40625 11.796875 30.90625 5.203125 25.40625 5.203125 
C 21.703125 5.203125 17.90625 8.203125 15.203125 13.703125 
z
" id="Inconsolata-48"/>
        <path d="M 7 34.703125 
L 7 28.09375 
L 43 28.09375 
L 43 34.703125 
z
" id="Inconsolata-45"/>
        <path d="M 31.296875 62.296875 
L 4.796875 22.40625 
L 4.796875 17.203125 
L 29.90625 17.203125 
L 29.90625 0 
L 37.09375 0 
L 37.09375 17.09375 
L 45.203125 17.09375 
L 45.203125 23.296875 
L 37.09375 23.296875 
L 37.09375 62.296875 
z
M 30 51.203125 
L 30 23.296875 
L 11.703125 23.296875 
z
" id="Inconsolata-52"/>
        <path d="M 28.703125 63 
C 21.203125 63 13.203125 58.40625 9.296875 47.5 
C 7.203125 41.59375 6.703125 34.296875 6.703125 28.296875 
C 6.703125 21 7.40625 13.203125 11.40625 7.203125 
C 15 1.703125 20.59375 -1.09375 26.09375 -1.09375 
C 35.59375 -1.09375 43.90625 6.90625 43.90625 19.796875 
C 43.90625 32.703125 35.59375 40.203125 26.796875 40.203125 
C 21.40625 40.203125 16.296875 37.296875 13.59375 32.703125 
C 14 54 24.203125 56.796875 28.703125 56.796875 
C 32.796875 56.796875 35.59375 54.59375 36 54.203125 
C 36.59375 53.5 36.59375 52.59375 37.5 51.90625 
L 42.296875 57.296875 
C 38.703125 60.90625 33.703125 63 28.703125 63 
z
M 26.09375 34 
C 31.09375 34 37.09375 30.09375 37.09375 19.40625 
C 37.09375 9.703125 31.703125 5.09375 26.40625 5.09375 
C 18.796875 5.09375 13.09375 14 13.90625 25.703125 
C 16.703125 30.796875 21.5 34 26.09375 34 
z
" id="Inconsolata-54"/>
       </defs>
       <use xlink:href="#Inconsolata-50"/>
       <use x="49.999985" xlink:href="#Inconsolata-48"/>
       <use x="99.999969" xlink:href="#Inconsolata-50"/>
       <use x="149.999954" xlink:href="#Inconsolata-48"/>
       <use x="199.999939" xlink:href="#Inconsolata-45"/>
       <use x="249.999924" xlink:href="#Inconsolata-48"/>
       <use x="299.999908" xlink:href="#Inconsolata-52"/>
       <use x="349.999893" xlink:href="#Inconsolata-45"/>
       <use x="399.999878" xlink:href="#Inconsolata-50"/>
       <use x="449.999863" xlink:href="#Inconsolata-54"/>
      </g>
     </g>
    </g>
    <g id="xtick_2">
     <g id="line2d_3">
      <path clip-path="url(#pbbac6f6262)" d="M 263.318182 172.8 
L 263.318182 25.92 
" style="fill:none;stroke:#ffffff;stroke-linecap:square;stroke-width:0.8;"/>
     </g>
     <g id="line2d_4">
      <g>
       <use style="fill:#555555;stroke:#555555;stroke-width:0.8;" x="263.318182" xlink:href="#med43870237" y="172.8"/>
      </g>
     </g>
     <g id="text_2">
      <!-- 2020-04-27 -->
      <g style="fill:#555555;" transform="translate(219.181755 210.55095)rotate(-30)scale(0.1 -0.1)">
       <defs>
        <path d="M 7.796875 62.296875 
L 7.796875 55.59375 
L 34.5 55.59375 
C 31.296875 48.203125 28.296875 40.796875 25.40625 33.296875 
C 21.203125 22.296875 17.203125 11.203125 13.5 0 
L 21.40625 0 
C 24.40625 9.796875 27.703125 19.5 31.296875 29.09375 
C 34.90625 39 38.90625 48.703125 43.09375 58.40625 
L 43.09375 62.296875 
z
" id="Inconsolata-55"/>
       </defs>
       <use xlink:href="#Inconsolata-50"/>
       <use x="49.999985" xlink:href="#Inconsolata-48"/>
       <use x="99.999969" xlink:href="#Inconsolata-50"/>
       <use x="149.999954" xlink:href="#Inconsolata-48"/>
       <use x="199.999939" xlink:href="#Inconsolata-45"/>
       <use x="249.999924" xlink:href="#Inconsolata-48"/>
       <use x="299.999908" xlink:href="#Inconsolata-52"/>
       <use x="349.999893" xlink:href="#Inconsolata-45"/>
       <use x="399.999878" xlink:href="#Inconsolata-50"/>
       <use x="449.999863" xlink:href="#Inconsolata-55"/>
      </g>
     </g>
    </g>
    <g id="xtick_3">
     <g id="line2d_5">
      <path clip-path="url(#pbbac6f6262)" d="M 369 172.8 
L 369 25.92 
" style="fill:none;stroke:#ffffff;stroke-linecap:square;stroke-width:0.8;"/>
     </g>
     <g id="line2d_6">
      <g>
       <use style="fill:#555555;stroke:#555555;stroke-width:0.8;" x="369" xlink:href="#med43870237" y="172.8"/>
      </g>
     </g>
     <g id="text_3">
      <!-- 2020-04-28 -->
      <g style="fill:#555555;" transform="translate(324.863574 210.55095)rotate(-30)scale(0.1 -0.1)">
       <defs>
        <path d="M 25.796875 63 
C 16.203125 63 8.90625 56.09375 8.90625 47.703125 
C 8.90625 41.59375 12.796875 36 18.40625 33.09375 
C 11 29.59375 6 22.796875 6 15.59375 
C 6 6.296875 14.203125 -1.09375 24.90625 -1.09375 
C 35.796875 -1.09375 44.09375 6.5 44.09375 16 
C 44.09375 23.40625 39.09375 30 32.09375 33.296875 
C 38.09375 36.40625 42 42.296875 42 48.296875 
C 42 56.5 34.90625 63 25.796875 63 
z
M 23.703125 30.203125 
C 31.703125 27.703125 37 22.203125 37 16.09375 
C 37 10.09375 31.90625 5.203125 25.203125 5.203125 
C 18.40625 5.203125 13.203125 10.296875 13.203125 16.5 
C 13.203125 22.40625 17.796875 27.796875 23.703125 30.203125 
z
M 25.203125 57.203125 
C 30.796875 57.203125 35.203125 53 35.203125 47.796875 
C 35.203125 43 31.5 38.40625 26.59375 35.796875 
C 26.59375 35.796875 15.59375 40 15.59375 48.296875 
C 15.59375 53.203125 19.796875 57.203125 25.203125 57.203125 
z
" id="Inconsolata-56"/>
       </defs>
       <use xlink:href="#Inconsolata-50"/>
       <use x="49.999985" xlink:href="#Inconsolata-48"/>
       <use x="99.999969" xlink:href="#Inconsolata-50"/>
       <use x="149.999954" xlink:href="#Inconsolata-48"/>
       <use x="199.999939" xlink:href="#Inconsolata-45"/>
       <use x="249.999924" xlink:href="#Inconsolata-48"/>
       <use x="299.999908" xlink:href="#Inconsolata-52"/>
       <use x="349.999893" xlink:href="#Inconsolata-45"/>
       <use x="399.999878" xlink:href="#Inconsolata-50"/>
       <use x="449.999863" xlink:href="#Inconsolata-56"/>
      </g>
     </g>
    </g>
    <g id="xtick_4">
     <g id="line2d_7">
      <path clip-path="url(#pbbac6f6262)" d="M 474.681818 172.8 
L 474.681818 25.92 
" style="fill:none;stroke:#ffffff;stroke-linecap:square;stroke-width:0.8;"/>
     </g>
     <g id="line2d_8">
      <g>
       <use style="fill:#555555;stroke:#555555;stroke-width:0.8;" x="474.681818" xlink:href="#med43870237" y="172.8"/>
      </g>
     </g>
     <g id="text_4">
      <!-- 2020-04-29 -->
      <g style="fill:#555555;" transform="translate(430.545392 210.55095)rotate(-30)scale(0.1 -0.1)">
       <defs>
        <path d="M 21.703125 -1.09375 
C 29.296875 -1.09375 37.203125 3.5 41 13.40625 
C 42.09375 16.296875 43.703125 21.703125 43.703125 31.90625 
C 43.703125 39.703125 43 45.09375 41.5 49.296875 
C 38.296875 58.90625 31.09375 62.90625 24.59375 62.90625 
C 14.90625 62.90625 6.796875 54.296875 6.796875 42.203125 
C 6.796875 30.296875 14.796875 22.59375 23.90625 22.59375 
C 29 22.59375 33.796875 25.09375 36.703125 29.296875 
C 36.40625 19.59375 34.796875 15.40625 34.203125 13.90625 
C 31.5 7.59375 26.296875 5.296875 21.90625 5.296875 
C 17.40625 5.296875 14.40625 7.5 14.40625 7.59375 
C 13.5 8.203125 13.796875 9.296875 12.703125 10 
L 7.90625 4.59375 
C 11.59375 1 16.5 -1.09375 21.703125 -1.09375 
z
M 24.5 28.703125 
C 19 28.703125 13.59375 33.203125 13.59375 42.5 
C 13.59375 51.59375 18.796875 56.703125 24.5 56.703125 
C 31.5 56.703125 37.5 48.90625 36.40625 36.296875 
C 33.59375 31.59375 29 28.703125 24.5 28.703125 
z
" id="Inconsolata-57"/>
       </defs>
       <use xlink:href="#Inconsolata-50"/>
       <use x="49.999985" xlink:href="#Inconsolata-48"/>
       <use x="99.999969" xlink:href="#Inconsolata-50"/>
       <use x="149.999954" xlink:href="#Inconsolata-48"/>
       <use x="199.999939" xlink:href="#Inconsolata-45"/>
       <use x="249.999924" xlink:href="#Inconsolata-48"/>
       <use x="299.999908" xlink:href="#Inconsolata-52"/>
       <use x="349.999893" xlink:href="#Inconsolata-45"/>
       <use x="399.999878" xlink:href="#Inconsolata-50"/>
       <use x="449.999863" xlink:href="#Inconsolata-57"/>
      </g>
     </g>
    </g>
    <g id="xtick_5">
     <g id="line2d_9">
      <path clip-path="url(#pbbac6f6262)" d="M 580.363636 172.8 
L 580.363636 25.92 
" style="fill:none;stroke:#ffffff;stroke-linecap:square;stroke-width:0.8;"/>
     </g>
     <g id="line2d_10">
      <g>
       <use style="fill:#555555;stroke:#555555;stroke-width:0.8;" x="580.363636" xlink:href="#med43870237" y="172.8"/>
      </g>
     </g>
     <g id="text_5">
      <!-- 2020-04-30 -->
      <g style="fill:#555555;" transform="translate(536.22721 210.55095)rotate(-30)scale(0.1 -0.1)">
       <defs>
        <path d="M 41 46.703125 
C 41 55.203125 33.796875 62.5 23.90625 62.5 
C 18.296875 62.5 12.796875 60.09375 8.90625 55.796875 
L 12.796875 51.5 
C 15.703125 54.59375 19.703125 56.296875 23.59375 56.296875 
C 30 56.296875 34.40625 51.796875 34.40625 46.5 
C 34.40625 42.796875 32.09375 38.59375 27.703125 36.703125 
C 26.59375 36.296875 23.796875 35.203125 17.90625 35.203125 
L 17.90625 29.59375 
C 18.90625 29.703125 20 29.796875 21.09375 29.796875 
C 29.5 29.796875 35.703125 25.40625 35.703125 17.90625 
C 35.703125 11.09375 30.5 5.203125 23.203125 5.203125 
C 17.40625 5.203125 13.90625 9 13.40625 9.5 
C 12.59375 10.40625 13 11.40625 12.09375 12.296875 
L 6.90625 6 
C 11 1.296875 17 -1.09375 23.203125 -1.09375 
C 35.203125 -1.09375 42.40625 7.40625 42.40625 17.09375 
C 42.40625 24.5 38.203125 30.796875 31.703125 33.203125 
C 37.296875 35.296875 41 40.59375 41 46.703125 
z
" id="Inconsolata-51"/>
       </defs>
       <use xlink:href="#Inconsolata-50"/>
       <use x="49.999985" xlink:href="#Inconsolata-48"/>
       <use x="99.999969" xlink:href="#Inconsolata-50"/>
       <use x="149.999954" xlink:href="#Inconsolata-48"/>
       <use x="199.999939" xlink:href="#Inconsolata-45"/>
       <use x="249.999924" xlink:href="#Inconsolata-48"/>
       <use x="299.999908" xlink:href="#Inconsolata-52"/>
       <use x="349.999893" xlink:href="#Inconsolata-45"/>
       <use x="399.999878" xlink:href="#Inconsolata-51"/>
       <use x="449.999863" xlink:href="#Inconsolata-48"/>
      </g>
     </g>
    </g>
   </g>
   <g id="matplotlib.axis_2">
    <g id="ytick_1">
     <g id="line2d_11">
      <path clip-path="url(#pbbac6f6262)" d="M 90 172.8 
L 648 172.8 
" style="fill:none;stroke:#ffffff;stroke-linecap:square;stroke-width:0.8;"/>
     </g>
     <g id="line2d_12">
      <defs>
       <path d="M 0 0 
L -3.5 0 
" id="m67c53da5c7" style="stroke:#555555;stroke-width:0.8;"/>
      </defs>
      <g>
       <use style="fill:#555555;stroke:#555555;stroke-width:0.8;" x="90" xlink:href="#m67c53da5c7" y="172.8"/>
      </g>
     </g>
     <g id="text_6">
      <!-- 0 -->
      <g style="fill:#555555;" transform="translate(78 176.120312)scale(0.1 -0.1)">
       <use xlink:href="#Inconsolata-48"/>
      </g>
     </g>
    </g>
    <g id="ytick_2">
     <g id="line2d_13">
      <path clip-path="url(#pbbac6f6262)" d="M 90 151.305576 
L 648 151.305576 
" style="fill:none;stroke:#ffffff;stroke-linecap:square;stroke-width:0.8;"/>
     </g>
     <g id="line2d_14">
      <g>
       <use style="fill:#555555;stroke:#555555;stroke-width:0.8;" x="90" xlink:href="#m67c53da5c7" y="151.305576"/>
      </g>
     </g>
     <g id="text_7">
      <!-- 250 -->
      <g style="fill:#555555;" transform="translate(68 154.625888)scale(0.1 -0.1)">
       <defs>
        <path d="M 10.59375 62.296875 
L 8.40625 30.59375 
L 12.90625 28.796875 
C 15.90625 32.59375 20.296875 34.703125 24.59375 34.703125 
C 31.09375 34.703125 37.296875 29.703125 37.296875 19.796875 
C 37.296875 10.203125 31.40625 5 24.703125 5 
C 18 5 13.59375 10.09375 13.296875 10.703125 
C 12.90625 11.5 13.40625 12.5 12.5 13.09375 
L 6.296875 8.40625 
C 10.5 2.296875 17.40625 -1.203125 24.796875 -1.203125 
C 35.59375 -1.203125 44.5 6.09375 44.5 19.59375 
C 44.5 33 36.09375 40.40625 25.59375 40.40625 
C 22.203125 40.40625 18.703125 39.59375 15.5 38 
L 16.40625 56 
L 42.203125 56 
L 42.203125 62.296875 
z
" id="Inconsolata-53"/>
       </defs>
       <use xlink:href="#Inconsolata-50"/>
       <use x="49.999985" xlink:href="#Inconsolata-53"/>
       <use x="99.999969" xlink:href="#Inconsolata-48"/>
      </g>
     </g>
    </g>
    <g id="ytick_3">
     <g id="line2d_15">
      <path clip-path="url(#pbbac6f6262)" d="M 90 129.811151 
L 648 129.811151 
" style="fill:none;stroke:#ffffff;stroke-linecap:square;stroke-width:0.8;"/>
     </g>
     <g id="line2d_16">
      <g>
       <use style="fill:#555555;stroke:#555555;stroke-width:0.8;" x="90" xlink:href="#m67c53da5c7" y="129.811151"/>
      </g>
     </g>
     <g id="text_8">
      <!-- 500 -->
      <g style="fill:#555555;" transform="translate(68 133.131464)scale(0.1 -0.1)">
       <use xlink:href="#Inconsolata-53"/>
       <use x="49.999985" xlink:href="#Inconsolata-48"/>
       <use x="99.999969" xlink:href="#Inconsolata-48"/>
      </g>
     </g>
    </g>
    <g id="ytick_4">
     <g id="line2d_17">
      <path clip-path="url(#pbbac6f6262)" d="M 90 108.316727 
L 648 108.316727 
" style="fill:none;stroke:#ffffff;stroke-linecap:square;stroke-width:0.8;"/>
     </g>
     <g id="line2d_18">
      <g>
       <use style="fill:#555555;stroke:#555555;stroke-width:0.8;" x="90" xlink:href="#m67c53da5c7" y="108.316727"/>
      </g>
     </g>
     <g id="text_9">
      <!-- 750 -->
      <g style="fill:#555555;" transform="translate(68 111.637039)scale(0.1 -0.1)">
       <use xlink:href="#Inconsolata-55"/>
       <use x="49.999985" xlink:href="#Inconsolata-53"/>
       <use x="99.999969" xlink:href="#Inconsolata-48"/>
      </g>
     </g>
    </g>
    <g id="ytick_5">
     <g id="line2d_19">
      <path clip-path="url(#pbbac6f6262)" d="M 90 86.822302 
L 648 86.822302 
" style="fill:none;stroke:#ffffff;stroke-linecap:square;stroke-width:0.8;"/>
     </g>
     <g id="line2d_20">
      <g>
       <use style="fill:#555555;stroke:#555555;stroke-width:0.8;" x="90" xlink:href="#m67c53da5c7" y="86.822302"/>
      </g>
     </g>
     <g id="text_10">
      <!-- 1000 -->
      <g style="fill:#555555;" transform="translate(63 90.142615)scale(0.1 -0.1)">
       <defs>
        <path d="M 29.90625 62.296875 
L 25.09375 62.296875 
L 8.796875 53.796875 
L 10.40625 49.90625 
L 22.90625 53.59375 
L 22.90625 -0.09375 
L 29.90625 -0.09375 
z
" id="Inconsolata-49"/>
       </defs>
       <use xlink:href="#Inconsolata-49"/>
       <use x="49.999985" xlink:href="#Inconsolata-48"/>
       <use x="99.999969" xlink:href="#Inconsolata-48"/>
       <use x="149.999954" xlink:href="#Inconsolata-48"/>
      </g>
     </g>
    </g>
    <g id="ytick_6">
     <g id="line2d_21">
      <path clip-path="url(#pbbac6f6262)" d="M 90 65.327878 
L 648 65.327878 
" style="fill:none;stroke:#ffffff;stroke-linecap:square;stroke-width:0.8;"/>
     </g>
     <g id="line2d_22">
      <g>
       <use style="fill:#555555;stroke:#555555;stroke-width:0.8;" x="90" xlink:href="#m67c53da5c7" y="65.327878"/>
      </g>
     </g>
     <g id="text_11">
      <!-- 1250 -->
      <g style="fill:#555555;" transform="translate(63 68.64819)scale(0.1 -0.1)">
       <use xlink:href="#Inconsolata-49"/>
       <use x="49.999985" xlink:href="#Inconsolata-50"/>
       <use x="99.999969" xlink:href="#Inconsolata-53"/>
       <use x="149.999954" xlink:href="#Inconsolata-48"/>
      </g>
     </g>
    </g>
    <g id="ytick_7">
     <g id="line2d_23">
      <path clip-path="url(#pbbac6f6262)" d="M 90 43.833453 
L 648 43.833453 
" style="fill:none;stroke:#ffffff;stroke-linecap:square;stroke-width:0.8;"/>
     </g>
     <g id="line2d_24">
      <g>
       <use style="fill:#555555;stroke:#555555;stroke-width:0.8;" x="90" xlink:href="#m67c53da5c7" y="43.833453"/>
      </g>
     </g>
     <g id="text_12">
      <!-- 1500 -->
      <g style="fill:#555555;" transform="translate(63 47.153766)scale(0.1 -0.1)">
       <use xlink:href="#Inconsolata-49"/>
       <use x="49.999985" xlink:href="#Inconsolata-53"/>
       <use x="99.999969" xlink:href="#Inconsolata-48"/>
       <use x="149.999954" xlink:href="#Inconsolata-48"/>
      </g>
     </g>
    </g>
    <g id="text_13">
     <!-- daily change -->
     <g style="fill:#555555;" transform="translate(56.91125 135.36)rotate(-90)scale(0.12 -0.12)">
      <defs>
       <path d="M 37.09375 39 
C 34.90625 43.703125 30 46.796875 23.703125 46.796875 
C 15 46.796875 4.40625 40.59375 4.40625 23.203125 
C 4.40625 6.296875 13.796875 -1.09375 22.59375 -1.09375 
C 28.40625 -1.09375 33.796875 2.203125 36.703125 7.296875 
L 36.703125 3.296875 
C 36.703125 2.203125 36.796875 1.09375 37.09375 0 
L 44.296875 0 
C 43.90625 1.296875 43.90625 2.796875 43.90625 4.203125 
L 43.796875 63.59375 
C 43.796875 64.203125 43.796875 64.40625 44.203125 65 
C 44.40625 65.296875 44.796875 65.796875 44.703125 66.5 
L 37.09375 66.5 
z
M 24 40.90625 
C 28 40.90625 33.90625 38.796875 35.703125 32 
C 36.296875 29.90625 36.5 27.40625 36.5 22.296875 
C 36.5 18.796875 36.296875 16.296875 35.5 13.90625 
C 33.796875 8.5 29 5.296875 24.296875 5.296875 
C 19.09375 5.296875 11.40625 9.296875 11.40625 24.296875 
C 11.40625 37.40625 18.703125 40.90625 24 40.90625 
z
" id="Inconsolata-100"/>
       <path d="M 9 40.296875 
L 12.5 35.703125 
C 16.296875 39.59375 21.40625 40.796875 25.703125 40.796875 
C 31.09375 40.796875 33.796875 38.5 35.09375 36.40625 
C 36.59375 33.90625 36.5 30.90625 36.5 28.5 
L 36.5 26.90625 
L 35.09375 26.90625 
C 28.296875 26.90625 21.09375 26.90625 15.296875 24.796875 
C 8.09375 22.203125 4.90625 16.796875 4.90625 11.796875 
C 4.90625 5.09375 10.703125 -1.203125 20.203125 -1.203125 
C 25.796875 -1.203125 31.59375 0.90625 36.59375 5 
L 36.59375 0 
L 43.40625 0 
L 43.40625 28.296875 
C 43.40625 32 43.296875 35.5 41.203125 39.09375 
C 38.203125 44 32.40625 46.59375 25.296875 46.59375 
C 19.203125 46.59375 13.296875 44.703125 9 40.296875 
z
M 36.796875 21.40625 
L 36.796875 18.296875 
C 36.796875 16 36.796875 13 33.703125 9.703125 
C 32 8 27.703125 4.296875 21.703125 4.296875 
C 15.59375 4.296875 12.09375 8.203125 12.09375 12.203125 
C 12.09375 15.59375 14.40625 19.296875 20.09375 20.703125 
C 24.296875 21.703125 30.40625 21.40625 35.203125 21.40625 
z
" id="Inconsolata-97"/>
       <path d="M 10.59375 45.703125 
L 10.59375 39.796875 
L 21.59375 39.796875 
L 21.59375 5.703125 
L 10 5.703125 
L 10 0 
L 39.59375 0 
L 39.59375 5.703125 
L 28.90625 5.703125 
L 28.90625 45.703125 
z
M 25.40625 65.5 
C 22.5 65.5 20.203125 63.203125 20.203125 60.40625 
C 20.203125 57.59375 22.5 55.296875 25.40625 55.296875 
C 28.296875 55.296875 30.59375 57.59375 30.59375 60.40625 
C 30.59375 63.203125 28.296875 65.5 25.40625 65.5 
z
" id="Inconsolata-105"/>
       <path d="M 8.40625 66.40625 
L 8.40625 60.59375 
L 21.40625 60.59375 
L 21.40625 5.703125 
L 7.796875 5.703125 
L 7.796875 0 
L 42.09375 0 
L 42.09375 5.703125 
L 28.59375 5.703125 
L 28.59375 66.40625 
z
" id="Inconsolata-108"/>
       <path d="M 4.5 45.59375 
L 23.09375 0.09375 
L 21.59375 -3.203125 
C 20.796875 -5.09375 19.90625 -7 18.5 -8.5 
C 16.59375 -10.59375 14.203125 -11.5 12.09375 -11.5 
C 8.703125 -11.5 7 -9.203125 6.703125 -8.796875 
C 6.40625 -8.296875 6.5 -7.59375 5.90625 -7.09375 
L 2.203125 -13.59375 
C 4.796875 -16.09375 8.296875 -17.40625 12.09375 -17.40625 
C 16.203125 -17.40625 20.5 -15.90625 23.5 -12.5 
C 25.5 -10.203125 26.5 -7.796875 27.5 -5.203125 
L 41.703125 32.5 
C 43.40625 36.796875 44.90625 41.203125 46.296875 45.703125 
L 38.796875 45.703125 
C 38 41.5 36.703125 37.5 35.296875 33.5 
L 26.59375 9 
L 13.203125 42.703125 
C 13.09375 43 13.09375 43.203125 13.09375 43.5 
C 13.09375 44.203125 13.59375 44.703125 13.5 45.59375 
z
" id="Inconsolata-121"/>
       <path id="Inconsolata-32"/>
       <path d="M 45.59375 38.09375 
C 42 43.40625 35.90625 46.59375 28.5 46.59375 
C 15.09375 46.59375 5.59375 36.5 5.59375 22.796875 
C 5.59375 9 15.09375 -1.203125 28.09375 -1.203125 
C 34.40625 -1.203125 40.59375 1.40625 44.90625 6.09375 
L 40.796875 10.90625 
C 37.703125 7.40625 33.203125 5.40625 28.703125 5.40625 
C 19.796875 5.40625 13 12.796875 13 23.5 
C 13 33.90625 19.703125 40.40625 28.09375 40.40625 
C 35.90625 40.40625 39.59375 35 39.90625 34.40625 
C 40.296875 33.703125 39.703125 32.703125 40.5 32.09375 
z
" id="Inconsolata-99"/>
       <path d="M 6.90625 0 
L 14.296875 0 
L 14.296875 26.296875 
C 14.296875 29.296875 14.59375 31.59375 16.5 34.09375 
C 18.296875 36.40625 22.703125 40.5 27.5 40.5 
C 29.796875 40.5 32.09375 39.5 33.703125 37.59375 
C 36.203125 34.59375 36.203125 30.703125 36.203125 27.5 
L 36.203125 0 
L 43.296875 0 
L 43.296875 27.703125 
C 43.296875 31.203125 43.203125 35 41.59375 38.703125 
C 39.296875 43.796875 34.703125 46.703125 29.5 46.703125 
C 23.296875 46.703125 17.59375 42.703125 14.296875 37.59375 
L 14.296875 64.09375 
C 14.296875 64.40625 14.296875 64.703125 14.59375 65 
C 14.90625 65.296875 15.296875 65.59375 15.296875 66.09375 
C 15.296875 66.203125 15.296875 66.296875 15.203125 66.40625 
L 6.90625 66.40625 
z
" id="Inconsolata-104"/>
       <path d="M 6.796875 0 
L 14.09375 0 
L 14.09375 26.296875 
C 14.09375 29.296875 14.5 31.59375 16.40625 34.09375 
C 18.09375 36.40625 22.5 40.5 27.296875 40.5 
C 29.59375 40.5 31.90625 39.5 33.5 37.59375 
C 36 34.59375 36 30.703125 36 27.5 
L 36 0 
L 43.09375 0 
L 43.09375 27.703125 
C 43.09375 31.203125 43.09375 35 41.5 38.703125 
C 39.203125 43.796875 34.5 46.703125 29.296875 46.703125 
C 23.09375 46.703125 17.5 42.703125 14.09375 37.59375 
L 14.09375 45.59375 
L 6.796875 45.59375 
z
" id="Inconsolata-110"/>
       <path d="M 12.5 31.40625 
C 12.5 36.90625 17.09375 41.40625 22.59375 41.40625 
C 28.203125 41.40625 32.703125 36.90625 32.703125 31.40625 
C 32.703125 25.90625 28.203125 21.40625 22.59375 21.40625 
C 17 21.40625 12.5 25.90625 12.5 31.40625 
z
M 23 47.09375 
C 13.90625 47.09375 6 39.90625 6 31 
C 6 26 8.5 21.296875 12.703125 18.59375 
C 9.40625 15.796875 7.5 12.703125 7.5 9.796875 
C 7.5 7.90625 8.296875 5.203125 11.203125 3.703125 
C 6.296875 0.59375 3.796875 -2.796875 3.796875 -6.40625 
C 3.796875 -11.40625 8.40625 -17.296875 24.40625 -17.296875 
C 39.90625 -17.296875 45.5 -9.40625 45.5 -3.296875 
C 45.5 0.703125 43.203125 4.703125 38.40625 6.59375 
C 33.59375 8.59375 28.09375 7.90625 22.90625 7.90625 
C 19.5 7.90625 17.296875 8.203125 16.40625 8.5 
C 14.59375 9 13.59375 10.09375 13.59375 11.5 
C 13.59375 13.90625 16.40625 16.203125 16.90625 16.59375 
C 18.703125 15.90625 20.703125 15.59375 22.703125 15.59375 
C 31.703125 15.59375 39.09375 22.796875 39.09375 31.203125 
C 39.09375 34 38.296875 36.703125 36.796875 39 
C 39.203125 40.40625 42 41.203125 44.796875 41.203125 
C 45.703125 41.203125 46.5 41.09375 47.40625 40.90625 
L 46.59375 46.796875 
C 42 47.203125 37.40625 45.703125 33.90625 42.796875 
C 31 45.59375 27.203125 47.09375 23 47.09375 
z
M 16.09375 2.40625 
C 17.796875 2.203125 20.203125 2 23.703125 1.796875 
C 27.09375 1.703125 30.796875 2 33.40625 1.59375 
C 37.59375 0.90625 38.90625 -1.703125 38.90625 -3.703125 
C 38.90625 -5.703125 37.703125 -8.09375 34.59375 -9.796875 
C 31.203125 -11.59375 27.40625 -11.796875 24.296875 -11.796875 
C 22.203125 -11.796875 18.296875 -11.703125 14.90625 -10.296875 
C 11.203125 -8.796875 10.40625 -6.296875 10.40625 -4.703125 
C 10.40625 -1.40625 13.5 1 16.09375 2.40625 
z
" id="Inconsolata-103"/>
       <path d="M 25.796875 46.703125 
C 14.90625 46.703125 4.796875 38.90625 4.796875 22.296875 
C 4.796875 7 14.296875 -1.09375 26.703125 -1.09375 
C 33.296875 -1.09375 39.203125 1.296875 43.09375 6 
L 39.09375 9.90625 
C 36.203125 6.5 31.796875 4.703125 27.296875 4.703125 
C 21.203125 4.703125 12.296875 8.09375 11.796875 21.796875 
L 44.203125 21.796875 
C 44.5 24.90625 44.40625 27.90625 43.90625 30.5 
C 41.796875 42.796875 33.296875 46.703125 25.796875 46.703125 
z
M 12 27.296875 
C 13.5 38.09375 20.40625 41.203125 25.296875 41.203125 
C 32.703125 41.203125 38 34.703125 37.09375 27.296875 
z
" id="Inconsolata-101"/>
      </defs>
      <use xlink:href="#Inconsolata-100"/>
      <use x="49.999985" xlink:href="#Inconsolata-97"/>
      <use x="99.999969" xlink:href="#Inconsolata-105"/>
      <use x="149.999954" xlink:href="#Inconsolata-108"/>
      <use x="199.999939" xlink:href="#Inconsolata-121"/>
      <use x="249.999924" xlink:href="#Inconsolata-32"/>
      <use x="299.999908" xlink:href="#Inconsolata-99"/>
      <use x="349.999893" xlink:href="#Inconsolata-104"/>
      <use x="399.999878" xlink:href="#Inconsolata-97"/>
      <use x="449.999863" xlink:href="#Inconsolata-110"/>
      <use x="499.999847" xlink:href="#Inconsolata-103"/>
      <use x="549.999832" xlink:href="#Inconsolata-101"/>
     </g>
    </g>
   </g>
   <g id="patch_3">
    <path clip-path="url(#pbbac6f6262)" d="M 115.363636 172.8 
L 199.909091 172.8 
L 199.909091 64.726034 
L 115.363636 64.726034 
z
" style="fill:#348abd;opacity:0.5;"/>
   </g>
   <g id="patch_4">
    <path clip-path="url(#pbbac6f6262)" d="M 221.045455 172.8 
L 305.590909 172.8 
L 305.590909 87.854035 
L 221.045455 87.854035 
z
" style="fill:#348abd;opacity:0.5;"/>
   </g>
   <g id="patch_5">
    <path clip-path="url(#pbbac6f6262)" d="M 326.727273 172.8 
L 411.272727 172.8 
L 411.272727 73.581737 
L 326.727273 73.581737 
z
" style="fill:#348abd;opacity:0.5;"/>
   </g>
   <g id="patch_6">
    <path clip-path="url(#pbbac6f6262)" d="M 432.409091 172.8 
L 516.954545 172.8 
L 516.954545 32.914286 
L 432.409091 32.914286 
z
" style="fill:#348abd;opacity:0.5;"/>
   </g>
   <g id="patch_7">
    <path clip-path="url(#pbbac6f6262)" d="M 538.090909 172.8 
L 622.636364 172.8 
L 622.636364 46.412784 
L 538.090909 46.412784 
z
" style="fill:#348abd;opacity:0.5;"/>
   </g>
   <g id="patch_8">
    <path d="M 90 172.8 
L 90 25.92 
" style="fill:none;stroke:#ffffff;stroke-linecap:square;stroke-linejoin:miter;"/>
   </g>
   <g id="patch_9">
    <path d="M 648 172.8 
L 648 25.92 
" style="fill:none;stroke:#ffffff;stroke-linecap:square;stroke-linejoin:miter;"/>
   </g>
   <g id="patch_10">
    <path d="M 90 172.8 
L 648 172.8 
" style="fill:none;stroke:#ffffff;stroke-linecap:square;stroke-linejoin:miter;"/>
   </g>
   <g id="patch_11">
    <path d="M 90 25.92 
L 648 25.92 
" style="fill:none;stroke:#ffffff;stroke-linecap:square;stroke-linejoin:miter;"/>
   </g>
   <g id="legend_1">
    <g id="patch_12">
     <path d="M 97 47.590312 
L 144 47.590312 
Q 146 47.590312 146 45.590312 
L 146 32.92 
Q 146 30.92 144 30.92 
L 97 30.92 
Q 95 30.92 95 32.92 
L 95 45.590312 
Q 95 47.590312 97 47.590312 
z
" style="fill:#e5e5e5;opacity:0.8;stroke:#cccccc;stroke-linejoin:miter;stroke-width:0.5;"/>
    </g>
    <g id="patch_13">
     <path d="M 99 41.92 
L 119 41.92 
L 119 34.92 
L 99 34.92 
z
" style="fill:#348abd;opacity:0.5;"/>
    </g>
    <g id="text_14">
     <!-- new -->
     <g transform="translate(127 41.92)scale(0.1 -0.1)">
      <defs>
       <path d="M 1.5 45.703125 
L 10.703125 -0.09375 
L 17.203125 -0.09375 
L 25.203125 29.5 
L 33.703125 -0.09375 
L 40.40625 -0.09375 
C 43.5 15 46.09375 30.296875 48 45.59375 
L 41.40625 45.59375 
C 41.59375 40.09375 41.09375 35 37.09375 9 
L 27.5 41.40625 
L 23.09375 41.40625 
L 15.203125 8.90625 
L 8.59375 41.90625 
C 8.40625 42.59375 8.40625 42.90625 8.703125 43.703125 
C 8.796875 44.203125 9.09375 44.90625 8.796875 45.703125 
z
" id="Inconsolata-119"/>
      </defs>
      <use xlink:href="#Inconsolata-110"/>
      <use x="49.999985" xlink:href="#Inconsolata-101"/>
      <use x="99.999969" xlink:href="#Inconsolata-119"/>
     </g>
    </g>
   </g>
  </g>
 </g>
 <defs>
  <clipPath id="pbbac6f6262">
   <rect height="146.88" width="558" x="90" y="25.92"/>
  </clipPath>
 </defs>
</svg>
