<?xml version="1.0" encoding="utf-8" standalone="no"?>
<!DOCTYPE svg PUBLIC "-//W3C//DTD SVG 1.1//EN"
  "http://www.w3.org/Graphics/SVG/1.1/DTD/svg11.dtd">
<!-- Created with matplotlib (https://matplotlib.org/) -->
<svg height="180pt" version="1.1" viewBox="0 0 864 180" width="864pt" xmlns="http://www.w3.org/2000/svg" xmlns:xlink="http://www.w3.org/1999/xlink">
 <defs>
  <style type="text/css">
*{stroke-linecap:butt;stroke-linejoin:round;}
  </style>
 </defs>
 <g id="figure_1">
  <g id="patch_1">
   <path d="M 0 180 
L 864 180 
L 864 0 
L 0 0 
z
" style="fill:#ffffff;"/>
  </g>
  <g id="axes_1">
   <g id="patch_2">
    <path d="M 51.8 153.2 
L 853.2 153.2 
L 853.2 10.8 
L 51.8 10.8 
z
" style="fill:#e5e5e5;"/>
   </g>
   <g id="matplotlib.axis_1">
    <g id="xtick_1">
     <g id="line2d_1">
      <path clip-path="url(#peacaf6d8ee)" d="M 163.649379 153.2 
L 163.649379 10.8 
" style="fill:none;stroke:#ffffff;stroke-linecap:square;stroke-width:0.8;"/>
     </g>
     <g id="line2d_2">
      <defs>
       <path d="M 0 0 
L 0 3.5 
" id="mbef197e6ae" style="stroke:#555555;stroke-width:0.8;"/>
      </defs>
      <g>
       <use style="fill:#555555;stroke:#555555;stroke-width:0.8;" x="163.649379" xlink:href="#mbef197e6ae" y="153.2"/>
      </g>
     </g>
     <g id="text_1">
      <!-- 2020-02-01 -->
      <defs>
       <path d="M 7.296875 5.59375 
L 15.40625 13.796875 
Q 23.5 21.90625 27.546875 26.5 
Q 31.59375 31.09375 34 35.640625 
Q 36.40625 40.203125 36.40625 45.09375 
Q 36.40625 51.203125 33.5 53.890625 
Q 30.59375 56.59375 25.796875 56.59375 
Q 21.5 56.59375 17.84375 54.6875 
Q 14.203125 52.796875 13 50.5 
Q 12.40625 49.40625 11.796875 48.25 
Q 11.203125 47.09375 11.203125 46.90625 
Q 11.203125 46.796875 11.296875 46.796875 
Q 11.40625 46.796875 11.703125 46.9375 
Q 12 47.09375 12.09375 46.703125 
L 11.796875 46.09375 
L 10.90625 46.59375 
L 5.796875 50.59375 
Q 8.796875 56.40625 14 59.546875 
Q 19.203125 62.703125 25.703125 62.703125 
Q 33.703125 62.703125 38.640625 57.890625 
Q 43.59375 53.09375 43.59375 44.90625 
Q 43.59375 39.5 41 34.390625 
Q 38.40625 29.296875 34.34375 24.6875 
Q 30.296875 20.09375 23.09375 13 
L 16.296875 6.09375 
L 39.5 6.09375 
Q 41.09375 6.09375 41.84375 6.296875 
Q 42.59375 6.5 43.203125 7.09375 
L 43.90625 7.09375 
L 43.90625 0 
L 7.296875 0 
z
" id="Inconsolata-Regular-50"/>
       <path d="M 25 62.703125 
Q 34.203125 62.703125 39.25 54.203125 
Q 44.296875 45.703125 44.296875 30.796875 
Q 44.296875 15.5 39.296875 7.203125 
Q 34.296875 -1.09375 25 -1.09375 
Q 15.703125 -1.09375 10.703125 7.203125 
Q 5.703125 15.5 5.703125 30.796875 
Q 5.703125 45.703125 10.75 54.203125 
Q 15.796875 62.703125 25 62.703125 
z
M 25 56.59375 
Q 19.296875 56.59375 16.09375 49.640625 
Q 12.90625 42.703125 12.90625 30.796875 
Q 12.90625 24.296875 13.796875 19.296875 
L 35 46.703125 
Q 33.5 51.5 30.953125 54.046875 
Q 28.40625 56.59375 25 56.59375 
z
M 25 5 
Q 30.703125 5 33.890625 11.703125 
Q 37.09375 18.40625 37.09375 30.796875 
Q 37.09375 36.59375 36.40625 40.796875 
L 15.203125 13.796875 
Q 18.40625 5 25 5 
z
" id="Inconsolata-Regular-48"/>
       <path d="M 7.09375 28.09375 
L 7.09375 34.796875 
L 43.09375 34.796875 
L 43.09375 28.09375 
z
" id="Inconsolata-Regular-45"/>
       <path d="M 23 0 
L 23 53.703125 
L 10.40625 50 
L 8.796875 53.90625 
L 25.09375 62.40625 
L 30 62.40625 
L 30 0 
z
" id="Inconsolata-Regular-49"/>
      </defs>
      <g style="fill:#555555;" transform="translate(138.649379 166.85)scale(0.1 -0.1)">
       <use xlink:href="#Inconsolata-Regular-50"/>
       <use x="49.999985" xlink:href="#Inconsolata-Regular-48"/>
       <use x="99.999969" xlink:href="#Inconsolata-Regular-50"/>
       <use x="149.999954" xlink:href="#Inconsolata-Regular-48"/>
       <use x="199.999939" xlink:href="#Inconsolata-Regular-45"/>
       <use x="249.999924" xlink:href="#Inconsolata-Regular-48"/>
       <use x="299.999908" xlink:href="#Inconsolata-Regular-50"/>
       <use x="349.999893" xlink:href="#Inconsolata-Regular-45"/>
       <use x="399.999878" xlink:href="#Inconsolata-Regular-48"/>
       <use x="449.999863" xlink:href="#Inconsolata-Regular-49"/>
      </g>
     </g>
    </g>
    <g id="xtick_2">
     <g id="line2d_3">
      <path clip-path="url(#peacaf6d8ee)" d="M 275.980176 153.2 
L 275.980176 10.8 
" style="fill:none;stroke:#ffffff;stroke-linecap:square;stroke-width:0.8;"/>
     </g>
     <g id="line2d_4">
      <g>
       <use style="fill:#555555;stroke:#555555;stroke-width:0.8;" x="275.980176" xlink:href="#mbef197e6ae" y="153.2"/>
      </g>
     </g>
     <g id="text_2">
      <!-- 2020-02-15 -->
      <defs>
       <path d="M 25.703125 40.5 
Q 31.09375 40.5 35.34375 37.953125 
Q 39.59375 35.40625 42.046875 30.65625 
Q 44.5 25.90625 44.5 19.59375 
Q 44.5 13.296875 41.953125 8.59375 
Q 39.40625 3.90625 34.953125 1.40625 
Q 30.5 -1.09375 24.90625 -1.09375 
Q 19.203125 -1.09375 14.34375 1.40625 
Q 9.5 3.90625 6.40625 8.5 
L 12 12.703125 
L 12.09375 12.796875 
Q 12.203125 12.796875 12.203125 12.75 
Q 12.203125 12.703125 12.203125 12.703125 
Q 14.796875 8.703125 17.6875 6.84375 
Q 20.59375 5 25.296875 5 
Q 28.5 5 31.296875 6.84375 
Q 34.09375 8.703125 35.75 12.046875 
Q 37.40625 15.40625 37.40625 19.90625 
Q 37.40625 26.703125 33.75 30.703125 
Q 30.09375 34.703125 24.59375 34.703125 
Q 21.40625 34.703125 18.296875 33.140625 
Q 15.203125 31.59375 12.90625 28.796875 
L 8.5 30.59375 
L 10.59375 62.296875 
L 42.203125 62.296875 
L 42.203125 56 
L 16.5 56 
L 15.5 38.09375 
Q 20.40625 40.5 25.703125 40.5 
z
M 12.09375 12.796875 
Q 11.59375 13.59375 12.296875 12.90625 
L 12.09375 12.796875 
z
M 13.203125 12.796875 
Q 13.203125 12.203125 12.296875 12.90625 
L 12.796875 13.296875 
L 13.203125 12.796875 
z
" id="Inconsolata-Regular-53"/>
      </defs>
      <g style="fill:#555555;" transform="translate(250.980176 166.85)scale(0.1 -0.1)">
       <use xlink:href="#Inconsolata-Regular-50"/>
       <use x="49.999985" xlink:href="#Inconsolata-Regular-48"/>
       <use x="99.999969" xlink:href="#Inconsolata-Regular-50"/>
       <use x="149.999954" xlink:href="#Inconsolata-Regular-48"/>
       <use x="199.999939" xlink:href="#Inconsolata-Regular-45"/>
       <use x="249.999924" xlink:href="#Inconsolata-Regular-48"/>
       <use x="299.999908" xlink:href="#Inconsolata-Regular-50"/>
       <use x="349.999893" xlink:href="#Inconsolata-Regular-45"/>
       <use x="399.999878" xlink:href="#Inconsolata-Regular-49"/>
       <use x="449.999863" xlink:href="#Inconsolata-Regular-53"/>
      </g>
     </g>
    </g>
    <g id="xtick_3">
     <g id="line2d_5">
      <path clip-path="url(#peacaf6d8ee)" d="M 396.334602 153.2 
L 396.334602 10.8 
" style="fill:none;stroke:#ffffff;stroke-linecap:square;stroke-width:0.8;"/>
     </g>
     <g id="line2d_6">
      <g>
       <use style="fill:#555555;stroke:#555555;stroke-width:0.8;" x="396.334602" xlink:href="#mbef197e6ae" y="153.2"/>
      </g>
     </g>
     <g id="text_3">
      <!-- 2020-03-01 -->
      <defs>
       <path d="M 30.796875 33 
Q 36.296875 31.203125 39.5 27.203125 
Q 42.703125 23.203125 42.703125 17.09375 
Q 42.703125 12.09375 40.5 7.9375 
Q 38.296875 3.796875 34.09375 1.34375 
Q 29.90625 -1.09375 24 -1.09375 
Q 19 -1.09375 14.546875 0.703125 
Q 10.09375 2.5 6.90625 6 
L 11.5 11.5 
L 11.59375 11.59375 
L 11.703125 11.5 
Q 14.203125 8.296875 16.84375 6.59375 
Q 19.5 4.90625 23.703125 4.90625 
Q 29.5 4.90625 32.5 8.296875 
Q 35.5 11.703125 35.5 17.40625 
Q 35.5 23.59375 31.75 26.6875 
Q 28 29.796875 21.203125 29.796875 
Q 20.203125 29.796875 18 29.59375 
L 18 35.203125 
Q 26.90625 35.203125 30.15625 38.5 
Q 33.40625 41.796875 33.40625 47.5 
Q 33.40625 51.703125 30.953125 54.203125 
Q 28.5 56.703125 24.5 56.703125 
Q 18 56.703125 13.09375 52.09375 
L 8.90625 56.296875 
Q 15 62.703125 24.40625 62.703125 
Q 31.90625 62.703125 36.25 58.453125 
Q 40.59375 54.203125 40.59375 47.203125 
Q 40.59375 42.09375 38.09375 38.296875 
Q 35.59375 34.5 30.796875 33 
z
M 12.703125 11.796875 
Q 12.703125 11.5 12.390625 11.546875 
Q 12.09375 11.59375 11.796875 11.796875 
L 12.203125 12.296875 
L 12.703125 11.796875 
z
M 11.59375 11.59375 
Q 11.203125 12.296875 11.453125 12.09375 
Q 11.703125 11.90625 11.796875 11.796875 
L 11.59375 11.59375 
z
" id="Inconsolata-Regular-51"/>
      </defs>
      <g style="fill:#555555;" transform="translate(371.334602 166.85)scale(0.1 -0.1)">
       <use xlink:href="#Inconsolata-Regular-50"/>
       <use x="49.999985" xlink:href="#Inconsolata-Regular-48"/>
       <use x="99.999969" xlink:href="#Inconsolata-Regular-50"/>
       <use x="149.999954" xlink:href="#Inconsolata-Regular-48"/>
       <use x="199.999939" xlink:href="#Inconsolata-Regular-45"/>
       <use x="249.999924" xlink:href="#Inconsolata-Regular-48"/>
       <use x="299.999908" xlink:href="#Inconsolata-Regular-51"/>
       <use x="349.999893" xlink:href="#Inconsolata-Regular-45"/>
       <use x="399.999878" xlink:href="#Inconsolata-Regular-48"/>
       <use x="449.999863" xlink:href="#Inconsolata-Regular-49"/>
      </g>
     </g>
    </g>
    <g id="xtick_4">
     <g id="line2d_7">
      <path clip-path="url(#peacaf6d8ee)" d="M 508.665398 153.2 
L 508.665398 10.8 
" style="fill:none;stroke:#ffffff;stroke-linecap:square;stroke-width:0.8;"/>
     </g>
     <g id="line2d_8">
      <g>
       <use style="fill:#555555;stroke:#555555;stroke-width:0.8;" x="508.665398" xlink:href="#mbef197e6ae" y="153.2"/>
      </g>
     </g>
     <g id="text_4">
      <!-- 2020-03-15 -->
      <g style="fill:#555555;" transform="translate(483.665398 166.85)scale(0.1 -0.1)">
       <use xlink:href="#Inconsolata-Regular-50"/>
       <use x="49.999985" xlink:href="#Inconsolata-Regular-48"/>
       <use x="99.999969" xlink:href="#Inconsolata-Regular-50"/>
       <use x="149.999954" xlink:href="#Inconsolata-Regular-48"/>
       <use x="199.999939" xlink:href="#Inconsolata-Regular-45"/>
       <use x="249.999924" xlink:href="#Inconsolata-Regular-48"/>
       <use x="299.999908" xlink:href="#Inconsolata-Regular-51"/>
       <use x="349.999893" xlink:href="#Inconsolata-Regular-45"/>
       <use x="399.999878" xlink:href="#Inconsolata-Regular-49"/>
       <use x="449.999863" xlink:href="#Inconsolata-Regular-53"/>
      </g>
     </g>
    </g>
    <g id="xtick_5">
     <g id="line2d_9">
      <path clip-path="url(#peacaf6d8ee)" d="M 645.06708 153.2 
L 645.06708 10.8 
" style="fill:none;stroke:#ffffff;stroke-linecap:square;stroke-width:0.8;"/>
     </g>
     <g id="line2d_10">
      <g>
       <use style="fill:#555555;stroke:#555555;stroke-width:0.8;" x="645.06708" xlink:href="#mbef197e6ae" y="153.2"/>
      </g>
     </g>
     <g id="text_5">
      <!-- 2020-04-01 -->
      <defs>
       <path d="M 31.796875 0 
L 31.796875 15.296875 
L 4.796875 15.296875 
L 4.796875 20.40625 
L 33.296875 62.40625 
L 39.203125 62.40625 
L 39.203125 21.09375 
L 47.203125 21.09375 
L 47.203125 15.203125 
L 39.203125 15.203125 
L 39.203125 0 
z
M 12.90625 21.203125 
L 31.796875 21.203125 
L 31.796875 49.796875 
z
" id="Inconsolata-Regular-52"/>
      </defs>
      <g style="fill:#555555;" transform="translate(620.06708 166.85)scale(0.1 -0.1)">
       <use xlink:href="#Inconsolata-Regular-50"/>
       <use x="49.999985" xlink:href="#Inconsolata-Regular-48"/>
       <use x="99.999969" xlink:href="#Inconsolata-Regular-50"/>
       <use x="149.999954" xlink:href="#Inconsolata-Regular-48"/>
       <use x="199.999939" xlink:href="#Inconsolata-Regular-45"/>
       <use x="249.999924" xlink:href="#Inconsolata-Regular-48"/>
       <use x="299.999908" xlink:href="#Inconsolata-Regular-52"/>
       <use x="349.999893" xlink:href="#Inconsolata-Regular-45"/>
       <use x="399.999878" xlink:href="#Inconsolata-Regular-48"/>
       <use x="449.999863" xlink:href="#Inconsolata-Regular-49"/>
      </g>
     </g>
    </g>
    <g id="xtick_6">
     <g id="line2d_11">
      <path clip-path="url(#peacaf6d8ee)" d="M 757.397877 153.2 
L 757.397877 10.8 
" style="fill:none;stroke:#ffffff;stroke-linecap:square;stroke-width:0.8;"/>
     </g>
     <g id="line2d_12">
      <g>
       <use style="fill:#555555;stroke:#555555;stroke-width:0.8;" x="757.397877" xlink:href="#mbef197e6ae" y="153.2"/>
      </g>
     </g>
     <g id="text_6">
      <!-- 2020-04-15 -->
      <g style="fill:#555555;" transform="translate(732.397877 166.85)scale(0.1 -0.1)">
       <use xlink:href="#Inconsolata-Regular-50"/>
       <use x="49.999985" xlink:href="#Inconsolata-Regular-48"/>
       <use x="99.999969" xlink:href="#Inconsolata-Regular-50"/>
       <use x="149.999954" xlink:href="#Inconsolata-Regular-48"/>
       <use x="199.999939" xlink:href="#Inconsolata-Regular-45"/>
       <use x="249.999924" xlink:href="#Inconsolata-Regular-48"/>
       <use x="299.999908" xlink:href="#Inconsolata-Regular-52"/>
       <use x="349.999893" xlink:href="#Inconsolata-Regular-45"/>
       <use x="399.999878" xlink:href="#Inconsolata-Regular-49"/>
       <use x="449.999863" xlink:href="#Inconsolata-Regular-53"/>
      </g>
     </g>
    </g>
   </g>
   <g id="matplotlib.axis_2">
    <g id="ytick_1">
     <g id="line2d_13">
      <path clip-path="url(#peacaf6d8ee)" d="M 51.8 153.2 
L 853.2 153.2 
" style="fill:none;stroke:#ffffff;stroke-linecap:square;stroke-width:0.8;"/>
     </g>
     <g id="line2d_14">
      <defs>
       <path d="M 0 0 
L -3.5 0 
" id="m2fb6e41601" style="stroke:#555555;stroke-width:0.8;"/>
      </defs>
      <g>
       <use style="fill:#555555;stroke:#555555;stroke-width:0.8;" x="51.8" xlink:href="#m2fb6e41601" y="153.2"/>
      </g>
     </g>
     <g id="text_7">
      <!-- 0 -->
      <g style="fill:#555555;" transform="translate(39.8 156.525)scale(0.1 -0.1)">
       <use xlink:href="#Inconsolata-Regular-48"/>
      </g>
     </g>
    </g>
    <g id="ytick_2">
     <g id="line2d_15">
      <path clip-path="url(#peacaf6d8ee)" d="M 51.8 122.141017 
L 853.2 122.141017 
" style="fill:none;stroke:#ffffff;stroke-linecap:square;stroke-width:0.8;"/>
     </g>
     <g id="line2d_16">
      <g>
       <use style="fill:#555555;stroke:#555555;stroke-width:0.8;" x="51.8" xlink:href="#m2fb6e41601" y="122.141017"/>
      </g>
     </g>
     <g id="text_8">
      <!-- 2000 -->
      <g style="fill:#555555;" transform="translate(24.8 125.466017)scale(0.1 -0.1)">
       <use xlink:href="#Inconsolata-Regular-50"/>
       <use x="49.999985" xlink:href="#Inconsolata-Regular-48"/>
       <use x="99.999969" xlink:href="#Inconsolata-Regular-48"/>
       <use x="149.999954" xlink:href="#Inconsolata-Regular-48"/>
      </g>
     </g>
    </g>
    <g id="ytick_3">
     <g id="line2d_17">
      <path clip-path="url(#peacaf6d8ee)" d="M 51.8 91.082035 
L 853.2 91.082035 
" style="fill:none;stroke:#ffffff;stroke-linecap:square;stroke-width:0.8;"/>
     </g>
     <g id="line2d_18">
      <g>
       <use style="fill:#555555;stroke:#555555;stroke-width:0.8;" x="51.8" xlink:href="#m2fb6e41601" y="91.082035"/>
      </g>
     </g>
     <g id="text_9">
      <!-- 4000 -->
      <g style="fill:#555555;" transform="translate(24.8 94.407035)scale(0.1 -0.1)">
       <use xlink:href="#Inconsolata-Regular-52"/>
       <use x="49.999985" xlink:href="#Inconsolata-Regular-48"/>
       <use x="99.999969" xlink:href="#Inconsolata-Regular-48"/>
       <use x="149.999954" xlink:href="#Inconsolata-Regular-48"/>
      </g>
     </g>
    </g>
    <g id="ytick_4">
     <g id="line2d_19">
      <path clip-path="url(#peacaf6d8ee)" d="M 51.8 60.023052 
L 853.2 60.023052 
" style="fill:none;stroke:#ffffff;stroke-linecap:square;stroke-width:0.8;"/>
     </g>
     <g id="line2d_20">
      <g>
       <use style="fill:#555555;stroke:#555555;stroke-width:0.8;" x="51.8" xlink:href="#m2fb6e41601" y="60.023052"/>
      </g>
     </g>
     <g id="text_10">
      <!-- 6000 -->
      <defs>
       <path d="M 26.796875 40.203125 
Q 31.5 40.203125 35.390625 37.640625 
Q 39.296875 35.09375 41.59375 30.4375 
Q 43.90625 25.796875 43.90625 19.796875 
Q 43.90625 13.703125 41.546875 9 
Q 39.203125 4.296875 35.09375 1.640625 
Q 31 -1 26.09375 -1 
Q 16.90625 -1 11.796875 6.84375 
Q 6.703125 14.703125 6.703125 28.40625 
Q 6.703125 39.40625 9.390625 47.203125 
Q 12.09375 55 17.046875 59 
Q 22 63 28.703125 63 
Q 36.5 63 42.40625 57.296875 
L 38 52.296875 
L 37.90625 52.203125 
Q 35.796875 54.796875 33.84375 55.796875 
Q 31.90625 56.796875 28.90625 56.796875 
Q 25.59375 56.796875 22.1875 54.75 
Q 18.796875 52.703125 16.25 47.34375 
Q 13.703125 42 13.59375 32.703125 
Q 15.703125 36.203125 19.25 38.203125 
Q 22.796875 40.203125 26.796875 40.203125 
z
M 36.796875 52 
Q 36.796875 52.59375 37.703125 51.90625 
L 37.296875 51.5 
L 36.796875 52 
z
M 37.90625 52.203125 
Q 38.5 51.40625 38.140625 51.65625 
Q 37.796875 51.90625 37.703125 51.90625 
L 37.90625 52.203125 
z
M 26.40625 5.203125 
Q 30.90625 5.203125 34 9.046875 
Q 37.09375 12.90625 37.09375 19.703125 
Q 37.09375 24.40625 35.5 27.65625 
Q 33.90625 30.90625 31.40625 32.5 
Q 28.90625 34.09375 26.203125 34.09375 
Q 22.703125 34.09375 19.390625 31.75 
Q 16.09375 29.40625 14 25.703125 
Q 13.796875 24.09375 13.796875 23.09375 
Q 13.796875 18.703125 15.34375 14.59375 
Q 16.90625 10.5 19.796875 7.84375 
Q 22.703125 5.203125 26.40625 5.203125 
z
" id="Inconsolata-Regular-54"/>
      </defs>
      <g style="fill:#555555;" transform="translate(24.8 63.348052)scale(0.1 -0.1)">
       <use xlink:href="#Inconsolata-Regular-54"/>
       <use x="49.999985" xlink:href="#Inconsolata-Regular-48"/>
       <use x="99.999969" xlink:href="#Inconsolata-Regular-48"/>
       <use x="149.999954" xlink:href="#Inconsolata-Regular-48"/>
      </g>
     </g>
    </g>
    <g id="ytick_5">
     <g id="line2d_21">
      <path clip-path="url(#peacaf6d8ee)" d="M 51.8 28.96407 
L 853.2 28.96407 
" style="fill:none;stroke:#ffffff;stroke-linecap:square;stroke-width:0.8;"/>
     </g>
     <g id="line2d_22">
      <g>
       <use style="fill:#555555;stroke:#555555;stroke-width:0.8;" x="51.8" xlink:href="#m2fb6e41601" y="28.96407"/>
      </g>
     </g>
     <g id="text_11">
      <!-- 8000 -->
      <defs>
       <path d="M 25 -1 
Q 19.296875 -1 14.9375 1.203125 
Q 10.59375 3.40625 8.296875 7.203125 
Q 6 11 6 15.703125 
Q 6 21.09375 9.390625 25.796875 
Q 12.796875 30.5 18.5 33.09375 
Q 14.203125 35.296875 11.59375 39.25 
Q 9 43.203125 9 47.703125 
Q 9 54.40625 13.296875 58.75 
Q 17.59375 63.09375 25.5 63.09375 
Q 33.703125 63.09375 37.84375 58.9375 
Q 42 54.796875 42 48.296875 
Q 42 43.796875 39.296875 39.75 
Q 36.59375 35.703125 32.09375 33.296875 
Q 37.5 30.796875 40.796875 26.140625 
Q 44.09375 21.5 44.09375 16.09375 
Q 44.09375 11.296875 41.75 7.390625 
Q 39.40625 3.5 35.046875 1.25 
Q 30.703125 -1 25 -1 
z
M 26.703125 35.796875 
Q 30.40625 37.90625 32.796875 41.25 
Q 35.203125 44.59375 35.203125 48.09375 
Q 35.203125 51.90625 32.59375 54.546875 
Q 30 57.203125 25.296875 57.203125 
Q 20.59375 57.203125 18.140625 54.640625 
Q 15.703125 52.09375 15.703125 48.40625 
Q 15.703125 44.203125 18.390625 41.5 
Q 21.09375 38.796875 26.703125 35.796875 
z
M 25.203125 5.296875 
Q 30.796875 5.296875 33.890625 8.34375 
Q 37 11.40625 37 16.09375 
Q 37 20.703125 33.390625 24.546875 
Q 29.796875 28.40625 23.703125 30.296875 
Q 19.09375 28.40625 16.140625 24.59375 
Q 13.203125 20.796875 13.203125 16.40625 
Q 13.203125 11.703125 16.453125 8.5 
Q 19.703125 5.296875 25.203125 5.296875 
z
" id="Inconsolata-Regular-56"/>
      </defs>
      <g style="fill:#555555;" transform="translate(24.8 32.28907)scale(0.1 -0.1)">
       <use xlink:href="#Inconsolata-Regular-56"/>
       <use x="49.999985" xlink:href="#Inconsolata-Regular-48"/>
       <use x="99.999969" xlink:href="#Inconsolata-Regular-48"/>
       <use x="149.999954" xlink:href="#Inconsolata-Regular-48"/>
      </g>
     </g>
    </g>
    <g id="text_12">
     <!-- daily change -->
     <defs>
      <path d="M 23.40625 -1 
Q 18.5 -1 14.203125 1.75 
Q 9.90625 4.5 7.203125 10 
Q 4.5 15.5 4.5 23.296875 
Q 4.5 31.203125 7.296875 36.5 
Q 10.09375 41.796875 14.5 44.34375 
Q 18.90625 46.90625 23.796875 46.90625 
Q 28.40625 46.90625 31.84375 44.796875 
Q 35.296875 42.703125 37.09375 39 
L 37.09375 66.5 
L 44.703125 66.5 
L 44.703125 65.796875 
Q 44.09375 65.203125 43.9375 64.5 
Q 43.796875 63.796875 43.796875 62.09375 
L 43.90625 7.09375 
Q 43.90625 4.703125 44.046875 3.140625 
Q 44.203125 1.59375 44.90625 0 
L 37.796875 0 
Q 37.09375 1.59375 36.9375 3.140625 
Q 36.796875 4.703125 36.796875 7.09375 
Q 34.59375 3.296875 31.140625 1.140625 
Q 27.703125 -1 23.40625 -1 
z
M 24.5 5.296875 
Q 30.703125 5.296875 33.59375 10.1875 
Q 36.5 15.09375 36.5 23.09375 
Q 36.5 31.203125 33.34375 36.09375 
Q 30.203125 41 23.90625 41 
Q 17.90625 41 14.703125 36.546875 
Q 11.5 32.09375 11.5 24.40625 
Q 11.5 15.59375 14.84375 10.4375 
Q 18.203125 5.296875 24.5 5.296875 
z
" id="Inconsolata-Regular-100"/>
      <path d="M 24.40625 46.703125 
Q 34.203125 46.703125 39.34375 41.59375 
Q 44.5 36.5 44.5 24.296875 
L 44.5 0 
L 36.703125 0 
L 36.703125 7 
Q 32.5 -1.09375 21.09375 -1.09375 
Q 13.5 -1.09375 9.203125 2.34375 
Q 4.90625 5.796875 4.90625 11.5 
Q 4.90625 16.296875 8 19.890625 
Q 11.09375 23.5 16.34375 25.453125 
Q 21.59375 27.40625 27.90625 27.40625 
Q 33.59375 27.40625 38.203125 26.796875 
Q 37.59375 34.5 34.140625 37.640625 
Q 30.703125 40.796875 23.90625 40.796875 
Q 20.5 40.796875 17.34375 39.5 
Q 14.203125 38.203125 11.59375 35.703125 
L 8.09375 40.296875 
Q 14.5 46.703125 24.40625 46.703125 
z
M 21.796875 4.40625 
Q 29.203125 4.40625 33.5 8.75 
Q 37.796875 13.09375 38.203125 21.296875 
Q 33.703125 22 28.5 22 
Q 20.90625 22 16.5 19.5 
Q 12.09375 17 12.09375 11.90625 
Q 12.09375 4.40625 21.796875 4.40625 
z
" id="Inconsolata-Regular-97"/>
      <path d="M 10 0 
L 10 5.796875 
L 21.703125 5.796875 
L 21.703125 39.90625 
L 10.59375 39.90625 
L 10.59375 45.703125 
L 28.90625 45.703125 
L 28.90625 5.796875 
L 39.59375 5.796875 
L 39.59375 0 
z
M 24.90625 55.296875 
Q 22.796875 55.296875 21.296875 56.796875 
Q 19.796875 58.296875 19.796875 60.40625 
Q 19.796875 62.59375 21.25 64.09375 
Q 22.703125 65.59375 24.90625 65.59375 
Q 27 65.59375 28.546875 64.046875 
Q 30.09375 62.5 30.09375 60.40625 
Q 30.09375 58.296875 28.546875 56.796875 
Q 27 55.296875 24.90625 55.296875 
z
" id="Inconsolata-Regular-105"/>
      <path d="M 7.90625 0 
L 7.90625 5.796875 
L 21.40625 5.796875 
L 21.40625 60.703125 
L 8.5 60.703125 
L 8.5 66.5 
L 28.703125 66.5 
L 28.703125 5.796875 
L 42.09375 5.796875 
L 42.09375 0 
z
" id="Inconsolata-Regular-108"/>
      <path d="M 44.296875 45.703125 
Q 43.703125 41.59375 42.453125 37.59375 
Q 41.203125 33.59375 38.90625 27 
L 27.5 -5.203125 
Q 25.203125 -11.59375 21.5 -14.5 
Q 17.796875 -17.40625 12.703125 -17.40625 
Q 6.296875 -17.40625 2.203125 -13.5 
L 5.296875 -8.59375 
L 5.40625 -8.5 
L 5.5 -8.59375 
Q 7.09375 -10.09375 8.890625 -10.796875 
Q 10.703125 -11.5 13.09375 -11.5 
Q 16.796875 -11.5 19 -8.890625 
Q 21.203125 -6.296875 23.296875 -0.296875 
L 4.59375 45.703125 
L 12.09375 45.703125 
L 26.296875 9.09375 
L 32.296875 27.5 
Q 34.5 34.40625 35.546875 38.046875 
Q 36.59375 41.703125 37.09375 45.703125 
z
M 6.5 -8.203125 
Q 6.5 -8.40625 6.296875 -8.40625 
L 5.5 -8.203125 
L 5.90625 -7.703125 
L 6.5 -8.09375 
z
M 5.40625 -8.5 
Q 4.90625 -8 5.15625 -8.09375 
Q 5.40625 -8.203125 5.5 -8.203125 
L 5.40625 -8.5 
z
" id="Inconsolata-Regular-121"/>
      <path id="Inconsolata-Regular-32"/>
      <path d="M 28.90625 5.40625 
Q 35.796875 5.40625 40.796875 11 
L 45 6.09375 
Q 38.296875 -1.09375 28.5 -1.09375 
Q 21.90625 -1.09375 16.703125 2 
Q 11.5 5.09375 8.546875 10.546875 
Q 5.59375 16 5.59375 22.796875 
Q 5.59375 29.59375 8.546875 35 
Q 11.5 40.40625 16.703125 43.5 
Q 21.90625 46.59375 28.40625 46.59375 
Q 33.90625 46.59375 38.40625 44.34375 
Q 42.90625 42.09375 45.703125 38.09375 
L 41.203125 33.703125 
L 41.09375 33.59375 
Q 38.203125 37.40625 35.140625 38.953125 
Q 32.09375 40.5 27.59375 40.5 
Q 23.703125 40.5 20.34375 38.34375 
Q 17 36.203125 15 32.296875 
Q 13 28.40625 13 23.296875 
Q 13 18.203125 15.046875 14.09375 
Q 17.09375 10 20.75 7.703125 
Q 24.40625 5.40625 28.90625 5.40625 
z
M 40 33.5 
Q 40 34.09375 40.90625 33.40625 
L 40.5 33 
L 40 33.5 
z
M 41.09375 33.59375 
Q 41.59375 32.90625 41.34375 33.09375 
Q 41.09375 33.296875 40.90625 33.40625 
L 41.09375 33.59375 
z
" id="Inconsolata-Regular-99"/>
      <path d="M 7.296875 66.5 
L 15.203125 66.5 
L 15.203125 65.796875 
Q 14.59375 65.203125 14.4375 64.5 
Q 14.296875 63.796875 14.296875 62.09375 
L 14.296875 37.59375 
Q 17 41.796875 21.046875 44.296875 
Q 25.09375 46.796875 29.296875 46.796875 
Q 35.796875 46.796875 39.5 42.1875 
Q 43.203125 37.59375 43.203125 27.703125 
L 43.203125 0 
L 36.203125 0 
L 36.203125 27.5 
Q 36.203125 34.296875 33.890625 37.390625 
Q 31.59375 40.5 27.796875 40.5 
Q 24.59375 40.5 21.5 38.75 
Q 18.40625 37 16.34375 33.75 
Q 14.296875 30.5 14.296875 26.296875 
L 14.296875 0 
L 7.296875 0 
z
" id="Inconsolata-Regular-104"/>
      <path d="M 7.203125 45.703125 
L 14.203125 45.703125 
L 14.203125 37.59375 
Q 16.90625 41.796875 21 44.296875 
Q 25.09375 46.796875 29.703125 46.796875 
Q 35.796875 46.796875 39.4375 42.140625 
Q 43.09375 37.5 43.09375 27.703125 
L 43.09375 0 
L 36.09375 0 
L 36.09375 27.5 
Q 36.09375 34.296875 33.796875 37.390625 
Q 31.5 40.5 27.703125 40.5 
Q 24.59375 40.5 21.4375 38.703125 
Q 18.296875 36.90625 16.25 33.65625 
Q 14.203125 30.40625 14.203125 26.296875 
L 14.203125 0 
L 7.203125 0 
z
" id="Inconsolata-Regular-110"/>
      <path d="M 47.5 41 
Q 46.59375 41.09375 44.90625 41.09375 
Q 40.09375 41.09375 36.90625 39 
Q 38.59375 35.59375 38.59375 31.5 
Q 38.59375 27 36.640625 23.34375 
Q 34.703125 19.703125 31.046875 17.59375 
Q 27.40625 15.5 22.59375 15.5 
Q 18.796875 15.5 15.5 16.90625 
Q 13.703125 14.703125 13.703125 12.703125 
Q 13.703125 10.296875 16.75 9.25 
Q 19.796875 8.203125 27.703125 8.203125 
Q 37.40625 8.203125 40.953125 5.25 
Q 44.5 2.296875 44.5 -3.40625 
Q 44.5 -9.296875 39.703125 -13.25 
Q 34.90625 -17.203125 24.703125 -17.203125 
Q 14.90625 -17.203125 9.34375 -14.203125 
Q 3.796875 -11.203125 3.796875 -5.40625 
Q 3.796875 -1.796875 5.796875 0.796875 
Q 7.796875 3.40625 10.90625 4.90625 
Q 7.59375 7.09375 7.59375 11 
Q 7.59375 15 11.703125 19.40625 
Q 9.203125 21.59375 7.890625 24.6875 
Q 6.59375 27.796875 6.59375 31.5 
Q 6.59375 35.90625 8.546875 39.546875 
Q 10.5 43.203125 14.140625 45.296875 
Q 17.796875 47.40625 22.59375 47.40625 
Q 29.90625 47.40625 34.296875 42.703125 
Q 36.703125 44.90625 39.25 45.953125 
Q 41.796875 47 44.90625 47 
L 46.59375 46.90625 
L 47.5 41 
z
M 22.59375 21.5 
Q 26.90625 21.5 29.75 24.390625 
Q 32.59375 27.296875 32.59375 31.5 
Q 32.59375 35.703125 29.75 38.59375 
Q 26.90625 41.5 22.59375 41.5 
Q 18.296875 41.5 15.4375 38.59375 
Q 12.59375 35.703125 12.59375 31.5 
Q 12.59375 27.296875 15.4375 24.390625 
Q 18.296875 21.5 22.59375 21.5 
z
M 37.90625 -4.5 
Q 37.90625 -2.09375 37.046875 -0.75 
Q 36.203125 0.59375 33.703125 1.25 
Q 31.203125 1.90625 26.203125 1.90625 
Q 19 1.90625 14.703125 3.203125 
Q 12.296875 1.59375 11.34375 -0.09375 
Q 10.40625 -1.796875 10.40625 -4.59375 
Q 10.40625 -8 14.203125 -9.890625 
Q 18 -11.796875 24.796875 -11.796875 
Q 31.40625 -11.796875 34.65625 -9.84375 
Q 37.90625 -7.90625 37.90625 -4.5 
z
" id="Inconsolata-Regular-103"/>
      <path d="M 27.203125 -1 
Q 17 -1 10.953125 5.203125 
Q 4.90625 11.40625 4.90625 22.703125 
Q 4.90625 30.203125 7.703125 35.640625 
Q 10.5 41.09375 15.25 43.9375 
Q 20 46.796875 25.90625 46.796875 
Q 34.203125 46.796875 39.34375 41.296875 
Q 44.5 35.796875 44.5 25.09375 
Q 44.5 24 44.296875 21.796875 
L 11.796875 21.796875 
Q 12.203125 13.40625 16.5 9.09375 
Q 20.796875 4.796875 27.40625 4.796875 
Q 34.59375 4.796875 39.203125 9.90625 
L 43.203125 6 
Q 37.40625 -1 27.203125 -1 
z
M 37.203125 27.40625 
Q 37.203125 33.796875 33.953125 37.546875 
Q 30.703125 41.296875 25.40625 41.296875 
Q 20.40625 41.296875 16.703125 37.796875 
Q 13 34.296875 12.09375 27.40625 
z
" id="Inconsolata-Regular-101"/>
     </defs>
     <g style="fill:#555555;" transform="translate(18.71125 118)rotate(-90)scale(0.12 -0.12)">
      <use xlink:href="#Inconsolata-Regular-100"/>
      <use x="49.999985" xlink:href="#Inconsolata-Regular-97"/>
      <use x="99.999969" xlink:href="#Inconsolata-Regular-105"/>
      <use x="149.999954" xlink:href="#Inconsolata-Regular-108"/>
      <use x="199.999939" xlink:href="#Inconsolata-Regular-121"/>
      <use x="249.999924" xlink:href="#Inconsolata-Regular-32"/>
      <use x="299.999908" xlink:href="#Inconsolata-Regular-99"/>
      <use x="349.999893" xlink:href="#Inconsolata-Regular-104"/>
      <use x="399.999878" xlink:href="#Inconsolata-Regular-97"/>
      <use x="449.999863" xlink:href="#Inconsolata-Regular-110"/>
      <use x="499.999847" xlink:href="#Inconsolata-Regular-103"/>
      <use x="549.999832" xlink:href="#Inconsolata-Regular-101"/>
     </g>
    </g>
   </g>
   <g id="patch_3">
    <path clip-path="url(#peacaf6d8ee)" d="M 88.227273 153.2 
L 94.646175 153.2 
L 94.646175 153.2 
L 88.227273 153.2 
z
" style="fill:#348abd;opacity:0.2;"/>
   </g>
   <g id="patch_4">
    <path clip-path="url(#peacaf6d8ee)" d="M 96.250901 153.2 
L 102.669804 153.2 
L 102.669804 153.2 
L 96.250901 153.2 
z
" style="fill:#348abd;opacity:0.2;"/>
   </g>
   <g id="patch_5">
    <path clip-path="url(#peacaf6d8ee)" d="M 104.274529 153.2 
L 110.693432 153.2 
L 110.693432 153.2 
L 104.274529 153.2 
z
" style="fill:#348abd;opacity:0.2;"/>
   </g>
   <g id="patch_6">
    <path clip-path="url(#peacaf6d8ee)" d="M 112.298158 153.2 
L 118.71706 153.2 
L 118.71706 153.2 
L 112.298158 153.2 
z
" style="fill:#348abd;opacity:0.2;"/>
   </g>
   <g id="patch_7">
    <path clip-path="url(#peacaf6d8ee)" d="M 120.321786 153.2 
L 126.740689 153.2 
L 126.740689 153.2 
L 120.321786 153.2 
z
" style="fill:#348abd;opacity:0.2;"/>
   </g>
   <g id="patch_8">
    <path clip-path="url(#peacaf6d8ee)" d="M 128.345414 153.2 
L 134.764317 153.2 
L 134.764317 153.2 
L 128.345414 153.2 
z
" style="fill:#348abd;opacity:0.2;"/>
   </g>
   <g id="patch_9">
    <path clip-path="url(#peacaf6d8ee)" d="M 136.369043 153.2 
L 142.787946 153.2 
L 142.787946 153.2 
L 136.369043 153.2 
z
" style="fill:#348abd;opacity:0.2;"/>
   </g>
   <g id="patch_10">
    <path clip-path="url(#peacaf6d8ee)" d="M 144.392671 153.2 
L 150.811574 153.2 
L 150.811574 153.2 
L 144.392671 153.2 
z
" style="fill:#348abd;opacity:0.2;"/>
   </g>
   <g id="patch_11">
    <path clip-path="url(#peacaf6d8ee)" d="M 152.4163 153.2 
L 158.835202 153.2 
L 158.835202 153.168941 
L 152.4163 153.168941 
z
" style="fill:#348abd;opacity:0.2;"/>
   </g>
   <g id="patch_12">
    <path clip-path="url(#peacaf6d8ee)" d="M 160.439928 153.2 
L 166.858831 153.2 
L 166.858831 153.2 
L 160.439928 153.2 
z
" style="fill:#348abd;opacity:0.2;"/>
   </g>
   <g id="patch_13">
    <path clip-path="url(#peacaf6d8ee)" d="M 168.463556 153.2 
L 174.882459 153.2 
L 174.882459 153.2 
L 168.463556 153.2 
z
" style="fill:#348abd;opacity:0.2;"/>
   </g>
   <g id="patch_14">
    <path clip-path="url(#peacaf6d8ee)" d="M 176.487185 153.2 
L 182.906087 153.2 
L 182.906087 153.2 
L 176.487185 153.2 
z
" style="fill:#348abd;opacity:0.2;"/>
   </g>
   <g id="patch_15">
    <path clip-path="url(#peacaf6d8ee)" d="M 184.510813 153.2 
L 190.929716 153.2 
L 190.929716 153.2 
L 184.510813 153.2 
z
" style="fill:#348abd;opacity:0.2;"/>
   </g>
   <g id="patch_16">
    <path clip-path="url(#peacaf6d8ee)" d="M 192.534441 153.2 
L 198.953344 153.2 
L 198.953344 153.2 
L 192.534441 153.2 
z
" style="fill:#348abd;opacity:0.2;"/>
   </g>
   <g id="patch_17">
    <path clip-path="url(#peacaf6d8ee)" d="M 200.55807 153.2 
L 206.976972 153.2 
L 206.976972 153.2 
L 200.55807 153.2 
z
" style="fill:#348abd;opacity:0.2;"/>
   </g>
   <g id="patch_18">
    <path clip-path="url(#peacaf6d8ee)" d="M 208.581698 153.2 
L 215.000601 153.2 
L 215.000601 153.184471 
L 208.581698 153.184471 
z
" style="fill:#348abd;opacity:0.2;"/>
   </g>
   <g id="patch_19">
    <path clip-path="url(#peacaf6d8ee)" d="M 216.605326 153.2 
L 223.024229 153.2 
L 223.024229 153.2 
L 216.605326 153.2 
z
" style="fill:#348abd;opacity:0.2;"/>
   </g>
   <g id="patch_20">
    <path clip-path="url(#peacaf6d8ee)" d="M 224.628955 153.2 
L 231.047857 153.2 
L 231.047857 153.2 
L 224.628955 153.2 
z
" style="fill:#348abd;opacity:0.2;"/>
   </g>
   <g id="patch_21">
    <path clip-path="url(#peacaf6d8ee)" d="M 232.652583 153.2 
L 239.071486 153.2 
L 239.071486 153.122353 
L 232.652583 153.122353 
z
" style="fill:#348abd;opacity:0.2;"/>
   </g>
   <g id="patch_22">
    <path clip-path="url(#peacaf6d8ee)" d="M 240.676211 153.2 
L 247.095114 153.2 
L 247.095114 153.2 
L 240.676211 153.2 
z
" style="fill:#348abd;opacity:0.2;"/>
   </g>
   <g id="patch_23">
    <path clip-path="url(#peacaf6d8ee)" d="M 248.69984 153.2 
L 255.118742 153.2 
L 255.118742 153.184471 
L 248.69984 153.184471 
z
" style="fill:#348abd;opacity:0.2;"/>
   </g>
   <g id="patch_24">
    <path clip-path="url(#peacaf6d8ee)" d="M 256.723468 153.2 
L 263.142371 153.2 
L 263.142371 153.2 
L 256.723468 153.2 
z
" style="fill:#348abd;opacity:0.2;"/>
   </g>
   <g id="patch_25">
    <path clip-path="url(#peacaf6d8ee)" d="M 264.747097 153.2 
L 271.165999 153.2 
L 271.165999 153.2 
L 264.747097 153.2 
z
" style="fill:#348abd;opacity:0.2;"/>
   </g>
   <g id="patch_26">
    <path clip-path="url(#peacaf6d8ee)" d="M 272.770725 153.2 
L 279.189628 153.2 
L 279.189628 153.2 
L 272.770725 153.2 
z
" style="fill:#348abd;opacity:0.2;"/>
   </g>
   <g id="patch_27">
    <path clip-path="url(#peacaf6d8ee)" d="M 280.794353 153.2 
L 287.213256 153.2 
L 287.213256 153.2 
L 280.794353 153.2 
z
" style="fill:#348abd;opacity:0.2;"/>
   </g>
   <g id="patch_28">
    <path clip-path="url(#peacaf6d8ee)" d="M 288.817982 153.2 
L 295.236884 153.2 
L 295.236884 153.2 
L 288.817982 153.2 
z
" style="fill:#348abd;opacity:0.2;"/>
   </g>
   <g id="patch_29">
    <path clip-path="url(#peacaf6d8ee)" d="M 296.84161 153.2 
L 303.260513 153.2 
L 303.260513 153.2 
L 296.84161 153.2 
z
" style="fill:#348abd;opacity:0.2;"/>
   </g>
   <g id="patch_30">
    <path clip-path="url(#peacaf6d8ee)" d="M 304.865238 153.2 
L 311.284141 153.2 
L 311.284141 153.2 
L 304.865238 153.2 
z
" style="fill:#348abd;opacity:0.2;"/>
   </g>
   <g id="patch_31">
    <path clip-path="url(#peacaf6d8ee)" d="M 312.888867 153.2 
L 319.307769 153.2 
L 319.307769 153.2 
L 312.888867 153.2 
z
" style="fill:#348abd;opacity:0.2;"/>
   </g>
   <g id="patch_32">
    <path clip-path="url(#peacaf6d8ee)" d="M 320.912495 153.2 
L 327.331398 153.2 
L 327.331398 153.2 
L 320.912495 153.2 
z
" style="fill:#348abd;opacity:0.2;"/>
   </g>
   <g id="patch_33">
    <path clip-path="url(#peacaf6d8ee)" d="M 328.936123 153.2 
L 335.355026 153.2 
L 335.355026 153.2 
L 328.936123 153.2 
z
" style="fill:#348abd;opacity:0.2;"/>
   </g>
   <g id="patch_34">
    <path clip-path="url(#peacaf6d8ee)" d="M 336.959752 153.2 
L 343.378654 153.2 
L 343.378654 153.2 
L 336.959752 153.2 
z
" style="fill:#348abd;opacity:0.2;"/>
   </g>
   <g id="patch_35">
    <path clip-path="url(#peacaf6d8ee)" d="M 344.98338 153.2 
L 351.402283 153.2 
L 351.402283 153.137882 
L 344.98338 153.137882 
z
" style="fill:#348abd;opacity:0.2;"/>
   </g>
   <g id="patch_36">
    <path clip-path="url(#peacaf6d8ee)" d="M 353.007008 153.2 
L 359.425911 153.2 
L 359.425911 153.2 
L 353.007008 153.2 
z
" style="fill:#348abd;opacity:0.2;"/>
   </g>
   <g id="patch_37">
    <path clip-path="url(#peacaf6d8ee)" d="M 361.030637 153.2 
L 367.449539 153.2 
L 367.449539 153.2 
L 361.030637 153.2 
z
" style="fill:#348abd;opacity:0.2;"/>
   </g>
   <g id="patch_38">
    <path clip-path="url(#peacaf6d8ee)" d="M 369.054265 153.2 
L 375.473168 153.2 
L 375.473168 153.168941 
L 369.054265 153.168941 
z
" style="fill:#348abd;opacity:0.2;"/>
   </g>
   <g id="patch_39">
    <path clip-path="url(#peacaf6d8ee)" d="M 377.077893 153.2 
L 383.496796 153.2 
L 383.496796 153.122353 
L 377.077893 153.122353 
z
" style="fill:#348abd;opacity:0.2;"/>
   </g>
   <g id="patch_40">
    <path clip-path="url(#peacaf6d8ee)" d="M 385.101522 153.2 
L 391.520425 153.2 
L 391.520425 153.153412 
L 385.101522 153.153412 
z
" style="fill:#348abd;opacity:0.2;"/>
   </g>
   <g id="patch_41">
    <path clip-path="url(#peacaf6d8ee)" d="M 393.12515 153.2 
L 399.544053 153.2 
L 399.544053 152.998117 
L 393.12515 152.998117 
z
" style="fill:#348abd;opacity:0.2;"/>
   </g>
   <g id="patch_42">
    <path clip-path="url(#peacaf6d8ee)" d="M 401.148779 153.2 
L 407.567681 153.2 
L 407.567681 153.137882 
L 401.148779 153.137882 
z
" style="fill:#348abd;opacity:0.2;"/>
   </g>
   <g id="patch_43">
    <path clip-path="url(#peacaf6d8ee)" d="M 409.172407 153.2 
L 415.59131 153.2 
L 415.59131 153.029176 
L 409.172407 153.029176 
z
" style="fill:#348abd;opacity:0.2;"/>
   </g>
   <g id="patch_44">
    <path clip-path="url(#peacaf6d8ee)" d="M 417.196035 153.2 
L 423.614938 153.2 
L 423.614938 152.656468 
L 417.196035 152.656468 
z
" style="fill:#348abd;opacity:0.2;"/>
   </g>
   <g id="patch_45">
    <path clip-path="url(#peacaf6d8ee)" d="M 425.219664 153.2 
L 431.638566 153.2 
L 431.638566 152.734115 
L 425.219664 152.734115 
z
" style="fill:#348abd;opacity:0.2;"/>
   </g>
   <g id="patch_46">
    <path clip-path="url(#peacaf6d8ee)" d="M 433.243292 153.2 
L 439.662195 153.2 
L 439.662195 152.454584 
L 433.243292 152.454584 
z
" style="fill:#348abd;opacity:0.2;"/>
   </g>
   <g id="patch_47">
    <path clip-path="url(#peacaf6d8ee)" d="M 441.26692 153.2 
L 447.685823 153.2 
L 447.685823 152.532232 
L 441.26692 152.532232 
z
" style="fill:#348abd;opacity:0.2;"/>
   </g>
   <g id="patch_48">
    <path clip-path="url(#peacaf6d8ee)" d="M 449.290549 153.2 
L 455.709451 153.2 
L 455.709451 152.159524 
L 449.290549 152.159524 
z
" style="fill:#348abd;opacity:0.2;"/>
   </g>
   <g id="patch_49">
    <path clip-path="url(#peacaf6d8ee)" d="M 457.314177 153.2 
L 463.73308 153.2 
L 463.73308 152.454584 
L 457.314177 152.454584 
z
" style="fill:#348abd;opacity:0.2;"/>
   </g>
   <g id="patch_50">
    <path clip-path="url(#peacaf6d8ee)" d="M 465.337805 153.2 
L 471.756708 153.2 
L 471.756708 152.237172 
L 465.337805 152.237172 
z
" style="fill:#348abd;opacity:0.2;"/>
   </g>
   <g id="patch_51">
    <path clip-path="url(#peacaf6d8ee)" d="M 473.361434 153.2 
L 479.780336 153.2 
L 479.780336 152.035288 
L 473.361434 152.035288 
z
" style="fill:#348abd;opacity:0.2;"/>
   </g>
   <g id="patch_52">
    <path clip-path="url(#peacaf6d8ee)" d="M 481.385062 153.2 
L 487.803965 153.2 
L 487.803965 153.2 
L 481.385062 153.2 
z
" style="fill:#348abd;opacity:0.2;"/>
   </g>
   <g id="patch_53">
    <path clip-path="url(#peacaf6d8ee)" d="M 489.40869 153.2 
L 495.827593 153.2 
L 495.827593 147.873384 
L 489.40869 147.873384 
z
" style="fill:#348abd;opacity:0.2;"/>
   </g>
   <g id="patch_54">
    <path clip-path="url(#peacaf6d8ee)" d="M 497.432319 153.2 
L 503.851221 153.2 
L 503.851221 147.888914 
L 497.432319 147.888914 
z
" style="fill:#348abd;opacity:0.2;"/>
   </g>
   <g id="patch_55">
    <path clip-path="url(#peacaf6d8ee)" d="M 505.455947 153.2 
L 511.87485 153.2 
L 511.87485 153.184471 
L 505.455947 153.184471 
z
" style="fill:#348abd;opacity:0.2;"/>
   </g>
   <g id="patch_56">
    <path clip-path="url(#peacaf6d8ee)" d="M 513.479575 153.2 
L 519.898478 153.2 
L 519.898478 146.895027 
L 513.479575 146.895027 
z
" style="fill:#348abd;opacity:0.2;"/>
   </g>
   <g id="patch_57">
    <path clip-path="url(#peacaf6d8ee)" d="M 521.503204 153.2 
L 527.922107 153.2 
L 527.922107 146.848438 
L 521.503204 146.848438 
z
" style="fill:#348abd;opacity:0.2;"/>
   </g>
   <g id="patch_58">
    <path clip-path="url(#peacaf6d8ee)" d="M 529.526832 153.2 
L 535.945735 153.2 
L 535.945735 142.608887 
L 529.526832 142.608887 
z
" style="fill:#348abd;opacity:0.2;"/>
   </g>
   <g id="patch_59">
    <path clip-path="url(#peacaf6d8ee)" d="M 537.550461 153.2 
L 543.969363 153.2 
L 543.969363 152.050818 
L 537.550461 152.050818 
z
" style="fill:#348abd;opacity:0.2;"/>
   </g>
   <g id="patch_60">
    <path clip-path="url(#peacaf6d8ee)" d="M 545.574089 153.2 
L 551.992992 153.2 
L 551.992992 133.04272 
L 545.574089 133.04272 
z
" style="fill:#348abd;opacity:0.2;"/>
   </g>
   <g id="patch_61">
    <path clip-path="url(#peacaf6d8ee)" d="M 553.597717 153.2 
L 560.01662 153.2 
L 560.01662 136.847446 
L 553.597717 136.847446 
z
" style="fill:#348abd;opacity:0.2;"/>
   </g>
   <g id="patch_62">
    <path clip-path="url(#peacaf6d8ee)" d="M 561.621346 153.2 
L 568.040248 153.2 
L 568.040248 142.671005 
L 561.621346 142.671005 
z
" style="fill:#348abd;opacity:0.2;"/>
   </g>
   <g id="patch_63">
    <path clip-path="url(#peacaf6d8ee)" d="M 569.644974 153.2 
L 576.063877 153.2 
L 576.063877 137.965569 
L 569.644974 137.965569 
z
" style="fill:#348abd;opacity:0.2;"/>
   </g>
   <g id="patch_64">
    <path clip-path="url(#peacaf6d8ee)" d="M 577.668602 153.2 
L 584.087505 153.2 
L 584.087505 130.868591 
L 577.668602 130.868591 
z
" style="fill:#348abd;opacity:0.2;"/>
   </g>
   <g id="patch_65">
    <path clip-path="url(#peacaf6d8ee)" d="M 585.692231 153.2 
L 592.111133 153.2 
L 592.111133 130.278471 
L 585.692231 130.278471 
z
" style="fill:#348abd;opacity:0.2;"/>
   </g>
   <g id="patch_66">
    <path clip-path="url(#peacaf6d8ee)" d="M 593.715859 153.2 
L 600.134762 153.2 
L 600.134762 119.469945 
L 593.715859 119.469945 
z
" style="fill:#348abd;opacity:0.2;"/>
   </g>
   <g id="patch_67">
    <path clip-path="url(#peacaf6d8ee)" d="M 601.739487 153.2 
L 608.15839 153.2 
L 608.15839 107.652002 
L 601.739487 107.652002 
z
" style="fill:#348abd;opacity:0.2;"/>
   </g>
   <g id="patch_68">
    <path clip-path="url(#peacaf6d8ee)" d="M 609.763116 153.2 
L 616.182018 153.2 
L 616.182018 113.335796 
L 609.763116 113.335796 
z
" style="fill:#348abd;opacity:0.2;"/>
   </g>
   <g id="patch_69">
    <path clip-path="url(#peacaf6d8ee)" d="M 617.786744 153.2 
L 624.205647 153.2 
L 624.205647 114.873215 
L 617.786744 114.873215 
z
" style="fill:#348abd;opacity:0.2;"/>
   </g>
   <g id="patch_70">
    <path clip-path="url(#peacaf6d8ee)" d="M 625.810372 153.2 
L 632.229275 153.2 
L 632.229275 111.68967 
L 625.810372 111.68967 
z
" style="fill:#348abd;opacity:0.2;"/>
   </g>
   <g id="patch_71">
    <path clip-path="url(#peacaf6d8ee)" d="M 633.834001 153.2 
L 640.252903 153.2 
L 640.252903 106.1767 
L 633.834001 106.1767 
z
" style="fill:#348abd;opacity:0.2;"/>
   </g>
   <g id="patch_72">
    <path clip-path="url(#peacaf6d8ee)" d="M 641.857629 153.2 
L 648.276532 153.2 
L 648.276532 85.11871 
L 641.857629 85.11871 
z
" style="fill:#348abd;opacity:0.2;"/>
   </g>
   <g id="patch_73">
    <path clip-path="url(#peacaf6d8ee)" d="M 649.881258 153.2 
L 656.30016 153.2 
L 656.30016 86.298951 
L 649.881258 86.298951 
z
" style="fill:#348abd;opacity:0.2;"/>
   </g>
   <g id="patch_74">
    <path clip-path="url(#peacaf6d8ee)" d="M 657.904886 153.2 
L 664.323789 153.2 
L 664.323789 83.068817 
L 657.904886 83.068817 
z
" style="fill:#348abd;opacity:0.2;"/>
   </g>
   <g id="patch_75">
    <path clip-path="url(#peacaf6d8ee)" d="M 665.928514 153.2 
L 672.347417 153.2 
L 672.347417 94.374287 
L 665.928514 94.374287 
z
" style="fill:#348abd;opacity:0.2;"/>
   </g>
   <g id="patch_76">
    <path clip-path="url(#peacaf6d8ee)" d="M 673.952143 153.2 
L 680.371045 153.2 
L 680.371045 60.659761 
L 673.952143 60.659761 
z
" style="fill:#348abd;opacity:0.2;"/>
   </g>
   <g id="patch_77">
    <path clip-path="url(#peacaf6d8ee)" d="M 681.975771 153.2 
L 688.394674 153.2 
L 688.394674 93.520165 
L 681.975771 93.520165 
z
" style="fill:#348abd;opacity:0.2;"/>
   </g>
   <g id="patch_78">
    <path clip-path="url(#peacaf6d8ee)" d="M 689.999399 153.2 
L 696.418302 153.2 
L 696.418302 96.206767 
L 689.999399 96.206767 
z
" style="fill:#348abd;opacity:0.2;"/>
   </g>
   <g id="patch_79">
    <path clip-path="url(#peacaf6d8ee)" d="M 698.023028 153.2 
L 704.44193 153.2 
L 704.44193 67.399561 
L 698.023028 67.399561 
z
" style="fill:#348abd;opacity:0.2;"/>
   </g>
   <g id="patch_80">
    <path clip-path="url(#peacaf6d8ee)" d="M 706.046656 153.2 
L 712.465559 153.2 
L 712.465559 84.901297 
L 706.046656 84.901297 
z
" style="fill:#348abd;opacity:0.2;"/>
   </g>
   <g id="patch_81">
    <path clip-path="url(#peacaf6d8ee)" d="M 714.070284 153.2 
L 720.489187 153.2 
L 720.489187 17.580952 
L 714.070284 17.580952 
z
" style="fill:#348abd;opacity:0.2;"/>
   </g>
   <g id="patch_82">
    <path clip-path="url(#peacaf6d8ee)" d="M 722.093913 153.2 
L 728.512815 153.2 
L 728.512815 71.37511 
L 722.093913 71.37511 
z
" style="fill:#348abd;opacity:0.2;"/>
   </g>
   <g id="patch_83">
    <path clip-path="url(#peacaf6d8ee)" d="M 730.117541 153.2 
L 736.536444 153.2 
L 736.536444 70.396752 
L 730.117541 70.396752 
z
" style="fill:#348abd;opacity:0.2;"/>
   </g>
   <g id="patch_84">
    <path clip-path="url(#peacaf6d8ee)" d="M 738.141169 153.2 
L 744.560072 153.2 
L 744.560072 85.4293 
L 738.141169 85.4293 
z
" style="fill:#348abd;opacity:0.2;"/>
   </g>
   <g id="patch_85">
    <path clip-path="url(#peacaf6d8ee)" d="M 746.164798 153.2 
L 752.5837 153.2 
L 752.5837 71.281933 
L 746.164798 71.281933 
z
" style="fill:#348abd;opacity:0.2;"/>
   </g>
   <g id="patch_86">
    <path clip-path="url(#peacaf6d8ee)" d="M 754.188426 153.2 
L 760.607329 153.2 
L 760.607329 81.174219 
L 754.188426 81.174219 
z
" style="fill:#348abd;opacity:0.2;"/>
   </g>
   <g id="patch_87">
    <path clip-path="url(#peacaf6d8ee)" d="M 762.212054 153.2 
L 768.630957 153.2 
L 768.630957 80.801512 
L 762.212054 80.801512 
z
" style="fill:#348abd;opacity:0.2;"/>
   </g>
   <g id="patch_88">
    <path clip-path="url(#peacaf6d8ee)" d="M 770.235683 153.2 
L 776.654586 153.2 
L 776.654586 65.862141 
L 770.235683 65.862141 
z
" style="fill:#348abd;opacity:0.2;"/>
   </g>
   <g id="patch_89">
    <path clip-path="url(#peacaf6d8ee)" d="M 778.259311 153.2 
L 784.678214 153.2 
L 784.678214 67.088971 
L 778.259311 67.088971 
z
" style="fill:#348abd;opacity:0.2;"/>
   </g>
   <g id="patch_90">
    <path clip-path="url(#peacaf6d8ee)" d="M 786.28294 153.2 
L 792.701842 153.2 
L 792.701842 62.22824 
L 786.28294 62.22824 
z
" style="fill:#348abd;opacity:0.2;"/>
   </g>
   <g id="patch_91">
    <path clip-path="url(#peacaf6d8ee)" d="M 794.306568 153.2 
L 800.725471 153.2 
L 800.725471 80.459863 
L 794.306568 80.459863 
z
" style="fill:#348abd;opacity:0.2;"/>
   </g>
   <g id="patch_92">
    <path clip-path="url(#peacaf6d8ee)" d="M 802.330196 153.2 
L 808.749099 153.2 
L 808.749099 86.174716 
L 802.330196 86.174716 
z
" style="fill:#348abd;opacity:0.2;"/>
   </g>
   <g id="patch_93">
    <path clip-path="url(#peacaf6d8ee)" d="M 810.353825 153.2 
L 816.772727 153.2 
L 816.772727 83.845292 
L 810.353825 83.845292 
z
" style="fill:#348abd;opacity:0.2;"/>
   </g>
   <g id="line2d_23">
    <path clip-path="url(#peacaf6d8ee)" d="M 91.436724 153.2 
L 99.460352 153.2 
L 107.483981 153.2 
L 115.507609 153.199572 
L 123.531237 153.198819 
L 131.554866 153.197805 
L 139.578494 153.196705 
L 147.602123 153.195991 
L 155.625751 153.195579 
L 163.649379 153.195579 
L 171.673008 153.195777 
L 179.696636 153.196114 
L 187.720264 153.196708 
L 195.743893 153.196101 
L 203.767521 153.194614 
L 211.791149 153.192088 
L 219.814778 153.188961 
L 227.838406 153.186876 
L 235.862034 153.185652 
L 243.885663 153.185845 
L 251.909291 153.187177 
L 259.93292 153.189337 
L 267.956548 153.192509 
L 275.980176 153.195399 
L 284.003805 153.197832 
L 292.027433 153.199409 
L 300.051061 153.199786 
L 308.07469 153.199144 
L 316.098318 153.197637 
L 324.121946 153.195611 
L 332.145575 153.192982 
L 340.169203 153.189731 
L 348.192831 153.185367 
L 356.21646 153.17782 
L 364.240088 153.167908 
L 372.263716 153.15504 
L 380.287345 153.134325 
L 388.310973 153.104128 
L 396.334602 153.057911 
L 404.35823 152.99578 
L 412.381858 152.917174 
L 420.405487 152.825947 
L 428.429115 152.728355 
L 436.452743 152.624653 
L 444.476372 152.538101 
L 452.5 152.41134 
L 460.523628 152.200889 
L 468.547257 151.944841 
L 476.570885 151.580664 
L 484.594513 151.142188 
L 492.618142 150.567537 
L 500.64177 149.912979 
L 508.665398 149.067414 
L 516.689027 147.975274 
L 524.712655 146.759954 
L 532.736284 145.341961 
L 540.759912 143.795562 
L 548.78354 142.13721 
L 556.807169 140.151878 
L 564.830797 137.706722 
L 572.854425 134.732075 
L 580.878054 131.34426 
L 588.901682 127.703853 
L 596.92531 123.949437 
L 604.948939 120.01269 
L 612.972567 115.768008 
L 620.996195 111.26392 
L 629.019824 106.796078 
L 637.043452 102.249477 
L 645.06708 97.801496 
L 653.090709 93.771602 
L 661.114337 89.998261 
L 669.137966 87.046579 
L 677.161594 84.051796 
L 685.185222 80.961236 
L 693.208851 77.809835 
L 701.232479 74.536365 
L 709.256107 72.088869 
L 717.279736 70.25944 
L 725.303364 69.351751 
L 733.326992 69.47558 
L 741.350621 70.10108 
L 749.374249 71.480779 
L 757.397877 72.713426 
L 765.421506 73.517136 
L 773.445134 73.996155 
L 781.468763 74.099746 
L 789.492391 74.449441 
L 797.516019 75.025955 
L 805.539648 76.102958 
L 813.563276 76.753625 
" style="fill:none;stroke:#348abd;stroke-linecap:square;stroke-width:3;"/>
   </g>
   <g id="line2d_24">
    <defs>
     <path d="M 0 3 
C 0.795609 3 1.55874 2.683901 2.12132 2.12132 
C 2.683901 1.55874 3 0.795609 3 0 
C 3 -0.795609 2.683901 -1.55874 2.12132 -2.12132 
C 1.55874 -2.683901 0.795609 -3 0 -3 
C -0.795609 -3 -1.55874 -2.683901 -2.12132 -2.12132 
C -2.683901 -1.55874 -3 -0.795609 -3 0 
C -3 0.795609 -2.683901 1.55874 -2.12132 2.12132 
C -1.55874 2.683901 -0.795609 3 0 3 
z
" id="m62bcec340e" style="stroke:#e24a33;stroke-opacity:0.001;"/>
    </defs>
    <g clip-path="url(#peacaf6d8ee)">
     <use style="fill:#e24a33;fill-opacity:0.001;stroke:#e24a33;stroke-opacity:0.001;" x="452.5" xlink:href="#m62bcec340e" y="82"/>
    </g>
   </g>
   <g id="patch_94">
    <path d="M 51.8 153.2 
L 51.8 10.8 
" style="fill:none;stroke:#ffffff;stroke-linecap:square;stroke-linejoin:miter;"/>
   </g>
   <g id="patch_95">
    <path d="M 853.2 153.2 
L 853.2 10.8 
" style="fill:none;stroke:#ffffff;stroke-linecap:square;stroke-linejoin:miter;"/>
   </g>
   <g id="patch_96">
    <path d="M 51.8 153.2 
L 853.2 153.2 
" style="fill:none;stroke:#ffffff;stroke-linecap:square;stroke-linejoin:miter;"/>
   </g>
   <g id="patch_97">
    <path d="M 51.8 10.8 
L 853.2 10.8 
" style="fill:none;stroke:#ffffff;stroke-linecap:square;stroke-linejoin:miter;"/>
   </g>
   <g id="legend_1">
    <g id="patch_98">
     <path d="M 58.8 59.93125 
L 285.8 59.93125 
Q 287.8 59.93125 287.8 57.93125 
L 287.8 17.8 
Q 287.8 15.8 285.8 15.8 
L 58.8 15.8 
Q 56.8 15.8 56.8 17.8 
L 56.8 57.93125 
Q 56.8 59.93125 58.8 59.93125 
z
" style="fill:#e5e5e5;opacity:0.8;stroke:#cccccc;stroke-linejoin:miter;stroke-width:0.5;"/>
    </g>
    <g id="patch_99">
     <path d="M 60.8 26.8 
L 80.8 26.8 
L 80.8 19.8 
L 60.8 19.8 
z
" style="fill:#348abd;opacity:0.2;"/>
    </g>
    <g id="text_13">
     <!-- United Kingdom new cases -->
     <defs>
      <path d="M 25.09375 -1.09375 
Q 15.203125 -1.09375 10.09375 4.796875 
Q 5 10.703125 5 21.5 
L 5 62.296875 
L 12.796875 62.296875 
L 12.796875 61.59375 
Q 12.203125 61 12.046875 60.296875 
Q 11.90625 59.59375 11.90625 57.90625 
L 11.90625 21.40625 
Q 11.90625 13.40625 15 9.09375 
Q 18.09375 4.796875 25.203125 4.796875 
Q 32.40625 4.796875 35.546875 9.09375 
Q 38.703125 13.40625 38.703125 21.703125 
L 38.703125 62.296875 
L 45.40625 62.296875 
L 45.40625 21.796875 
Q 45.40625 10.296875 40.046875 4.59375 
Q 34.703125 -1.09375 25.09375 -1.09375 
z
" id="Inconsolata-Regular-85"/>
      <path d="M 44.40625 4.203125 
Q 37.796875 -0.703125 29.90625 -0.703125 
Q 22.296875 -0.703125 19.140625 3.890625 
Q 16 8.5 16 18.90625 
Q 16 20.59375 16.203125 24.796875 
L 17.09375 39.796875 
L 7 39.796875 
L 7 45.703125 
L 17.5 45.703125 
L 18.203125 57.90625 
L 26.203125 59.203125 
L 27.203125 59.296875 
L 27.296875 58.703125 
Q 26.59375 57.703125 26.25 57 
Q 25.90625 56.296875 25.796875 54.796875 
L 24.703125 45.703125 
L 39.90625 45.703125 
L 39.90625 39.796875 
L 24.296875 39.796875 
L 23.40625 24.296875 
Q 23.203125 20.296875 23.203125 19 
Q 23.203125 11 25.046875 8.140625 
Q 26.90625 5.296875 31 5.296875 
Q 34 5.296875 36.5 6.390625 
Q 39 7.5 42.203125 9.90625 
z
" id="Inconsolata-Regular-116"/>
      <path d="M 16.59375 31.203125 
L 11.703125 25.796875 
L 11.703125 0 
L 4.203125 0 
L 4.203125 62.296875 
L 12.59375 62.296875 
L 12.59375 61.59375 
Q 12 61 11.84375 60.296875 
Q 11.703125 59.59375 11.703125 57.90625 
L 11.703125 33.59375 
L 37.703125 62.796875 
Q 40.203125 62.296875 42.90625 62.296875 
L 45.5 62.296875 
L 21.90625 35.40625 
L 47.09375 0 
L 38.09375 -0.40625 
z
" id="Inconsolata-Regular-75"/>
      <path d="M 25 -0.796875 
Q 18.90625 -0.796875 14.09375 2.203125 
Q 9.296875 5.203125 6.59375 10.59375 
Q 3.90625 16 3.90625 22.90625 
Q 3.90625 29.796875 6.59375 35.1875 
Q 9.296875 40.59375 14.09375 43.640625 
Q 18.90625 46.703125 25 46.703125 
Q 31.09375 46.703125 35.890625 43.640625 
Q 40.703125 40.59375 43.390625 35.1875 
Q 46.09375 29.796875 46.09375 22.90625 
Q 46.09375 16 43.390625 10.59375 
Q 40.703125 5.203125 35.890625 2.203125 
Q 31.09375 -0.796875 25 -0.796875 
z
M 25 5.203125 
Q 28.90625 5.203125 31.953125 7.5 
Q 35 9.796875 36.75 13.84375 
Q 38.5 17.90625 38.5 23 
Q 38.5 30.796875 34.703125 35.75 
Q 30.90625 40.703125 25 40.703125 
Q 19.09375 40.703125 15.296875 35.75 
Q 11.5 30.796875 11.5 23 
Q 11.5 17.90625 13.25 13.84375 
Q 15 9.796875 18.046875 7.5 
Q 21.09375 5.203125 25 5.203125 
z
" id="Inconsolata-Regular-111"/>
      <path d="M 3.796875 45.703125 
L 10.40625 45.703125 
L 10.40625 41.203125 
Q 12 43.703125 14.5 45.25 
Q 17 46.796875 19.703125 46.796875 
Q 22.703125 46.796875 24.953125 44.890625 
Q 27.203125 43 27.796875 40.09375 
Q 29.09375 43.09375 31.890625 44.9375 
Q 34.703125 46.796875 38.09375 46.796875 
Q 42.59375 46.796875 44.84375 43.546875 
Q 47.09375 40.296875 46.90625 35.09375 
L 46.90625 0 
L 40.296875 0 
L 40.296875 32.40625 
Q 40.296875 38.09375 39.1875 39.796875 
Q 38.09375 41.5 36 41.5 
Q 34.203125 41.5 32.5 39.796875 
Q 30.796875 38.09375 29.75 35.4375 
Q 28.703125 32.796875 28.703125 30.203125 
L 28.703125 0 
L 22 0 
L 22 31.796875 
Q 22 37.40625 20.953125 39.34375 
Q 19.90625 41.296875 17 41.296875 
Q 15.5 41.296875 13.953125 39.9375 
Q 12.40625 38.59375 11.40625 36.140625 
Q 10.40625 33.703125 10.40625 30.5 
L 10.40625 0 
L 3.796875 0 
z
" id="Inconsolata-Regular-109"/>
      <path d="M 1.59375 45.703125 
L 7.90625 45.703125 
L 15.296875 9 
L 23.09375 41.40625 
L 27.5 41.40625 
L 37.203125 9.09375 
Q 40 27.796875 40.703125 33.640625 
Q 41.40625 39.5 41.40625 44.203125 
L 41.40625 45.703125 
L 48.09375 45.703125 
Q 45.09375 22.5 40.5 -0.09375 
L 33.703125 -0.09375 
L 25.296875 29.5 
L 17.296875 -0.09375 
L 10.796875 -0.09375 
z
" id="Inconsolata-Regular-119"/>
      <path d="M 28.296875 26.90625 
Q 36.90625 24.296875 40.453125 21.25 
Q 44 18.203125 44 13.296875 
Q 44 7.09375 39.140625 3.046875 
Q 34.296875 -1 25.09375 -1 
Q 13.5 -1 5.703125 6.203125 
L 9.703125 13 
L 9.796875 13.09375 
L 9.90625 13 
Q 13 9 16.296875 7 
Q 19.59375 5 25.296875 5 
Q 30.703125 5 33.796875 6.953125 
Q 36.90625 8.90625 36.90625 12.296875 
Q 36.90625 15.203125 34.40625 17.09375 
Q 31.90625 19 25.40625 21.09375 
Q 8.203125 26 8.203125 35.296875 
Q 8.203125 40.59375 12.546875 43.6875 
Q 16.90625 46.796875 25 46.796875 
Q 31.203125 46.796875 35.453125 45.046875 
Q 39.703125 43.296875 43.203125 39.59375 
L 39.09375 34.59375 
L 39 34.5 
Q 36.90625 37.703125 33.046875 39.546875 
Q 29.203125 41.40625 25.203125 41.40625 
Q 20.90625 41.40625 18.15625 39.90625 
Q 15.40625 38.40625 15.40625 35.703125 
Q 15.40625 33.203125 18.203125 31.09375 
Q 21 29 28.296875 26.90625 
z
M 37.90625 34.296875 
Q 37.90625 34.796875 38.703125 34.203125 
L 38.40625 33.796875 
L 37.90625 34.296875 
z
M 39 34.5 
Q 39.296875 34.09375 39.25 34 
Q 39.203125 33.90625 39 34 
Q 38.796875 34.09375 38.703125 34.203125 
L 39 34.5 
z
M 10.90625 13.40625 
Q 10.90625 13 10 13.40625 
L 10.296875 13.90625 
L 10.90625 13.5 
z
M 9.796875 13.09375 
Q 9.5 13.59375 9.59375 13.59375 
Q 9.703125 13.59375 10 13.40625 
L 9.796875 13.09375 
z
" id="Inconsolata-Regular-115"/>
     </defs>
     <g transform="translate(88.8 26.8)scale(0.1 -0.1)">
      <use xlink:href="#Inconsolata-Regular-85"/>
      <use x="49.999985" xlink:href="#Inconsolata-Regular-110"/>
      <use x="99.999969" xlink:href="#Inconsolata-Regular-105"/>
      <use x="149.999954" xlink:href="#Inconsolata-Regular-116"/>
      <use x="199.999939" xlink:href="#Inconsolata-Regular-101"/>
      <use x="249.999924" xlink:href="#Inconsolata-Regular-100"/>
      <use x="299.999908" xlink:href="#Inconsolata-Regular-32"/>
      <use x="349.999893" xlink:href="#Inconsolata-Regular-75"/>
      <use x="399.999878" xlink:href="#Inconsolata-Regular-105"/>
      <use x="449.999863" xlink:href="#Inconsolata-Regular-110"/>
      <use x="499.999847" xlink:href="#Inconsolata-Regular-103"/>
      <use x="549.999832" xlink:href="#Inconsolata-Regular-100"/>
      <use x="599.999817" xlink:href="#Inconsolata-Regular-111"/>
      <use x="649.999802" xlink:href="#Inconsolata-Regular-109"/>
      <use x="699.999786" xlink:href="#Inconsolata-Regular-32"/>
      <use x="749.999771" xlink:href="#Inconsolata-Regular-110"/>
      <use x="799.999756" xlink:href="#Inconsolata-Regular-101"/>
      <use x="849.999741" xlink:href="#Inconsolata-Regular-119"/>
      <use x="899.999725" xlink:href="#Inconsolata-Regular-32"/>
      <use x="949.99971" xlink:href="#Inconsolata-Regular-99"/>
      <use x="999.999695" xlink:href="#Inconsolata-Regular-97"/>
      <use x="1049.99968" xlink:href="#Inconsolata-Regular-115"/>
      <use x="1099.999664" xlink:href="#Inconsolata-Regular-101"/>
      <use x="1149.999649" xlink:href="#Inconsolata-Regular-115"/>
     </g>
    </g>
    <g id="line2d_25">
     <path d="M 60.8 37.020313 
L 80.8 37.020313 
" style="fill:none;stroke:#348abd;stroke-linecap:square;stroke-width:3;"/>
    </g>
    <g id="line2d_26"/>
    <g id="text_14">
     <!-- United Kingdom new cases (rolling mean) -->
     <defs>
      <path d="M 39.5 -17.40625 
Q 31.296875 -13.59375 25.09375 -7 
Q 18.90625 -0.40625 15.546875 7.890625 
Q 12.203125 16.203125 12.203125 25 
Q 12.203125 33.796875 15.5 41.890625 
Q 18.796875 50 24.84375 56.34375 
Q 30.90625 62.703125 38.90625 66.5 
L 40.796875 60.296875 
Q 31 55 25.140625 45.390625 
Q 19.296875 35.796875 19.296875 24.703125 
Q 19.296875 13.5 25.296875 3.703125 
Q 31.296875 -6.09375 41.40625 -11.40625 
L 39.5 -17.40625 
z
" id="Inconsolata-Regular-40"/>
      <path d="M 42.59375 36.203125 
L 42.59375 36.09375 
Q 39.703125 38.796875 37.75 39.6875 
Q 35.796875 40.59375 33.203125 40.59375 
Q 29.59375 40.59375 26.390625 38.796875 
Q 23.203125 37 21.203125 33.34375 
Q 19.203125 29.703125 19.203125 24.203125 
L 19.203125 -0.09375 
L 11.90625 -0.09375 
L 11.90625 45.703125 
L 19.40625 45.703125 
L 19.203125 37.296875 
Q 21.09375 41.796875 25.046875 44.296875 
Q 29 46.796875 33.703125 46.796875 
Q 41 46.796875 45.796875 41.796875 
z
M 42.59375 36.09375 
Q 43.296875 35.5 42.9375 35.59375 
Q 42.59375 35.703125 42.40625 35.796875 
L 42.59375 36.09375 
z
M 41.5 35.796875 
Q 41.5 36.09375 41.796875 36.046875 
Q 42.09375 36 42.40625 35.796875 
L 42.203125 35.296875 
L 41.5 35.703125 
z
" id="Inconsolata-Regular-114"/>
      <path d="M 11.40625 -11.40625 
Q 21.5 -6.09375 27.5 3.703125 
Q 33.5 13.5 33.5 24.703125 
Q 33.5 35.796875 27.640625 45.390625 
Q 21.796875 55 12 60.296875 
L 13.90625 66.5 
Q 21.90625 62.703125 27.953125 56.34375 
Q 34 50 37.296875 41.890625 
Q 40.59375 33.796875 40.59375 25 
Q 40.59375 16.203125 37.25 7.890625 
Q 33.90625 -0.40625 27.703125 -7 
Q 21.5 -13.59375 13.296875 -17.40625 
z
" id="Inconsolata-Regular-41"/>
     </defs>
     <g transform="translate(88.8 40.520313)scale(0.1 -0.1)">
      <use xlink:href="#Inconsolata-Regular-85"/>
      <use x="49.999985" xlink:href="#Inconsolata-Regular-110"/>
      <use x="99.999969" xlink:href="#Inconsolata-Regular-105"/>
      <use x="149.999954" xlink:href="#Inconsolata-Regular-116"/>
      <use x="199.999939" xlink:href="#Inconsolata-Regular-101"/>
      <use x="249.999924" xlink:href="#Inconsolata-Regular-100"/>
      <use x="299.999908" xlink:href="#Inconsolata-Regular-32"/>
      <use x="349.999893" xlink:href="#Inconsolata-Regular-75"/>
      <use x="399.999878" xlink:href="#Inconsolata-Regular-105"/>
      <use x="449.999863" xlink:href="#Inconsolata-Regular-110"/>
      <use x="499.999847" xlink:href="#Inconsolata-Regular-103"/>
      <use x="549.999832" xlink:href="#Inconsolata-Regular-100"/>
      <use x="599.999817" xlink:href="#Inconsolata-Regular-111"/>
      <use x="649.999802" xlink:href="#Inconsolata-Regular-109"/>
      <use x="699.999786" xlink:href="#Inconsolata-Regular-32"/>
      <use x="749.999771" xlink:href="#Inconsolata-Regular-110"/>
      <use x="799.999756" xlink:href="#Inconsolata-Regular-101"/>
      <use x="849.999741" xlink:href="#Inconsolata-Regular-119"/>
      <use x="899.999725" xlink:href="#Inconsolata-Regular-32"/>
      <use x="949.99971" xlink:href="#Inconsolata-Regular-99"/>
      <use x="999.999695" xlink:href="#Inconsolata-Regular-97"/>
      <use x="1049.99968" xlink:href="#Inconsolata-Regular-115"/>
      <use x="1099.999664" xlink:href="#Inconsolata-Regular-101"/>
      <use x="1149.999649" xlink:href="#Inconsolata-Regular-115"/>
      <use x="1199.999634" xlink:href="#Inconsolata-Regular-32"/>
      <use x="1249.999619" xlink:href="#Inconsolata-Regular-40"/>
      <use x="1299.999603" xlink:href="#Inconsolata-Regular-114"/>
      <use x="1349.999588" xlink:href="#Inconsolata-Regular-111"/>
      <use x="1399.999573" xlink:href="#Inconsolata-Regular-108"/>
      <use x="1449.999557" xlink:href="#Inconsolata-Regular-108"/>
      <use x="1499.999542" xlink:href="#Inconsolata-Regular-105"/>
      <use x="1549.999527" xlink:href="#Inconsolata-Regular-110"/>
      <use x="1599.999512" xlink:href="#Inconsolata-Regular-103"/>
      <use x="1649.999496" xlink:href="#Inconsolata-Regular-32"/>
      <use x="1699.999481" xlink:href="#Inconsolata-Regular-109"/>
      <use x="1749.999466" xlink:href="#Inconsolata-Regular-101"/>
      <use x="1799.999451" xlink:href="#Inconsolata-Regular-97"/>
      <use x="1849.999435" xlink:href="#Inconsolata-Regular-110"/>
      <use x="1899.99942" xlink:href="#Inconsolata-Regular-41"/>
     </g>
    </g>
    <g id="line2d_27"/>
    <g id="line2d_28">
     <g>
      <use style="fill:#e24a33;fill-opacity:0.001;stroke:#e24a33;stroke-opacity:0.001;" x="70.8" xlink:href="#m62bcec340e" y="50.760938"/>
     </g>
    </g>
    <g id="text_15">
     <!-- [last updated: 23/04/2020] -->
     <defs>
      <path d="M 13.09375 -8.90625 
L 13.09375 67 
L 41.703125 67 
L 41.703125 61 
L 19.5 61 
L 19.5 -3.203125 
L 41.796875 -3.203125 
L 41.796875 -8.90625 
z
" id="Inconsolata-Regular-91"/>
      <path d="M 22.09375 -1.09375 
Q 14.90625 -1.09375 10.59375 4.25 
Q 6.296875 9.59375 6.40625 20.203125 
L 6.5 45.703125 
L 13.5 45.703125 
L 13.5 20.203125 
Q 13.5 12 16.34375 8.34375 
Q 19.203125 4.703125 23.90625 4.703125 
Q 29.09375 4.703125 32.640625 8.75 
Q 36.203125 12.796875 36.203125 20.5 
L 36.203125 45.703125 
L 43.203125 45.703125 
L 43.203125 7.09375 
Q 43.203125 4.703125 43.34375 3.140625 
Q 43.5 1.59375 44.203125 0 
L 37.296875 0 
Q 36.59375 1.5 36.4375 3.09375 
Q 36.296875 4.703125 36.296875 7 
Q 34.09375 3.203125 30.34375 1.046875 
Q 26.59375 -1.09375 22.09375 -1.09375 
z
" id="Inconsolata-Regular-117"/>
      <path d="M 6 45.703125 
L 13.296875 45.703125 
L 13.296875 36.703125 
Q 14.796875 41.703125 18.5 44.203125 
Q 22.203125 46.703125 27.203125 46.703125 
Q 32.40625 46.703125 36.75 44.046875 
Q 41.09375 41.40625 43.6875 36.09375 
Q 46.296875 30.796875 46.296875 23.203125 
Q 46.296875 15.5 43.59375 9.953125 
Q 40.90625 4.40625 36.453125 1.59375 
Q 32 -1.203125 27 -1.203125 
Q 22.90625 -1.203125 19.296875 0.6875 
Q 15.703125 2.59375 13.40625 6 
L 13.40625 -16.703125 
L 6 -16.703125 
z
M 25.796875 5.203125 
Q 31.296875 5.203125 35.046875 9.34375 
Q 38.796875 13.5 38.796875 22.90625 
Q 38.796875 31.40625 35.5 35.953125 
Q 32.203125 40.5 26.09375 40.5 
Q 20.40625 40.5 16.84375 35.75 
Q 13.296875 31 13.296875 21.296875 
Q 13.5 13.40625 16.796875 9.296875 
Q 20.09375 5.203125 25.796875 5.203125 
z
" id="Inconsolata-Regular-112"/>
      <path d="M 23.796875 30.796875 
Q 21.5 30.796875 19.703125 32.5 
Q 17.90625 34.203125 17.90625 36.5 
Q 17.90625 38.90625 19.65625 40.59375 
Q 21.40625 42.296875 23.796875 42.296875 
Q 26.203125 42.296875 28 40.59375 
Q 29.796875 38.90625 29.796875 36.5 
Q 29.796875 34.203125 28 32.5 
Q 26.203125 30.796875 23.796875 30.796875 
z
M 23.796875 -1.09375 
Q 21.296875 -1.09375 19.59375 0.546875 
Q 17.90625 2.203125 17.90625 4.59375 
Q 17.90625 7 19.65625 8.703125 
Q 21.40625 10.40625 23.796875 10.40625 
Q 26.203125 10.40625 28 8.703125 
Q 29.796875 7 29.796875 4.59375 
Q 29.796875 2.296875 28.046875 0.59375 
Q 26.296875 -1.09375 23.796875 -1.09375 
z
" id="Inconsolata-Regular-58"/>
      <path d="M 12.296875 -4.203125 
L 6.40625 -1.296875 
L 37.703125 66.5 
L 43.703125 63.40625 
z
" id="Inconsolata-Regular-47"/>
      <path d="M 41.796875 -8.90625 
L 13.09375 -8.90625 
L 13.09375 -3.203125 
L 35.40625 -3.203125 
L 35.40625 61 
L 13.203125 61 
L 13.203125 67 
L 41.796875 67 
z
" id="Inconsolata-Regular-93"/>
     </defs>
     <g transform="translate(88.8 54.260938)scale(0.1 -0.1)">
      <use xlink:href="#Inconsolata-Regular-91"/>
      <use x="49.999985" xlink:href="#Inconsolata-Regular-108"/>
      <use x="99.999969" xlink:href="#Inconsolata-Regular-97"/>
      <use x="149.999954" xlink:href="#Inconsolata-Regular-115"/>
      <use x="199.999939" xlink:href="#Inconsolata-Regular-116"/>
      <use x="249.999924" xlink:href="#Inconsolata-Regular-32"/>
      <use x="299.999908" xlink:href="#Inconsolata-Regular-117"/>
      <use x="349.999893" xlink:href="#Inconsolata-Regular-112"/>
      <use x="399.999878" xlink:href="#Inconsolata-Regular-100"/>
      <use x="449.999863" xlink:href="#Inconsolata-Regular-97"/>
      <use x="499.999847" xlink:href="#Inconsolata-Regular-116"/>
      <use x="549.999832" xlink:href="#Inconsolata-Regular-101"/>
      <use x="599.999817" xlink:href="#Inconsolata-Regular-100"/>
      <use x="649.999802" xlink:href="#Inconsolata-Regular-58"/>
      <use x="699.999786" xlink:href="#Inconsolata-Regular-32"/>
      <use x="749.999771" xlink:href="#Inconsolata-Regular-50"/>
      <use x="799.999756" xlink:href="#Inconsolata-Regular-51"/>
      <use x="849.999741" xlink:href="#Inconsolata-Regular-47"/>
      <use x="899.999725" xlink:href="#Inconsolata-Regular-48"/>
      <use x="949.99971" xlink:href="#Inconsolata-Regular-52"/>
      <use x="999.999695" xlink:href="#Inconsolata-Regular-47"/>
      <use x="1049.99968" xlink:href="#Inconsolata-Regular-50"/>
      <use x="1099.999664" xlink:href="#Inconsolata-Regular-48"/>
      <use x="1149.999649" xlink:href="#Inconsolata-Regular-50"/>
      <use x="1199.999634" xlink:href="#Inconsolata-Regular-48"/>
      <use x="1249.999619" xlink:href="#Inconsolata-Regular-93"/>
     </g>
    </g>
   </g>
  </g>
 </g>
 <defs>
  <clipPath id="peacaf6d8ee">
   <rect height="142.4" width="801.4" x="51.8" y="10.8"/>
  </clipPath>
 </defs>
</svg>
