<?xml version="1.0" encoding="utf-8" standalone="no"?>
<!DOCTYPE svg PUBLIC "-//W3C//DTD SVG 1.1//EN"
  "http://www.w3.org/Graphics/SVG/1.1/DTD/svg11.dtd">
<!-- Created with matplotlib (https://matplotlib.org/) -->
<svg height="180pt" version="1.1" viewBox="0 0 864 180" width="864pt" xmlns="http://www.w3.org/2000/svg" xmlns:xlink="http://www.w3.org/1999/xlink">
 <defs>
  <style type="text/css">
*{stroke-linecap:butt;stroke-linejoin:round;}
  </style>
 </defs>
 <g id="figure_1">
  <g id="patch_1">
   <path d="M 0 180 
L 864 180 
L 864 0 
L 0 0 
z
" style="fill:#ffffff;"/>
  </g>
  <g id="axes_1">
   <g id="patch_2">
    <path d="M 52.45625 153.2 
L 853.2 153.2 
L 853.2 10.8 
L 52.45625 10.8 
z
" style="fill:#e5e5e5;"/>
   </g>
   <g id="matplotlib.axis_1">
    <g id="xtick_1">
     <g id="line2d_1">
      <path clip-path="url(#p7d3dfa8b4b)" d="M 165.05324 153.2 
L 165.05324 10.8 
" style="fill:none;stroke:#ffffff;stroke-linecap:square;stroke-width:0.8;"/>
     </g>
     <g id="line2d_2">
      <defs>
       <path d="M 0 0 
L 0 3.5 
" id="me41c4f9189" style="stroke:#555555;stroke-width:0.8;"/>
      </defs>
      <g>
       <use style="fill:#555555;stroke:#555555;stroke-width:0.8;" x="165.05324" xlink:href="#me41c4f9189" y="153.2"/>
      </g>
     </g>
     <g id="text_1">
      <!-- 2020-02-01 -->
      <defs>
       <path d="M 7.703125 52.59375 
L 12.796875 48.5 
C 13.40625 49.40625 13.09375 50 13.703125 50.796875 
C 15.203125 53.09375 18.90625 56.5 24.296875 56.5 
C 31 56.5 36.296875 51.40625 36.296875 44.703125 
C 36.296875 37.09375 29.90625 31.59375 25.40625 27.5 
C 18.296875 21.09375 12.5 14.703125 7.296875 4.40625 
L 7.296875 0 
L 43.90625 0 
L 43.90625 6.90625 
C 43.203125 7.203125 42.703125 6.703125 42.5 6.5 
C 42.09375 6.09375 41.90625 6.09375 41.5 6.09375 
L 15.296875 6.09375 
C 20.5 15.09375 27.796875 21.296875 32.296875 25.5 
C 36.796875 29.796875 43.203125 36.203125 43.203125 45.203125 
C 43.203125 54.90625 35.296875 62.703125 25.203125 62.703125 
C 18.09375 62.703125 11.40625 58.90625 7.703125 52.59375 
z
" id="Inconsolata-50"/>
       <path d="M 25.09375 62.703125 
C 15.203125 62.703125 5 50.5 5 30.59375 
C 5 10.40625 15.296875 -1.203125 25.203125 -1.203125 
C 34.203125 -1.203125 44.90625 8.59375 44.90625 30.09375 
C 44.90625 51.296875 34.703125 62.703125 25.09375 62.703125 
z
M 34.796875 48.40625 
L 12.90625 20 
C 12 23.5 11.5 27.40625 11.5 31.796875 
C 11.5 47.796875 18.796875 56.59375 25 56.59375 
C 28.40625 56.59375 32.09375 53.90625 34.796875 48.40625 
z
M 37.09375 41.796875 
C 38 38.296875 38.40625 34.09375 38.40625 29.203125 
C 38.40625 11.796875 30.90625 5.203125 25.40625 5.203125 
C 21.703125 5.203125 17.90625 8.203125 15.203125 13.703125 
z
" id="Inconsolata-48"/>
       <path d="M 7 34.703125 
L 7 28.09375 
L 43 28.09375 
L 43 34.703125 
z
" id="Inconsolata-45"/>
       <path d="M 29.90625 62.296875 
L 25.09375 62.296875 
L 8.796875 53.796875 
L 10.40625 49.90625 
L 22.90625 53.59375 
L 22.90625 -0.09375 
L 29.90625 -0.09375 
z
" id="Inconsolata-49"/>
      </defs>
      <g style="fill:#555555;" transform="translate(140.05324 166.840625)scale(0.1 -0.1)">
       <use xlink:href="#Inconsolata-50"/>
       <use x="49.999985" xlink:href="#Inconsolata-48"/>
       <use x="99.999969" xlink:href="#Inconsolata-50"/>
       <use x="149.999954" xlink:href="#Inconsolata-48"/>
       <use x="199.999939" xlink:href="#Inconsolata-45"/>
       <use x="249.999924" xlink:href="#Inconsolata-48"/>
       <use x="299.999908" xlink:href="#Inconsolata-50"/>
       <use x="349.999893" xlink:href="#Inconsolata-45"/>
       <use x="399.999878" xlink:href="#Inconsolata-48"/>
       <use x="449.999863" xlink:href="#Inconsolata-49"/>
      </g>
     </g>
    </g>
    <g id="xtick_2">
     <g id="line2d_3">
      <path clip-path="url(#p7d3dfa8b4b)" d="M 278.541927 153.2 
L 278.541927 10.8 
" style="fill:none;stroke:#ffffff;stroke-linecap:square;stroke-width:0.8;"/>
     </g>
     <g id="line2d_4">
      <g>
       <use style="fill:#555555;stroke:#555555;stroke-width:0.8;" x="278.541927" xlink:href="#me41c4f9189" y="153.2"/>
      </g>
     </g>
     <g id="text_2">
      <!-- 2020-02-15 -->
      <defs>
       <path d="M 10.59375 62.296875 
L 8.40625 30.59375 
L 12.90625 28.796875 
C 15.90625 32.59375 20.296875 34.703125 24.59375 34.703125 
C 31.09375 34.703125 37.296875 29.703125 37.296875 19.796875 
C 37.296875 10.203125 31.40625 5 24.703125 5 
C 18 5 13.59375 10.09375 13.296875 10.703125 
C 12.90625 11.5 13.40625 12.5 12.5 13.09375 
L 6.296875 8.40625 
C 10.5 2.296875 17.40625 -1.203125 24.796875 -1.203125 
C 35.59375 -1.203125 44.5 6.09375 44.5 19.59375 
C 44.5 33 36.09375 40.40625 25.59375 40.40625 
C 22.203125 40.40625 18.703125 39.59375 15.5 38 
L 16.40625 56 
L 42.203125 56 
L 42.203125 62.296875 
z
" id="Inconsolata-53"/>
      </defs>
      <g style="fill:#555555;" transform="translate(253.541927 166.840625)scale(0.1 -0.1)">
       <use xlink:href="#Inconsolata-50"/>
       <use x="49.999985" xlink:href="#Inconsolata-48"/>
       <use x="99.999969" xlink:href="#Inconsolata-50"/>
       <use x="149.999954" xlink:href="#Inconsolata-48"/>
       <use x="199.999939" xlink:href="#Inconsolata-45"/>
       <use x="249.999924" xlink:href="#Inconsolata-48"/>
       <use x="299.999908" xlink:href="#Inconsolata-50"/>
       <use x="349.999893" xlink:href="#Inconsolata-45"/>
       <use x="399.999878" xlink:href="#Inconsolata-49"/>
       <use x="449.999863" xlink:href="#Inconsolata-53"/>
      </g>
     </g>
    </g>
    <g id="xtick_3">
     <g id="line2d_5">
      <path clip-path="url(#p7d3dfa8b4b)" d="M 400.136949 153.2 
L 400.136949 10.8 
" style="fill:none;stroke:#ffffff;stroke-linecap:square;stroke-width:0.8;"/>
     </g>
     <g id="line2d_6">
      <g>
       <use style="fill:#555555;stroke:#555555;stroke-width:0.8;" x="400.136949" xlink:href="#me41c4f9189" y="153.2"/>
      </g>
     </g>
     <g id="text_3">
      <!-- 2020-03-01 -->
      <defs>
       <path d="M 41 46.703125 
C 41 55.203125 33.796875 62.5 23.90625 62.5 
C 18.296875 62.5 12.796875 60.09375 8.90625 55.796875 
L 12.796875 51.5 
C 15.703125 54.59375 19.703125 56.296875 23.59375 56.296875 
C 30 56.296875 34.40625 51.796875 34.40625 46.5 
C 34.40625 42.796875 32.09375 38.59375 27.703125 36.703125 
C 26.59375 36.296875 23.796875 35.203125 17.90625 35.203125 
L 17.90625 29.59375 
C 18.90625 29.703125 20 29.796875 21.09375 29.796875 
C 29.5 29.796875 35.703125 25.40625 35.703125 17.90625 
C 35.703125 11.09375 30.5 5.203125 23.203125 5.203125 
C 17.40625 5.203125 13.90625 9 13.40625 9.5 
C 12.59375 10.40625 13 11.40625 12.09375 12.296875 
L 6.90625 6 
C 11 1.296875 17 -1.09375 23.203125 -1.09375 
C 35.203125 -1.09375 42.40625 7.40625 42.40625 17.09375 
C 42.40625 24.5 38.203125 30.796875 31.703125 33.203125 
C 37.296875 35.296875 41 40.59375 41 46.703125 
z
" id="Inconsolata-51"/>
      </defs>
      <g style="fill:#555555;" transform="translate(375.136949 166.840625)scale(0.1 -0.1)">
       <use xlink:href="#Inconsolata-50"/>
       <use x="49.999985" xlink:href="#Inconsolata-48"/>
       <use x="99.999969" xlink:href="#Inconsolata-50"/>
       <use x="149.999954" xlink:href="#Inconsolata-48"/>
       <use x="199.999939" xlink:href="#Inconsolata-45"/>
       <use x="249.999924" xlink:href="#Inconsolata-48"/>
       <use x="299.999908" xlink:href="#Inconsolata-51"/>
       <use x="349.999893" xlink:href="#Inconsolata-45"/>
       <use x="399.999878" xlink:href="#Inconsolata-48"/>
       <use x="449.999863" xlink:href="#Inconsolata-49"/>
      </g>
     </g>
    </g>
    <g id="xtick_4">
     <g id="line2d_7">
      <path clip-path="url(#p7d3dfa8b4b)" d="M 513.625636 153.2 
L 513.625636 10.8 
" style="fill:none;stroke:#ffffff;stroke-linecap:square;stroke-width:0.8;"/>
     </g>
     <g id="line2d_8">
      <g>
       <use style="fill:#555555;stroke:#555555;stroke-width:0.8;" x="513.625636" xlink:href="#me41c4f9189" y="153.2"/>
      </g>
     </g>
     <g id="text_4">
      <!-- 2020-03-15 -->
      <g style="fill:#555555;" transform="translate(488.625636 166.840625)scale(0.1 -0.1)">
       <use xlink:href="#Inconsolata-50"/>
       <use x="49.999985" xlink:href="#Inconsolata-48"/>
       <use x="99.999969" xlink:href="#Inconsolata-50"/>
       <use x="149.999954" xlink:href="#Inconsolata-48"/>
       <use x="199.999939" xlink:href="#Inconsolata-45"/>
       <use x="249.999924" xlink:href="#Inconsolata-48"/>
       <use x="299.999908" xlink:href="#Inconsolata-51"/>
       <use x="349.999893" xlink:href="#Inconsolata-45"/>
       <use x="399.999878" xlink:href="#Inconsolata-49"/>
       <use x="449.999863" xlink:href="#Inconsolata-53"/>
      </g>
     </g>
    </g>
    <g id="xtick_5">
     <g id="line2d_9">
      <path clip-path="url(#p7d3dfa8b4b)" d="M 651.433327 153.2 
L 651.433327 10.8 
" style="fill:none;stroke:#ffffff;stroke-linecap:square;stroke-width:0.8;"/>
     </g>
     <g id="line2d_10">
      <g>
       <use style="fill:#555555;stroke:#555555;stroke-width:0.8;" x="651.433327" xlink:href="#me41c4f9189" y="153.2"/>
      </g>
     </g>
     <g id="text_5">
      <!-- 2020-04-01 -->
      <defs>
       <path d="M 31.296875 62.296875 
L 4.796875 22.40625 
L 4.796875 17.203125 
L 29.90625 17.203125 
L 29.90625 0 
L 37.09375 0 
L 37.09375 17.09375 
L 45.203125 17.09375 
L 45.203125 23.296875 
L 37.09375 23.296875 
L 37.09375 62.296875 
z
M 30 51.203125 
L 30 23.296875 
L 11.703125 23.296875 
z
" id="Inconsolata-52"/>
      </defs>
      <g style="fill:#555555;" transform="translate(626.433327 166.840625)scale(0.1 -0.1)">
       <use xlink:href="#Inconsolata-50"/>
       <use x="49.999985" xlink:href="#Inconsolata-48"/>
       <use x="99.999969" xlink:href="#Inconsolata-50"/>
       <use x="149.999954" xlink:href="#Inconsolata-48"/>
       <use x="199.999939" xlink:href="#Inconsolata-45"/>
       <use x="249.999924" xlink:href="#Inconsolata-48"/>
       <use x="299.999908" xlink:href="#Inconsolata-52"/>
       <use x="349.999893" xlink:href="#Inconsolata-45"/>
       <use x="399.999878" xlink:href="#Inconsolata-48"/>
       <use x="449.999863" xlink:href="#Inconsolata-49"/>
      </g>
     </g>
    </g>
    <g id="xtick_6">
     <g id="line2d_11">
      <path clip-path="url(#p7d3dfa8b4b)" d="M 764.922014 153.2 
L 764.922014 10.8 
" style="fill:none;stroke:#ffffff;stroke-linecap:square;stroke-width:0.8;"/>
     </g>
     <g id="line2d_12">
      <g>
       <use style="fill:#555555;stroke:#555555;stroke-width:0.8;" x="764.922014" xlink:href="#me41c4f9189" y="153.2"/>
      </g>
     </g>
     <g id="text_6">
      <!-- 2020-04-15 -->
      <g style="fill:#555555;" transform="translate(739.922014 166.840625)scale(0.1 -0.1)">
       <use xlink:href="#Inconsolata-50"/>
       <use x="49.999985" xlink:href="#Inconsolata-48"/>
       <use x="99.999969" xlink:href="#Inconsolata-50"/>
       <use x="149.999954" xlink:href="#Inconsolata-48"/>
       <use x="199.999939" xlink:href="#Inconsolata-45"/>
       <use x="249.999924" xlink:href="#Inconsolata-48"/>
       <use x="299.999908" xlink:href="#Inconsolata-52"/>
       <use x="349.999893" xlink:href="#Inconsolata-45"/>
       <use x="399.999878" xlink:href="#Inconsolata-49"/>
       <use x="449.999863" xlink:href="#Inconsolata-53"/>
      </g>
     </g>
    </g>
   </g>
   <g id="matplotlib.axis_2">
    <g id="ytick_1">
     <g id="line2d_13">
      <path clip-path="url(#p7d3dfa8b4b)" d="M 52.45625 153.2 
L 853.2 153.2 
" style="fill:none;stroke:#ffffff;stroke-linecap:square;stroke-width:0.8;"/>
     </g>
     <g id="line2d_14">
      <defs>
       <path d="M 0 0 
L -3.5 0 
" id="mda41d572f2" style="stroke:#555555;stroke-width:0.8;"/>
      </defs>
      <g>
       <use style="fill:#555555;stroke:#555555;stroke-width:0.8;" x="52.45625" xlink:href="#mda41d572f2" y="153.2"/>
      </g>
     </g>
     <g id="text_7">
      <!-- 0 -->
      <g style="fill:#555555;" transform="translate(40.45625 156.520312)scale(0.1 -0.1)">
       <use xlink:href="#Inconsolata-48"/>
      </g>
     </g>
    </g>
    <g id="ytick_2">
     <g id="line2d_15">
      <path clip-path="url(#p7d3dfa8b4b)" d="M 52.45625 122.141017 
L 853.2 122.141017 
" style="fill:none;stroke:#ffffff;stroke-linecap:square;stroke-width:0.8;"/>
     </g>
     <g id="line2d_16">
      <g>
       <use style="fill:#555555;stroke:#555555;stroke-width:0.8;" x="52.45625" xlink:href="#mda41d572f2" y="122.141017"/>
      </g>
     </g>
     <g id="text_8">
      <!-- 2000 -->
      <g style="fill:#555555;" transform="translate(25.45625 125.46133)scale(0.1 -0.1)">
       <use xlink:href="#Inconsolata-50"/>
       <use x="49.999985" xlink:href="#Inconsolata-48"/>
       <use x="99.999969" xlink:href="#Inconsolata-48"/>
       <use x="149.999954" xlink:href="#Inconsolata-48"/>
      </g>
     </g>
    </g>
    <g id="ytick_3">
     <g id="line2d_17">
      <path clip-path="url(#p7d3dfa8b4b)" d="M 52.45625 91.082035 
L 853.2 91.082035 
" style="fill:none;stroke:#ffffff;stroke-linecap:square;stroke-width:0.8;"/>
     </g>
     <g id="line2d_18">
      <g>
       <use style="fill:#555555;stroke:#555555;stroke-width:0.8;" x="52.45625" xlink:href="#mda41d572f2" y="91.082035"/>
      </g>
     </g>
     <g id="text_9">
      <!-- 4000 -->
      <g style="fill:#555555;" transform="translate(25.45625 94.402347)scale(0.1 -0.1)">
       <use xlink:href="#Inconsolata-52"/>
       <use x="49.999985" xlink:href="#Inconsolata-48"/>
       <use x="99.999969" xlink:href="#Inconsolata-48"/>
       <use x="149.999954" xlink:href="#Inconsolata-48"/>
      </g>
     </g>
    </g>
    <g id="ytick_4">
     <g id="line2d_19">
      <path clip-path="url(#p7d3dfa8b4b)" d="M 52.45625 60.023052 
L 853.2 60.023052 
" style="fill:none;stroke:#ffffff;stroke-linecap:square;stroke-width:0.8;"/>
     </g>
     <g id="line2d_20">
      <g>
       <use style="fill:#555555;stroke:#555555;stroke-width:0.8;" x="52.45625" xlink:href="#mda41d572f2" y="60.023052"/>
      </g>
     </g>
     <g id="text_10">
      <!-- 6000 -->
      <defs>
       <path d="M 28.703125 63 
C 21.203125 63 13.203125 58.40625 9.296875 47.5 
C 7.203125 41.59375 6.703125 34.296875 6.703125 28.296875 
C 6.703125 21 7.40625 13.203125 11.40625 7.203125 
C 15 1.703125 20.59375 -1.09375 26.09375 -1.09375 
C 35.59375 -1.09375 43.90625 6.90625 43.90625 19.796875 
C 43.90625 32.703125 35.59375 40.203125 26.796875 40.203125 
C 21.40625 40.203125 16.296875 37.296875 13.59375 32.703125 
C 14 54 24.203125 56.796875 28.703125 56.796875 
C 32.796875 56.796875 35.59375 54.59375 36 54.203125 
C 36.59375 53.5 36.59375 52.59375 37.5 51.90625 
L 42.296875 57.296875 
C 38.703125 60.90625 33.703125 63 28.703125 63 
z
M 26.09375 34 
C 31.09375 34 37.09375 30.09375 37.09375 19.40625 
C 37.09375 9.703125 31.703125 5.09375 26.40625 5.09375 
C 18.796875 5.09375 13.09375 14 13.90625 25.703125 
C 16.703125 30.796875 21.5 34 26.09375 34 
z
" id="Inconsolata-54"/>
      </defs>
      <g style="fill:#555555;" transform="translate(25.45625 63.343365)scale(0.1 -0.1)">
       <use xlink:href="#Inconsolata-54"/>
       <use x="49.999985" xlink:href="#Inconsolata-48"/>
       <use x="99.999969" xlink:href="#Inconsolata-48"/>
       <use x="149.999954" xlink:href="#Inconsolata-48"/>
      </g>
     </g>
    </g>
    <g id="ytick_5">
     <g id="line2d_21">
      <path clip-path="url(#p7d3dfa8b4b)" d="M 52.45625 28.96407 
L 853.2 28.96407 
" style="fill:none;stroke:#ffffff;stroke-linecap:square;stroke-width:0.8;"/>
     </g>
     <g id="line2d_22">
      <g>
       <use style="fill:#555555;stroke:#555555;stroke-width:0.8;" x="52.45625" xlink:href="#mda41d572f2" y="28.96407"/>
      </g>
     </g>
     <g id="text_11">
      <!-- 8000 -->
      <defs>
       <path d="M 25.796875 63 
C 16.203125 63 8.90625 56.09375 8.90625 47.703125 
C 8.90625 41.59375 12.796875 36 18.40625 33.09375 
C 11 29.59375 6 22.796875 6 15.59375 
C 6 6.296875 14.203125 -1.09375 24.90625 -1.09375 
C 35.796875 -1.09375 44.09375 6.5 44.09375 16 
C 44.09375 23.40625 39.09375 30 32.09375 33.296875 
C 38.09375 36.40625 42 42.296875 42 48.296875 
C 42 56.5 34.90625 63 25.796875 63 
z
M 23.703125 30.203125 
C 31.703125 27.703125 37 22.203125 37 16.09375 
C 37 10.09375 31.90625 5.203125 25.203125 5.203125 
C 18.40625 5.203125 13.203125 10.296875 13.203125 16.5 
C 13.203125 22.40625 17.796875 27.796875 23.703125 30.203125 
z
M 25.203125 57.203125 
C 30.796875 57.203125 35.203125 53 35.203125 47.796875 
C 35.203125 43 31.5 38.40625 26.59375 35.796875 
C 26.59375 35.796875 15.59375 40 15.59375 48.296875 
C 15.59375 53.203125 19.796875 57.203125 25.203125 57.203125 
z
" id="Inconsolata-56"/>
      </defs>
      <g style="fill:#555555;" transform="translate(25.45625 32.284382)scale(0.1 -0.1)">
       <use xlink:href="#Inconsolata-56"/>
       <use x="49.999985" xlink:href="#Inconsolata-48"/>
       <use x="99.999969" xlink:href="#Inconsolata-48"/>
       <use x="149.999954" xlink:href="#Inconsolata-48"/>
      </g>
     </g>
    </g>
    <g id="text_12">
     <!-- daily change -->
     <defs>
      <path d="M 37.09375 39 
C 34.90625 43.703125 30 46.796875 23.703125 46.796875 
C 15 46.796875 4.40625 40.59375 4.40625 23.203125 
C 4.40625 6.296875 13.796875 -1.09375 22.59375 -1.09375 
C 28.40625 -1.09375 33.796875 2.203125 36.703125 7.296875 
L 36.703125 3.296875 
C 36.703125 2.203125 36.796875 1.09375 37.09375 0 
L 44.296875 0 
C 43.90625 1.296875 43.90625 2.796875 43.90625 4.203125 
L 43.796875 63.59375 
C 43.796875 64.203125 43.796875 64.40625 44.203125 65 
C 44.40625 65.296875 44.796875 65.796875 44.703125 66.5 
L 37.09375 66.5 
z
M 24 40.90625 
C 28 40.90625 33.90625 38.796875 35.703125 32 
C 36.296875 29.90625 36.5 27.40625 36.5 22.296875 
C 36.5 18.796875 36.296875 16.296875 35.5 13.90625 
C 33.796875 8.5 29 5.296875 24.296875 5.296875 
C 19.09375 5.296875 11.40625 9.296875 11.40625 24.296875 
C 11.40625 37.40625 18.703125 40.90625 24 40.90625 
z
" id="Inconsolata-100"/>
      <path d="M 9 40.296875 
L 12.5 35.703125 
C 16.296875 39.59375 21.40625 40.796875 25.703125 40.796875 
C 31.09375 40.796875 33.796875 38.5 35.09375 36.40625 
C 36.59375 33.90625 36.5 30.90625 36.5 28.5 
L 36.5 26.90625 
L 35.09375 26.90625 
C 28.296875 26.90625 21.09375 26.90625 15.296875 24.796875 
C 8.09375 22.203125 4.90625 16.796875 4.90625 11.796875 
C 4.90625 5.09375 10.703125 -1.203125 20.203125 -1.203125 
C 25.796875 -1.203125 31.59375 0.90625 36.59375 5 
L 36.59375 0 
L 43.40625 0 
L 43.40625 28.296875 
C 43.40625 32 43.296875 35.5 41.203125 39.09375 
C 38.203125 44 32.40625 46.59375 25.296875 46.59375 
C 19.203125 46.59375 13.296875 44.703125 9 40.296875 
z
M 36.796875 21.40625 
L 36.796875 18.296875 
C 36.796875 16 36.796875 13 33.703125 9.703125 
C 32 8 27.703125 4.296875 21.703125 4.296875 
C 15.59375 4.296875 12.09375 8.203125 12.09375 12.203125 
C 12.09375 15.59375 14.40625 19.296875 20.09375 20.703125 
C 24.296875 21.703125 30.40625 21.40625 35.203125 21.40625 
z
" id="Inconsolata-97"/>
      <path d="M 10.59375 45.703125 
L 10.59375 39.796875 
L 21.59375 39.796875 
L 21.59375 5.703125 
L 10 5.703125 
L 10 0 
L 39.59375 0 
L 39.59375 5.703125 
L 28.90625 5.703125 
L 28.90625 45.703125 
z
M 25.40625 65.5 
C 22.5 65.5 20.203125 63.203125 20.203125 60.40625 
C 20.203125 57.59375 22.5 55.296875 25.40625 55.296875 
C 28.296875 55.296875 30.59375 57.59375 30.59375 60.40625 
C 30.59375 63.203125 28.296875 65.5 25.40625 65.5 
z
" id="Inconsolata-105"/>
      <path d="M 8.40625 66.40625 
L 8.40625 60.59375 
L 21.40625 60.59375 
L 21.40625 5.703125 
L 7.796875 5.703125 
L 7.796875 0 
L 42.09375 0 
L 42.09375 5.703125 
L 28.59375 5.703125 
L 28.59375 66.40625 
z
" id="Inconsolata-108"/>
      <path d="M 4.5 45.59375 
L 23.09375 0.09375 
L 21.59375 -3.203125 
C 20.796875 -5.09375 19.90625 -7 18.5 -8.5 
C 16.59375 -10.59375 14.203125 -11.5 12.09375 -11.5 
C 8.703125 -11.5 7 -9.203125 6.703125 -8.796875 
C 6.40625 -8.296875 6.5 -7.59375 5.90625 -7.09375 
L 2.203125 -13.59375 
C 4.796875 -16.09375 8.296875 -17.40625 12.09375 -17.40625 
C 16.203125 -17.40625 20.5 -15.90625 23.5 -12.5 
C 25.5 -10.203125 26.5 -7.796875 27.5 -5.203125 
L 41.703125 32.5 
C 43.40625 36.796875 44.90625 41.203125 46.296875 45.703125 
L 38.796875 45.703125 
C 38 41.5 36.703125 37.5 35.296875 33.5 
L 26.59375 9 
L 13.203125 42.703125 
C 13.09375 43 13.09375 43.203125 13.09375 43.5 
C 13.09375 44.203125 13.59375 44.703125 13.5 45.59375 
z
" id="Inconsolata-121"/>
      <path id="Inconsolata-32"/>
      <path d="M 45.59375 38.09375 
C 42 43.40625 35.90625 46.59375 28.5 46.59375 
C 15.09375 46.59375 5.59375 36.5 5.59375 22.796875 
C 5.59375 9 15.09375 -1.203125 28.09375 -1.203125 
C 34.40625 -1.203125 40.59375 1.40625 44.90625 6.09375 
L 40.796875 10.90625 
C 37.703125 7.40625 33.203125 5.40625 28.703125 5.40625 
C 19.796875 5.40625 13 12.796875 13 23.5 
C 13 33.90625 19.703125 40.40625 28.09375 40.40625 
C 35.90625 40.40625 39.59375 35 39.90625 34.40625 
C 40.296875 33.703125 39.703125 32.703125 40.5 32.09375 
z
" id="Inconsolata-99"/>
      <path d="M 6.90625 0 
L 14.296875 0 
L 14.296875 26.296875 
C 14.296875 29.296875 14.59375 31.59375 16.5 34.09375 
C 18.296875 36.40625 22.703125 40.5 27.5 40.5 
C 29.796875 40.5 32.09375 39.5 33.703125 37.59375 
C 36.203125 34.59375 36.203125 30.703125 36.203125 27.5 
L 36.203125 0 
L 43.296875 0 
L 43.296875 27.703125 
C 43.296875 31.203125 43.203125 35 41.59375 38.703125 
C 39.296875 43.796875 34.703125 46.703125 29.5 46.703125 
C 23.296875 46.703125 17.59375 42.703125 14.296875 37.59375 
L 14.296875 64.09375 
C 14.296875 64.40625 14.296875 64.703125 14.59375 65 
C 14.90625 65.296875 15.296875 65.59375 15.296875 66.09375 
C 15.296875 66.203125 15.296875 66.296875 15.203125 66.40625 
L 6.90625 66.40625 
z
" id="Inconsolata-104"/>
      <path d="M 6.796875 0 
L 14.09375 0 
L 14.09375 26.296875 
C 14.09375 29.296875 14.5 31.59375 16.40625 34.09375 
C 18.09375 36.40625 22.5 40.5 27.296875 40.5 
C 29.59375 40.5 31.90625 39.5 33.5 37.59375 
C 36 34.59375 36 30.703125 36 27.5 
L 36 0 
L 43.09375 0 
L 43.09375 27.703125 
C 43.09375 31.203125 43.09375 35 41.5 38.703125 
C 39.203125 43.796875 34.5 46.703125 29.296875 46.703125 
C 23.09375 46.703125 17.5 42.703125 14.09375 37.59375 
L 14.09375 45.59375 
L 6.796875 45.59375 
z
" id="Inconsolata-110"/>
      <path d="M 12.5 31.40625 
C 12.5 36.90625 17.09375 41.40625 22.59375 41.40625 
C 28.203125 41.40625 32.703125 36.90625 32.703125 31.40625 
C 32.703125 25.90625 28.203125 21.40625 22.59375 21.40625 
C 17 21.40625 12.5 25.90625 12.5 31.40625 
z
M 23 47.09375 
C 13.90625 47.09375 6 39.90625 6 31 
C 6 26 8.5 21.296875 12.703125 18.59375 
C 9.40625 15.796875 7.5 12.703125 7.5 9.796875 
C 7.5 7.90625 8.296875 5.203125 11.203125 3.703125 
C 6.296875 0.59375 3.796875 -2.796875 3.796875 -6.40625 
C 3.796875 -11.40625 8.40625 -17.296875 24.40625 -17.296875 
C 39.90625 -17.296875 45.5 -9.40625 45.5 -3.296875 
C 45.5 0.703125 43.203125 4.703125 38.40625 6.59375 
C 33.59375 8.59375 28.09375 7.90625 22.90625 7.90625 
C 19.5 7.90625 17.296875 8.203125 16.40625 8.5 
C 14.59375 9 13.59375 10.09375 13.59375 11.5 
C 13.59375 13.90625 16.40625 16.203125 16.90625 16.59375 
C 18.703125 15.90625 20.703125 15.59375 22.703125 15.59375 
C 31.703125 15.59375 39.09375 22.796875 39.09375 31.203125 
C 39.09375 34 38.296875 36.703125 36.796875 39 
C 39.203125 40.40625 42 41.203125 44.796875 41.203125 
C 45.703125 41.203125 46.5 41.09375 47.40625 40.90625 
L 46.59375 46.796875 
C 42 47.203125 37.40625 45.703125 33.90625 42.796875 
C 31 45.59375 27.203125 47.09375 23 47.09375 
z
M 16.09375 2.40625 
C 17.796875 2.203125 20.203125 2 23.703125 1.796875 
C 27.09375 1.703125 30.796875 2 33.40625 1.59375 
C 37.59375 0.90625 38.90625 -1.703125 38.90625 -3.703125 
C 38.90625 -5.703125 37.703125 -8.09375 34.59375 -9.796875 
C 31.203125 -11.59375 27.40625 -11.796875 24.296875 -11.796875 
C 22.203125 -11.796875 18.296875 -11.703125 14.90625 -10.296875 
C 11.203125 -8.796875 10.40625 -6.296875 10.40625 -4.703125 
C 10.40625 -1.40625 13.5 1 16.09375 2.40625 
z
" id="Inconsolata-103"/>
      <path d="M 25.796875 46.703125 
C 14.90625 46.703125 4.796875 38.90625 4.796875 22.296875 
C 4.796875 7 14.296875 -1.09375 26.703125 -1.09375 
C 33.296875 -1.09375 39.203125 1.296875 43.09375 6 
L 39.09375 9.90625 
C 36.203125 6.5 31.796875 4.703125 27.296875 4.703125 
C 21.203125 4.703125 12.296875 8.09375 11.796875 21.796875 
L 44.203125 21.796875 
C 44.5 24.90625 44.40625 27.90625 43.90625 30.5 
C 41.796875 42.796875 33.296875 46.703125 25.796875 46.703125 
z
M 12 27.296875 
C 13.5 38.09375 20.40625 41.203125 25.296875 41.203125 
C 32.703125 41.203125 38 34.703125 37.09375 27.296875 
z
" id="Inconsolata-101"/>
     </defs>
     <g style="fill:#555555;" transform="translate(19.3675 118)rotate(-90)scale(0.12 -0.12)">
      <use xlink:href="#Inconsolata-100"/>
      <use x="49.999985" xlink:href="#Inconsolata-97"/>
      <use x="99.999969" xlink:href="#Inconsolata-105"/>
      <use x="149.999954" xlink:href="#Inconsolata-108"/>
      <use x="199.999939" xlink:href="#Inconsolata-121"/>
      <use x="249.999924" xlink:href="#Inconsolata-32"/>
      <use x="299.999908" xlink:href="#Inconsolata-99"/>
      <use x="349.999893" xlink:href="#Inconsolata-104"/>
      <use x="399.999878" xlink:href="#Inconsolata-97"/>
      <use x="449.999863" xlink:href="#Inconsolata-110"/>
      <use x="499.999847" xlink:href="#Inconsolata-103"/>
      <use x="549.999832" xlink:href="#Inconsolata-101"/>
     </g>
    </g>
   </g>
   <g id="patch_3">
    <path clip-path="url(#p7d3dfa8b4b)" d="M 88.853693 153.2 
L 95.338761 153.2 
L 95.338761 153.2 
L 88.853693 153.2 
z
" style="fill:#348abd;opacity:0.2;"/>
   </g>
   <g id="patch_4">
    <path clip-path="url(#p7d3dfa8b4b)" d="M 96.960028 153.2 
L 103.445096 153.2 
L 103.445096 153.2 
L 96.960028 153.2 
z
" style="fill:#348abd;opacity:0.2;"/>
   </g>
   <g id="patch_5">
    <path clip-path="url(#p7d3dfa8b4b)" d="M 105.066363 153.2 
L 111.551431 153.2 
L 111.551431 153.2 
L 105.066363 153.2 
z
" style="fill:#348abd;opacity:0.2;"/>
   </g>
   <g id="patch_6">
    <path clip-path="url(#p7d3dfa8b4b)" d="M 113.172698 153.2 
L 119.657765 153.2 
L 119.657765 153.2 
L 113.172698 153.2 
z
" style="fill:#348abd;opacity:0.2;"/>
   </g>
   <g id="patch_7">
    <path clip-path="url(#p7d3dfa8b4b)" d="M 121.279032 153.2 
L 127.7641 153.2 
L 127.7641 153.2 
L 121.279032 153.2 
z
" style="fill:#348abd;opacity:0.2;"/>
   </g>
   <g id="patch_8">
    <path clip-path="url(#p7d3dfa8b4b)" d="M 129.385367 153.2 
L 135.870435 153.2 
L 135.870435 153.2 
L 129.385367 153.2 
z
" style="fill:#348abd;opacity:0.2;"/>
   </g>
   <g id="patch_9">
    <path clip-path="url(#p7d3dfa8b4b)" d="M 137.491702 153.2 
L 143.97677 153.2 
L 143.97677 153.2 
L 137.491702 153.2 
z
" style="fill:#348abd;opacity:0.2;"/>
   </g>
   <g id="patch_10">
    <path clip-path="url(#p7d3dfa8b4b)" d="M 145.598037 153.2 
L 152.083104 153.2 
L 152.083104 153.2 
L 145.598037 153.2 
z
" style="fill:#348abd;opacity:0.2;"/>
   </g>
   <g id="patch_11">
    <path clip-path="url(#p7d3dfa8b4b)" d="M 153.704371 153.2 
L 160.189439 153.2 
L 160.189439 153.168941 
L 153.704371 153.168941 
z
" style="fill:#348abd;opacity:0.2;"/>
   </g>
   <g id="patch_12">
    <path clip-path="url(#p7d3dfa8b4b)" d="M 161.810706 153.2 
L 168.295774 153.2 
L 168.295774 153.2 
L 161.810706 153.2 
z
" style="fill:#348abd;opacity:0.2;"/>
   </g>
   <g id="patch_13">
    <path clip-path="url(#p7d3dfa8b4b)" d="M 169.917041 153.2 
L 176.402109 153.2 
L 176.402109 153.2 
L 169.917041 153.2 
z
" style="fill:#348abd;opacity:0.2;"/>
   </g>
   <g id="patch_14">
    <path clip-path="url(#p7d3dfa8b4b)" d="M 178.023376 153.2 
L 184.508444 153.2 
L 184.508444 153.2 
L 178.023376 153.2 
z
" style="fill:#348abd;opacity:0.2;"/>
   </g>
   <g id="patch_15">
    <path clip-path="url(#p7d3dfa8b4b)" d="M 186.129711 153.2 
L 192.614778 153.2 
L 192.614778 153.2 
L 186.129711 153.2 
z
" style="fill:#348abd;opacity:0.2;"/>
   </g>
   <g id="patch_16">
    <path clip-path="url(#p7d3dfa8b4b)" d="M 194.236045 153.2 
L 200.721113 153.2 
L 200.721113 153.2 
L 194.236045 153.2 
z
" style="fill:#348abd;opacity:0.2;"/>
   </g>
   <g id="patch_17">
    <path clip-path="url(#p7d3dfa8b4b)" d="M 202.34238 153.2 
L 208.827448 153.2 
L 208.827448 153.2 
L 202.34238 153.2 
z
" style="fill:#348abd;opacity:0.2;"/>
   </g>
   <g id="patch_18">
    <path clip-path="url(#p7d3dfa8b4b)" d="M 210.448715 153.2 
L 216.933783 153.2 
L 216.933783 153.184471 
L 210.448715 153.184471 
z
" style="fill:#348abd;opacity:0.2;"/>
   </g>
   <g id="patch_19">
    <path clip-path="url(#p7d3dfa8b4b)" d="M 218.55505 153.2 
L 225.040118 153.2 
L 225.040118 153.2 
L 218.55505 153.2 
z
" style="fill:#348abd;opacity:0.2;"/>
   </g>
   <g id="patch_20">
    <path clip-path="url(#p7d3dfa8b4b)" d="M 226.661385 153.2 
L 233.146452 153.2 
L 233.146452 153.2 
L 226.661385 153.2 
z
" style="fill:#348abd;opacity:0.2;"/>
   </g>
   <g id="patch_21">
    <path clip-path="url(#p7d3dfa8b4b)" d="M 234.767719 153.2 
L 241.252787 153.2 
L 241.252787 153.122353 
L 234.767719 153.122353 
z
" style="fill:#348abd;opacity:0.2;"/>
   </g>
   <g id="patch_22">
    <path clip-path="url(#p7d3dfa8b4b)" d="M 242.874054 153.2 
L 249.359122 153.2 
L 249.359122 153.2 
L 242.874054 153.2 
z
" style="fill:#348abd;opacity:0.2;"/>
   </g>
   <g id="patch_23">
    <path clip-path="url(#p7d3dfa8b4b)" d="M 250.980389 153.2 
L 257.465457 153.2 
L 257.465457 153.184471 
L 250.980389 153.184471 
z
" style="fill:#348abd;opacity:0.2;"/>
   </g>
   <g id="patch_24">
    <path clip-path="url(#p7d3dfa8b4b)" d="M 259.086724 153.2 
L 265.571791 153.2 
L 265.571791 153.2 
L 259.086724 153.2 
z
" style="fill:#348abd;opacity:0.2;"/>
   </g>
   <g id="patch_25">
    <path clip-path="url(#p7d3dfa8b4b)" d="M 267.193058 153.2 
L 273.678126 153.2 
L 273.678126 153.2 
L 267.193058 153.2 
z
" style="fill:#348abd;opacity:0.2;"/>
   </g>
   <g id="patch_26">
    <path clip-path="url(#p7d3dfa8b4b)" d="M 275.299393 153.2 
L 281.784461 153.2 
L 281.784461 153.2 
L 275.299393 153.2 
z
" style="fill:#348abd;opacity:0.2;"/>
   </g>
   <g id="patch_27">
    <path clip-path="url(#p7d3dfa8b4b)" d="M 283.405728 153.2 
L 289.890796 153.2 
L 289.890796 153.2 
L 283.405728 153.2 
z
" style="fill:#348abd;opacity:0.2;"/>
   </g>
   <g id="patch_28">
    <path clip-path="url(#p7d3dfa8b4b)" d="M 291.512063 153.2 
L 297.997131 153.2 
L 297.997131 153.2 
L 291.512063 153.2 
z
" style="fill:#348abd;opacity:0.2;"/>
   </g>
   <g id="patch_29">
    <path clip-path="url(#p7d3dfa8b4b)" d="M 299.618398 153.2 
L 306.103465 153.2 
L 306.103465 153.2 
L 299.618398 153.2 
z
" style="fill:#348abd;opacity:0.2;"/>
   </g>
   <g id="patch_30">
    <path clip-path="url(#p7d3dfa8b4b)" d="M 307.724732 153.2 
L 314.2098 153.2 
L 314.2098 153.2 
L 307.724732 153.2 
z
" style="fill:#348abd;opacity:0.2;"/>
   </g>
   <g id="patch_31">
    <path clip-path="url(#p7d3dfa8b4b)" d="M 315.831067 153.2 
L 322.316135 153.2 
L 322.316135 153.2 
L 315.831067 153.2 
z
" style="fill:#348abd;opacity:0.2;"/>
   </g>
   <g id="patch_32">
    <path clip-path="url(#p7d3dfa8b4b)" d="M 323.937402 153.2 
L 330.42247 153.2 
L 330.42247 153.2 
L 323.937402 153.2 
z
" style="fill:#348abd;opacity:0.2;"/>
   </g>
   <g id="patch_33">
    <path clip-path="url(#p7d3dfa8b4b)" d="M 332.043737 153.2 
L 338.528805 153.2 
L 338.528805 153.2 
L 332.043737 153.2 
z
" style="fill:#348abd;opacity:0.2;"/>
   </g>
   <g id="patch_34">
    <path clip-path="url(#p7d3dfa8b4b)" d="M 340.150071 153.2 
L 346.635139 153.2 
L 346.635139 153.2 
L 340.150071 153.2 
z
" style="fill:#348abd;opacity:0.2;"/>
   </g>
   <g id="patch_35">
    <path clip-path="url(#p7d3dfa8b4b)" d="M 348.256406 153.2 
L 354.741474 153.2 
L 354.741474 153.137882 
L 348.256406 153.137882 
z
" style="fill:#348abd;opacity:0.2;"/>
   </g>
   <g id="patch_36">
    <path clip-path="url(#p7d3dfa8b4b)" d="M 356.362741 153.2 
L 362.847809 153.2 
L 362.847809 153.2 
L 356.362741 153.2 
z
" style="fill:#348abd;opacity:0.2;"/>
   </g>
   <g id="patch_37">
    <path clip-path="url(#p7d3dfa8b4b)" d="M 364.469076 153.2 
L 370.954144 153.2 
L 370.954144 153.2 
L 364.469076 153.2 
z
" style="fill:#348abd;opacity:0.2;"/>
   </g>
   <g id="patch_38">
    <path clip-path="url(#p7d3dfa8b4b)" d="M 372.575411 153.2 
L 379.060478 153.2 
L 379.060478 153.168941 
L 372.575411 153.168941 
z
" style="fill:#348abd;opacity:0.2;"/>
   </g>
   <g id="patch_39">
    <path clip-path="url(#p7d3dfa8b4b)" d="M 380.681745 153.2 
L 387.166813 153.2 
L 387.166813 153.122353 
L 380.681745 153.122353 
z
" style="fill:#348abd;opacity:0.2;"/>
   </g>
   <g id="patch_40">
    <path clip-path="url(#p7d3dfa8b4b)" d="M 388.78808 153.2 
L 395.273148 153.2 
L 395.273148 153.153412 
L 388.78808 153.153412 
z
" style="fill:#348abd;opacity:0.2;"/>
   </g>
   <g id="patch_41">
    <path clip-path="url(#p7d3dfa8b4b)" d="M 396.894415 153.2 
L 403.379483 153.2 
L 403.379483 152.998117 
L 396.894415 152.998117 
z
" style="fill:#348abd;opacity:0.2;"/>
   </g>
   <g id="patch_42">
    <path clip-path="url(#p7d3dfa8b4b)" d="M 405.00075 153.2 
L 411.485818 153.2 
L 411.485818 153.137882 
L 405.00075 153.137882 
z
" style="fill:#348abd;opacity:0.2;"/>
   </g>
   <g id="patch_43">
    <path clip-path="url(#p7d3dfa8b4b)" d="M 413.107085 153.2 
L 419.592152 153.2 
L 419.592152 153.029176 
L 413.107085 153.029176 
z
" style="fill:#348abd;opacity:0.2;"/>
   </g>
   <g id="patch_44">
    <path clip-path="url(#p7d3dfa8b4b)" d="M 421.213419 153.2 
L 427.698487 153.2 
L 427.698487 152.656468 
L 421.213419 152.656468 
z
" style="fill:#348abd;opacity:0.2;"/>
   </g>
   <g id="patch_45">
    <path clip-path="url(#p7d3dfa8b4b)" d="M 429.319754 153.2 
L 435.804822 153.2 
L 435.804822 152.734115 
L 429.319754 152.734115 
z
" style="fill:#348abd;opacity:0.2;"/>
   </g>
   <g id="patch_46">
    <path clip-path="url(#p7d3dfa8b4b)" d="M 437.426089 153.2 
L 443.911157 153.2 
L 443.911157 152.454584 
L 437.426089 152.454584 
z
" style="fill:#348abd;opacity:0.2;"/>
   </g>
   <g id="patch_47">
    <path clip-path="url(#p7d3dfa8b4b)" d="M 445.532424 153.2 
L 452.017492 153.2 
L 452.017492 152.532232 
L 445.532424 152.532232 
z
" style="fill:#348abd;opacity:0.2;"/>
   </g>
   <g id="patch_48">
    <path clip-path="url(#p7d3dfa8b4b)" d="M 453.638758 153.2 
L 460.123826 153.2 
L 460.123826 152.159524 
L 453.638758 152.159524 
z
" style="fill:#348abd;opacity:0.2;"/>
   </g>
   <g id="patch_49">
    <path clip-path="url(#p7d3dfa8b4b)" d="M 461.745093 153.2 
L 468.230161 153.2 
L 468.230161 152.454584 
L 461.745093 152.454584 
z
" style="fill:#348abd;opacity:0.2;"/>
   </g>
   <g id="patch_50">
    <path clip-path="url(#p7d3dfa8b4b)" d="M 469.851428 153.2 
L 476.336496 153.2 
L 476.336496 152.237172 
L 469.851428 152.237172 
z
" style="fill:#348abd;opacity:0.2;"/>
   </g>
   <g id="patch_51">
    <path clip-path="url(#p7d3dfa8b4b)" d="M 477.957763 153.2 
L 484.442831 153.2 
L 484.442831 152.035288 
L 477.957763 152.035288 
z
" style="fill:#348abd;opacity:0.2;"/>
   </g>
   <g id="patch_52">
    <path clip-path="url(#p7d3dfa8b4b)" d="M 486.064098 153.2 
L 492.549165 153.2 
L 492.549165 153.2 
L 486.064098 153.2 
z
" style="fill:#348abd;opacity:0.2;"/>
   </g>
   <g id="patch_53">
    <path clip-path="url(#p7d3dfa8b4b)" d="M 494.170432 153.2 
L 500.6555 153.2 
L 500.6555 147.873384 
L 494.170432 147.873384 
z
" style="fill:#348abd;opacity:0.2;"/>
   </g>
   <g id="patch_54">
    <path clip-path="url(#p7d3dfa8b4b)" d="M 502.276767 153.2 
L 508.761835 153.2 
L 508.761835 147.888914 
L 502.276767 147.888914 
z
" style="fill:#348abd;opacity:0.2;"/>
   </g>
   <g id="patch_55">
    <path clip-path="url(#p7d3dfa8b4b)" d="M 510.383102 153.2 
L 516.86817 153.2 
L 516.86817 153.184471 
L 510.383102 153.184471 
z
" style="fill:#348abd;opacity:0.2;"/>
   </g>
   <g id="patch_56">
    <path clip-path="url(#p7d3dfa8b4b)" d="M 518.489437 153.2 
L 524.974505 153.2 
L 524.974505 146.895027 
L 518.489437 146.895027 
z
" style="fill:#348abd;opacity:0.2;"/>
   </g>
   <g id="patch_57">
    <path clip-path="url(#p7d3dfa8b4b)" d="M 526.595772 153.2 
L 533.080839 153.2 
L 533.080839 146.848438 
L 526.595772 146.848438 
z
" style="fill:#348abd;opacity:0.2;"/>
   </g>
   <g id="patch_58">
    <path clip-path="url(#p7d3dfa8b4b)" d="M 534.702106 153.2 
L 541.187174 153.2 
L 541.187174 142.608887 
L 534.702106 142.608887 
z
" style="fill:#348abd;opacity:0.2;"/>
   </g>
   <g id="patch_59">
    <path clip-path="url(#p7d3dfa8b4b)" d="M 542.808441 153.2 
L 549.293509 153.2 
L 549.293509 152.050818 
L 542.808441 152.050818 
z
" style="fill:#348abd;opacity:0.2;"/>
   </g>
   <g id="patch_60">
    <path clip-path="url(#p7d3dfa8b4b)" d="M 550.914776 153.2 
L 557.399844 153.2 
L 557.399844 133.04272 
L 550.914776 133.04272 
z
" style="fill:#348abd;opacity:0.2;"/>
   </g>
   <g id="patch_61">
    <path clip-path="url(#p7d3dfa8b4b)" d="M 559.021111 153.2 
L 565.506179 153.2 
L 565.506179 136.847446 
L 559.021111 136.847446 
z
" style="fill:#348abd;opacity:0.2;"/>
   </g>
   <g id="patch_62">
    <path clip-path="url(#p7d3dfa8b4b)" d="M 567.127445 153.2 
L 573.612513 153.2 
L 573.612513 142.671005 
L 567.127445 142.671005 
z
" style="fill:#348abd;opacity:0.2;"/>
   </g>
   <g id="patch_63">
    <path clip-path="url(#p7d3dfa8b4b)" d="M 575.23378 153.2 
L 581.718848 153.2 
L 581.718848 137.965569 
L 575.23378 137.965569 
z
" style="fill:#348abd;opacity:0.2;"/>
   </g>
   <g id="patch_64">
    <path clip-path="url(#p7d3dfa8b4b)" d="M 583.340115 153.2 
L 589.825183 153.2 
L 589.825183 130.868591 
L 583.340115 130.868591 
z
" style="fill:#348abd;opacity:0.2;"/>
   </g>
   <g id="patch_65">
    <path clip-path="url(#p7d3dfa8b4b)" d="M 591.44645 153.2 
L 597.931518 153.2 
L 597.931518 130.278471 
L 591.44645 130.278471 
z
" style="fill:#348abd;opacity:0.2;"/>
   </g>
   <g id="patch_66">
    <path clip-path="url(#p7d3dfa8b4b)" d="M 599.552785 153.2 
L 606.037852 153.2 
L 606.037852 119.469945 
L 599.552785 119.469945 
z
" style="fill:#348abd;opacity:0.2;"/>
   </g>
   <g id="patch_67">
    <path clip-path="url(#p7d3dfa8b4b)" d="M 607.659119 153.2 
L 614.144187 153.2 
L 614.144187 107.652002 
L 607.659119 107.652002 
z
" style="fill:#348abd;opacity:0.2;"/>
   </g>
   <g id="patch_68">
    <path clip-path="url(#p7d3dfa8b4b)" d="M 615.765454 153.2 
L 622.250522 153.2 
L 622.250522 113.335796 
L 615.765454 113.335796 
z
" style="fill:#348abd;opacity:0.2;"/>
   </g>
   <g id="patch_69">
    <path clip-path="url(#p7d3dfa8b4b)" d="M 623.871789 153.2 
L 630.356857 153.2 
L 630.356857 114.873215 
L 623.871789 114.873215 
z
" style="fill:#348abd;opacity:0.2;"/>
   </g>
   <g id="patch_70">
    <path clip-path="url(#p7d3dfa8b4b)" d="M 631.978124 153.2 
L 638.463192 153.2 
L 638.463192 111.68967 
L 631.978124 111.68967 
z
" style="fill:#348abd;opacity:0.2;"/>
   </g>
   <g id="patch_71">
    <path clip-path="url(#p7d3dfa8b4b)" d="M 640.084459 153.2 
L 646.569526 153.2 
L 646.569526 106.1767 
L 640.084459 106.1767 
z
" style="fill:#348abd;opacity:0.2;"/>
   </g>
   <g id="patch_72">
    <path clip-path="url(#p7d3dfa8b4b)" d="M 648.190793 153.2 
L 654.675861 153.2 
L 654.675861 85.11871 
L 648.190793 85.11871 
z
" style="fill:#348abd;opacity:0.2;"/>
   </g>
   <g id="patch_73">
    <path clip-path="url(#p7d3dfa8b4b)" d="M 656.297128 153.2 
L 662.782196 153.2 
L 662.782196 86.298951 
L 656.297128 86.298951 
z
" style="fill:#348abd;opacity:0.2;"/>
   </g>
   <g id="patch_74">
    <path clip-path="url(#p7d3dfa8b4b)" d="M 664.403463 153.2 
L 670.888531 153.2 
L 670.888531 83.068817 
L 664.403463 83.068817 
z
" style="fill:#348abd;opacity:0.2;"/>
   </g>
   <g id="patch_75">
    <path clip-path="url(#p7d3dfa8b4b)" d="M 672.509798 153.2 
L 678.994865 153.2 
L 678.994865 94.374287 
L 672.509798 94.374287 
z
" style="fill:#348abd;opacity:0.2;"/>
   </g>
   <g id="patch_76">
    <path clip-path="url(#p7d3dfa8b4b)" d="M 680.616132 153.2 
L 687.1012 153.2 
L 687.1012 60.659761 
L 680.616132 60.659761 
z
" style="fill:#348abd;opacity:0.2;"/>
   </g>
   <g id="patch_77">
    <path clip-path="url(#p7d3dfa8b4b)" d="M 688.722467 153.2 
L 695.207535 153.2 
L 695.207535 93.520165 
L 688.722467 93.520165 
z
" style="fill:#348abd;opacity:0.2;"/>
   </g>
   <g id="patch_78">
    <path clip-path="url(#p7d3dfa8b4b)" d="M 696.828802 153.2 
L 703.31387 153.2 
L 703.31387 96.206767 
L 696.828802 96.206767 
z
" style="fill:#348abd;opacity:0.2;"/>
   </g>
   <g id="patch_79">
    <path clip-path="url(#p7d3dfa8b4b)" d="M 704.935137 153.2 
L 711.420205 153.2 
L 711.420205 67.399561 
L 704.935137 67.399561 
z
" style="fill:#348abd;opacity:0.2;"/>
   </g>
   <g id="patch_80">
    <path clip-path="url(#p7d3dfa8b4b)" d="M 713.041472 153.2 
L 719.526539 153.2 
L 719.526539 84.901297 
L 713.041472 84.901297 
z
" style="fill:#348abd;opacity:0.2;"/>
   </g>
   <g id="patch_81">
    <path clip-path="url(#p7d3dfa8b4b)" d="M 721.147806 153.2 
L 727.632874 153.2 
L 727.632874 17.580952 
L 721.147806 17.580952 
z
" style="fill:#348abd;opacity:0.2;"/>
   </g>
   <g id="patch_82">
    <path clip-path="url(#p7d3dfa8b4b)" d="M 729.254141 153.2 
L 735.739209 153.2 
L 735.739209 71.37511 
L 729.254141 71.37511 
z
" style="fill:#348abd;opacity:0.2;"/>
   </g>
   <g id="patch_83">
    <path clip-path="url(#p7d3dfa8b4b)" d="M 737.360476 153.2 
L 743.845544 153.2 
L 743.845544 70.396752 
L 737.360476 70.396752 
z
" style="fill:#348abd;opacity:0.2;"/>
   </g>
   <g id="patch_84">
    <path clip-path="url(#p7d3dfa8b4b)" d="M 745.466811 153.2 
L 751.951879 153.2 
L 751.951879 85.4293 
L 745.466811 85.4293 
z
" style="fill:#348abd;opacity:0.2;"/>
   </g>
   <g id="patch_85">
    <path clip-path="url(#p7d3dfa8b4b)" d="M 753.573145 153.2 
L 760.058213 153.2 
L 760.058213 71.281933 
L 753.573145 71.281933 
z
" style="fill:#348abd;opacity:0.2;"/>
   </g>
   <g id="patch_86">
    <path clip-path="url(#p7d3dfa8b4b)" d="M 761.67948 153.2 
L 768.164548 153.2 
L 768.164548 81.174219 
L 761.67948 81.174219 
z
" style="fill:#348abd;opacity:0.2;"/>
   </g>
   <g id="patch_87">
    <path clip-path="url(#p7d3dfa8b4b)" d="M 769.785815 153.2 
L 776.270883 153.2 
L 776.270883 80.801512 
L 769.785815 80.801512 
z
" style="fill:#348abd;opacity:0.2;"/>
   </g>
   <g id="patch_88">
    <path clip-path="url(#p7d3dfa8b4b)" d="M 777.89215 153.2 
L 784.377218 153.2 
L 784.377218 65.862141 
L 777.89215 65.862141 
z
" style="fill:#348abd;opacity:0.2;"/>
   </g>
   <g id="patch_89">
    <path clip-path="url(#p7d3dfa8b4b)" d="M 785.998485 153.2 
L 792.483552 153.2 
L 792.483552 67.088971 
L 785.998485 67.088971 
z
" style="fill:#348abd;opacity:0.2;"/>
   </g>
   <g id="patch_90">
    <path clip-path="url(#p7d3dfa8b4b)" d="M 794.104819 153.2 
L 800.589887 153.2 
L 800.589887 62.22824 
L 794.104819 62.22824 
z
" style="fill:#348abd;opacity:0.2;"/>
   </g>
   <g id="patch_91">
    <path clip-path="url(#p7d3dfa8b4b)" d="M 802.211154 153.2 
L 808.696222 153.2 
L 808.696222 80.459863 
L 802.211154 80.459863 
z
" style="fill:#348abd;opacity:0.2;"/>
   </g>
   <g id="patch_92">
    <path clip-path="url(#p7d3dfa8b4b)" d="M 810.317489 153.2 
L 816.802557 153.2 
L 816.802557 86.174716 
L 810.317489 86.174716 
z
" style="fill:#348abd;opacity:0.2;"/>
   </g>
   <g id="line2d_23">
    <path clip-path="url(#p7d3dfa8b4b)" d="M 92.096227 153.2 
L 100.202562 153.2 
L 108.308897 153.2 
L 116.415231 153.199572 
L 124.521566 153.198819 
L 132.627901 153.197805 
L 140.734236 153.196705 
L 148.840571 153.195991 
L 156.946905 153.195579 
L 165.05324 153.195579 
L 173.159575 153.195777 
L 181.26591 153.196114 
L 189.372245 153.196708 
L 197.478579 153.196101 
L 205.584914 153.194614 
L 213.691249 153.192088 
L 221.797584 153.188961 
L 229.903918 153.186876 
L 238.010253 153.185652 
L 246.116588 153.185845 
L 254.222923 153.187177 
L 262.329258 153.189337 
L 270.435592 153.192509 
L 278.541927 153.195399 
L 286.648262 153.197832 
L 294.754597 153.199409 
L 302.860931 153.199786 
L 310.967266 153.199144 
L 319.073601 153.197637 
L 327.179936 153.195611 
L 335.286271 153.192982 
L 343.392605 153.189731 
L 351.49894 153.185367 
L 359.605275 153.17782 
L 367.71161 153.167908 
L 375.817945 153.15504 
L 383.924279 153.134325 
L 392.030614 153.104128 
L 400.136949 153.057911 
L 408.243284 152.99578 
L 416.349618 152.917174 
L 424.455953 152.825947 
L 432.562288 152.728355 
L 440.668623 152.624653 
L 448.774958 152.538101 
L 456.881292 152.41134 
L 464.987627 152.200889 
L 473.093962 151.944841 
L 481.200297 151.580664 
L 489.306632 151.142188 
L 497.412966 150.567537 
L 505.519301 149.912979 
L 513.625636 149.067414 
L 521.731971 147.975274 
L 529.838305 146.759954 
L 537.94464 145.341961 
L 546.050975 143.795562 
L 554.15731 142.13721 
L 562.263645 140.151878 
L 570.369979 137.706722 
L 578.476314 134.732075 
L 586.582649 131.34426 
L 594.688984 127.703853 
L 602.795319 123.949437 
L 610.901653 120.01269 
L 619.007988 115.768008 
L 627.114323 111.26392 
L 635.220658 106.796078 
L 643.326992 102.249477 
L 651.433327 97.801496 
L 659.539662 93.771602 
L 667.645997 89.998261 
L 675.752332 87.046579 
L 683.858666 84.051796 
L 691.965001 80.961236 
L 700.071336 77.809835 
L 708.177671 74.536365 
L 716.284005 72.088869 
L 724.39034 70.25944 
L 732.496675 69.351751 
L 740.60301 69.47558 
L 748.709345 70.10108 
L 756.815679 71.480779 
L 764.922014 72.713426 
L 773.028349 73.517136 
L 781.134684 73.850281 
L 789.241019 73.691308 
L 797.347353 73.659422 
L 805.453688 73.769435 
L 813.560023 73.966597 
" style="fill:none;stroke:#348abd;stroke-linecap:square;stroke-width:3;"/>
   </g>
   <g id="patch_93">
    <path d="M 52.45625 153.2 
L 52.45625 10.8 
" style="fill:none;stroke:#ffffff;stroke-linecap:square;stroke-linejoin:miter;"/>
   </g>
   <g id="patch_94">
    <path d="M 853.2 153.2 
L 853.2 10.8 
" style="fill:none;stroke:#ffffff;stroke-linecap:square;stroke-linejoin:miter;"/>
   </g>
   <g id="patch_95">
    <path d="M 52.45625 153.2 
L 853.2 153.2 
" style="fill:none;stroke:#ffffff;stroke-linecap:square;stroke-linejoin:miter;"/>
   </g>
   <g id="patch_96">
    <path d="M 52.45625 10.8 
L 853.2 10.8 
" style="fill:none;stroke:#ffffff;stroke-linecap:square;stroke-linejoin:miter;"/>
   </g>
   <g id="legend_1">
    <g id="patch_97">
     <path d="M 59.45625 46.279688 
L 286.45625 46.279688 
Q 288.45625 46.279688 288.45625 44.279688 
L 288.45625 17.8 
Q 288.45625 15.8 286.45625 15.8 
L 59.45625 15.8 
Q 57.45625 15.8 57.45625 17.8 
L 57.45625 44.279688 
Q 57.45625 46.279688 59.45625 46.279688 
z
" style="fill:#e5e5e5;opacity:0.8;stroke:#cccccc;stroke-linejoin:miter;stroke-width:0.5;"/>
    </g>
    <g id="line2d_24">
     <path d="M 61.45625 23.3 
L 81.45625 23.3 
" style="fill:none;stroke:#348abd;stroke-linecap:square;stroke-width:3;"/>
    </g>
    <g id="line2d_25"/>
    <g id="text_13">
     <!-- United Kingdom new cases (rolling mean) -->
     <defs>
      <path d="M 5 62.296875 
L 5 21.40625 
C 5 17 5.09375 12.796875 7.40625 8.5 
C 10.796875 2.09375 17.796875 -1.203125 25.09375 -1.203125 
C 32.296875 -1.203125 39.296875 2 42.796875 8.59375 
C 45.203125 12.90625 45.296875 17.203125 45.296875 21.796875 
L 45.296875 62.296875 
L 38.703125 62.296875 
L 38.703125 21.59375 
C 38.703125 18.40625 38.59375 15.296875 37.09375 12.09375 
C 34.796875 7.296875 30.09375 4.796875 25.203125 4.796875 
C 20.296875 4.796875 15.59375 7.40625 13.40625 12.203125 
C 11.90625 15.203125 11.90625 18.296875 11.90625 21.40625 
L 11.90625 59.09375 
C 11.90625 59.5 11.90625 59.90625 12.296875 60.40625 
C 12.5 60.703125 12.90625 61.203125 12.90625 61.796875 
C 12.90625 61.90625 12.90625 62.09375 12.796875 62.296875 
z
" id="Inconsolata-85"/>
      <path d="M 18.796875 57.90625 
L 17.90625 45.59375 
L 7 45.59375 
L 6.90625 39.703125 
L 17.59375 39.703125 
C 17 31.90625 16.703125 24.09375 16.703125 16.40625 
C 16.703125 12.296875 16.703125 7.703125 19.40625 3.90625 
C 21.59375 0.90625 25.09375 -0.90625 29.796875 -0.90625 
C 35.203125 -0.90625 40.5 1.40625 44.40625 4.203125 
L 42.203125 9.90625 
C 38.296875 7 34.703125 5.703125 31.90625 5.703125 
C 28.5 5.703125 25 7.59375 24.203125 13.09375 
C 24.203125 13.5 23.90625 15.203125 23.90625 21.90625 
C 23.90625 27.796875 24.203125 33.796875 24.796875 39.703125 
L 39.796875 39.703125 
L 39.796875 45.703125 
L 24.90625 45.703125 
C 24.90625 45.703125 25.59375 53.90625 26.09375 56.5 
C 26.203125 57.5 27 58.09375 26.59375 59.203125 
z
" id="Inconsolata-116"/>
      <path d="M 4.203125 62.296875 
L 4.203125 0 
L 11.59375 0 
L 11.59375 25.796875 
L 16.5 31.09375 
L 38.203125 -0.5 
C 38.203125 -0.5 42.09375 -0.09375 47.09375 -0.09375 
L 21.90625 35.296875 
L 45.40625 62.296875 
L 42.796875 62.296875 
C 41.09375 62.296875 39.40625 62.296875 37.703125 62.796875 
L 11.59375 33.5 
L 11.59375 59.796875 
C 11.59375 60.203125 11.59375 60.5 12 60.90625 
C 12.203125 61.203125 12.703125 61.703125 12.5 62.296875 
z
" id="Inconsolata-75"/>
      <path d="M 46 22.59375 
C 46 38.40625 36 46.59375 25.59375 46.59375 
C 14 46.59375 4 36.59375 4 22.40625 
C 4 8.5 13.90625 -1.296875 25.40625 -1.296875 
C 36.203125 -1.296875 46 7.40625 46 22.59375 
z
M 25.09375 40.5 
C 31.703125 40.5 38.703125 34.796875 38.703125 22.296875 
C 38.703125 10.796875 32.09375 5 25.5 5 
C 18.203125 5 11.59375 11.796875 11.59375 23.09375 
C 11.59375 34.296875 18.09375 40.5 25.09375 40.5 
z
" id="Inconsolata-111"/>
      <path d="M 3.703125 0 
L 10.296875 0 
L 10.296875 30.40625 
C 10.296875 32.59375 10.5 34.59375 11.796875 37 
C 13.40625 40 15.40625 41.203125 17.296875 41.203125 
C 18.90625 41.203125 20.703125 40.203125 21.5 37.703125 
C 22.09375 35.796875 22 33.59375 22 31.703125 
L 22 0 
L 28.703125 0 
L 28.703125 30.203125 
C 28.703125 32.59375 28.90625 34.5 30.59375 37.40625 
C 31.40625 38.59375 33.09375 41.5 35.90625 41.5 
C 37.40625 41.5 38.796875 40.59375 39.5 38.90625 
C 40.40625 37 40.203125 34.40625 40.203125 32.296875 
L 40.203125 -0.09375 
L 47 -0.09375 
L 47 32.40625 
C 47 36.203125 47.09375 40 45.09375 43.09375 
C 43.40625 45.703125 40.5 46.703125 38 46.703125 
C 33.59375 46.703125 29.5 44.09375 27.703125 40.09375 
C 27 43.90625 23.796875 46.703125 19.703125 46.703125 
C 15.90625 46.703125 12.40625 44.296875 10.296875 41.09375 
L 10.40625 45.59375 
L 3.703125 45.59375 
z
" id="Inconsolata-109"/>
      <path d="M 1.5 45.703125 
L 10.703125 -0.09375 
L 17.203125 -0.09375 
L 25.203125 29.5 
L 33.703125 -0.09375 
L 40.40625 -0.09375 
C 43.5 15 46.09375 30.296875 48 45.59375 
L 41.40625 45.59375 
C 41.59375 40.09375 41.09375 35 37.09375 9 
L 27.5 41.40625 
L 23.09375 41.40625 
L 15.203125 8.90625 
L 8.59375 41.90625 
C 8.40625 42.59375 8.40625 42.90625 8.703125 43.703125 
C 8.796875 44.203125 9.09375 44.90625 8.796875 45.703125 
z
" id="Inconsolata-119"/>
      <path d="M 43.203125 39.59375 
C 39 44.203125 32.90625 46.703125 26.09375 46.703125 
C 15.5 46.703125 8.59375 40.796875 8.59375 34 
C 8.59375 26 17.203125 23.09375 19.703125 22.203125 
C 23.59375 20.796875 28.59375 19.59375 32 18 
C 35.796875 16.203125 36.5 13.796875 36.5 12.203125 
C 36.5 7.90625 31.296875 5 24.796875 5 
C 17 5 12 9.703125 10.5 11.296875 
C 10.203125 11.703125 10.203125 12 10.203125 12.40625 
C 10.203125 12.5 10.296875 13.09375 9.796875 13.296875 
L 5.59375 6.203125 
C 11 1.203125 18 -1.09375 24.90625 -1.09375 
C 37.40625 -1.09375 43.90625 6.296875 43.90625 13.203125 
C 43.90625 16.296875 42.59375 20.5 37.203125 23.5 
C 32.09375 26.40625 24.703125 27.40625 20.40625 29.5 
C 16.703125 31.296875 15.90625 33.5 15.90625 35.09375 
C 15.90625 38.703125 20.40625 41.296875 25.5 41.296875 
C 32.09375 41.296875 36.5 37.296875 38.203125 35 
C 38.5 34.703125 38.40625 34.40625 38.40625 34.09375 
C 38.40625 33.5 38.796875 33.296875 39 33.296875 
z
" id="Inconsolata-115"/>
      <path d="M 39.09375 66.59375 
C 23.703125 59.796875 13.796875 44.09375 13.796875 25.796875 
C 13.796875 7.59375 23.40625 -9 39.203125 -17.296875 
L 42.5 -12 
C 28.796875 -4.09375 20.796875 10.59375 20.796875 26.09375 
C 20.796875 40.40625 27.703125 53.203125 39.40625 60 
C 39.59375 60.203125 39.90625 60.40625 40.296875 60.40625 
C 40.59375 60.40625 40.90625 60.203125 41.296875 60.203125 
C 41.5 60.203125 41.796875 60.296875 42.203125 60.40625 
z
" id="Inconsolata-40"/>
      <path d="M 9.90625 45.59375 
L 9.90625 -0.09375 
L 17.09375 -0.09375 
L 17.09375 22.09375 
C 17.09375 24.90625 17.203125 27.90625 20.296875 32.796875 
C 24.5 39.40625 29.90625 40.5 33.203125 40.5 
C 37 40.5 39.40625 38.703125 40.703125 37.09375 
C 41.296875 36.296875 41.59375 35.5 42.40625 34.796875 
L 45.796875 41.703125 
C 42.90625 44.703125 38.703125 46.703125 33.59375 46.703125 
C 26.90625 46.703125 20.09375 43.296875 17.09375 36.796875 
L 17.40625 45.59375 
z
" id="Inconsolata-114"/>
      <path d="M 7.703125 60.296875 
C 20.90625 53.203125 29.296875 39.59375 29.296875 24.703125 
C 29.296875 9.703125 20.703125 -4.296875 7.203125 -11.40625 
L 9.09375 -17.5 
C 25.703125 -9.59375 36.40625 7 36.40625 25 
C 36.40625 42.796875 25.90625 59 9.59375 66.5 
z
" id="Inconsolata-41"/>
     </defs>
     <g transform="translate(89.45625 26.8)scale(0.1 -0.1)">
      <use xlink:href="#Inconsolata-85"/>
      <use x="49.999985" xlink:href="#Inconsolata-110"/>
      <use x="99.999969" xlink:href="#Inconsolata-105"/>
      <use x="149.999954" xlink:href="#Inconsolata-116"/>
      <use x="199.999939" xlink:href="#Inconsolata-101"/>
      <use x="249.999924" xlink:href="#Inconsolata-100"/>
      <use x="299.999908" xlink:href="#Inconsolata-32"/>
      <use x="349.999893" xlink:href="#Inconsolata-75"/>
      <use x="399.999878" xlink:href="#Inconsolata-105"/>
      <use x="449.999863" xlink:href="#Inconsolata-110"/>
      <use x="499.999847" xlink:href="#Inconsolata-103"/>
      <use x="549.999832" xlink:href="#Inconsolata-100"/>
      <use x="599.999817" xlink:href="#Inconsolata-111"/>
      <use x="649.999802" xlink:href="#Inconsolata-109"/>
      <use x="699.999786" xlink:href="#Inconsolata-32"/>
      <use x="749.999771" xlink:href="#Inconsolata-110"/>
      <use x="799.999756" xlink:href="#Inconsolata-101"/>
      <use x="849.999741" xlink:href="#Inconsolata-119"/>
      <use x="899.999725" xlink:href="#Inconsolata-32"/>
      <use x="949.99971" xlink:href="#Inconsolata-99"/>
      <use x="999.999695" xlink:href="#Inconsolata-97"/>
      <use x="1049.99968" xlink:href="#Inconsolata-115"/>
      <use x="1099.999664" xlink:href="#Inconsolata-101"/>
      <use x="1149.999649" xlink:href="#Inconsolata-115"/>
      <use x="1199.999634" xlink:href="#Inconsolata-32"/>
      <use x="1249.999619" xlink:href="#Inconsolata-40"/>
      <use x="1299.999603" xlink:href="#Inconsolata-114"/>
      <use x="1349.999588" xlink:href="#Inconsolata-111"/>
      <use x="1399.999573" xlink:href="#Inconsolata-108"/>
      <use x="1449.999557" xlink:href="#Inconsolata-108"/>
      <use x="1499.999542" xlink:href="#Inconsolata-105"/>
      <use x="1549.999527" xlink:href="#Inconsolata-110"/>
      <use x="1599.999512" xlink:href="#Inconsolata-103"/>
      <use x="1649.999496" xlink:href="#Inconsolata-32"/>
      <use x="1699.999481" xlink:href="#Inconsolata-109"/>
      <use x="1749.999466" xlink:href="#Inconsolata-101"/>
      <use x="1799.999451" xlink:href="#Inconsolata-97"/>
      <use x="1849.999435" xlink:href="#Inconsolata-110"/>
      <use x="1899.99942" xlink:href="#Inconsolata-41"/>
     </g>
    </g>
    <g id="patch_98">
     <path d="M 61.45625 40.55 
L 81.45625 40.55 
L 81.45625 33.55 
L 61.45625 33.55 
z
" style="fill:#348abd;opacity:0.2;"/>
    </g>
    <g id="text_14">
     <!-- United Kingdom new cases -->
     <g transform="translate(89.45625 40.55)scale(0.1 -0.1)">
      <use xlink:href="#Inconsolata-85"/>
      <use x="49.999985" xlink:href="#Inconsolata-110"/>
      <use x="99.999969" xlink:href="#Inconsolata-105"/>
      <use x="149.999954" xlink:href="#Inconsolata-116"/>
      <use x="199.999939" xlink:href="#Inconsolata-101"/>
      <use x="249.999924" xlink:href="#Inconsolata-100"/>
      <use x="299.999908" xlink:href="#Inconsolata-32"/>
      <use x="349.999893" xlink:href="#Inconsolata-75"/>
      <use x="399.999878" xlink:href="#Inconsolata-105"/>
      <use x="449.999863" xlink:href="#Inconsolata-110"/>
      <use x="499.999847" xlink:href="#Inconsolata-103"/>
      <use x="549.999832" xlink:href="#Inconsolata-100"/>
      <use x="599.999817" xlink:href="#Inconsolata-111"/>
      <use x="649.999802" xlink:href="#Inconsolata-109"/>
      <use x="699.999786" xlink:href="#Inconsolata-32"/>
      <use x="749.999771" xlink:href="#Inconsolata-110"/>
      <use x="799.999756" xlink:href="#Inconsolata-101"/>
      <use x="849.999741" xlink:href="#Inconsolata-119"/>
      <use x="899.999725" xlink:href="#Inconsolata-32"/>
      <use x="949.99971" xlink:href="#Inconsolata-99"/>
      <use x="999.999695" xlink:href="#Inconsolata-97"/>
      <use x="1049.99968" xlink:href="#Inconsolata-115"/>
      <use x="1099.999664" xlink:href="#Inconsolata-101"/>
      <use x="1149.999649" xlink:href="#Inconsolata-115"/>
     </g>
    </g>
   </g>
  </g>
 </g>
 <defs>
  <clipPath id="p7d3dfa8b4b">
   <rect height="142.4" width="800.74375" x="52.45625" y="10.8"/>
  </clipPath>
 </defs>
</svg>
