<?xml version="1.0" encoding="utf-8" standalone="no"?>
<!DOCTYPE svg PUBLIC "-//W3C//DTD SVG 1.1//EN"
  "http://www.w3.org/Graphics/SVG/1.1/DTD/svg11.dtd">
<!-- Created with matplotlib (https://matplotlib.org/) -->
<svg height="432pt" version="1.1" viewBox="0 0 576 432" width="576pt" xmlns="http://www.w3.org/2000/svg" xmlns:xlink="http://www.w3.org/1999/xlink">
 <defs>
  <style type="text/css">
*{stroke-linecap:butt;stroke-linejoin:round;}
  </style>
 </defs>
 <g id="figure_1">
  <g id="patch_1">
   <path d="M 0 432 
L 576 432 
L 576 0 
L 0 0 
z
" style="fill:#ffffff;"/>
  </g>
  <g id="axes_1">
   <g id="patch_2">
    <path d="M 72 378 
L 518.4 378 
L 518.4 51.84 
L 72 51.84 
z
" style="fill:#eaeaf2;"/>
   </g>
   <g id="matplotlib.axis_1">
    <g id="xtick_1">
     <g id="line2d_1">
      <path clip-path="url(#p33049f8ab6)" d="M 76.008081 378 
L 76.008081 51.84 
" style="fill:none;stroke:#ffffff;stroke-linecap:round;stroke-width:0.8;"/>
     </g>
     <g id="text_1">
      <!-- Jan 20 -->
      <defs>
       <path d="M 2.875 20.3125 
L 11.421875 21.484375 
Q 11.765625 13.28125 14.5 10.25 
Q 17.234375 7.234375 22.078125 7.234375 
Q 25.640625 7.234375 28.21875 8.859375 
Q 30.8125 10.5 31.78125 13.296875 
Q 32.765625 16.109375 32.765625 22.265625 
L 32.765625 71.578125 
L 42.234375 71.578125 
L 42.234375 22.796875 
Q 42.234375 13.8125 40.0625 8.875 
Q 37.890625 3.953125 33.171875 1.359375 
Q 28.46875 -1.21875 22.125 -1.21875 
Q 12.703125 -1.21875 7.6875 4.203125 
Q 2.6875 9.625 2.875 20.3125 
z
" id="ArialMT-74"/>
       <path d="M 40.4375 6.390625 
Q 35.546875 2.25 31.03125 0.53125 
Q 26.515625 -1.171875 21.34375 -1.171875 
Q 12.796875 -1.171875 8.203125 3 
Q 3.609375 7.171875 3.609375 13.671875 
Q 3.609375 17.484375 5.34375 20.625 
Q 7.078125 23.78125 9.890625 25.6875 
Q 12.703125 27.59375 16.21875 28.5625 
Q 18.796875 29.25 24.03125 29.890625 
Q 34.671875 31.15625 39.703125 32.90625 
Q 39.75 34.71875 39.75 35.203125 
Q 39.75 40.578125 37.25 42.78125 
Q 33.890625 45.75 27.25 45.75 
Q 21.046875 45.75 18.09375 43.578125 
Q 15.140625 41.40625 13.71875 35.890625 
L 5.125 37.0625 
Q 6.296875 42.578125 8.984375 45.96875 
Q 11.671875 49.359375 16.75 51.1875 
Q 21.828125 53.03125 28.515625 53.03125 
Q 35.15625 53.03125 39.296875 51.46875 
Q 43.453125 49.90625 45.40625 47.53125 
Q 47.359375 45.171875 48.140625 41.546875 
Q 48.578125 39.3125 48.578125 33.453125 
L 48.578125 21.734375 
Q 48.578125 9.46875 49.140625 6.21875 
Q 49.703125 2.984375 51.375 0 
L 42.1875 0 
Q 40.828125 2.734375 40.4375 6.390625 
z
M 39.703125 26.03125 
Q 34.90625 24.078125 25.34375 22.703125 
Q 19.921875 21.921875 17.671875 20.9375 
Q 15.4375 19.96875 14.203125 18.09375 
Q 12.984375 16.21875 12.984375 13.921875 
Q 12.984375 10.40625 15.640625 8.0625 
Q 18.3125 5.71875 23.4375 5.71875 
Q 28.515625 5.71875 32.46875 7.9375 
Q 36.421875 10.15625 38.28125 14.015625 
Q 39.703125 17 39.703125 22.796875 
z
" id="ArialMT-97"/>
       <path d="M 6.59375 0 
L 6.59375 51.859375 
L 14.5 51.859375 
L 14.5 44.484375 
Q 20.21875 53.03125 31 53.03125 
Q 35.6875 53.03125 39.625 51.34375 
Q 43.5625 49.65625 45.515625 46.921875 
Q 47.46875 44.1875 48.25 40.4375 
Q 48.734375 37.984375 48.734375 31.890625 
L 48.734375 0 
L 39.9375 0 
L 39.9375 31.546875 
Q 39.9375 36.921875 38.90625 39.578125 
Q 37.890625 42.234375 35.28125 43.8125 
Q 32.671875 45.40625 29.15625 45.40625 
Q 23.53125 45.40625 19.453125 41.84375 
Q 15.375 38.28125 15.375 28.328125 
L 15.375 0 
z
" id="ArialMT-110"/>
       <path id="ArialMT-32"/>
       <path d="M 50.34375 8.453125 
L 50.34375 0 
L 3.03125 0 
Q 2.9375 3.171875 4.046875 6.109375 
Q 5.859375 10.9375 9.828125 15.625 
Q 13.8125 20.3125 21.34375 26.46875 
Q 33.015625 36.03125 37.109375 41.625 
Q 41.21875 47.21875 41.21875 52.203125 
Q 41.21875 57.421875 37.46875 61 
Q 33.734375 64.59375 27.734375 64.59375 
Q 21.390625 64.59375 17.578125 60.78125 
Q 13.765625 56.984375 13.71875 50.25 
L 4.6875 51.171875 
Q 5.609375 61.28125 11.65625 66.578125 
Q 17.71875 71.875 27.9375 71.875 
Q 38.234375 71.875 44.234375 66.15625 
Q 50.25 60.453125 50.25 52 
Q 50.25 47.703125 48.484375 43.546875 
Q 46.734375 39.40625 42.65625 34.8125 
Q 38.578125 30.21875 29.109375 22.21875 
Q 21.1875 15.578125 18.9375 13.203125 
Q 16.703125 10.84375 15.234375 8.453125 
z
" id="ArialMT-50"/>
       <path d="M 4.15625 35.296875 
Q 4.15625 48 6.765625 55.734375 
Q 9.375 63.484375 14.515625 67.671875 
Q 19.671875 71.875 27.484375 71.875 
Q 33.25 71.875 37.59375 69.546875 
Q 41.9375 67.234375 44.765625 62.859375 
Q 47.609375 58.5 49.21875 52.21875 
Q 50.828125 45.953125 50.828125 35.296875 
Q 50.828125 22.703125 48.234375 14.96875 
Q 45.65625 7.234375 40.5 3 
Q 35.359375 -1.21875 27.484375 -1.21875 
Q 17.140625 -1.21875 11.234375 6.203125 
Q 4.15625 15.140625 4.15625 35.296875 
z
M 13.1875 35.296875 
Q 13.1875 17.671875 17.3125 11.828125 
Q 21.4375 6 27.484375 6 
Q 33.546875 6 37.671875 11.859375 
Q 41.796875 17.71875 41.796875 35.296875 
Q 41.796875 52.984375 37.671875 58.78125 
Q 33.546875 64.59375 27.390625 64.59375 
Q 21.34375 64.59375 17.71875 59.46875 
Q 13.1875 52.9375 13.1875 35.296875 
z
" id="ArialMT-48"/>
      </defs>
      <g style="fill:#262626;" transform="translate(78.593237 415.021875)rotate(-90)scale(0.1 -0.1)">
       <use xlink:href="#ArialMT-74"/>
       <use x="50" xlink:href="#ArialMT-97"/>
       <use x="105.615234" xlink:href="#ArialMT-110"/>
       <use x="161.230469" xlink:href="#ArialMT-32"/>
       <use x="189.013672" xlink:href="#ArialMT-50"/>
       <use x="244.628906" xlink:href="#ArialMT-48"/>
      </g>
     </g>
    </g>
    <g id="xtick_2">
     <g id="line2d_2">
      <path clip-path="url(#p33049f8ab6)" d="M 82.270707 378 
L 82.270707 51.84 
" style="fill:none;stroke:#ffffff;stroke-linecap:round;stroke-width:0.8;"/>
     </g>
     <g id="text_2">
      <!-- Jan 21 -->
      <defs>
       <path d="M 37.25 0 
L 28.46875 0 
L 28.46875 56 
Q 25.296875 52.984375 20.140625 49.953125 
Q 14.984375 46.921875 10.890625 45.40625 
L 10.890625 53.90625 
Q 18.265625 57.375 23.78125 62.296875 
Q 29.296875 67.234375 31.59375 71.875 
L 37.25 71.875 
z
" id="ArialMT-49"/>
      </defs>
      <g style="fill:#262626;" transform="translate(84.855863 415.021875)rotate(-90)scale(0.1 -0.1)">
       <use xlink:href="#ArialMT-74"/>
       <use x="50" xlink:href="#ArialMT-97"/>
       <use x="105.615234" xlink:href="#ArialMT-110"/>
       <use x="161.230469" xlink:href="#ArialMT-32"/>
       <use x="189.013672" xlink:href="#ArialMT-50"/>
       <use x="244.628906" xlink:href="#ArialMT-49"/>
      </g>
     </g>
    </g>
    <g id="xtick_3">
     <g id="line2d_3">
      <path clip-path="url(#p33049f8ab6)" d="M 88.533333 378 
L 88.533333 51.84 
" style="fill:none;stroke:#ffffff;stroke-linecap:round;stroke-width:0.8;"/>
     </g>
     <g id="text_3">
      <!-- Jan 22 -->
      <g style="fill:#262626;" transform="translate(91.11849 415.021875)rotate(-90)scale(0.1 -0.1)">
       <use xlink:href="#ArialMT-74"/>
       <use x="50" xlink:href="#ArialMT-97"/>
       <use x="105.615234" xlink:href="#ArialMT-110"/>
       <use x="161.230469" xlink:href="#ArialMT-32"/>
       <use x="189.013672" xlink:href="#ArialMT-50"/>
       <use x="244.628906" xlink:href="#ArialMT-50"/>
      </g>
     </g>
    </g>
    <g id="xtick_4">
     <g id="line2d_4">
      <path clip-path="url(#p33049f8ab6)" d="M 94.79596 378 
L 94.79596 51.84 
" style="fill:none;stroke:#ffffff;stroke-linecap:round;stroke-width:0.8;"/>
     </g>
     <g id="text_4">
      <!-- Jan 23 -->
      <defs>
       <path d="M 4.203125 18.890625 
L 12.984375 20.0625 
Q 14.5 12.59375 18.140625 9.296875 
Q 21.78125 6 27 6 
Q 33.203125 6 37.46875 10.296875 
Q 41.75 14.59375 41.75 20.953125 
Q 41.75 27 37.796875 30.921875 
Q 33.84375 34.859375 27.734375 34.859375 
Q 25.25 34.859375 21.53125 33.890625 
L 22.515625 41.609375 
Q 23.390625 41.5 23.921875 41.5 
Q 29.546875 41.5 34.03125 44.421875 
Q 38.53125 47.359375 38.53125 53.46875 
Q 38.53125 58.296875 35.25 61.46875 
Q 31.984375 64.65625 26.8125 64.65625 
Q 21.6875 64.65625 18.265625 61.421875 
Q 14.84375 58.203125 13.875 51.765625 
L 5.078125 53.328125 
Q 6.6875 62.15625 12.390625 67.015625 
Q 18.109375 71.875 26.609375 71.875 
Q 32.46875 71.875 37.390625 69.359375 
Q 42.328125 66.84375 44.9375 62.5 
Q 47.5625 58.15625 47.5625 53.265625 
Q 47.5625 48.640625 45.0625 44.828125 
Q 42.578125 41.015625 37.703125 38.765625 
Q 44.046875 37.3125 47.5625 32.6875 
Q 51.078125 28.078125 51.078125 21.140625 
Q 51.078125 11.765625 44.234375 5.25 
Q 37.40625 -1.265625 26.953125 -1.265625 
Q 17.53125 -1.265625 11.296875 4.34375 
Q 5.078125 9.96875 4.203125 18.890625 
z
" id="ArialMT-51"/>
      </defs>
      <g style="fill:#262626;" transform="translate(97.381116 415.021875)rotate(-90)scale(0.1 -0.1)">
       <use xlink:href="#ArialMT-74"/>
       <use x="50" xlink:href="#ArialMT-97"/>
       <use x="105.615234" xlink:href="#ArialMT-110"/>
       <use x="161.230469" xlink:href="#ArialMT-32"/>
       <use x="189.013672" xlink:href="#ArialMT-50"/>
       <use x="244.628906" xlink:href="#ArialMT-51"/>
      </g>
     </g>
    </g>
    <g id="xtick_5">
     <g id="line2d_5">
      <path clip-path="url(#p33049f8ab6)" d="M 101.058586 378 
L 101.058586 51.84 
" style="fill:none;stroke:#ffffff;stroke-linecap:round;stroke-width:0.8;"/>
     </g>
     <g id="text_5">
      <!-- Jan 24 -->
      <defs>
       <path d="M 32.328125 0 
L 32.328125 17.140625 
L 1.265625 17.140625 
L 1.265625 25.203125 
L 33.9375 71.578125 
L 41.109375 71.578125 
L 41.109375 25.203125 
L 50.78125 25.203125 
L 50.78125 17.140625 
L 41.109375 17.140625 
L 41.109375 0 
z
M 32.328125 25.203125 
L 32.328125 57.46875 
L 9.90625 25.203125 
z
" id="ArialMT-52"/>
      </defs>
      <g style="fill:#262626;" transform="translate(103.643742 415.021875)rotate(-90)scale(0.1 -0.1)">
       <use xlink:href="#ArialMT-74"/>
       <use x="50" xlink:href="#ArialMT-97"/>
       <use x="105.615234" xlink:href="#ArialMT-110"/>
       <use x="161.230469" xlink:href="#ArialMT-32"/>
       <use x="189.013672" xlink:href="#ArialMT-50"/>
       <use x="244.628906" xlink:href="#ArialMT-52"/>
      </g>
     </g>
    </g>
    <g id="xtick_6">
     <g id="line2d_6">
      <path clip-path="url(#p33049f8ab6)" d="M 107.321212 378 
L 107.321212 51.84 
" style="fill:none;stroke:#ffffff;stroke-linecap:round;stroke-width:0.8;"/>
     </g>
     <g id="text_6">
      <!-- Jan 25 -->
      <defs>
       <path d="M 4.15625 18.75 
L 13.375 19.53125 
Q 14.40625 12.796875 18.140625 9.390625 
Q 21.875 6 27.15625 6 
Q 33.5 6 37.890625 10.78125 
Q 42.28125 15.578125 42.28125 23.484375 
Q 42.28125 31 38.0625 35.34375 
Q 33.84375 39.703125 27 39.703125 
Q 22.75 39.703125 19.328125 37.765625 
Q 15.921875 35.84375 13.96875 32.765625 
L 5.71875 33.84375 
L 12.640625 70.609375 
L 48.25 70.609375 
L 48.25 62.203125 
L 19.671875 62.203125 
L 15.828125 42.96875 
Q 22.265625 47.46875 29.34375 47.46875 
Q 38.71875 47.46875 45.15625 40.96875 
Q 51.609375 34.46875 51.609375 24.265625 
Q 51.609375 14.546875 45.953125 7.46875 
Q 39.0625 -1.21875 27.15625 -1.21875 
Q 17.390625 -1.21875 11.203125 4.25 
Q 5.03125 9.71875 4.15625 18.75 
z
" id="ArialMT-53"/>
      </defs>
      <g style="fill:#262626;" transform="translate(109.906368 415.021875)rotate(-90)scale(0.1 -0.1)">
       <use xlink:href="#ArialMT-74"/>
       <use x="50" xlink:href="#ArialMT-97"/>
       <use x="105.615234" xlink:href="#ArialMT-110"/>
       <use x="161.230469" xlink:href="#ArialMT-32"/>
       <use x="189.013672" xlink:href="#ArialMT-50"/>
       <use x="244.628906" xlink:href="#ArialMT-53"/>
      </g>
     </g>
    </g>
    <g id="xtick_7">
     <g id="line2d_7">
      <path clip-path="url(#p33049f8ab6)" d="M 113.583838 378 
L 113.583838 51.84 
" style="fill:none;stroke:#ffffff;stroke-linecap:round;stroke-width:0.8;"/>
     </g>
     <g id="text_7">
      <!-- Jan 26 -->
      <defs>
       <path d="M 49.75 54.046875 
L 41.015625 53.375 
Q 39.84375 58.546875 37.703125 60.890625 
Q 34.125 64.65625 28.90625 64.65625 
Q 24.703125 64.65625 21.53125 62.3125 
Q 17.390625 59.28125 14.984375 53.46875 
Q 12.59375 47.65625 12.5 36.921875 
Q 15.671875 41.75 20.265625 44.09375 
Q 24.859375 46.4375 29.890625 46.4375 
Q 38.671875 46.4375 44.84375 39.96875 
Q 51.03125 33.5 51.03125 23.25 
Q 51.03125 16.5 48.125 10.71875 
Q 45.21875 4.9375 40.140625 1.859375 
Q 35.0625 -1.21875 28.609375 -1.21875 
Q 17.625 -1.21875 10.6875 6.859375 
Q 3.765625 14.9375 3.765625 33.5 
Q 3.765625 54.25 11.421875 63.671875 
Q 18.109375 71.875 29.4375 71.875 
Q 37.890625 71.875 43.28125 67.140625 
Q 48.6875 62.40625 49.75 54.046875 
z
M 13.875 23.1875 
Q 13.875 18.65625 15.796875 14.5 
Q 17.71875 10.359375 21.1875 8.171875 
Q 24.65625 6 28.46875 6 
Q 34.03125 6 38.03125 10.484375 
Q 42.046875 14.984375 42.046875 22.703125 
Q 42.046875 30.125 38.078125 34.390625 
Q 34.125 38.671875 28.125 38.671875 
Q 22.171875 38.671875 18.015625 34.390625 
Q 13.875 30.125 13.875 23.1875 
z
" id="ArialMT-54"/>
      </defs>
      <g style="fill:#262626;" transform="translate(116.168995 415.021875)rotate(-90)scale(0.1 -0.1)">
       <use xlink:href="#ArialMT-74"/>
       <use x="50" xlink:href="#ArialMT-97"/>
       <use x="105.615234" xlink:href="#ArialMT-110"/>
       <use x="161.230469" xlink:href="#ArialMT-32"/>
       <use x="189.013672" xlink:href="#ArialMT-50"/>
       <use x="244.628906" xlink:href="#ArialMT-54"/>
      </g>
     </g>
    </g>
    <g id="xtick_8">
     <g id="line2d_8">
      <path clip-path="url(#p33049f8ab6)" d="M 119.846465 378 
L 119.846465 51.84 
" style="fill:none;stroke:#ffffff;stroke-linecap:round;stroke-width:0.8;"/>
     </g>
     <g id="text_8">
      <!-- Jan 27 -->
      <defs>
       <path d="M 4.734375 62.203125 
L 4.734375 70.65625 
L 51.078125 70.65625 
L 51.078125 63.8125 
Q 44.234375 56.546875 37.515625 44.484375 
Q 30.8125 32.421875 27.15625 19.671875 
Q 24.515625 10.6875 23.78125 0 
L 14.75 0 
Q 14.890625 8.453125 18.0625 20.40625 
Q 21.234375 32.375 27.171875 43.484375 
Q 33.109375 54.59375 39.796875 62.203125 
z
" id="ArialMT-55"/>
      </defs>
      <g style="fill:#262626;" transform="translate(122.431621 415.021875)rotate(-90)scale(0.1 -0.1)">
       <use xlink:href="#ArialMT-74"/>
       <use x="50" xlink:href="#ArialMT-97"/>
       <use x="105.615234" xlink:href="#ArialMT-110"/>
       <use x="161.230469" xlink:href="#ArialMT-32"/>
       <use x="189.013672" xlink:href="#ArialMT-50"/>
       <use x="244.628906" xlink:href="#ArialMT-55"/>
      </g>
     </g>
    </g>
    <g id="xtick_9">
     <g id="line2d_9">
      <path clip-path="url(#p33049f8ab6)" d="M 126.109091 378 
L 126.109091 51.84 
" style="fill:none;stroke:#ffffff;stroke-linecap:round;stroke-width:0.8;"/>
     </g>
     <g id="text_9">
      <!-- Jan 28 -->
      <defs>
       <path d="M 17.671875 38.8125 
Q 12.203125 40.828125 9.5625 44.53125 
Q 6.9375 48.25 6.9375 53.421875 
Q 6.9375 61.234375 12.546875 66.546875 
Q 18.171875 71.875 27.484375 71.875 
Q 36.859375 71.875 42.578125 66.421875 
Q 48.296875 60.984375 48.296875 53.171875 
Q 48.296875 48.1875 45.671875 44.5 
Q 43.0625 40.828125 37.75 38.8125 
Q 44.34375 36.671875 47.78125 31.875 
Q 51.21875 27.09375 51.21875 20.453125 
Q 51.21875 11.28125 44.71875 5.03125 
Q 38.234375 -1.21875 27.640625 -1.21875 
Q 17.046875 -1.21875 10.546875 5.046875 
Q 4.046875 11.328125 4.046875 20.703125 
Q 4.046875 27.6875 7.59375 32.390625 
Q 11.140625 37.109375 17.671875 38.8125 
z
M 15.921875 53.71875 
Q 15.921875 48.640625 19.1875 45.40625 
Q 22.46875 42.1875 27.6875 42.1875 
Q 32.765625 42.1875 36.015625 45.375 
Q 39.265625 48.578125 39.265625 53.21875 
Q 39.265625 58.0625 35.90625 61.359375 
Q 32.5625 64.65625 27.59375 64.65625 
Q 22.5625 64.65625 19.234375 61.421875 
Q 15.921875 58.203125 15.921875 53.71875 
z
M 13.09375 20.65625 
Q 13.09375 16.890625 14.875 13.375 
Q 16.65625 9.859375 20.171875 7.921875 
Q 23.6875 6 27.734375 6 
Q 34.03125 6 38.125 10.046875 
Q 42.234375 14.109375 42.234375 20.359375 
Q 42.234375 26.703125 38.015625 30.859375 
Q 33.796875 35.015625 27.4375 35.015625 
Q 21.234375 35.015625 17.15625 30.90625 
Q 13.09375 26.8125 13.09375 20.65625 
z
" id="ArialMT-56"/>
      </defs>
      <g style="fill:#262626;" transform="translate(128.694247 415.021875)rotate(-90)scale(0.1 -0.1)">
       <use xlink:href="#ArialMT-74"/>
       <use x="50" xlink:href="#ArialMT-97"/>
       <use x="105.615234" xlink:href="#ArialMT-110"/>
       <use x="161.230469" xlink:href="#ArialMT-32"/>
       <use x="189.013672" xlink:href="#ArialMT-50"/>
       <use x="244.628906" xlink:href="#ArialMT-56"/>
      </g>
     </g>
    </g>
    <g id="xtick_10">
     <g id="line2d_10">
      <path clip-path="url(#p33049f8ab6)" d="M 132.371717 378 
L 132.371717 51.84 
" style="fill:none;stroke:#ffffff;stroke-linecap:round;stroke-width:0.8;"/>
     </g>
     <g id="text_10">
      <!-- Jan 29 -->
      <defs>
       <path d="M 5.46875 16.546875 
L 13.921875 17.328125 
Q 14.984375 11.375 18.015625 8.6875 
Q 21.046875 6 25.78125 6 
Q 29.828125 6 32.875 7.859375 
Q 35.9375 9.71875 37.890625 12.8125 
Q 39.84375 15.921875 41.15625 21.1875 
Q 42.484375 26.46875 42.484375 31.9375 
Q 42.484375 32.515625 42.4375 33.6875 
Q 39.796875 29.5 35.234375 26.875 
Q 30.671875 24.265625 25.34375 24.265625 
Q 16.453125 24.265625 10.296875 30.703125 
Q 4.15625 37.15625 4.15625 47.703125 
Q 4.15625 58.59375 10.578125 65.234375 
Q 17 71.875 26.65625 71.875 
Q 33.640625 71.875 39.421875 68.109375 
Q 45.21875 64.359375 48.21875 57.390625 
Q 51.21875 50.4375 51.21875 37.25 
Q 51.21875 23.53125 48.234375 15.40625 
Q 45.265625 7.28125 39.375 3.03125 
Q 33.5 -1.21875 25.59375 -1.21875 
Q 17.1875 -1.21875 11.859375 3.4375 
Q 6.546875 8.109375 5.46875 16.546875 
z
M 41.453125 48.140625 
Q 41.453125 55.71875 37.421875 60.15625 
Q 33.40625 64.59375 27.734375 64.59375 
Q 21.875 64.59375 17.53125 59.8125 
Q 13.1875 55.03125 13.1875 47.40625 
Q 13.1875 40.578125 17.3125 36.296875 
Q 21.4375 32.03125 27.484375 32.03125 
Q 33.59375 32.03125 37.515625 36.296875 
Q 41.453125 40.578125 41.453125 48.140625 
z
" id="ArialMT-57"/>
      </defs>
      <g style="fill:#262626;" transform="translate(134.956873 415.021875)rotate(-90)scale(0.1 -0.1)">
       <use xlink:href="#ArialMT-74"/>
       <use x="50" xlink:href="#ArialMT-97"/>
       <use x="105.615234" xlink:href="#ArialMT-110"/>
       <use x="161.230469" xlink:href="#ArialMT-32"/>
       <use x="189.013672" xlink:href="#ArialMT-50"/>
       <use x="244.628906" xlink:href="#ArialMT-57"/>
      </g>
     </g>
    </g>
    <g id="xtick_11">
     <g id="line2d_11">
      <path clip-path="url(#p33049f8ab6)" d="M 138.634343 378 
L 138.634343 51.84 
" style="fill:none;stroke:#ffffff;stroke-linecap:round;stroke-width:0.8;"/>
     </g>
     <g id="text_11">
      <!-- Jan 30 -->
      <g style="fill:#262626;" transform="translate(141.2195 415.021875)rotate(-90)scale(0.1 -0.1)">
       <use xlink:href="#ArialMT-74"/>
       <use x="50" xlink:href="#ArialMT-97"/>
       <use x="105.615234" xlink:href="#ArialMT-110"/>
       <use x="161.230469" xlink:href="#ArialMT-32"/>
       <use x="189.013672" xlink:href="#ArialMT-51"/>
       <use x="244.628906" xlink:href="#ArialMT-48"/>
      </g>
     </g>
    </g>
    <g id="xtick_12">
     <g id="line2d_12">
      <path clip-path="url(#p33049f8ab6)" d="M 144.89697 378 
L 144.89697 51.84 
" style="fill:none;stroke:#ffffff;stroke-linecap:round;stroke-width:0.8;"/>
     </g>
     <g id="text_12">
      <!-- Jan 31 -->
      <g style="fill:#262626;" transform="translate(147.482126 415.021875)rotate(-90)scale(0.1 -0.1)">
       <use xlink:href="#ArialMT-74"/>
       <use x="50" xlink:href="#ArialMT-97"/>
       <use x="105.615234" xlink:href="#ArialMT-110"/>
       <use x="161.230469" xlink:href="#ArialMT-32"/>
       <use x="189.013672" xlink:href="#ArialMT-51"/>
       <use x="244.628906" xlink:href="#ArialMT-49"/>
      </g>
     </g>
    </g>
    <g id="xtick_13">
     <g id="line2d_13">
      <path clip-path="url(#p33049f8ab6)" d="M 151.159596 378 
L 151.159596 51.84 
" style="fill:none;stroke:#ffffff;stroke-linecap:round;stroke-width:0.8;"/>
     </g>
     <g id="text_13">
      <!-- Feb 01 -->
      <defs>
       <path d="M 8.203125 0 
L 8.203125 71.578125 
L 56.5 71.578125 
L 56.5 63.140625 
L 17.671875 63.140625 
L 17.671875 40.96875 
L 51.265625 40.96875 
L 51.265625 32.515625 
L 17.671875 32.515625 
L 17.671875 0 
z
" id="ArialMT-70"/>
       <path d="M 42.09375 16.703125 
L 51.171875 15.578125 
Q 49.03125 7.625 43.21875 3.21875 
Q 37.40625 -1.171875 28.375 -1.171875 
Q 17 -1.171875 10.328125 5.828125 
Q 3.65625 12.84375 3.65625 25.484375 
Q 3.65625 38.578125 10.390625 45.796875 
Q 17.140625 53.03125 27.875 53.03125 
Q 38.28125 53.03125 44.875 45.953125 
Q 51.46875 38.875 51.46875 26.03125 
Q 51.46875 25.25 51.421875 23.6875 
L 12.75 23.6875 
Q 13.234375 15.140625 17.578125 10.59375 
Q 21.921875 6.0625 28.421875 6.0625 
Q 33.25 6.0625 36.671875 8.59375 
Q 40.09375 11.140625 42.09375 16.703125 
z
M 13.234375 30.90625 
L 42.1875 30.90625 
Q 41.609375 37.453125 38.875 40.71875 
Q 34.671875 45.796875 27.984375 45.796875 
Q 21.921875 45.796875 17.796875 41.75 
Q 13.671875 37.703125 13.234375 30.90625 
z
" id="ArialMT-101"/>
       <path d="M 14.703125 0 
L 6.546875 0 
L 6.546875 71.578125 
L 15.328125 71.578125 
L 15.328125 46.046875 
Q 20.90625 53.03125 29.546875 53.03125 
Q 34.328125 53.03125 38.59375 51.09375 
Q 42.875 49.171875 45.625 45.671875 
Q 48.390625 42.1875 49.953125 37.25 
Q 51.515625 32.328125 51.515625 26.703125 
Q 51.515625 13.375 44.921875 6.09375 
Q 38.328125 -1.171875 29.109375 -1.171875 
Q 19.921875 -1.171875 14.703125 6.5 
z
M 14.59375 26.3125 
Q 14.59375 17 17.140625 12.84375 
Q 21.296875 6.0625 28.375 6.0625 
Q 34.125 6.0625 38.328125 11.0625 
Q 42.53125 16.0625 42.53125 25.984375 
Q 42.53125 36.140625 38.5 40.96875 
Q 34.46875 45.796875 28.765625 45.796875 
Q 23 45.796875 18.796875 40.796875 
Q 14.59375 35.796875 14.59375 26.3125 
z
" id="ArialMT-98"/>
      </defs>
      <g style="fill:#262626;" transform="translate(153.744752 416.129687)rotate(-90)scale(0.1 -0.1)">
       <use xlink:href="#ArialMT-70"/>
       <use x="61.083984" xlink:href="#ArialMT-101"/>
       <use x="116.699219" xlink:href="#ArialMT-98"/>
       <use x="172.314453" xlink:href="#ArialMT-32"/>
       <use x="200.097656" xlink:href="#ArialMT-48"/>
       <use x="255.712891" xlink:href="#ArialMT-49"/>
      </g>
     </g>
    </g>
    <g id="xtick_14">
     <g id="line2d_14">
      <path clip-path="url(#p33049f8ab6)" d="M 157.422222 378 
L 157.422222 51.84 
" style="fill:none;stroke:#ffffff;stroke-linecap:round;stroke-width:0.8;"/>
     </g>
     <g id="text_14">
      <!-- Feb 02 -->
      <g style="fill:#262626;" transform="translate(160.007378 416.129687)rotate(-90)scale(0.1 -0.1)">
       <use xlink:href="#ArialMT-70"/>
       <use x="61.083984" xlink:href="#ArialMT-101"/>
       <use x="116.699219" xlink:href="#ArialMT-98"/>
       <use x="172.314453" xlink:href="#ArialMT-32"/>
       <use x="200.097656" xlink:href="#ArialMT-48"/>
       <use x="255.712891" xlink:href="#ArialMT-50"/>
      </g>
     </g>
    </g>
    <g id="xtick_15">
     <g id="line2d_15">
      <path clip-path="url(#p33049f8ab6)" d="M 163.684848 378 
L 163.684848 51.84 
" style="fill:none;stroke:#ffffff;stroke-linecap:round;stroke-width:0.8;"/>
     </g>
     <g id="text_15">
      <!-- Feb 03 -->
      <g style="fill:#262626;" transform="translate(166.270005 416.129687)rotate(-90)scale(0.1 -0.1)">
       <use xlink:href="#ArialMT-70"/>
       <use x="61.083984" xlink:href="#ArialMT-101"/>
       <use x="116.699219" xlink:href="#ArialMT-98"/>
       <use x="172.314453" xlink:href="#ArialMT-32"/>
       <use x="200.097656" xlink:href="#ArialMT-48"/>
       <use x="255.712891" xlink:href="#ArialMT-51"/>
      </g>
     </g>
    </g>
    <g id="xtick_16">
     <g id="line2d_16">
      <path clip-path="url(#p33049f8ab6)" d="M 169.947475 378 
L 169.947475 51.84 
" style="fill:none;stroke:#ffffff;stroke-linecap:round;stroke-width:0.8;"/>
     </g>
     <g id="text_16">
      <!-- Feb 04 -->
      <g style="fill:#262626;" transform="translate(172.532631 416.129687)rotate(-90)scale(0.1 -0.1)">
       <use xlink:href="#ArialMT-70"/>
       <use x="61.083984" xlink:href="#ArialMT-101"/>
       <use x="116.699219" xlink:href="#ArialMT-98"/>
       <use x="172.314453" xlink:href="#ArialMT-32"/>
       <use x="200.097656" xlink:href="#ArialMT-48"/>
       <use x="255.712891" xlink:href="#ArialMT-52"/>
      </g>
     </g>
    </g>
    <g id="xtick_17">
     <g id="line2d_17">
      <path clip-path="url(#p33049f8ab6)" d="M 176.210101 378 
L 176.210101 51.84 
" style="fill:none;stroke:#ffffff;stroke-linecap:round;stroke-width:0.8;"/>
     </g>
     <g id="text_17">
      <!-- Feb 05 -->
      <g style="fill:#262626;" transform="translate(178.795257 416.129687)rotate(-90)scale(0.1 -0.1)">
       <use xlink:href="#ArialMT-70"/>
       <use x="61.083984" xlink:href="#ArialMT-101"/>
       <use x="116.699219" xlink:href="#ArialMT-98"/>
       <use x="172.314453" xlink:href="#ArialMT-32"/>
       <use x="200.097656" xlink:href="#ArialMT-48"/>
       <use x="255.712891" xlink:href="#ArialMT-53"/>
      </g>
     </g>
    </g>
    <g id="xtick_18">
     <g id="line2d_18">
      <path clip-path="url(#p33049f8ab6)" d="M 182.472727 378 
L 182.472727 51.84 
" style="fill:none;stroke:#ffffff;stroke-linecap:round;stroke-width:0.8;"/>
     </g>
     <g id="text_18">
      <!-- Feb 06 -->
      <g style="fill:#262626;" transform="translate(185.057884 416.129687)rotate(-90)scale(0.1 -0.1)">
       <use xlink:href="#ArialMT-70"/>
       <use x="61.083984" xlink:href="#ArialMT-101"/>
       <use x="116.699219" xlink:href="#ArialMT-98"/>
       <use x="172.314453" xlink:href="#ArialMT-32"/>
       <use x="200.097656" xlink:href="#ArialMT-48"/>
       <use x="255.712891" xlink:href="#ArialMT-54"/>
      </g>
     </g>
    </g>
    <g id="xtick_19">
     <g id="line2d_19">
      <path clip-path="url(#p33049f8ab6)" d="M 188.735354 378 
L 188.735354 51.84 
" style="fill:none;stroke:#ffffff;stroke-linecap:round;stroke-width:0.8;"/>
     </g>
     <g id="text_19">
      <!-- Feb 07 -->
      <g style="fill:#262626;" transform="translate(191.32051 416.129687)rotate(-90)scale(0.1 -0.1)">
       <use xlink:href="#ArialMT-70"/>
       <use x="61.083984" xlink:href="#ArialMT-101"/>
       <use x="116.699219" xlink:href="#ArialMT-98"/>
       <use x="172.314453" xlink:href="#ArialMT-32"/>
       <use x="200.097656" xlink:href="#ArialMT-48"/>
       <use x="255.712891" xlink:href="#ArialMT-55"/>
      </g>
     </g>
    </g>
    <g id="xtick_20">
     <g id="line2d_20">
      <path clip-path="url(#p33049f8ab6)" d="M 194.99798 378 
L 194.99798 51.84 
" style="fill:none;stroke:#ffffff;stroke-linecap:round;stroke-width:0.8;"/>
     </g>
     <g id="text_20">
      <!-- Feb 08 -->
      <g style="fill:#262626;" transform="translate(197.583136 416.129687)rotate(-90)scale(0.1 -0.1)">
       <use xlink:href="#ArialMT-70"/>
       <use x="61.083984" xlink:href="#ArialMT-101"/>
       <use x="116.699219" xlink:href="#ArialMT-98"/>
       <use x="172.314453" xlink:href="#ArialMT-32"/>
       <use x="200.097656" xlink:href="#ArialMT-48"/>
       <use x="255.712891" xlink:href="#ArialMT-56"/>
      </g>
     </g>
    </g>
    <g id="xtick_21">
     <g id="line2d_21">
      <path clip-path="url(#p33049f8ab6)" d="M 201.260606 378 
L 201.260606 51.84 
" style="fill:none;stroke:#ffffff;stroke-linecap:round;stroke-width:0.8;"/>
     </g>
     <g id="text_21">
      <!-- Feb 09 -->
      <g style="fill:#262626;" transform="translate(203.845762 416.129687)rotate(-90)scale(0.1 -0.1)">
       <use xlink:href="#ArialMT-70"/>
       <use x="61.083984" xlink:href="#ArialMT-101"/>
       <use x="116.699219" xlink:href="#ArialMT-98"/>
       <use x="172.314453" xlink:href="#ArialMT-32"/>
       <use x="200.097656" xlink:href="#ArialMT-48"/>
       <use x="255.712891" xlink:href="#ArialMT-57"/>
      </g>
     </g>
    </g>
    <g id="xtick_22">
     <g id="line2d_22">
      <path clip-path="url(#p33049f8ab6)" d="M 207.523232 378 
L 207.523232 51.84 
" style="fill:none;stroke:#ffffff;stroke-linecap:round;stroke-width:0.8;"/>
     </g>
     <g id="text_22">
      <!-- Feb 10 -->
      <g style="fill:#262626;" transform="translate(210.108389 416.129687)rotate(-90)scale(0.1 -0.1)">
       <use xlink:href="#ArialMT-70"/>
       <use x="61.083984" xlink:href="#ArialMT-101"/>
       <use x="116.699219" xlink:href="#ArialMT-98"/>
       <use x="172.314453" xlink:href="#ArialMT-32"/>
       <use x="200.097656" xlink:href="#ArialMT-49"/>
       <use x="255.712891" xlink:href="#ArialMT-48"/>
      </g>
     </g>
    </g>
    <g id="xtick_23">
     <g id="line2d_23">
      <path clip-path="url(#p33049f8ab6)" d="M 213.785859 378 
L 213.785859 51.84 
" style="fill:none;stroke:#ffffff;stroke-linecap:round;stroke-width:0.8;"/>
     </g>
     <g id="text_23">
      <!-- Feb 11 -->
      <g style="fill:#262626;" transform="translate(216.371015 416.11875)rotate(-90)scale(0.1 -0.1)">
       <use xlink:href="#ArialMT-70"/>
       <use x="61.083984" xlink:href="#ArialMT-101"/>
       <use x="116.699219" xlink:href="#ArialMT-98"/>
       <use x="172.314453" xlink:href="#ArialMT-32"/>
       <use x="200.097656" xlink:href="#ArialMT-49"/>
       <use x="255.603516" xlink:href="#ArialMT-49"/>
      </g>
     </g>
    </g>
    <g id="xtick_24">
     <g id="line2d_24">
      <path clip-path="url(#p33049f8ab6)" d="M 220.048485 378 
L 220.048485 51.84 
" style="fill:none;stroke:#ffffff;stroke-linecap:round;stroke-width:0.8;"/>
     </g>
     <g id="text_24">
      <!-- Feb 12 -->
      <g style="fill:#262626;" transform="translate(222.633641 416.129687)rotate(-90)scale(0.1 -0.1)">
       <use xlink:href="#ArialMT-70"/>
       <use x="61.083984" xlink:href="#ArialMT-101"/>
       <use x="116.699219" xlink:href="#ArialMT-98"/>
       <use x="172.314453" xlink:href="#ArialMT-32"/>
       <use x="200.097656" xlink:href="#ArialMT-49"/>
       <use x="255.712891" xlink:href="#ArialMT-50"/>
      </g>
     </g>
    </g>
    <g id="xtick_25">
     <g id="line2d_25">
      <path clip-path="url(#p33049f8ab6)" d="M 226.311111 378 
L 226.311111 51.84 
" style="fill:none;stroke:#ffffff;stroke-linecap:round;stroke-width:0.8;"/>
     </g>
     <g id="text_25">
      <!-- Feb 13 -->
      <g style="fill:#262626;" transform="translate(228.896267 416.129687)rotate(-90)scale(0.1 -0.1)">
       <use xlink:href="#ArialMT-70"/>
       <use x="61.083984" xlink:href="#ArialMT-101"/>
       <use x="116.699219" xlink:href="#ArialMT-98"/>
       <use x="172.314453" xlink:href="#ArialMT-32"/>
       <use x="200.097656" xlink:href="#ArialMT-49"/>
       <use x="255.712891" xlink:href="#ArialMT-51"/>
      </g>
     </g>
    </g>
    <g id="xtick_26">
     <g id="line2d_26">
      <path clip-path="url(#p33049f8ab6)" d="M 232.573737 378 
L 232.573737 51.84 
" style="fill:none;stroke:#ffffff;stroke-linecap:round;stroke-width:0.8;"/>
     </g>
     <g id="text_26">
      <!-- Feb 14 -->
      <g style="fill:#262626;" transform="translate(235.158894 416.129687)rotate(-90)scale(0.1 -0.1)">
       <use xlink:href="#ArialMT-70"/>
       <use x="61.083984" xlink:href="#ArialMT-101"/>
       <use x="116.699219" xlink:href="#ArialMT-98"/>
       <use x="172.314453" xlink:href="#ArialMT-32"/>
       <use x="200.097656" xlink:href="#ArialMT-49"/>
       <use x="255.712891" xlink:href="#ArialMT-52"/>
      </g>
     </g>
    </g>
    <g id="xtick_27">
     <g id="line2d_27">
      <path clip-path="url(#p33049f8ab6)" d="M 238.836364 378 
L 238.836364 51.84 
" style="fill:none;stroke:#ffffff;stroke-linecap:round;stroke-width:0.8;"/>
     </g>
     <g id="text_27">
      <!-- Feb 15 -->
      <g style="fill:#262626;" transform="translate(241.42152 416.129687)rotate(-90)scale(0.1 -0.1)">
       <use xlink:href="#ArialMT-70"/>
       <use x="61.083984" xlink:href="#ArialMT-101"/>
       <use x="116.699219" xlink:href="#ArialMT-98"/>
       <use x="172.314453" xlink:href="#ArialMT-32"/>
       <use x="200.097656" xlink:href="#ArialMT-49"/>
       <use x="255.712891" xlink:href="#ArialMT-53"/>
      </g>
     </g>
    </g>
    <g id="xtick_28">
     <g id="line2d_28">
      <path clip-path="url(#p33049f8ab6)" d="M 245.09899 378 
L 245.09899 51.84 
" style="fill:none;stroke:#ffffff;stroke-linecap:round;stroke-width:0.8;"/>
     </g>
     <g id="text_28">
      <!-- Feb 16 -->
      <g style="fill:#262626;" transform="translate(247.684146 416.129687)rotate(-90)scale(0.1 -0.1)">
       <use xlink:href="#ArialMT-70"/>
       <use x="61.083984" xlink:href="#ArialMT-101"/>
       <use x="116.699219" xlink:href="#ArialMT-98"/>
       <use x="172.314453" xlink:href="#ArialMT-32"/>
       <use x="200.097656" xlink:href="#ArialMT-49"/>
       <use x="255.712891" xlink:href="#ArialMT-54"/>
      </g>
     </g>
    </g>
    <g id="xtick_29">
     <g id="line2d_29">
      <path clip-path="url(#p33049f8ab6)" d="M 251.361616 378 
L 251.361616 51.84 
" style="fill:none;stroke:#ffffff;stroke-linecap:round;stroke-width:0.8;"/>
     </g>
     <g id="text_29">
      <!-- Feb 17 -->
      <g style="fill:#262626;" transform="translate(253.946772 416.129687)rotate(-90)scale(0.1 -0.1)">
       <use xlink:href="#ArialMT-70"/>
       <use x="61.083984" xlink:href="#ArialMT-101"/>
       <use x="116.699219" xlink:href="#ArialMT-98"/>
       <use x="172.314453" xlink:href="#ArialMT-32"/>
       <use x="200.097656" xlink:href="#ArialMT-49"/>
       <use x="255.712891" xlink:href="#ArialMT-55"/>
      </g>
     </g>
    </g>
    <g id="xtick_30">
     <g id="line2d_30">
      <path clip-path="url(#p33049f8ab6)" d="M 257.624242 378 
L 257.624242 51.84 
" style="fill:none;stroke:#ffffff;stroke-linecap:round;stroke-width:0.8;"/>
     </g>
     <g id="text_30">
      <!-- Feb 18 -->
      <g style="fill:#262626;" transform="translate(260.209399 416.129687)rotate(-90)scale(0.1 -0.1)">
       <use xlink:href="#ArialMT-70"/>
       <use x="61.083984" xlink:href="#ArialMT-101"/>
       <use x="116.699219" xlink:href="#ArialMT-98"/>
       <use x="172.314453" xlink:href="#ArialMT-32"/>
       <use x="200.097656" xlink:href="#ArialMT-49"/>
       <use x="255.712891" xlink:href="#ArialMT-56"/>
      </g>
     </g>
    </g>
    <g id="xtick_31">
     <g id="line2d_31">
      <path clip-path="url(#p33049f8ab6)" d="M 263.886869 378 
L 263.886869 51.84 
" style="fill:none;stroke:#ffffff;stroke-linecap:round;stroke-width:0.8;"/>
     </g>
     <g id="text_31">
      <!-- Feb 19 -->
      <g style="fill:#262626;" transform="translate(266.472025 416.129687)rotate(-90)scale(0.1 -0.1)">
       <use xlink:href="#ArialMT-70"/>
       <use x="61.083984" xlink:href="#ArialMT-101"/>
       <use x="116.699219" xlink:href="#ArialMT-98"/>
       <use x="172.314453" xlink:href="#ArialMT-32"/>
       <use x="200.097656" xlink:href="#ArialMT-49"/>
       <use x="255.712891" xlink:href="#ArialMT-57"/>
      </g>
     </g>
    </g>
    <g id="xtick_32">
     <g id="line2d_32">
      <path clip-path="url(#p33049f8ab6)" d="M 270.149495 378 
L 270.149495 51.84 
" style="fill:none;stroke:#ffffff;stroke-linecap:round;stroke-width:0.8;"/>
     </g>
     <g id="text_32">
      <!-- Feb 20 -->
      <g style="fill:#262626;" transform="translate(272.734651 416.129687)rotate(-90)scale(0.1 -0.1)">
       <use xlink:href="#ArialMT-70"/>
       <use x="61.083984" xlink:href="#ArialMT-101"/>
       <use x="116.699219" xlink:href="#ArialMT-98"/>
       <use x="172.314453" xlink:href="#ArialMT-32"/>
       <use x="200.097656" xlink:href="#ArialMT-50"/>
       <use x="255.712891" xlink:href="#ArialMT-48"/>
      </g>
     </g>
    </g>
    <g id="xtick_33">
     <g id="line2d_33">
      <path clip-path="url(#p33049f8ab6)" d="M 276.412121 378 
L 276.412121 51.84 
" style="fill:none;stroke:#ffffff;stroke-linecap:round;stroke-width:0.8;"/>
     </g>
     <g id="text_33">
      <!-- Feb 21 -->
      <g style="fill:#262626;" transform="translate(278.997277 416.129687)rotate(-90)scale(0.1 -0.1)">
       <use xlink:href="#ArialMT-70"/>
       <use x="61.083984" xlink:href="#ArialMT-101"/>
       <use x="116.699219" xlink:href="#ArialMT-98"/>
       <use x="172.314453" xlink:href="#ArialMT-32"/>
       <use x="200.097656" xlink:href="#ArialMT-50"/>
       <use x="255.712891" xlink:href="#ArialMT-49"/>
      </g>
     </g>
    </g>
    <g id="xtick_34">
     <g id="line2d_34">
      <path clip-path="url(#p33049f8ab6)" d="M 282.674747 378 
L 282.674747 51.84 
" style="fill:none;stroke:#ffffff;stroke-linecap:round;stroke-width:0.8;"/>
     </g>
     <g id="text_34">
      <!-- Feb 22 -->
      <g style="fill:#262626;" transform="translate(285.259904 416.129687)rotate(-90)scale(0.1 -0.1)">
       <use xlink:href="#ArialMT-70"/>
       <use x="61.083984" xlink:href="#ArialMT-101"/>
       <use x="116.699219" xlink:href="#ArialMT-98"/>
       <use x="172.314453" xlink:href="#ArialMT-32"/>
       <use x="200.097656" xlink:href="#ArialMT-50"/>
       <use x="255.712891" xlink:href="#ArialMT-50"/>
      </g>
     </g>
    </g>
    <g id="xtick_35">
     <g id="line2d_35">
      <path clip-path="url(#p33049f8ab6)" d="M 288.937374 378 
L 288.937374 51.84 
" style="fill:none;stroke:#ffffff;stroke-linecap:round;stroke-width:0.8;"/>
     </g>
     <g id="text_35">
      <!-- Feb 23 -->
      <g style="fill:#262626;" transform="translate(291.52253 416.129687)rotate(-90)scale(0.1 -0.1)">
       <use xlink:href="#ArialMT-70"/>
       <use x="61.083984" xlink:href="#ArialMT-101"/>
       <use x="116.699219" xlink:href="#ArialMT-98"/>
       <use x="172.314453" xlink:href="#ArialMT-32"/>
       <use x="200.097656" xlink:href="#ArialMT-50"/>
       <use x="255.712891" xlink:href="#ArialMT-51"/>
      </g>
     </g>
    </g>
    <g id="xtick_36">
     <g id="line2d_36">
      <path clip-path="url(#p33049f8ab6)" d="M 295.2 378 
L 295.2 51.84 
" style="fill:none;stroke:#ffffff;stroke-linecap:round;stroke-width:0.8;"/>
     </g>
     <g id="text_36">
      <!-- Feb 24 -->
      <g style="fill:#262626;" transform="translate(297.785156 416.129687)rotate(-90)scale(0.1 -0.1)">
       <use xlink:href="#ArialMT-70"/>
       <use x="61.083984" xlink:href="#ArialMT-101"/>
       <use x="116.699219" xlink:href="#ArialMT-98"/>
       <use x="172.314453" xlink:href="#ArialMT-32"/>
       <use x="200.097656" xlink:href="#ArialMT-50"/>
       <use x="255.712891" xlink:href="#ArialMT-52"/>
      </g>
     </g>
    </g>
    <g id="xtick_37">
     <g id="line2d_37">
      <path clip-path="url(#p33049f8ab6)" d="M 301.462626 378 
L 301.462626 51.84 
" style="fill:none;stroke:#ffffff;stroke-linecap:round;stroke-width:0.8;"/>
     </g>
     <g id="text_37">
      <!-- Feb 25 -->
      <g style="fill:#262626;" transform="translate(304.047783 416.129687)rotate(-90)scale(0.1 -0.1)">
       <use xlink:href="#ArialMT-70"/>
       <use x="61.083984" xlink:href="#ArialMT-101"/>
       <use x="116.699219" xlink:href="#ArialMT-98"/>
       <use x="172.314453" xlink:href="#ArialMT-32"/>
       <use x="200.097656" xlink:href="#ArialMT-50"/>
       <use x="255.712891" xlink:href="#ArialMT-53"/>
      </g>
     </g>
    </g>
    <g id="xtick_38">
     <g id="line2d_38">
      <path clip-path="url(#p33049f8ab6)" d="M 307.725253 378 
L 307.725253 51.84 
" style="fill:none;stroke:#ffffff;stroke-linecap:round;stroke-width:0.8;"/>
     </g>
     <g id="text_38">
      <!-- Feb 26 -->
      <g style="fill:#262626;" transform="translate(310.310409 416.129687)rotate(-90)scale(0.1 -0.1)">
       <use xlink:href="#ArialMT-70"/>
       <use x="61.083984" xlink:href="#ArialMT-101"/>
       <use x="116.699219" xlink:href="#ArialMT-98"/>
       <use x="172.314453" xlink:href="#ArialMT-32"/>
       <use x="200.097656" xlink:href="#ArialMT-50"/>
       <use x="255.712891" xlink:href="#ArialMT-54"/>
      </g>
     </g>
    </g>
    <g id="xtick_39">
     <g id="line2d_39">
      <path clip-path="url(#p33049f8ab6)" d="M 313.987879 378 
L 313.987879 51.84 
" style="fill:none;stroke:#ffffff;stroke-linecap:round;stroke-width:0.8;"/>
     </g>
     <g id="text_39">
      <!-- Feb 27 -->
      <g style="fill:#262626;" transform="translate(316.573035 416.129687)rotate(-90)scale(0.1 -0.1)">
       <use xlink:href="#ArialMT-70"/>
       <use x="61.083984" xlink:href="#ArialMT-101"/>
       <use x="116.699219" xlink:href="#ArialMT-98"/>
       <use x="172.314453" xlink:href="#ArialMT-32"/>
       <use x="200.097656" xlink:href="#ArialMT-50"/>
       <use x="255.712891" xlink:href="#ArialMT-55"/>
      </g>
     </g>
    </g>
    <g id="xtick_40">
     <g id="line2d_40">
      <path clip-path="url(#p33049f8ab6)" d="M 320.250505 378 
L 320.250505 51.84 
" style="fill:none;stroke:#ffffff;stroke-linecap:round;stroke-width:0.8;"/>
     </g>
     <g id="text_40">
      <!-- Feb 28 -->
      <g style="fill:#262626;" transform="translate(322.835661 416.129687)rotate(-90)scale(0.1 -0.1)">
       <use xlink:href="#ArialMT-70"/>
       <use x="61.083984" xlink:href="#ArialMT-101"/>
       <use x="116.699219" xlink:href="#ArialMT-98"/>
       <use x="172.314453" xlink:href="#ArialMT-32"/>
       <use x="200.097656" xlink:href="#ArialMT-50"/>
       <use x="255.712891" xlink:href="#ArialMT-56"/>
      </g>
     </g>
    </g>
    <g id="xtick_41">
     <g id="line2d_41">
      <path clip-path="url(#p33049f8ab6)" d="M 326.513131 378 
L 326.513131 51.84 
" style="fill:none;stroke:#ffffff;stroke-linecap:round;stroke-width:0.8;"/>
     </g>
     <g id="text_41">
      <!-- Feb 29 -->
      <g style="fill:#262626;" transform="translate(329.098288 416.129687)rotate(-90)scale(0.1 -0.1)">
       <use xlink:href="#ArialMT-70"/>
       <use x="61.083984" xlink:href="#ArialMT-101"/>
       <use x="116.699219" xlink:href="#ArialMT-98"/>
       <use x="172.314453" xlink:href="#ArialMT-32"/>
       <use x="200.097656" xlink:href="#ArialMT-50"/>
       <use x="255.712891" xlink:href="#ArialMT-57"/>
      </g>
     </g>
    </g>
    <g id="xtick_42">
     <g id="line2d_42">
      <path clip-path="url(#p33049f8ab6)" d="M 332.775758 378 
L 332.775758 51.84 
" style="fill:none;stroke:#ffffff;stroke-linecap:round;stroke-width:0.8;"/>
     </g>
     <g id="text_42">
      <!-- Mar 01 -->
      <defs>
       <path d="M 7.421875 0 
L 7.421875 71.578125 
L 21.6875 71.578125 
L 38.625 20.90625 
Q 40.96875 13.8125 42.046875 10.296875 
Q 43.265625 14.203125 45.84375 21.78125 
L 62.984375 71.578125 
L 75.734375 71.578125 
L 75.734375 0 
L 66.609375 0 
L 66.609375 59.90625 
L 45.796875 0 
L 37.25 0 
L 16.546875 60.9375 
L 16.546875 0 
z
" id="ArialMT-77"/>
       <path d="M 6.5 0 
L 6.5 51.859375 
L 14.40625 51.859375 
L 14.40625 44 
Q 17.4375 49.515625 20 51.265625 
Q 22.5625 53.03125 25.640625 53.03125 
Q 30.078125 53.03125 34.671875 50.203125 
L 31.640625 42.046875 
Q 28.421875 43.953125 25.203125 43.953125 
Q 22.3125 43.953125 20.015625 42.21875 
Q 17.71875 40.484375 16.75 37.40625 
Q 15.28125 32.71875 15.28125 27.15625 
L 15.28125 0 
z
" id="ArialMT-114"/>
      </defs>
      <g style="fill:#262626;" transform="translate(335.360914 416.120313)rotate(-90)scale(0.1 -0.1)">
       <use xlink:href="#ArialMT-77"/>
       <use x="83.300781" xlink:href="#ArialMT-97"/>
       <use x="138.916016" xlink:href="#ArialMT-114"/>
       <use x="172.216797" xlink:href="#ArialMT-32"/>
       <use x="200" xlink:href="#ArialMT-48"/>
       <use x="255.615234" xlink:href="#ArialMT-49"/>
      </g>
     </g>
    </g>
    <g id="xtick_43">
     <g id="line2d_43">
      <path clip-path="url(#p33049f8ab6)" d="M 339.038384 378 
L 339.038384 51.84 
" style="fill:none;stroke:#ffffff;stroke-linecap:round;stroke-width:0.8;"/>
     </g>
     <g id="text_43">
      <!-- Mar 02 -->
      <g style="fill:#262626;" transform="translate(341.62354 416.120313)rotate(-90)scale(0.1 -0.1)">
       <use xlink:href="#ArialMT-77"/>
       <use x="83.300781" xlink:href="#ArialMT-97"/>
       <use x="138.916016" xlink:href="#ArialMT-114"/>
       <use x="172.216797" xlink:href="#ArialMT-32"/>
       <use x="200" xlink:href="#ArialMT-48"/>
       <use x="255.615234" xlink:href="#ArialMT-50"/>
      </g>
     </g>
    </g>
    <g id="xtick_44">
     <g id="line2d_44">
      <path clip-path="url(#p33049f8ab6)" d="M 345.30101 378 
L 345.30101 51.84 
" style="fill:none;stroke:#ffffff;stroke-linecap:round;stroke-width:0.8;"/>
     </g>
     <g id="text_44">
      <!-- Mar 03 -->
      <g style="fill:#262626;" transform="translate(347.886166 416.120313)rotate(-90)scale(0.1 -0.1)">
       <use xlink:href="#ArialMT-77"/>
       <use x="83.300781" xlink:href="#ArialMT-97"/>
       <use x="138.916016" xlink:href="#ArialMT-114"/>
       <use x="172.216797" xlink:href="#ArialMT-32"/>
       <use x="200" xlink:href="#ArialMT-48"/>
       <use x="255.615234" xlink:href="#ArialMT-51"/>
      </g>
     </g>
    </g>
    <g id="xtick_45">
     <g id="line2d_45">
      <path clip-path="url(#p33049f8ab6)" d="M 351.563636 378 
L 351.563636 51.84 
" style="fill:none;stroke:#ffffff;stroke-linecap:round;stroke-width:0.8;"/>
     </g>
     <g id="text_45">
      <!-- Mar 04 -->
      <g style="fill:#262626;" transform="translate(354.148793 416.120313)rotate(-90)scale(0.1 -0.1)">
       <use xlink:href="#ArialMT-77"/>
       <use x="83.300781" xlink:href="#ArialMT-97"/>
       <use x="138.916016" xlink:href="#ArialMT-114"/>
       <use x="172.216797" xlink:href="#ArialMT-32"/>
       <use x="200" xlink:href="#ArialMT-48"/>
       <use x="255.615234" xlink:href="#ArialMT-52"/>
      </g>
     </g>
    </g>
    <g id="xtick_46">
     <g id="line2d_46">
      <path clip-path="url(#p33049f8ab6)" d="M 357.826263 378 
L 357.826263 51.84 
" style="fill:none;stroke:#ffffff;stroke-linecap:round;stroke-width:0.8;"/>
     </g>
     <g id="text_46">
      <!-- Mar 05 -->
      <g style="fill:#262626;" transform="translate(360.411419 416.120313)rotate(-90)scale(0.1 -0.1)">
       <use xlink:href="#ArialMT-77"/>
       <use x="83.300781" xlink:href="#ArialMT-97"/>
       <use x="138.916016" xlink:href="#ArialMT-114"/>
       <use x="172.216797" xlink:href="#ArialMT-32"/>
       <use x="200" xlink:href="#ArialMT-48"/>
       <use x="255.615234" xlink:href="#ArialMT-53"/>
      </g>
     </g>
    </g>
    <g id="xtick_47">
     <g id="line2d_47">
      <path clip-path="url(#p33049f8ab6)" d="M 364.088889 378 
L 364.088889 51.84 
" style="fill:none;stroke:#ffffff;stroke-linecap:round;stroke-width:0.8;"/>
     </g>
     <g id="text_47">
      <!-- Mar 06 -->
      <g style="fill:#262626;" transform="translate(366.674045 416.120313)rotate(-90)scale(0.1 -0.1)">
       <use xlink:href="#ArialMT-77"/>
       <use x="83.300781" xlink:href="#ArialMT-97"/>
       <use x="138.916016" xlink:href="#ArialMT-114"/>
       <use x="172.216797" xlink:href="#ArialMT-32"/>
       <use x="200" xlink:href="#ArialMT-48"/>
       <use x="255.615234" xlink:href="#ArialMT-54"/>
      </g>
     </g>
    </g>
    <g id="xtick_48">
     <g id="line2d_48">
      <path clip-path="url(#p33049f8ab6)" d="M 370.351515 378 
L 370.351515 51.84 
" style="fill:none;stroke:#ffffff;stroke-linecap:round;stroke-width:0.8;"/>
     </g>
     <g id="text_48">
      <!-- Mar 07 -->
      <g style="fill:#262626;" transform="translate(372.936671 416.120313)rotate(-90)scale(0.1 -0.1)">
       <use xlink:href="#ArialMT-77"/>
       <use x="83.300781" xlink:href="#ArialMT-97"/>
       <use x="138.916016" xlink:href="#ArialMT-114"/>
       <use x="172.216797" xlink:href="#ArialMT-32"/>
       <use x="200" xlink:href="#ArialMT-48"/>
       <use x="255.615234" xlink:href="#ArialMT-55"/>
      </g>
     </g>
    </g>
    <g id="xtick_49">
     <g id="line2d_49">
      <path clip-path="url(#p33049f8ab6)" d="M 376.614141 378 
L 376.614141 51.84 
" style="fill:none;stroke:#ffffff;stroke-linecap:round;stroke-width:0.8;"/>
     </g>
     <g id="text_49">
      <!-- Mar 08 -->
      <g style="fill:#262626;" transform="translate(379.199298 416.120313)rotate(-90)scale(0.1 -0.1)">
       <use xlink:href="#ArialMT-77"/>
       <use x="83.300781" xlink:href="#ArialMT-97"/>
       <use x="138.916016" xlink:href="#ArialMT-114"/>
       <use x="172.216797" xlink:href="#ArialMT-32"/>
       <use x="200" xlink:href="#ArialMT-48"/>
       <use x="255.615234" xlink:href="#ArialMT-56"/>
      </g>
     </g>
    </g>
    <g id="xtick_50">
     <g id="line2d_50">
      <path clip-path="url(#p33049f8ab6)" d="M 382.876768 378 
L 382.876768 51.84 
" style="fill:none;stroke:#ffffff;stroke-linecap:round;stroke-width:0.8;"/>
     </g>
     <g id="text_50">
      <!-- Mar 09 -->
      <g style="fill:#262626;" transform="translate(385.461924 416.120313)rotate(-90)scale(0.1 -0.1)">
       <use xlink:href="#ArialMT-77"/>
       <use x="83.300781" xlink:href="#ArialMT-97"/>
       <use x="138.916016" xlink:href="#ArialMT-114"/>
       <use x="172.216797" xlink:href="#ArialMT-32"/>
       <use x="200" xlink:href="#ArialMT-48"/>
       <use x="255.615234" xlink:href="#ArialMT-57"/>
      </g>
     </g>
    </g>
    <g id="xtick_51">
     <g id="line2d_51">
      <path clip-path="url(#p33049f8ab6)" d="M 389.139394 378 
L 389.139394 51.84 
" style="fill:none;stroke:#ffffff;stroke-linecap:round;stroke-width:0.8;"/>
     </g>
     <g id="text_51">
      <!-- Mar 10 -->
      <g style="fill:#262626;" transform="translate(391.72455 416.120313)rotate(-90)scale(0.1 -0.1)">
       <use xlink:href="#ArialMT-77"/>
       <use x="83.300781" xlink:href="#ArialMT-97"/>
       <use x="138.916016" xlink:href="#ArialMT-114"/>
       <use x="172.216797" xlink:href="#ArialMT-32"/>
       <use x="200" xlink:href="#ArialMT-49"/>
       <use x="255.615234" xlink:href="#ArialMT-48"/>
      </g>
     </g>
    </g>
    <g id="xtick_52">
     <g id="line2d_52">
      <path clip-path="url(#p33049f8ab6)" d="M 395.40202 378 
L 395.40202 51.84 
" style="fill:none;stroke:#ffffff;stroke-linecap:round;stroke-width:0.8;"/>
     </g>
     <g id="text_52">
      <!-- Mar 11 -->
      <g style="fill:#262626;" transform="translate(397.987176 416.109375)rotate(-90)scale(0.1 -0.1)">
       <use xlink:href="#ArialMT-77"/>
       <use x="83.300781" xlink:href="#ArialMT-97"/>
       <use x="138.916016" xlink:href="#ArialMT-114"/>
       <use x="172.216797" xlink:href="#ArialMT-32"/>
       <use x="200" xlink:href="#ArialMT-49"/>
       <use x="255.505859" xlink:href="#ArialMT-49"/>
      </g>
     </g>
    </g>
    <g id="xtick_53">
     <g id="line2d_53">
      <path clip-path="url(#p33049f8ab6)" d="M 401.664646 378 
L 401.664646 51.84 
" style="fill:none;stroke:#ffffff;stroke-linecap:round;stroke-width:0.8;"/>
     </g>
     <g id="text_53">
      <!-- Mar 12 -->
      <g style="fill:#262626;" transform="translate(404.249803 416.120313)rotate(-90)scale(0.1 -0.1)">
       <use xlink:href="#ArialMT-77"/>
       <use x="83.300781" xlink:href="#ArialMT-97"/>
       <use x="138.916016" xlink:href="#ArialMT-114"/>
       <use x="172.216797" xlink:href="#ArialMT-32"/>
       <use x="200" xlink:href="#ArialMT-49"/>
       <use x="255.615234" xlink:href="#ArialMT-50"/>
      </g>
     </g>
    </g>
    <g id="xtick_54">
     <g id="line2d_54">
      <path clip-path="url(#p33049f8ab6)" d="M 407.927273 378 
L 407.927273 51.84 
" style="fill:none;stroke:#ffffff;stroke-linecap:round;stroke-width:0.8;"/>
     </g>
     <g id="text_54">
      <!-- Mar 13 -->
      <g style="fill:#262626;" transform="translate(410.512429 416.120313)rotate(-90)scale(0.1 -0.1)">
       <use xlink:href="#ArialMT-77"/>
       <use x="83.300781" xlink:href="#ArialMT-97"/>
       <use x="138.916016" xlink:href="#ArialMT-114"/>
       <use x="172.216797" xlink:href="#ArialMT-32"/>
       <use x="200" xlink:href="#ArialMT-49"/>
       <use x="255.615234" xlink:href="#ArialMT-51"/>
      </g>
     </g>
    </g>
    <g id="xtick_55">
     <g id="line2d_55">
      <path clip-path="url(#p33049f8ab6)" d="M 414.189899 378 
L 414.189899 51.84 
" style="fill:none;stroke:#ffffff;stroke-linecap:round;stroke-width:0.8;"/>
     </g>
     <g id="text_55">
      <!-- Mar 14 -->
      <g style="fill:#262626;" transform="translate(416.775055 416.120313)rotate(-90)scale(0.1 -0.1)">
       <use xlink:href="#ArialMT-77"/>
       <use x="83.300781" xlink:href="#ArialMT-97"/>
       <use x="138.916016" xlink:href="#ArialMT-114"/>
       <use x="172.216797" xlink:href="#ArialMT-32"/>
       <use x="200" xlink:href="#ArialMT-49"/>
       <use x="255.615234" xlink:href="#ArialMT-52"/>
      </g>
     </g>
    </g>
    <g id="xtick_56">
     <g id="line2d_56">
      <path clip-path="url(#p33049f8ab6)" d="M 420.452525 378 
L 420.452525 51.84 
" style="fill:none;stroke:#ffffff;stroke-linecap:round;stroke-width:0.8;"/>
     </g>
     <g id="text_56">
      <!-- Mar 15 -->
      <g style="fill:#262626;" transform="translate(423.037682 416.120313)rotate(-90)scale(0.1 -0.1)">
       <use xlink:href="#ArialMT-77"/>
       <use x="83.300781" xlink:href="#ArialMT-97"/>
       <use x="138.916016" xlink:href="#ArialMT-114"/>
       <use x="172.216797" xlink:href="#ArialMT-32"/>
       <use x="200" xlink:href="#ArialMT-49"/>
       <use x="255.615234" xlink:href="#ArialMT-53"/>
      </g>
     </g>
    </g>
    <g id="xtick_57">
     <g id="line2d_57">
      <path clip-path="url(#p33049f8ab6)" d="M 426.715152 378 
L 426.715152 51.84 
" style="fill:none;stroke:#ffffff;stroke-linecap:round;stroke-width:0.8;"/>
     </g>
     <g id="text_57">
      <!-- Mar 16 -->
      <g style="fill:#262626;" transform="translate(429.300308 416.120313)rotate(-90)scale(0.1 -0.1)">
       <use xlink:href="#ArialMT-77"/>
       <use x="83.300781" xlink:href="#ArialMT-97"/>
       <use x="138.916016" xlink:href="#ArialMT-114"/>
       <use x="172.216797" xlink:href="#ArialMT-32"/>
       <use x="200" xlink:href="#ArialMT-49"/>
       <use x="255.615234" xlink:href="#ArialMT-54"/>
      </g>
     </g>
    </g>
    <g id="xtick_58">
     <g id="line2d_58">
      <path clip-path="url(#p33049f8ab6)" d="M 432.977778 378 
L 432.977778 51.84 
" style="fill:none;stroke:#ffffff;stroke-linecap:round;stroke-width:0.8;"/>
     </g>
     <g id="text_58">
      <!-- Mar 17 -->
      <g style="fill:#262626;" transform="translate(435.562934 416.120313)rotate(-90)scale(0.1 -0.1)">
       <use xlink:href="#ArialMT-77"/>
       <use x="83.300781" xlink:href="#ArialMT-97"/>
       <use x="138.916016" xlink:href="#ArialMT-114"/>
       <use x="172.216797" xlink:href="#ArialMT-32"/>
       <use x="200" xlink:href="#ArialMT-49"/>
       <use x="255.615234" xlink:href="#ArialMT-55"/>
      </g>
     </g>
    </g>
    <g id="xtick_59">
     <g id="line2d_59">
      <path clip-path="url(#p33049f8ab6)" d="M 439.240404 378 
L 439.240404 51.84 
" style="fill:none;stroke:#ffffff;stroke-linecap:round;stroke-width:0.8;"/>
     </g>
     <g id="text_59">
      <!-- Mar 18 -->
      <g style="fill:#262626;" transform="translate(441.82556 416.120313)rotate(-90)scale(0.1 -0.1)">
       <use xlink:href="#ArialMT-77"/>
       <use x="83.300781" xlink:href="#ArialMT-97"/>
       <use x="138.916016" xlink:href="#ArialMT-114"/>
       <use x="172.216797" xlink:href="#ArialMT-32"/>
       <use x="200" xlink:href="#ArialMT-49"/>
       <use x="255.615234" xlink:href="#ArialMT-56"/>
      </g>
     </g>
    </g>
    <g id="xtick_60">
     <g id="line2d_60">
      <path clip-path="url(#p33049f8ab6)" d="M 445.50303 378 
L 445.50303 51.84 
" style="fill:none;stroke:#ffffff;stroke-linecap:round;stroke-width:0.8;"/>
     </g>
     <g id="text_60">
      <!-- Mar 19 -->
      <g style="fill:#262626;" transform="translate(448.088187 416.120313)rotate(-90)scale(0.1 -0.1)">
       <use xlink:href="#ArialMT-77"/>
       <use x="83.300781" xlink:href="#ArialMT-97"/>
       <use x="138.916016" xlink:href="#ArialMT-114"/>
       <use x="172.216797" xlink:href="#ArialMT-32"/>
       <use x="200" xlink:href="#ArialMT-49"/>
       <use x="255.615234" xlink:href="#ArialMT-57"/>
      </g>
     </g>
    </g>
    <g id="xtick_61">
     <g id="line2d_61">
      <path clip-path="url(#p33049f8ab6)" d="M 451.765657 378 
L 451.765657 51.84 
" style="fill:none;stroke:#ffffff;stroke-linecap:round;stroke-width:0.8;"/>
     </g>
     <g id="text_61">
      <!-- Mar 20 -->
      <g style="fill:#262626;" transform="translate(454.350813 416.120313)rotate(-90)scale(0.1 -0.1)">
       <use xlink:href="#ArialMT-77"/>
       <use x="83.300781" xlink:href="#ArialMT-97"/>
       <use x="138.916016" xlink:href="#ArialMT-114"/>
       <use x="172.216797" xlink:href="#ArialMT-32"/>
       <use x="200" xlink:href="#ArialMT-50"/>
       <use x="255.615234" xlink:href="#ArialMT-48"/>
      </g>
     </g>
    </g>
    <g id="xtick_62">
     <g id="line2d_62">
      <path clip-path="url(#p33049f8ab6)" d="M 458.028283 378 
L 458.028283 51.84 
" style="fill:none;stroke:#ffffff;stroke-linecap:round;stroke-width:0.8;"/>
     </g>
     <g id="text_62">
      <!-- Mar 21 -->
      <g style="fill:#262626;" transform="translate(460.613439 416.120313)rotate(-90)scale(0.1 -0.1)">
       <use xlink:href="#ArialMT-77"/>
       <use x="83.300781" xlink:href="#ArialMT-97"/>
       <use x="138.916016" xlink:href="#ArialMT-114"/>
       <use x="172.216797" xlink:href="#ArialMT-32"/>
       <use x="200" xlink:href="#ArialMT-50"/>
       <use x="255.615234" xlink:href="#ArialMT-49"/>
      </g>
     </g>
    </g>
    <g id="xtick_63">
     <g id="line2d_63">
      <path clip-path="url(#p33049f8ab6)" d="M 464.290909 378 
L 464.290909 51.84 
" style="fill:none;stroke:#ffffff;stroke-linecap:round;stroke-width:0.8;"/>
     </g>
     <g id="text_63">
      <!-- Mar 22 -->
      <g style="fill:#262626;" transform="translate(466.876065 416.120313)rotate(-90)scale(0.1 -0.1)">
       <use xlink:href="#ArialMT-77"/>
       <use x="83.300781" xlink:href="#ArialMT-97"/>
       <use x="138.916016" xlink:href="#ArialMT-114"/>
       <use x="172.216797" xlink:href="#ArialMT-32"/>
       <use x="200" xlink:href="#ArialMT-50"/>
       <use x="255.615234" xlink:href="#ArialMT-50"/>
      </g>
     </g>
    </g>
    <g id="xtick_64">
     <g id="line2d_64">
      <path clip-path="url(#p33049f8ab6)" d="M 470.553535 378 
L 470.553535 51.84 
" style="fill:none;stroke:#ffffff;stroke-linecap:round;stroke-width:0.8;"/>
     </g>
     <g id="text_64">
      <!-- Mar 23 -->
      <g style="fill:#262626;" transform="translate(473.138692 416.120313)rotate(-90)scale(0.1 -0.1)">
       <use xlink:href="#ArialMT-77"/>
       <use x="83.300781" xlink:href="#ArialMT-97"/>
       <use x="138.916016" xlink:href="#ArialMT-114"/>
       <use x="172.216797" xlink:href="#ArialMT-32"/>
       <use x="200" xlink:href="#ArialMT-50"/>
       <use x="255.615234" xlink:href="#ArialMT-51"/>
      </g>
     </g>
    </g>
    <g id="xtick_65">
     <g id="line2d_65">
      <path clip-path="url(#p33049f8ab6)" d="M 476.816162 378 
L 476.816162 51.84 
" style="fill:none;stroke:#ffffff;stroke-linecap:round;stroke-width:0.8;"/>
     </g>
     <g id="text_65">
      <!-- Mar 24 -->
      <g style="fill:#262626;" transform="translate(479.401318 416.120313)rotate(-90)scale(0.1 -0.1)">
       <use xlink:href="#ArialMT-77"/>
       <use x="83.300781" xlink:href="#ArialMT-97"/>
       <use x="138.916016" xlink:href="#ArialMT-114"/>
       <use x="172.216797" xlink:href="#ArialMT-32"/>
       <use x="200" xlink:href="#ArialMT-50"/>
       <use x="255.615234" xlink:href="#ArialMT-52"/>
      </g>
     </g>
    </g>
    <g id="xtick_66">
     <g id="line2d_66">
      <path clip-path="url(#p33049f8ab6)" d="M 483.078788 378 
L 483.078788 51.84 
" style="fill:none;stroke:#ffffff;stroke-linecap:round;stroke-width:0.8;"/>
     </g>
     <g id="text_66">
      <!-- Mar 25 -->
      <g style="fill:#262626;" transform="translate(485.663944 416.120313)rotate(-90)scale(0.1 -0.1)">
       <use xlink:href="#ArialMT-77"/>
       <use x="83.300781" xlink:href="#ArialMT-97"/>
       <use x="138.916016" xlink:href="#ArialMT-114"/>
       <use x="172.216797" xlink:href="#ArialMT-32"/>
       <use x="200" xlink:href="#ArialMT-50"/>
       <use x="255.615234" xlink:href="#ArialMT-53"/>
      </g>
     </g>
    </g>
    <g id="xtick_67">
     <g id="line2d_67">
      <path clip-path="url(#p33049f8ab6)" d="M 489.341414 378 
L 489.341414 51.84 
" style="fill:none;stroke:#ffffff;stroke-linecap:round;stroke-width:0.8;"/>
     </g>
     <g id="text_67">
      <!-- Mar 26 -->
      <g style="fill:#262626;" transform="translate(491.92657 416.120313)rotate(-90)scale(0.1 -0.1)">
       <use xlink:href="#ArialMT-77"/>
       <use x="83.300781" xlink:href="#ArialMT-97"/>
       <use x="138.916016" xlink:href="#ArialMT-114"/>
       <use x="172.216797" xlink:href="#ArialMT-32"/>
       <use x="200" xlink:href="#ArialMT-50"/>
       <use x="255.615234" xlink:href="#ArialMT-54"/>
      </g>
     </g>
    </g>
    <g id="xtick_68">
     <g id="line2d_68">
      <path clip-path="url(#p33049f8ab6)" d="M 495.60404 378 
L 495.60404 51.84 
" style="fill:none;stroke:#ffffff;stroke-linecap:round;stroke-width:0.8;"/>
     </g>
     <g id="text_68">
      <!-- Mar 27 -->
      <g style="fill:#262626;" transform="translate(498.189197 416.120313)rotate(-90)scale(0.1 -0.1)">
       <use xlink:href="#ArialMT-77"/>
       <use x="83.300781" xlink:href="#ArialMT-97"/>
       <use x="138.916016" xlink:href="#ArialMT-114"/>
       <use x="172.216797" xlink:href="#ArialMT-32"/>
       <use x="200" xlink:href="#ArialMT-50"/>
       <use x="255.615234" xlink:href="#ArialMT-55"/>
      </g>
     </g>
    </g>
    <g id="xtick_69">
     <g id="line2d_69">
      <path clip-path="url(#p33049f8ab6)" d="M 501.866667 378 
L 501.866667 51.84 
" style="fill:none;stroke:#ffffff;stroke-linecap:round;stroke-width:0.8;"/>
     </g>
     <g id="text_69">
      <!-- Mar 28 -->
      <g style="fill:#262626;" transform="translate(504.451823 416.120313)rotate(-90)scale(0.1 -0.1)">
       <use xlink:href="#ArialMT-77"/>
       <use x="83.300781" xlink:href="#ArialMT-97"/>
       <use x="138.916016" xlink:href="#ArialMT-114"/>
       <use x="172.216797" xlink:href="#ArialMT-32"/>
       <use x="200" xlink:href="#ArialMT-50"/>
       <use x="255.615234" xlink:href="#ArialMT-56"/>
      </g>
     </g>
    </g>
    <g id="xtick_70">
     <g id="line2d_70">
      <path clip-path="url(#p33049f8ab6)" d="M 508.129293 378 
L 508.129293 51.84 
" style="fill:none;stroke:#ffffff;stroke-linecap:round;stroke-width:0.8;"/>
     </g>
     <g id="text_70">
      <!-- Mar 29 -->
      <g style="fill:#262626;" transform="translate(510.714449 416.120313)rotate(-90)scale(0.1 -0.1)">
       <use xlink:href="#ArialMT-77"/>
       <use x="83.300781" xlink:href="#ArialMT-97"/>
       <use x="138.916016" xlink:href="#ArialMT-114"/>
       <use x="172.216797" xlink:href="#ArialMT-32"/>
       <use x="200" xlink:href="#ArialMT-50"/>
       <use x="255.615234" xlink:href="#ArialMT-57"/>
      </g>
     </g>
    </g>
    <g id="xtick_71">
     <g id="line2d_71">
      <path clip-path="url(#p33049f8ab6)" d="M 514.391919 378 
L 514.391919 51.84 
" style="fill:none;stroke:#ffffff;stroke-linecap:round;stroke-width:0.8;"/>
     </g>
     <g id="text_71">
      <!-- Mar 30 -->
      <g style="fill:#262626;" transform="translate(516.977075 416.120313)rotate(-90)scale(0.1 -0.1)">
       <use xlink:href="#ArialMT-77"/>
       <use x="83.300781" xlink:href="#ArialMT-97"/>
       <use x="138.916016" xlink:href="#ArialMT-114"/>
       <use x="172.216797" xlink:href="#ArialMT-32"/>
       <use x="200" xlink:href="#ArialMT-51"/>
       <use x="255.615234" xlink:href="#ArialMT-48"/>
      </g>
     </g>
    </g>
   </g>
   <g id="matplotlib.axis_2">
    <g id="ytick_1">
     <g id="line2d_72">
      <path clip-path="url(#p33049f8ab6)" d="M 72 378 
L 518.4 378 
" style="fill:none;stroke:#ffffff;stroke-linecap:round;stroke-width:0.8;"/>
     </g>
     <g id="text_72">
      <!-- 0 -->
      <g style="fill:#262626;" transform="translate(59.439062 381.578906)scale(0.1 -0.1)">
       <use xlink:href="#ArialMT-48"/>
      </g>
     </g>
    </g>
    <g id="ytick_2">
     <g id="line2d_73">
      <path clip-path="url(#p33049f8ab6)" d="M 72 329.885289 
L 518.4 329.885289 
" style="fill:none;stroke:#ffffff;stroke-linecap:round;stroke-width:0.8;"/>
     </g>
     <g id="text_73">
      <!-- 500 -->
      <g style="fill:#262626;" transform="translate(48.317188 333.464196)scale(0.1 -0.1)">
       <use xlink:href="#ArialMT-53"/>
       <use x="55.615234" xlink:href="#ArialMT-48"/>
       <use x="111.230469" xlink:href="#ArialMT-48"/>
      </g>
     </g>
    </g>
    <g id="ytick_3">
     <g id="line2d_74">
      <path clip-path="url(#p33049f8ab6)" d="M 72 281.770579 
L 518.4 281.770579 
" style="fill:none;stroke:#ffffff;stroke-linecap:round;stroke-width:0.8;"/>
     </g>
     <g id="text_74">
      <!-- 1000 -->
      <g style="fill:#262626;" transform="translate(42.75625 285.349485)scale(0.1 -0.1)">
       <use xlink:href="#ArialMT-49"/>
       <use x="55.615234" xlink:href="#ArialMT-48"/>
       <use x="111.230469" xlink:href="#ArialMT-48"/>
       <use x="166.845703" xlink:href="#ArialMT-48"/>
      </g>
     </g>
    </g>
    <g id="ytick_4">
     <g id="line2d_75">
      <path clip-path="url(#p33049f8ab6)" d="M 72 233.655868 
L 518.4 233.655868 
" style="fill:none;stroke:#ffffff;stroke-linecap:round;stroke-width:0.8;"/>
     </g>
     <g id="text_75">
      <!-- 1500 -->
      <g style="fill:#262626;" transform="translate(42.75625 237.234775)scale(0.1 -0.1)">
       <use xlink:href="#ArialMT-49"/>
       <use x="55.615234" xlink:href="#ArialMT-53"/>
       <use x="111.230469" xlink:href="#ArialMT-48"/>
       <use x="166.845703" xlink:href="#ArialMT-48"/>
      </g>
     </g>
    </g>
    <g id="ytick_5">
     <g id="line2d_76">
      <path clip-path="url(#p33049f8ab6)" d="M 72 185.541158 
L 518.4 185.541158 
" style="fill:none;stroke:#ffffff;stroke-linecap:round;stroke-width:0.8;"/>
     </g>
     <g id="text_76">
      <!-- 2000 -->
      <g style="fill:#262626;" transform="translate(42.75625 189.120064)scale(0.1 -0.1)">
       <use xlink:href="#ArialMT-50"/>
       <use x="55.615234" xlink:href="#ArialMT-48"/>
       <use x="111.230469" xlink:href="#ArialMT-48"/>
       <use x="166.845703" xlink:href="#ArialMT-48"/>
      </g>
     </g>
    </g>
    <g id="ytick_6">
     <g id="line2d_77">
      <path clip-path="url(#p33049f8ab6)" d="M 72 137.426447 
L 518.4 137.426447 
" style="fill:none;stroke:#ffffff;stroke-linecap:round;stroke-width:0.8;"/>
     </g>
     <g id="text_77">
      <!-- 2500 -->
      <g style="fill:#262626;" transform="translate(42.75625 141.005353)scale(0.1 -0.1)">
       <use xlink:href="#ArialMT-50"/>
       <use x="55.615234" xlink:href="#ArialMT-53"/>
       <use x="111.230469" xlink:href="#ArialMT-48"/>
       <use x="166.845703" xlink:href="#ArialMT-48"/>
      </g>
     </g>
    </g>
    <g id="ytick_7">
     <g id="line2d_78">
      <path clip-path="url(#p33049f8ab6)" d="M 72 89.311737 
L 518.4 89.311737 
" style="fill:none;stroke:#ffffff;stroke-linecap:round;stroke-width:0.8;"/>
     </g>
     <g id="text_78">
      <!-- 3000 -->
      <g style="fill:#262626;" transform="translate(42.75625 92.890643)scale(0.1 -0.1)">
       <use xlink:href="#ArialMT-51"/>
       <use x="55.615234" xlink:href="#ArialMT-48"/>
       <use x="111.230469" xlink:href="#ArialMT-48"/>
       <use x="166.845703" xlink:href="#ArialMT-48"/>
      </g>
     </g>
    </g>
   </g>
   <g id="patch_3">
    <path clip-path="url(#p33049f8ab6)" d="z
" style="fill:#ff0000;stroke:#ffffff;stroke-linejoin:miter;"/>
   </g>
   <g id="patch_4">
    <path clip-path="url(#p33049f8ab6)" d="M 92.290909 378 
L 97.30101 378 
L 97.30101 377.903771 
L 92.290909 377.903771 
z
" style="fill:#ff0000;stroke:#ffffff;stroke-linejoin:miter;"/>
   </g>
   <g id="patch_5">
    <path clip-path="url(#p33049f8ab6)" d="M 98.553535 378 
L 103.563636 378 
L 103.563636 377.230165 
L 98.553535 377.230165 
z
" style="fill:#ff0000;stroke:#ffffff;stroke-linejoin:miter;"/>
   </g>
   <g id="patch_6">
    <path clip-path="url(#p33049f8ab6)" d="M 104.816162 378 
L 109.826263 378 
L 109.826263 376.460329 
L 104.816162 376.460329 
z
" style="fill:#ff0000;stroke:#ffffff;stroke-linejoin:miter;"/>
   </g>
   <g id="patch_7">
    <path clip-path="url(#p33049f8ab6)" d="M 111.078788 378 
L 116.088889 378 
L 116.088889 376.652788 
L 111.078788 376.652788 
z
" style="fill:#ff0000;stroke:#ffffff;stroke-linejoin:miter;"/>
   </g>
   <g id="patch_8">
    <path clip-path="url(#p33049f8ab6)" d="M 117.341414 378 
L 122.351515 378 
L 122.351515 375.498035 
L 117.341414 375.498035 
z
" style="fill:#ff0000;stroke:#ffffff;stroke-linejoin:miter;"/>
   </g>
   <g id="patch_9">
    <path clip-path="url(#p33049f8ab6)" d="M 123.60404 378 
L 128.614141 378 
L 128.614141 373.284758 
L 123.60404 373.284758 
z
" style="fill:#ff0000;stroke:#ffffff;stroke-linejoin:miter;"/>
   </g>
   <g id="patch_10">
    <path clip-path="url(#p33049f8ab6)" d="M 129.866667 378 
L 134.876768 378 
L 134.876768 377.807541 
L 129.866667 377.807541 
z
" style="fill:#ff0000;stroke:#ffffff;stroke-linejoin:miter;"/>
   </g>
   <g id="patch_11">
    <path clip-path="url(#p33049f8ab6)" d="M 136.129293 378 
L 141.139394 378 
L 141.139394 374.343282 
L 136.129293 374.343282 
z
" style="fill:#ff0000;stroke:#ffffff;stroke-linejoin:miter;"/>
   </g>
   <g id="patch_12">
    <path clip-path="url(#p33049f8ab6)" d="M 142.391919 378 
L 147.40202 378 
L 147.40202 373.958364 
L 142.391919 373.958364 
z
" style="fill:#ff0000;stroke:#ffffff;stroke-linejoin:miter;"/>
   </g>
   <g id="patch_13">
    <path clip-path="url(#p33049f8ab6)" d="M 148.654545 378 
L 153.664646 378 
L 153.664646 373.573447 
L 148.654545 373.573447 
z
" style="fill:#ff0000;stroke:#ffffff;stroke-linejoin:miter;"/>
   </g>
   <g id="patch_14">
    <path clip-path="url(#p33049f8ab6)" d="M 154.917172 378 
L 159.927273 378 
L 159.927273 368.08837 
L 154.917172 368.08837 
z
" style="fill:#ff0000;stroke:#ffffff;stroke-linejoin:miter;"/>
   </g>
   <g id="patch_15">
    <path clip-path="url(#p33049f8ab6)" d="M 161.179798 378 
L 166.189899 378 
L 166.189899 371.841317 
L 161.179798 371.841317 
z
" style="fill:#ff0000;stroke:#ffffff;stroke-linejoin:miter;"/>
   </g>
   <g id="patch_16">
    <path clip-path="url(#p33049f8ab6)" d="M 167.442424 378 
L 172.452525 378 
L 172.452525 371.648858 
L 167.442424 371.648858 
z
" style="fill:#ff0000;stroke:#ffffff;stroke-linejoin:miter;"/>
   </g>
   <g id="patch_17">
    <path clip-path="url(#p33049f8ab6)" d="M 173.705051 378 
L 178.715152 378 
L 178.715152 371.071482 
L 173.705051 371.071482 
z
" style="fill:#ff0000;stroke:#ffffff;stroke-linejoin:miter;"/>
   </g>
   <g id="patch_18">
    <path clip-path="url(#p33049f8ab6)" d="M 179.967677 378 
L 184.977778 378 
L 184.977778 371.263941 
L 179.967677 371.263941 
z
" style="fill:#ff0000;stroke:#ffffff;stroke-linejoin:miter;"/>
   </g>
   <g id="patch_19">
    <path clip-path="url(#p33049f8ab6)" d="M 186.230303 378 
L 191.240404 378 
L 191.240404 369.820499 
L 186.230303 369.820499 
z
" style="fill:#ff0000;stroke:#ffffff;stroke-linejoin:miter;"/>
   </g>
   <g id="patch_20">
    <path clip-path="url(#p33049f8ab6)" d="M 192.492929 378 
L 197.50303 378 
L 197.50303 369.62804 
L 192.492929 369.62804 
z
" style="fill:#ff0000;stroke:#ffffff;stroke-linejoin:miter;"/>
   </g>
   <g id="patch_21">
    <path clip-path="url(#p33049f8ab6)" d="M 198.755556 378 
L 203.765657 378 
L 203.765657 368.377058 
L 198.755556 368.377058 
z
" style="fill:#ff0000;stroke:#ffffff;stroke-linejoin:miter;"/>
   </g>
   <g id="patch_22">
    <path clip-path="url(#p33049f8ab6)" d="M 205.018182 378 
L 210.028283 378 
L 210.028283 367.703452 
L 205.018182 367.703452 
z
" style="fill:#ff0000;stroke:#ffffff;stroke-linejoin:miter;"/>
   </g>
   <g id="patch_23">
    <path clip-path="url(#p33049f8ab6)" d="M 211.280808 378 
L 216.290909 378 
L 216.290909 368.377058 
L 211.280808 368.377058 
z
" style="fill:#ff0000;stroke:#ffffff;stroke-linejoin:miter;"/>
   </g>
   <g id="patch_24">
    <path clip-path="url(#p33049f8ab6)" d="M 217.543434 378 
L 222.553535 378 
L 222.553535 377.518853 
L 217.543434 377.518853 
z
" style="fill:#ff0000;stroke:#ffffff;stroke-linejoin:miter;"/>
   </g>
   <g id="patch_25">
    <path clip-path="url(#p33049f8ab6)" d="M 223.806061 378 
L 228.816162 378 
L 228.816162 353.653956 
L 223.806061 353.653956 
z
" style="fill:#ff0000;stroke:#ffffff;stroke-linejoin:miter;"/>
   </g>
   <g id="patch_26">
    <path clip-path="url(#p33049f8ab6)" d="M 230.068687 378 
L 235.078788 378 
L 235.078788 363.373128 
L 230.068687 363.373128 
z
" style="fill:#ff0000;stroke:#ffffff;stroke-linejoin:miter;"/>
   </g>
   <g id="patch_27">
    <path clip-path="url(#p33049f8ab6)" d="M 236.331313 378 
L 241.341414 378 
L 241.341414 364.239193 
L 236.331313 364.239193 
z
" style="fill:#ff0000;stroke:#ffffff;stroke-linejoin:miter;"/>
   </g>
   <g id="patch_28">
    <path clip-path="url(#p33049f8ab6)" d="M 242.593939 378 
L 247.60404 378 
L 247.60404 367.99214 
L 242.593939 367.99214 
z
" style="fill:#ff0000;stroke:#ffffff;stroke-linejoin:miter;"/>
   </g>
   <g id="patch_29">
    <path clip-path="url(#p33049f8ab6)" d="M 248.856566 378 
L 253.866667 378 
L 253.866667 368.569517 
L 248.856566 368.569517 
z
" style="fill:#ff0000;stroke:#ffffff;stroke-linejoin:miter;"/>
   </g>
   <g id="patch_30">
    <path clip-path="url(#p33049f8ab6)" d="M 255.119192 378 
L 260.129293 378 
L 260.129293 364.62411 
L 255.119192 364.62411 
z
" style="fill:#ff0000;stroke:#ffffff;stroke-linejoin:miter;"/>
   </g>
   <g id="patch_31">
    <path clip-path="url(#p33049f8ab6)" d="M 261.381818 378 
L 266.391919 378 
L 266.391919 366.933617 
L 261.381818 366.933617 
z
" style="fill:#ff0000;stroke:#ffffff;stroke-linejoin:miter;"/>
   </g>
   <g id="patch_32">
    <path clip-path="url(#p33049f8ab6)" d="M 267.644444 378 
L 272.654545 378 
L 272.654545 365.971322 
L 267.644444 365.971322 
z
" style="fill:#ff0000;stroke:#ffffff;stroke-linejoin:miter;"/>
   </g>
   <g id="patch_33">
    <path clip-path="url(#p33049f8ab6)" d="M 273.907071 378 
L 278.917172 378 
L 278.917172 377.615082 
L 273.907071 377.615082 
z
" style="fill:#ff0000;stroke:#ffffff;stroke-linejoin:miter;"/>
   </g>
   <g id="patch_34">
    <path clip-path="url(#p33049f8ab6)" d="M 280.169697 378 
L 285.179798 378 
L 285.179798 358.08051 
L 280.169697 358.08051 
z
" style="fill:#ff0000;stroke:#ffffff;stroke-linejoin:miter;"/>
   </g>
   <g id="patch_35">
    <path clip-path="url(#p33049f8ab6)" d="M 286.432323 378 
L 291.442424 378 
L 291.442424 376.941476 
L 286.432323 376.941476 
z
" style="fill:#ff0000;stroke:#ffffff;stroke-linejoin:miter;"/>
   </g>
   <g id="patch_36">
    <path clip-path="url(#p33049f8ab6)" d="M 292.694949 378 
L 297.705051 378 
L 297.705051 362.603293 
L 292.694949 362.603293 
z
" style="fill:#ff0000;stroke:#ffffff;stroke-linejoin:miter;"/>
   </g>
   <g id="patch_37">
    <path clip-path="url(#p33049f8ab6)" d="M 298.957576 378 
L 303.967677 378 
L 303.967677 370.397876 
L 298.957576 370.397876 
z
" style="fill:#ff0000;stroke:#ffffff;stroke-linejoin:miter;"/>
   </g>
   <g id="patch_38">
    <path clip-path="url(#p33049f8ab6)" d="M 305.220202 378 
L 310.230303 378 
L 310.230303 372.033776 
L 305.220202 372.033776 
z
" style="fill:#ff0000;stroke:#ffffff;stroke-linejoin:miter;"/>
   </g>
   <g id="patch_39">
    <path clip-path="url(#p33049f8ab6)" d="M 311.482828 378 
L 316.492929 378 
L 316.492929 373.765905 
L 311.482828 373.765905 
z
" style="fill:#ff0000;stroke:#ffffff;stroke-linejoin:miter;"/>
   </g>
   <g id="patch_40">
    <path clip-path="url(#p33049f8ab6)" d="M 317.745455 378 
L 322.755556 378 
L 322.755556 372.418694 
L 317.745455 372.418694 
z
" style="fill:#ff0000;stroke:#ffffff;stroke-linejoin:miter;"/>
   </g>
   <g id="patch_41">
    <path clip-path="url(#p33049f8ab6)" d="M 324.008081 378 
L 329.018182 378 
L 329.018182 371.36017 
L 324.008081 371.36017 
z
" style="fill:#ff0000;stroke:#ffffff;stroke-linejoin:miter;"/>
   </g>
   <g id="patch_42">
    <path clip-path="url(#p33049f8ab6)" d="M 330.270707 378 
L 335.280808 378 
L 335.280808 372.707382 
L 330.270707 372.707382 
z
" style="fill:#ff0000;stroke:#ffffff;stroke-linejoin:miter;"/>
   </g>
   <g id="patch_43">
    <path clip-path="url(#p33049f8ab6)" d="M 336.533333 378 
L 341.543434 378 
L 341.543434 369.435582 
L 336.533333 369.435582 
z
" style="fill:#ff0000;stroke:#ffffff;stroke-linejoin:miter;"/>
   </g>
   <g id="patch_44">
    <path clip-path="url(#p33049f8ab6)" d="M 342.79596 378 
L 347.806061 378 
L 347.806061 370.782793 
L 342.79596 370.782793 
z
" style="fill:#ff0000;stroke:#ffffff;stroke-linejoin:miter;"/>
   </g>
   <g id="patch_45">
    <path clip-path="url(#p33049f8ab6)" d="M 349.058586 378 
L 354.068687 378 
L 354.068687 368.954434 
L 349.058586 368.954434 
z
" style="fill:#ff0000;stroke:#ffffff;stroke-linejoin:miter;"/>
   </g>
   <g id="patch_46">
    <path clip-path="url(#p33049f8ab6)" d="M 355.321212 378 
L 360.331313 378 
L 360.331313 368.954434 
L 355.321212 368.954434 
z
" style="fill:#ff0000;stroke:#ffffff;stroke-linejoin:miter;"/>
   </g>
   <g id="patch_47">
    <path clip-path="url(#p33049f8ab6)" d="M 361.583838 378 
L 366.593939 378 
L 366.593939 367.222305 
L 361.583838 367.222305 
z
" style="fill:#ff0000;stroke:#ffffff;stroke-linejoin:miter;"/>
   </g>
   <g id="patch_48">
    <path clip-path="url(#p33049f8ab6)" d="M 367.846465 378 
L 372.856566 378 
L 372.856566 368.569517 
L 367.846465 368.569517 
z
" style="fill:#ff0000;stroke:#ffffff;stroke-linejoin:miter;"/>
   </g>
   <g id="patch_49">
    <path clip-path="url(#p33049f8ab6)" d="M 374.109091 378 
L 379.119192 378 
L 379.119192 354.520021 
L 374.109091 354.520021 
z
" style="fill:#ff0000;stroke:#ffffff;stroke-linejoin:miter;"/>
   </g>
   <g id="patch_50">
    <path clip-path="url(#p33049f8ab6)" d="M 380.371717 378 
L 385.381818 378 
L 385.381818 360.101328 
L 380.371717 360.101328 
z
" style="fill:#ff0000;stroke:#ffffff;stroke-linejoin:miter;"/>
   </g>
   <g id="patch_51">
    <path clip-path="url(#p33049f8ab6)" d="M 386.634343 378 
L 391.644444 378 
L 391.644444 351.633139 
L 386.634343 351.633139 
z
" style="fill:#ff0000;stroke:#ffffff;stroke-linejoin:miter;"/>
   </g>
   <g id="patch_52">
    <path clip-path="url(#p33049f8ab6)" d="M 392.89697 378 
L 397.907071 378 
L 397.907071 344.031014 
L 392.89697 344.031014 
z
" style="fill:#ff0000;stroke:#ffffff;stroke-linejoin:miter;"/>
   </g>
   <g id="patch_53">
    <path clip-path="url(#p33049f8ab6)" d="M 399.159596 378 
L 404.169697 378 
L 404.169697 367.895911 
L 399.159596 367.895911 
z
" style="fill:#ff0000;stroke:#ffffff;stroke-linejoin:miter;"/>
   </g>
   <g id="patch_54">
    <path clip-path="url(#p33049f8ab6)" d="M 405.422222 378 
L 410.432323 378 
L 410.432323 312.179076 
L 405.422222 312.179076 
z
" style="fill:#ff0000;stroke:#ffffff;stroke-linejoin:miter;"/>
   </g>
   <g id="patch_55">
    <path clip-path="url(#p33049f8ab6)" d="M 411.684848 378 
L 416.694949 378 
L 416.694949 338.06479 
L 411.684848 338.06479 
z
" style="fill:#ff0000;stroke:#ffffff;stroke-linejoin:miter;"/>
   </g>
   <g id="patch_56">
    <path clip-path="url(#p33049f8ab6)" d="M 417.947475 378 
L 422.957576 378 
L 422.957576 318.241529 
L 417.947475 318.241529 
z
" style="fill:#ff0000;stroke:#ffffff;stroke-linejoin:miter;"/>
   </g>
   <g id="patch_57">
    <path clip-path="url(#p33049f8ab6)" d="M 424.210101 378 
L 429.220202 378 
L 429.220202 311.986617 
L 424.210101 311.986617 
z
" style="fill:#ff0000;stroke:#ffffff;stroke-linejoin:miter;"/>
   </g>
   <g id="patch_58">
    <path clip-path="url(#p33049f8ab6)" d="M 430.472727 378 
L 435.482828 378 
L 435.482828 303.037281 
L 430.472727 303.037281 
z
" style="fill:#ff0000;stroke:#ffffff;stroke-linejoin:miter;"/>
   </g>
   <g id="patch_59">
    <path clip-path="url(#p33049f8ab6)" d="M 436.735354 378 
L 441.745455 378 
L 441.745455 298.322039 
L 436.735354 298.322039 
z
" style="fill:#ff0000;stroke:#ffffff;stroke-linejoin:miter;"/>
   </g>
   <g id="patch_60">
    <path clip-path="url(#p33049f8ab6)" d="M 442.99798 378 
L 448.008081 378 
L 448.008081 268.875836 
L 442.99798 268.875836 
z
" style="fill:#ff0000;stroke:#ffffff;stroke-linejoin:miter;"/>
   </g>
   <g id="patch_61">
    <path clip-path="url(#p33049f8ab6)" d="M 449.260606 378 
L 454.270707 378 
L 454.270707 240.199469 
L 449.260606 240.199469 
z
" style="fill:#ff0000;stroke:#ffffff;stroke-linejoin:miter;"/>
   </g>
   <g id="patch_62">
    <path clip-path="url(#p33049f8ab6)" d="M 455.523232 378 
L 460.533333 378 
L 460.533333 216.911949 
L 455.523232 216.911949 
z
" style="fill:#ff0000;stroke:#ffffff;stroke-linejoin:miter;"/>
   </g>
   <g id="patch_63">
    <path clip-path="url(#p33049f8ab6)" d="M 461.785859 378 
L 466.79596 378 
L 466.79596 216.527031 
L 461.785859 216.527031 
z
" style="fill:#ff0000;stroke:#ffffff;stroke-linejoin:miter;"/>
   </g>
   <g id="patch_64">
    <path clip-path="url(#p33049f8ab6)" d="M 468.048485 378 
L 473.058586 378 
L 473.058586 199.590653 
L 468.048485 199.590653 
z
" style="fill:#ff0000;stroke:#ffffff;stroke-linejoin:miter;"/>
   </g>
   <g id="patch_65">
    <path clip-path="url(#p33049f8ab6)" d="M 474.311111 378 
L 479.321212 378 
L 479.321212 173.993627 
L 474.311111 173.993627 
z
" style="fill:#ff0000;stroke:#ffffff;stroke-linejoin:miter;"/>
   </g>
   <g id="patch_66">
    <path clip-path="url(#p33049f8ab6)" d="M 480.573737 378 
L 485.583838 378 
L 485.583838 132.0376 
L 480.573737 132.0376 
z
" style="fill:#ff0000;stroke:#ffffff;stroke-linejoin:miter;"/>
   </g>
   <g id="patch_67">
    <path clip-path="url(#p33049f8ab6)" d="M 486.836364 378 
L 491.846465 378 
L 491.846465 109.616144 
L 486.836364 109.616144 
z
" style="fill:#ff0000;stroke:#ffffff;stroke-linejoin:miter;"/>
   </g>
   <g id="patch_68">
    <path clip-path="url(#p33049f8ab6)" d="M 493.09899 378 
L 498.109091 378 
L 498.109091 67.371429 
L 493.09899 67.371429 
z
" style="fill:#ff0000;stroke:#ffffff;stroke-linejoin:miter;"/>
   </g>
   <g id="patch_69">
    <path d="M 72 378 
L 72 51.84 
" style="fill:none;stroke:#ffffff;stroke-linecap:square;stroke-linejoin:miter;stroke-width:0.8;"/>
   </g>
   <g id="patch_70">
    <path d="M 518.4 378 
L 518.4 51.84 
" style="fill:none;stroke:#ffffff;stroke-linecap:square;stroke-linejoin:miter;stroke-width:0.8;"/>
   </g>
   <g id="patch_71">
    <path d="M 72 378 
L 518.4 378 
" style="fill:none;stroke:#ffffff;stroke-linecap:square;stroke-linejoin:miter;stroke-width:0.8;"/>
   </g>
   <g id="patch_72">
    <path d="M 72 51.84 
L 518.4 51.84 
" style="fill:none;stroke:#ffffff;stroke-linecap:square;stroke-linejoin:miter;stroke-width:0.8;"/>
   </g>
   <g id="text_79">
    <!-- New global deaths per day -->
    <defs>
     <path d="M 7.625 0 
L 7.625 71.578125 
L 17.328125 71.578125 
L 54.9375 15.375 
L 54.9375 71.578125 
L 64.015625 71.578125 
L 64.015625 0 
L 54.296875 0 
L 16.703125 56.25 
L 16.703125 0 
z
" id="ArialMT-78"/>
     <path d="M 16.15625 0 
L 0.296875 51.859375 
L 9.375 51.859375 
L 17.625 21.921875 
L 20.703125 10.796875 
Q 20.90625 11.625 23.390625 21.484375 
L 31.640625 51.859375 
L 40.671875 51.859375 
L 48.4375 21.78125 
L 51.03125 11.859375 
L 54 21.875 
L 62.890625 51.859375 
L 71.4375 51.859375 
L 55.21875 0 
L 46.09375 0 
L 37.84375 31.0625 
L 35.84375 39.890625 
L 25.34375 0 
z
" id="ArialMT-119"/>
     <path d="M 4.984375 -4.296875 
L 13.53125 -5.5625 
Q 14.0625 -9.515625 16.5 -11.328125 
Q 19.78125 -13.765625 25.4375 -13.765625 
Q 31.546875 -13.765625 34.859375 -11.328125 
Q 38.1875 -8.890625 39.359375 -4.5 
Q 40.046875 -1.8125 39.984375 6.78125 
Q 34.234375 0 25.640625 0 
Q 14.9375 0 9.078125 7.71875 
Q 3.21875 15.4375 3.21875 26.21875 
Q 3.21875 33.640625 5.90625 39.90625 
Q 8.59375 46.1875 13.6875 49.609375 
Q 18.796875 53.03125 25.6875 53.03125 
Q 34.859375 53.03125 40.828125 45.609375 
L 40.828125 51.859375 
L 48.921875 51.859375 
L 48.921875 7.03125 
Q 48.921875 -5.078125 46.453125 -10.125 
Q 44 -15.1875 38.640625 -18.109375 
Q 33.296875 -21.046875 25.484375 -21.046875 
Q 16.21875 -21.046875 10.5 -16.875 
Q 4.78125 -12.703125 4.984375 -4.296875 
z
M 12.25 26.859375 
Q 12.25 16.65625 16.296875 11.96875 
Q 20.359375 7.28125 26.46875 7.28125 
Q 32.515625 7.28125 36.609375 11.9375 
Q 40.71875 16.609375 40.71875 26.5625 
Q 40.71875 36.078125 36.5 40.90625 
Q 32.28125 45.75 26.3125 45.75 
Q 20.453125 45.75 16.34375 40.984375 
Q 12.25 36.234375 12.25 26.859375 
z
" id="ArialMT-103"/>
     <path d="M 6.390625 0 
L 6.390625 71.578125 
L 15.1875 71.578125 
L 15.1875 0 
z
" id="ArialMT-108"/>
     <path d="M 3.328125 25.921875 
Q 3.328125 40.328125 11.328125 47.265625 
Q 18.015625 53.03125 27.640625 53.03125 
Q 38.328125 53.03125 45.109375 46.015625 
Q 51.90625 39.015625 51.90625 26.65625 
Q 51.90625 16.65625 48.90625 10.90625 
Q 45.90625 5.171875 40.15625 2 
Q 34.421875 -1.171875 27.640625 -1.171875 
Q 16.75 -1.171875 10.03125 5.8125 
Q 3.328125 12.796875 3.328125 25.921875 
z
M 12.359375 25.921875 
Q 12.359375 15.96875 16.703125 11.015625 
Q 21.046875 6.0625 27.640625 6.0625 
Q 34.1875 6.0625 38.53125 11.03125 
Q 42.875 16.015625 42.875 26.21875 
Q 42.875 35.84375 38.5 40.796875 
Q 34.125 45.75 27.640625 45.75 
Q 21.046875 45.75 16.703125 40.8125 
Q 12.359375 35.890625 12.359375 25.921875 
z
" id="ArialMT-111"/>
     <path d="M 40.234375 0 
L 40.234375 6.546875 
Q 35.296875 -1.171875 25.734375 -1.171875 
Q 19.53125 -1.171875 14.328125 2.25 
Q 9.125 5.671875 6.265625 11.796875 
Q 3.421875 17.921875 3.421875 25.875 
Q 3.421875 33.640625 6 39.96875 
Q 8.59375 46.296875 13.765625 49.65625 
Q 18.953125 53.03125 25.34375 53.03125 
Q 30.03125 53.03125 33.6875 51.046875 
Q 37.359375 49.078125 39.65625 45.90625 
L 39.65625 71.578125 
L 48.390625 71.578125 
L 48.390625 0 
z
M 12.453125 25.875 
Q 12.453125 15.921875 16.640625 10.984375 
Q 20.84375 6.0625 26.5625 6.0625 
Q 32.328125 6.0625 36.34375 10.765625 
Q 40.375 15.484375 40.375 25.140625 
Q 40.375 35.796875 36.265625 40.765625 
Q 32.171875 45.75 26.171875 45.75 
Q 20.3125 45.75 16.375 40.96875 
Q 12.453125 36.1875 12.453125 25.875 
z
" id="ArialMT-100"/>
     <path d="M 25.78125 7.859375 
L 27.046875 0.09375 
Q 23.34375 -0.6875 20.40625 -0.6875 
Q 15.625 -0.6875 12.984375 0.828125 
Q 10.359375 2.34375 9.28125 4.8125 
Q 8.203125 7.28125 8.203125 15.1875 
L 8.203125 45.015625 
L 1.765625 45.015625 
L 1.765625 51.859375 
L 8.203125 51.859375 
L 8.203125 64.703125 
L 16.9375 69.96875 
L 16.9375 51.859375 
L 25.78125 51.859375 
L 25.78125 45.015625 
L 16.9375 45.015625 
L 16.9375 14.703125 
Q 16.9375 10.9375 17.40625 9.859375 
Q 17.875 8.796875 18.921875 8.15625 
Q 19.96875 7.515625 21.921875 7.515625 
Q 23.390625 7.515625 25.78125 7.859375 
z
" id="ArialMT-116"/>
     <path d="M 6.59375 0 
L 6.59375 71.578125 
L 15.375 71.578125 
L 15.375 45.90625 
Q 21.53125 53.03125 30.90625 53.03125 
Q 36.671875 53.03125 40.921875 50.75 
Q 45.171875 48.484375 47 44.484375 
Q 48.828125 40.484375 48.828125 32.859375 
L 48.828125 0 
L 40.046875 0 
L 40.046875 32.859375 
Q 40.046875 39.453125 37.1875 42.453125 
Q 34.328125 45.453125 29.109375 45.453125 
Q 25.203125 45.453125 21.75 43.421875 
Q 18.3125 41.40625 16.84375 37.9375 
Q 15.375 34.46875 15.375 28.375 
L 15.375 0 
z
" id="ArialMT-104"/>
     <path d="M 3.078125 15.484375 
L 11.765625 16.84375 
Q 12.5 11.625 15.84375 8.84375 
Q 19.1875 6.0625 25.203125 6.0625 
Q 31.25 6.0625 34.171875 8.515625 
Q 37.109375 10.984375 37.109375 14.3125 
Q 37.109375 17.28125 34.515625 19 
Q 32.71875 20.171875 25.53125 21.96875 
Q 15.875 24.421875 12.140625 26.203125 
Q 8.40625 27.984375 6.46875 31.125 
Q 4.546875 34.28125 4.546875 38.09375 
Q 4.546875 41.546875 6.125 44.5 
Q 7.71875 47.46875 10.453125 49.421875 
Q 12.5 50.921875 16.03125 51.96875 
Q 19.578125 53.03125 23.640625 53.03125 
Q 29.734375 53.03125 34.34375 51.265625 
Q 38.96875 49.515625 41.15625 46.5 
Q 43.359375 43.5 44.1875 38.484375 
L 35.59375 37.3125 
Q 35.015625 41.3125 32.203125 43.546875 
Q 29.390625 45.796875 24.265625 45.796875 
Q 18.21875 45.796875 15.625 43.796875 
Q 13.03125 41.796875 13.03125 39.109375 
Q 13.03125 37.40625 14.109375 36.03125 
Q 15.1875 34.625 17.484375 33.6875 
Q 18.796875 33.203125 25.25 31.453125 
Q 34.578125 28.953125 38.25 27.359375 
Q 41.9375 25.78125 44.03125 22.75 
Q 46.140625 19.734375 46.140625 15.234375 
Q 46.140625 10.84375 43.578125 6.953125 
Q 41.015625 3.078125 36.171875 0.953125 
Q 31.34375 -1.171875 25.25 -1.171875 
Q 15.140625 -1.171875 9.84375 3.03125 
Q 4.546875 7.234375 3.078125 15.484375 
z
" id="ArialMT-115"/>
     <path d="M 6.59375 -19.875 
L 6.59375 51.859375 
L 14.59375 51.859375 
L 14.59375 45.125 
Q 17.4375 49.078125 21 51.046875 
Q 24.5625 53.03125 29.640625 53.03125 
Q 36.28125 53.03125 41.359375 49.609375 
Q 46.4375 46.1875 49.015625 39.953125 
Q 51.609375 33.734375 51.609375 26.3125 
Q 51.609375 18.359375 48.75 11.984375 
Q 45.90625 5.609375 40.453125 2.21875 
Q 35.015625 -1.171875 29 -1.171875 
Q 24.609375 -1.171875 21.109375 0.6875 
Q 17.625 2.546875 15.375 5.375 
L 15.375 -19.875 
z
M 14.546875 25.640625 
Q 14.546875 15.625 18.59375 10.84375 
Q 22.65625 6.0625 28.421875 6.0625 
Q 34.28125 6.0625 38.453125 11.015625 
Q 42.625 15.96875 42.625 26.375 
Q 42.625 36.28125 38.546875 41.203125 
Q 34.46875 46.140625 28.8125 46.140625 
Q 23.1875 46.140625 18.859375 40.890625 
Q 14.546875 35.640625 14.546875 25.640625 
z
" id="ArialMT-112"/>
     <path d="M 6.203125 -19.96875 
L 5.21875 -11.71875 
Q 8.109375 -12.5 10.25 -12.5 
Q 13.1875 -12.5 14.9375 -11.515625 
Q 16.703125 -10.546875 17.828125 -8.796875 
Q 18.65625 -7.46875 20.515625 -2.25 
Q 20.75 -1.515625 21.296875 -0.09375 
L 1.609375 51.859375 
L 11.078125 51.859375 
L 21.875 21.828125 
Q 23.96875 16.109375 25.640625 9.8125 
Q 27.15625 15.875 29.25 21.625 
L 40.328125 51.859375 
L 49.125 51.859375 
L 29.390625 -0.875 
Q 26.21875 -9.421875 24.46875 -12.640625 
Q 22.125 -17 19.09375 -19.015625 
Q 16.0625 -21.046875 11.859375 -21.046875 
Q 9.328125 -21.046875 6.203125 -19.96875 
z
" id="ArialMT-121"/>
    </defs>
    <g style="fill:#262626;" transform="translate(224.16 45.84)scale(0.12 -0.12)">
     <use xlink:href="#ArialMT-78"/>
     <use x="72.216797" xlink:href="#ArialMT-101"/>
     <use x="127.832031" xlink:href="#ArialMT-119"/>
     <use x="200.048828" xlink:href="#ArialMT-32"/>
     <use x="227.832031" xlink:href="#ArialMT-103"/>
     <use x="283.447266" xlink:href="#ArialMT-108"/>
     <use x="305.664062" xlink:href="#ArialMT-111"/>
     <use x="361.279297" xlink:href="#ArialMT-98"/>
     <use x="416.894531" xlink:href="#ArialMT-97"/>
     <use x="472.509766" xlink:href="#ArialMT-108"/>
     <use x="494.726562" xlink:href="#ArialMT-32"/>
     <use x="522.509766" xlink:href="#ArialMT-100"/>
     <use x="578.125" xlink:href="#ArialMT-101"/>
     <use x="633.740234" xlink:href="#ArialMT-97"/>
     <use x="689.355469" xlink:href="#ArialMT-116"/>
     <use x="717.138672" xlink:href="#ArialMT-104"/>
     <use x="772.753906" xlink:href="#ArialMT-115"/>
     <use x="822.753906" xlink:href="#ArialMT-32"/>
     <use x="850.537109" xlink:href="#ArialMT-112"/>
     <use x="906.152344" xlink:href="#ArialMT-101"/>
     <use x="961.767578" xlink:href="#ArialMT-114"/>
     <use x="995.068359" xlink:href="#ArialMT-32"/>
     <use x="1022.851562" xlink:href="#ArialMT-100"/>
     <use x="1078.466797" xlink:href="#ArialMT-97"/>
     <use x="1134.082031" xlink:href="#ArialMT-121"/>
    </g>
   </g>
  </g>
 </g>
 <defs>
  <clipPath id="p33049f8ab6">
   <rect height="326.16" width="446.4" x="72" y="51.84"/>
  </clipPath>
 </defs>
</svg>
