<?xml version="1.0" encoding="utf-8" standalone="no"?>
<!DOCTYPE svg PUBLIC "-//W3C//DTD SVG 1.1//EN"
  "http://www.w3.org/Graphics/SVG/1.1/DTD/svg11.dtd">
<!-- Created with matplotlib (https://matplotlib.org/) -->
<svg height="432pt" version="1.1" viewBox="0 0 576 432" width="576pt" xmlns="http://www.w3.org/2000/svg" xmlns:xlink="http://www.w3.org/1999/xlink">
 <defs>
  <style type="text/css">
*{stroke-linecap:butt;stroke-linejoin:round;}
  </style>
 </defs>
 <g id="figure_1">
  <g id="patch_1">
   <path d="M 0 432 
L 576 432 
L 576 0 
L 0 0 
z
" style="fill:#ffffff;"/>
  </g>
  <g id="axes_1">
   <g id="patch_2">
    <path d="M 72 378 
L 518.4 378 
L 518.4 51.84 
L 72 51.84 
z
" style="fill:#eaeaf2;"/>
   </g>
   <g id="matplotlib.axis_1">
    <g id="xtick_1">
     <g id="line2d_1">
      <path clip-path="url(#p3c9bfa5a2e)" d="M 74.64664 378 
L 74.64664 51.84 
" style="fill:none;stroke:#ffffff;stroke-linecap:round;stroke-width:0.8;"/>
     </g>
     <g id="text_1">
      <!-- Jan 20 -->
      <defs>
       <path d="M 2.875 20.3125 
L 11.421875 21.484375 
Q 11.765625 13.28125 14.5 10.25 
Q 17.234375 7.234375 22.078125 7.234375 
Q 25.640625 7.234375 28.21875 8.859375 
Q 30.8125 10.5 31.78125 13.296875 
Q 32.765625 16.109375 32.765625 22.265625 
L 32.765625 71.578125 
L 42.234375 71.578125 
L 42.234375 22.796875 
Q 42.234375 13.8125 40.0625 8.875 
Q 37.890625 3.953125 33.171875 1.359375 
Q 28.46875 -1.21875 22.125 -1.21875 
Q 12.703125 -1.21875 7.6875 4.203125 
Q 2.6875 9.625 2.875 20.3125 
z
" id="ArialMT-74"/>
       <path d="M 40.4375 6.390625 
Q 35.546875 2.25 31.03125 0.53125 
Q 26.515625 -1.171875 21.34375 -1.171875 
Q 12.796875 -1.171875 8.203125 3 
Q 3.609375 7.171875 3.609375 13.671875 
Q 3.609375 17.484375 5.34375 20.625 
Q 7.078125 23.78125 9.890625 25.6875 
Q 12.703125 27.59375 16.21875 28.5625 
Q 18.796875 29.25 24.03125 29.890625 
Q 34.671875 31.15625 39.703125 32.90625 
Q 39.75 34.71875 39.75 35.203125 
Q 39.75 40.578125 37.25 42.78125 
Q 33.890625 45.75 27.25 45.75 
Q 21.046875 45.75 18.09375 43.578125 
Q 15.140625 41.40625 13.71875 35.890625 
L 5.125 37.0625 
Q 6.296875 42.578125 8.984375 45.96875 
Q 11.671875 49.359375 16.75 51.1875 
Q 21.828125 53.03125 28.515625 53.03125 
Q 35.15625 53.03125 39.296875 51.46875 
Q 43.453125 49.90625 45.40625 47.53125 
Q 47.359375 45.171875 48.140625 41.546875 
Q 48.578125 39.3125 48.578125 33.453125 
L 48.578125 21.734375 
Q 48.578125 9.46875 49.140625 6.21875 
Q 49.703125 2.984375 51.375 0 
L 42.1875 0 
Q 40.828125 2.734375 40.4375 6.390625 
z
M 39.703125 26.03125 
Q 34.90625 24.078125 25.34375 22.703125 
Q 19.921875 21.921875 17.671875 20.9375 
Q 15.4375 19.96875 14.203125 18.09375 
Q 12.984375 16.21875 12.984375 13.921875 
Q 12.984375 10.40625 15.640625 8.0625 
Q 18.3125 5.71875 23.4375 5.71875 
Q 28.515625 5.71875 32.46875 7.9375 
Q 36.421875 10.15625 38.28125 14.015625 
Q 39.703125 17 39.703125 22.796875 
z
" id="ArialMT-97"/>
       <path d="M 6.59375 0 
L 6.59375 51.859375 
L 14.5 51.859375 
L 14.5 44.484375 
Q 20.21875 53.03125 31 53.03125 
Q 35.6875 53.03125 39.625 51.34375 
Q 43.5625 49.65625 45.515625 46.921875 
Q 47.46875 44.1875 48.25 40.4375 
Q 48.734375 37.984375 48.734375 31.890625 
L 48.734375 0 
L 39.9375 0 
L 39.9375 31.546875 
Q 39.9375 36.921875 38.90625 39.578125 
Q 37.890625 42.234375 35.28125 43.8125 
Q 32.671875 45.40625 29.15625 45.40625 
Q 23.53125 45.40625 19.453125 41.84375 
Q 15.375 38.28125 15.375 28.328125 
L 15.375 0 
z
" id="ArialMT-110"/>
       <path id="ArialMT-32"/>
       <path d="M 50.34375 8.453125 
L 50.34375 0 
L 3.03125 0 
Q 2.9375 3.171875 4.046875 6.109375 
Q 5.859375 10.9375 9.828125 15.625 
Q 13.8125 20.3125 21.34375 26.46875 
Q 33.015625 36.03125 37.109375 41.625 
Q 41.21875 47.21875 41.21875 52.203125 
Q 41.21875 57.421875 37.46875 61 
Q 33.734375 64.59375 27.734375 64.59375 
Q 21.390625 64.59375 17.578125 60.78125 
Q 13.765625 56.984375 13.71875 50.25 
L 4.6875 51.171875 
Q 5.609375 61.28125 11.65625 66.578125 
Q 17.71875 71.875 27.9375 71.875 
Q 38.234375 71.875 44.234375 66.15625 
Q 50.25 60.453125 50.25 52 
Q 50.25 47.703125 48.484375 43.546875 
Q 46.734375 39.40625 42.65625 34.8125 
Q 38.578125 30.21875 29.109375 22.21875 
Q 21.1875 15.578125 18.9375 13.203125 
Q 16.703125 10.84375 15.234375 8.453125 
z
" id="ArialMT-50"/>
       <path d="M 4.15625 35.296875 
Q 4.15625 48 6.765625 55.734375 
Q 9.375 63.484375 14.515625 67.671875 
Q 19.671875 71.875 27.484375 71.875 
Q 33.25 71.875 37.59375 69.546875 
Q 41.9375 67.234375 44.765625 62.859375 
Q 47.609375 58.5 49.21875 52.21875 
Q 50.828125 45.953125 50.828125 35.296875 
Q 50.828125 22.703125 48.234375 14.96875 
Q 45.65625 7.234375 40.5 3 
Q 35.359375 -1.21875 27.484375 -1.21875 
Q 17.140625 -1.21875 11.234375 6.203125 
Q 4.15625 15.140625 4.15625 35.296875 
z
M 13.1875 35.296875 
Q 13.1875 17.671875 17.3125 11.828125 
Q 21.4375 6 27.484375 6 
Q 33.546875 6 37.671875 11.859375 
Q 41.796875 17.71875 41.796875 35.296875 
Q 41.796875 52.984375 37.671875 58.78125 
Q 33.546875 64.59375 27.390625 64.59375 
Q 21.34375 64.59375 17.71875 59.46875 
Q 13.1875 52.9375 13.1875 35.296875 
z
" id="ArialMT-48"/>
      </defs>
      <g style="fill:#262626;" transform="translate(77.231797 415.021875)rotate(-90)scale(0.1 -0.1)">
       <use xlink:href="#ArialMT-74"/>
       <use x="50" xlink:href="#ArialMT-97"/>
       <use x="105.615234" xlink:href="#ArialMT-110"/>
       <use x="161.230469" xlink:href="#ArialMT-32"/>
       <use x="189.013672" xlink:href="#ArialMT-50"/>
       <use x="244.628906" xlink:href="#ArialMT-48"/>
      </g>
     </g>
    </g>
    <g id="xtick_2">
     <g id="line2d_2">
      <path clip-path="url(#p3c9bfa5a2e)" d="M 81.432898 378 
L 81.432898 51.84 
" style="fill:none;stroke:#ffffff;stroke-linecap:round;stroke-width:0.8;"/>
     </g>
     <g id="text_2">
      <!-- Jan 21 -->
      <defs>
       <path d="M 37.25 0 
L 28.46875 0 
L 28.46875 56 
Q 25.296875 52.984375 20.140625 49.953125 
Q 14.984375 46.921875 10.890625 45.40625 
L 10.890625 53.90625 
Q 18.265625 57.375 23.78125 62.296875 
Q 29.296875 67.234375 31.59375 71.875 
L 37.25 71.875 
z
" id="ArialMT-49"/>
      </defs>
      <g style="fill:#262626;" transform="translate(84.018054 415.021875)rotate(-90)scale(0.1 -0.1)">
       <use xlink:href="#ArialMT-74"/>
       <use x="50" xlink:href="#ArialMT-97"/>
       <use x="105.615234" xlink:href="#ArialMT-110"/>
       <use x="161.230469" xlink:href="#ArialMT-32"/>
       <use x="189.013672" xlink:href="#ArialMT-50"/>
       <use x="244.628906" xlink:href="#ArialMT-49"/>
      </g>
     </g>
    </g>
    <g id="xtick_3">
     <g id="line2d_3">
      <path clip-path="url(#p3c9bfa5a2e)" d="M 88.219155 378 
L 88.219155 51.84 
" style="fill:none;stroke:#ffffff;stroke-linecap:round;stroke-width:0.8;"/>
     </g>
     <g id="text_3">
      <!-- Jan 22 -->
      <g style="fill:#262626;" transform="translate(90.804311 415.021875)rotate(-90)scale(0.1 -0.1)">
       <use xlink:href="#ArialMT-74"/>
       <use x="50" xlink:href="#ArialMT-97"/>
       <use x="105.615234" xlink:href="#ArialMT-110"/>
       <use x="161.230469" xlink:href="#ArialMT-32"/>
       <use x="189.013672" xlink:href="#ArialMT-50"/>
       <use x="244.628906" xlink:href="#ArialMT-50"/>
      </g>
     </g>
    </g>
    <g id="xtick_4">
     <g id="line2d_4">
      <path clip-path="url(#p3c9bfa5a2e)" d="M 95.005412 378 
L 95.005412 51.84 
" style="fill:none;stroke:#ffffff;stroke-linecap:round;stroke-width:0.8;"/>
     </g>
     <g id="text_4">
      <!-- Jan 23 -->
      <defs>
       <path d="M 4.203125 18.890625 
L 12.984375 20.0625 
Q 14.5 12.59375 18.140625 9.296875 
Q 21.78125 6 27 6 
Q 33.203125 6 37.46875 10.296875 
Q 41.75 14.59375 41.75 20.953125 
Q 41.75 27 37.796875 30.921875 
Q 33.84375 34.859375 27.734375 34.859375 
Q 25.25 34.859375 21.53125 33.890625 
L 22.515625 41.609375 
Q 23.390625 41.5 23.921875 41.5 
Q 29.546875 41.5 34.03125 44.421875 
Q 38.53125 47.359375 38.53125 53.46875 
Q 38.53125 58.296875 35.25 61.46875 
Q 31.984375 64.65625 26.8125 64.65625 
Q 21.6875 64.65625 18.265625 61.421875 
Q 14.84375 58.203125 13.875 51.765625 
L 5.078125 53.328125 
Q 6.6875 62.15625 12.390625 67.015625 
Q 18.109375 71.875 26.609375 71.875 
Q 32.46875 71.875 37.390625 69.359375 
Q 42.328125 66.84375 44.9375 62.5 
Q 47.5625 58.15625 47.5625 53.265625 
Q 47.5625 48.640625 45.0625 44.828125 
Q 42.578125 41.015625 37.703125 38.765625 
Q 44.046875 37.3125 47.5625 32.6875 
Q 51.078125 28.078125 51.078125 21.140625 
Q 51.078125 11.765625 44.234375 5.25 
Q 37.40625 -1.265625 26.953125 -1.265625 
Q 17.53125 -1.265625 11.296875 4.34375 
Q 5.078125 9.96875 4.203125 18.890625 
z
" id="ArialMT-51"/>
      </defs>
      <g style="fill:#262626;" transform="translate(97.590568 415.021875)rotate(-90)scale(0.1 -0.1)">
       <use xlink:href="#ArialMT-74"/>
       <use x="50" xlink:href="#ArialMT-97"/>
       <use x="105.615234" xlink:href="#ArialMT-110"/>
       <use x="161.230469" xlink:href="#ArialMT-32"/>
       <use x="189.013672" xlink:href="#ArialMT-50"/>
       <use x="244.628906" xlink:href="#ArialMT-51"/>
      </g>
     </g>
    </g>
    <g id="xtick_5">
     <g id="line2d_5">
      <path clip-path="url(#p3c9bfa5a2e)" d="M 101.791669 378 
L 101.791669 51.84 
" style="fill:none;stroke:#ffffff;stroke-linecap:round;stroke-width:0.8;"/>
     </g>
     <g id="text_5">
      <!-- Jan 24 -->
      <defs>
       <path d="M 32.328125 0 
L 32.328125 17.140625 
L 1.265625 17.140625 
L 1.265625 25.203125 
L 33.9375 71.578125 
L 41.109375 71.578125 
L 41.109375 25.203125 
L 50.78125 25.203125 
L 50.78125 17.140625 
L 41.109375 17.140625 
L 41.109375 0 
z
M 32.328125 25.203125 
L 32.328125 57.46875 
L 9.90625 25.203125 
z
" id="ArialMT-52"/>
      </defs>
      <g style="fill:#262626;" transform="translate(104.376825 415.021875)rotate(-90)scale(0.1 -0.1)">
       <use xlink:href="#ArialMT-74"/>
       <use x="50" xlink:href="#ArialMT-97"/>
       <use x="105.615234" xlink:href="#ArialMT-110"/>
       <use x="161.230469" xlink:href="#ArialMT-32"/>
       <use x="189.013672" xlink:href="#ArialMT-50"/>
       <use x="244.628906" xlink:href="#ArialMT-52"/>
      </g>
     </g>
    </g>
    <g id="xtick_6">
     <g id="line2d_6">
      <path clip-path="url(#p3c9bfa5a2e)" d="M 108.577926 378 
L 108.577926 51.84 
" style="fill:none;stroke:#ffffff;stroke-linecap:round;stroke-width:0.8;"/>
     </g>
     <g id="text_6">
      <!-- Jan 25 -->
      <defs>
       <path d="M 4.15625 18.75 
L 13.375 19.53125 
Q 14.40625 12.796875 18.140625 9.390625 
Q 21.875 6 27.15625 6 
Q 33.5 6 37.890625 10.78125 
Q 42.28125 15.578125 42.28125 23.484375 
Q 42.28125 31 38.0625 35.34375 
Q 33.84375 39.703125 27 39.703125 
Q 22.75 39.703125 19.328125 37.765625 
Q 15.921875 35.84375 13.96875 32.765625 
L 5.71875 33.84375 
L 12.640625 70.609375 
L 48.25 70.609375 
L 48.25 62.203125 
L 19.671875 62.203125 
L 15.828125 42.96875 
Q 22.265625 47.46875 29.34375 47.46875 
Q 38.71875 47.46875 45.15625 40.96875 
Q 51.609375 34.46875 51.609375 24.265625 
Q 51.609375 14.546875 45.953125 7.46875 
Q 39.0625 -1.21875 27.15625 -1.21875 
Q 17.390625 -1.21875 11.203125 4.25 
Q 5.03125 9.71875 4.15625 18.75 
z
" id="ArialMT-53"/>
      </defs>
      <g style="fill:#262626;" transform="translate(111.163083 415.021875)rotate(-90)scale(0.1 -0.1)">
       <use xlink:href="#ArialMT-74"/>
       <use x="50" xlink:href="#ArialMT-97"/>
       <use x="105.615234" xlink:href="#ArialMT-110"/>
       <use x="161.230469" xlink:href="#ArialMT-32"/>
       <use x="189.013672" xlink:href="#ArialMT-50"/>
       <use x="244.628906" xlink:href="#ArialMT-53"/>
      </g>
     </g>
    </g>
    <g id="xtick_7">
     <g id="line2d_7">
      <path clip-path="url(#p3c9bfa5a2e)" d="M 115.364184 378 
L 115.364184 51.84 
" style="fill:none;stroke:#ffffff;stroke-linecap:round;stroke-width:0.8;"/>
     </g>
     <g id="text_7">
      <!-- Jan 26 -->
      <defs>
       <path d="M 49.75 54.046875 
L 41.015625 53.375 
Q 39.84375 58.546875 37.703125 60.890625 
Q 34.125 64.65625 28.90625 64.65625 
Q 24.703125 64.65625 21.53125 62.3125 
Q 17.390625 59.28125 14.984375 53.46875 
Q 12.59375 47.65625 12.5 36.921875 
Q 15.671875 41.75 20.265625 44.09375 
Q 24.859375 46.4375 29.890625 46.4375 
Q 38.671875 46.4375 44.84375 39.96875 
Q 51.03125 33.5 51.03125 23.25 
Q 51.03125 16.5 48.125 10.71875 
Q 45.21875 4.9375 40.140625 1.859375 
Q 35.0625 -1.21875 28.609375 -1.21875 
Q 17.625 -1.21875 10.6875 6.859375 
Q 3.765625 14.9375 3.765625 33.5 
Q 3.765625 54.25 11.421875 63.671875 
Q 18.109375 71.875 29.4375 71.875 
Q 37.890625 71.875 43.28125 67.140625 
Q 48.6875 62.40625 49.75 54.046875 
z
M 13.875 23.1875 
Q 13.875 18.65625 15.796875 14.5 
Q 17.71875 10.359375 21.1875 8.171875 
Q 24.65625 6 28.46875 6 
Q 34.03125 6 38.03125 10.484375 
Q 42.046875 14.984375 42.046875 22.703125 
Q 42.046875 30.125 38.078125 34.390625 
Q 34.125 38.671875 28.125 38.671875 
Q 22.171875 38.671875 18.015625 34.390625 
Q 13.875 30.125 13.875 23.1875 
z
" id="ArialMT-54"/>
      </defs>
      <g style="fill:#262626;" transform="translate(117.94934 415.021875)rotate(-90)scale(0.1 -0.1)">
       <use xlink:href="#ArialMT-74"/>
       <use x="50" xlink:href="#ArialMT-97"/>
       <use x="105.615234" xlink:href="#ArialMT-110"/>
       <use x="161.230469" xlink:href="#ArialMT-32"/>
       <use x="189.013672" xlink:href="#ArialMT-50"/>
       <use x="244.628906" xlink:href="#ArialMT-54"/>
      </g>
     </g>
    </g>
    <g id="xtick_8">
     <g id="line2d_8">
      <path clip-path="url(#p3c9bfa5a2e)" d="M 122.150441 378 
L 122.150441 51.84 
" style="fill:none;stroke:#ffffff;stroke-linecap:round;stroke-width:0.8;"/>
     </g>
     <g id="text_8">
      <!-- Jan 27 -->
      <defs>
       <path d="M 4.734375 62.203125 
L 4.734375 70.65625 
L 51.078125 70.65625 
L 51.078125 63.8125 
Q 44.234375 56.546875 37.515625 44.484375 
Q 30.8125 32.421875 27.15625 19.671875 
Q 24.515625 10.6875 23.78125 0 
L 14.75 0 
Q 14.890625 8.453125 18.0625 20.40625 
Q 21.234375 32.375 27.171875 43.484375 
Q 33.109375 54.59375 39.796875 62.203125 
z
" id="ArialMT-55"/>
      </defs>
      <g style="fill:#262626;" transform="translate(124.735597 415.021875)rotate(-90)scale(0.1 -0.1)">
       <use xlink:href="#ArialMT-74"/>
       <use x="50" xlink:href="#ArialMT-97"/>
       <use x="105.615234" xlink:href="#ArialMT-110"/>
       <use x="161.230469" xlink:href="#ArialMT-32"/>
       <use x="189.013672" xlink:href="#ArialMT-50"/>
       <use x="244.628906" xlink:href="#ArialMT-55"/>
      </g>
     </g>
    </g>
    <g id="xtick_9">
     <g id="line2d_9">
      <path clip-path="url(#p3c9bfa5a2e)" d="M 128.936698 378 
L 128.936698 51.84 
" style="fill:none;stroke:#ffffff;stroke-linecap:round;stroke-width:0.8;"/>
     </g>
     <g id="text_9">
      <!-- Jan 28 -->
      <defs>
       <path d="M 17.671875 38.8125 
Q 12.203125 40.828125 9.5625 44.53125 
Q 6.9375 48.25 6.9375 53.421875 
Q 6.9375 61.234375 12.546875 66.546875 
Q 18.171875 71.875 27.484375 71.875 
Q 36.859375 71.875 42.578125 66.421875 
Q 48.296875 60.984375 48.296875 53.171875 
Q 48.296875 48.1875 45.671875 44.5 
Q 43.0625 40.828125 37.75 38.8125 
Q 44.34375 36.671875 47.78125 31.875 
Q 51.21875 27.09375 51.21875 20.453125 
Q 51.21875 11.28125 44.71875 5.03125 
Q 38.234375 -1.21875 27.640625 -1.21875 
Q 17.046875 -1.21875 10.546875 5.046875 
Q 4.046875 11.328125 4.046875 20.703125 
Q 4.046875 27.6875 7.59375 32.390625 
Q 11.140625 37.109375 17.671875 38.8125 
z
M 15.921875 53.71875 
Q 15.921875 48.640625 19.1875 45.40625 
Q 22.46875 42.1875 27.6875 42.1875 
Q 32.765625 42.1875 36.015625 45.375 
Q 39.265625 48.578125 39.265625 53.21875 
Q 39.265625 58.0625 35.90625 61.359375 
Q 32.5625 64.65625 27.59375 64.65625 
Q 22.5625 64.65625 19.234375 61.421875 
Q 15.921875 58.203125 15.921875 53.71875 
z
M 13.09375 20.65625 
Q 13.09375 16.890625 14.875 13.375 
Q 16.65625 9.859375 20.171875 7.921875 
Q 23.6875 6 27.734375 6 
Q 34.03125 6 38.125 10.046875 
Q 42.234375 14.109375 42.234375 20.359375 
Q 42.234375 26.703125 38.015625 30.859375 
Q 33.796875 35.015625 27.4375 35.015625 
Q 21.234375 35.015625 17.15625 30.90625 
Q 13.09375 26.8125 13.09375 20.65625 
z
" id="ArialMT-56"/>
      </defs>
      <g style="fill:#262626;" transform="translate(131.521854 415.021875)rotate(-90)scale(0.1 -0.1)">
       <use xlink:href="#ArialMT-74"/>
       <use x="50" xlink:href="#ArialMT-97"/>
       <use x="105.615234" xlink:href="#ArialMT-110"/>
       <use x="161.230469" xlink:href="#ArialMT-32"/>
       <use x="189.013672" xlink:href="#ArialMT-50"/>
       <use x="244.628906" xlink:href="#ArialMT-56"/>
      </g>
     </g>
    </g>
    <g id="xtick_10">
     <g id="line2d_10">
      <path clip-path="url(#p3c9bfa5a2e)" d="M 135.722955 378 
L 135.722955 51.84 
" style="fill:none;stroke:#ffffff;stroke-linecap:round;stroke-width:0.8;"/>
     </g>
     <g id="text_10">
      <!-- Jan 29 -->
      <defs>
       <path d="M 5.46875 16.546875 
L 13.921875 17.328125 
Q 14.984375 11.375 18.015625 8.6875 
Q 21.046875 6 25.78125 6 
Q 29.828125 6 32.875 7.859375 
Q 35.9375 9.71875 37.890625 12.8125 
Q 39.84375 15.921875 41.15625 21.1875 
Q 42.484375 26.46875 42.484375 31.9375 
Q 42.484375 32.515625 42.4375 33.6875 
Q 39.796875 29.5 35.234375 26.875 
Q 30.671875 24.265625 25.34375 24.265625 
Q 16.453125 24.265625 10.296875 30.703125 
Q 4.15625 37.15625 4.15625 47.703125 
Q 4.15625 58.59375 10.578125 65.234375 
Q 17 71.875 26.65625 71.875 
Q 33.640625 71.875 39.421875 68.109375 
Q 45.21875 64.359375 48.21875 57.390625 
Q 51.21875 50.4375 51.21875 37.25 
Q 51.21875 23.53125 48.234375 15.40625 
Q 45.265625 7.28125 39.375 3.03125 
Q 33.5 -1.21875 25.59375 -1.21875 
Q 17.1875 -1.21875 11.859375 3.4375 
Q 6.546875 8.109375 5.46875 16.546875 
z
M 41.453125 48.140625 
Q 41.453125 55.71875 37.421875 60.15625 
Q 33.40625 64.59375 27.734375 64.59375 
Q 21.875 64.59375 17.53125 59.8125 
Q 13.1875 55.03125 13.1875 47.40625 
Q 13.1875 40.578125 17.3125 36.296875 
Q 21.4375 32.03125 27.484375 32.03125 
Q 33.59375 32.03125 37.515625 36.296875 
Q 41.453125 40.578125 41.453125 48.140625 
z
" id="ArialMT-57"/>
      </defs>
      <g style="fill:#262626;" transform="translate(138.308112 415.021875)rotate(-90)scale(0.1 -0.1)">
       <use xlink:href="#ArialMT-74"/>
       <use x="50" xlink:href="#ArialMT-97"/>
       <use x="105.615234" xlink:href="#ArialMT-110"/>
       <use x="161.230469" xlink:href="#ArialMT-32"/>
       <use x="189.013672" xlink:href="#ArialMT-50"/>
       <use x="244.628906" xlink:href="#ArialMT-57"/>
      </g>
     </g>
    </g>
    <g id="xtick_11">
     <g id="line2d_11">
      <path clip-path="url(#p3c9bfa5a2e)" d="M 142.509213 378 
L 142.509213 51.84 
" style="fill:none;stroke:#ffffff;stroke-linecap:round;stroke-width:0.8;"/>
     </g>
     <g id="text_11">
      <!-- Jan 30 -->
      <g style="fill:#262626;" transform="translate(145.094369 415.021875)rotate(-90)scale(0.1 -0.1)">
       <use xlink:href="#ArialMT-74"/>
       <use x="50" xlink:href="#ArialMT-97"/>
       <use x="105.615234" xlink:href="#ArialMT-110"/>
       <use x="161.230469" xlink:href="#ArialMT-32"/>
       <use x="189.013672" xlink:href="#ArialMT-51"/>
       <use x="244.628906" xlink:href="#ArialMT-48"/>
      </g>
     </g>
    </g>
    <g id="xtick_12">
     <g id="line2d_12">
      <path clip-path="url(#p3c9bfa5a2e)" d="M 149.29547 378 
L 149.29547 51.84 
" style="fill:none;stroke:#ffffff;stroke-linecap:round;stroke-width:0.8;"/>
     </g>
     <g id="text_12">
      <!-- Jan 31 -->
      <g style="fill:#262626;" transform="translate(151.880626 415.021875)rotate(-90)scale(0.1 -0.1)">
       <use xlink:href="#ArialMT-74"/>
       <use x="50" xlink:href="#ArialMT-97"/>
       <use x="105.615234" xlink:href="#ArialMT-110"/>
       <use x="161.230469" xlink:href="#ArialMT-32"/>
       <use x="189.013672" xlink:href="#ArialMT-51"/>
       <use x="244.628906" xlink:href="#ArialMT-49"/>
      </g>
     </g>
    </g>
    <g id="xtick_13">
     <g id="line2d_13">
      <path clip-path="url(#p3c9bfa5a2e)" d="M 156.081727 378 
L 156.081727 51.84 
" style="fill:none;stroke:#ffffff;stroke-linecap:round;stroke-width:0.8;"/>
     </g>
     <g id="text_13">
      <!-- Feb 01 -->
      <defs>
       <path d="M 8.203125 0 
L 8.203125 71.578125 
L 56.5 71.578125 
L 56.5 63.140625 
L 17.671875 63.140625 
L 17.671875 40.96875 
L 51.265625 40.96875 
L 51.265625 32.515625 
L 17.671875 32.515625 
L 17.671875 0 
z
" id="ArialMT-70"/>
       <path d="M 42.09375 16.703125 
L 51.171875 15.578125 
Q 49.03125 7.625 43.21875 3.21875 
Q 37.40625 -1.171875 28.375 -1.171875 
Q 17 -1.171875 10.328125 5.828125 
Q 3.65625 12.84375 3.65625 25.484375 
Q 3.65625 38.578125 10.390625 45.796875 
Q 17.140625 53.03125 27.875 53.03125 
Q 38.28125 53.03125 44.875 45.953125 
Q 51.46875 38.875 51.46875 26.03125 
Q 51.46875 25.25 51.421875 23.6875 
L 12.75 23.6875 
Q 13.234375 15.140625 17.578125 10.59375 
Q 21.921875 6.0625 28.421875 6.0625 
Q 33.25 6.0625 36.671875 8.59375 
Q 40.09375 11.140625 42.09375 16.703125 
z
M 13.234375 30.90625 
L 42.1875 30.90625 
Q 41.609375 37.453125 38.875 40.71875 
Q 34.671875 45.796875 27.984375 45.796875 
Q 21.921875 45.796875 17.796875 41.75 
Q 13.671875 37.703125 13.234375 30.90625 
z
" id="ArialMT-101"/>
       <path d="M 14.703125 0 
L 6.546875 0 
L 6.546875 71.578125 
L 15.328125 71.578125 
L 15.328125 46.046875 
Q 20.90625 53.03125 29.546875 53.03125 
Q 34.328125 53.03125 38.59375 51.09375 
Q 42.875 49.171875 45.625 45.671875 
Q 48.390625 42.1875 49.953125 37.25 
Q 51.515625 32.328125 51.515625 26.703125 
Q 51.515625 13.375 44.921875 6.09375 
Q 38.328125 -1.171875 29.109375 -1.171875 
Q 19.921875 -1.171875 14.703125 6.5 
z
M 14.59375 26.3125 
Q 14.59375 17 17.140625 12.84375 
Q 21.296875 6.0625 28.375 6.0625 
Q 34.125 6.0625 38.328125 11.0625 
Q 42.53125 16.0625 42.53125 25.984375 
Q 42.53125 36.140625 38.5 40.96875 
Q 34.46875 45.796875 28.765625 45.796875 
Q 23 45.796875 18.796875 40.796875 
Q 14.59375 35.796875 14.59375 26.3125 
z
" id="ArialMT-98"/>
      </defs>
      <g style="fill:#262626;" transform="translate(158.666883 416.129687)rotate(-90)scale(0.1 -0.1)">
       <use xlink:href="#ArialMT-70"/>
       <use x="61.083984" xlink:href="#ArialMT-101"/>
       <use x="116.699219" xlink:href="#ArialMT-98"/>
       <use x="172.314453" xlink:href="#ArialMT-32"/>
       <use x="200.097656" xlink:href="#ArialMT-48"/>
       <use x="255.712891" xlink:href="#ArialMT-49"/>
      </g>
     </g>
    </g>
    <g id="xtick_14">
     <g id="line2d_14">
      <path clip-path="url(#p3c9bfa5a2e)" d="M 162.867984 378 
L 162.867984 51.84 
" style="fill:none;stroke:#ffffff;stroke-linecap:round;stroke-width:0.8;"/>
     </g>
     <g id="text_14">
      <!-- Feb 02 -->
      <g style="fill:#262626;" transform="translate(165.45314 416.129687)rotate(-90)scale(0.1 -0.1)">
       <use xlink:href="#ArialMT-70"/>
       <use x="61.083984" xlink:href="#ArialMT-101"/>
       <use x="116.699219" xlink:href="#ArialMT-98"/>
       <use x="172.314453" xlink:href="#ArialMT-32"/>
       <use x="200.097656" xlink:href="#ArialMT-48"/>
       <use x="255.712891" xlink:href="#ArialMT-50"/>
      </g>
     </g>
    </g>
    <g id="xtick_15">
     <g id="line2d_15">
      <path clip-path="url(#p3c9bfa5a2e)" d="M 169.654241 378 
L 169.654241 51.84 
" style="fill:none;stroke:#ffffff;stroke-linecap:round;stroke-width:0.8;"/>
     </g>
     <g id="text_15">
      <!-- Feb 03 -->
      <g style="fill:#262626;" transform="translate(172.239398 416.129687)rotate(-90)scale(0.1 -0.1)">
       <use xlink:href="#ArialMT-70"/>
       <use x="61.083984" xlink:href="#ArialMT-101"/>
       <use x="116.699219" xlink:href="#ArialMT-98"/>
       <use x="172.314453" xlink:href="#ArialMT-32"/>
       <use x="200.097656" xlink:href="#ArialMT-48"/>
       <use x="255.712891" xlink:href="#ArialMT-51"/>
      </g>
     </g>
    </g>
    <g id="xtick_16">
     <g id="line2d_16">
      <path clip-path="url(#p3c9bfa5a2e)" d="M 176.440499 378 
L 176.440499 51.84 
" style="fill:none;stroke:#ffffff;stroke-linecap:round;stroke-width:0.8;"/>
     </g>
     <g id="text_16">
      <!-- Feb 04 -->
      <g style="fill:#262626;" transform="translate(179.025655 416.129687)rotate(-90)scale(0.1 -0.1)">
       <use xlink:href="#ArialMT-70"/>
       <use x="61.083984" xlink:href="#ArialMT-101"/>
       <use x="116.699219" xlink:href="#ArialMT-98"/>
       <use x="172.314453" xlink:href="#ArialMT-32"/>
       <use x="200.097656" xlink:href="#ArialMT-48"/>
       <use x="255.712891" xlink:href="#ArialMT-52"/>
      </g>
     </g>
    </g>
    <g id="xtick_17">
     <g id="line2d_17">
      <path clip-path="url(#p3c9bfa5a2e)" d="M 183.226756 378 
L 183.226756 51.84 
" style="fill:none;stroke:#ffffff;stroke-linecap:round;stroke-width:0.8;"/>
     </g>
     <g id="text_17">
      <!-- Feb 05 -->
      <g style="fill:#262626;" transform="translate(185.811912 416.129687)rotate(-90)scale(0.1 -0.1)">
       <use xlink:href="#ArialMT-70"/>
       <use x="61.083984" xlink:href="#ArialMT-101"/>
       <use x="116.699219" xlink:href="#ArialMT-98"/>
       <use x="172.314453" xlink:href="#ArialMT-32"/>
       <use x="200.097656" xlink:href="#ArialMT-48"/>
       <use x="255.712891" xlink:href="#ArialMT-53"/>
      </g>
     </g>
    </g>
    <g id="xtick_18">
     <g id="line2d_18">
      <path clip-path="url(#p3c9bfa5a2e)" d="M 190.013013 378 
L 190.013013 51.84 
" style="fill:none;stroke:#ffffff;stroke-linecap:round;stroke-width:0.8;"/>
     </g>
     <g id="text_18">
      <!-- Feb 06 -->
      <g style="fill:#262626;" transform="translate(192.598169 416.129687)rotate(-90)scale(0.1 -0.1)">
       <use xlink:href="#ArialMT-70"/>
       <use x="61.083984" xlink:href="#ArialMT-101"/>
       <use x="116.699219" xlink:href="#ArialMT-98"/>
       <use x="172.314453" xlink:href="#ArialMT-32"/>
       <use x="200.097656" xlink:href="#ArialMT-48"/>
       <use x="255.712891" xlink:href="#ArialMT-54"/>
      </g>
     </g>
    </g>
    <g id="xtick_19">
     <g id="line2d_19">
      <path clip-path="url(#p3c9bfa5a2e)" d="M 196.79927 378 
L 196.79927 51.84 
" style="fill:none;stroke:#ffffff;stroke-linecap:round;stroke-width:0.8;"/>
     </g>
     <g id="text_19">
      <!-- Feb 07 -->
      <g style="fill:#262626;" transform="translate(199.384427 416.129687)rotate(-90)scale(0.1 -0.1)">
       <use xlink:href="#ArialMT-70"/>
       <use x="61.083984" xlink:href="#ArialMT-101"/>
       <use x="116.699219" xlink:href="#ArialMT-98"/>
       <use x="172.314453" xlink:href="#ArialMT-32"/>
       <use x="200.097656" xlink:href="#ArialMT-48"/>
       <use x="255.712891" xlink:href="#ArialMT-55"/>
      </g>
     </g>
    </g>
    <g id="xtick_20">
     <g id="line2d_20">
      <path clip-path="url(#p3c9bfa5a2e)" d="M 203.585528 378 
L 203.585528 51.84 
" style="fill:none;stroke:#ffffff;stroke-linecap:round;stroke-width:0.8;"/>
     </g>
     <g id="text_20">
      <!-- Feb 08 -->
      <g style="fill:#262626;" transform="translate(206.170684 416.129687)rotate(-90)scale(0.1 -0.1)">
       <use xlink:href="#ArialMT-70"/>
       <use x="61.083984" xlink:href="#ArialMT-101"/>
       <use x="116.699219" xlink:href="#ArialMT-98"/>
       <use x="172.314453" xlink:href="#ArialMT-32"/>
       <use x="200.097656" xlink:href="#ArialMT-48"/>
       <use x="255.712891" xlink:href="#ArialMT-56"/>
      </g>
     </g>
    </g>
    <g id="xtick_21">
     <g id="line2d_21">
      <path clip-path="url(#p3c9bfa5a2e)" d="M 210.371785 378 
L 210.371785 51.84 
" style="fill:none;stroke:#ffffff;stroke-linecap:round;stroke-width:0.8;"/>
     </g>
     <g id="text_21">
      <!-- Feb 09 -->
      <g style="fill:#262626;" transform="translate(212.956941 416.129687)rotate(-90)scale(0.1 -0.1)">
       <use xlink:href="#ArialMT-70"/>
       <use x="61.083984" xlink:href="#ArialMT-101"/>
       <use x="116.699219" xlink:href="#ArialMT-98"/>
       <use x="172.314453" xlink:href="#ArialMT-32"/>
       <use x="200.097656" xlink:href="#ArialMT-48"/>
       <use x="255.712891" xlink:href="#ArialMT-57"/>
      </g>
     </g>
    </g>
    <g id="xtick_22">
     <g id="line2d_22">
      <path clip-path="url(#p3c9bfa5a2e)" d="M 217.158042 378 
L 217.158042 51.84 
" style="fill:none;stroke:#ffffff;stroke-linecap:round;stroke-width:0.8;"/>
     </g>
     <g id="text_22">
      <!-- Feb 10 -->
      <g style="fill:#262626;" transform="translate(219.743198 416.129687)rotate(-90)scale(0.1 -0.1)">
       <use xlink:href="#ArialMT-70"/>
       <use x="61.083984" xlink:href="#ArialMT-101"/>
       <use x="116.699219" xlink:href="#ArialMT-98"/>
       <use x="172.314453" xlink:href="#ArialMT-32"/>
       <use x="200.097656" xlink:href="#ArialMT-49"/>
       <use x="255.712891" xlink:href="#ArialMT-48"/>
      </g>
     </g>
    </g>
    <g id="xtick_23">
     <g id="line2d_23">
      <path clip-path="url(#p3c9bfa5a2e)" d="M 223.944299 378 
L 223.944299 51.84 
" style="fill:none;stroke:#ffffff;stroke-linecap:round;stroke-width:0.8;"/>
     </g>
     <g id="text_23">
      <!-- Feb 11 -->
      <g style="fill:#262626;" transform="translate(226.529455 416.11875)rotate(-90)scale(0.1 -0.1)">
       <use xlink:href="#ArialMT-70"/>
       <use x="61.083984" xlink:href="#ArialMT-101"/>
       <use x="116.699219" xlink:href="#ArialMT-98"/>
       <use x="172.314453" xlink:href="#ArialMT-32"/>
       <use x="200.097656" xlink:href="#ArialMT-49"/>
       <use x="255.603516" xlink:href="#ArialMT-49"/>
      </g>
     </g>
    </g>
    <g id="xtick_24">
     <g id="line2d_24">
      <path clip-path="url(#p3c9bfa5a2e)" d="M 230.730556 378 
L 230.730556 51.84 
" style="fill:none;stroke:#ffffff;stroke-linecap:round;stroke-width:0.8;"/>
     </g>
     <g id="text_24">
      <!-- Feb 12 -->
      <g style="fill:#262626;" transform="translate(233.315713 416.129687)rotate(-90)scale(0.1 -0.1)">
       <use xlink:href="#ArialMT-70"/>
       <use x="61.083984" xlink:href="#ArialMT-101"/>
       <use x="116.699219" xlink:href="#ArialMT-98"/>
       <use x="172.314453" xlink:href="#ArialMT-32"/>
       <use x="200.097656" xlink:href="#ArialMT-49"/>
       <use x="255.712891" xlink:href="#ArialMT-50"/>
      </g>
     </g>
    </g>
    <g id="xtick_25">
     <g id="line2d_25">
      <path clip-path="url(#p3c9bfa5a2e)" d="M 237.516814 378 
L 237.516814 51.84 
" style="fill:none;stroke:#ffffff;stroke-linecap:round;stroke-width:0.8;"/>
     </g>
     <g id="text_25">
      <!-- Feb 13 -->
      <g style="fill:#262626;" transform="translate(240.10197 416.129687)rotate(-90)scale(0.1 -0.1)">
       <use xlink:href="#ArialMT-70"/>
       <use x="61.083984" xlink:href="#ArialMT-101"/>
       <use x="116.699219" xlink:href="#ArialMT-98"/>
       <use x="172.314453" xlink:href="#ArialMT-32"/>
       <use x="200.097656" xlink:href="#ArialMT-49"/>
       <use x="255.712891" xlink:href="#ArialMT-51"/>
      </g>
     </g>
    </g>
    <g id="xtick_26">
     <g id="line2d_26">
      <path clip-path="url(#p3c9bfa5a2e)" d="M 244.303071 378 
L 244.303071 51.84 
" style="fill:none;stroke:#ffffff;stroke-linecap:round;stroke-width:0.8;"/>
     </g>
     <g id="text_26">
      <!-- Feb 14 -->
      <g style="fill:#262626;" transform="translate(246.888227 416.129687)rotate(-90)scale(0.1 -0.1)">
       <use xlink:href="#ArialMT-70"/>
       <use x="61.083984" xlink:href="#ArialMT-101"/>
       <use x="116.699219" xlink:href="#ArialMT-98"/>
       <use x="172.314453" xlink:href="#ArialMT-32"/>
       <use x="200.097656" xlink:href="#ArialMT-49"/>
       <use x="255.712891" xlink:href="#ArialMT-52"/>
      </g>
     </g>
    </g>
    <g id="xtick_27">
     <g id="line2d_27">
      <path clip-path="url(#p3c9bfa5a2e)" d="M 251.089328 378 
L 251.089328 51.84 
" style="fill:none;stroke:#ffffff;stroke-linecap:round;stroke-width:0.8;"/>
     </g>
     <g id="text_27">
      <!-- Feb 15 -->
      <g style="fill:#262626;" transform="translate(253.674484 416.129687)rotate(-90)scale(0.1 -0.1)">
       <use xlink:href="#ArialMT-70"/>
       <use x="61.083984" xlink:href="#ArialMT-101"/>
       <use x="116.699219" xlink:href="#ArialMT-98"/>
       <use x="172.314453" xlink:href="#ArialMT-32"/>
       <use x="200.097656" xlink:href="#ArialMT-49"/>
       <use x="255.712891" xlink:href="#ArialMT-53"/>
      </g>
     </g>
    </g>
    <g id="xtick_28">
     <g id="line2d_28">
      <path clip-path="url(#p3c9bfa5a2e)" d="M 257.875585 378 
L 257.875585 51.84 
" style="fill:none;stroke:#ffffff;stroke-linecap:round;stroke-width:0.8;"/>
     </g>
     <g id="text_28">
      <!-- Feb 16 -->
      <g style="fill:#262626;" transform="translate(260.460742 416.129687)rotate(-90)scale(0.1 -0.1)">
       <use xlink:href="#ArialMT-70"/>
       <use x="61.083984" xlink:href="#ArialMT-101"/>
       <use x="116.699219" xlink:href="#ArialMT-98"/>
       <use x="172.314453" xlink:href="#ArialMT-32"/>
       <use x="200.097656" xlink:href="#ArialMT-49"/>
       <use x="255.712891" xlink:href="#ArialMT-54"/>
      </g>
     </g>
    </g>
    <g id="xtick_29">
     <g id="line2d_29">
      <path clip-path="url(#p3c9bfa5a2e)" d="M 264.661843 378 
L 264.661843 51.84 
" style="fill:none;stroke:#ffffff;stroke-linecap:round;stroke-width:0.8;"/>
     </g>
     <g id="text_29">
      <!-- Feb 17 -->
      <g style="fill:#262626;" transform="translate(267.246999 416.129687)rotate(-90)scale(0.1 -0.1)">
       <use xlink:href="#ArialMT-70"/>
       <use x="61.083984" xlink:href="#ArialMT-101"/>
       <use x="116.699219" xlink:href="#ArialMT-98"/>
       <use x="172.314453" xlink:href="#ArialMT-32"/>
       <use x="200.097656" xlink:href="#ArialMT-49"/>
       <use x="255.712891" xlink:href="#ArialMT-55"/>
      </g>
     </g>
    </g>
    <g id="xtick_30">
     <g id="line2d_30">
      <path clip-path="url(#p3c9bfa5a2e)" d="M 271.4481 378 
L 271.4481 51.84 
" style="fill:none;stroke:#ffffff;stroke-linecap:round;stroke-width:0.8;"/>
     </g>
     <g id="text_30">
      <!-- Feb 18 -->
      <g style="fill:#262626;" transform="translate(274.033256 416.129687)rotate(-90)scale(0.1 -0.1)">
       <use xlink:href="#ArialMT-70"/>
       <use x="61.083984" xlink:href="#ArialMT-101"/>
       <use x="116.699219" xlink:href="#ArialMT-98"/>
       <use x="172.314453" xlink:href="#ArialMT-32"/>
       <use x="200.097656" xlink:href="#ArialMT-49"/>
       <use x="255.712891" xlink:href="#ArialMT-56"/>
      </g>
     </g>
    </g>
    <g id="xtick_31">
     <g id="line2d_31">
      <path clip-path="url(#p3c9bfa5a2e)" d="M 278.234357 378 
L 278.234357 51.84 
" style="fill:none;stroke:#ffffff;stroke-linecap:round;stroke-width:0.8;"/>
     </g>
     <g id="text_31">
      <!-- Feb 19 -->
      <g style="fill:#262626;" transform="translate(280.819513 416.129687)rotate(-90)scale(0.1 -0.1)">
       <use xlink:href="#ArialMT-70"/>
       <use x="61.083984" xlink:href="#ArialMT-101"/>
       <use x="116.699219" xlink:href="#ArialMT-98"/>
       <use x="172.314453" xlink:href="#ArialMT-32"/>
       <use x="200.097656" xlink:href="#ArialMT-49"/>
       <use x="255.712891" xlink:href="#ArialMT-57"/>
      </g>
     </g>
    </g>
    <g id="xtick_32">
     <g id="line2d_32">
      <path clip-path="url(#p3c9bfa5a2e)" d="M 285.020614 378 
L 285.020614 51.84 
" style="fill:none;stroke:#ffffff;stroke-linecap:round;stroke-width:0.8;"/>
     </g>
     <g id="text_32">
      <!-- Feb 20 -->
      <g style="fill:#262626;" transform="translate(287.60577 416.129687)rotate(-90)scale(0.1 -0.1)">
       <use xlink:href="#ArialMT-70"/>
       <use x="61.083984" xlink:href="#ArialMT-101"/>
       <use x="116.699219" xlink:href="#ArialMT-98"/>
       <use x="172.314453" xlink:href="#ArialMT-32"/>
       <use x="200.097656" xlink:href="#ArialMT-50"/>
       <use x="255.712891" xlink:href="#ArialMT-48"/>
      </g>
     </g>
    </g>
    <g id="xtick_33">
     <g id="line2d_33">
      <path clip-path="url(#p3c9bfa5a2e)" d="M 291.806871 378 
L 291.806871 51.84 
" style="fill:none;stroke:#ffffff;stroke-linecap:round;stroke-width:0.8;"/>
     </g>
     <g id="text_33">
      <!-- Feb 21 -->
      <g style="fill:#262626;" transform="translate(294.392028 416.129687)rotate(-90)scale(0.1 -0.1)">
       <use xlink:href="#ArialMT-70"/>
       <use x="61.083984" xlink:href="#ArialMT-101"/>
       <use x="116.699219" xlink:href="#ArialMT-98"/>
       <use x="172.314453" xlink:href="#ArialMT-32"/>
       <use x="200.097656" xlink:href="#ArialMT-50"/>
       <use x="255.712891" xlink:href="#ArialMT-49"/>
      </g>
     </g>
    </g>
    <g id="xtick_34">
     <g id="line2d_34">
      <path clip-path="url(#p3c9bfa5a2e)" d="M 298.593129 378 
L 298.593129 51.84 
" style="fill:none;stroke:#ffffff;stroke-linecap:round;stroke-width:0.8;"/>
     </g>
     <g id="text_34">
      <!-- Feb 22 -->
      <g style="fill:#262626;" transform="translate(301.178285 416.129687)rotate(-90)scale(0.1 -0.1)">
       <use xlink:href="#ArialMT-70"/>
       <use x="61.083984" xlink:href="#ArialMT-101"/>
       <use x="116.699219" xlink:href="#ArialMT-98"/>
       <use x="172.314453" xlink:href="#ArialMT-32"/>
       <use x="200.097656" xlink:href="#ArialMT-50"/>
       <use x="255.712891" xlink:href="#ArialMT-50"/>
      </g>
     </g>
    </g>
    <g id="xtick_35">
     <g id="line2d_35">
      <path clip-path="url(#p3c9bfa5a2e)" d="M 305.379386 378 
L 305.379386 51.84 
" style="fill:none;stroke:#ffffff;stroke-linecap:round;stroke-width:0.8;"/>
     </g>
     <g id="text_35">
      <!-- Feb 23 -->
      <g style="fill:#262626;" transform="translate(307.964542 416.129687)rotate(-90)scale(0.1 -0.1)">
       <use xlink:href="#ArialMT-70"/>
       <use x="61.083984" xlink:href="#ArialMT-101"/>
       <use x="116.699219" xlink:href="#ArialMT-98"/>
       <use x="172.314453" xlink:href="#ArialMT-32"/>
       <use x="200.097656" xlink:href="#ArialMT-50"/>
       <use x="255.712891" xlink:href="#ArialMT-51"/>
      </g>
     </g>
    </g>
    <g id="xtick_36">
     <g id="line2d_36">
      <path clip-path="url(#p3c9bfa5a2e)" d="M 312.165643 378 
L 312.165643 51.84 
" style="fill:none;stroke:#ffffff;stroke-linecap:round;stroke-width:0.8;"/>
     </g>
     <g id="text_36">
      <!-- Feb 24 -->
      <g style="fill:#262626;" transform="translate(314.750799 416.129687)rotate(-90)scale(0.1 -0.1)">
       <use xlink:href="#ArialMT-70"/>
       <use x="61.083984" xlink:href="#ArialMT-101"/>
       <use x="116.699219" xlink:href="#ArialMT-98"/>
       <use x="172.314453" xlink:href="#ArialMT-32"/>
       <use x="200.097656" xlink:href="#ArialMT-50"/>
       <use x="255.712891" xlink:href="#ArialMT-52"/>
      </g>
     </g>
    </g>
    <g id="xtick_37">
     <g id="line2d_37">
      <path clip-path="url(#p3c9bfa5a2e)" d="M 318.9519 378 
L 318.9519 51.84 
" style="fill:none;stroke:#ffffff;stroke-linecap:round;stroke-width:0.8;"/>
     </g>
     <g id="text_37">
      <!-- Feb 25 -->
      <g style="fill:#262626;" transform="translate(321.537057 416.129687)rotate(-90)scale(0.1 -0.1)">
       <use xlink:href="#ArialMT-70"/>
       <use x="61.083984" xlink:href="#ArialMT-101"/>
       <use x="116.699219" xlink:href="#ArialMT-98"/>
       <use x="172.314453" xlink:href="#ArialMT-32"/>
       <use x="200.097656" xlink:href="#ArialMT-50"/>
       <use x="255.712891" xlink:href="#ArialMT-53"/>
      </g>
     </g>
    </g>
    <g id="xtick_38">
     <g id="line2d_38">
      <path clip-path="url(#p3c9bfa5a2e)" d="M 325.738157 378 
L 325.738157 51.84 
" style="fill:none;stroke:#ffffff;stroke-linecap:round;stroke-width:0.8;"/>
     </g>
     <g id="text_38">
      <!-- Feb 26 -->
      <g style="fill:#262626;" transform="translate(328.323314 416.129687)rotate(-90)scale(0.1 -0.1)">
       <use xlink:href="#ArialMT-70"/>
       <use x="61.083984" xlink:href="#ArialMT-101"/>
       <use x="116.699219" xlink:href="#ArialMT-98"/>
       <use x="172.314453" xlink:href="#ArialMT-32"/>
       <use x="200.097656" xlink:href="#ArialMT-50"/>
       <use x="255.712891" xlink:href="#ArialMT-54"/>
      </g>
     </g>
    </g>
    <g id="xtick_39">
     <g id="line2d_39">
      <path clip-path="url(#p3c9bfa5a2e)" d="M 332.524415 378 
L 332.524415 51.84 
" style="fill:none;stroke:#ffffff;stroke-linecap:round;stroke-width:0.8;"/>
     </g>
     <g id="text_39">
      <!-- Feb 27 -->
      <g style="fill:#262626;" transform="translate(335.109571 416.129687)rotate(-90)scale(0.1 -0.1)">
       <use xlink:href="#ArialMT-70"/>
       <use x="61.083984" xlink:href="#ArialMT-101"/>
       <use x="116.699219" xlink:href="#ArialMT-98"/>
       <use x="172.314453" xlink:href="#ArialMT-32"/>
       <use x="200.097656" xlink:href="#ArialMT-50"/>
       <use x="255.712891" xlink:href="#ArialMT-55"/>
      </g>
     </g>
    </g>
    <g id="xtick_40">
     <g id="line2d_40">
      <path clip-path="url(#p3c9bfa5a2e)" d="M 339.310672 378 
L 339.310672 51.84 
" style="fill:none;stroke:#ffffff;stroke-linecap:round;stroke-width:0.8;"/>
     </g>
     <g id="text_40">
      <!-- Feb 28 -->
      <g style="fill:#262626;" transform="translate(341.895828 416.129687)rotate(-90)scale(0.1 -0.1)">
       <use xlink:href="#ArialMT-70"/>
       <use x="61.083984" xlink:href="#ArialMT-101"/>
       <use x="116.699219" xlink:href="#ArialMT-98"/>
       <use x="172.314453" xlink:href="#ArialMT-32"/>
       <use x="200.097656" xlink:href="#ArialMT-50"/>
       <use x="255.712891" xlink:href="#ArialMT-56"/>
      </g>
     </g>
    </g>
    <g id="xtick_41">
     <g id="line2d_41">
      <path clip-path="url(#p3c9bfa5a2e)" d="M 346.096929 378 
L 346.096929 51.84 
" style="fill:none;stroke:#ffffff;stroke-linecap:round;stroke-width:0.8;"/>
     </g>
     <g id="text_41">
      <!-- Feb 29 -->
      <g style="fill:#262626;" transform="translate(348.682085 416.129687)rotate(-90)scale(0.1 -0.1)">
       <use xlink:href="#ArialMT-70"/>
       <use x="61.083984" xlink:href="#ArialMT-101"/>
       <use x="116.699219" xlink:href="#ArialMT-98"/>
       <use x="172.314453" xlink:href="#ArialMT-32"/>
       <use x="200.097656" xlink:href="#ArialMT-50"/>
       <use x="255.712891" xlink:href="#ArialMT-57"/>
      </g>
     </g>
    </g>
    <g id="xtick_42">
     <g id="line2d_42">
      <path clip-path="url(#p3c9bfa5a2e)" d="M 352.883186 378 
L 352.883186 51.84 
" style="fill:none;stroke:#ffffff;stroke-linecap:round;stroke-width:0.8;"/>
     </g>
     <g id="text_42">
      <!-- Mar 01 -->
      <defs>
       <path d="M 7.421875 0 
L 7.421875 71.578125 
L 21.6875 71.578125 
L 38.625 20.90625 
Q 40.96875 13.8125 42.046875 10.296875 
Q 43.265625 14.203125 45.84375 21.78125 
L 62.984375 71.578125 
L 75.734375 71.578125 
L 75.734375 0 
L 66.609375 0 
L 66.609375 59.90625 
L 45.796875 0 
L 37.25 0 
L 16.546875 60.9375 
L 16.546875 0 
z
" id="ArialMT-77"/>
       <path d="M 6.5 0 
L 6.5 51.859375 
L 14.40625 51.859375 
L 14.40625 44 
Q 17.4375 49.515625 20 51.265625 
Q 22.5625 53.03125 25.640625 53.03125 
Q 30.078125 53.03125 34.671875 50.203125 
L 31.640625 42.046875 
Q 28.421875 43.953125 25.203125 43.953125 
Q 22.3125 43.953125 20.015625 42.21875 
Q 17.71875 40.484375 16.75 37.40625 
Q 15.28125 32.71875 15.28125 27.15625 
L 15.28125 0 
z
" id="ArialMT-114"/>
      </defs>
      <g style="fill:#262626;" transform="translate(355.468343 416.120313)rotate(-90)scale(0.1 -0.1)">
       <use xlink:href="#ArialMT-77"/>
       <use x="83.300781" xlink:href="#ArialMT-97"/>
       <use x="138.916016" xlink:href="#ArialMT-114"/>
       <use x="172.216797" xlink:href="#ArialMT-32"/>
       <use x="200" xlink:href="#ArialMT-48"/>
       <use x="255.615234" xlink:href="#ArialMT-49"/>
      </g>
     </g>
    </g>
    <g id="xtick_43">
     <g id="line2d_43">
      <path clip-path="url(#p3c9bfa5a2e)" d="M 359.669444 378 
L 359.669444 51.84 
" style="fill:none;stroke:#ffffff;stroke-linecap:round;stroke-width:0.8;"/>
     </g>
     <g id="text_43">
      <!-- Mar 02 -->
      <g style="fill:#262626;" transform="translate(362.2546 416.120313)rotate(-90)scale(0.1 -0.1)">
       <use xlink:href="#ArialMT-77"/>
       <use x="83.300781" xlink:href="#ArialMT-97"/>
       <use x="138.916016" xlink:href="#ArialMT-114"/>
       <use x="172.216797" xlink:href="#ArialMT-32"/>
       <use x="200" xlink:href="#ArialMT-48"/>
       <use x="255.615234" xlink:href="#ArialMT-50"/>
      </g>
     </g>
    </g>
    <g id="xtick_44">
     <g id="line2d_44">
      <path clip-path="url(#p3c9bfa5a2e)" d="M 366.455701 378 
L 366.455701 51.84 
" style="fill:none;stroke:#ffffff;stroke-linecap:round;stroke-width:0.8;"/>
     </g>
     <g id="text_44">
      <!-- Mar 03 -->
      <g style="fill:#262626;" transform="translate(369.040857 416.120313)rotate(-90)scale(0.1 -0.1)">
       <use xlink:href="#ArialMT-77"/>
       <use x="83.300781" xlink:href="#ArialMT-97"/>
       <use x="138.916016" xlink:href="#ArialMT-114"/>
       <use x="172.216797" xlink:href="#ArialMT-32"/>
       <use x="200" xlink:href="#ArialMT-48"/>
       <use x="255.615234" xlink:href="#ArialMT-51"/>
      </g>
     </g>
    </g>
    <g id="xtick_45">
     <g id="line2d_45">
      <path clip-path="url(#p3c9bfa5a2e)" d="M 373.241958 378 
L 373.241958 51.84 
" style="fill:none;stroke:#ffffff;stroke-linecap:round;stroke-width:0.8;"/>
     </g>
     <g id="text_45">
      <!-- Mar 04 -->
      <g style="fill:#262626;" transform="translate(375.827114 416.120313)rotate(-90)scale(0.1 -0.1)">
       <use xlink:href="#ArialMT-77"/>
       <use x="83.300781" xlink:href="#ArialMT-97"/>
       <use x="138.916016" xlink:href="#ArialMT-114"/>
       <use x="172.216797" xlink:href="#ArialMT-32"/>
       <use x="200" xlink:href="#ArialMT-48"/>
       <use x="255.615234" xlink:href="#ArialMT-52"/>
      </g>
     </g>
    </g>
    <g id="xtick_46">
     <g id="line2d_46">
      <path clip-path="url(#p3c9bfa5a2e)" d="M 380.028215 378 
L 380.028215 51.84 
" style="fill:none;stroke:#ffffff;stroke-linecap:round;stroke-width:0.8;"/>
     </g>
     <g id="text_46">
      <!-- Mar 05 -->
      <g style="fill:#262626;" transform="translate(382.613372 416.120313)rotate(-90)scale(0.1 -0.1)">
       <use xlink:href="#ArialMT-77"/>
       <use x="83.300781" xlink:href="#ArialMT-97"/>
       <use x="138.916016" xlink:href="#ArialMT-114"/>
       <use x="172.216797" xlink:href="#ArialMT-32"/>
       <use x="200" xlink:href="#ArialMT-48"/>
       <use x="255.615234" xlink:href="#ArialMT-53"/>
      </g>
     </g>
    </g>
    <g id="xtick_47">
     <g id="line2d_47">
      <path clip-path="url(#p3c9bfa5a2e)" d="M 386.814472 378 
L 386.814472 51.84 
" style="fill:none;stroke:#ffffff;stroke-linecap:round;stroke-width:0.8;"/>
     </g>
     <g id="text_47">
      <!-- Mar 06 -->
      <g style="fill:#262626;" transform="translate(389.399629 416.120313)rotate(-90)scale(0.1 -0.1)">
       <use xlink:href="#ArialMT-77"/>
       <use x="83.300781" xlink:href="#ArialMT-97"/>
       <use x="138.916016" xlink:href="#ArialMT-114"/>
       <use x="172.216797" xlink:href="#ArialMT-32"/>
       <use x="200" xlink:href="#ArialMT-48"/>
       <use x="255.615234" xlink:href="#ArialMT-54"/>
      </g>
     </g>
    </g>
    <g id="xtick_48">
     <g id="line2d_48">
      <path clip-path="url(#p3c9bfa5a2e)" d="M 393.60073 378 
L 393.60073 51.84 
" style="fill:none;stroke:#ffffff;stroke-linecap:round;stroke-width:0.8;"/>
     </g>
     <g id="text_48">
      <!-- Mar 07 -->
      <g style="fill:#262626;" transform="translate(396.185886 416.120313)rotate(-90)scale(0.1 -0.1)">
       <use xlink:href="#ArialMT-77"/>
       <use x="83.300781" xlink:href="#ArialMT-97"/>
       <use x="138.916016" xlink:href="#ArialMT-114"/>
       <use x="172.216797" xlink:href="#ArialMT-32"/>
       <use x="200" xlink:href="#ArialMT-48"/>
       <use x="255.615234" xlink:href="#ArialMT-55"/>
      </g>
     </g>
    </g>
    <g id="xtick_49">
     <g id="line2d_49">
      <path clip-path="url(#p3c9bfa5a2e)" d="M 400.386987 378 
L 400.386987 51.84 
" style="fill:none;stroke:#ffffff;stroke-linecap:round;stroke-width:0.8;"/>
     </g>
     <g id="text_49">
      <!-- Mar 08 -->
      <g style="fill:#262626;" transform="translate(402.972143 416.120313)rotate(-90)scale(0.1 -0.1)">
       <use xlink:href="#ArialMT-77"/>
       <use x="83.300781" xlink:href="#ArialMT-97"/>
       <use x="138.916016" xlink:href="#ArialMT-114"/>
       <use x="172.216797" xlink:href="#ArialMT-32"/>
       <use x="200" xlink:href="#ArialMT-48"/>
       <use x="255.615234" xlink:href="#ArialMT-56"/>
      </g>
     </g>
    </g>
    <g id="xtick_50">
     <g id="line2d_50">
      <path clip-path="url(#p3c9bfa5a2e)" d="M 407.173244 378 
L 407.173244 51.84 
" style="fill:none;stroke:#ffffff;stroke-linecap:round;stroke-width:0.8;"/>
     </g>
     <g id="text_50">
      <!-- Mar 09 -->
      <g style="fill:#262626;" transform="translate(409.7584 416.120313)rotate(-90)scale(0.1 -0.1)">
       <use xlink:href="#ArialMT-77"/>
       <use x="83.300781" xlink:href="#ArialMT-97"/>
       <use x="138.916016" xlink:href="#ArialMT-114"/>
       <use x="172.216797" xlink:href="#ArialMT-32"/>
       <use x="200" xlink:href="#ArialMT-48"/>
       <use x="255.615234" xlink:href="#ArialMT-57"/>
      </g>
     </g>
    </g>
    <g id="xtick_51">
     <g id="line2d_51">
      <path clip-path="url(#p3c9bfa5a2e)" d="M 413.959501 378 
L 413.959501 51.84 
" style="fill:none;stroke:#ffffff;stroke-linecap:round;stroke-width:0.8;"/>
     </g>
     <g id="text_51">
      <!-- Mar 10 -->
      <g style="fill:#262626;" transform="translate(416.544658 416.120313)rotate(-90)scale(0.1 -0.1)">
       <use xlink:href="#ArialMT-77"/>
       <use x="83.300781" xlink:href="#ArialMT-97"/>
       <use x="138.916016" xlink:href="#ArialMT-114"/>
       <use x="172.216797" xlink:href="#ArialMT-32"/>
       <use x="200" xlink:href="#ArialMT-49"/>
       <use x="255.615234" xlink:href="#ArialMT-48"/>
      </g>
     </g>
    </g>
    <g id="xtick_52">
     <g id="line2d_52">
      <path clip-path="url(#p3c9bfa5a2e)" d="M 420.745759 378 
L 420.745759 51.84 
" style="fill:none;stroke:#ffffff;stroke-linecap:round;stroke-width:0.8;"/>
     </g>
     <g id="text_52">
      <!-- Mar 11 -->
      <g style="fill:#262626;" transform="translate(423.330915 416.109375)rotate(-90)scale(0.1 -0.1)">
       <use xlink:href="#ArialMT-77"/>
       <use x="83.300781" xlink:href="#ArialMT-97"/>
       <use x="138.916016" xlink:href="#ArialMT-114"/>
       <use x="172.216797" xlink:href="#ArialMT-32"/>
       <use x="200" xlink:href="#ArialMT-49"/>
       <use x="255.505859" xlink:href="#ArialMT-49"/>
      </g>
     </g>
    </g>
    <g id="xtick_53">
     <g id="line2d_53">
      <path clip-path="url(#p3c9bfa5a2e)" d="M 427.532016 378 
L 427.532016 51.84 
" style="fill:none;stroke:#ffffff;stroke-linecap:round;stroke-width:0.8;"/>
     </g>
     <g id="text_53">
      <!-- Mar 12 -->
      <g style="fill:#262626;" transform="translate(430.117172 416.120313)rotate(-90)scale(0.1 -0.1)">
       <use xlink:href="#ArialMT-77"/>
       <use x="83.300781" xlink:href="#ArialMT-97"/>
       <use x="138.916016" xlink:href="#ArialMT-114"/>
       <use x="172.216797" xlink:href="#ArialMT-32"/>
       <use x="200" xlink:href="#ArialMT-49"/>
       <use x="255.615234" xlink:href="#ArialMT-50"/>
      </g>
     </g>
    </g>
    <g id="xtick_54">
     <g id="line2d_54">
      <path clip-path="url(#p3c9bfa5a2e)" d="M 434.318273 378 
L 434.318273 51.84 
" style="fill:none;stroke:#ffffff;stroke-linecap:round;stroke-width:0.8;"/>
     </g>
     <g id="text_54">
      <!-- Mar 13 -->
      <g style="fill:#262626;" transform="translate(436.903429 416.120313)rotate(-90)scale(0.1 -0.1)">
       <use xlink:href="#ArialMT-77"/>
       <use x="83.300781" xlink:href="#ArialMT-97"/>
       <use x="138.916016" xlink:href="#ArialMT-114"/>
       <use x="172.216797" xlink:href="#ArialMT-32"/>
       <use x="200" xlink:href="#ArialMT-49"/>
       <use x="255.615234" xlink:href="#ArialMT-51"/>
      </g>
     </g>
    </g>
    <g id="xtick_55">
     <g id="line2d_55">
      <path clip-path="url(#p3c9bfa5a2e)" d="M 441.10453 378 
L 441.10453 51.84 
" style="fill:none;stroke:#ffffff;stroke-linecap:round;stroke-width:0.8;"/>
     </g>
     <g id="text_55">
      <!-- Mar 14 -->
      <g style="fill:#262626;" transform="translate(443.689687 416.120313)rotate(-90)scale(0.1 -0.1)">
       <use xlink:href="#ArialMT-77"/>
       <use x="83.300781" xlink:href="#ArialMT-97"/>
       <use x="138.916016" xlink:href="#ArialMT-114"/>
       <use x="172.216797" xlink:href="#ArialMT-32"/>
       <use x="200" xlink:href="#ArialMT-49"/>
       <use x="255.615234" xlink:href="#ArialMT-52"/>
      </g>
     </g>
    </g>
    <g id="xtick_56">
     <g id="line2d_56">
      <path clip-path="url(#p3c9bfa5a2e)" d="M 447.890787 378 
L 447.890787 51.84 
" style="fill:none;stroke:#ffffff;stroke-linecap:round;stroke-width:0.8;"/>
     </g>
     <g id="text_56">
      <!-- Mar 15 -->
      <g style="fill:#262626;" transform="translate(450.475944 416.120313)rotate(-90)scale(0.1 -0.1)">
       <use xlink:href="#ArialMT-77"/>
       <use x="83.300781" xlink:href="#ArialMT-97"/>
       <use x="138.916016" xlink:href="#ArialMT-114"/>
       <use x="172.216797" xlink:href="#ArialMT-32"/>
       <use x="200" xlink:href="#ArialMT-49"/>
       <use x="255.615234" xlink:href="#ArialMT-53"/>
      </g>
     </g>
    </g>
    <g id="xtick_57">
     <g id="line2d_57">
      <path clip-path="url(#p3c9bfa5a2e)" d="M 454.677045 378 
L 454.677045 51.84 
" style="fill:none;stroke:#ffffff;stroke-linecap:round;stroke-width:0.8;"/>
     </g>
     <g id="text_57">
      <!-- Mar 16 -->
      <g style="fill:#262626;" transform="translate(457.262201 416.120313)rotate(-90)scale(0.1 -0.1)">
       <use xlink:href="#ArialMT-77"/>
       <use x="83.300781" xlink:href="#ArialMT-97"/>
       <use x="138.916016" xlink:href="#ArialMT-114"/>
       <use x="172.216797" xlink:href="#ArialMT-32"/>
       <use x="200" xlink:href="#ArialMT-49"/>
       <use x="255.615234" xlink:href="#ArialMT-54"/>
      </g>
     </g>
    </g>
    <g id="xtick_58">
     <g id="line2d_58">
      <path clip-path="url(#p3c9bfa5a2e)" d="M 461.463302 378 
L 461.463302 51.84 
" style="fill:none;stroke:#ffffff;stroke-linecap:round;stroke-width:0.8;"/>
     </g>
     <g id="text_58">
      <!-- Mar 17 -->
      <g style="fill:#262626;" transform="translate(464.048458 416.120313)rotate(-90)scale(0.1 -0.1)">
       <use xlink:href="#ArialMT-77"/>
       <use x="83.300781" xlink:href="#ArialMT-97"/>
       <use x="138.916016" xlink:href="#ArialMT-114"/>
       <use x="172.216797" xlink:href="#ArialMT-32"/>
       <use x="200" xlink:href="#ArialMT-49"/>
       <use x="255.615234" xlink:href="#ArialMT-55"/>
      </g>
     </g>
    </g>
    <g id="xtick_59">
     <g id="line2d_59">
      <path clip-path="url(#p3c9bfa5a2e)" d="M 468.249559 378 
L 468.249559 51.84 
" style="fill:none;stroke:#ffffff;stroke-linecap:round;stroke-width:0.8;"/>
     </g>
     <g id="text_59">
      <!-- Mar 18 -->
      <g style="fill:#262626;" transform="translate(470.834715 416.120313)rotate(-90)scale(0.1 -0.1)">
       <use xlink:href="#ArialMT-77"/>
       <use x="83.300781" xlink:href="#ArialMT-97"/>
       <use x="138.916016" xlink:href="#ArialMT-114"/>
       <use x="172.216797" xlink:href="#ArialMT-32"/>
       <use x="200" xlink:href="#ArialMT-49"/>
       <use x="255.615234" xlink:href="#ArialMT-56"/>
      </g>
     </g>
    </g>
    <g id="xtick_60">
     <g id="line2d_60">
      <path clip-path="url(#p3c9bfa5a2e)" d="M 475.035816 378 
L 475.035816 51.84 
" style="fill:none;stroke:#ffffff;stroke-linecap:round;stroke-width:0.8;"/>
     </g>
     <g id="text_60">
      <!-- Mar 19 -->
      <g style="fill:#262626;" transform="translate(477.620973 416.120313)rotate(-90)scale(0.1 -0.1)">
       <use xlink:href="#ArialMT-77"/>
       <use x="83.300781" xlink:href="#ArialMT-97"/>
       <use x="138.916016" xlink:href="#ArialMT-114"/>
       <use x="172.216797" xlink:href="#ArialMT-32"/>
       <use x="200" xlink:href="#ArialMT-49"/>
       <use x="255.615234" xlink:href="#ArialMT-57"/>
      </g>
     </g>
    </g>
    <g id="xtick_61">
     <g id="line2d_61">
      <path clip-path="url(#p3c9bfa5a2e)" d="M 481.822074 378 
L 481.822074 51.84 
" style="fill:none;stroke:#ffffff;stroke-linecap:round;stroke-width:0.8;"/>
     </g>
     <g id="text_61">
      <!-- Mar 20 -->
      <g style="fill:#262626;" transform="translate(484.40723 416.120313)rotate(-90)scale(0.1 -0.1)">
       <use xlink:href="#ArialMT-77"/>
       <use x="83.300781" xlink:href="#ArialMT-97"/>
       <use x="138.916016" xlink:href="#ArialMT-114"/>
       <use x="172.216797" xlink:href="#ArialMT-32"/>
       <use x="200" xlink:href="#ArialMT-50"/>
       <use x="255.615234" xlink:href="#ArialMT-48"/>
      </g>
     </g>
    </g>
    <g id="xtick_62">
     <g id="line2d_62">
      <path clip-path="url(#p3c9bfa5a2e)" d="M 488.608331 378 
L 488.608331 51.84 
" style="fill:none;stroke:#ffffff;stroke-linecap:round;stroke-width:0.8;"/>
     </g>
     <g id="text_62">
      <!-- Mar 21 -->
      <g style="fill:#262626;" transform="translate(491.193487 416.120313)rotate(-90)scale(0.1 -0.1)">
       <use xlink:href="#ArialMT-77"/>
       <use x="83.300781" xlink:href="#ArialMT-97"/>
       <use x="138.916016" xlink:href="#ArialMT-114"/>
       <use x="172.216797" xlink:href="#ArialMT-32"/>
       <use x="200" xlink:href="#ArialMT-50"/>
       <use x="255.615234" xlink:href="#ArialMT-49"/>
      </g>
     </g>
    </g>
    <g id="xtick_63">
     <g id="line2d_63">
      <path clip-path="url(#p3c9bfa5a2e)" d="M 495.394588 378 
L 495.394588 51.84 
" style="fill:none;stroke:#ffffff;stroke-linecap:round;stroke-width:0.8;"/>
     </g>
     <g id="text_63">
      <!-- Mar 22 -->
      <g style="fill:#262626;" transform="translate(497.979744 416.120313)rotate(-90)scale(0.1 -0.1)">
       <use xlink:href="#ArialMT-77"/>
       <use x="83.300781" xlink:href="#ArialMT-97"/>
       <use x="138.916016" xlink:href="#ArialMT-114"/>
       <use x="172.216797" xlink:href="#ArialMT-32"/>
       <use x="200" xlink:href="#ArialMT-50"/>
       <use x="255.615234" xlink:href="#ArialMT-50"/>
      </g>
     </g>
    </g>
    <g id="xtick_64">
     <g id="line2d_64">
      <path clip-path="url(#p3c9bfa5a2e)" d="M 502.180845 378 
L 502.180845 51.84 
" style="fill:none;stroke:#ffffff;stroke-linecap:round;stroke-width:0.8;"/>
     </g>
     <g id="text_64">
      <!-- Mar 23 -->
      <g style="fill:#262626;" transform="translate(504.766001 416.120313)rotate(-90)scale(0.1 -0.1)">
       <use xlink:href="#ArialMT-77"/>
       <use x="83.300781" xlink:href="#ArialMT-97"/>
       <use x="138.916016" xlink:href="#ArialMT-114"/>
       <use x="172.216797" xlink:href="#ArialMT-32"/>
       <use x="200" xlink:href="#ArialMT-50"/>
       <use x="255.615234" xlink:href="#ArialMT-51"/>
      </g>
     </g>
    </g>
    <g id="xtick_65">
     <g id="line2d_65">
      <path clip-path="url(#p3c9bfa5a2e)" d="M 508.967102 378 
L 508.967102 51.84 
" style="fill:none;stroke:#ffffff;stroke-linecap:round;stroke-width:0.8;"/>
     </g>
     <g id="text_65">
      <!-- Mar 24 -->
      <g style="fill:#262626;" transform="translate(511.552259 416.120313)rotate(-90)scale(0.1 -0.1)">
       <use xlink:href="#ArialMT-77"/>
       <use x="83.300781" xlink:href="#ArialMT-97"/>
       <use x="138.916016" xlink:href="#ArialMT-114"/>
       <use x="172.216797" xlink:href="#ArialMT-32"/>
       <use x="200" xlink:href="#ArialMT-50"/>
       <use x="255.615234" xlink:href="#ArialMT-52"/>
      </g>
     </g>
    </g>
    <g id="xtick_66">
     <g id="line2d_66">
      <path clip-path="url(#p3c9bfa5a2e)" d="M 515.75336 378 
L 515.75336 51.84 
" style="fill:none;stroke:#ffffff;stroke-linecap:round;stroke-width:0.8;"/>
     </g>
     <g id="text_66">
      <!-- Mar 25 -->
      <g style="fill:#262626;" transform="translate(518.338516 416.120313)rotate(-90)scale(0.1 -0.1)">
       <use xlink:href="#ArialMT-77"/>
       <use x="83.300781" xlink:href="#ArialMT-97"/>
       <use x="138.916016" xlink:href="#ArialMT-114"/>
       <use x="172.216797" xlink:href="#ArialMT-32"/>
       <use x="200" xlink:href="#ArialMT-50"/>
       <use x="255.615234" xlink:href="#ArialMT-53"/>
      </g>
     </g>
    </g>
   </g>
   <g id="matplotlib.axis_2">
    <g id="ytick_1">
     <g id="line2d_67">
      <path clip-path="url(#p3c9bfa5a2e)" d="M 72 378 
L 518.4 378 
" style="fill:none;stroke:#ffffff;stroke-linecap:round;stroke-width:0.8;"/>
     </g>
     <g id="text_67">
      <!-- 0 -->
      <g style="fill:#262626;" transform="translate(59.439062 381.578906)scale(0.1 -0.1)">
       <use xlink:href="#ArialMT-48"/>
      </g>
     </g>
    </g>
    <g id="ytick_2">
     <g id="line2d_68">
      <path clip-path="url(#p3c9bfa5a2e)" d="M 72 309.398284 
L 518.4 309.398284 
" style="fill:none;stroke:#ffffff;stroke-linecap:round;stroke-width:0.8;"/>
     </g>
     <g id="text_68">
      <!-- 1000 -->
      <g style="fill:#262626;" transform="translate(42.75625 312.97719)scale(0.1 -0.1)">
       <use xlink:href="#ArialMT-49"/>
       <use x="55.615234" xlink:href="#ArialMT-48"/>
       <use x="111.230469" xlink:href="#ArialMT-48"/>
       <use x="166.845703" xlink:href="#ArialMT-48"/>
      </g>
     </g>
    </g>
    <g id="ytick_3">
     <g id="line2d_69">
      <path clip-path="url(#p3c9bfa5a2e)" d="M 72 240.796567 
L 518.4 240.796567 
" style="fill:none;stroke:#ffffff;stroke-linecap:round;stroke-width:0.8;"/>
     </g>
     <g id="text_69">
      <!-- 2000 -->
      <g style="fill:#262626;" transform="translate(42.75625 244.375474)scale(0.1 -0.1)">
       <use xlink:href="#ArialMT-50"/>
       <use x="55.615234" xlink:href="#ArialMT-48"/>
       <use x="111.230469" xlink:href="#ArialMT-48"/>
       <use x="166.845703" xlink:href="#ArialMT-48"/>
      </g>
     </g>
    </g>
    <g id="ytick_4">
     <g id="line2d_70">
      <path clip-path="url(#p3c9bfa5a2e)" d="M 72 172.194851 
L 518.4 172.194851 
" style="fill:none;stroke:#ffffff;stroke-linecap:round;stroke-width:0.8;"/>
     </g>
     <g id="text_70">
      <!-- 3000 -->
      <g style="fill:#262626;" transform="translate(42.75625 175.773757)scale(0.1 -0.1)">
       <use xlink:href="#ArialMT-51"/>
       <use x="55.615234" xlink:href="#ArialMT-48"/>
       <use x="111.230469" xlink:href="#ArialMT-48"/>
       <use x="166.845703" xlink:href="#ArialMT-48"/>
      </g>
     </g>
    </g>
    <g id="ytick_5">
     <g id="line2d_71">
      <path clip-path="url(#p3c9bfa5a2e)" d="M 72 103.593135 
L 518.4 103.593135 
" style="fill:none;stroke:#ffffff;stroke-linecap:round;stroke-width:0.8;"/>
     </g>
     <g id="text_71">
      <!-- 4000 -->
      <g style="fill:#262626;" transform="translate(42.75625 107.172041)scale(0.1 -0.1)">
       <use xlink:href="#ArialMT-52"/>
       <use x="55.615234" xlink:href="#ArialMT-48"/>
       <use x="111.230469" xlink:href="#ArialMT-48"/>
       <use x="166.845703" xlink:href="#ArialMT-48"/>
      </g>
     </g>
    </g>
   </g>
   <g id="patch_3">
    <path clip-path="url(#p3c9bfa5a2e)" d="z
" style="fill:#0000ff;stroke:#ffffff;stroke-linejoin:miter;"/>
   </g>
   <g id="patch_4">
    <path clip-path="url(#p3c9bfa5a2e)" d="M 92.290909 378 
L 97.719915 378 
L 97.719915 378 
L 92.290909 378 
z
" style="fill:#0000ff;stroke:#ffffff;stroke-linejoin:miter;"/>
   </g>
   <g id="patch_5">
    <path clip-path="url(#p3c9bfa5a2e)" d="M 99.077166 378 
L 104.506172 378 
L 104.506172 378 
L 99.077166 378 
z
" style="fill:#0000ff;stroke:#ffffff;stroke-linejoin:miter;"/>
   </g>
   <g id="patch_6">
    <path clip-path="url(#p3c9bfa5a2e)" d="M 105.863424 378 
L 111.292429 378 
L 111.292429 378 
L 105.863424 378 
z
" style="fill:#0000ff;stroke:#ffffff;stroke-linejoin:miter;"/>
   </g>
   <g id="patch_7">
    <path clip-path="url(#p3c9bfa5a2e)" d="M 112.649681 378 
L 118.078687 378 
L 118.078687 378 
L 112.649681 378 
z
" style="fill:#0000ff;stroke:#ffffff;stroke-linejoin:miter;"/>
   </g>
   <g id="patch_8">
    <path clip-path="url(#p3c9bfa5a2e)" d="M 119.435938 378 
L 124.864944 378 
L 124.864944 377.931398 
L 119.435938 377.931398 
z
" style="fill:#0000ff;stroke:#ffffff;stroke-linejoin:miter;"/>
   </g>
   <g id="patch_9">
    <path clip-path="url(#p3c9bfa5a2e)" d="M 126.222195 378 
L 131.651201 378 
L 131.651201 377.794195 
L 126.222195 377.794195 
z
" style="fill:#0000ff;stroke:#ffffff;stroke-linejoin:miter;"/>
   </g>
   <g id="patch_10">
    <path clip-path="url(#p3c9bfa5a2e)" d="M 133.008452 378 
L 138.437458 378 
L 138.437458 378 
L 133.008452 378 
z
" style="fill:#0000ff;stroke:#ffffff;stroke-linejoin:miter;"/>
   </g>
   <g id="patch_11">
    <path clip-path="url(#p3c9bfa5a2e)" d="M 139.79471 378 
L 145.223715 378 
L 145.223715 378 
L 139.79471 378 
z
" style="fill:#0000ff;stroke:#ffffff;stroke-linejoin:miter;"/>
   </g>
   <g id="patch_12">
    <path clip-path="url(#p3c9bfa5a2e)" d="M 146.580967 378 
L 152.009973 378 
L 152.009973 377.931398 
L 146.580967 377.931398 
z
" style="fill:#0000ff;stroke:#ffffff;stroke-linejoin:miter;"/>
   </g>
   <g id="patch_13">
    <path clip-path="url(#p3c9bfa5a2e)" d="M 153.367224 378 
L 158.79623 378 
L 158.79623 377.794195 
L 153.367224 377.794195 
z
" style="fill:#0000ff;stroke:#ffffff;stroke-linejoin:miter;"/>
   </g>
   <g id="patch_14">
    <path clip-path="url(#p3c9bfa5a2e)" d="M 160.153481 378 
L 165.582487 378 
L 165.582487 377.862797 
L 160.153481 377.862797 
z
" style="fill:#0000ff;stroke:#ffffff;stroke-linejoin:miter;"/>
   </g>
   <g id="patch_15">
    <path clip-path="url(#p3c9bfa5a2e)" d="M 166.939739 378 
L 172.368744 378 
L 172.368744 377.862797 
L 166.939739 377.862797 
z
" style="fill:#0000ff;stroke:#ffffff;stroke-linejoin:miter;"/>
   </g>
   <g id="patch_16">
    <path clip-path="url(#p3c9bfa5a2e)" d="M 173.725996 378 
L 179.155002 378 
L 179.155002 378 
L 173.725996 378 
z
" style="fill:#0000ff;stroke:#ffffff;stroke-linejoin:miter;"/>
   </g>
   <g id="patch_17">
    <path clip-path="url(#p3c9bfa5a2e)" d="M 180.512253 378 
L 185.941259 378 
L 185.941259 378 
L 180.512253 378 
z
" style="fill:#0000ff;stroke:#ffffff;stroke-linejoin:miter;"/>
   </g>
   <g id="patch_18">
    <path clip-path="url(#p3c9bfa5a2e)" d="M 187.29851 378 
L 192.727516 378 
L 192.727516 378 
L 187.29851 378 
z
" style="fill:#0000ff;stroke:#ffffff;stroke-linejoin:miter;"/>
   </g>
   <g id="patch_19">
    <path clip-path="url(#p3c9bfa5a2e)" d="M 194.084767 378 
L 199.513773 378 
L 199.513773 377.931398 
L 194.084767 377.931398 
z
" style="fill:#0000ff;stroke:#ffffff;stroke-linejoin:miter;"/>
   </g>
   <g id="patch_20">
    <path clip-path="url(#p3c9bfa5a2e)" d="M 200.871025 378 
L 206.30003 378 
L 206.30003 378 
L 200.871025 378 
z
" style="fill:#0000ff;stroke:#ffffff;stroke-linejoin:miter;"/>
   </g>
   <g id="patch_21">
    <path clip-path="url(#p3c9bfa5a2e)" d="M 207.657282 378 
L 213.086288 378 
L 213.086288 377.931398 
L 207.657282 377.931398 
z
" style="fill:#0000ff;stroke:#ffffff;stroke-linejoin:miter;"/>
   </g>
   <g id="patch_22">
    <path clip-path="url(#p3c9bfa5a2e)" d="M 214.443539 378 
L 219.872545 378 
L 219.872545 378 
L 214.443539 378 
z
" style="fill:#0000ff;stroke:#ffffff;stroke-linejoin:miter;"/>
   </g>
   <g id="patch_23">
    <path clip-path="url(#p3c9bfa5a2e)" d="M 221.229796 378 
L 226.658802 378 
L 226.658802 377.862797 
L 221.229796 377.862797 
z
" style="fill:#0000ff;stroke:#ffffff;stroke-linejoin:miter;"/>
   </g>
   <g id="patch_24">
    <path clip-path="url(#p3c9bfa5a2e)" d="M 228.016054 378 
L 233.445059 378 
L 233.445059 378 
L 228.016054 378 
z
" style="fill:#0000ff;stroke:#ffffff;stroke-linejoin:miter;"/>
   </g>
   <g id="patch_25">
    <path clip-path="url(#p3c9bfa5a2e)" d="M 234.802311 378 
L 240.231317 378 
L 240.231317 378 
L 234.802311 378 
z
" style="fill:#0000ff;stroke:#ffffff;stroke-linejoin:miter;"/>
   </g>
   <g id="patch_26">
    <path clip-path="url(#p3c9bfa5a2e)" d="M 241.588568 378 
L 247.017574 378 
L 247.017574 378 
L 241.588568 378 
z
" style="fill:#0000ff;stroke:#ffffff;stroke-linejoin:miter;"/>
   </g>
   <g id="patch_27">
    <path clip-path="url(#p3c9bfa5a2e)" d="M 248.374825 378 
L 253.803831 378 
L 253.803831 378 
L 248.374825 378 
z
" style="fill:#0000ff;stroke:#ffffff;stroke-linejoin:miter;"/>
   </g>
   <g id="patch_28">
    <path clip-path="url(#p3c9bfa5a2e)" d="M 255.161082 378 
L 260.590088 378 
L 260.590088 378 
L 255.161082 378 
z
" style="fill:#0000ff;stroke:#ffffff;stroke-linejoin:miter;"/>
   </g>
   <g id="patch_29">
    <path clip-path="url(#p3c9bfa5a2e)" d="M 261.94734 378 
L 267.376345 378 
L 267.376345 378 
L 261.94734 378 
z
" style="fill:#0000ff;stroke:#ffffff;stroke-linejoin:miter;"/>
   </g>
   <g id="patch_30">
    <path clip-path="url(#p3c9bfa5a2e)" d="M 268.733597 378 
L 274.162603 378 
L 274.162603 378 
L 268.733597 378 
z
" style="fill:#0000ff;stroke:#ffffff;stroke-linejoin:miter;"/>
   </g>
   <g id="patch_31">
    <path clip-path="url(#p3c9bfa5a2e)" d="M 275.519854 378 
L 280.94886 378 
L 280.94886 378 
L 275.519854 378 
z
" style="fill:#0000ff;stroke:#ffffff;stroke-linejoin:miter;"/>
   </g>
   <g id="patch_32">
    <path clip-path="url(#p3c9bfa5a2e)" d="M 282.306111 378 
L 287.735117 378 
L 287.735117 378 
L 282.306111 378 
z
" style="fill:#0000ff;stroke:#ffffff;stroke-linejoin:miter;"/>
   </g>
   <g id="patch_33">
    <path clip-path="url(#p3c9bfa5a2e)" d="M 289.092369 378 
L 294.521374 378 
L 294.521374 378 
L 289.092369 378 
z
" style="fill:#0000ff;stroke:#ffffff;stroke-linejoin:miter;"/>
   </g>
   <g id="patch_34">
    <path clip-path="url(#p3c9bfa5a2e)" d="M 295.878626 378 
L 301.307631 378 
L 301.307631 378 
L 295.878626 378 
z
" style="fill:#0000ff;stroke:#ffffff;stroke-linejoin:miter;"/>
   </g>
   <g id="patch_35">
    <path clip-path="url(#p3c9bfa5a2e)" d="M 302.664883 378 
L 308.093889 378 
L 308.093889 378 
L 302.664883 378 
z
" style="fill:#0000ff;stroke:#ffffff;stroke-linejoin:miter;"/>
   </g>
   <g id="patch_36">
    <path clip-path="url(#p3c9bfa5a2e)" d="M 309.45114 378 
L 314.880146 378 
L 314.880146 378 
L 309.45114 378 
z
" style="fill:#0000ff;stroke:#ffffff;stroke-linejoin:miter;"/>
   </g>
   <g id="patch_37">
    <path clip-path="url(#p3c9bfa5a2e)" d="M 316.237397 378 
L 321.666403 378 
L 321.666403 377.931398 
L 316.237397 377.931398 
z
" style="fill:#0000ff;stroke:#ffffff;stroke-linejoin:miter;"/>
   </g>
   <g id="patch_38">
    <path clip-path="url(#p3c9bfa5a2e)" d="M 323.023655 378 
L 328.45266 378 
L 328.45266 377.313983 
L 323.023655 377.313983 
z
" style="fill:#0000ff;stroke:#ffffff;stroke-linejoin:miter;"/>
   </g>
   <g id="patch_39">
    <path clip-path="url(#p3c9bfa5a2e)" d="M 329.809912 378 
L 335.238918 378 
L 335.238918 376.696567 
L 329.809912 376.696567 
z
" style="fill:#0000ff;stroke:#ffffff;stroke-linejoin:miter;"/>
   </g>
   <g id="patch_40">
    <path clip-path="url(#p3c9bfa5a2e)" d="M 336.596169 378 
L 342.025175 378 
L 342.025175 377.862797 
L 336.596169 377.862797 
z
" style="fill:#0000ff;stroke:#ffffff;stroke-linejoin:miter;"/>
   </g>
   <g id="patch_41">
    <path clip-path="url(#p3c9bfa5a2e)" d="M 343.382426 378 
L 348.811432 378 
L 348.811432 375.873347 
L 343.382426 375.873347 
z
" style="fill:#0000ff;stroke:#ffffff;stroke-linejoin:miter;"/>
   </g>
   <g id="patch_42">
    <path clip-path="url(#p3c9bfa5a2e)" d="M 350.168683 378 
L 355.597689 378 
L 355.597689 374.501312 
L 350.168683 374.501312 
z
" style="fill:#0000ff;stroke:#ffffff;stroke-linejoin:miter;"/>
   </g>
   <g id="patch_43">
    <path clip-path="url(#p3c9bfa5a2e)" d="M 356.954941 378 
L 362.383946 378 
L 362.383946 376.01055 
L 356.954941 376.01055 
z
" style="fill:#0000ff;stroke:#ffffff;stroke-linejoin:miter;"/>
   </g>
   <g id="patch_44">
    <path clip-path="url(#p3c9bfa5a2e)" d="M 363.741198 378 
L 369.170204 378 
L 369.170204 375.461736 
L 363.741198 375.461736 
z
" style="fill:#0000ff;stroke:#ffffff;stroke-linejoin:miter;"/>
   </g>
   <g id="patch_45">
    <path clip-path="url(#p3c9bfa5a2e)" d="M 370.527455 378 
L 375.956461 378 
L 375.956461 373.472287 
L 370.527455 373.472287 
z
" style="fill:#0000ff;stroke:#ffffff;stroke-linejoin:miter;"/>
   </g>
   <g id="patch_46">
    <path clip-path="url(#p3c9bfa5a2e)" d="M 377.313712 378 
L 382.742718 378 
L 382.742718 362.907622 
L 377.313712 362.907622 
z
" style="fill:#0000ff;stroke:#ffffff;stroke-linejoin:miter;"/>
   </g>
   <g id="patch_47">
    <path clip-path="url(#p3c9bfa5a2e)" d="M 384.09997 378 
L 389.528975 378 
L 389.528975 365.102877 
L 384.09997 365.102877 
z
" style="fill:#0000ff;stroke:#ffffff;stroke-linejoin:miter;"/>
   </g>
   <g id="patch_48">
    <path clip-path="url(#p3c9bfa5a2e)" d="M 390.886227 378 
L 396.315233 378 
L 396.315233 369.150379 
L 390.886227 369.150379 
z
" style="fill:#0000ff;stroke:#ffffff;stroke-linejoin:miter;"/>
   </g>
   <g id="patch_49">
    <path clip-path="url(#p3c9bfa5a2e)" d="M 397.672484 378 
L 403.10149 378 
L 403.10149 361.466986 
L 397.672484 361.466986 
z
" style="fill:#0000ff;stroke:#ffffff;stroke-linejoin:miter;"/>
   </g>
   <g id="patch_50">
    <path clip-path="url(#p3c9bfa5a2e)" d="M 404.458741 378 
L 409.887747 378 
L 409.887747 368.670167 
L 404.458741 368.670167 
z
" style="fill:#0000ff;stroke:#ffffff;stroke-linejoin:miter;"/>
   </g>
   <g id="patch_51">
    <path clip-path="url(#p3c9bfa5a2e)" d="M 411.244998 378 
L 416.674004 378 
L 416.674004 358.722918 
L 411.244998 358.722918 
z
" style="fill:#0000ff;stroke:#ffffff;stroke-linejoin:miter;"/>
   </g>
   <g id="patch_52">
    <path clip-path="url(#p3c9bfa5a2e)" d="M 418.031256 378 
L 423.460261 378 
L 423.460261 347.060626 
L 418.031256 347.060626 
z
" style="fill:#0000ff;stroke:#ffffff;stroke-linejoin:miter;"/>
   </g>
   <g id="patch_53">
    <path clip-path="url(#p3c9bfa5a2e)" d="M 424.817513 378 
L 430.246519 378 
L 430.246519 366.337708 
L 424.817513 366.337708 
z
" style="fill:#0000ff;stroke:#ffffff;stroke-linejoin:miter;"/>
   </g>
   <g id="patch_54">
    <path clip-path="url(#p3c9bfa5a2e)" d="M 431.60377 378 
L 437.032776 378 
L 437.032776 268.443059 
L 431.60377 268.443059 
z
" style="fill:#0000ff;stroke:#ffffff;stroke-linejoin:miter;"/>
   </g>
   <g id="patch_55">
    <path clip-path="url(#p3c9bfa5a2e)" d="M 438.390027 378 
L 443.819033 378 
L 443.819033 315.572438 
L 438.390027 315.572438 
z
" style="fill:#0000ff;stroke:#ffffff;stroke-linejoin:miter;"/>
   </g>
   <g id="patch_56">
    <path clip-path="url(#p3c9bfa5a2e)" d="M 445.176285 378 
L 450.60529 378 
L 450.60529 294.991923 
L 445.176285 294.991923 
z
" style="fill:#0000ff;stroke:#ffffff;stroke-linejoin:miter;"/>
   </g>
   <g id="patch_57">
    <path clip-path="url(#p3c9bfa5a2e)" d="M 451.962542 378 
L 457.391548 378 
L 457.391548 276.675265 
L 451.962542 276.675265 
z
" style="fill:#0000ff;stroke:#ffffff;stroke-linejoin:miter;"/>
   </g>
   <g id="patch_58">
    <path clip-path="url(#p3c9bfa5a2e)" d="M 458.748799 378 
L 464.177805 378 
L 464.177805 241.825593 
L 458.748799 241.825593 
z
" style="fill:#0000ff;stroke:#ffffff;stroke-linejoin:miter;"/>
   </g>
   <g id="patch_59">
    <path clip-path="url(#p3c9bfa5a2e)" d="M 465.535056 378 
L 470.964062 378 
L 470.964062 167.392731 
L 465.535056 167.392731 
z
" style="fill:#0000ff;stroke:#ffffff;stroke-linejoin:miter;"/>
   </g>
   <g id="patch_60">
    <path clip-path="url(#p3c9bfa5a2e)" d="M 472.321313 378 
L 477.750319 378 
L 477.750319 172.675063 
L 472.321313 172.675063 
z
" style="fill:#0000ff;stroke:#ffffff;stroke-linejoin:miter;"/>
   </g>
   <g id="patch_61">
    <path clip-path="url(#p3c9bfa5a2e)" d="M 479.107571 378 
L 484.536576 378 
L 484.536576 67.371429 
L 479.107571 67.371429 
z
" style="fill:#0000ff;stroke:#ffffff;stroke-linejoin:miter;"/>
   </g>
   <g id="patch_62">
    <path clip-path="url(#p3c9bfa5a2e)" d="M 485.893828 378 
L 491.322834 378 
L 491.322834 215.756941 
L 485.893828 215.756941 
z
" style="fill:#0000ff;stroke:#ffffff;stroke-linejoin:miter;"/>
   </g>
   <g id="patch_63">
    <path clip-path="url(#p3c9bfa5a2e)" d="M 492.680085 378 
L 498.109091 378 
L 498.109091 195.519435 
L 492.680085 195.519435 
z
" style="fill:#0000ff;stroke:#ffffff;stroke-linejoin:miter;"/>
   </g>
   <g id="patch_64">
    <path d="M 72 378 
L 72 51.84 
" style="fill:none;stroke:#ffffff;stroke-linecap:square;stroke-linejoin:miter;stroke-width:0.8;"/>
   </g>
   <g id="patch_65">
    <path d="M 518.4 378 
L 518.4 51.84 
" style="fill:none;stroke:#ffffff;stroke-linecap:square;stroke-linejoin:miter;stroke-width:0.8;"/>
   </g>
   <g id="patch_66">
    <path d="M 72 378 
L 518.4 378 
" style="fill:none;stroke:#ffffff;stroke-linecap:square;stroke-linejoin:miter;stroke-width:0.8;"/>
   </g>
   <g id="patch_67">
    <path d="M 72 51.84 
L 518.4 51.84 
" style="fill:none;stroke:#ffffff;stroke-linecap:square;stroke-linejoin:miter;stroke-width:0.8;"/>
   </g>
   <g id="text_72">
    <!-- New confirmed cases per day in Germany -->
    <defs>
     <path d="M 7.625 0 
L 7.625 71.578125 
L 17.328125 71.578125 
L 54.9375 15.375 
L 54.9375 71.578125 
L 64.015625 71.578125 
L 64.015625 0 
L 54.296875 0 
L 16.703125 56.25 
L 16.703125 0 
z
" id="ArialMT-78"/>
     <path d="M 16.15625 0 
L 0.296875 51.859375 
L 9.375 51.859375 
L 17.625 21.921875 
L 20.703125 10.796875 
Q 20.90625 11.625 23.390625 21.484375 
L 31.640625 51.859375 
L 40.671875 51.859375 
L 48.4375 21.78125 
L 51.03125 11.859375 
L 54 21.875 
L 62.890625 51.859375 
L 71.4375 51.859375 
L 55.21875 0 
L 46.09375 0 
L 37.84375 31.0625 
L 35.84375 39.890625 
L 25.34375 0 
z
" id="ArialMT-119"/>
     <path d="M 40.4375 19 
L 49.078125 17.875 
Q 47.65625 8.9375 41.8125 3.875 
Q 35.984375 -1.171875 27.484375 -1.171875 
Q 16.84375 -1.171875 10.375 5.78125 
Q 3.90625 12.75 3.90625 25.734375 
Q 3.90625 34.125 6.6875 40.421875 
Q 9.46875 46.734375 15.15625 49.875 
Q 20.84375 53.03125 27.546875 53.03125 
Q 35.984375 53.03125 41.359375 48.75 
Q 46.734375 44.484375 48.25 36.625 
L 39.703125 35.296875 
Q 38.484375 40.53125 35.375 43.15625 
Q 32.28125 45.796875 27.875 45.796875 
Q 21.234375 45.796875 17.078125 41.03125 
Q 12.9375 36.28125 12.9375 25.984375 
Q 12.9375 15.53125 16.9375 10.796875 
Q 20.953125 6.0625 27.390625 6.0625 
Q 32.5625 6.0625 36.03125 9.234375 
Q 39.5 12.40625 40.4375 19 
z
" id="ArialMT-99"/>
     <path d="M 3.328125 25.921875 
Q 3.328125 40.328125 11.328125 47.265625 
Q 18.015625 53.03125 27.640625 53.03125 
Q 38.328125 53.03125 45.109375 46.015625 
Q 51.90625 39.015625 51.90625 26.65625 
Q 51.90625 16.65625 48.90625 10.90625 
Q 45.90625 5.171875 40.15625 2 
Q 34.421875 -1.171875 27.640625 -1.171875 
Q 16.75 -1.171875 10.03125 5.8125 
Q 3.328125 12.796875 3.328125 25.921875 
z
M 12.359375 25.921875 
Q 12.359375 15.96875 16.703125 11.015625 
Q 21.046875 6.0625 27.640625 6.0625 
Q 34.1875 6.0625 38.53125 11.03125 
Q 42.875 16.015625 42.875 26.21875 
Q 42.875 35.84375 38.5 40.796875 
Q 34.125 45.75 27.640625 45.75 
Q 21.046875 45.75 16.703125 40.8125 
Q 12.359375 35.890625 12.359375 25.921875 
z
" id="ArialMT-111"/>
     <path d="M 8.6875 0 
L 8.6875 45.015625 
L 0.921875 45.015625 
L 0.921875 51.859375 
L 8.6875 51.859375 
L 8.6875 57.375 
Q 8.6875 62.59375 9.625 65.140625 
Q 10.890625 68.5625 14.078125 70.671875 
Q 17.28125 72.796875 23.046875 72.796875 
Q 26.765625 72.796875 31.25 71.921875 
L 29.9375 64.265625 
Q 27.203125 64.75 24.75 64.75 
Q 20.75 64.75 19.09375 63.03125 
Q 17.4375 61.328125 17.4375 56.640625 
L 17.4375 51.859375 
L 27.546875 51.859375 
L 27.546875 45.015625 
L 17.4375 45.015625 
L 17.4375 0 
z
" id="ArialMT-102"/>
     <path d="M 6.640625 61.46875 
L 6.640625 71.578125 
L 15.4375 71.578125 
L 15.4375 61.46875 
z
M 6.640625 0 
L 6.640625 51.859375 
L 15.4375 51.859375 
L 15.4375 0 
z
" id="ArialMT-105"/>
     <path d="M 6.59375 0 
L 6.59375 51.859375 
L 14.453125 51.859375 
L 14.453125 44.578125 
Q 16.890625 48.390625 20.9375 50.703125 
Q 25 53.03125 30.171875 53.03125 
Q 35.9375 53.03125 39.625 50.640625 
Q 43.3125 48.25 44.828125 43.953125 
Q 50.984375 53.03125 60.84375 53.03125 
Q 68.5625 53.03125 72.703125 48.75 
Q 76.859375 44.484375 76.859375 35.59375 
L 76.859375 0 
L 68.109375 0 
L 68.109375 32.671875 
Q 68.109375 37.9375 67.25 40.25 
Q 66.40625 42.578125 64.15625 43.984375 
Q 61.921875 45.40625 58.890625 45.40625 
Q 53.421875 45.40625 49.796875 41.765625 
Q 46.1875 38.140625 46.1875 30.125 
L 46.1875 0 
L 37.40625 0 
L 37.40625 33.6875 
Q 37.40625 39.546875 35.25 42.46875 
Q 33.109375 45.40625 28.21875 45.40625 
Q 24.515625 45.40625 21.359375 43.453125 
Q 18.21875 41.5 16.796875 37.734375 
Q 15.375 33.984375 15.375 26.90625 
L 15.375 0 
z
" id="ArialMT-109"/>
     <path d="M 40.234375 0 
L 40.234375 6.546875 
Q 35.296875 -1.171875 25.734375 -1.171875 
Q 19.53125 -1.171875 14.328125 2.25 
Q 9.125 5.671875 6.265625 11.796875 
Q 3.421875 17.921875 3.421875 25.875 
Q 3.421875 33.640625 6 39.96875 
Q 8.59375 46.296875 13.765625 49.65625 
Q 18.953125 53.03125 25.34375 53.03125 
Q 30.03125 53.03125 33.6875 51.046875 
Q 37.359375 49.078125 39.65625 45.90625 
L 39.65625 71.578125 
L 48.390625 71.578125 
L 48.390625 0 
z
M 12.453125 25.875 
Q 12.453125 15.921875 16.640625 10.984375 
Q 20.84375 6.0625 26.5625 6.0625 
Q 32.328125 6.0625 36.34375 10.765625 
Q 40.375 15.484375 40.375 25.140625 
Q 40.375 35.796875 36.265625 40.765625 
Q 32.171875 45.75 26.171875 45.75 
Q 20.3125 45.75 16.375 40.96875 
Q 12.453125 36.1875 12.453125 25.875 
z
" id="ArialMT-100"/>
     <path d="M 3.078125 15.484375 
L 11.765625 16.84375 
Q 12.5 11.625 15.84375 8.84375 
Q 19.1875 6.0625 25.203125 6.0625 
Q 31.25 6.0625 34.171875 8.515625 
Q 37.109375 10.984375 37.109375 14.3125 
Q 37.109375 17.28125 34.515625 19 
Q 32.71875 20.171875 25.53125 21.96875 
Q 15.875 24.421875 12.140625 26.203125 
Q 8.40625 27.984375 6.46875 31.125 
Q 4.546875 34.28125 4.546875 38.09375 
Q 4.546875 41.546875 6.125 44.5 
Q 7.71875 47.46875 10.453125 49.421875 
Q 12.5 50.921875 16.03125 51.96875 
Q 19.578125 53.03125 23.640625 53.03125 
Q 29.734375 53.03125 34.34375 51.265625 
Q 38.96875 49.515625 41.15625 46.5 
Q 43.359375 43.5 44.1875 38.484375 
L 35.59375 37.3125 
Q 35.015625 41.3125 32.203125 43.546875 
Q 29.390625 45.796875 24.265625 45.796875 
Q 18.21875 45.796875 15.625 43.796875 
Q 13.03125 41.796875 13.03125 39.109375 
Q 13.03125 37.40625 14.109375 36.03125 
Q 15.1875 34.625 17.484375 33.6875 
Q 18.796875 33.203125 25.25 31.453125 
Q 34.578125 28.953125 38.25 27.359375 
Q 41.9375 25.78125 44.03125 22.75 
Q 46.140625 19.734375 46.140625 15.234375 
Q 46.140625 10.84375 43.578125 6.953125 
Q 41.015625 3.078125 36.171875 0.953125 
Q 31.34375 -1.171875 25.25 -1.171875 
Q 15.140625 -1.171875 9.84375 3.03125 
Q 4.546875 7.234375 3.078125 15.484375 
z
" id="ArialMT-115"/>
     <path d="M 6.59375 -19.875 
L 6.59375 51.859375 
L 14.59375 51.859375 
L 14.59375 45.125 
Q 17.4375 49.078125 21 51.046875 
Q 24.5625 53.03125 29.640625 53.03125 
Q 36.28125 53.03125 41.359375 49.609375 
Q 46.4375 46.1875 49.015625 39.953125 
Q 51.609375 33.734375 51.609375 26.3125 
Q 51.609375 18.359375 48.75 11.984375 
Q 45.90625 5.609375 40.453125 2.21875 
Q 35.015625 -1.171875 29 -1.171875 
Q 24.609375 -1.171875 21.109375 0.6875 
Q 17.625 2.546875 15.375 5.375 
L 15.375 -19.875 
z
M 14.546875 25.640625 
Q 14.546875 15.625 18.59375 10.84375 
Q 22.65625 6.0625 28.421875 6.0625 
Q 34.28125 6.0625 38.453125 11.015625 
Q 42.625 15.96875 42.625 26.375 
Q 42.625 36.28125 38.546875 41.203125 
Q 34.46875 46.140625 28.8125 46.140625 
Q 23.1875 46.140625 18.859375 40.890625 
Q 14.546875 35.640625 14.546875 25.640625 
z
" id="ArialMT-112"/>
     <path d="M 6.203125 -19.96875 
L 5.21875 -11.71875 
Q 8.109375 -12.5 10.25 -12.5 
Q 13.1875 -12.5 14.9375 -11.515625 
Q 16.703125 -10.546875 17.828125 -8.796875 
Q 18.65625 -7.46875 20.515625 -2.25 
Q 20.75 -1.515625 21.296875 -0.09375 
L 1.609375 51.859375 
L 11.078125 51.859375 
L 21.875 21.828125 
Q 23.96875 16.109375 25.640625 9.8125 
Q 27.15625 15.875 29.25 21.625 
L 40.328125 51.859375 
L 49.125 51.859375 
L 29.390625 -0.875 
Q 26.21875 -9.421875 24.46875 -12.640625 
Q 22.125 -17 19.09375 -19.015625 
Q 16.0625 -21.046875 11.859375 -21.046875 
Q 9.328125 -21.046875 6.203125 -19.96875 
z
" id="ArialMT-121"/>
     <path d="M 41.21875 28.078125 
L 41.21875 36.46875 
L 71.53125 36.53125 
L 71.53125 9.96875 
Q 64.546875 4.390625 57.125 1.578125 
Q 49.703125 -1.21875 41.890625 -1.21875 
Q 31.34375 -1.21875 22.71875 3.296875 
Q 14.109375 7.8125 9.71875 16.359375 
Q 5.328125 24.90625 5.328125 35.453125 
Q 5.328125 45.90625 9.6875 54.953125 
Q 14.0625 64.015625 22.265625 68.40625 
Q 30.46875 72.796875 41.15625 72.796875 
Q 48.921875 72.796875 55.1875 70.28125 
Q 61.46875 67.78125 65.03125 63.28125 
Q 68.609375 58.796875 70.453125 51.5625 
L 61.921875 49.21875 
Q 60.296875 54.6875 57.90625 57.8125 
Q 55.515625 60.9375 51.0625 62.8125 
Q 46.625 64.703125 41.21875 64.703125 
Q 34.71875 64.703125 29.984375 62.71875 
Q 25.25 60.75 22.34375 57.515625 
Q 19.4375 54.296875 17.828125 50.4375 
Q 15.09375 43.796875 15.09375 36.03125 
Q 15.09375 26.46875 18.390625 20.015625 
Q 21.6875 13.578125 27.984375 10.453125 
Q 34.28125 7.328125 41.359375 7.328125 
Q 47.515625 7.328125 53.375 9.6875 
Q 59.234375 12.0625 62.25 14.75 
L 62.25 28.078125 
z
" id="ArialMT-71"/>
    </defs>
    <g style="fill:#262626;" transform="translate(183.495 45.84)scale(0.12 -0.12)">
     <use xlink:href="#ArialMT-78"/>
     <use x="72.216797" xlink:href="#ArialMT-101"/>
     <use x="127.832031" xlink:href="#ArialMT-119"/>
     <use x="200.048828" xlink:href="#ArialMT-32"/>
     <use x="227.832031" xlink:href="#ArialMT-99"/>
     <use x="277.832031" xlink:href="#ArialMT-111"/>
     <use x="333.447266" xlink:href="#ArialMT-110"/>
     <use x="389.0625" xlink:href="#ArialMT-102"/>
     <use x="416.845703" xlink:href="#ArialMT-105"/>
     <use x="439.0625" xlink:href="#ArialMT-114"/>
     <use x="472.363281" xlink:href="#ArialMT-109"/>
     <use x="555.664062" xlink:href="#ArialMT-101"/>
     <use x="611.279297" xlink:href="#ArialMT-100"/>
     <use x="666.894531" xlink:href="#ArialMT-32"/>
     <use x="694.677734" xlink:href="#ArialMT-99"/>
     <use x="744.677734" xlink:href="#ArialMT-97"/>
     <use x="800.292969" xlink:href="#ArialMT-115"/>
     <use x="850.292969" xlink:href="#ArialMT-101"/>
     <use x="905.908203" xlink:href="#ArialMT-115"/>
     <use x="955.908203" xlink:href="#ArialMT-32"/>
     <use x="983.691406" xlink:href="#ArialMT-112"/>
     <use x="1039.306641" xlink:href="#ArialMT-101"/>
     <use x="1094.921875" xlink:href="#ArialMT-114"/>
     <use x="1128.222656" xlink:href="#ArialMT-32"/>
     <use x="1156.005859" xlink:href="#ArialMT-100"/>
     <use x="1211.621094" xlink:href="#ArialMT-97"/>
     <use x="1267.236328" xlink:href="#ArialMT-121"/>
     <use x="1317.236328" xlink:href="#ArialMT-32"/>
     <use x="1345.019531" xlink:href="#ArialMT-105"/>
     <use x="1367.236328" xlink:href="#ArialMT-110"/>
     <use x="1422.851562" xlink:href="#ArialMT-32"/>
     <use x="1450.634766" xlink:href="#ArialMT-71"/>
     <use x="1528.417969" xlink:href="#ArialMT-101"/>
     <use x="1584.033203" xlink:href="#ArialMT-114"/>
     <use x="1617.333984" xlink:href="#ArialMT-109"/>
     <use x="1700.634766" xlink:href="#ArialMT-97"/>
     <use x="1756.25" xlink:href="#ArialMT-110"/>
     <use x="1811.865234" xlink:href="#ArialMT-121"/>
    </g>
   </g>
  </g>
 </g>
 <defs>
  <clipPath id="p3c9bfa5a2e">
   <rect height="326.16" width="446.4" x="72" y="51.84"/>
  </clipPath>
 </defs>
</svg>
