<?xml version="1.0" encoding="utf-8" standalone="no"?>
<!DOCTYPE svg PUBLIC "-//W3C//DTD SVG 1.1//EN"
  "http://www.w3.org/Graphics/SVG/1.1/DTD/svg11.dtd">
<!-- Created with matplotlib (https://matplotlib.org/) -->
<svg height="180pt" version="1.1" viewBox="0 0 720 180" width="720pt" xmlns="http://www.w3.org/2000/svg" xmlns:xlink="http://www.w3.org/1999/xlink">
 <defs>
  <style type="text/css">
*{stroke-linecap:butt;stroke-linejoin:round;}
  </style>
 </defs>
 <g id="figure_1">
  <g id="patch_1">
   <path d="M 0 180 
L 720 180 
L 720 0 
L 0 0 
z
" style="fill:#ffffff;"/>
  </g>
  <g id="axes_1">
   <g id="patch_2">
    <path d="M 90 157.5 
L 648 157.5 
L 648 21.6 
L 90 21.6 
z
" style="fill:#e5e5e5;"/>
   </g>
   <g id="matplotlib.axis_1">
    <g id="xtick_1">
     <g id="line2d_1">
      <path clip-path="url(#p04115e0b5a)" d="M 115.363636 157.5 
L 115.363636 21.6 
" style="fill:none;stroke:#ffffff;stroke-linecap:square;stroke-width:0.8;"/>
     </g>
     <g id="line2d_2">
      <defs>
       <path d="M 0 0 
L 0 3.5 
" id="m106b87b624" style="stroke:#555555;stroke-width:0.8;"/>
      </defs>
      <g>
       <use style="fill:#555555;stroke:#555555;stroke-width:0.8;" x="115.363636" xlink:href="#m106b87b624" y="157.5"/>
      </g>
     </g>
     <g id="text_1">
      <!-- 2020-01-22 -->
      <defs>
       <path d="M 7.296875 5.59375 
L 15.40625 13.796875 
Q 23.5 21.90625 27.546875 26.5 
Q 31.59375 31.09375 34 35.640625 
Q 36.40625 40.203125 36.40625 45.09375 
Q 36.40625 51.203125 33.5 53.890625 
Q 30.59375 56.59375 25.796875 56.59375 
Q 21.5 56.59375 17.84375 54.6875 
Q 14.203125 52.796875 13 50.5 
Q 12.40625 49.40625 11.796875 48.25 
Q 11.203125 47.09375 11.203125 46.90625 
Q 11.203125 46.796875 11.296875 46.796875 
Q 11.40625 46.796875 11.703125 46.9375 
Q 12 47.09375 12.09375 46.703125 
L 11.796875 46.09375 
L 10.90625 46.59375 
L 5.796875 50.59375 
Q 8.796875 56.40625 14 59.546875 
Q 19.203125 62.703125 25.703125 62.703125 
Q 33.703125 62.703125 38.640625 57.890625 
Q 43.59375 53.09375 43.59375 44.90625 
Q 43.59375 39.5 41 34.390625 
Q 38.40625 29.296875 34.34375 24.6875 
Q 30.296875 20.09375 23.09375 13 
L 16.296875 6.09375 
L 39.5 6.09375 
Q 41.09375 6.09375 41.84375 6.296875 
Q 42.59375 6.5 43.203125 7.09375 
L 43.90625 7.09375 
L 43.90625 0 
L 7.296875 0 
z
" id="Inconsolata-Regular-50"/>
       <path d="M 25 62.703125 
Q 34.203125 62.703125 39.25 54.203125 
Q 44.296875 45.703125 44.296875 30.796875 
Q 44.296875 15.5 39.296875 7.203125 
Q 34.296875 -1.09375 25 -1.09375 
Q 15.703125 -1.09375 10.703125 7.203125 
Q 5.703125 15.5 5.703125 30.796875 
Q 5.703125 45.703125 10.75 54.203125 
Q 15.796875 62.703125 25 62.703125 
z
M 25 56.59375 
Q 19.296875 56.59375 16.09375 49.640625 
Q 12.90625 42.703125 12.90625 30.796875 
Q 12.90625 24.296875 13.796875 19.296875 
L 35 46.703125 
Q 33.5 51.5 30.953125 54.046875 
Q 28.40625 56.59375 25 56.59375 
z
M 25 5 
Q 30.703125 5 33.890625 11.703125 
Q 37.09375 18.40625 37.09375 30.796875 
Q 37.09375 36.59375 36.40625 40.796875 
L 15.203125 13.796875 
Q 18.40625 5 25 5 
z
" id="Inconsolata-Regular-48"/>
       <path d="M 7.09375 28.09375 
L 7.09375 34.796875 
L 43.09375 34.796875 
L 43.09375 28.09375 
z
" id="Inconsolata-Regular-45"/>
       <path d="M 23 0 
L 23 53.703125 
L 10.40625 50 
L 8.796875 53.90625 
L 25.09375 62.40625 
L 30 62.40625 
L 30 0 
z
" id="Inconsolata-Regular-49"/>
      </defs>
      <g style="fill:#555555;" transform="translate(90.363636 171.15)scale(0.1 -0.1)">
       <use xlink:href="#Inconsolata-Regular-50"/>
       <use x="49.999985" xlink:href="#Inconsolata-Regular-48"/>
       <use x="99.999969" xlink:href="#Inconsolata-Regular-50"/>
       <use x="149.999954" xlink:href="#Inconsolata-Regular-48"/>
       <use x="199.999939" xlink:href="#Inconsolata-Regular-45"/>
       <use x="249.999924" xlink:href="#Inconsolata-Regular-48"/>
       <use x="299.999908" xlink:href="#Inconsolata-Regular-49"/>
       <use x="349.999893" xlink:href="#Inconsolata-Regular-45"/>
       <use x="399.999878" xlink:href="#Inconsolata-Regular-50"/>
       <use x="449.999863" xlink:href="#Inconsolata-Regular-50"/>
      </g>
     </g>
    </g>
    <g id="xtick_2">
     <g id="line2d_3">
      <path clip-path="url(#p04115e0b5a)" d="M 152.939394 157.5 
L 152.939394 21.6 
" style="fill:none;stroke:#ffffff;stroke-linecap:square;stroke-width:0.8;"/>
     </g>
     <g id="line2d_4">
      <g>
       <use style="fill:#555555;stroke:#555555;stroke-width:0.8;" x="152.939394" xlink:href="#m106b87b624" y="157.5"/>
      </g>
     </g>
     <g id="text_2">
      <!-- 2020-02-01 -->
      <g style="fill:#555555;" transform="translate(127.939394 171.15)scale(0.1 -0.1)">
       <use xlink:href="#Inconsolata-Regular-50"/>
       <use x="49.999985" xlink:href="#Inconsolata-Regular-48"/>
       <use x="99.999969" xlink:href="#Inconsolata-Regular-50"/>
       <use x="149.999954" xlink:href="#Inconsolata-Regular-48"/>
       <use x="199.999939" xlink:href="#Inconsolata-Regular-45"/>
       <use x="249.999924" xlink:href="#Inconsolata-Regular-48"/>
       <use x="299.999908" xlink:href="#Inconsolata-Regular-50"/>
       <use x="349.999893" xlink:href="#Inconsolata-Regular-45"/>
       <use x="399.999878" xlink:href="#Inconsolata-Regular-48"/>
       <use x="449.999863" xlink:href="#Inconsolata-Regular-49"/>
      </g>
     </g>
    </g>
    <g id="xtick_3">
     <g id="line2d_5">
      <path clip-path="url(#p04115e0b5a)" d="M 231.848485 157.5 
L 231.848485 21.6 
" style="fill:none;stroke:#ffffff;stroke-linecap:square;stroke-width:0.8;"/>
     </g>
     <g id="line2d_6">
      <g>
       <use style="fill:#555555;stroke:#555555;stroke-width:0.8;" x="231.848485" xlink:href="#m106b87b624" y="157.5"/>
      </g>
     </g>
     <g id="text_3">
      <!-- 2020-02-22 -->
      <g style="fill:#555555;" transform="translate(206.848485 171.15)scale(0.1 -0.1)">
       <use xlink:href="#Inconsolata-Regular-50"/>
       <use x="49.999985" xlink:href="#Inconsolata-Regular-48"/>
       <use x="99.999969" xlink:href="#Inconsolata-Regular-50"/>
       <use x="149.999954" xlink:href="#Inconsolata-Regular-48"/>
       <use x="199.999939" xlink:href="#Inconsolata-Regular-45"/>
       <use x="249.999924" xlink:href="#Inconsolata-Regular-48"/>
       <use x="299.999908" xlink:href="#Inconsolata-Regular-50"/>
       <use x="349.999893" xlink:href="#Inconsolata-Regular-45"/>
       <use x="399.999878" xlink:href="#Inconsolata-Regular-50"/>
       <use x="449.999863" xlink:href="#Inconsolata-Regular-50"/>
      </g>
     </g>
    </g>
    <g id="xtick_4">
     <g id="line2d_7">
      <path clip-path="url(#p04115e0b5a)" d="M 261.909091 157.5 
L 261.909091 21.6 
" style="fill:none;stroke:#ffffff;stroke-linecap:square;stroke-width:0.8;"/>
     </g>
     <g id="line2d_8">
      <g>
       <use style="fill:#555555;stroke:#555555;stroke-width:0.8;" x="261.909091" xlink:href="#m106b87b624" y="157.5"/>
      </g>
     </g>
     <g id="text_4">
      <!-- 2020-03-01 -->
      <defs>
       <path d="M 30.796875 33 
Q 36.296875 31.203125 39.5 27.203125 
Q 42.703125 23.203125 42.703125 17.09375 
Q 42.703125 12.09375 40.5 7.9375 
Q 38.296875 3.796875 34.09375 1.34375 
Q 29.90625 -1.09375 24 -1.09375 
Q 19 -1.09375 14.546875 0.703125 
Q 10.09375 2.5 6.90625 6 
L 11.5 11.5 
L 11.59375 11.59375 
L 11.703125 11.5 
Q 14.203125 8.296875 16.84375 6.59375 
Q 19.5 4.90625 23.703125 4.90625 
Q 29.5 4.90625 32.5 8.296875 
Q 35.5 11.703125 35.5 17.40625 
Q 35.5 23.59375 31.75 26.6875 
Q 28 29.796875 21.203125 29.796875 
Q 20.203125 29.796875 18 29.59375 
L 18 35.203125 
Q 26.90625 35.203125 30.15625 38.5 
Q 33.40625 41.796875 33.40625 47.5 
Q 33.40625 51.703125 30.953125 54.203125 
Q 28.5 56.703125 24.5 56.703125 
Q 18 56.703125 13.09375 52.09375 
L 8.90625 56.296875 
Q 15 62.703125 24.40625 62.703125 
Q 31.90625 62.703125 36.25 58.453125 
Q 40.59375 54.203125 40.59375 47.203125 
Q 40.59375 42.09375 38.09375 38.296875 
Q 35.59375 34.5 30.796875 33 
z
M 12.703125 11.796875 
Q 12.703125 11.5 12.390625 11.546875 
Q 12.09375 11.59375 11.796875 11.796875 
L 12.203125 12.296875 
L 12.703125 11.796875 
z
M 11.59375 11.59375 
Q 11.203125 12.296875 11.453125 12.09375 
Q 11.703125 11.90625 11.796875 11.796875 
L 11.59375 11.59375 
z
" id="Inconsolata-Regular-51"/>
      </defs>
      <g style="fill:#555555;" transform="translate(236.909091 171.15)scale(0.1 -0.1)">
       <use xlink:href="#Inconsolata-Regular-50"/>
       <use x="49.999985" xlink:href="#Inconsolata-Regular-48"/>
       <use x="99.999969" xlink:href="#Inconsolata-Regular-50"/>
       <use x="149.999954" xlink:href="#Inconsolata-Regular-48"/>
       <use x="199.999939" xlink:href="#Inconsolata-Regular-45"/>
       <use x="249.999924" xlink:href="#Inconsolata-Regular-48"/>
       <use x="299.999908" xlink:href="#Inconsolata-Regular-51"/>
       <use x="349.999893" xlink:href="#Inconsolata-Regular-45"/>
       <use x="399.999878" xlink:href="#Inconsolata-Regular-48"/>
       <use x="449.999863" xlink:href="#Inconsolata-Regular-49"/>
      </g>
     </g>
    </g>
    <g id="xtick_5">
     <g id="line2d_9">
      <path clip-path="url(#p04115e0b5a)" d="M 340.818182 157.5 
L 340.818182 21.6 
" style="fill:none;stroke:#ffffff;stroke-linecap:square;stroke-width:0.8;"/>
     </g>
     <g id="line2d_10">
      <g>
       <use style="fill:#555555;stroke:#555555;stroke-width:0.8;" x="340.818182" xlink:href="#m106b87b624" y="157.5"/>
      </g>
     </g>
     <g id="text_5">
      <!-- 2020-03-22 -->
      <g style="fill:#555555;" transform="translate(315.818182 171.15)scale(0.1 -0.1)">
       <use xlink:href="#Inconsolata-Regular-50"/>
       <use x="49.999985" xlink:href="#Inconsolata-Regular-48"/>
       <use x="99.999969" xlink:href="#Inconsolata-Regular-50"/>
       <use x="149.999954" xlink:href="#Inconsolata-Regular-48"/>
       <use x="199.999939" xlink:href="#Inconsolata-Regular-45"/>
       <use x="249.999924" xlink:href="#Inconsolata-Regular-48"/>
       <use x="299.999908" xlink:href="#Inconsolata-Regular-51"/>
       <use x="349.999893" xlink:href="#Inconsolata-Regular-45"/>
       <use x="399.999878" xlink:href="#Inconsolata-Regular-50"/>
       <use x="449.999863" xlink:href="#Inconsolata-Regular-50"/>
      </g>
     </g>
    </g>
    <g id="xtick_6">
     <g id="line2d_11">
      <path clip-path="url(#p04115e0b5a)" d="M 378.393939 157.5 
L 378.393939 21.6 
" style="fill:none;stroke:#ffffff;stroke-linecap:square;stroke-width:0.8;"/>
     </g>
     <g id="line2d_12">
      <g>
       <use style="fill:#555555;stroke:#555555;stroke-width:0.8;" x="378.393939" xlink:href="#m106b87b624" y="157.5"/>
      </g>
     </g>
     <g id="text_6">
      <!-- 2020-04-01 -->
      <defs>
       <path d="M 31.796875 0 
L 31.796875 15.296875 
L 4.796875 15.296875 
L 4.796875 20.40625 
L 33.296875 62.40625 
L 39.203125 62.40625 
L 39.203125 21.09375 
L 47.203125 21.09375 
L 47.203125 15.203125 
L 39.203125 15.203125 
L 39.203125 0 
z
M 12.90625 21.203125 
L 31.796875 21.203125 
L 31.796875 49.796875 
z
" id="Inconsolata-Regular-52"/>
      </defs>
      <g style="fill:#555555;" transform="translate(353.393939 171.15)scale(0.1 -0.1)">
       <use xlink:href="#Inconsolata-Regular-50"/>
       <use x="49.999985" xlink:href="#Inconsolata-Regular-48"/>
       <use x="99.999969" xlink:href="#Inconsolata-Regular-50"/>
       <use x="149.999954" xlink:href="#Inconsolata-Regular-48"/>
       <use x="199.999939" xlink:href="#Inconsolata-Regular-45"/>
       <use x="249.999924" xlink:href="#Inconsolata-Regular-48"/>
       <use x="299.999908" xlink:href="#Inconsolata-Regular-52"/>
       <use x="349.999893" xlink:href="#Inconsolata-Regular-45"/>
       <use x="399.999878" xlink:href="#Inconsolata-Regular-48"/>
       <use x="449.999863" xlink:href="#Inconsolata-Regular-49"/>
      </g>
     </g>
    </g>
    <g id="xtick_7">
     <g id="line2d_13">
      <path clip-path="url(#p04115e0b5a)" d="M 457.30303 157.5 
L 457.30303 21.6 
" style="fill:none;stroke:#ffffff;stroke-linecap:square;stroke-width:0.8;"/>
     </g>
     <g id="line2d_14">
      <g>
       <use style="fill:#555555;stroke:#555555;stroke-width:0.8;" x="457.30303" xlink:href="#m106b87b624" y="157.5"/>
      </g>
     </g>
     <g id="text_7">
      <!-- 2020-04-22 -->
      <g style="fill:#555555;" transform="translate(432.30303 171.15)scale(0.1 -0.1)">
       <use xlink:href="#Inconsolata-Regular-50"/>
       <use x="49.999985" xlink:href="#Inconsolata-Regular-48"/>
       <use x="99.999969" xlink:href="#Inconsolata-Regular-50"/>
       <use x="149.999954" xlink:href="#Inconsolata-Regular-48"/>
       <use x="199.999939" xlink:href="#Inconsolata-Regular-45"/>
       <use x="249.999924" xlink:href="#Inconsolata-Regular-48"/>
       <use x="299.999908" xlink:href="#Inconsolata-Regular-52"/>
       <use x="349.999893" xlink:href="#Inconsolata-Regular-45"/>
       <use x="399.999878" xlink:href="#Inconsolata-Regular-50"/>
       <use x="449.999863" xlink:href="#Inconsolata-Regular-50"/>
      </g>
     </g>
    </g>
    <g id="xtick_8">
     <g id="line2d_15">
      <path clip-path="url(#p04115e0b5a)" d="M 491.121212 157.5 
L 491.121212 21.6 
" style="fill:none;stroke:#ffffff;stroke-linecap:square;stroke-width:0.8;"/>
     </g>
     <g id="line2d_16">
      <g>
       <use style="fill:#555555;stroke:#555555;stroke-width:0.8;" x="491.121212" xlink:href="#m106b87b624" y="157.5"/>
      </g>
     </g>
     <g id="text_8">
      <!-- 2020-05-01 -->
      <defs>
       <path d="M 25.703125 40.5 
Q 31.09375 40.5 35.34375 37.953125 
Q 39.59375 35.40625 42.046875 30.65625 
Q 44.5 25.90625 44.5 19.59375 
Q 44.5 13.296875 41.953125 8.59375 
Q 39.40625 3.90625 34.953125 1.40625 
Q 30.5 -1.09375 24.90625 -1.09375 
Q 19.203125 -1.09375 14.34375 1.40625 
Q 9.5 3.90625 6.40625 8.5 
L 12 12.703125 
L 12.09375 12.796875 
Q 12.203125 12.796875 12.203125 12.75 
Q 12.203125 12.703125 12.203125 12.703125 
Q 14.796875 8.703125 17.6875 6.84375 
Q 20.59375 5 25.296875 5 
Q 28.5 5 31.296875 6.84375 
Q 34.09375 8.703125 35.75 12.046875 
Q 37.40625 15.40625 37.40625 19.90625 
Q 37.40625 26.703125 33.75 30.703125 
Q 30.09375 34.703125 24.59375 34.703125 
Q 21.40625 34.703125 18.296875 33.140625 
Q 15.203125 31.59375 12.90625 28.796875 
L 8.5 30.59375 
L 10.59375 62.296875 
L 42.203125 62.296875 
L 42.203125 56 
L 16.5 56 
L 15.5 38.09375 
Q 20.40625 40.5 25.703125 40.5 
z
M 12.09375 12.796875 
Q 11.59375 13.59375 12.296875 12.90625 
L 12.09375 12.796875 
z
M 13.203125 12.796875 
Q 13.203125 12.203125 12.296875 12.90625 
L 12.796875 13.296875 
L 13.203125 12.796875 
z
" id="Inconsolata-Regular-53"/>
      </defs>
      <g style="fill:#555555;" transform="translate(466.121212 171.15)scale(0.1 -0.1)">
       <use xlink:href="#Inconsolata-Regular-50"/>
       <use x="49.999985" xlink:href="#Inconsolata-Regular-48"/>
       <use x="99.999969" xlink:href="#Inconsolata-Regular-50"/>
       <use x="149.999954" xlink:href="#Inconsolata-Regular-48"/>
       <use x="199.999939" xlink:href="#Inconsolata-Regular-45"/>
       <use x="249.999924" xlink:href="#Inconsolata-Regular-48"/>
       <use x="299.999908" xlink:href="#Inconsolata-Regular-53"/>
       <use x="349.999893" xlink:href="#Inconsolata-Regular-45"/>
       <use x="399.999878" xlink:href="#Inconsolata-Regular-48"/>
       <use x="449.999863" xlink:href="#Inconsolata-Regular-49"/>
      </g>
     </g>
    </g>
    <g id="xtick_9">
     <g id="line2d_17">
      <path clip-path="url(#p04115e0b5a)" d="M 570.030303 157.5 
L 570.030303 21.6 
" style="fill:none;stroke:#ffffff;stroke-linecap:square;stroke-width:0.8;"/>
     </g>
     <g id="line2d_18">
      <g>
       <use style="fill:#555555;stroke:#555555;stroke-width:0.8;" x="570.030303" xlink:href="#m106b87b624" y="157.5"/>
      </g>
     </g>
     <g id="text_9">
      <!-- 2020-05-22 -->
      <g style="fill:#555555;" transform="translate(545.030303 171.15)scale(0.1 -0.1)">
       <use xlink:href="#Inconsolata-Regular-50"/>
       <use x="49.999985" xlink:href="#Inconsolata-Regular-48"/>
       <use x="99.999969" xlink:href="#Inconsolata-Regular-50"/>
       <use x="149.999954" xlink:href="#Inconsolata-Regular-48"/>
       <use x="199.999939" xlink:href="#Inconsolata-Regular-45"/>
       <use x="249.999924" xlink:href="#Inconsolata-Regular-48"/>
       <use x="299.999908" xlink:href="#Inconsolata-Regular-53"/>
       <use x="349.999893" xlink:href="#Inconsolata-Regular-45"/>
       <use x="399.999878" xlink:href="#Inconsolata-Regular-50"/>
       <use x="449.999863" xlink:href="#Inconsolata-Regular-50"/>
      </g>
     </g>
    </g>
    <g id="xtick_10">
     <g id="line2d_19">
      <path clip-path="url(#p04115e0b5a)" d="M 607.606061 157.5 
L 607.606061 21.6 
" style="fill:none;stroke:#ffffff;stroke-linecap:square;stroke-width:0.8;"/>
     </g>
     <g id="line2d_20">
      <g>
       <use style="fill:#555555;stroke:#555555;stroke-width:0.8;" x="607.606061" xlink:href="#m106b87b624" y="157.5"/>
      </g>
     </g>
     <g id="text_10">
      <!-- 2020-06-01 -->
      <defs>
       <path d="M 26.796875 40.203125 
Q 31.5 40.203125 35.390625 37.640625 
Q 39.296875 35.09375 41.59375 30.4375 
Q 43.90625 25.796875 43.90625 19.796875 
Q 43.90625 13.703125 41.546875 9 
Q 39.203125 4.296875 35.09375 1.640625 
Q 31 -1 26.09375 -1 
Q 16.90625 -1 11.796875 6.84375 
Q 6.703125 14.703125 6.703125 28.40625 
Q 6.703125 39.40625 9.390625 47.203125 
Q 12.09375 55 17.046875 59 
Q 22 63 28.703125 63 
Q 36.5 63 42.40625 57.296875 
L 38 52.296875 
L 37.90625 52.203125 
Q 35.796875 54.796875 33.84375 55.796875 
Q 31.90625 56.796875 28.90625 56.796875 
Q 25.59375 56.796875 22.1875 54.75 
Q 18.796875 52.703125 16.25 47.34375 
Q 13.703125 42 13.59375 32.703125 
Q 15.703125 36.203125 19.25 38.203125 
Q 22.796875 40.203125 26.796875 40.203125 
z
M 36.796875 52 
Q 36.796875 52.59375 37.703125 51.90625 
L 37.296875 51.5 
L 36.796875 52 
z
M 37.90625 52.203125 
Q 38.5 51.40625 38.140625 51.65625 
Q 37.796875 51.90625 37.703125 51.90625 
L 37.90625 52.203125 
z
M 26.40625 5.203125 
Q 30.90625 5.203125 34 9.046875 
Q 37.09375 12.90625 37.09375 19.703125 
Q 37.09375 24.40625 35.5 27.65625 
Q 33.90625 30.90625 31.40625 32.5 
Q 28.90625 34.09375 26.203125 34.09375 
Q 22.703125 34.09375 19.390625 31.75 
Q 16.09375 29.40625 14 25.703125 
Q 13.796875 24.09375 13.796875 23.09375 
Q 13.796875 18.703125 15.34375 14.59375 
Q 16.90625 10.5 19.796875 7.84375 
Q 22.703125 5.203125 26.40625 5.203125 
z
" id="Inconsolata-Regular-54"/>
      </defs>
      <g style="fill:#555555;" transform="translate(582.606061 171.15)scale(0.1 -0.1)">
       <use xlink:href="#Inconsolata-Regular-50"/>
       <use x="49.999985" xlink:href="#Inconsolata-Regular-48"/>
       <use x="99.999969" xlink:href="#Inconsolata-Regular-50"/>
       <use x="149.999954" xlink:href="#Inconsolata-Regular-48"/>
       <use x="199.999939" xlink:href="#Inconsolata-Regular-45"/>
       <use x="249.999924" xlink:href="#Inconsolata-Regular-48"/>
       <use x="299.999908" xlink:href="#Inconsolata-Regular-54"/>
       <use x="349.999893" xlink:href="#Inconsolata-Regular-45"/>
       <use x="399.999878" xlink:href="#Inconsolata-Regular-48"/>
       <use x="449.999863" xlink:href="#Inconsolata-Regular-49"/>
      </g>
     </g>
    </g>
   </g>
   <g id="matplotlib.axis_2">
    <g id="ytick_1">
     <g id="line2d_21">
      <path clip-path="url(#p04115e0b5a)" d="M 90 157.5 
L 648 157.5 
" style="fill:none;stroke:#ffffff;stroke-linecap:square;stroke-width:0.8;"/>
     </g>
     <g id="line2d_22">
      <defs>
       <path d="M 0 0 
L -3.5 0 
" id="m6c3f352d46" style="stroke:#555555;stroke-width:0.8;"/>
      </defs>
      <g>
       <use style="fill:#555555;stroke:#555555;stroke-width:0.8;" x="90" xlink:href="#m6c3f352d46" y="157.5"/>
      </g>
     </g>
     <g id="line2d_23">
      <defs>
       <path d="M 0 0 
L 3.5 0 
" id="m8c5ff56b16" style="stroke:#555555;stroke-width:0.8;"/>
      </defs>
      <g>
       <use style="fill:#555555;stroke:#555555;stroke-width:0.8;" x="648" xlink:href="#m8c5ff56b16" y="157.5"/>
      </g>
     </g>
     <g id="text_11">
      <!-- 0 -->
      <g style="fill:#555555;" transform="translate(78 160.825)scale(0.1 -0.1)">
       <use xlink:href="#Inconsolata-Regular-48"/>
      </g>
     </g>
     <g id="text_12">
      <!-- 0 -->
      <g style="fill:#555555;" transform="translate(655 160.825)scale(0.1 -0.1)">
       <use xlink:href="#Inconsolata-Regular-48"/>
      </g>
     </g>
    </g>
    <g id="ytick_2">
     <g id="line2d_24">
      <path clip-path="url(#p04115e0b5a)" d="M 90 118.272268 
L 648 118.272268 
" style="fill:none;stroke:#ffffff;stroke-linecap:square;stroke-width:0.8;"/>
     </g>
     <g id="line2d_25">
      <g>
       <use style="fill:#555555;stroke:#555555;stroke-width:0.8;" x="90" xlink:href="#m6c3f352d46" y="118.272268"/>
      </g>
     </g>
     <g id="line2d_26">
      <g>
       <use style="fill:#555555;stroke:#555555;stroke-width:0.8;" x="648" xlink:href="#m8c5ff56b16" y="118.272268"/>
      </g>
     </g>
     <g id="text_13">
      <!-- 500 -->
      <g style="fill:#555555;" transform="translate(68 121.597268)scale(0.1 -0.1)">
       <use xlink:href="#Inconsolata-Regular-53"/>
       <use x="49.999985" xlink:href="#Inconsolata-Regular-48"/>
       <use x="99.999969" xlink:href="#Inconsolata-Regular-48"/>
      </g>
     </g>
     <g id="text_14">
      <!-- 500 -->
      <g style="fill:#555555;" transform="translate(655 121.597268)scale(0.1 -0.1)">
       <use xlink:href="#Inconsolata-Regular-53"/>
       <use x="49.999985" xlink:href="#Inconsolata-Regular-48"/>
       <use x="99.999969" xlink:href="#Inconsolata-Regular-48"/>
      </g>
     </g>
    </g>
    <g id="ytick_3">
     <g id="line2d_27">
      <path clip-path="url(#p04115e0b5a)" d="M 90 79.044535 
L 648 79.044535 
" style="fill:none;stroke:#ffffff;stroke-linecap:square;stroke-width:0.8;"/>
     </g>
     <g id="line2d_28">
      <g>
       <use style="fill:#555555;stroke:#555555;stroke-width:0.8;" x="90" xlink:href="#m6c3f352d46" y="79.044535"/>
      </g>
     </g>
     <g id="line2d_29">
      <g>
       <use style="fill:#555555;stroke:#555555;stroke-width:0.8;" x="648" xlink:href="#m8c5ff56b16" y="79.044535"/>
      </g>
     </g>
     <g id="text_15">
      <!-- 1000 -->
      <g style="fill:#555555;" transform="translate(63 82.369535)scale(0.1 -0.1)">
       <use xlink:href="#Inconsolata-Regular-49"/>
       <use x="49.999985" xlink:href="#Inconsolata-Regular-48"/>
       <use x="99.999969" xlink:href="#Inconsolata-Regular-48"/>
       <use x="149.999954" xlink:href="#Inconsolata-Regular-48"/>
      </g>
     </g>
     <g id="text_16">
      <!-- 1000 -->
      <g style="fill:#555555;" transform="translate(655 82.369535)scale(0.1 -0.1)">
       <use xlink:href="#Inconsolata-Regular-49"/>
       <use x="49.999985" xlink:href="#Inconsolata-Regular-48"/>
       <use x="99.999969" xlink:href="#Inconsolata-Regular-48"/>
       <use x="149.999954" xlink:href="#Inconsolata-Regular-48"/>
      </g>
     </g>
    </g>
    <g id="ytick_4">
     <g id="line2d_30">
      <path clip-path="url(#p04115e0b5a)" d="M 90 39.816803 
L 648 39.816803 
" style="fill:none;stroke:#ffffff;stroke-linecap:square;stroke-width:0.8;"/>
     </g>
     <g id="line2d_31">
      <g>
       <use style="fill:#555555;stroke:#555555;stroke-width:0.8;" x="90" xlink:href="#m6c3f352d46" y="39.816803"/>
      </g>
     </g>
     <g id="line2d_32">
      <g>
       <use style="fill:#555555;stroke:#555555;stroke-width:0.8;" x="648" xlink:href="#m8c5ff56b16" y="39.816803"/>
      </g>
     </g>
     <g id="text_17">
      <!-- 1500 -->
      <g style="fill:#555555;" transform="translate(63 43.141803)scale(0.1 -0.1)">
       <use xlink:href="#Inconsolata-Regular-49"/>
       <use x="49.999985" xlink:href="#Inconsolata-Regular-53"/>
       <use x="99.999969" xlink:href="#Inconsolata-Regular-48"/>
       <use x="149.999954" xlink:href="#Inconsolata-Regular-48"/>
      </g>
     </g>
     <g id="text_18">
      <!-- 1500 -->
      <g style="fill:#555555;" transform="translate(655 43.141803)scale(0.1 -0.1)">
       <use xlink:href="#Inconsolata-Regular-49"/>
       <use x="49.999985" xlink:href="#Inconsolata-Regular-53"/>
       <use x="99.999969" xlink:href="#Inconsolata-Regular-48"/>
       <use x="149.999954" xlink:href="#Inconsolata-Regular-48"/>
      </g>
     </g>
    </g>
    <g id="text_19">
     <!-- doubling time [days] -->
     <defs>
      <path d="M 23.40625 -1 
Q 18.5 -1 14.203125 1.75 
Q 9.90625 4.5 7.203125 10 
Q 4.5 15.5 4.5 23.296875 
Q 4.5 31.203125 7.296875 36.5 
Q 10.09375 41.796875 14.5 44.34375 
Q 18.90625 46.90625 23.796875 46.90625 
Q 28.40625 46.90625 31.84375 44.796875 
Q 35.296875 42.703125 37.09375 39 
L 37.09375 66.5 
L 44.703125 66.5 
L 44.703125 65.796875 
Q 44.09375 65.203125 43.9375 64.5 
Q 43.796875 63.796875 43.796875 62.09375 
L 43.90625 7.09375 
Q 43.90625 4.703125 44.046875 3.140625 
Q 44.203125 1.59375 44.90625 0 
L 37.796875 0 
Q 37.09375 1.59375 36.9375 3.140625 
Q 36.796875 4.703125 36.796875 7.09375 
Q 34.59375 3.296875 31.140625 1.140625 
Q 27.703125 -1 23.40625 -1 
z
M 24.5 5.296875 
Q 30.703125 5.296875 33.59375 10.1875 
Q 36.5 15.09375 36.5 23.09375 
Q 36.5 31.203125 33.34375 36.09375 
Q 30.203125 41 23.90625 41 
Q 17.90625 41 14.703125 36.546875 
Q 11.5 32.09375 11.5 24.40625 
Q 11.5 15.59375 14.84375 10.4375 
Q 18.203125 5.296875 24.5 5.296875 
z
" id="Inconsolata-Regular-100"/>
      <path d="M 25 -0.796875 
Q 18.90625 -0.796875 14.09375 2.203125 
Q 9.296875 5.203125 6.59375 10.59375 
Q 3.90625 16 3.90625 22.90625 
Q 3.90625 29.796875 6.59375 35.1875 
Q 9.296875 40.59375 14.09375 43.640625 
Q 18.90625 46.703125 25 46.703125 
Q 31.09375 46.703125 35.890625 43.640625 
Q 40.703125 40.59375 43.390625 35.1875 
Q 46.09375 29.796875 46.09375 22.90625 
Q 46.09375 16 43.390625 10.59375 
Q 40.703125 5.203125 35.890625 2.203125 
Q 31.09375 -0.796875 25 -0.796875 
z
M 25 5.203125 
Q 28.90625 5.203125 31.953125 7.5 
Q 35 9.796875 36.75 13.84375 
Q 38.5 17.90625 38.5 23 
Q 38.5 30.796875 34.703125 35.75 
Q 30.90625 40.703125 25 40.703125 
Q 19.09375 40.703125 15.296875 35.75 
Q 11.5 30.796875 11.5 23 
Q 11.5 17.90625 13.25 13.84375 
Q 15 9.796875 18.046875 7.5 
Q 21.09375 5.203125 25 5.203125 
z
" id="Inconsolata-Regular-111"/>
      <path d="M 22.09375 -1.09375 
Q 14.90625 -1.09375 10.59375 4.25 
Q 6.296875 9.59375 6.40625 20.203125 
L 6.5 45.703125 
L 13.5 45.703125 
L 13.5 20.203125 
Q 13.5 12 16.34375 8.34375 
Q 19.203125 4.703125 23.90625 4.703125 
Q 29.09375 4.703125 32.640625 8.75 
Q 36.203125 12.796875 36.203125 20.5 
L 36.203125 45.703125 
L 43.203125 45.703125 
L 43.203125 7.09375 
Q 43.203125 4.703125 43.34375 3.140625 
Q 43.5 1.59375 44.203125 0 
L 37.296875 0 
Q 36.59375 1.5 36.4375 3.09375 
Q 36.296875 4.703125 36.296875 7 
Q 34.09375 3.203125 30.34375 1.046875 
Q 26.59375 -1.09375 22.09375 -1.09375 
z
" id="Inconsolata-Regular-117"/>
      <path d="M 26.59375 -1.09375 
Q 22.5 -1.09375 19 0.75 
Q 15.5 2.59375 13.09375 6 
L 10.59375 0 
L 6 0 
L 6 66.5 
L 14.203125 66.5 
L 14.203125 65.796875 
Q 13.59375 65.203125 13.4375 64.5 
Q 13.296875 63.796875 13.296875 62.09375 
L 13.296875 38.703125 
Q 15.5 42.40625 19.25 44.59375 
Q 23 46.796875 26.90625 46.796875 
Q 35.5 46.796875 40.59375 40.796875 
Q 45.703125 34.796875 45.703125 23.296875 
Q 45.703125 15.5 43 9.953125 
Q 40.296875 4.40625 35.890625 1.65625 
Q 31.5 -1.09375 26.59375 -1.09375 
z
M 25.703125 5.296875 
Q 31.09375 5.296875 34.6875 9.546875 
Q 38.296875 13.796875 38.296875 22.90625 
Q 38.296875 31.703125 34.9375 36.140625 
Q 31.59375 40.59375 25.90625 40.59375 
Q 20.296875 40.59375 16.796875 35.59375 
Q 13.296875 30.59375 13.296875 22.703125 
Q 13.296875 5.296875 25.703125 5.296875 
z
" id="Inconsolata-Regular-98"/>
      <path d="M 7.90625 0 
L 7.90625 5.796875 
L 21.40625 5.796875 
L 21.40625 60.703125 
L 8.5 60.703125 
L 8.5 66.5 
L 28.703125 66.5 
L 28.703125 5.796875 
L 42.09375 5.796875 
L 42.09375 0 
z
" id="Inconsolata-Regular-108"/>
      <path d="M 10 0 
L 10 5.796875 
L 21.703125 5.796875 
L 21.703125 39.90625 
L 10.59375 39.90625 
L 10.59375 45.703125 
L 28.90625 45.703125 
L 28.90625 5.796875 
L 39.59375 5.796875 
L 39.59375 0 
z
M 24.90625 55.296875 
Q 22.796875 55.296875 21.296875 56.796875 
Q 19.796875 58.296875 19.796875 60.40625 
Q 19.796875 62.59375 21.25 64.09375 
Q 22.703125 65.59375 24.90625 65.59375 
Q 27 65.59375 28.546875 64.046875 
Q 30.09375 62.5 30.09375 60.40625 
Q 30.09375 58.296875 28.546875 56.796875 
Q 27 55.296875 24.90625 55.296875 
z
" id="Inconsolata-Regular-105"/>
      <path d="M 7.203125 45.703125 
L 14.203125 45.703125 
L 14.203125 37.59375 
Q 16.90625 41.796875 21 44.296875 
Q 25.09375 46.796875 29.703125 46.796875 
Q 35.796875 46.796875 39.4375 42.140625 
Q 43.09375 37.5 43.09375 27.703125 
L 43.09375 0 
L 36.09375 0 
L 36.09375 27.5 
Q 36.09375 34.296875 33.796875 37.390625 
Q 31.5 40.5 27.703125 40.5 
Q 24.59375 40.5 21.4375 38.703125 
Q 18.296875 36.90625 16.25 33.65625 
Q 14.203125 30.40625 14.203125 26.296875 
L 14.203125 0 
L 7.203125 0 
z
" id="Inconsolata-Regular-110"/>
      <path d="M 47.5 41 
Q 46.59375 41.09375 44.90625 41.09375 
Q 40.09375 41.09375 36.90625 39 
Q 38.59375 35.59375 38.59375 31.5 
Q 38.59375 27 36.640625 23.34375 
Q 34.703125 19.703125 31.046875 17.59375 
Q 27.40625 15.5 22.59375 15.5 
Q 18.796875 15.5 15.5 16.90625 
Q 13.703125 14.703125 13.703125 12.703125 
Q 13.703125 10.296875 16.75 9.25 
Q 19.796875 8.203125 27.703125 8.203125 
Q 37.40625 8.203125 40.953125 5.25 
Q 44.5 2.296875 44.5 -3.40625 
Q 44.5 -9.296875 39.703125 -13.25 
Q 34.90625 -17.203125 24.703125 -17.203125 
Q 14.90625 -17.203125 9.34375 -14.203125 
Q 3.796875 -11.203125 3.796875 -5.40625 
Q 3.796875 -1.796875 5.796875 0.796875 
Q 7.796875 3.40625 10.90625 4.90625 
Q 7.59375 7.09375 7.59375 11 
Q 7.59375 15 11.703125 19.40625 
Q 9.203125 21.59375 7.890625 24.6875 
Q 6.59375 27.796875 6.59375 31.5 
Q 6.59375 35.90625 8.546875 39.546875 
Q 10.5 43.203125 14.140625 45.296875 
Q 17.796875 47.40625 22.59375 47.40625 
Q 29.90625 47.40625 34.296875 42.703125 
Q 36.703125 44.90625 39.25 45.953125 
Q 41.796875 47 44.90625 47 
L 46.59375 46.90625 
L 47.5 41 
z
M 22.59375 21.5 
Q 26.90625 21.5 29.75 24.390625 
Q 32.59375 27.296875 32.59375 31.5 
Q 32.59375 35.703125 29.75 38.59375 
Q 26.90625 41.5 22.59375 41.5 
Q 18.296875 41.5 15.4375 38.59375 
Q 12.59375 35.703125 12.59375 31.5 
Q 12.59375 27.296875 15.4375 24.390625 
Q 18.296875 21.5 22.59375 21.5 
z
M 37.90625 -4.5 
Q 37.90625 -2.09375 37.046875 -0.75 
Q 36.203125 0.59375 33.703125 1.25 
Q 31.203125 1.90625 26.203125 1.90625 
Q 19 1.90625 14.703125 3.203125 
Q 12.296875 1.59375 11.34375 -0.09375 
Q 10.40625 -1.796875 10.40625 -4.59375 
Q 10.40625 -8 14.203125 -9.890625 
Q 18 -11.796875 24.796875 -11.796875 
Q 31.40625 -11.796875 34.65625 -9.84375 
Q 37.90625 -7.90625 37.90625 -4.5 
z
" id="Inconsolata-Regular-103"/>
      <path id="Inconsolata-Regular-32"/>
      <path d="M 44.40625 4.203125 
Q 37.796875 -0.703125 29.90625 -0.703125 
Q 22.296875 -0.703125 19.140625 3.890625 
Q 16 8.5 16 18.90625 
Q 16 20.59375 16.203125 24.796875 
L 17.09375 39.796875 
L 7 39.796875 
L 7 45.703125 
L 17.5 45.703125 
L 18.203125 57.90625 
L 26.203125 59.203125 
L 27.203125 59.296875 
L 27.296875 58.703125 
Q 26.59375 57.703125 26.25 57 
Q 25.90625 56.296875 25.796875 54.796875 
L 24.703125 45.703125 
L 39.90625 45.703125 
L 39.90625 39.796875 
L 24.296875 39.796875 
L 23.40625 24.296875 
Q 23.203125 20.296875 23.203125 19 
Q 23.203125 11 25.046875 8.140625 
Q 26.90625 5.296875 31 5.296875 
Q 34 5.296875 36.5 6.390625 
Q 39 7.5 42.203125 9.90625 
z
" id="Inconsolata-Regular-116"/>
      <path d="M 3.796875 45.703125 
L 10.40625 45.703125 
L 10.40625 41.203125 
Q 12 43.703125 14.5 45.25 
Q 17 46.796875 19.703125 46.796875 
Q 22.703125 46.796875 24.953125 44.890625 
Q 27.203125 43 27.796875 40.09375 
Q 29.09375 43.09375 31.890625 44.9375 
Q 34.703125 46.796875 38.09375 46.796875 
Q 42.59375 46.796875 44.84375 43.546875 
Q 47.09375 40.296875 46.90625 35.09375 
L 46.90625 0 
L 40.296875 0 
L 40.296875 32.40625 
Q 40.296875 38.09375 39.1875 39.796875 
Q 38.09375 41.5 36 41.5 
Q 34.203125 41.5 32.5 39.796875 
Q 30.796875 38.09375 29.75 35.4375 
Q 28.703125 32.796875 28.703125 30.203125 
L 28.703125 0 
L 22 0 
L 22 31.796875 
Q 22 37.40625 20.953125 39.34375 
Q 19.90625 41.296875 17 41.296875 
Q 15.5 41.296875 13.953125 39.9375 
Q 12.40625 38.59375 11.40625 36.140625 
Q 10.40625 33.703125 10.40625 30.5 
L 10.40625 0 
L 3.796875 0 
z
" id="Inconsolata-Regular-109"/>
      <path d="M 27.203125 -1 
Q 17 -1 10.953125 5.203125 
Q 4.90625 11.40625 4.90625 22.703125 
Q 4.90625 30.203125 7.703125 35.640625 
Q 10.5 41.09375 15.25 43.9375 
Q 20 46.796875 25.90625 46.796875 
Q 34.203125 46.796875 39.34375 41.296875 
Q 44.5 35.796875 44.5 25.09375 
Q 44.5 24 44.296875 21.796875 
L 11.796875 21.796875 
Q 12.203125 13.40625 16.5 9.09375 
Q 20.796875 4.796875 27.40625 4.796875 
Q 34.59375 4.796875 39.203125 9.90625 
L 43.203125 6 
Q 37.40625 -1 27.203125 -1 
z
M 37.203125 27.40625 
Q 37.203125 33.796875 33.953125 37.546875 
Q 30.703125 41.296875 25.40625 41.296875 
Q 20.40625 41.296875 16.703125 37.796875 
Q 13 34.296875 12.09375 27.40625 
z
" id="Inconsolata-Regular-101"/>
      <path d="M 13.09375 -8.90625 
L 13.09375 67 
L 41.703125 67 
L 41.703125 61 
L 19.5 61 
L 19.5 -3.203125 
L 41.796875 -3.203125 
L 41.796875 -8.90625 
z
" id="Inconsolata-Regular-91"/>
      <path d="M 24.40625 46.703125 
Q 34.203125 46.703125 39.34375 41.59375 
Q 44.5 36.5 44.5 24.296875 
L 44.5 0 
L 36.703125 0 
L 36.703125 7 
Q 32.5 -1.09375 21.09375 -1.09375 
Q 13.5 -1.09375 9.203125 2.34375 
Q 4.90625 5.796875 4.90625 11.5 
Q 4.90625 16.296875 8 19.890625 
Q 11.09375 23.5 16.34375 25.453125 
Q 21.59375 27.40625 27.90625 27.40625 
Q 33.59375 27.40625 38.203125 26.796875 
Q 37.59375 34.5 34.140625 37.640625 
Q 30.703125 40.796875 23.90625 40.796875 
Q 20.5 40.796875 17.34375 39.5 
Q 14.203125 38.203125 11.59375 35.703125 
L 8.09375 40.296875 
Q 14.5 46.703125 24.40625 46.703125 
z
M 21.796875 4.40625 
Q 29.203125 4.40625 33.5 8.75 
Q 37.796875 13.09375 38.203125 21.296875 
Q 33.703125 22 28.5 22 
Q 20.90625 22 16.5 19.5 
Q 12.09375 17 12.09375 11.90625 
Q 12.09375 4.40625 21.796875 4.40625 
z
" id="Inconsolata-Regular-97"/>
      <path d="M 44.296875 45.703125 
Q 43.703125 41.59375 42.453125 37.59375 
Q 41.203125 33.59375 38.90625 27 
L 27.5 -5.203125 
Q 25.203125 -11.59375 21.5 -14.5 
Q 17.796875 -17.40625 12.703125 -17.40625 
Q 6.296875 -17.40625 2.203125 -13.5 
L 5.296875 -8.59375 
L 5.40625 -8.5 
L 5.5 -8.59375 
Q 7.09375 -10.09375 8.890625 -10.796875 
Q 10.703125 -11.5 13.09375 -11.5 
Q 16.796875 -11.5 19 -8.890625 
Q 21.203125 -6.296875 23.296875 -0.296875 
L 4.59375 45.703125 
L 12.09375 45.703125 
L 26.296875 9.09375 
L 32.296875 27.5 
Q 34.5 34.40625 35.546875 38.046875 
Q 36.59375 41.703125 37.09375 45.703125 
z
M 6.5 -8.203125 
Q 6.5 -8.40625 6.296875 -8.40625 
L 5.5 -8.203125 
L 5.90625 -7.703125 
L 6.5 -8.09375 
z
M 5.40625 -8.5 
Q 4.90625 -8 5.15625 -8.09375 
Q 5.40625 -8.203125 5.5 -8.203125 
L 5.40625 -8.5 
z
" id="Inconsolata-Regular-121"/>
      <path d="M 28.296875 26.90625 
Q 36.90625 24.296875 40.453125 21.25 
Q 44 18.203125 44 13.296875 
Q 44 7.09375 39.140625 3.046875 
Q 34.296875 -1 25.09375 -1 
Q 13.5 -1 5.703125 6.203125 
L 9.703125 13 
L 9.796875 13.09375 
L 9.90625 13 
Q 13 9 16.296875 7 
Q 19.59375 5 25.296875 5 
Q 30.703125 5 33.796875 6.953125 
Q 36.90625 8.90625 36.90625 12.296875 
Q 36.90625 15.203125 34.40625 17.09375 
Q 31.90625 19 25.40625 21.09375 
Q 8.203125 26 8.203125 35.296875 
Q 8.203125 40.59375 12.546875 43.6875 
Q 16.90625 46.796875 25 46.796875 
Q 31.203125 46.796875 35.453125 45.046875 
Q 39.703125 43.296875 43.203125 39.59375 
L 39.09375 34.59375 
L 39 34.5 
Q 36.90625 37.703125 33.046875 39.546875 
Q 29.203125 41.40625 25.203125 41.40625 
Q 20.90625 41.40625 18.15625 39.90625 
Q 15.40625 38.40625 15.40625 35.703125 
Q 15.40625 33.203125 18.203125 31.09375 
Q 21 29 28.296875 26.90625 
z
M 37.90625 34.296875 
Q 37.90625 34.796875 38.703125 34.203125 
L 38.40625 33.796875 
L 37.90625 34.296875 
z
M 39 34.5 
Q 39.296875 34.09375 39.25 34 
Q 39.203125 33.90625 39 34 
Q 38.796875 34.09375 38.703125 34.203125 
L 39 34.5 
z
M 10.90625 13.40625 
Q 10.90625 13 10 13.40625 
L 10.296875 13.90625 
L 10.90625 13.5 
z
M 9.796875 13.09375 
Q 9.5 13.59375 9.59375 13.59375 
Q 9.703125 13.59375 10 13.40625 
L 9.796875 13.09375 
z
" id="Inconsolata-Regular-115"/>
      <path d="M 41.796875 -8.90625 
L 13.09375 -8.90625 
L 13.09375 -3.203125 
L 35.40625 -3.203125 
L 35.40625 61 
L 13.203125 61 
L 13.203125 67 
L 41.796875 67 
z
" id="Inconsolata-Regular-93"/>
     </defs>
     <g style="fill:#555555;" transform="translate(56.91125 149.55)rotate(-90)scale(0.12 -0.12)">
      <use xlink:href="#Inconsolata-Regular-100"/>
      <use x="49.999985" xlink:href="#Inconsolata-Regular-111"/>
      <use x="99.999969" xlink:href="#Inconsolata-Regular-117"/>
      <use x="149.999954" xlink:href="#Inconsolata-Regular-98"/>
      <use x="199.999939" xlink:href="#Inconsolata-Regular-108"/>
      <use x="249.999924" xlink:href="#Inconsolata-Regular-105"/>
      <use x="299.999908" xlink:href="#Inconsolata-Regular-110"/>
      <use x="349.999893" xlink:href="#Inconsolata-Regular-103"/>
      <use x="399.999878" xlink:href="#Inconsolata-Regular-32"/>
      <use x="449.999863" xlink:href="#Inconsolata-Regular-116"/>
      <use x="499.999847" xlink:href="#Inconsolata-Regular-105"/>
      <use x="549.999832" xlink:href="#Inconsolata-Regular-109"/>
      <use x="599.999817" xlink:href="#Inconsolata-Regular-101"/>
      <use x="649.999802" xlink:href="#Inconsolata-Regular-32"/>
      <use x="699.999786" xlink:href="#Inconsolata-Regular-91"/>
      <use x="749.999771" xlink:href="#Inconsolata-Regular-100"/>
      <use x="799.999756" xlink:href="#Inconsolata-Regular-97"/>
      <use x="849.999741" xlink:href="#Inconsolata-Regular-121"/>
      <use x="899.999725" xlink:href="#Inconsolata-Regular-115"/>
      <use x="949.99971" xlink:href="#Inconsolata-Regular-93"/>
     </g>
    </g>
   </g>
   <g id="line2d_33">
    <defs>
     <path d="M 0 3 
C 0.795609 3 1.55874 2.683901 2.12132 2.12132 
C 2.683901 1.55874 3 0.795609 3 0 
C 3 -0.795609 2.683901 -1.55874 2.12132 -2.12132 
C 1.55874 -2.683901 0.795609 -3 0 -3 
C -0.795609 -3 -1.55874 -2.683901 -2.12132 -2.12132 
C -2.683901 -1.55874 -3 -0.795609 -3 0 
C -3 0.795609 -2.683901 1.55874 -2.12132 2.12132 
C -1.55874 2.683901 -0.795609 3 0 3 
z
" id="m907afc62f5" style="stroke:#e24a33;stroke-opacity:0.3;"/>
    </defs>
    <g clip-path="url(#p04115e0b5a)">
     <use style="fill:#e24a33;fill-opacity:0.3;stroke:#e24a33;stroke-opacity:0.3;" x="228.090909" xlink:href="#m907afc62f5" y="157.421545"/>
     <use style="fill:#e24a33;fill-opacity:0.3;stroke:#e24a33;stroke-opacity:0.3;" x="235.606061" xlink:href="#m907afc62f5" y="157.4505"/>
     <use style="fill:#e24a33;fill-opacity:0.3;stroke:#e24a33;stroke-opacity:0.3;" x="239.363636" xlink:href="#m907afc62f5" y="157.310968"/>
     <use style="fill:#e24a33;fill-opacity:0.3;stroke:#e24a33;stroke-opacity:0.3;" x="243.121212" xlink:href="#m907afc62f5" y="157.256295"/>
     <use style="fill:#e24a33;fill-opacity:0.3;stroke:#e24a33;stroke-opacity:0.3;" x="246.878788" xlink:href="#m907afc62f5" y="157.201729"/>
     <use style="fill:#e24a33;fill-opacity:0.3;stroke:#e24a33;stroke-opacity:0.3;" x="250.636364" xlink:href="#m907afc62f5" y="156.820598"/>
     <use style="fill:#e24a33;fill-opacity:0.3;stroke:#e24a33;stroke-opacity:0.3;" x="258.151515" xlink:href="#m907afc62f5" y="157.238098"/>
     <use style="fill:#e24a33;fill-opacity:0.3;stroke:#e24a33;stroke-opacity:0.3;" x="261.909091" xlink:href="#m907afc62f5" y="156.602985"/>
     <use style="fill:#e24a33;fill-opacity:0.3;stroke:#e24a33;stroke-opacity:0.3;" x="265.666667" xlink:href="#m907afc62f5" y="157.391018"/>
     <use style="fill:#e24a33;fill-opacity:0.3;stroke:#e24a33;stroke-opacity:0.3;" x="273.181818" xlink:href="#m907afc62f5" y="157.256295"/>
     <use style="fill:#e24a33;fill-opacity:0.3;stroke:#e24a33;stroke-opacity:0.3;" x="280.69697" xlink:href="#m907afc62f5" y="157.201729"/>
     <use style="fill:#e24a33;fill-opacity:0.3;stroke:#e24a33;stroke-opacity:0.3;" x="284.454545" xlink:href="#m907afc62f5" y="156.331015"/>
     <use style="fill:#e24a33;fill-opacity:0.3;stroke:#e24a33;stroke-opacity:0.3;" x="288.212121" xlink:href="#m907afc62f5" y="157.074593"/>
     <use style="fill:#e24a33;fill-opacity:0.3;stroke:#e24a33;stroke-opacity:0.3;" x="291.969697" xlink:href="#m907afc62f5" y="156.56672"/>
     <use style="fill:#e24a33;fill-opacity:0.3;stroke:#e24a33;stroke-opacity:0.3;" x="295.727273" xlink:href="#m907afc62f5" y="154.590691"/>
     <use style="fill:#e24a33;fill-opacity:0.3;stroke:#e24a33;stroke-opacity:0.3;" x="299.484848" xlink:href="#m907afc62f5" y="156.983856"/>
     <use style="fill:#e24a33;fill-opacity:0.3;stroke:#e24a33;stroke-opacity:0.3;" x="303.242424" xlink:href="#m907afc62f5" y="156.929429"/>
     <use style="fill:#e24a33;fill-opacity:0.3;stroke:#e24a33;stroke-opacity:0.3;" x="310.757576" xlink:href="#m907afc62f5" y="156.875011"/>
     <use style="fill:#e24a33;fill-opacity:0.3;stroke:#e24a33;stroke-opacity:0.3;" x="314.515152" xlink:href="#m907afc62f5" y="156.167846"/>
     <use style="fill:#e24a33;fill-opacity:0.3;stroke:#e24a33;stroke-opacity:0.3;" x="322.030303" xlink:href="#m907afc62f5" y="156.793393"/>
     <use style="fill:#e24a33;fill-opacity:0.3;stroke:#e24a33;stroke-opacity:0.3;" x="325.787879" xlink:href="#m907afc62f5" y="156.004682"/>
     <use style="fill:#e24a33;fill-opacity:0.3;stroke:#e24a33;stroke-opacity:0.3;" x="329.545455" xlink:href="#m907afc62f5" y="156.820598"/>
     <use style="fill:#e24a33;fill-opacity:0.3;stroke:#e24a33;stroke-opacity:0.3;" x="333.30303" xlink:href="#m907afc62f5" y="155.823394"/>
     <use style="fill:#e24a33;fill-opacity:0.3;stroke:#e24a33;stroke-opacity:0.3;" x="337.060606" xlink:href="#m907afc62f5" y="156.834201"/>
     <use style="fill:#e24a33;fill-opacity:0.3;stroke:#e24a33;stroke-opacity:0.3;" x="340.818182" xlink:href="#m907afc62f5" y="156.856872"/>
     <use style="fill:#e24a33;fill-opacity:0.3;stroke:#e24a33;stroke-opacity:0.3;" x="348.333333" xlink:href="#m907afc62f5" y="156.802461"/>
     <use style="fill:#e24a33;fill-opacity:0.3;stroke:#e24a33;stroke-opacity:0.3;" x="352.090909" xlink:href="#m907afc62f5" y="156.385407"/>
     <use style="fill:#e24a33;fill-opacity:0.3;stroke:#e24a33;stroke-opacity:0.3;" x="355.848485" xlink:href="#m907afc62f5" y="156.10258"/>
     <use style="fill:#e24a33;fill-opacity:0.3;stroke:#e24a33;stroke-opacity:0.3;" x="359.606061" xlink:href="#m907afc62f5" y="156.582586"/>
     <use style="fill:#e24a33;fill-opacity:0.3;stroke:#e24a33;stroke-opacity:0.3;" x="363.363636" xlink:href="#m907afc62f5" y="155.961173"/>
     <use style="fill:#e24a33;fill-opacity:0.3;stroke:#e24a33;stroke-opacity:0.3;" x="367.121212" xlink:href="#m907afc62f5" y="156.494193"/>
     <use style="fill:#e24a33;fill-opacity:0.3;stroke:#e24a33;stroke-opacity:0.3;" x="370.878788" xlink:href="#m907afc62f5" y="156.095328"/>
     <use style="fill:#e24a33;fill-opacity:0.3;stroke:#e24a33;stroke-opacity:0.3;" x="374.636364" xlink:href="#m907afc62f5" y="155.324866"/>
     <use style="fill:#e24a33;fill-opacity:0.3;stroke:#e24a33;stroke-opacity:0.3;" x="378.393939" xlink:href="#m907afc62f5" y="154.536309"/>
     <use style="fill:#e24a33;fill-opacity:0.3;stroke:#e24a33;stroke-opacity:0.3;" x="382.151515" xlink:href="#m907afc62f5" y="155.229694"/>
     <use style="fill:#e24a33;fill-opacity:0.3;stroke:#e24a33;stroke-opacity:0.3;" x="385.909091" xlink:href="#m907afc62f5" y="155.634858"/>
     <use style="fill:#e24a33;fill-opacity:0.3;stroke:#e24a33;stroke-opacity:0.3;" x="389.666667" xlink:href="#m907afc62f5" y="154.318778"/>
     <use style="fill:#e24a33;fill-opacity:0.3;stroke:#e24a33;stroke-opacity:0.3;" x="393.424242" xlink:href="#m907afc62f5" y="155.868716"/>
     <use style="fill:#e24a33;fill-opacity:0.3;stroke:#e24a33;stroke-opacity:0.3;" x="397.181818" xlink:href="#m907afc62f5" y="154.155631"/>
     <use style="fill:#e24a33;fill-opacity:0.3;stroke:#e24a33;stroke-opacity:0.3;" x="400.939394" xlink:href="#m907afc62f5" y="155.787137"/>
     <use style="fill:#e24a33;fill-opacity:0.3;stroke:#e24a33;stroke-opacity:0.3;" x="404.69697" xlink:href="#m907afc62f5" y="156.167846"/>
     <use style="fill:#e24a33;fill-opacity:0.3;stroke:#e24a33;stroke-opacity:0.3;" x="408.454545" xlink:href="#m907afc62f5" y="154.75384"/>
     <use style="fill:#e24a33;fill-opacity:0.3;stroke:#e24a33;stroke-opacity:0.3;" x="412.212121" xlink:href="#m907afc62f5" y="154.699457"/>
     <use style="fill:#e24a33;fill-opacity:0.3;stroke:#e24a33;stroke-opacity:0.3;" x="415.969697" xlink:href="#m907afc62f5" y="153.702446"/>
     <use style="fill:#e24a33;fill-opacity:0.3;stroke:#e24a33;stroke-opacity:0.3;" x="419.727273" xlink:href="#m907afc62f5" y="153.648063"/>
     <use style="fill:#e24a33;fill-opacity:0.3;stroke:#e24a33;stroke-opacity:0.3;" x="423.484848" xlink:href="#m907afc62f5" y="153.593681"/>
     <use style="fill:#e24a33;fill-opacity:0.3;stroke:#e24a33;stroke-opacity:0.3;" x="427.242424" xlink:href="#m907afc62f5" y="155.112769"/>
     <use style="fill:#e24a33;fill-opacity:0.3;stroke:#e24a33;stroke-opacity:0.3;" x="431" xlink:href="#m907afc62f5" y="153.448663"/>
     <use style="fill:#e24a33;fill-opacity:0.3;stroke:#e24a33;stroke-opacity:0.3;" x="434.757576" xlink:href="#m907afc62f5" y="154.413948"/>
     <use style="fill:#e24a33;fill-opacity:0.3;stroke:#e24a33;stroke-opacity:0.3;" x="438.515152" xlink:href="#m907afc62f5" y="145.019538"/>
     <use style="fill:#e24a33;fill-opacity:0.3;stroke:#e24a33;stroke-opacity:0.3;" x="442.272727" xlink:href="#m907afc62f5" y="151.219012"/>
     <use style="fill:#e24a33;fill-opacity:0.3;stroke:#e24a33;stroke-opacity:0.3;" x="446.030303" xlink:href="#m907afc62f5" y="151.164631"/>
     <use style="fill:#e24a33;fill-opacity:0.3;stroke:#e24a33;stroke-opacity:0.3;" x="449.787879" xlink:href="#m907afc62f5" y="151.110249"/>
     <use style="fill:#e24a33;fill-opacity:0.3;stroke:#e24a33;stroke-opacity:0.3;" x="453.545455" xlink:href="#m907afc62f5" y="144.638869"/>
     <use style="fill:#e24a33;fill-opacity:0.3;stroke:#e24a33;stroke-opacity:0.3;" x="457.30303" xlink:href="#m907afc62f5" y="144.584488"/>
     <use style="fill:#e24a33;fill-opacity:0.3;stroke:#e24a33;stroke-opacity:0.3;" x="461.060606" xlink:href="#m907afc62f5" y="151.001486"/>
     <use style="fill:#e24a33;fill-opacity:0.3;stroke:#e24a33;stroke-opacity:0.3;" x="468.575758" xlink:href="#m907afc62f5" y="150.947105"/>
     <use style="fill:#e24a33;fill-opacity:0.3;stroke:#e24a33;stroke-opacity:0.3;" x="472.333333" xlink:href="#m907afc62f5" y="144.312581"/>
     <use style="fill:#e24a33;fill-opacity:0.3;stroke:#e24a33;stroke-opacity:0.3;" x="476.090909" xlink:href="#m907afc62f5" y="144.2582"/>
     <use style="fill:#e24a33;fill-opacity:0.3;stroke:#e24a33;stroke-opacity:0.3;" x="479.848485" xlink:href="#m907afc62f5" y="150.838342"/>
     <use style="fill:#e24a33;fill-opacity:0.3;stroke:#e24a33;stroke-opacity:0.3;" x="483.606061" xlink:href="#m907afc62f5" y="144.095056"/>
     <use style="fill:#e24a33;fill-opacity:0.3;stroke:#e24a33;stroke-opacity:0.3;" x="487.363636" xlink:href="#m907afc62f5" y="144.040675"/>
     <use style="fill:#e24a33;fill-opacity:0.3;stroke:#e24a33;stroke-opacity:0.3;" x="491.121212" xlink:href="#m907afc62f5" y="150.729579"/>
     <use style="fill:#e24a33;fill-opacity:0.3;stroke:#e24a33;stroke-opacity:0.3;" x="498.636364" xlink:href="#m907afc62f5" y="150.675197"/>
     <use style="fill:#e24a33;fill-opacity:0.3;stroke:#e24a33;stroke-opacity:0.3;" x="502.393939" xlink:href="#m907afc62f5" y="150.620816"/>
     <use style="fill:#e24a33;fill-opacity:0.3;stroke:#e24a33;stroke-opacity:0.3;" x="506.151515" xlink:href="#m907afc62f5" y="143.660006"/>
     <use style="fill:#e24a33;fill-opacity:0.3;stroke:#e24a33;stroke-opacity:0.3;" x="509.909091" xlink:href="#m907afc62f5" y="143.605625"/>
     <use style="fill:#e24a33;fill-opacity:0.3;stroke:#e24a33;stroke-opacity:0.3;" x="528.69697" xlink:href="#m907afc62f5" y="150.512053"/>
     <use style="fill:#e24a33;fill-opacity:0.3;stroke:#e24a33;stroke-opacity:0.3;" x="532.454545" xlink:href="#m907afc62f5" y="143.442481"/>
     <use style="fill:#e24a33;fill-opacity:0.3;stroke:#e24a33;stroke-opacity:0.3;" x="536.212121" xlink:href="#m907afc62f5" y="143.3881"/>
     <use style="fill:#e24a33;fill-opacity:0.3;stroke:#e24a33;stroke-opacity:0.3;" x="543.727273" xlink:href="#m907afc62f5" y="150.40329"/>
     <use style="fill:#e24a33;fill-opacity:0.3;stroke:#e24a33;stroke-opacity:0.3;" x="551.242424" xlink:href="#m907afc62f5" y="143.224956"/>
     <use style="fill:#e24a33;fill-opacity:0.3;stroke:#e24a33;stroke-opacity:0.3;" x="562.515152" xlink:href="#m907afc62f5" y="143.170575"/>
     <use style="fill:#e24a33;fill-opacity:0.3;stroke:#e24a33;stroke-opacity:0.3;" x="570.030303" xlink:href="#m907afc62f5" y="150.294527"/>
     <use style="fill:#e24a33;fill-opacity:0.3;stroke:#e24a33;stroke-opacity:0.3;" x="577.545455" xlink:href="#m907afc62f5" y="143.007431"/>
     <use style="fill:#e24a33;fill-opacity:0.3;stroke:#e24a33;stroke-opacity:0.3;" x="581.30303" xlink:href="#m907afc62f5" y="150.212955"/>
     <use style="fill:#e24a33;fill-opacity:0.3;stroke:#e24a33;stroke-opacity:0.3;" x="600.090909" xlink:href="#m907afc62f5" y="142.844288"/>
     <use style="fill:#e24a33;fill-opacity:0.3;stroke:#e24a33;stroke-opacity:0.3;" x="603.848485" xlink:href="#m907afc62f5" y="142.789906"/>
     <use style="fill:#e24a33;fill-opacity:0.3;stroke:#e24a33;stroke-opacity:0.3;" x="607.606061" xlink:href="#m907afc62f5" y="142.735525"/>
     <use style="fill:#e24a33;fill-opacity:0.3;stroke:#e24a33;stroke-opacity:0.3;" x="611.363636" xlink:href="#m907afc62f5" y="142.681144"/>
    </g>
   </g>
   <g id="line2d_34">
    <path clip-path="url(#p04115e0b5a)" d="M 228.090909 157.380408 
L 231.848485 157.369554 
L 235.606061 157.346266 
L 239.363636 157.297077 
L 243.121212 157.243655 
L 246.878788 157.175717 
L 250.636364 157.142121 
L 254.393939 157.149878 
L 258.151515 157.173168 
L 261.909091 157.165414 
L 265.666667 157.158202 
L 269.424242 157.13344 
L 273.181818 157.100708 
L 276.939394 157.034416 
L 280.69697 156.952747 
L 284.454545 156.873049 
L 288.212121 156.837054 
L 291.969697 156.786007 
L 295.727273 156.724062 
L 299.484848 156.655762 
L 303.242424 156.573381 
L 307 156.489701 
L 310.757576 156.422675 
L 314.515152 156.360758 
L 318.272727 156.339127 
L 322.030303 156.385343 
L 325.787879 156.459803 
L 329.545455 156.524881 
L 333.30303 156.551816 
L 337.060606 156.546028 
L 340.818182 156.522494 
L 344.575758 156.490007 
L 348.333333 156.449384 
L 352.090909 156.396969 
L 355.848485 156.362874 
L 359.606061 156.334829 
L 363.363636 156.246975 
L 367.121212 156.107275 
L 370.878788 155.948974 
L 374.636364 155.76062 
L 378.393939 155.562115 
L 382.151515 155.374536 
L 385.909091 155.263348 
L 389.666667 155.307303 
L 393.424242 155.427141 
L 397.181818 155.474533 
L 400.939394 155.435486 
L 404.69697 155.325028 
L 408.454545 155.146997 
L 412.212121 154.928908 
L 415.969697 154.635356 
L 419.727273 154.341306 
L 423.484848 154.104669 
L 427.242424 153.877768 
L 431 153.572672 
L 434.757576 153.202762 
L 438.515152 152.556965 
L 442.272727 151.614566 
L 446.030303 150.537162 
L 449.787879 149.536441 
L 453.545455 148.719855 
L 457.30303 148.000453 
L 461.060606 147.167131 
L 464.818182 146.704219 
L 468.575758 146.846868 
L 472.333333 146.926708 
L 476.090909 147.036695 
L 479.848485 147.075157 
L 483.606061 146.924419 
L 487.363636 146.93653 
L 491.121212 147.235723 
L 494.878788 147.187381 
L 498.636364 146.789724 
L 502.393939 145.509743 
L 506.151515 143.268835 
L 509.909091 138.689922 
L 513.666667 132.544763 
L 517.424242 128.721887 
L 521.181818 129.800647 
L 524.939394 132.989709 
L 528.69697 136.891269 
L 532.454545 140.203377 
L 536.212121 142.03998 
L 539.969697 141.262818 
L 543.727273 138.291663 
L 547.484848 134.623903 
L 551.242424 132.029206 
L 555 130.535928 
L 558.757576 130.483853 
L 562.515152 131.876106 
L 566.272727 135.059873 
L 570.030303 138.767569 
L 573.787879 140.375552 
L 577.545455 139.219312 
L 581.30303 136.514476 
L 585.060606 134.304394 
L 592.575758 133.732885 
L 596.333333 133.731527 
L 600.090909 133.546528 
L 603.848485 133.905136 
L 607.606061 134.752879 
" style="fill:none;stroke:#e24a33;stroke-linecap:square;stroke-width:3;"/>
   </g>
   <g id="line2d_35">
    <defs>
     <path d="M 0 3 
C 0.795609 3 1.55874 2.683901 2.12132 2.12132 
C 2.683901 1.55874 3 0.795609 3 0 
C 3 -0.795609 2.683901 -1.55874 2.12132 -2.12132 
C 1.55874 -2.683901 0.795609 -3 0 -3 
C -0.795609 -3 -1.55874 -2.683901 -2.12132 -2.12132 
C -2.683901 -1.55874 -3 -0.795609 -3 0 
C -3 0.795609 -2.683901 1.55874 -2.12132 2.12132 
C -1.55874 2.683901 -0.795609 3 0 3 
z
" id="mb92240ed87" style="stroke:#348abd;stroke-opacity:0.3;"/>
    </defs>
    <g clip-path="url(#p04115e0b5a)">
     <use style="fill:#348abd;fill-opacity:0.3;stroke:#348abd;stroke-opacity:0.3;" x="122.878788" xlink:href="#mb92240ed87" y="157.421545"/>
     <use style="fill:#348abd;fill-opacity:0.3;stroke:#348abd;stroke-opacity:0.3;" x="134.151515" xlink:href="#mb92240ed87" y="157.421545"/>
     <use style="fill:#348abd;fill-opacity:0.3;stroke:#348abd;stroke-opacity:0.3;" x="149.181818" xlink:href="#mb92240ed87" y="157.446242"/>
     <use style="fill:#348abd;fill-opacity:0.3;stroke:#348abd;stroke-opacity:0.3;" x="152.939394" xlink:href="#mb92240ed87" y="156.875011"/>
     <use style="fill:#348abd;fill-opacity:0.3;stroke:#348abd;stroke-opacity:0.3;" x="156.69697" xlink:href="#mb92240ed87" y="157.256295"/>
     <use style="fill:#348abd;fill-opacity:0.3;stroke:#348abd;stroke-opacity:0.3;" x="164.212121" xlink:href="#mb92240ed87" y="156.657384"/>
     <use style="fill:#348abd;fill-opacity:0.3;stroke:#348abd;stroke-opacity:0.3;" x="167.969697" xlink:href="#mb92240ed87" y="157.183555"/>
     <use style="fill:#348abd;fill-opacity:0.3;stroke:#348abd;stroke-opacity:0.3;" x="171.727273" xlink:href="#mb92240ed87" y="157.215364"/>
     <use style="fill:#348abd;fill-opacity:0.3;stroke:#348abd;stroke-opacity:0.3;" x="175.484848" xlink:href="#mb92240ed87" y="156.222235"/>
     <use style="fill:#348abd;fill-opacity:0.3;stroke:#348abd;stroke-opacity:0.3;" x="183" xlink:href="#mb92240ed87" y="156.167846"/>
     <use style="fill:#348abd;fill-opacity:0.3;stroke:#348abd;stroke-opacity:0.3;" x="186.757576" xlink:href="#mb92240ed87" y="156.793393"/>
     <use style="fill:#348abd;fill-opacity:0.3;stroke:#348abd;stroke-opacity:0.3;" x="190.515152" xlink:href="#mb92240ed87" y="156.004682"/>
     <use style="fill:#348abd;fill-opacity:0.3;stroke:#348abd;stroke-opacity:0.3;" x="209.30303" xlink:href="#mb92240ed87" y="155.950295"/>
     <use style="fill:#348abd;fill-opacity:0.3;stroke:#348abd;stroke-opacity:0.3;" x="213.060606" xlink:href="#mb92240ed87" y="155.895909"/>
     <use style="fill:#348abd;fill-opacity:0.3;stroke:#348abd;stroke-opacity:0.3;" x="216.818182" xlink:href="#mb92240ed87" y="155.841522"/>
     <use style="fill:#348abd;fill-opacity:0.3;stroke:#348abd;stroke-opacity:0.3;" x="224.333333" xlink:href="#mb92240ed87" y="157.455072"/>
     <use style="fill:#348abd;fill-opacity:0.3;stroke:#348abd;stroke-opacity:0.3;" x="228.090909" xlink:href="#mb92240ed87" y="157.419283"/>
     <use style="fill:#348abd;fill-opacity:0.3;stroke:#348abd;stroke-opacity:0.3;" x="231.848485" xlink:href="#mb92240ed87" y="157.427744"/>
     <use style="fill:#348abd;fill-opacity:0.3;stroke:#348abd;stroke-opacity:0.3;" x="235.606061" xlink:href="#mb92240ed87" y="157.334968"/>
     <use style="fill:#348abd;fill-opacity:0.3;stroke:#348abd;stroke-opacity:0.3;" x="239.363636" xlink:href="#mb92240ed87" y="157.332558"/>
     <use style="fill:#348abd;fill-opacity:0.3;stroke:#348abd;stroke-opacity:0.3;" x="243.121212" xlink:href="#mb92240ed87" y="157.158952"/>
     <use style="fill:#348abd;fill-opacity:0.3;stroke:#348abd;stroke-opacity:0.3;" x="246.878788" xlink:href="#mb92240ed87" y="157.286886"/>
     <use style="fill:#348abd;fill-opacity:0.3;stroke:#348abd;stroke-opacity:0.3;" x="250.636364" xlink:href="#mb92240ed87" y="157.338541"/>
     <use style="fill:#348abd;fill-opacity:0.3;stroke:#348abd;stroke-opacity:0.3;" x="254.393939" xlink:href="#mb92240ed87" y="157.305886"/>
     <use style="fill:#348abd;fill-opacity:0.3;stroke:#348abd;stroke-opacity:0.3;" x="258.151515" xlink:href="#mb92240ed87" y="157.317839"/>
     <use style="fill:#348abd;fill-opacity:0.3;stroke:#348abd;stroke-opacity:0.3;" x="261.909091" xlink:href="#mb92240ed87" y="157.18126"/>
     <use style="fill:#348abd;fill-opacity:0.3;stroke:#348abd;stroke-opacity:0.3;" x="265.666667" xlink:href="#mb92240ed87" y="157.134304"/>
     <use style="fill:#348abd;fill-opacity:0.3;stroke:#348abd;stroke-opacity:0.3;" x="269.424242" xlink:href="#mb92240ed87" y="157.196603"/>
     <use style="fill:#348abd;fill-opacity:0.3;stroke:#348abd;stroke-opacity:0.3;" x="273.181818" xlink:href="#mb92240ed87" y="156.824851"/>
     <use style="fill:#348abd;fill-opacity:0.3;stroke:#348abd;stroke-opacity:0.3;" x="276.939394" xlink:href="#mb92240ed87" y="156.818617"/>
     <use style="fill:#348abd;fill-opacity:0.3;stroke:#348abd;stroke-opacity:0.3;" x="280.69697" xlink:href="#mb92240ed87" y="156.817581"/>
     <use style="fill:#348abd;fill-opacity:0.3;stroke:#348abd;stroke-opacity:0.3;" x="284.454545" xlink:href="#mb92240ed87" y="156.672806"/>
     <use style="fill:#348abd;fill-opacity:0.3;stroke:#348abd;stroke-opacity:0.3;" x="288.212121" xlink:href="#mb92240ed87" y="156.070425"/>
     <use style="fill:#348abd;fill-opacity:0.3;stroke:#348abd;stroke-opacity:0.3;" x="291.969697" xlink:href="#mb92240ed87" y="155.047642"/>
     <use style="fill:#348abd;fill-opacity:0.3;stroke:#348abd;stroke-opacity:0.3;" x="295.727273" xlink:href="#mb92240ed87" y="145.853902"/>
     <use style="fill:#348abd;fill-opacity:0.3;stroke:#348abd;stroke-opacity:0.3;" x="299.484848" xlink:href="#mb92240ed87" y="155.784664"/>
     <use style="fill:#348abd;fill-opacity:0.3;stroke:#348abd;stroke-opacity:0.3;" x="303.242424" xlink:href="#mb92240ed87" y="153.773524"/>
     <use style="fill:#348abd;fill-opacity:0.3;stroke:#348abd;stroke-opacity:0.3;" x="307" xlink:href="#mb92240ed87" y="153.58264"/>
     <use style="fill:#348abd;fill-opacity:0.3;stroke:#348abd;stroke-opacity:0.3;" x="310.757576" xlink:href="#mb92240ed87" y="153.41766"/>
     <use style="fill:#348abd;fill-opacity:0.3;stroke:#348abd;stroke-opacity:0.3;" x="314.515152" xlink:href="#mb92240ed87" y="151.68698"/>
     <use style="fill:#348abd;fill-opacity:0.3;stroke:#348abd;stroke-opacity:0.3;" x="318.272727" xlink:href="#mb92240ed87" y="151.474753"/>
     <use style="fill:#348abd;fill-opacity:0.3;stroke:#348abd;stroke-opacity:0.3;" x="322.030303" xlink:href="#mb92240ed87" y="152.14091"/>
     <use style="fill:#348abd;fill-opacity:0.3;stroke:#348abd;stroke-opacity:0.3;" x="325.787879" xlink:href="#mb92240ed87" y="152.60779"/>
     <use style="fill:#348abd;fill-opacity:0.3;stroke:#348abd;stroke-opacity:0.3;" x="329.545455" xlink:href="#mb92240ed87" y="154.462964"/>
     <use style="fill:#348abd;fill-opacity:0.3;stroke:#348abd;stroke-opacity:0.3;" x="333.30303" xlink:href="#mb92240ed87" y="152.119121"/>
     <use style="fill:#348abd;fill-opacity:0.3;stroke:#348abd;stroke-opacity:0.3;" x="337.060606" xlink:href="#mb92240ed87" y="154.272165"/>
     <use style="fill:#348abd;fill-opacity:0.3;stroke:#348abd;stroke-opacity:0.3;" x="340.818182" xlink:href="#mb92240ed87" y="154.519188"/>
     <use style="fill:#348abd;fill-opacity:0.3;stroke:#348abd;stroke-opacity:0.3;" x="348.333333" xlink:href="#mb92240ed87" y="151.060877"/>
     <use style="fill:#348abd;fill-opacity:0.3;stroke:#348abd;stroke-opacity:0.3;" x="352.090909" xlink:href="#mb92240ed87" y="152.558432"/>
     <use style="fill:#348abd;fill-opacity:0.3;stroke:#348abd;stroke-opacity:0.3;" x="355.848485" xlink:href="#mb92240ed87" y="152.69516"/>
     <use style="fill:#348abd;fill-opacity:0.3;stroke:#348abd;stroke-opacity:0.3;" x="359.606061" xlink:href="#mb92240ed87" y="151.950474"/>
     <use style="fill:#348abd;fill-opacity:0.3;stroke:#348abd;stroke-opacity:0.3;" x="363.363636" xlink:href="#mb92240ed87" y="153.996954"/>
     <use style="fill:#348abd;fill-opacity:0.3;stroke:#348abd;stroke-opacity:0.3;" x="367.121212" xlink:href="#mb92240ed87" y="152.564051"/>
     <use style="fill:#348abd;fill-opacity:0.3;stroke:#348abd;stroke-opacity:0.3;" x="370.878788" xlink:href="#mb92240ed87" y="150.79163"/>
     <use style="fill:#348abd;fill-opacity:0.3;stroke:#348abd;stroke-opacity:0.3;" x="374.636364" xlink:href="#mb92240ed87" y="153.269855"/>
     <use style="fill:#348abd;fill-opacity:0.3;stroke:#348abd;stroke-opacity:0.3;" x="378.393939" xlink:href="#mb92240ed87" y="152.203804"/>
     <use style="fill:#348abd;fill-opacity:0.3;stroke:#348abd;stroke-opacity:0.3;" x="382.151515" xlink:href="#mb92240ed87" y="151.43165"/>
     <use style="fill:#348abd;fill-opacity:0.3;stroke:#348abd;stroke-opacity:0.3;" x="385.909091" xlink:href="#mb92240ed87" y="151.164631"/>
     <use style="fill:#348abd;fill-opacity:0.3;stroke:#348abd;stroke-opacity:0.3;" x="389.666667" xlink:href="#mb92240ed87" y="151.651751"/>
     <use style="fill:#348abd;fill-opacity:0.3;stroke:#348abd;stroke-opacity:0.3;" x="393.424242" xlink:href="#mb92240ed87" y="150.654385"/>
     <use style="fill:#348abd;fill-opacity:0.3;stroke:#348abd;stroke-opacity:0.3;" x="397.181818" xlink:href="#mb92240ed87" y="145.628145"/>
     <use style="fill:#348abd;fill-opacity:0.3;stroke:#348abd;stroke-opacity:0.3;" x="400.939394" xlink:href="#mb92240ed87" y="145.573764"/>
     <use style="fill:#348abd;fill-opacity:0.3;stroke:#348abd;stroke-opacity:0.3;" x="404.69697" xlink:href="#mb92240ed87" y="146.872606"/>
     <use style="fill:#348abd;fill-opacity:0.3;stroke:#348abd;stroke-opacity:0.3;" x="408.454545" xlink:href="#mb92240ed87" y="142.993487"/>
     <use style="fill:#348abd;fill-opacity:0.3;stroke:#348abd;stroke-opacity:0.3;" x="412.212121" xlink:href="#mb92240ed87" y="136.47967"/>
     <use style="fill:#348abd;fill-opacity:0.3;stroke:#348abd;stroke-opacity:0.3;" x="415.969697" xlink:href="#mb92240ed87" y="138.530043"/>
     <use style="fill:#348abd;fill-opacity:0.3;stroke:#348abd;stroke-opacity:0.3;" x="419.727273" xlink:href="#mb92240ed87" y="139.662985"/>
     <use style="fill:#348abd;fill-opacity:0.3;stroke:#348abd;stroke-opacity:0.3;" x="423.484848" xlink:href="#mb92240ed87" y="134.60662"/>
     <use style="fill:#348abd;fill-opacity:0.3;stroke:#348abd;stroke-opacity:0.3;" x="427.242424" xlink:href="#mb92240ed87" y="136.25006"/>
     <use style="fill:#348abd;fill-opacity:0.3;stroke:#348abd;stroke-opacity:0.3;" x="431" xlink:href="#mb92240ed87" y="136.195679"/>
     <use style="fill:#348abd;fill-opacity:0.3;stroke:#348abd;stroke-opacity:0.3;" x="434.757576" xlink:href="#mb92240ed87" y="131.293222"/>
     <use style="fill:#348abd;fill-opacity:0.3;stroke:#348abd;stroke-opacity:0.3;" x="438.515152" xlink:href="#mb92240ed87" y="131.238841"/>
     <use style="fill:#348abd;fill-opacity:0.3;stroke:#348abd;stroke-opacity:0.3;" x="442.272727" xlink:href="#mb92240ed87" y="125.342601"/>
     <use style="fill:#348abd;fill-opacity:0.3;stroke:#348abd;stroke-opacity:0.3;" x="446.030303" xlink:href="#mb92240ed87" y="85.057468"/>
     <use style="fill:#348abd;fill-opacity:0.3;stroke:#348abd;stroke-opacity:0.3;" x="449.787879" xlink:href="#mb92240ed87" y="112.876061"/>
     <use style="fill:#348abd;fill-opacity:0.3;stroke:#348abd;stroke-opacity:0.3;" x="453.545455" xlink:href="#mb92240ed87" y="92.976729"/>
     <use style="fill:#348abd;fill-opacity:0.3;stroke:#348abd;stroke-opacity:0.3;" x="457.30303" xlink:href="#mb92240ed87" y="104.658797"/>
     <use style="fill:#348abd;fill-opacity:0.3;stroke:#348abd;stroke-opacity:0.3;" x="461.060606" xlink:href="#mb92240ed87" y="115.933359"/>
     <use style="fill:#348abd;fill-opacity:0.3;stroke:#348abd;stroke-opacity:0.3;" x="464.818182" xlink:href="#mb92240ed87" y="99.241441"/>
     <use style="fill:#348abd;fill-opacity:0.3;stroke:#348abd;stroke-opacity:0.3;" x="468.575758" xlink:href="#mb92240ed87" y="99.18706"/>
     <use style="fill:#348abd;fill-opacity:0.3;stroke:#348abd;stroke-opacity:0.3;" x="472.333333" xlink:href="#mb92240ed87" y="99.132679"/>
     <use style="fill:#348abd;fill-opacity:0.3;stroke:#348abd;stroke-opacity:0.3;" x="476.090909" xlink:href="#mb92240ed87" y="115.762447"/>
     <use style="fill:#348abd;fill-opacity:0.3;stroke:#348abd;stroke-opacity:0.3;" x="479.848485" xlink:href="#mb92240ed87" y="92.505425"/>
     <use style="fill:#348abd;fill-opacity:0.3;stroke:#348abd;stroke-opacity:0.3;" x="483.606061" xlink:href="#mb92240ed87" y="11.17383"/>
     <use style="fill:#348abd;fill-opacity:0.3;stroke:#348abd;stroke-opacity:0.3;" x="487.363636" xlink:href="#mb92240ed87" y="92.426874"/>
     <use style="fill:#348abd;fill-opacity:0.3;stroke:#348abd;stroke-opacity:0.3;" x="491.121212" xlink:href="#mb92240ed87" y="59.822332"/>
     <use style="fill:#348abd;fill-opacity:0.3;stroke:#348abd;stroke-opacity:0.3;" x="494.878788" xlink:href="#mb92240ed87" y="112.378264"/>
     <use style="fill:#348abd;fill-opacity:0.3;stroke:#348abd;stroke-opacity:0.3;" x="498.636364" xlink:href="#mb92240ed87" y="84.105797"/>
     <use style="fill:#348abd;fill-opacity:0.3;stroke:#348abd;stroke-opacity:0.3;" x="501.24854" xlink:href="#mb92240ed87" y="-1"/>
     <use style="fill:#348abd;fill-opacity:0.3;stroke:#348abd;stroke-opacity:0.3;" x="509.613256" xlink:href="#mb92240ed87" y="-1"/>
     <use style="fill:#348abd;fill-opacity:0.3;stroke:#348abd;stroke-opacity:0.3;" x="509.909091" xlink:href="#mb92240ed87" y="10.562042"/>
     <use style="fill:#348abd;fill-opacity:0.3;stroke:#348abd;stroke-opacity:0.3;" x="513.666667" xlink:href="#mb92240ed87" y="108.484431"/>
     <use style="fill:#348abd;fill-opacity:0.3;stroke:#348abd;stroke-opacity:0.3;" x="517.424242" xlink:href="#mb92240ed87" y="124.77764"/>
     <use style="fill:#348abd;fill-opacity:0.3;stroke:#348abd;stroke-opacity:0.3;" x="521.181818" xlink:href="#mb92240ed87" y="140.134822"/>
     <use style="fill:#348abd;fill-opacity:0.3;stroke:#348abd;stroke-opacity:0.3;" x="524.939394" xlink:href="#mb92240ed87" y="140.577367"/>
     <use style="fill:#348abd;fill-opacity:0.3;stroke:#348abd;stroke-opacity:0.3;" x="528.69697" xlink:href="#mb92240ed87" y="135.500808"/>
     <use style="fill:#348abd;fill-opacity:0.3;stroke:#348abd;stroke-opacity:0.3;" x="532.454545" xlink:href="#mb92240ed87" y="134.599257"/>
     <use style="fill:#348abd;fill-opacity:0.3;stroke:#348abd;stroke-opacity:0.3;" x="536.212121" xlink:href="#mb92240ed87" y="136.916734"/>
     <use style="fill:#348abd;fill-opacity:0.3;stroke:#348abd;stroke-opacity:0.3;" x="539.969697" xlink:href="#mb92240ed87" y="135.33565"/>
     <use style="fill:#348abd;fill-opacity:0.3;stroke:#348abd;stroke-opacity:0.3;" x="543.727273" xlink:href="#mb92240ed87" y="125.937455"/>
     <use style="fill:#348abd;fill-opacity:0.3;stroke:#348abd;stroke-opacity:0.3;" x="547.484848" xlink:href="#mb92240ed87" y="111.303189"/>
     <use style="fill:#348abd;fill-opacity:0.3;stroke:#348abd;stroke-opacity:0.3;" x="551.242424" xlink:href="#mb92240ed87" y="117.41201"/>
     <use style="fill:#348abd;fill-opacity:0.3;stroke:#348abd;stroke-opacity:0.3;" x="555" xlink:href="#mb92240ed87" y="111.186061"/>
     <use style="fill:#348abd;fill-opacity:0.3;stroke:#348abd;stroke-opacity:0.3;" x="558.757576" xlink:href="#mb92240ed87" y="138.646736"/>
     <use style="fill:#348abd;fill-opacity:0.3;stroke:#348abd;stroke-opacity:0.3;" x="562.515152" xlink:href="#mb92240ed87" y="107.124901"/>
     <use style="fill:#348abd;fill-opacity:0.3;stroke:#348abd;stroke-opacity:0.3;" x="566.272727" xlink:href="#mb92240ed87" y="127.231441"/>
     <use style="fill:#348abd;fill-opacity:0.3;stroke:#348abd;stroke-opacity:0.3;" x="570.030303" xlink:href="#mb92240ed87" y="131.128682"/>
     <use style="fill:#348abd;fill-opacity:0.3;stroke:#348abd;stroke-opacity:0.3;" x="573.787879" xlink:href="#mb92240ed87" y="133.186183"/>
     <use style="fill:#348abd;fill-opacity:0.3;stroke:#348abd;stroke-opacity:0.3;" x="577.545455" xlink:href="#mb92240ed87" y="119.439975"/>
     <use style="fill:#348abd;fill-opacity:0.3;stroke:#348abd;stroke-opacity:0.3;" x="581.30303" xlink:href="#mb92240ed87" y="125.399367"/>
     <use style="fill:#348abd;fill-opacity:0.3;stroke:#348abd;stroke-opacity:0.3;" x="585.060606" xlink:href="#mb92240ed87" y="142.212106"/>
     <use style="fill:#348abd;fill-opacity:0.3;stroke:#348abd;stroke-opacity:0.3;" x="588.818182" xlink:href="#mb92240ed87" y="149.71836"/>
     <use style="fill:#348abd;fill-opacity:0.3;stroke:#348abd;stroke-opacity:0.3;" x="592.575758" xlink:href="#mb92240ed87" y="146.836623"/>
     <use style="fill:#348abd;fill-opacity:0.3;stroke:#348abd;stroke-opacity:0.3;" x="596.333333" xlink:href="#mb92240ed87" y="141.573998"/>
     <use style="fill:#348abd;fill-opacity:0.3;stroke:#348abd;stroke-opacity:0.3;" x="600.090909" xlink:href="#mb92240ed87" y="134.429297"/>
     <use style="fill:#348abd;fill-opacity:0.3;stroke:#348abd;stroke-opacity:0.3;" x="603.848485" xlink:href="#mb92240ed87" y="139.65444"/>
     <use style="fill:#348abd;fill-opacity:0.3;stroke:#348abd;stroke-opacity:0.3;" x="607.606061" xlink:href="#mb92240ed87" y="141.011067"/>
     <use style="fill:#348abd;fill-opacity:0.3;stroke:#348abd;stroke-opacity:0.3;" x="611.363636" xlink:href="#mb92240ed87" y="144.664395"/>
     <use style="fill:#348abd;fill-opacity:0.3;stroke:#348abd;stroke-opacity:0.3;" x="615.121212" xlink:href="#mb92240ed87" y="141.311852"/>
     <use style="fill:#348abd;fill-opacity:0.3;stroke:#348abd;stroke-opacity:0.3;" x="618.878788" xlink:href="#mb92240ed87" y="141.257471"/>
     <use style="fill:#348abd;fill-opacity:0.3;stroke:#348abd;stroke-opacity:0.3;" x="622.636364" xlink:href="#mb92240ed87" y="145.031267"/>
    </g>
   </g>
   <g id="line2d_36">
    <path clip-path="url(#p04115e0b5a)" d="M 134.151515 157.343395 
L 156.69697 157.190257 
L 171.727273 156.850084 
L 179.242424 156.642037 
L 190.515152 155.625471 
L 194.272727 155.575644 
L 198.030303 155.345163 
L 209.30303 155.678766 
L 213.060606 156.633878 
L 216.818182 157.361663 
L 228.090909 157.38236 
L 269.424242 157.076045 
L 280.69697 156.70053 
L 288.212121 156.194983 
L 291.969697 155.821816 
L 307 153.754663 
L 314.515152 152.987428 
L 318.272727 152.780576 
L 322.030303 152.843046 
L 329.545455 153.264401 
L 333.30303 153.232703 
L 340.818182 152.750588 
L 348.333333 152.233442 
L 352.090909 152.148455 
L 355.848485 152.232578 
L 363.363636 152.680894 
L 370.878788 152.542687 
L 378.393939 152.049349 
L 382.151515 151.735719 
L 385.909091 151.267564 
L 389.666667 150.560008 
L 393.424242 149.681474 
L 397.181818 148.588017 
L 400.939394 147.076298 
L 408.454545 143.281565 
L 419.727273 138.179393 
L 423.484848 136.774984 
L 427.242424 135.607359 
L 431 133.818569 
L 434.757576 131.135332 
L 438.515152 127.574801 
L 442.272727 122.920617 
L 449.787879 112.601349 
L 453.545455 108.037503 
L 457.30303 105.221825 
L 461.060606 104.697428 
L 464.818182 105.026285 
L 468.575758 103.939796 
L 472.333333 100.847146 
L 476.090909 96.495408 
L 479.848485 93.252051 
L 483.606061 91.419324 
L 487.363636 88.011341 
L 491.121212 81.147218 
L 494.878788 73.69698 
L 498.636364 69.003437 
L 502.393939 70.877116 
L 506.151515 82.334984 
L 509.909091 99.993307 
L 513.666667 115.760074 
L 517.424242 125.922644 
L 521.181818 131.669359 
L 524.939394 134.868668 
L 528.69697 136.220751 
L 532.454545 135.801218 
L 536.212121 133.856734 
L 539.969697 131.022938 
L 543.727273 128.67984 
L 547.484848 126.808201 
L 551.242424 125.063608 
L 555 124.161571 
L 558.757576 125.16738 
L 562.515152 126.778751 
L 566.272727 127.829981 
L 570.030303 128.581611 
L 573.787879 131.283094 
L 577.545455 135.855954 
L 581.30303 139.970161 
L 585.060606 142.034985 
L 588.818182 143.076062 
L 592.575758 143.579757 
L 596.333333 143.657763 
L 600.090909 143.03014 
L 603.848485 141.987294 
L 607.606061 141.435867 
L 611.363636 141.510184 
L 615.121212 141.783193 
L 615.121212 141.783193 
" style="fill:none;stroke:#348abd;stroke-linecap:square;stroke-width:3;"/>
   </g>
   <g id="patch_3">
    <path d="M 90 157.5 
L 90 21.6 
" style="fill:none;stroke:#ffffff;stroke-linecap:square;stroke-linejoin:miter;"/>
   </g>
   <g id="patch_4">
    <path d="M 648 157.5 
L 648 21.6 
" style="fill:none;stroke:#ffffff;stroke-linecap:square;stroke-linejoin:miter;"/>
   </g>
   <g id="patch_5">
    <path d="M 90 157.5 
L 648 157.5 
" style="fill:none;stroke:#ffffff;stroke-linecap:square;stroke-linejoin:miter;"/>
   </g>
   <g id="patch_6">
    <path d="M 90 21.6 
L 648 21.6 
" style="fill:none;stroke:#ffffff;stroke-linecap:square;stroke-linejoin:miter;"/>
   </g>
   <g id="legend_1">
    <g id="patch_7">
     <path d="M 97 84.521875 
L 369 84.521875 
Q 371 84.521875 371 82.521875 
L 371 28.6 
Q 371 26.6 369 26.6 
L 97 26.6 
Q 95 26.6 95 28.6 
L 95 82.521875 
Q 95 84.521875 97 84.521875 
z
" style="fill:#e5e5e5;opacity:0.8;stroke:#cccccc;stroke-linejoin:miter;stroke-width:0.5;"/>
    </g>
    <g id="line2d_37"/>
    <g id="line2d_38">
     <g>
      <use style="fill:#e24a33;fill-opacity:0.3;stroke:#e24a33;stroke-opacity:0.3;" x="109" xlink:href="#m907afc62f5" y="34.1"/>
     </g>
    </g>
    <g id="text_20">
     <!-- Korea, South doubling time deaths -->
     <defs>
      <path d="M 16.59375 31.203125 
L 11.703125 25.796875 
L 11.703125 0 
L 4.203125 0 
L 4.203125 62.296875 
L 12.59375 62.296875 
L 12.59375 61.59375 
Q 12 61 11.84375 60.296875 
Q 11.703125 59.59375 11.703125 57.90625 
L 11.703125 33.59375 
L 37.703125 62.796875 
Q 40.203125 62.296875 42.90625 62.296875 
L 45.5 62.296875 
L 21.90625 35.40625 
L 47.09375 0 
L 38.09375 -0.40625 
z
" id="Inconsolata-Regular-75"/>
      <path d="M 42.59375 36.203125 
L 42.59375 36.09375 
Q 39.703125 38.796875 37.75 39.6875 
Q 35.796875 40.59375 33.203125 40.59375 
Q 29.59375 40.59375 26.390625 38.796875 
Q 23.203125 37 21.203125 33.34375 
Q 19.203125 29.703125 19.203125 24.203125 
L 19.203125 -0.09375 
L 11.90625 -0.09375 
L 11.90625 45.703125 
L 19.40625 45.703125 
L 19.203125 37.296875 
Q 21.09375 41.796875 25.046875 44.296875 
Q 29 46.796875 33.703125 46.796875 
Q 41 46.796875 45.796875 41.796875 
z
M 42.59375 36.09375 
Q 43.296875 35.5 42.9375 35.59375 
Q 42.59375 35.703125 42.40625 35.796875 
L 42.59375 36.09375 
z
M 41.5 35.796875 
Q 41.5 36.09375 41.796875 36.046875 
Q 42.09375 36 42.40625 35.796875 
L 42.203125 35.296875 
L 41.5 35.703125 
z
" id="Inconsolata-Regular-114"/>
      <path d="M 16.5 -13.796875 
Q 19.296875 -11.203125 21.140625 -8.203125 
Q 23 -5.203125 23 -3.296875 
Q 23 -2.40625 22.5 -1.796875 
Q 22 -1.203125 20.703125 0 
Q 19.296875 1.296875 18.59375 2.1875 
Q 17.90625 3.09375 17.90625 4.40625 
Q 17.90625 6.90625 19.546875 8.59375 
Q 21.203125 10.296875 23.796875 10.296875 
Q 26.5 10.296875 28.546875 7.9375 
Q 30.59375 5.59375 30.59375 2 
Q 30.59375 -5.796875 19.90625 -16.796875 
z
" id="Inconsolata-Regular-44"/>
      <path d="M 29.796875 34.40625 
Q 38.703125 30.703125 42.09375 26.796875 
Q 45.5 22.90625 45.5 17 
Q 45.5 12.40625 43.25 8.296875 
Q 41 4.203125 36.296875 1.59375 
Q 31.59375 -1 24.703125 -1 
Q 12.59375 -1 5.203125 6.90625 
L 8.796875 13.203125 
L 8.796875 13.296875 
Q 8.90625 13.296875 8.90625 13.25 
Q 8.90625 13.203125 8.90625 13.203125 
Q 11.59375 9.59375 15.84375 7.4375 
Q 20.09375 5.296875 25.703125 5.296875 
Q 31.203125 5.296875 34.890625 8.390625 
Q 38.59375 11.5 38.59375 16 
Q 38.59375 18.90625 37.4375 20.84375 
Q 36.296875 22.796875 33.296875 24.6875 
Q 30.296875 26.59375 24.296875 29.203125 
Q 15.09375 32.796875 11.140625 37.390625 
Q 7.203125 42 7.203125 47.703125 
Q 7.203125 54.703125 12.296875 58.890625 
Q 17.40625 63.09375 26.203125 63.09375 
Q 31.296875 63.09375 35.75 61.046875 
Q 40.203125 59 43.5 55.296875 
L 39.59375 50.09375 
L 39.5 50 
Q 36.5 54.09375 33.25 55.6875 
Q 30 57.296875 25.09375 57.296875 
Q 20.296875 57.296875 17.34375 54.640625 
Q 14.40625 52 14.40625 48.203125 
Q 14.40625 45.296875 15.65625 43.140625 
Q 16.90625 41 20.203125 38.953125 
Q 23.5 36.90625 29.796875 34.40625 
z
M 38.40625 49.796875 
Q 38.40625 50.09375 38.796875 49.890625 
Q 39.203125 49.703125 39.296875 49.703125 
L 39 49.296875 
L 38.40625 49.703125 
z
M 39.5 50 
Q 40.09375 49.203125 39.75 49.453125 
Q 39.40625 49.703125 39.296875 49.703125 
L 39.5 50 
z
M 9.90625 13.59375 
Q 9.90625 13.296875 9.5 13.5 
Q 9.09375 13.703125 9 13.703125 
L 9.203125 14.09375 
L 9.90625 13.703125 
z
M 8.796875 13.296875 
Q 8.203125 14.09375 9 13.703125 
L 8.796875 13.296875 
z
" id="Inconsolata-Regular-83"/>
      <path d="M 7.296875 66.5 
L 15.203125 66.5 
L 15.203125 65.796875 
Q 14.59375 65.203125 14.4375 64.5 
Q 14.296875 63.796875 14.296875 62.09375 
L 14.296875 37.59375 
Q 17 41.796875 21.046875 44.296875 
Q 25.09375 46.796875 29.296875 46.796875 
Q 35.796875 46.796875 39.5 42.1875 
Q 43.203125 37.59375 43.203125 27.703125 
L 43.203125 0 
L 36.203125 0 
L 36.203125 27.5 
Q 36.203125 34.296875 33.890625 37.390625 
Q 31.59375 40.5 27.796875 40.5 
Q 24.59375 40.5 21.5 38.75 
Q 18.40625 37 16.34375 33.75 
Q 14.296875 30.5 14.296875 26.296875 
L 14.296875 0 
L 7.296875 0 
z
" id="Inconsolata-Regular-104"/>
     </defs>
     <g transform="translate(127 37.6)scale(0.1 -0.1)">
      <use xlink:href="#Inconsolata-Regular-75"/>
      <use x="49.999985" xlink:href="#Inconsolata-Regular-111"/>
      <use x="99.999969" xlink:href="#Inconsolata-Regular-114"/>
      <use x="149.999954" xlink:href="#Inconsolata-Regular-101"/>
      <use x="199.999939" xlink:href="#Inconsolata-Regular-97"/>
      <use x="249.999924" xlink:href="#Inconsolata-Regular-44"/>
      <use x="299.999908" xlink:href="#Inconsolata-Regular-32"/>
      <use x="349.999893" xlink:href="#Inconsolata-Regular-83"/>
      <use x="399.999878" xlink:href="#Inconsolata-Regular-111"/>
      <use x="449.999863" xlink:href="#Inconsolata-Regular-117"/>
      <use x="499.999847" xlink:href="#Inconsolata-Regular-116"/>
      <use x="549.999832" xlink:href="#Inconsolata-Regular-104"/>
      <use x="599.999817" xlink:href="#Inconsolata-Regular-32"/>
      <use x="649.999802" xlink:href="#Inconsolata-Regular-100"/>
      <use x="699.999786" xlink:href="#Inconsolata-Regular-111"/>
      <use x="749.999771" xlink:href="#Inconsolata-Regular-117"/>
      <use x="799.999756" xlink:href="#Inconsolata-Regular-98"/>
      <use x="849.999741" xlink:href="#Inconsolata-Regular-108"/>
      <use x="899.999725" xlink:href="#Inconsolata-Regular-105"/>
      <use x="949.99971" xlink:href="#Inconsolata-Regular-110"/>
      <use x="999.999695" xlink:href="#Inconsolata-Regular-103"/>
      <use x="1049.99968" xlink:href="#Inconsolata-Regular-32"/>
      <use x="1099.999664" xlink:href="#Inconsolata-Regular-116"/>
      <use x="1149.999649" xlink:href="#Inconsolata-Regular-105"/>
      <use x="1199.999634" xlink:href="#Inconsolata-Regular-109"/>
      <use x="1249.999619" xlink:href="#Inconsolata-Regular-101"/>
      <use x="1299.999603" xlink:href="#Inconsolata-Regular-32"/>
      <use x="1349.999588" xlink:href="#Inconsolata-Regular-100"/>
      <use x="1399.999573" xlink:href="#Inconsolata-Regular-101"/>
      <use x="1449.999557" xlink:href="#Inconsolata-Regular-97"/>
      <use x="1499.999542" xlink:href="#Inconsolata-Regular-116"/>
      <use x="1549.999527" xlink:href="#Inconsolata-Regular-104"/>
      <use x="1599.999512" xlink:href="#Inconsolata-Regular-115"/>
     </g>
    </g>
    <g id="line2d_39">
     <path d="M 99 47.820312 
L 119 47.820312 
" style="fill:none;stroke:#e24a33;stroke-linecap:square;stroke-width:3;"/>
    </g>
    <g id="line2d_40"/>
    <g id="text_21">
     <!-- Korea, South doubling time deaths (rolling mean) -->
     <defs>
      <path d="M 39.5 -17.40625 
Q 31.296875 -13.59375 25.09375 -7 
Q 18.90625 -0.40625 15.546875 7.890625 
Q 12.203125 16.203125 12.203125 25 
Q 12.203125 33.796875 15.5 41.890625 
Q 18.796875 50 24.84375 56.34375 
Q 30.90625 62.703125 38.90625 66.5 
L 40.796875 60.296875 
Q 31 55 25.140625 45.390625 
Q 19.296875 35.796875 19.296875 24.703125 
Q 19.296875 13.5 25.296875 3.703125 
Q 31.296875 -6.09375 41.40625 -11.40625 
L 39.5 -17.40625 
z
" id="Inconsolata-Regular-40"/>
      <path d="M 11.40625 -11.40625 
Q 21.5 -6.09375 27.5 3.703125 
Q 33.5 13.5 33.5 24.703125 
Q 33.5 35.796875 27.640625 45.390625 
Q 21.796875 55 12 60.296875 
L 13.90625 66.5 
Q 21.90625 62.703125 27.953125 56.34375 
Q 34 50 37.296875 41.890625 
Q 40.59375 33.796875 40.59375 25 
Q 40.59375 16.203125 37.25 7.890625 
Q 33.90625 -0.40625 27.703125 -7 
Q 21.5 -13.59375 13.296875 -17.40625 
z
" id="Inconsolata-Regular-41"/>
     </defs>
     <g transform="translate(127 51.320312)scale(0.1 -0.1)">
      <use xlink:href="#Inconsolata-Regular-75"/>
      <use x="49.999985" xlink:href="#Inconsolata-Regular-111"/>
      <use x="99.999969" xlink:href="#Inconsolata-Regular-114"/>
      <use x="149.999954" xlink:href="#Inconsolata-Regular-101"/>
      <use x="199.999939" xlink:href="#Inconsolata-Regular-97"/>
      <use x="249.999924" xlink:href="#Inconsolata-Regular-44"/>
      <use x="299.999908" xlink:href="#Inconsolata-Regular-32"/>
      <use x="349.999893" xlink:href="#Inconsolata-Regular-83"/>
      <use x="399.999878" xlink:href="#Inconsolata-Regular-111"/>
      <use x="449.999863" xlink:href="#Inconsolata-Regular-117"/>
      <use x="499.999847" xlink:href="#Inconsolata-Regular-116"/>
      <use x="549.999832" xlink:href="#Inconsolata-Regular-104"/>
      <use x="599.999817" xlink:href="#Inconsolata-Regular-32"/>
      <use x="649.999802" xlink:href="#Inconsolata-Regular-100"/>
      <use x="699.999786" xlink:href="#Inconsolata-Regular-111"/>
      <use x="749.999771" xlink:href="#Inconsolata-Regular-117"/>
      <use x="799.999756" xlink:href="#Inconsolata-Regular-98"/>
      <use x="849.999741" xlink:href="#Inconsolata-Regular-108"/>
      <use x="899.999725" xlink:href="#Inconsolata-Regular-105"/>
      <use x="949.99971" xlink:href="#Inconsolata-Regular-110"/>
      <use x="999.999695" xlink:href="#Inconsolata-Regular-103"/>
      <use x="1049.99968" xlink:href="#Inconsolata-Regular-32"/>
      <use x="1099.999664" xlink:href="#Inconsolata-Regular-116"/>
      <use x="1149.999649" xlink:href="#Inconsolata-Regular-105"/>
      <use x="1199.999634" xlink:href="#Inconsolata-Regular-109"/>
      <use x="1249.999619" xlink:href="#Inconsolata-Regular-101"/>
      <use x="1299.999603" xlink:href="#Inconsolata-Regular-32"/>
      <use x="1349.999588" xlink:href="#Inconsolata-Regular-100"/>
      <use x="1399.999573" xlink:href="#Inconsolata-Regular-101"/>
      <use x="1449.999557" xlink:href="#Inconsolata-Regular-97"/>
      <use x="1499.999542" xlink:href="#Inconsolata-Regular-116"/>
      <use x="1549.999527" xlink:href="#Inconsolata-Regular-104"/>
      <use x="1599.999512" xlink:href="#Inconsolata-Regular-115"/>
      <use x="1649.999496" xlink:href="#Inconsolata-Regular-32"/>
      <use x="1699.999481" xlink:href="#Inconsolata-Regular-40"/>
      <use x="1749.999466" xlink:href="#Inconsolata-Regular-114"/>
      <use x="1799.999451" xlink:href="#Inconsolata-Regular-111"/>
      <use x="1849.999435" xlink:href="#Inconsolata-Regular-108"/>
      <use x="1899.99942" xlink:href="#Inconsolata-Regular-108"/>
      <use x="1949.999405" xlink:href="#Inconsolata-Regular-105"/>
      <use x="1999.99939" xlink:href="#Inconsolata-Regular-110"/>
      <use x="2049.999374" xlink:href="#Inconsolata-Regular-103"/>
      <use x="2099.999359" xlink:href="#Inconsolata-Regular-32"/>
      <use x="2149.999344" xlink:href="#Inconsolata-Regular-109"/>
      <use x="2199.999329" xlink:href="#Inconsolata-Regular-101"/>
      <use x="2249.999313" xlink:href="#Inconsolata-Regular-97"/>
      <use x="2299.999298" xlink:href="#Inconsolata-Regular-110"/>
      <use x="2349.999283" xlink:href="#Inconsolata-Regular-41"/>
     </g>
    </g>
    <g id="line2d_41"/>
    <g id="line2d_42">
     <g>
      <use style="fill:#348abd;fill-opacity:0.3;stroke:#348abd;stroke-opacity:0.3;" x="109" xlink:href="#mb92240ed87" y="61.560937"/>
     </g>
    </g>
    <g id="text_22">
     <!-- Korea, South doubling time cases -->
     <defs>
      <path d="M 28.90625 5.40625 
Q 35.796875 5.40625 40.796875 11 
L 45 6.09375 
Q 38.296875 -1.09375 28.5 -1.09375 
Q 21.90625 -1.09375 16.703125 2 
Q 11.5 5.09375 8.546875 10.546875 
Q 5.59375 16 5.59375 22.796875 
Q 5.59375 29.59375 8.546875 35 
Q 11.5 40.40625 16.703125 43.5 
Q 21.90625 46.59375 28.40625 46.59375 
Q 33.90625 46.59375 38.40625 44.34375 
Q 42.90625 42.09375 45.703125 38.09375 
L 41.203125 33.703125 
L 41.09375 33.59375 
Q 38.203125 37.40625 35.140625 38.953125 
Q 32.09375 40.5 27.59375 40.5 
Q 23.703125 40.5 20.34375 38.34375 
Q 17 36.203125 15 32.296875 
Q 13 28.40625 13 23.296875 
Q 13 18.203125 15.046875 14.09375 
Q 17.09375 10 20.75 7.703125 
Q 24.40625 5.40625 28.90625 5.40625 
z
M 40 33.5 
Q 40 34.09375 40.90625 33.40625 
L 40.5 33 
L 40 33.5 
z
M 41.09375 33.59375 
Q 41.59375 32.90625 41.34375 33.09375 
Q 41.09375 33.296875 40.90625 33.40625 
L 41.09375 33.59375 
z
" id="Inconsolata-Regular-99"/>
     </defs>
     <g transform="translate(127 65.060937)scale(0.1 -0.1)">
      <use xlink:href="#Inconsolata-Regular-75"/>
      <use x="49.999985" xlink:href="#Inconsolata-Regular-111"/>
      <use x="99.999969" xlink:href="#Inconsolata-Regular-114"/>
      <use x="149.999954" xlink:href="#Inconsolata-Regular-101"/>
      <use x="199.999939" xlink:href="#Inconsolata-Regular-97"/>
      <use x="249.999924" xlink:href="#Inconsolata-Regular-44"/>
      <use x="299.999908" xlink:href="#Inconsolata-Regular-32"/>
      <use x="349.999893" xlink:href="#Inconsolata-Regular-83"/>
      <use x="399.999878" xlink:href="#Inconsolata-Regular-111"/>
      <use x="449.999863" xlink:href="#Inconsolata-Regular-117"/>
      <use x="499.999847" xlink:href="#Inconsolata-Regular-116"/>
      <use x="549.999832" xlink:href="#Inconsolata-Regular-104"/>
      <use x="599.999817" xlink:href="#Inconsolata-Regular-32"/>
      <use x="649.999802" xlink:href="#Inconsolata-Regular-100"/>
      <use x="699.999786" xlink:href="#Inconsolata-Regular-111"/>
      <use x="749.999771" xlink:href="#Inconsolata-Regular-117"/>
      <use x="799.999756" xlink:href="#Inconsolata-Regular-98"/>
      <use x="849.999741" xlink:href="#Inconsolata-Regular-108"/>
      <use x="899.999725" xlink:href="#Inconsolata-Regular-105"/>
      <use x="949.99971" xlink:href="#Inconsolata-Regular-110"/>
      <use x="999.999695" xlink:href="#Inconsolata-Regular-103"/>
      <use x="1049.99968" xlink:href="#Inconsolata-Regular-32"/>
      <use x="1099.999664" xlink:href="#Inconsolata-Regular-116"/>
      <use x="1149.999649" xlink:href="#Inconsolata-Regular-105"/>
      <use x="1199.999634" xlink:href="#Inconsolata-Regular-109"/>
      <use x="1249.999619" xlink:href="#Inconsolata-Regular-101"/>
      <use x="1299.999603" xlink:href="#Inconsolata-Regular-32"/>
      <use x="1349.999588" xlink:href="#Inconsolata-Regular-99"/>
      <use x="1399.999573" xlink:href="#Inconsolata-Regular-97"/>
      <use x="1449.999557" xlink:href="#Inconsolata-Regular-115"/>
      <use x="1499.999542" xlink:href="#Inconsolata-Regular-101"/>
      <use x="1549.999527" xlink:href="#Inconsolata-Regular-115"/>
     </g>
    </g>
    <g id="line2d_43">
     <path d="M 99 75.28125 
L 119 75.28125 
" style="fill:none;stroke:#348abd;stroke-linecap:square;stroke-width:3;"/>
    </g>
    <g id="line2d_44"/>
    <g id="text_23">
     <!-- Korea, South doubling time cases (rolling mean) -->
     <g transform="translate(127 78.78125)scale(0.1 -0.1)">
      <use xlink:href="#Inconsolata-Regular-75"/>
      <use x="49.999985" xlink:href="#Inconsolata-Regular-111"/>
      <use x="99.999969" xlink:href="#Inconsolata-Regular-114"/>
      <use x="149.999954" xlink:href="#Inconsolata-Regular-101"/>
      <use x="199.999939" xlink:href="#Inconsolata-Regular-97"/>
      <use x="249.999924" xlink:href="#Inconsolata-Regular-44"/>
      <use x="299.999908" xlink:href="#Inconsolata-Regular-32"/>
      <use x="349.999893" xlink:href="#Inconsolata-Regular-83"/>
      <use x="399.999878" xlink:href="#Inconsolata-Regular-111"/>
      <use x="449.999863" xlink:href="#Inconsolata-Regular-117"/>
      <use x="499.999847" xlink:href="#Inconsolata-Regular-116"/>
      <use x="549.999832" xlink:href="#Inconsolata-Regular-104"/>
      <use x="599.999817" xlink:href="#Inconsolata-Regular-32"/>
      <use x="649.999802" xlink:href="#Inconsolata-Regular-100"/>
      <use x="699.999786" xlink:href="#Inconsolata-Regular-111"/>
      <use x="749.999771" xlink:href="#Inconsolata-Regular-117"/>
      <use x="799.999756" xlink:href="#Inconsolata-Regular-98"/>
      <use x="849.999741" xlink:href="#Inconsolata-Regular-108"/>
      <use x="899.999725" xlink:href="#Inconsolata-Regular-105"/>
      <use x="949.99971" xlink:href="#Inconsolata-Regular-110"/>
      <use x="999.999695" xlink:href="#Inconsolata-Regular-103"/>
      <use x="1049.99968" xlink:href="#Inconsolata-Regular-32"/>
      <use x="1099.999664" xlink:href="#Inconsolata-Regular-116"/>
      <use x="1149.999649" xlink:href="#Inconsolata-Regular-105"/>
      <use x="1199.999634" xlink:href="#Inconsolata-Regular-109"/>
      <use x="1249.999619" xlink:href="#Inconsolata-Regular-101"/>
      <use x="1299.999603" xlink:href="#Inconsolata-Regular-32"/>
      <use x="1349.999588" xlink:href="#Inconsolata-Regular-99"/>
      <use x="1399.999573" xlink:href="#Inconsolata-Regular-97"/>
      <use x="1449.999557" xlink:href="#Inconsolata-Regular-115"/>
      <use x="1499.999542" xlink:href="#Inconsolata-Regular-101"/>
      <use x="1549.999527" xlink:href="#Inconsolata-Regular-115"/>
      <use x="1599.999512" xlink:href="#Inconsolata-Regular-32"/>
      <use x="1649.999496" xlink:href="#Inconsolata-Regular-40"/>
      <use x="1699.999481" xlink:href="#Inconsolata-Regular-114"/>
      <use x="1749.999466" xlink:href="#Inconsolata-Regular-111"/>
      <use x="1799.999451" xlink:href="#Inconsolata-Regular-108"/>
      <use x="1849.999435" xlink:href="#Inconsolata-Regular-108"/>
      <use x="1899.99942" xlink:href="#Inconsolata-Regular-105"/>
      <use x="1949.999405" xlink:href="#Inconsolata-Regular-110"/>
      <use x="1999.99939" xlink:href="#Inconsolata-Regular-103"/>
      <use x="2049.999374" xlink:href="#Inconsolata-Regular-32"/>
      <use x="2099.999359" xlink:href="#Inconsolata-Regular-109"/>
      <use x="2149.999344" xlink:href="#Inconsolata-Regular-101"/>
      <use x="2199.999329" xlink:href="#Inconsolata-Regular-97"/>
      <use x="2249.999313" xlink:href="#Inconsolata-Regular-110"/>
      <use x="2299.999298" xlink:href="#Inconsolata-Regular-41"/>
     </g>
    </g>
   </g>
  </g>
 </g>
 <defs>
  <clipPath id="p04115e0b5a">
   <rect height="135.9" width="558" x="90" y="21.6"/>
  </clipPath>
 </defs>
</svg>
