<?xml version="1.0" encoding="utf-8" standalone="no"?>
<!DOCTYPE svg PUBLIC "-//W3C//DTD SVG 1.1//EN"
  "http://www.w3.org/Graphics/SVG/1.1/DTD/svg11.dtd">
<!-- Created with matplotlib (https://matplotlib.org/) -->
<svg height="432pt" version="1.1" viewBox="0 0 720 432" width="720pt" xmlns="http://www.w3.org/2000/svg" xmlns:xlink="http://www.w3.org/1999/xlink">
 <defs>
  <style type="text/css">
*{stroke-linecap:butt;stroke-linejoin:round;}
  </style>
 </defs>
 <g id="figure_1">
  <g id="patch_1">
   <path d="M 0 432 
L 720 432 
L 720 0 
L 0 0 
z
" style="fill:#ffffff;"/>
  </g>
  <g id="axes_1">
   <g id="patch_2">
    <path d="M 68.471875 181 
L 678 181 
L 678 10 
L 68.471875 10 
z
" style="fill:#e5e5e5;"/>
   </g>
   <g id="matplotlib.axis_1">
    <g id="xtick_1">
     <g id="line2d_1">
      <path clip-path="url(#p9132a4732f)" d="M 73.615572 181 
L 73.615572 10 
" style="fill:none;stroke:#ffffff;stroke-linecap:square;stroke-width:0.8;"/>
     </g>
     <g id="line2d_2">
      <defs>
       <path d="M 0 0 
L 0 3.5 
" id="mb24880fcd1" style="stroke:#555555;stroke-width:0.8;"/>
      </defs>
      <g>
       <use style="fill:#555555;stroke:#555555;stroke-width:0.8;" x="73.615572" xlink:href="#mb24880fcd1" y="181"/>
      </g>
     </g>
     <g id="text_1">
      <!-- 0 -->
      <defs>
       <path d="M 25 62.703125 
Q 34.203125 62.703125 39.25 54.203125 
Q 44.296875 45.703125 44.296875 30.796875 
Q 44.296875 15.5 39.296875 7.203125 
Q 34.296875 -1.09375 25 -1.09375 
Q 15.703125 -1.09375 10.703125 7.203125 
Q 5.703125 15.5 5.703125 30.796875 
Q 5.703125 45.703125 10.75 54.203125 
Q 15.796875 62.703125 25 62.703125 
z
M 25 56.59375 
Q 19.296875 56.59375 16.09375 49.640625 
Q 12.90625 42.703125 12.90625 30.796875 
Q 12.90625 24.296875 13.796875 19.296875 
L 35 46.703125 
Q 33.5 51.5 30.953125 54.046875 
Q 28.40625 56.59375 25 56.59375 
z
M 25 5 
Q 30.703125 5 33.890625 11.703125 
Q 37.09375 18.40625 37.09375 30.796875 
Q 37.09375 36.59375 36.40625 40.796875 
L 15.203125 13.796875 
Q 18.40625 5 25 5 
z
" id="Inconsolata-Regular-48"/>
      </defs>
      <g style="fill:#555555;" transform="translate(71.115572 194.65)scale(0.1 -0.1)">
       <use xlink:href="#Inconsolata-Regular-48"/>
      </g>
     </g>
    </g>
    <g id="xtick_2">
     <g id="line2d_3">
      <path clip-path="url(#p9132a4732f)" d="M 176.489517 181 
L 176.489517 10 
" style="fill:none;stroke:#ffffff;stroke-linecap:square;stroke-width:0.8;"/>
     </g>
     <g id="line2d_4">
      <g>
       <use style="fill:#555555;stroke:#555555;stroke-width:0.8;" x="176.489517" xlink:href="#mb24880fcd1" y="181"/>
      </g>
     </g>
     <g id="text_2">
      <!-- 20 -->
      <defs>
       <path d="M 7.296875 5.59375 
L 15.40625 13.796875 
Q 23.5 21.90625 27.546875 26.5 
Q 31.59375 31.09375 34 35.640625 
Q 36.40625 40.203125 36.40625 45.09375 
Q 36.40625 51.203125 33.5 53.890625 
Q 30.59375 56.59375 25.796875 56.59375 
Q 21.5 56.59375 17.84375 54.6875 
Q 14.203125 52.796875 13 50.5 
Q 12.40625 49.40625 11.796875 48.25 
Q 11.203125 47.09375 11.203125 46.90625 
Q 11.203125 46.796875 11.296875 46.796875 
Q 11.40625 46.796875 11.703125 46.9375 
Q 12 47.09375 12.09375 46.703125 
L 11.796875 46.09375 
L 10.90625 46.59375 
L 5.796875 50.59375 
Q 8.796875 56.40625 14 59.546875 
Q 19.203125 62.703125 25.703125 62.703125 
Q 33.703125 62.703125 38.640625 57.890625 
Q 43.59375 53.09375 43.59375 44.90625 
Q 43.59375 39.5 41 34.390625 
Q 38.40625 29.296875 34.34375 24.6875 
Q 30.296875 20.09375 23.09375 13 
L 16.296875 6.09375 
L 39.5 6.09375 
Q 41.09375 6.09375 41.84375 6.296875 
Q 42.59375 6.5 43.203125 7.09375 
L 43.90625 7.09375 
L 43.90625 0 
L 7.296875 0 
z
" id="Inconsolata-Regular-50"/>
      </defs>
      <g style="fill:#555555;" transform="translate(171.489517 194.65)scale(0.1 -0.1)">
       <use xlink:href="#Inconsolata-Regular-50"/>
       <use x="49.999985" xlink:href="#Inconsolata-Regular-48"/>
      </g>
     </g>
    </g>
    <g id="xtick_3">
     <g id="line2d_5">
      <path clip-path="url(#p9132a4732f)" d="M 279.363463 181 
L 279.363463 10 
" style="fill:none;stroke:#ffffff;stroke-linecap:square;stroke-width:0.8;"/>
     </g>
     <g id="line2d_6">
      <g>
       <use style="fill:#555555;stroke:#555555;stroke-width:0.8;" x="279.363463" xlink:href="#mb24880fcd1" y="181"/>
      </g>
     </g>
     <g id="text_3">
      <!-- 40 -->
      <defs>
       <path d="M 31.796875 0 
L 31.796875 15.296875 
L 4.796875 15.296875 
L 4.796875 20.40625 
L 33.296875 62.40625 
L 39.203125 62.40625 
L 39.203125 21.09375 
L 47.203125 21.09375 
L 47.203125 15.203125 
L 39.203125 15.203125 
L 39.203125 0 
z
M 12.90625 21.203125 
L 31.796875 21.203125 
L 31.796875 49.796875 
z
" id="Inconsolata-Regular-52"/>
      </defs>
      <g style="fill:#555555;" transform="translate(274.363463 194.65)scale(0.1 -0.1)">
       <use xlink:href="#Inconsolata-Regular-52"/>
       <use x="49.999985" xlink:href="#Inconsolata-Regular-48"/>
      </g>
     </g>
    </g>
    <g id="xtick_4">
     <g id="line2d_7">
      <path clip-path="url(#p9132a4732f)" d="M 382.237408 181 
L 382.237408 10 
" style="fill:none;stroke:#ffffff;stroke-linecap:square;stroke-width:0.8;"/>
     </g>
     <g id="line2d_8">
      <g>
       <use style="fill:#555555;stroke:#555555;stroke-width:0.8;" x="382.237408" xlink:href="#mb24880fcd1" y="181"/>
      </g>
     </g>
     <g id="text_4">
      <!-- 60 -->
      <defs>
       <path d="M 26.796875 40.203125 
Q 31.5 40.203125 35.390625 37.640625 
Q 39.296875 35.09375 41.59375 30.4375 
Q 43.90625 25.796875 43.90625 19.796875 
Q 43.90625 13.703125 41.546875 9 
Q 39.203125 4.296875 35.09375 1.640625 
Q 31 -1 26.09375 -1 
Q 16.90625 -1 11.796875 6.84375 
Q 6.703125 14.703125 6.703125 28.40625 
Q 6.703125 39.40625 9.390625 47.203125 
Q 12.09375 55 17.046875 59 
Q 22 63 28.703125 63 
Q 36.5 63 42.40625 57.296875 
L 38 52.296875 
L 37.90625 52.203125 
Q 35.796875 54.796875 33.84375 55.796875 
Q 31.90625 56.796875 28.90625 56.796875 
Q 25.59375 56.796875 22.1875 54.75 
Q 18.796875 52.703125 16.25 47.34375 
Q 13.703125 42 13.59375 32.703125 
Q 15.703125 36.203125 19.25 38.203125 
Q 22.796875 40.203125 26.796875 40.203125 
z
M 36.796875 52 
Q 36.796875 52.59375 37.703125 51.90625 
L 37.296875 51.5 
L 36.796875 52 
z
M 37.90625 52.203125 
Q 38.5 51.40625 38.140625 51.65625 
Q 37.796875 51.90625 37.703125 51.90625 
L 37.90625 52.203125 
z
M 26.40625 5.203125 
Q 30.90625 5.203125 34 9.046875 
Q 37.09375 12.90625 37.09375 19.703125 
Q 37.09375 24.40625 35.5 27.65625 
Q 33.90625 30.90625 31.40625 32.5 
Q 28.90625 34.09375 26.203125 34.09375 
Q 22.703125 34.09375 19.390625 31.75 
Q 16.09375 29.40625 14 25.703125 
Q 13.796875 24.09375 13.796875 23.09375 
Q 13.796875 18.703125 15.34375 14.59375 
Q 16.90625 10.5 19.796875 7.84375 
Q 22.703125 5.203125 26.40625 5.203125 
z
" id="Inconsolata-Regular-54"/>
      </defs>
      <g style="fill:#555555;" transform="translate(377.237408 194.65)scale(0.1 -0.1)">
       <use xlink:href="#Inconsolata-Regular-54"/>
       <use x="49.999985" xlink:href="#Inconsolata-Regular-48"/>
      </g>
     </g>
    </g>
    <g id="xtick_5">
     <g id="line2d_9">
      <path clip-path="url(#p9132a4732f)" d="M 485.111353 181 
L 485.111353 10 
" style="fill:none;stroke:#ffffff;stroke-linecap:square;stroke-width:0.8;"/>
     </g>
     <g id="line2d_10">
      <g>
       <use style="fill:#555555;stroke:#555555;stroke-width:0.8;" x="485.111353" xlink:href="#mb24880fcd1" y="181"/>
      </g>
     </g>
     <g id="text_5">
      <!-- 80 -->
      <defs>
       <path d="M 25 -1 
Q 19.296875 -1 14.9375 1.203125 
Q 10.59375 3.40625 8.296875 7.203125 
Q 6 11 6 15.703125 
Q 6 21.09375 9.390625 25.796875 
Q 12.796875 30.5 18.5 33.09375 
Q 14.203125 35.296875 11.59375 39.25 
Q 9 43.203125 9 47.703125 
Q 9 54.40625 13.296875 58.75 
Q 17.59375 63.09375 25.5 63.09375 
Q 33.703125 63.09375 37.84375 58.9375 
Q 42 54.796875 42 48.296875 
Q 42 43.796875 39.296875 39.75 
Q 36.59375 35.703125 32.09375 33.296875 
Q 37.5 30.796875 40.796875 26.140625 
Q 44.09375 21.5 44.09375 16.09375 
Q 44.09375 11.296875 41.75 7.390625 
Q 39.40625 3.5 35.046875 1.25 
Q 30.703125 -1 25 -1 
z
M 26.703125 35.796875 
Q 30.40625 37.90625 32.796875 41.25 
Q 35.203125 44.59375 35.203125 48.09375 
Q 35.203125 51.90625 32.59375 54.546875 
Q 30 57.203125 25.296875 57.203125 
Q 20.59375 57.203125 18.140625 54.640625 
Q 15.703125 52.09375 15.703125 48.40625 
Q 15.703125 44.203125 18.390625 41.5 
Q 21.09375 38.796875 26.703125 35.796875 
z
M 25.203125 5.296875 
Q 30.796875 5.296875 33.890625 8.34375 
Q 37 11.40625 37 16.09375 
Q 37 20.703125 33.390625 24.546875 
Q 29.796875 28.40625 23.703125 30.296875 
Q 19.09375 28.40625 16.140625 24.59375 
Q 13.203125 20.796875 13.203125 16.40625 
Q 13.203125 11.703125 16.453125 8.5 
Q 19.703125 5.296875 25.203125 5.296875 
z
" id="Inconsolata-Regular-56"/>
      </defs>
      <g style="fill:#555555;" transform="translate(480.111353 194.65)scale(0.1 -0.1)">
       <use xlink:href="#Inconsolata-Regular-56"/>
       <use x="49.999985" xlink:href="#Inconsolata-Regular-48"/>
      </g>
     </g>
    </g>
    <g id="xtick_6">
     <g id="line2d_11">
      <path clip-path="url(#p9132a4732f)" d="M 587.985298 181 
L 587.985298 10 
" style="fill:none;stroke:#ffffff;stroke-linecap:square;stroke-width:0.8;"/>
     </g>
     <g id="line2d_12">
      <g>
       <use style="fill:#555555;stroke:#555555;stroke-width:0.8;" x="587.985298" xlink:href="#mb24880fcd1" y="181"/>
      </g>
     </g>
     <g id="text_6">
      <!-- 100 -->
      <defs>
       <path d="M 23 0 
L 23 53.703125 
L 10.40625 50 
L 8.796875 53.90625 
L 25.09375 62.40625 
L 30 62.40625 
L 30 0 
z
" id="Inconsolata-Regular-49"/>
      </defs>
      <g style="fill:#555555;" transform="translate(580.485298 194.65)scale(0.1 -0.1)">
       <use xlink:href="#Inconsolata-Regular-49"/>
       <use x="49.999985" xlink:href="#Inconsolata-Regular-48"/>
       <use x="99.999969" xlink:href="#Inconsolata-Regular-48"/>
      </g>
     </g>
    </g>
    <g id="text_7">
     <!-- days since 10 cases -->
     <defs>
      <path d="M 23.40625 -1 
Q 18.5 -1 14.203125 1.75 
Q 9.90625 4.5 7.203125 10 
Q 4.5 15.5 4.5 23.296875 
Q 4.5 31.203125 7.296875 36.5 
Q 10.09375 41.796875 14.5 44.34375 
Q 18.90625 46.90625 23.796875 46.90625 
Q 28.40625 46.90625 31.84375 44.796875 
Q 35.296875 42.703125 37.09375 39 
L 37.09375 66.5 
L 44.703125 66.5 
L 44.703125 65.796875 
Q 44.09375 65.203125 43.9375 64.5 
Q 43.796875 63.796875 43.796875 62.09375 
L 43.90625 7.09375 
Q 43.90625 4.703125 44.046875 3.140625 
Q 44.203125 1.59375 44.90625 0 
L 37.796875 0 
Q 37.09375 1.59375 36.9375 3.140625 
Q 36.796875 4.703125 36.796875 7.09375 
Q 34.59375 3.296875 31.140625 1.140625 
Q 27.703125 -1 23.40625 -1 
z
M 24.5 5.296875 
Q 30.703125 5.296875 33.59375 10.1875 
Q 36.5 15.09375 36.5 23.09375 
Q 36.5 31.203125 33.34375 36.09375 
Q 30.203125 41 23.90625 41 
Q 17.90625 41 14.703125 36.546875 
Q 11.5 32.09375 11.5 24.40625 
Q 11.5 15.59375 14.84375 10.4375 
Q 18.203125 5.296875 24.5 5.296875 
z
" id="Inconsolata-Regular-100"/>
      <path d="M 24.40625 46.703125 
Q 34.203125 46.703125 39.34375 41.59375 
Q 44.5 36.5 44.5 24.296875 
L 44.5 0 
L 36.703125 0 
L 36.703125 7 
Q 32.5 -1.09375 21.09375 -1.09375 
Q 13.5 -1.09375 9.203125 2.34375 
Q 4.90625 5.796875 4.90625 11.5 
Q 4.90625 16.296875 8 19.890625 
Q 11.09375 23.5 16.34375 25.453125 
Q 21.59375 27.40625 27.90625 27.40625 
Q 33.59375 27.40625 38.203125 26.796875 
Q 37.59375 34.5 34.140625 37.640625 
Q 30.703125 40.796875 23.90625 40.796875 
Q 20.5 40.796875 17.34375 39.5 
Q 14.203125 38.203125 11.59375 35.703125 
L 8.09375 40.296875 
Q 14.5 46.703125 24.40625 46.703125 
z
M 21.796875 4.40625 
Q 29.203125 4.40625 33.5 8.75 
Q 37.796875 13.09375 38.203125 21.296875 
Q 33.703125 22 28.5 22 
Q 20.90625 22 16.5 19.5 
Q 12.09375 17 12.09375 11.90625 
Q 12.09375 4.40625 21.796875 4.40625 
z
" id="Inconsolata-Regular-97"/>
      <path d="M 44.296875 45.703125 
Q 43.703125 41.59375 42.453125 37.59375 
Q 41.203125 33.59375 38.90625 27 
L 27.5 -5.203125 
Q 25.203125 -11.59375 21.5 -14.5 
Q 17.796875 -17.40625 12.703125 -17.40625 
Q 6.296875 -17.40625 2.203125 -13.5 
L 5.296875 -8.59375 
L 5.40625 -8.5 
L 5.5 -8.59375 
Q 7.09375 -10.09375 8.890625 -10.796875 
Q 10.703125 -11.5 13.09375 -11.5 
Q 16.796875 -11.5 19 -8.890625 
Q 21.203125 -6.296875 23.296875 -0.296875 
L 4.59375 45.703125 
L 12.09375 45.703125 
L 26.296875 9.09375 
L 32.296875 27.5 
Q 34.5 34.40625 35.546875 38.046875 
Q 36.59375 41.703125 37.09375 45.703125 
z
M 6.5 -8.203125 
Q 6.5 -8.40625 6.296875 -8.40625 
L 5.5 -8.203125 
L 5.90625 -7.703125 
L 6.5 -8.09375 
z
M 5.40625 -8.5 
Q 4.90625 -8 5.15625 -8.09375 
Q 5.40625 -8.203125 5.5 -8.203125 
L 5.40625 -8.5 
z
" id="Inconsolata-Regular-121"/>
      <path d="M 28.296875 26.90625 
Q 36.90625 24.296875 40.453125 21.25 
Q 44 18.203125 44 13.296875 
Q 44 7.09375 39.140625 3.046875 
Q 34.296875 -1 25.09375 -1 
Q 13.5 -1 5.703125 6.203125 
L 9.703125 13 
L 9.796875 13.09375 
L 9.90625 13 
Q 13 9 16.296875 7 
Q 19.59375 5 25.296875 5 
Q 30.703125 5 33.796875 6.953125 
Q 36.90625 8.90625 36.90625 12.296875 
Q 36.90625 15.203125 34.40625 17.09375 
Q 31.90625 19 25.40625 21.09375 
Q 8.203125 26 8.203125 35.296875 
Q 8.203125 40.59375 12.546875 43.6875 
Q 16.90625 46.796875 25 46.796875 
Q 31.203125 46.796875 35.453125 45.046875 
Q 39.703125 43.296875 43.203125 39.59375 
L 39.09375 34.59375 
L 39 34.5 
Q 36.90625 37.703125 33.046875 39.546875 
Q 29.203125 41.40625 25.203125 41.40625 
Q 20.90625 41.40625 18.15625 39.90625 
Q 15.40625 38.40625 15.40625 35.703125 
Q 15.40625 33.203125 18.203125 31.09375 
Q 21 29 28.296875 26.90625 
z
M 37.90625 34.296875 
Q 37.90625 34.796875 38.703125 34.203125 
L 38.40625 33.796875 
L 37.90625 34.296875 
z
M 39 34.5 
Q 39.296875 34.09375 39.25 34 
Q 39.203125 33.90625 39 34 
Q 38.796875 34.09375 38.703125 34.203125 
L 39 34.5 
z
M 10.90625 13.40625 
Q 10.90625 13 10 13.40625 
L 10.296875 13.90625 
L 10.90625 13.5 
z
M 9.796875 13.09375 
Q 9.5 13.59375 9.59375 13.59375 
Q 9.703125 13.59375 10 13.40625 
L 9.796875 13.09375 
z
" id="Inconsolata-Regular-115"/>
      <path id="Inconsolata-Regular-32"/>
      <path d="M 10 0 
L 10 5.796875 
L 21.703125 5.796875 
L 21.703125 39.90625 
L 10.59375 39.90625 
L 10.59375 45.703125 
L 28.90625 45.703125 
L 28.90625 5.796875 
L 39.59375 5.796875 
L 39.59375 0 
z
M 24.90625 55.296875 
Q 22.796875 55.296875 21.296875 56.796875 
Q 19.796875 58.296875 19.796875 60.40625 
Q 19.796875 62.59375 21.25 64.09375 
Q 22.703125 65.59375 24.90625 65.59375 
Q 27 65.59375 28.546875 64.046875 
Q 30.09375 62.5 30.09375 60.40625 
Q 30.09375 58.296875 28.546875 56.796875 
Q 27 55.296875 24.90625 55.296875 
z
" id="Inconsolata-Regular-105"/>
      <path d="M 7.203125 45.703125 
L 14.203125 45.703125 
L 14.203125 37.59375 
Q 16.90625 41.796875 21 44.296875 
Q 25.09375 46.796875 29.703125 46.796875 
Q 35.796875 46.796875 39.4375 42.140625 
Q 43.09375 37.5 43.09375 27.703125 
L 43.09375 0 
L 36.09375 0 
L 36.09375 27.5 
Q 36.09375 34.296875 33.796875 37.390625 
Q 31.5 40.5 27.703125 40.5 
Q 24.59375 40.5 21.4375 38.703125 
Q 18.296875 36.90625 16.25 33.65625 
Q 14.203125 30.40625 14.203125 26.296875 
L 14.203125 0 
L 7.203125 0 
z
" id="Inconsolata-Regular-110"/>
      <path d="M 28.90625 5.40625 
Q 35.796875 5.40625 40.796875 11 
L 45 6.09375 
Q 38.296875 -1.09375 28.5 -1.09375 
Q 21.90625 -1.09375 16.703125 2 
Q 11.5 5.09375 8.546875 10.546875 
Q 5.59375 16 5.59375 22.796875 
Q 5.59375 29.59375 8.546875 35 
Q 11.5 40.40625 16.703125 43.5 
Q 21.90625 46.59375 28.40625 46.59375 
Q 33.90625 46.59375 38.40625 44.34375 
Q 42.90625 42.09375 45.703125 38.09375 
L 41.203125 33.703125 
L 41.09375 33.59375 
Q 38.203125 37.40625 35.140625 38.953125 
Q 32.09375 40.5 27.59375 40.5 
Q 23.703125 40.5 20.34375 38.34375 
Q 17 36.203125 15 32.296875 
Q 13 28.40625 13 23.296875 
Q 13 18.203125 15.046875 14.09375 
Q 17.09375 10 20.75 7.703125 
Q 24.40625 5.40625 28.90625 5.40625 
z
M 40 33.5 
Q 40 34.09375 40.90625 33.40625 
L 40.5 33 
L 40 33.5 
z
M 41.09375 33.59375 
Q 41.59375 32.90625 41.34375 33.09375 
Q 41.09375 33.296875 40.90625 33.40625 
L 41.09375 33.59375 
z
" id="Inconsolata-Regular-99"/>
      <path d="M 27.203125 -1 
Q 17 -1 10.953125 5.203125 
Q 4.90625 11.40625 4.90625 22.703125 
Q 4.90625 30.203125 7.703125 35.640625 
Q 10.5 41.09375 15.25 43.9375 
Q 20 46.796875 25.90625 46.796875 
Q 34.203125 46.796875 39.34375 41.296875 
Q 44.5 35.796875 44.5 25.09375 
Q 44.5 24 44.296875 21.796875 
L 11.796875 21.796875 
Q 12.203125 13.40625 16.5 9.09375 
Q 20.796875 4.796875 27.40625 4.796875 
Q 34.59375 4.796875 39.203125 9.90625 
L 43.203125 6 
Q 37.40625 -1 27.203125 -1 
z
M 37.203125 27.40625 
Q 37.203125 33.796875 33.953125 37.546875 
Q 30.703125 41.296875 25.40625 41.296875 
Q 20.40625 41.296875 16.703125 37.796875 
Q 13 34.296875 12.09375 27.40625 
z
" id="Inconsolata-Regular-101"/>
     </defs>
     <g style="fill:#555555;" transform="translate(316.235938 208.300312)scale(0.12 -0.12)">
      <use xlink:href="#Inconsolata-Regular-100"/>
      <use x="49.999985" xlink:href="#Inconsolata-Regular-97"/>
      <use x="99.999969" xlink:href="#Inconsolata-Regular-121"/>
      <use x="149.999954" xlink:href="#Inconsolata-Regular-115"/>
      <use x="199.999939" xlink:href="#Inconsolata-Regular-32"/>
      <use x="249.999924" xlink:href="#Inconsolata-Regular-115"/>
      <use x="299.999908" xlink:href="#Inconsolata-Regular-105"/>
      <use x="349.999893" xlink:href="#Inconsolata-Regular-110"/>
      <use x="399.999878" xlink:href="#Inconsolata-Regular-99"/>
      <use x="449.999863" xlink:href="#Inconsolata-Regular-101"/>
      <use x="499.999847" xlink:href="#Inconsolata-Regular-32"/>
      <use x="549.999832" xlink:href="#Inconsolata-Regular-49"/>
      <use x="599.999817" xlink:href="#Inconsolata-Regular-48"/>
      <use x="649.999802" xlink:href="#Inconsolata-Regular-32"/>
      <use x="699.999786" xlink:href="#Inconsolata-Regular-99"/>
      <use x="749.999771" xlink:href="#Inconsolata-Regular-97"/>
      <use x="799.999756" xlink:href="#Inconsolata-Regular-115"/>
      <use x="849.999741" xlink:href="#Inconsolata-Regular-101"/>
      <use x="899.999725" xlink:href="#Inconsolata-Regular-115"/>
     </g>
    </g>
   </g>
   <g id="matplotlib.axis_2">
    <g id="ytick_1">
     <g id="line2d_13">
      <path clip-path="url(#p9132a4732f)" d="M 68.471875 181 
L 678 181 
" style="fill:none;stroke:#ffffff;stroke-linecap:square;stroke-width:0.8;"/>
     </g>
     <g id="line2d_14">
      <defs>
       <path d="M 0 0 
L -3.5 0 
" id="ma6367c3e6b" style="stroke:#555555;stroke-width:0.8;"/>
      </defs>
      <g>
       <use style="fill:#555555;stroke:#555555;stroke-width:0.8;" x="68.471875" xlink:href="#ma6367c3e6b" y="181"/>
      </g>
     </g>
     <g id="line2d_15">
      <defs>
       <path d="M 0 0 
L 3.5 0 
" id="me9f5e6a649" style="stroke:#555555;stroke-width:0.8;"/>
      </defs>
      <g>
       <use style="fill:#555555;stroke:#555555;stroke-width:0.8;" x="678" xlink:href="#me9f5e6a649" y="181"/>
      </g>
     </g>
     <g id="text_8">
      <!-- 1 -->
      <g style="fill:#555555;" transform="translate(56.471875 184.325)scale(0.1 -0.1)">
       <use xlink:href="#Inconsolata-Regular-49"/>
      </g>
     </g>
     <g id="text_9">
      <!-- 1 -->
      <g style="fill:#555555;" transform="translate(685 184.325)scale(0.1 -0.1)">
       <use xlink:href="#Inconsolata-Regular-49"/>
      </g>
     </g>
    </g>
    <g id="ytick_2">
     <g id="line2d_16">
      <path clip-path="url(#p9132a4732f)" d="M 68.471875 145.125469 
L 678 145.125469 
" style="fill:none;stroke:#ffffff;stroke-linecap:square;stroke-width:0.8;"/>
     </g>
     <g id="line2d_17">
      <g>
       <use style="fill:#555555;stroke:#555555;stroke-width:0.8;" x="68.471875" xlink:href="#ma6367c3e6b" y="145.125469"/>
      </g>
     </g>
     <g id="line2d_18">
      <g>
       <use style="fill:#555555;stroke:#555555;stroke-width:0.8;" x="678" xlink:href="#me9f5e6a649" y="145.125469"/>
      </g>
     </g>
     <g id="text_10">
      <!-- 10 -->
      <g style="fill:#555555;" transform="translate(51.471875 148.450469)scale(0.1 -0.1)">
       <use xlink:href="#Inconsolata-Regular-49"/>
       <use x="49.999985" xlink:href="#Inconsolata-Regular-48"/>
      </g>
     </g>
     <g id="text_11">
      <!-- 10 -->
      <g style="fill:#555555;" transform="translate(685 148.450469)scale(0.1 -0.1)">
       <use xlink:href="#Inconsolata-Regular-49"/>
       <use x="49.999985" xlink:href="#Inconsolata-Regular-48"/>
      </g>
     </g>
    </g>
    <g id="ytick_3">
     <g id="line2d_19">
      <path clip-path="url(#p9132a4732f)" d="M 68.471875 109.250939 
L 678 109.250939 
" style="fill:none;stroke:#ffffff;stroke-linecap:square;stroke-width:0.8;"/>
     </g>
     <g id="line2d_20">
      <g>
       <use style="fill:#555555;stroke:#555555;stroke-width:0.8;" x="68.471875" xlink:href="#ma6367c3e6b" y="109.250939"/>
      </g>
     </g>
     <g id="line2d_21">
      <g>
       <use style="fill:#555555;stroke:#555555;stroke-width:0.8;" x="678" xlink:href="#me9f5e6a649" y="109.250939"/>
      </g>
     </g>
     <g id="text_12">
      <!-- 100 -->
      <g style="fill:#555555;" transform="translate(46.471875 112.575939)scale(0.1 -0.1)">
       <use xlink:href="#Inconsolata-Regular-49"/>
       <use x="49.999985" xlink:href="#Inconsolata-Regular-48"/>
       <use x="99.999969" xlink:href="#Inconsolata-Regular-48"/>
      </g>
     </g>
     <g id="text_13">
      <!-- 100 -->
      <g style="fill:#555555;" transform="translate(685 112.575939)scale(0.1 -0.1)">
       <use xlink:href="#Inconsolata-Regular-49"/>
       <use x="49.999985" xlink:href="#Inconsolata-Regular-48"/>
       <use x="99.999969" xlink:href="#Inconsolata-Regular-48"/>
      </g>
     </g>
    </g>
    <g id="ytick_4">
     <g id="line2d_22">
      <path clip-path="url(#p9132a4732f)" d="M 68.471875 73.376408 
L 678 73.376408 
" style="fill:none;stroke:#ffffff;stroke-linecap:square;stroke-width:0.8;"/>
     </g>
     <g id="line2d_23">
      <g>
       <use style="fill:#555555;stroke:#555555;stroke-width:0.8;" x="68.471875" xlink:href="#ma6367c3e6b" y="73.376408"/>
      </g>
     </g>
     <g id="line2d_24">
      <g>
       <use style="fill:#555555;stroke:#555555;stroke-width:0.8;" x="678" xlink:href="#me9f5e6a649" y="73.376408"/>
      </g>
     </g>
     <g id="text_14">
      <!-- 1000 -->
      <g style="fill:#555555;" transform="translate(41.471875 76.701408)scale(0.1 -0.1)">
       <use xlink:href="#Inconsolata-Regular-49"/>
       <use x="49.999985" xlink:href="#Inconsolata-Regular-48"/>
       <use x="99.999969" xlink:href="#Inconsolata-Regular-48"/>
       <use x="149.999954" xlink:href="#Inconsolata-Regular-48"/>
      </g>
     </g>
     <g id="text_15">
      <!-- 1000 -->
      <g style="fill:#555555;" transform="translate(685 76.701408)scale(0.1 -0.1)">
       <use xlink:href="#Inconsolata-Regular-49"/>
       <use x="49.999985" xlink:href="#Inconsolata-Regular-48"/>
       <use x="99.999969" xlink:href="#Inconsolata-Regular-48"/>
       <use x="149.999954" xlink:href="#Inconsolata-Regular-48"/>
      </g>
     </g>
    </g>
    <g id="ytick_5">
     <g id="line2d_25">
      <path clip-path="url(#p9132a4732f)" d="M 68.471875 37.501877 
L 678 37.501877 
" style="fill:none;stroke:#ffffff;stroke-linecap:square;stroke-width:0.8;"/>
     </g>
     <g id="line2d_26">
      <g>
       <use style="fill:#555555;stroke:#555555;stroke-width:0.8;" x="68.471875" xlink:href="#ma6367c3e6b" y="37.501877"/>
      </g>
     </g>
     <g id="line2d_27">
      <g>
       <use style="fill:#555555;stroke:#555555;stroke-width:0.8;" x="678" xlink:href="#me9f5e6a649" y="37.501877"/>
      </g>
     </g>
     <g id="text_16">
      <!-- 10000 -->
      <g style="fill:#555555;" transform="translate(36.471875 40.826877)scale(0.1 -0.1)">
       <use xlink:href="#Inconsolata-Regular-49"/>
       <use x="49.999985" xlink:href="#Inconsolata-Regular-48"/>
       <use x="99.999969" xlink:href="#Inconsolata-Regular-48"/>
       <use x="149.999954" xlink:href="#Inconsolata-Regular-48"/>
       <use x="199.999939" xlink:href="#Inconsolata-Regular-48"/>
      </g>
     </g>
     <g id="text_17">
      <!-- 10000 -->
      <g style="fill:#555555;" transform="translate(685 40.826877)scale(0.1 -0.1)">
       <use xlink:href="#Inconsolata-Regular-49"/>
       <use x="49.999985" xlink:href="#Inconsolata-Regular-48"/>
       <use x="99.999969" xlink:href="#Inconsolata-Regular-48"/>
       <use x="149.999954" xlink:href="#Inconsolata-Regular-48"/>
       <use x="199.999939" xlink:href="#Inconsolata-Regular-48"/>
      </g>
     </g>
    </g>
    <g id="ytick_6">
     <g id="line2d_28">
      <defs>
       <path d="M 0 0 
L -2 0 
" id="m69b69de2d5" style="stroke:#555555;stroke-width:0.6;"/>
      </defs>
      <g>
       <use style="fill:#555555;stroke:#555555;stroke-width:0.6;" x="68.471875" xlink:href="#m69b69de2d5" y="170.20069"/>
      </g>
     </g>
     <g id="line2d_29">
      <defs>
       <path d="M 0 0 
L 2 0 
" id="mc4cf8795ef" style="stroke:#555555;stroke-width:0.6;"/>
      </defs>
      <g>
       <use style="fill:#555555;stroke:#555555;stroke-width:0.6;" x="678" xlink:href="#mc4cf8795ef" y="170.20069"/>
      </g>
     </g>
    </g>
    <g id="ytick_7">
     <g id="line2d_30">
      <g>
       <use style="fill:#555555;stroke:#555555;stroke-width:0.6;" x="68.471875" xlink:href="#m69b69de2d5" y="163.883499"/>
      </g>
     </g>
     <g id="line2d_31">
      <g>
       <use style="fill:#555555;stroke:#555555;stroke-width:0.6;" x="678" xlink:href="#mc4cf8795ef" y="163.883499"/>
      </g>
     </g>
    </g>
    <g id="ytick_8">
     <g id="line2d_32">
      <g>
       <use style="fill:#555555;stroke:#555555;stroke-width:0.6;" x="68.471875" xlink:href="#m69b69de2d5" y="159.40138"/>
      </g>
     </g>
     <g id="line2d_33">
      <g>
       <use style="fill:#555555;stroke:#555555;stroke-width:0.6;" x="678" xlink:href="#mc4cf8795ef" y="159.40138"/>
      </g>
     </g>
    </g>
    <g id="ytick_9">
     <g id="line2d_34">
      <g>
       <use style="fill:#555555;stroke:#555555;stroke-width:0.6;" x="68.471875" xlink:href="#m69b69de2d5" y="155.924779"/>
      </g>
     </g>
     <g id="line2d_35">
      <g>
       <use style="fill:#555555;stroke:#555555;stroke-width:0.6;" x="678" xlink:href="#mc4cf8795ef" y="155.924779"/>
      </g>
     </g>
    </g>
    <g id="ytick_10">
     <g id="line2d_36">
      <g>
       <use style="fill:#555555;stroke:#555555;stroke-width:0.6;" x="68.471875" xlink:href="#m69b69de2d5" y="153.084189"/>
      </g>
     </g>
     <g id="line2d_37">
      <g>
       <use style="fill:#555555;stroke:#555555;stroke-width:0.6;" x="678" xlink:href="#mc4cf8795ef" y="153.084189"/>
      </g>
     </g>
    </g>
    <g id="ytick_11">
     <g id="line2d_38">
      <g>
       <use style="fill:#555555;stroke:#555555;stroke-width:0.6;" x="68.471875" xlink:href="#m69b69de2d5" y="150.682504"/>
      </g>
     </g>
     <g id="line2d_39">
      <g>
       <use style="fill:#555555;stroke:#555555;stroke-width:0.6;" x="678" xlink:href="#mc4cf8795ef" y="150.682504"/>
      </g>
     </g>
    </g>
    <g id="ytick_12">
     <g id="line2d_40">
      <g>
       <use style="fill:#555555;stroke:#555555;stroke-width:0.6;" x="68.471875" xlink:href="#m69b69de2d5" y="148.602071"/>
      </g>
     </g>
     <g id="line2d_41">
      <g>
       <use style="fill:#555555;stroke:#555555;stroke-width:0.6;" x="678" xlink:href="#mc4cf8795ef" y="148.602071"/>
      </g>
     </g>
    </g>
    <g id="ytick_13">
     <g id="line2d_42">
      <g>
       <use style="fill:#555555;stroke:#555555;stroke-width:0.6;" x="68.471875" xlink:href="#m69b69de2d5" y="146.766998"/>
      </g>
     </g>
     <g id="line2d_43">
      <g>
       <use style="fill:#555555;stroke:#555555;stroke-width:0.6;" x="678" xlink:href="#mc4cf8795ef" y="146.766998"/>
      </g>
     </g>
    </g>
    <g id="ytick_14">
     <g id="line2d_44">
      <g>
       <use style="fill:#555555;stroke:#555555;stroke-width:0.6;" x="68.471875" xlink:href="#m69b69de2d5" y="134.326159"/>
      </g>
     </g>
     <g id="line2d_45">
      <g>
       <use style="fill:#555555;stroke:#555555;stroke-width:0.6;" x="678" xlink:href="#mc4cf8795ef" y="134.326159"/>
      </g>
     </g>
    </g>
    <g id="ytick_15">
     <g id="line2d_46">
      <g>
       <use style="fill:#555555;stroke:#555555;stroke-width:0.6;" x="68.471875" xlink:href="#m69b69de2d5" y="128.008968"/>
      </g>
     </g>
     <g id="line2d_47">
      <g>
       <use style="fill:#555555;stroke:#555555;stroke-width:0.6;" x="678" xlink:href="#mc4cf8795ef" y="128.008968"/>
      </g>
     </g>
    </g>
    <g id="ytick_16">
     <g id="line2d_48">
      <g>
       <use style="fill:#555555;stroke:#555555;stroke-width:0.6;" x="68.471875" xlink:href="#m69b69de2d5" y="123.52685"/>
      </g>
     </g>
     <g id="line2d_49">
      <g>
       <use style="fill:#555555;stroke:#555555;stroke-width:0.6;" x="678" xlink:href="#mc4cf8795ef" y="123.52685"/>
      </g>
     </g>
    </g>
    <g id="ytick_17">
     <g id="line2d_50">
      <g>
       <use style="fill:#555555;stroke:#555555;stroke-width:0.6;" x="68.471875" xlink:href="#m69b69de2d5" y="120.050248"/>
      </g>
     </g>
     <g id="line2d_51">
      <g>
       <use style="fill:#555555;stroke:#555555;stroke-width:0.6;" x="678" xlink:href="#mc4cf8795ef" y="120.050248"/>
      </g>
     </g>
    </g>
    <g id="ytick_18">
     <g id="line2d_52">
      <g>
       <use style="fill:#555555;stroke:#555555;stroke-width:0.6;" x="68.471875" xlink:href="#m69b69de2d5" y="117.209658"/>
      </g>
     </g>
     <g id="line2d_53">
      <g>
       <use style="fill:#555555;stroke:#555555;stroke-width:0.6;" x="678" xlink:href="#mc4cf8795ef" y="117.209658"/>
      </g>
     </g>
    </g>
    <g id="ytick_19">
     <g id="line2d_54">
      <g>
       <use style="fill:#555555;stroke:#555555;stroke-width:0.6;" x="68.471875" xlink:href="#m69b69de2d5" y="114.807974"/>
      </g>
     </g>
     <g id="line2d_55">
      <g>
       <use style="fill:#555555;stroke:#555555;stroke-width:0.6;" x="678" xlink:href="#mc4cf8795ef" y="114.807974"/>
      </g>
     </g>
    </g>
    <g id="ytick_20">
     <g id="line2d_56">
      <g>
       <use style="fill:#555555;stroke:#555555;stroke-width:0.6;" x="68.471875" xlink:href="#m69b69de2d5" y="112.72754"/>
      </g>
     </g>
     <g id="line2d_57">
      <g>
       <use style="fill:#555555;stroke:#555555;stroke-width:0.6;" x="678" xlink:href="#mc4cf8795ef" y="112.72754"/>
      </g>
     </g>
    </g>
    <g id="ytick_21">
     <g id="line2d_58">
      <g>
       <use style="fill:#555555;stroke:#555555;stroke-width:0.6;" x="68.471875" xlink:href="#m69b69de2d5" y="110.892467"/>
      </g>
     </g>
     <g id="line2d_59">
      <g>
       <use style="fill:#555555;stroke:#555555;stroke-width:0.6;" x="678" xlink:href="#mc4cf8795ef" y="110.892467"/>
      </g>
     </g>
    </g>
    <g id="ytick_22">
     <g id="line2d_60">
      <g>
       <use style="fill:#555555;stroke:#555555;stroke-width:0.6;" x="68.471875" xlink:href="#m69b69de2d5" y="98.451629"/>
      </g>
     </g>
     <g id="line2d_61">
      <g>
       <use style="fill:#555555;stroke:#555555;stroke-width:0.6;" x="678" xlink:href="#mc4cf8795ef" y="98.451629"/>
      </g>
     </g>
    </g>
    <g id="ytick_23">
     <g id="line2d_62">
      <g>
       <use style="fill:#555555;stroke:#555555;stroke-width:0.6;" x="68.471875" xlink:href="#m69b69de2d5" y="92.134438"/>
      </g>
     </g>
     <g id="line2d_63">
      <g>
       <use style="fill:#555555;stroke:#555555;stroke-width:0.6;" x="678" xlink:href="#mc4cf8795ef" y="92.134438"/>
      </g>
     </g>
    </g>
    <g id="ytick_24">
     <g id="line2d_64">
      <g>
       <use style="fill:#555555;stroke:#555555;stroke-width:0.6;" x="68.471875" xlink:href="#m69b69de2d5" y="87.652319"/>
      </g>
     </g>
     <g id="line2d_65">
      <g>
       <use style="fill:#555555;stroke:#555555;stroke-width:0.6;" x="678" xlink:href="#mc4cf8795ef" y="87.652319"/>
      </g>
     </g>
    </g>
    <g id="ytick_25">
     <g id="line2d_66">
      <g>
       <use style="fill:#555555;stroke:#555555;stroke-width:0.6;" x="68.471875" xlink:href="#m69b69de2d5" y="84.175718"/>
      </g>
     </g>
     <g id="line2d_67">
      <g>
       <use style="fill:#555555;stroke:#555555;stroke-width:0.6;" x="678" xlink:href="#mc4cf8795ef" y="84.175718"/>
      </g>
     </g>
    </g>
    <g id="ytick_26">
     <g id="line2d_68">
      <g>
       <use style="fill:#555555;stroke:#555555;stroke-width:0.6;" x="68.471875" xlink:href="#m69b69de2d5" y="81.335128"/>
      </g>
     </g>
     <g id="line2d_69">
      <g>
       <use style="fill:#555555;stroke:#555555;stroke-width:0.6;" x="678" xlink:href="#mc4cf8795ef" y="81.335128"/>
      </g>
     </g>
    </g>
    <g id="ytick_27">
     <g id="line2d_70">
      <g>
       <use style="fill:#555555;stroke:#555555;stroke-width:0.6;" x="68.471875" xlink:href="#m69b69de2d5" y="78.933443"/>
      </g>
     </g>
     <g id="line2d_71">
      <g>
       <use style="fill:#555555;stroke:#555555;stroke-width:0.6;" x="678" xlink:href="#mc4cf8795ef" y="78.933443"/>
      </g>
     </g>
    </g>
    <g id="ytick_28">
     <g id="line2d_72">
      <g>
       <use style="fill:#555555;stroke:#555555;stroke-width:0.6;" x="68.471875" xlink:href="#m69b69de2d5" y="76.853009"/>
      </g>
     </g>
     <g id="line2d_73">
      <g>
       <use style="fill:#555555;stroke:#555555;stroke-width:0.6;" x="678" xlink:href="#mc4cf8795ef" y="76.853009"/>
      </g>
     </g>
    </g>
    <g id="ytick_29">
     <g id="line2d_74">
      <g>
       <use style="fill:#555555;stroke:#555555;stroke-width:0.6;" x="68.471875" xlink:href="#m69b69de2d5" y="75.017936"/>
      </g>
     </g>
     <g id="line2d_75">
      <g>
       <use style="fill:#555555;stroke:#555555;stroke-width:0.6;" x="678" xlink:href="#mc4cf8795ef" y="75.017936"/>
      </g>
     </g>
    </g>
    <g id="ytick_30">
     <g id="line2d_76">
      <g>
       <use style="fill:#555555;stroke:#555555;stroke-width:0.6;" x="68.471875" xlink:href="#m69b69de2d5" y="62.577098"/>
      </g>
     </g>
     <g id="line2d_77">
      <g>
       <use style="fill:#555555;stroke:#555555;stroke-width:0.6;" x="678" xlink:href="#mc4cf8795ef" y="62.577098"/>
      </g>
     </g>
    </g>
    <g id="ytick_31">
     <g id="line2d_78">
      <g>
       <use style="fill:#555555;stroke:#555555;stroke-width:0.6;" x="68.471875" xlink:href="#m69b69de2d5" y="56.259907"/>
      </g>
     </g>
     <g id="line2d_79">
      <g>
       <use style="fill:#555555;stroke:#555555;stroke-width:0.6;" x="678" xlink:href="#mc4cf8795ef" y="56.259907"/>
      </g>
     </g>
    </g>
    <g id="ytick_32">
     <g id="line2d_80">
      <g>
       <use style="fill:#555555;stroke:#555555;stroke-width:0.6;" x="68.471875" xlink:href="#m69b69de2d5" y="51.777788"/>
      </g>
     </g>
     <g id="line2d_81">
      <g>
       <use style="fill:#555555;stroke:#555555;stroke-width:0.6;" x="678" xlink:href="#mc4cf8795ef" y="51.777788"/>
      </g>
     </g>
    </g>
    <g id="ytick_33">
     <g id="line2d_82">
      <g>
       <use style="fill:#555555;stroke:#555555;stroke-width:0.6;" x="68.471875" xlink:href="#m69b69de2d5" y="48.301187"/>
      </g>
     </g>
     <g id="line2d_83">
      <g>
       <use style="fill:#555555;stroke:#555555;stroke-width:0.6;" x="678" xlink:href="#mc4cf8795ef" y="48.301187"/>
      </g>
     </g>
    </g>
    <g id="ytick_34">
     <g id="line2d_84">
      <g>
       <use style="fill:#555555;stroke:#555555;stroke-width:0.6;" x="68.471875" xlink:href="#m69b69de2d5" y="45.460597"/>
      </g>
     </g>
     <g id="line2d_85">
      <g>
       <use style="fill:#555555;stroke:#555555;stroke-width:0.6;" x="678" xlink:href="#mc4cf8795ef" y="45.460597"/>
      </g>
     </g>
    </g>
    <g id="ytick_35">
     <g id="line2d_86">
      <g>
       <use style="fill:#555555;stroke:#555555;stroke-width:0.6;" x="68.471875" xlink:href="#m69b69de2d5" y="43.058912"/>
      </g>
     </g>
     <g id="line2d_87">
      <g>
       <use style="fill:#555555;stroke:#555555;stroke-width:0.6;" x="678" xlink:href="#mc4cf8795ef" y="43.058912"/>
      </g>
     </g>
    </g>
    <g id="ytick_36">
     <g id="line2d_88">
      <g>
       <use style="fill:#555555;stroke:#555555;stroke-width:0.6;" x="68.471875" xlink:href="#m69b69de2d5" y="40.978478"/>
      </g>
     </g>
     <g id="line2d_89">
      <g>
       <use style="fill:#555555;stroke:#555555;stroke-width:0.6;" x="678" xlink:href="#mc4cf8795ef" y="40.978478"/>
      </g>
     </g>
    </g>
    <g id="ytick_37">
     <g id="line2d_90">
      <g>
       <use style="fill:#555555;stroke:#555555;stroke-width:0.6;" x="68.471875" xlink:href="#m69b69de2d5" y="39.143406"/>
      </g>
     </g>
     <g id="line2d_91">
      <g>
       <use style="fill:#555555;stroke:#555555;stroke-width:0.6;" x="678" xlink:href="#mc4cf8795ef" y="39.143406"/>
      </g>
     </g>
    </g>
    <g id="ytick_38">
     <g id="line2d_92">
      <g>
       <use style="fill:#555555;stroke:#555555;stroke-width:0.6;" x="68.471875" xlink:href="#m69b69de2d5" y="26.702567"/>
      </g>
     </g>
     <g id="line2d_93">
      <g>
       <use style="fill:#555555;stroke:#555555;stroke-width:0.6;" x="678" xlink:href="#mc4cf8795ef" y="26.702567"/>
      </g>
     </g>
    </g>
    <g id="ytick_39">
     <g id="line2d_94">
      <g>
       <use style="fill:#555555;stroke:#555555;stroke-width:0.6;" x="68.471875" xlink:href="#m69b69de2d5" y="20.385376"/>
      </g>
     </g>
     <g id="line2d_95">
      <g>
       <use style="fill:#555555;stroke:#555555;stroke-width:0.6;" x="678" xlink:href="#mc4cf8795ef" y="20.385376"/>
      </g>
     </g>
    </g>
    <g id="ytick_40">
     <g id="line2d_96">
      <g>
       <use style="fill:#555555;stroke:#555555;stroke-width:0.6;" x="68.471875" xlink:href="#m69b69de2d5" y="15.903258"/>
      </g>
     </g>
     <g id="line2d_97">
      <g>
       <use style="fill:#555555;stroke:#555555;stroke-width:0.6;" x="678" xlink:href="#mc4cf8795ef" y="15.903258"/>
      </g>
     </g>
    </g>
    <g id="ytick_41">
     <g id="line2d_98">
      <g>
       <use style="fill:#555555;stroke:#555555;stroke-width:0.6;" x="68.471875" xlink:href="#m69b69de2d5" y="12.426656"/>
      </g>
     </g>
     <g id="line2d_99">
      <g>
       <use style="fill:#555555;stroke:#555555;stroke-width:0.6;" x="678" xlink:href="#mc4cf8795ef" y="12.426656"/>
      </g>
     </g>
    </g>
    <g id="text_18">
     <!-- daily new cases -->
     <defs>
      <path d="M 7.90625 0 
L 7.90625 5.796875 
L 21.40625 5.796875 
L 21.40625 60.703125 
L 8.5 60.703125 
L 8.5 66.5 
L 28.703125 66.5 
L 28.703125 5.796875 
L 42.09375 5.796875 
L 42.09375 0 
z
" id="Inconsolata-Regular-108"/>
      <path d="M 1.59375 45.703125 
L 7.90625 45.703125 
L 15.296875 9 
L 23.09375 41.40625 
L 27.5 41.40625 
L 37.203125 9.09375 
Q 40 27.796875 40.703125 33.640625 
Q 41.40625 39.5 41.40625 44.203125 
L 41.40625 45.703125 
L 48.09375 45.703125 
Q 45.09375 22.5 40.5 -0.09375 
L 33.703125 -0.09375 
L 25.296875 29.5 
L 17.296875 -0.09375 
L 10.796875 -0.09375 
z
" id="Inconsolata-Regular-119"/>
     </defs>
     <g style="fill:#555555;" transform="translate(18.718375 140.5)rotate(-90)scale(0.12 -0.12)">
      <use xlink:href="#Inconsolata-Regular-100"/>
      <use x="49.999985" xlink:href="#Inconsolata-Regular-97"/>
      <use x="99.999969" xlink:href="#Inconsolata-Regular-105"/>
      <use x="149.999954" xlink:href="#Inconsolata-Regular-108"/>
      <use x="199.999939" xlink:href="#Inconsolata-Regular-121"/>
      <use x="249.999924" xlink:href="#Inconsolata-Regular-32"/>
      <use x="299.999908" xlink:href="#Inconsolata-Regular-110"/>
      <use x="349.999893" xlink:href="#Inconsolata-Regular-101"/>
      <use x="399.999878" xlink:href="#Inconsolata-Regular-119"/>
      <use x="449.999863" xlink:href="#Inconsolata-Regular-32"/>
      <use x="499.999847" xlink:href="#Inconsolata-Regular-99"/>
      <use x="549.999832" xlink:href="#Inconsolata-Regular-97"/>
      <use x="599.999817" xlink:href="#Inconsolata-Regular-115"/>
      <use x="649.999802" xlink:href="#Inconsolata-Regular-101"/>
      <use x="699.999786" xlink:href="#Inconsolata-Regular-115"/>
     </g>
     <!-- (rolling 7-day mean) -->
     <defs>
      <path d="M 39.5 -17.40625 
Q 31.296875 -13.59375 25.09375 -7 
Q 18.90625 -0.40625 15.546875 7.890625 
Q 12.203125 16.203125 12.203125 25 
Q 12.203125 33.796875 15.5 41.890625 
Q 18.796875 50 24.84375 56.34375 
Q 30.90625 62.703125 38.90625 66.5 
L 40.796875 60.296875 
Q 31 55 25.140625 45.390625 
Q 19.296875 35.796875 19.296875 24.703125 
Q 19.296875 13.5 25.296875 3.703125 
Q 31.296875 -6.09375 41.40625 -11.40625 
L 39.5 -17.40625 
z
" id="Inconsolata-Regular-40"/>
      <path d="M 42.59375 36.203125 
L 42.59375 36.09375 
Q 39.703125 38.796875 37.75 39.6875 
Q 35.796875 40.59375 33.203125 40.59375 
Q 29.59375 40.59375 26.390625 38.796875 
Q 23.203125 37 21.203125 33.34375 
Q 19.203125 29.703125 19.203125 24.203125 
L 19.203125 -0.09375 
L 11.90625 -0.09375 
L 11.90625 45.703125 
L 19.40625 45.703125 
L 19.203125 37.296875 
Q 21.09375 41.796875 25.046875 44.296875 
Q 29 46.796875 33.703125 46.796875 
Q 41 46.796875 45.796875 41.796875 
z
M 42.59375 36.09375 
Q 43.296875 35.5 42.9375 35.59375 
Q 42.59375 35.703125 42.40625 35.796875 
L 42.59375 36.09375 
z
M 41.5 35.796875 
Q 41.5 36.09375 41.796875 36.046875 
Q 42.09375 36 42.40625 35.796875 
L 42.203125 35.296875 
L 41.5 35.703125 
z
" id="Inconsolata-Regular-114"/>
      <path d="M 25 -0.796875 
Q 18.90625 -0.796875 14.09375 2.203125 
Q 9.296875 5.203125 6.59375 10.59375 
Q 3.90625 16 3.90625 22.90625 
Q 3.90625 29.796875 6.59375 35.1875 
Q 9.296875 40.59375 14.09375 43.640625 
Q 18.90625 46.703125 25 46.703125 
Q 31.09375 46.703125 35.890625 43.640625 
Q 40.703125 40.59375 43.390625 35.1875 
Q 46.09375 29.796875 46.09375 22.90625 
Q 46.09375 16 43.390625 10.59375 
Q 40.703125 5.203125 35.890625 2.203125 
Q 31.09375 -0.796875 25 -0.796875 
z
M 25 5.203125 
Q 28.90625 5.203125 31.953125 7.5 
Q 35 9.796875 36.75 13.84375 
Q 38.5 17.90625 38.5 23 
Q 38.5 30.796875 34.703125 35.75 
Q 30.90625 40.703125 25 40.703125 
Q 19.09375 40.703125 15.296875 35.75 
Q 11.5 30.796875 11.5 23 
Q 11.5 17.90625 13.25 13.84375 
Q 15 9.796875 18.046875 7.5 
Q 21.09375 5.203125 25 5.203125 
z
" id="Inconsolata-Regular-111"/>
      <path d="M 47.5 41 
Q 46.59375 41.09375 44.90625 41.09375 
Q 40.09375 41.09375 36.90625 39 
Q 38.59375 35.59375 38.59375 31.5 
Q 38.59375 27 36.640625 23.34375 
Q 34.703125 19.703125 31.046875 17.59375 
Q 27.40625 15.5 22.59375 15.5 
Q 18.796875 15.5 15.5 16.90625 
Q 13.703125 14.703125 13.703125 12.703125 
Q 13.703125 10.296875 16.75 9.25 
Q 19.796875 8.203125 27.703125 8.203125 
Q 37.40625 8.203125 40.953125 5.25 
Q 44.5 2.296875 44.5 -3.40625 
Q 44.5 -9.296875 39.703125 -13.25 
Q 34.90625 -17.203125 24.703125 -17.203125 
Q 14.90625 -17.203125 9.34375 -14.203125 
Q 3.796875 -11.203125 3.796875 -5.40625 
Q 3.796875 -1.796875 5.796875 0.796875 
Q 7.796875 3.40625 10.90625 4.90625 
Q 7.59375 7.09375 7.59375 11 
Q 7.59375 15 11.703125 19.40625 
Q 9.203125 21.59375 7.890625 24.6875 
Q 6.59375 27.796875 6.59375 31.5 
Q 6.59375 35.90625 8.546875 39.546875 
Q 10.5 43.203125 14.140625 45.296875 
Q 17.796875 47.40625 22.59375 47.40625 
Q 29.90625 47.40625 34.296875 42.703125 
Q 36.703125 44.90625 39.25 45.953125 
Q 41.796875 47 44.90625 47 
L 46.59375 46.90625 
L 47.5 41 
z
M 22.59375 21.5 
Q 26.90625 21.5 29.75 24.390625 
Q 32.59375 27.296875 32.59375 31.5 
Q 32.59375 35.703125 29.75 38.59375 
Q 26.90625 41.5 22.59375 41.5 
Q 18.296875 41.5 15.4375 38.59375 
Q 12.59375 35.703125 12.59375 31.5 
Q 12.59375 27.296875 15.4375 24.390625 
Q 18.296875 21.5 22.59375 21.5 
z
M 37.90625 -4.5 
Q 37.90625 -2.09375 37.046875 -0.75 
Q 36.203125 0.59375 33.703125 1.25 
Q 31.203125 1.90625 26.203125 1.90625 
Q 19 1.90625 14.703125 3.203125 
Q 12.296875 1.59375 11.34375 -0.09375 
Q 10.40625 -1.796875 10.40625 -4.59375 
Q 10.40625 -8 14.203125 -9.890625 
Q 18 -11.796875 24.796875 -11.796875 
Q 31.40625 -11.796875 34.65625 -9.84375 
Q 37.90625 -7.90625 37.90625 -4.5 
z
" id="Inconsolata-Regular-103"/>
      <path d="M 15.5 0 
Q 24.203125 28.5 34.5 55.703125 
L 7.90625 55.703125 
L 7.90625 62.296875 
L 43.203125 62.296875 
L 43.203125 58.40625 
Q 30.90625 27.40625 23.40625 0 
L 15.5 0 
z
" id="Inconsolata-Regular-55"/>
      <path d="M 7.09375 28.09375 
L 7.09375 34.796875 
L 43.09375 34.796875 
L 43.09375 28.09375 
z
" id="Inconsolata-Regular-45"/>
      <path d="M 3.796875 45.703125 
L 10.40625 45.703125 
L 10.40625 41.203125 
Q 12 43.703125 14.5 45.25 
Q 17 46.796875 19.703125 46.796875 
Q 22.703125 46.796875 24.953125 44.890625 
Q 27.203125 43 27.796875 40.09375 
Q 29.09375 43.09375 31.890625 44.9375 
Q 34.703125 46.796875 38.09375 46.796875 
Q 42.59375 46.796875 44.84375 43.546875 
Q 47.09375 40.296875 46.90625 35.09375 
L 46.90625 0 
L 40.296875 0 
L 40.296875 32.40625 
Q 40.296875 38.09375 39.1875 39.796875 
Q 38.09375 41.5 36 41.5 
Q 34.203125 41.5 32.5 39.796875 
Q 30.796875 38.09375 29.75 35.4375 
Q 28.703125 32.796875 28.703125 30.203125 
L 28.703125 0 
L 22 0 
L 22 31.796875 
Q 22 37.40625 20.953125 39.34375 
Q 19.90625 41.296875 17 41.296875 
Q 15.5 41.296875 13.953125 39.9375 
Q 12.40625 38.59375 11.40625 36.140625 
Q 10.40625 33.703125 10.40625 30.5 
L 10.40625 0 
L 3.796875 0 
z
" id="Inconsolata-Regular-109"/>
      <path d="M 11.40625 -11.40625 
Q 21.5 -6.09375 27.5 3.703125 
Q 33.5 13.5 33.5 24.703125 
Q 33.5 35.796875 27.640625 45.390625 
Q 21.796875 55 12 60.296875 
L 13.90625 66.5 
Q 21.90625 62.703125 27.953125 56.34375 
Q 34 50 37.296875 41.890625 
Q 40.59375 33.796875 40.59375 25 
Q 40.59375 16.203125 37.25 7.890625 
Q 33.90625 -0.40625 27.703125 -7 
Q 21.5 -13.59375 13.296875 -17.40625 
z
" id="Inconsolata-Regular-41"/>
     </defs>
     <g style="fill:#555555;" transform="translate(30.383125 155.5)rotate(-90)scale(0.12 -0.12)">
      <use xlink:href="#Inconsolata-Regular-40"/>
      <use x="49.999985" xlink:href="#Inconsolata-Regular-114"/>
      <use x="99.999969" xlink:href="#Inconsolata-Regular-111"/>
      <use x="149.999954" xlink:href="#Inconsolata-Regular-108"/>
      <use x="199.999939" xlink:href="#Inconsolata-Regular-108"/>
      <use x="249.999924" xlink:href="#Inconsolata-Regular-105"/>
      <use x="299.999908" xlink:href="#Inconsolata-Regular-110"/>
      <use x="349.999893" xlink:href="#Inconsolata-Regular-103"/>
      <use x="399.999878" xlink:href="#Inconsolata-Regular-32"/>
      <use x="449.999863" xlink:href="#Inconsolata-Regular-55"/>
      <use x="499.999847" xlink:href="#Inconsolata-Regular-45"/>
      <use x="549.999832" xlink:href="#Inconsolata-Regular-100"/>
      <use x="599.999817" xlink:href="#Inconsolata-Regular-97"/>
      <use x="649.999802" xlink:href="#Inconsolata-Regular-121"/>
      <use x="699.999786" xlink:href="#Inconsolata-Regular-32"/>
      <use x="749.999771" xlink:href="#Inconsolata-Regular-109"/>
      <use x="799.999756" xlink:href="#Inconsolata-Regular-101"/>
      <use x="849.999741" xlink:href="#Inconsolata-Regular-97"/>
      <use x="899.999725" xlink:href="#Inconsolata-Regular-110"/>
      <use x="949.99971" xlink:href="#Inconsolata-Regular-41"/>
     </g>
    </g>
   </g>
   <g id="line2d_100">
    <path clip-path="url(#p9132a4732f)" d="M -1 167.307177 
L 1.603811 165.44281 
L 6.747508 171.355301 
L 11.891205 172.602375 
L 17.034902 175.442965 
L 22.1786 172.602375 
L 27.322297 172.602375 
L 32.465994 177.084493 
L 37.609691 186.242275 
L 42.753389 189.718876 
L 53.040783 189.718876 
L 58.18448 194.200994 
L 68.471875 194.200994 
L 73.615572 143.844191 
L 83.902967 117.77627 
L 94.190361 107.112189 
L 99.334059 104.558798 
L 104.477756 100.4686 
L 109.621453 95.778869 
L 119.908848 88.121141 
L 125.052545 85.896585 
L 130.196242 84.166817 
L 135.339939 81.301777 
L 140.483637 80.752626 
L 150.771031 81.128766 
L 161.058426 83.832316 
L 166.202123 85.851907 
L 171.34582 90.535255 
L 176.489517 91.884208 
L 181.633215 94.701453 
L 186.776912 98.608214 
L 191.920609 103.008116 
L 197.064306 106.262669 
L 202.208004 108.010714 
L 207.351701 107.034772 
L 212.495398 110.214964 
L 217.639095 109.340223 
L 222.782793 109.863782 
L 227.92649 108.964248 
L 233.070187 107.189992 
L 238.213884 108.704212 
L 243.357582 108.877086 
L 248.501279 108.725717 
L 253.644976 109.794486 
L 258.788674 109.702568 
L 263.932371 109.725496 
L 269.076068 111.091577 
L 274.219765 109.250939 
L 279.363463 108.196809 
L 284.50716 108.176022 
L 289.650857 108.490782 
L 294.794554 108.597132 
L 299.938252 109.748459 
L 305.081949 110.309965 
L 310.225646 111.066548 
L 315.369343 113.150555 
L 320.513041 114.586976 
L 325.656738 116.238957 
L 330.800435 118.444372 
L 335.944132 121.252872 
L 341.08783 123.80758 
L 351.375224 126.389713 
L 356.518921 128.233146 
L 361.662619 129.56828 
L 366.806316 129.983774 
L 371.950013 131.028642 
L 377.09371 133.355458 
L 382.237408 134.663648 
L 392.524802 139.107905 
L 397.668499 140.367589 
L 402.812197 142.47147 
L 407.955894 144.050553 
L 413.099591 143.640526 
L 418.243289 143.43949 
L 423.386986 143.43949 
L 428.530683 144.904471 
L 433.67438 146.042211 
L 438.818078 147.016285 
L 443.961775 146.28008 
L 449.105472 146.766998 
L 454.249169 149.756681 
L 459.392867 152.009273 
L 464.536564 152.009273 
L 469.680261 151.003755 
L 474.823958 147.527154 
L 479.967656 142.851491 
L 485.111353 138.369373 
L 490.25505 135.242901 
L 495.398747 132.64018 
L 500.542445 130.324336 
L 505.686142 129.083885 
L 510.829839 129.004597 
L 515.973536 130.760782 
L 521.117234 132.64018 
L 526.260931 134.105161 
L 531.404628 133.460375 
L 536.548325 135.361382 
L 541.692023 136.216975 
L 546.83572 135.722327 
L 551.979417 134.326159 
L 557.123114 134.215269 
L 562.266812 133.566003 
L 567.410509 132.740374 
L 572.554206 127.143184 
L 577.697903 124.68146 
L 582.841601 123.751028 
L 587.985298 123.638536 
L 598.272693 121.642395 
L 603.41639 121.204859 
L 608.560087 123.251088 
L 613.703784 124.326005 
L 618.847482 123.638536 
L 634.278573 123.638536 
L 634.278573 123.638536 
" style="fill:none;stroke:#348abd;stroke-linecap:square;stroke-width:4;"/>
   </g>
   <g id="line2d_101">
    <defs>
     <path d="M 0 3 
C 0.795609 3 1.55874 2.683901 2.12132 2.12132 
C 2.683901 1.55874 3 0.795609 3 0 
C 3 -0.795609 2.683901 -1.55874 2.12132 -2.12132 
C 1.55874 -2.683901 0.795609 -3 0 -3 
C -0.795609 -3 -1.55874 -2.683901 -2.12132 -2.12132 
C -2.683901 -1.55874 -3 -0.795609 -3 0 
C -3 0.795609 -2.683901 1.55874 -2.12132 2.12132 
C -1.55874 2.683901 -0.795609 3 0 3 
z
" id="m14fa54fc22" style="stroke:#348abd;"/>
    </defs>
    <g clip-path="url(#p9132a4732f)">
     <use style="fill:#348abd;stroke:#348abd;" x="634.278573" xlink:href="#m14fa54fc22" y="123.638536"/>
    </g>
   </g>
   <g id="line2d_102">
    <path clip-path="url(#p9132a4732f)" d="M -1 197.320336 
L 1.603811 200.518186 
L 6.747508 200.518186 
L 6.780859 433 
M 47.865274 433 
L 47.897086 211.317496 
L 53.040783 173.958022 
L 58.18448 158.326464 
L 63.328178 157.320946 
L 68.471875 146.766998 
L 73.615572 137.526999 
L 83.902967 130.49745 
L 89.046664 126.256549 
L 94.190361 116.627157 
L 99.334059 111.091577 
L 104.477756 108.812033 
L 109.621453 105.163274 
L 114.76515 103.431268 
L 119.908848 100.080797 
L 125.052545 95.929585 
L 130.196242 96.410194 
L 135.339939 86.551457 
L 145.627334 79.401446 
L 155.914728 71.690428 
L 161.058426 67.179872 
L 166.202123 63.444345 
L 171.34582 60.329109 
L 181.633215 57.755389 
L 186.776912 55.688844 
L 191.920609 54.356399 
L 197.064306 53.545955 
L 202.208004 51.437653 
L 207.351701 50.180448 
L 212.495398 48.088091 
L 217.639095 47.342201 
L 222.782793 47.090177 
L 227.92649 46.686479 
L 233.070187 46.00837 
L 238.213884 45.890856 
L 243.357582 46.108978 
L 248.501279 46.857982 
L 253.644976 47.008433 
L 258.788674 47.652076 
L 269.076068 48.113579 
L 274.219765 49.036279 
L 284.50716 51.33023 
L 294.794554 52.519649 
L 299.938252 54.378082 
L 310.225646 57.400941 
L 315.369343 57.63499 
L 320.513041 58.290395 
L 325.656738 59.252586 
L 330.800435 59.558543 
L 335.944132 59.614571 
L 341.08783 60.599246 
L 346.231527 61.060824 
L 351.375224 63.026436 
L 356.518921 63.528106 
L 361.662619 64.235947 
L 366.806316 65.382561 
L 371.950013 65.478793 
L 377.09371 66.489584 
L 382.237408 68.007465 
L 387.381105 69.326455 
L 397.668499 71.50379 
L 402.812197 72.523261 
L 407.955894 73.166386 
L 413.099591 74.23895 
L 418.243289 74.721537 
L 423.386986 74.504674 
L 433.67438 75.229575 
L 438.818078 74.714259 
L 449.105472 75.945173 
L 454.249169 78.469827 
L 459.392867 79.766104 
L 464.536564 80.511509 
L 469.680261 80.294872 
L 474.823958 82.192965 
L 479.967656 79.894087 
L 485.111353 80.699117 
L 490.25505 80.112041 
L 495.398747 80.340047 
L 500.542445 81.209511 
L 505.686142 82.255804 
L 510.829839 81.905587 
L 515.973536 84.526859 
L 521.117234 86.314767 
L 526.260931 85.694083 
L 531.404628 85.513569 
L 536.548325 85.557286 
L 541.692023 86.157262 
L 546.83572 86.608594 
L 551.979417 88.340583 
L 557.123114 88.824917 
L 567.410509 92.879021 
L 582.841601 92.879021 
L 582.841601 92.879021 
" style="fill:none;stroke:#348abd;stroke-linecap:square;stroke-opacity:0.4;stroke-width:2;"/>
   </g>
   <g id="line2d_103">
    <defs>
     <path d="M 0 3 
C 0.795609 3 1.55874 2.683901 2.12132 2.12132 
C 2.683901 1.55874 3 0.795609 3 0 
C 3 -0.795609 2.683901 -1.55874 2.12132 -2.12132 
C 1.55874 -2.683901 0.795609 -3 0 -3 
C -0.795609 -3 -1.55874 -2.683901 -2.12132 -2.12132 
C -2.683901 -1.55874 -3 -0.795609 -3 0 
C -3 0.795609 -2.683901 1.55874 -2.12132 2.12132 
C -1.55874 2.683901 -0.795609 3 0 3 
z
" id="m3918e26ae8" style="stroke:#348abd;stroke-opacity:0.4;"/>
    </defs>
    <g clip-path="url(#p9132a4732f)">
     <use style="fill:#348abd;fill-opacity:0.4;stroke:#348abd;stroke-opacity:0.4;" x="582.841601" xlink:href="#m3918e26ae8" y="92.879021"/>
    </g>
   </g>
   <g id="line2d_104">
    <path clip-path="url(#p9132a4732f)" d="M 16.99798 433 
L 17.034902 175.442965 
L 22.1786 172.602375 
L 27.322297 169.125774 
L 32.465994 161.803065 
L 37.609691 155.058995 
L 42.753389 153.844345 
L 47.897086 152.009273 
L 53.040783 154.6435 
L 58.18448 150.682504 
L 63.328178 147.269626 
L 73.615572 143.844191 
L 78.75927 144.471662 
L 83.902967 134.326159 
L 89.046664 129.816244 
L 94.190361 127.213523 
L 99.334059 123.196517 
L 104.477756 120.274427 
L 109.621453 116.484871 
L 114.76515 112.923519 
L 119.908848 111.888095 
L 125.052545 106.766803 
L 130.196242 100.192394 
L 135.339939 99.546431 
L 140.483637 96.449291 
L 145.627334 94.570783 
L 150.771031 91.920756 
L 155.914728 90.368764 
L 161.058426 88.993809 
L 166.202123 89.828435 
L 171.34582 88.340583 
L 176.489517 89.324791 
L 181.633215 89.430462 
L 186.776912 90.676496 
L 191.920609 91.501988 
L 197.064306 93.611963 
L 202.208004 95.399187 
L 207.351701 98.056062 
L 212.495398 99.180656 
L 222.782793 103.819046 
L 227.92649 105.597289 
L 233.070187 108.113826 
L 238.213884 110.942006 
L 243.357582 112.89537 
L 248.501279 113.88215 
L 258.788674 119.8732 
L 269.076068 124.384687 
L 274.219765 122.71379 
L 279.363463 123.978479 
L 284.50716 126.591618 
L 289.650857 127.861288 
L 294.794554 128.769124 
L 299.938252 132.740374 
L 305.081949 135.967688 
L 310.225646 138.957371 
L 315.369343 139.883195 
L 325.656738 139.568434 
L 330.800435 138.957371 
L 335.944132 139.413407 
L 341.08783 138.808278 
L 346.231527 138.369373 
L 351.375224 135.967688 
L 356.518921 135.361382 
L 361.662619 134.105161 
L 366.806316 133.566003 
L 371.950013 134.326159 
L 377.09371 134.326159 
L 382.237408 135.967688 
L 387.381105 136.343131 
L 392.524802 138.808278 
L 397.668499 140.367589 
L 402.812197 138.660598 
L 407.955894 137.122298 
L 413.099591 138.808278 
L 418.243289 138.660598 
L 423.386986 139.883195 
L 428.530683 140.867529 
L 433.67438 140.867529 
L 438.818078 143.844191 
L 443.961775 146.521637 
L 449.105472 145.125469 
L 454.249169 147.527154 
L 459.392867 148.055344 
L 464.536564 145.807919 
L 469.680261 145.349647 
L 474.823958 145.125469 
L 479.967656 142.100497 
L 485.111353 143.43949 
L 490.25505 141.560092 
L 495.398747 140.367589 
L 500.542445 141.209963 
L 505.686142 141.209963 
L 510.829839 142.660322 
L 515.973536 145.577098 
L 531.404628 145.577098 
L 531.404628 145.577098 
" style="fill:none;stroke:#988ed5;stroke-linecap:square;stroke-opacity:0.4;stroke-width:2;"/>
   </g>
   <g id="line2d_105">
    <defs>
     <path d="M 0 3 
C 0.795609 3 1.55874 2.683901 2.12132 2.12132 
C 2.683901 1.55874 3 0.795609 3 0 
C 3 -0.795609 2.683901 -1.55874 2.12132 -2.12132 
C 1.55874 -2.683901 0.795609 -3 0 -3 
C -0.795609 -3 -1.55874 -2.683901 -2.12132 -2.12132 
C -2.683901 -1.55874 -3 -0.795609 -3 0 
C -3 0.795609 -2.683901 1.55874 -2.12132 2.12132 
C -1.55874 2.683901 -0.795609 3 0 3 
z
" id="mf4f1f58bdf" style="stroke:#988ed5;stroke-opacity:0.4;"/>
    </defs>
    <g clip-path="url(#p9132a4732f)">
     <use style="fill:#988ed5;fill-opacity:0.4;stroke:#988ed5;stroke-opacity:0.4;" x="531.404628" xlink:href="#mf4f1f58bdf" y="145.577098"/>
    </g>
   </g>
   <g id="line2d_106">
    <path clip-path="url(#p9132a4732f)" d="M 22.146788 433 
L 22.1786 211.317496 
L 27.322297 211.317496 
L 32.465994 186.242275 
L 37.609691 186.242275 
L 42.753389 173.958022 
L 47.897086 168.120256 
L 58.18448 158.326464 
L 63.328178 151.003755 
L 68.471875 146.766998 
L 73.615572 139.883195 
L 78.75927 138.369373 
L 83.902967 132.148653 
L 89.046664 127.570063 
L 94.190361 127.284181 
L 99.334059 122.143406 
L 104.477756 119.741721 
L 109.621453 116.73473 
L 114.76515 114.032684 
L 119.908848 112.397207 
L 125.052545 110.097022 
L 130.196242 107.170505 
L 135.339939 105.93542 
L 140.483637 104.265132 
L 145.627334 102.180659 
L 150.771031 100.493954 
L 155.914728 99.534496 
L 161.058426 98.340738 
L 166.202123 97.345583 
L 176.489517 92.941404 
L 181.633215 92.980521 
L 186.776912 91.12892 
L 191.920609 90.32907 
L 197.064306 89.189097 
L 202.208004 88.504278 
L 207.351701 88.634113 
L 212.495398 88.975625 
L 217.639095 88.052481 
L 222.782793 88.975625 
L 227.92649 89.287666 
L 233.070187 90.355521 
L 238.213884 90.204033 
L 243.357582 90.428496 
L 248.501279 89.898976 
L 253.644976 90.145154 
L 258.788674 88.729223 
L 263.932371 88.457332 
L 269.076068 88.486657 
L 274.219765 88.885025 
L 279.363463 88.848932 
L 284.50716 89.337186 
L 289.650857 89.225987 
L 294.794554 90.515182 
L 299.938252 90.65624 
L 305.081949 90.302663 
L 310.225646 89.599778 
L 315.369343 90.2763 
L 320.513041 91.317857 
L 325.656738 92.119606 
L 330.800435 92.313521 
L 335.944132 92.104789 
L 341.08783 91.317857 
L 346.231527 92.134438 
L 351.375224 91.623568 
L 356.518921 90.983537 
L 371.950013 90.582194 
L 377.09371 89.480438 
L 382.237408 89.643977 
L 387.381105 88.999874 
L 392.524802 88.510156 
L 397.668499 88.771017 
L 402.812197 89.213681 
L 407.955894 89.054574 
L 413.099591 90.40192 
L 418.243289 89.201384 
L 423.386986 89.244465 
L 433.67438 88.369689 
L 438.818078 87.669021 
L 443.961775 87.955728 
L 449.105472 87.618969 
L 459.392867 88.323146 
L 464.536564 89.195239 
L 469.680261 88.569061 
L 474.823958 89.66929 
L 479.967656 89.207531 
L 485.111353 90.575479 
L 490.25505 91.310819 
L 495.398747 91.247613 
L 500.542445 91.024937 
L 515.973536 91.024937 
L 515.973536 91.024937 
" style="fill:none;stroke:#777777;stroke-linecap:square;stroke-opacity:0.4;stroke-width:2;"/>
   </g>
   <g id="line2d_107">
    <defs>
     <path d="M 0 3 
C 0.795609 3 1.55874 2.683901 2.12132 2.12132 
C 2.683901 1.55874 3 0.795609 3 0 
C 3 -0.795609 2.683901 -1.55874 2.12132 -2.12132 
C 1.55874 -2.683901 0.795609 -3 0 -3 
C -0.795609 -3 -1.55874 -2.683901 -2.12132 -2.12132 
C -2.683901 -1.55874 -3 -0.795609 -3 0 
C -3 0.795609 -2.683901 1.55874 -2.12132 2.12132 
C -1.55874 2.683901 -0.795609 3 0 3 
z
" id="m293f99ac1e" style="stroke:#777777;stroke-opacity:0.4;"/>
    </defs>
    <g clip-path="url(#p9132a4732f)">
     <use style="fill:#777777;fill-opacity:0.4;stroke:#777777;stroke-opacity:0.4;" x="515.973536" xlink:href="#m293f99ac1e" y="91.024937"/>
    </g>
   </g>
   <g id="line2d_108">
    <path clip-path="url(#p9132a4732f)" d="M -1 161.139512 
L 1.603811 158.326464 
L 6.747508 159.967992 
L 11.891205 153.084189 
L 17.034902 154.2388 
L 22.1786 153.084189 
L 27.322297 150.682504 
L 32.465994 150.682504 
L 37.609691 152.009273 
L 42.753389 152.009273 
L 47.897086 155.924779 
L 53.040783 155.924779 
L 63.328178 166.285184 
L 68.471875 166.285184 
L 73.615572 144.904471 
L 78.75927 144.904471 
L 83.902967 143.640526 
L 89.046664 127.426466 
L 94.190361 124.862276 
L 104.477756 115.523679 
L 109.621453 113.065028 
L 114.76515 109.0519 
L 119.908848 105.283585 
L 125.052545 101.088786 
L 130.196242 96.081773 
L 135.339939 94.657775 
L 140.483637 92.770449 
L 145.627334 91.275673 
L 150.771031 89.924707 
L 155.914728 88.439764 
L 161.058426 88.115408 
L 166.202123 87.663452 
L 171.34582 89.091147 
L 176.489517 91.40257 
L 181.633215 84.881439 
L 191.920609 83.941559 
L 197.064306 82.820813 
L 202.208004 82.118672 
L 207.351701 79.21903 
L 212.495398 76.621043 
L 217.639095 78.540976 
L 222.782793 77.176289 
L 227.92649 76.039949 
L 243.357582 75.172024 
L 248.501279 75.162037 
L 263.932371 75.587113 
L 274.219765 75.307482 
L 284.50716 75.097275 
L 294.794554 74.475986 
L 310.225646 74.224841 
L 315.369343 74.224841 
L 320.513041 74.112434 
L 341.08783 74.29551 
L 356.518921 74.416388 
L 366.806316 74.409251 
L 382.237408 74.624781 
L 392.524802 74.875157 
L 402.812197 75.277278 
L 418.243289 75.510351 
L 433.67438 75.510351 
L 433.67438 75.510351 
" style="fill:none;stroke:#fbc15e;stroke-linecap:square;stroke-opacity:0.4;stroke-width:2;"/>
   </g>
   <g id="line2d_109">
    <defs>
     <path d="M 0 3 
C 0.795609 3 1.55874 2.683901 2.12132 2.12132 
C 2.683901 1.55874 3 0.795609 3 0 
C 3 -0.795609 2.683901 -1.55874 2.12132 -2.12132 
C 1.55874 -2.683901 0.795609 -3 0 -3 
C -0.795609 -3 -1.55874 -2.683901 -2.12132 -2.12132 
C -2.683901 -1.55874 -3 -0.795609 -3 0 
C -3 0.795609 -2.683901 1.55874 -2.12132 2.12132 
C -1.55874 2.683901 -0.795609 3 0 3 
z
" id="md6af091fd0" style="stroke:#fbc15e;stroke-opacity:0.4;"/>
    </defs>
    <g clip-path="url(#p9132a4732f)">
     <use style="fill:#fbc15e;fill-opacity:0.4;stroke:#fbc15e;stroke-opacity:0.4;" x="433.67438" xlink:href="#md6af091fd0" y="75.510351"/>
    </g>
   </g>
   <g id="line2d_110">
    <path clip-path="url(#p9132a4732f)" d="M 32.434182 433 
L 32.465994 211.317496 
L 37.609691 211.317496 
L 42.753389 178.919566 
L 47.897086 178.919566 
L 53.040783 166.285184 
L 58.18448 159.967992 
L 63.328178 153.084189 
L 68.471875 148.882801 
L 73.615572 141.384044 
L 78.75927 138.660598 
L 83.902967 128.308595 
L 89.046664 125.292523 
L 94.190361 121.941064 
L 99.334059 120.87285 
L 104.477756 116.662932 
L 109.621453 112.671996 
L 114.76515 113.351963 
L 119.908848 104.908553 
L 125.052545 102.336958 
L 130.196242 94.000144 
L 135.339939 94.312686 
L 140.483637 91.346044 
L 145.627334 90.210589 
L 150.771031 84.522307 
L 155.914728 81.502958 
L 161.058426 77.959754 
L 166.202123 77.787465 
L 171.34582 74.304957 
L 176.489517 72.987352 
L 181.633215 71.55321 
L 202.208004 72.605657 
L 207.351701 73.096274 
L 212.495398 73.993882 
L 222.782793 73.340837 
L 227.92649 74.1101 
L 233.070187 74.702137 
L 238.213884 75.08982 
L 243.357582 76.481873 
L 248.501279 76.720034 
L 253.644976 77.099784 
L 263.932371 78.791013 
L 269.076068 79.911005 
L 279.363463 81.975004 
L 284.50716 83.381683 
L 289.650857 86.289255 
L 294.794554 88.328956 
L 299.938252 89.250629 
L 305.081949 90.737422 
L 310.225646 90.548652 
L 315.369343 91.018029 
L 320.513041 91.935399 
L 335.944132 96.380936 
L 341.08783 97.480927 
L 346.231527 99.356572 
L 351.375224 100.595785 
L 356.518921 100.840335 
L 361.662619 101.666141 
L 366.806316 102.351245 
L 371.950013 103.263656 
L 377.09371 104.942276 
L 382.237408 106.336334 
L 387.381105 106.842896 
L 392.524802 108.280237 
L 397.668499 110.333806 
L 402.812197 113.294152 
L 407.955894 114.431017 
L 413.099591 116.698789 
L 418.243289 117.969815 
L 423.386986 119.482047 
L 428.530683 119.142412 
L 438.818078 120.639959 
L 443.961775 122.092574 
L 449.105472 121.397804 
L 454.249169 123.415959 
L 459.392867 125.106675 
L 464.536564 126.058913 
L 469.680261 125.607284 
L 474.823958 126.524025 
L 479.967656 129.3242 
L 485.111353 132.942716 
L 490.25505 133.355458 
L 495.398747 133.355458 
L 500.542445 133.995827 
L 505.686142 136.989701 
L 510.829839 139.259907 
L 515.973536 136.598548 
L 521.117234 136.727844 
L 526.260931 135.967688 
L 531.404628 136.091833 
L 536.548325 137.66427 
L 541.692023 137.122298 
L 546.83572 137.122298 
L 551.979417 138.369373 
L 567.410509 138.369373 
L 567.410509 138.369373 
" style="fill:none;stroke:#8eba42;stroke-linecap:square;stroke-opacity:0.4;stroke-width:2;"/>
   </g>
   <g id="line2d_111">
    <defs>
     <path d="M 0 3 
C 0.795609 3 1.55874 2.683901 2.12132 2.12132 
C 2.683901 1.55874 3 0.795609 3 0 
C 3 -0.795609 2.683901 -1.55874 2.12132 -2.12132 
C 1.55874 -2.683901 0.795609 -3 0 -3 
C -0.795609 -3 -1.55874 -2.683901 -2.12132 -2.12132 
C -2.683901 -1.55874 -3 -0.795609 -3 0 
C -3 0.795609 -2.683901 1.55874 -2.12132 2.12132 
C -1.55874 2.683901 -0.795609 3 0 3 
z
" id="m22f0adde23" style="stroke:#8eba42;stroke-opacity:0.4;"/>
    </defs>
    <g clip-path="url(#p9132a4732f)">
     <use style="fill:#8eba42;fill-opacity:0.4;stroke:#8eba42;stroke-opacity:0.4;" x="567.410509" xlink:href="#m22f0adde23" y="138.369373"/>
    </g>
   </g>
   <g id="line2d_112">
    <path clip-path="url(#p9132a4732f)" d="M -1 211.317496 
L 1.603811 211.317496 
L 1.635622 433 
M 11.857854 433 
L 11.891205 200.518186 
L 22.1786 200.518186 
L 27.322297 154.6435 
L 32.465994 154.6435 
L 37.609691 152.359402 
L 42.753389 152.009273 
L 47.897086 152.009273 
L 53.040783 149.459908 
L 58.18448 147.789011 
L 63.328178 151.33177 
L 68.471875 145.807919 
L 73.615572 140.867529 
L 78.75927 132.148653 
L 83.902967 128.233146 
L 89.046664 120.732698 
L 94.190361 116.308823 
L 99.334059 114.807974 
L 104.477756 106.336334 
L 109.621453 101.707232 
L 114.76515 97.926407 
L 119.908848 93.579369 
L 125.052545 90.541952 
L 130.196242 86.489364 
L 140.483637 77.20472 
L 145.627334 74.540609 
L 150.771031 64.87397 
L 155.914728 59.467126 
L 161.058426 54.930187 
L 166.202123 50.836393 
L 171.34582 46.535116 
L 176.489517 43.547244 
L 181.633215 40.414838 
L 186.776912 37.482303 
L 191.920609 34.906554 
L 197.064306 32.550696 
L 202.208004 30.799249 
L 207.351701 29.328524 
L 212.495398 27.356325 
L 217.639095 25.862279 
L 233.070187 22.172586 
L 243.357582 20.824027 
L 258.788674 19.708891 
L 263.932371 19.586547 
L 269.076068 19.820823 
L 274.219765 19.766397 
L 284.50716 20.344698 
L 299.938252 20.896997 
L 305.081949 20.699077 
L 310.225646 20.875545 
L 320.513041 20.82212 
L 325.656738 20.861693 
L 330.800435 21.053183 
L 335.944132 20.738339 
L 346.231527 20.611361 
L 356.518921 21.089778 
L 361.662619 21.180002 
L 366.806316 21.125758 
L 371.950013 21.294015 
L 377.09371 21.589202 
L 382.237408 21.760865 
L 392.524802 21.8003 
L 402.812197 22.142826 
L 407.955894 22.746605 
L 413.099591 23.047949 
L 418.243289 23.566184 
L 433.67438 24.517805 
L 438.818078 24.549176 
L 443.961775 24.730107 
L 454.249169 24.867791 
L 459.392867 24.58061 
L 464.536564 24.701012 
L 469.680261 24.481864 
L 485.111353 25.137703 
L 490.25505 24.967827 
L 500.542445 25.385966 
L 505.686142 25.908215 
L 510.829839 26.198233 
L 515.973536 26.147032 
L 521.117234 25.88391 
L 526.260931 25.950256 
L 541.692023 25.386068 
L 546.83572 25.533727 
L 562.266812 25.486925 
L 567.410509 25.486925 
L 567.410509 25.486925 
" style="fill:none;stroke:#ffb5b8;stroke-linecap:square;stroke-opacity:0.4;stroke-width:2;"/>
   </g>
   <g id="line2d_113">
    <defs>
     <path d="M 0 3 
C 0.795609 3 1.55874 2.683901 2.12132 2.12132 
C 2.683901 1.55874 3 0.795609 3 0 
C 3 -0.795609 2.683901 -1.55874 2.12132 -2.12132 
C 1.55874 -2.683901 0.795609 -3 0 -3 
C -0.795609 -3 -1.55874 -2.683901 -2.12132 -2.12132 
C -2.683901 -1.55874 -3 -0.795609 -3 0 
C -3 0.795609 -2.683901 1.55874 -2.12132 2.12132 
C -1.55874 2.683901 -0.795609 3 0 3 
z
" id="md1832ad60f" style="stroke:#ffb5b8;stroke-opacity:0.4;"/>
    </defs>
    <g clip-path="url(#p9132a4732f)">
     <use style="fill:#ffb5b8;fill-opacity:0.4;stroke:#ffb5b8;stroke-opacity:0.4;" x="567.410509" xlink:href="#md1832ad60f" y="25.486925"/>
    </g>
   </g>
   <g id="patch_3">
    <path d="M 68.471875 181 
L 68.471875 10 
" style="fill:none;stroke:#ffffff;stroke-linecap:square;stroke-linejoin:miter;"/>
   </g>
   <g id="patch_4">
    <path d="M 678 181 
L 678 10 
" style="fill:none;stroke:#ffffff;stroke-linecap:square;stroke-linejoin:miter;"/>
   </g>
   <g id="patch_5">
    <path d="M 68.471875 181 
L 678 181 
" style="fill:none;stroke:#ffffff;stroke-linecap:square;stroke-linejoin:miter;"/>
   </g>
   <g id="patch_6">
    <path d="M 68.471875 10 
L 678 10 
" style="fill:none;stroke:#ffffff;stroke-linecap:square;stroke-linejoin:miter;"/>
   </g>
   <g id="text_19">
    <!-- Korea, South -->
    <defs>
     <path d="M 16.59375 31.203125 
L 11.703125 25.796875 
L 11.703125 0 
L 4.203125 0 
L 4.203125 62.296875 
L 12.59375 62.296875 
L 12.59375 61.59375 
Q 12 61 11.84375 60.296875 
Q 11.703125 59.59375 11.703125 57.90625 
L 11.703125 33.59375 
L 37.703125 62.796875 
Q 40.203125 62.296875 42.90625 62.296875 
L 45.5 62.296875 
L 21.90625 35.40625 
L 47.09375 0 
L 38.09375 -0.40625 
z
" id="Inconsolata-Regular-75"/>
     <path d="M 16.5 -13.796875 
Q 19.296875 -11.203125 21.140625 -8.203125 
Q 23 -5.203125 23 -3.296875 
Q 23 -2.40625 22.5 -1.796875 
Q 22 -1.203125 20.703125 0 
Q 19.296875 1.296875 18.59375 2.1875 
Q 17.90625 3.09375 17.90625 4.40625 
Q 17.90625 6.90625 19.546875 8.59375 
Q 21.203125 10.296875 23.796875 10.296875 
Q 26.5 10.296875 28.546875 7.9375 
Q 30.59375 5.59375 30.59375 2 
Q 30.59375 -5.796875 19.90625 -16.796875 
z
" id="Inconsolata-Regular-44"/>
     <path d="M 29.796875 34.40625 
Q 38.703125 30.703125 42.09375 26.796875 
Q 45.5 22.90625 45.5 17 
Q 45.5 12.40625 43.25 8.296875 
Q 41 4.203125 36.296875 1.59375 
Q 31.59375 -1 24.703125 -1 
Q 12.59375 -1 5.203125 6.90625 
L 8.796875 13.203125 
L 8.796875 13.296875 
Q 8.90625 13.296875 8.90625 13.25 
Q 8.90625 13.203125 8.90625 13.203125 
Q 11.59375 9.59375 15.84375 7.4375 
Q 20.09375 5.296875 25.703125 5.296875 
Q 31.203125 5.296875 34.890625 8.390625 
Q 38.59375 11.5 38.59375 16 
Q 38.59375 18.90625 37.4375 20.84375 
Q 36.296875 22.796875 33.296875 24.6875 
Q 30.296875 26.59375 24.296875 29.203125 
Q 15.09375 32.796875 11.140625 37.390625 
Q 7.203125 42 7.203125 47.703125 
Q 7.203125 54.703125 12.296875 58.890625 
Q 17.40625 63.09375 26.203125 63.09375 
Q 31.296875 63.09375 35.75 61.046875 
Q 40.203125 59 43.5 55.296875 
L 39.59375 50.09375 
L 39.5 50 
Q 36.5 54.09375 33.25 55.6875 
Q 30 57.296875 25.09375 57.296875 
Q 20.296875 57.296875 17.34375 54.640625 
Q 14.40625 52 14.40625 48.203125 
Q 14.40625 45.296875 15.65625 43.140625 
Q 16.90625 41 20.203125 38.953125 
Q 23.5 36.90625 29.796875 34.40625 
z
M 38.40625 49.796875 
Q 38.40625 50.09375 38.796875 49.890625 
Q 39.203125 49.703125 39.296875 49.703125 
L 39 49.296875 
L 38.40625 49.703125 
z
M 39.5 50 
Q 40.09375 49.203125 39.75 49.453125 
Q 39.40625 49.703125 39.296875 49.703125 
L 39.5 50 
z
M 9.90625 13.59375 
Q 9.90625 13.296875 9.5 13.5 
Q 9.09375 13.703125 9 13.703125 
L 9.203125 14.09375 
L 9.90625 13.703125 
z
M 8.796875 13.296875 
Q 8.203125 14.09375 9 13.703125 
L 8.796875 13.296875 
z
" id="Inconsolata-Regular-83"/>
     <path d="M 22.09375 -1.09375 
Q 14.90625 -1.09375 10.59375 4.25 
Q 6.296875 9.59375 6.40625 20.203125 
L 6.5 45.703125 
L 13.5 45.703125 
L 13.5 20.203125 
Q 13.5 12 16.34375 8.34375 
Q 19.203125 4.703125 23.90625 4.703125 
Q 29.09375 4.703125 32.640625 8.75 
Q 36.203125 12.796875 36.203125 20.5 
L 36.203125 45.703125 
L 43.203125 45.703125 
L 43.203125 7.09375 
Q 43.203125 4.703125 43.34375 3.140625 
Q 43.5 1.59375 44.203125 0 
L 37.296875 0 
Q 36.59375 1.5 36.4375 3.09375 
Q 36.296875 4.703125 36.296875 7 
Q 34.09375 3.203125 30.34375 1.046875 
Q 26.59375 -1.09375 22.09375 -1.09375 
z
" id="Inconsolata-Regular-117"/>
     <path d="M 44.40625 4.203125 
Q 37.796875 -0.703125 29.90625 -0.703125 
Q 22.296875 -0.703125 19.140625 3.890625 
Q 16 8.5 16 18.90625 
Q 16 20.59375 16.203125 24.796875 
L 17.09375 39.796875 
L 7 39.796875 
L 7 45.703125 
L 17.5 45.703125 
L 18.203125 57.90625 
L 26.203125 59.203125 
L 27.203125 59.296875 
L 27.296875 58.703125 
Q 26.59375 57.703125 26.25 57 
Q 25.90625 56.296875 25.796875 54.796875 
L 24.703125 45.703125 
L 39.90625 45.703125 
L 39.90625 39.796875 
L 24.296875 39.796875 
L 23.40625 24.296875 
Q 23.203125 20.296875 23.203125 19 
Q 23.203125 11 25.046875 8.140625 
Q 26.90625 5.296875 31 5.296875 
Q 34 5.296875 36.5 6.390625 
Q 39 7.5 42.203125 9.90625 
z
" id="Inconsolata-Regular-116"/>
     <path d="M 7.296875 66.5 
L 15.203125 66.5 
L 15.203125 65.796875 
Q 14.59375 65.203125 14.4375 64.5 
Q 14.296875 63.796875 14.296875 62.09375 
L 14.296875 37.59375 
Q 17 41.796875 21.046875 44.296875 
Q 25.09375 46.796875 29.296875 46.796875 
Q 35.796875 46.796875 39.5 42.1875 
Q 43.203125 37.59375 43.203125 27.703125 
L 43.203125 0 
L 36.203125 0 
L 36.203125 27.5 
Q 36.203125 34.296875 33.890625 37.390625 
Q 31.59375 40.5 27.796875 40.5 
Q 24.59375 40.5 21.5 38.75 
Q 18.40625 37 16.34375 33.75 
Q 14.296875 30.5 14.296875 26.296875 
L 14.296875 0 
L 7.296875 0 
z
" id="Inconsolata-Regular-104"/>
    </defs>
    <g transform="translate(644.565968 123.638536)scale(0.1 -0.1)">
     <use xlink:href="#Inconsolata-Regular-75"/>
     <use x="49.999985" xlink:href="#Inconsolata-Regular-111"/>
     <use x="99.999969" xlink:href="#Inconsolata-Regular-114"/>
     <use x="149.999954" xlink:href="#Inconsolata-Regular-101"/>
     <use x="199.999939" xlink:href="#Inconsolata-Regular-97"/>
     <use x="249.999924" xlink:href="#Inconsolata-Regular-44"/>
     <use x="299.999908" xlink:href="#Inconsolata-Regular-32"/>
     <use x="349.999893" xlink:href="#Inconsolata-Regular-83"/>
     <use x="399.999878" xlink:href="#Inconsolata-Regular-111"/>
     <use x="449.999863" xlink:href="#Inconsolata-Regular-117"/>
     <use x="499.999847" xlink:href="#Inconsolata-Regular-116"/>
     <use x="549.999832" xlink:href="#Inconsolata-Regular-104"/>
    </g>
   </g>
   <g id="text_20">
    <!-- Germany -->
    <defs>
     <path d="M 46 29.90625 
L 46 5.5 
Q 37.09375 -1 27.703125 -1 
Q 20.296875 -1 14.84375 2.890625 
Q 9.40625 6.796875 6.5 13.890625 
Q 3.59375 21 3.59375 30.40625 
Q 3.5 42.796875 7.203125 50.046875 
Q 10.90625 57.296875 16.296875 60.140625 
Q 21.703125 63 27.203125 63 
Q 32.796875 63 38 60.09375 
Q 43.203125 57.203125 45.796875 52.5 
L 40.90625 48.59375 
L 40.796875 48.5 
Q 37.40625 53 34.5 54.890625 
Q 31.59375 56.796875 27.296875 56.796875 
Q 19.796875 56.796875 15.140625 51 
Q 10.5 45.203125 10.5 31.90625 
Q 10.5 19.09375 15.046875 12.140625 
Q 19.59375 5.203125 27.703125 5.203125 
Q 30.703125 5.203125 34 6.140625 
Q 37.296875 7.09375 39.5 9 
L 39.5 23.796875 
L 28.203125 23.796875 
L 28.203125 29.90625 
z
M 39.703125 48.5 
Q 39.703125 49.09375 40.59375 48.40625 
L 40.09375 47.90625 
L 39.703125 48.5 
z
M 40.796875 48.5 
Q 41.296875 47.796875 40.59375 48.40625 
L 40.796875 48.5 
z
" id="Inconsolata-Regular-71"/>
    </defs>
    <g transform="translate(593.128995 92.879021)scale(0.1 -0.1)">
     <use xlink:href="#Inconsolata-Regular-71"/>
     <use x="49.999985" xlink:href="#Inconsolata-Regular-101"/>
     <use x="99.999969" xlink:href="#Inconsolata-Regular-114"/>
     <use x="149.999954" xlink:href="#Inconsolata-Regular-109"/>
     <use x="199.999939" xlink:href="#Inconsolata-Regular-97"/>
     <use x="249.999924" xlink:href="#Inconsolata-Regular-110"/>
     <use x="299.999908" xlink:href="#Inconsolata-Regular-121"/>
    </g>
   </g>
   <g id="text_21">
    <!-- Australia -->
    <defs>
     <path d="M 41.203125 0 
L 34.90625 18.203125 
L 14.796875 18.203125 
L 8.5 0 
L 1.59375 0 
L 24.59375 63.40625 
L 25.40625 63.40625 
L 48.40625 0 
z
M 16.703125 23.59375 
L 33.09375 23.59375 
L 24.90625 47.40625 
z
" id="Inconsolata-Regular-65"/>
    </defs>
    <g transform="translate(541.692023 145.577098)scale(0.1 -0.1)">
     <use xlink:href="#Inconsolata-Regular-65"/>
     <use x="49.999985" xlink:href="#Inconsolata-Regular-117"/>
     <use x="99.999969" xlink:href="#Inconsolata-Regular-115"/>
     <use x="149.999954" xlink:href="#Inconsolata-Regular-116"/>
     <use x="199.999939" xlink:href="#Inconsolata-Regular-114"/>
     <use x="249.999924" xlink:href="#Inconsolata-Regular-97"/>
     <use x="299.999908" xlink:href="#Inconsolata-Regular-108"/>
     <use x="349.999893" xlink:href="#Inconsolata-Regular-105"/>
     <use x="399.999878" xlink:href="#Inconsolata-Regular-97"/>
    </g>
   </g>
   <g id="text_22">
    <!-- Poland -->
    <defs>
     <path d="M 5.90625 62.296875 
L 25.90625 62.296875 
Q 35.796875 62.296875 40.6875 57.390625 
Q 45.59375 52.5 45.59375 44.703125 
Q 45.59375 37 40.796875 32.25 
Q 36 27.5 26.40625 27.5 
L 13.09375 27.5 
L 13.09375 0 
L 5.90625 0 
z
M 25.59375 33.703125 
Q 32.203125 33.703125 35.296875 36.546875 
Q 38.40625 39.40625 38.40625 44.5 
Q 38.40625 49.40625 35.203125 52.546875 
Q 32 55.703125 25.703125 55.703125 
L 13.09375 55.703125 
L 13.09375 33.703125 
z
" id="Inconsolata-Regular-80"/>
    </defs>
    <g transform="translate(526.260931 91.024937)scale(0.1 -0.1)">
     <use xlink:href="#Inconsolata-Regular-80"/>
     <use x="49.999985" xlink:href="#Inconsolata-Regular-111"/>
     <use x="99.999969" xlink:href="#Inconsolata-Regular-108"/>
     <use x="149.999954" xlink:href="#Inconsolata-Regular-97"/>
     <use x="199.999939" xlink:href="#Inconsolata-Regular-110"/>
     <use x="249.999924" xlink:href="#Inconsolata-Regular-100"/>
    </g>
   </g>
   <g id="text_23">
    <!-- Belarus -->
    <defs>
     <path d="M 4.796875 62.296875 
L 22.5 62.296875 
Q 32.90625 62.296875 38.046875 58.25 
Q 43.203125 54.203125 43.203125 47.203125 
Q 43.203125 42.59375 40.75 38.75 
Q 38.296875 34.90625 34 33.40625 
Q 39.203125 31.59375 42.453125 27.140625 
Q 45.703125 22.703125 45.703125 17.5 
Q 45.703125 9.296875 39.890625 4.640625 
Q 34.09375 0 22.40625 0 
L 4.796875 0 
z
M 21.5 36.5 
Q 36.203125 36.5 36.203125 46.40625 
Q 36.203125 50.90625 32.890625 53.65625 
Q 29.59375 56.40625 22.59375 56.40625 
L 11.703125 56.40625 
L 11.703125 36.5 
z
M 23.59375 6.09375 
Q 38.296875 6.09375 38.296875 17.90625 
Q 38.296875 30.59375 21.90625 30.59375 
L 11.703125 30.59375 
L 11.703125 6.09375 
z
" id="Inconsolata-Regular-66"/>
    </defs>
    <g transform="translate(443.961775 75.510351)scale(0.1 -0.1)">
     <use xlink:href="#Inconsolata-Regular-66"/>
     <use x="49.999985" xlink:href="#Inconsolata-Regular-101"/>
     <use x="99.999969" xlink:href="#Inconsolata-Regular-108"/>
     <use x="149.999954" xlink:href="#Inconsolata-Regular-97"/>
     <use x="199.999939" xlink:href="#Inconsolata-Regular-114"/>
     <use x="249.999924" xlink:href="#Inconsolata-Regular-117"/>
     <use x="299.999908" xlink:href="#Inconsolata-Regular-115"/>
    </g>
   </g>
   <g id="text_24">
    <!-- Switzerland -->
    <defs>
     <path d="M 5 4.90625 
L 33.296875 39.40625 
L 7.09375 39.40625 
L 7.09375 45.703125 
L 42.59375 45.703125 
L 42.59375 40.796875 
L 14.796875 6.203125 
L 40.59375 6.203125 
Q 42.203125 6.203125 42.953125 6.390625 
Q 43.703125 6.59375 44.296875 7.203125 
L 45 7.203125 
L 45 0 
L 5 0 
z
" id="Inconsolata-Regular-122"/>
    </defs>
    <g transform="translate(577.697903 138.369373)scale(0.1 -0.1)">
     <use xlink:href="#Inconsolata-Regular-83"/>
     <use x="49.999985" xlink:href="#Inconsolata-Regular-119"/>
     <use x="99.999969" xlink:href="#Inconsolata-Regular-105"/>
     <use x="149.999954" xlink:href="#Inconsolata-Regular-116"/>
     <use x="199.999939" xlink:href="#Inconsolata-Regular-122"/>
     <use x="249.999924" xlink:href="#Inconsolata-Regular-101"/>
     <use x="299.999908" xlink:href="#Inconsolata-Regular-114"/>
     <use x="349.999893" xlink:href="#Inconsolata-Regular-108"/>
     <use x="399.999878" xlink:href="#Inconsolata-Regular-97"/>
     <use x="449.999863" xlink:href="#Inconsolata-Regular-110"/>
     <use x="499.999847" xlink:href="#Inconsolata-Regular-100"/>
    </g>
   </g>
   <g id="text_25">
    <!-- US -->
    <defs>
     <path d="M 25.09375 -1.09375 
Q 15.203125 -1.09375 10.09375 4.796875 
Q 5 10.703125 5 21.5 
L 5 62.296875 
L 12.796875 62.296875 
L 12.796875 61.59375 
Q 12.203125 61 12.046875 60.296875 
Q 11.90625 59.59375 11.90625 57.90625 
L 11.90625 21.40625 
Q 11.90625 13.40625 15 9.09375 
Q 18.09375 4.796875 25.203125 4.796875 
Q 32.40625 4.796875 35.546875 9.09375 
Q 38.703125 13.40625 38.703125 21.703125 
L 38.703125 62.296875 
L 45.40625 62.296875 
L 45.40625 21.796875 
Q 45.40625 10.296875 40.046875 4.59375 
Q 34.703125 -1.09375 25.09375 -1.09375 
z
" id="Inconsolata-Regular-85"/>
    </defs>
    <g transform="translate(577.697903 25.486925)scale(0.1 -0.1)">
     <use xlink:href="#Inconsolata-Regular-85"/>
     <use x="49.999985" xlink:href="#Inconsolata-Regular-83"/>
    </g>
   </g>
  </g>
 </g>
 <defs>
  <clipPath id="p9132a4732f">
   <rect height="171" width="609.528125" x="68.471875" y="10"/>
  </clipPath>
 </defs>
</svg>
